*
*
G04 PADS 9.5 Build Number: 522968 generated Gerber (RS-274-X) file*
G04 PC Version=2.1*
*
%IN "MCollar_SENSOR_working."*%
*
%MOIN*%
*
%FSLAX35Y35*%
*
*
*
*
G04 PC Standard Apertures*
*
*
G04 Thermal Relief Aperture macro.*
%AMTER*
1,1,$1,0,0*
1,0,$1-$2,0,0*
21,0,$3,$4,0,0,45*
21,0,$3,$4,0,0,135*
%
*
*
G04 Annular Aperture macro.*
%AMANN*
1,1,$1,0,0*
1,0,$2,0,0*
%
*
*
G04 Odd Aperture macro.*
%AMODD*
1,1,$1,0,0*
1,0,$1-0.005,0,0*
%
*
*
G04 PC Custom Aperture Macros*
*
*
*
*
*
*
G04 PC Aperture Table*
*
%ADD010C,0.001*%
%ADD013C,0.01*%
%ADD017C,0.00984*%
%ADD078R,0.01102X0.01575*%
%ADD079R,0.05906X0.03346*%
%ADD080R,0.01575X0.01102*%
%ADD081R,0.03X0.038*%
%ADD104R,0.03346X0.05906*%
%ADD106R,0.08268X0.08268*%
%ADD109R,0.02756X0.07087*%
%ADD110R,0.0315X0.07087*%
%ADD171R,0.02362X0.02*%
%ADD172R,0.02X0.02362*%
%ADD180R,0.02362X0.01575*%
%ADD183R,0.01181X0.07087*%
%ADD184R,0.055X0.05*%
%ADD185R,0.186X0.189*%
%ADD191R,0.02756X0.01772*%
*
*
*
*
G04 PC Circuitry*
G04 Layer Name MCollar_SENSOR_working. - circuitry*
%LPD*%
*
*
G04 PC Custom Flashes*
G04 Layer Name MCollar_SENSOR_working. - flashes*
%LPD*%
*
*
G04 PC Circuitry*
G04 Layer Name MCollar_SENSOR_working. - circuitry*
%LPD*%
*
G54D10*
G54D13*
G01X100000Y100000D02*
X255000D01*
Y226000*
X100000*
Y100000*
G54D17*
X238906Y182266D03*
X240874D03*
X238906Y184234D03*
X240874D03*
X222714Y187764D03*
X220746D03*
X222714Y185796D03*
X220746D03*
X202874Y168659D03*
X204843D03*
X206811D03*
X202874Y170628D03*
X206811D03*
X202874Y172596D03*
X206811D03*
X202874Y174565D03*
X206811D03*
X202874Y176533D03*
X204843D03*
X206811D03*
G54D78*
X242534Y144320D03*
X240566D03*
X238597D03*
X236629D03*
Y150816D03*
X238597D03*
X240566D03*
X242534D03*
X194464Y129460D03*
X192496D03*
X190527D03*
X188559D03*
Y135956D03*
X190527D03*
X192496D03*
X194464D03*
G54D79*
X239680Y147564D03*
X191610Y132704D03*
G54D80*
X229450Y112816D03*
Y114784D03*
Y116753D03*
Y118721D03*
X235946D03*
Y116753D03*
Y114784D03*
Y112816D03*
G54D81*
X208500Y153600D03*
Y159800D03*
G54D104*
X232694Y115670D03*
G54D106*
X235118Y202839D03*
G54D109*
X157123Y151602D03*
X122477D03*
Y189398D03*
X157123D03*
G54D110*
X152792Y151602D03*
X148461D03*
X144131D03*
X139800D03*
X135469D03*
X131139D03*
X126808D03*
Y189398D03*
X131139D03*
X135469D03*
X139800D03*
X144131D03*
X148461D03*
X152792D03*
G54D171*
X242910Y155335D03*
X246847D03*
X236230D03*
X232293D03*
X194520Y140135D03*
X198457D03*
X187980Y140065D03*
X184043D03*
X237550Y177415D03*
X241487D03*
X227690Y188255D03*
X231627D03*
X225310Y180495D03*
X221373D03*
X229320Y108625D03*
X233257D03*
X229500Y123185D03*
X233437D03*
X225480Y171965D03*
X221543D03*
X212720Y179835D03*
X216657D03*
X212720Y174935D03*
X216657D03*
X196480Y175265D03*
X192543D03*
X195580Y181665D03*
X191643D03*
X195480Y186965D03*
X191543D03*
G54D172*
X218735Y160380D03*
Y156443D03*
X214235Y160380D03*
Y156443D03*
X246765Y144520D03*
Y148457D03*
X239865Y118620D03*
Y122557D03*
X239935Y112280D03*
Y108343D03*
X135385Y206280D03*
Y202343D03*
X184165Y129420D03*
Y133357D03*
X198765Y129120D03*
Y133057D03*
X246775Y182170D03*
Y178233D03*
X232135Y144340D03*
Y148277D03*
X211265Y184120D03*
Y188057D03*
X216065Y187730D03*
Y191667D03*
X104235Y169360D03*
Y173297D03*
X176555Y181540D03*
Y177603D03*
X250445Y194960D03*
Y191023D03*
X185135Y184880D03*
Y180943D03*
X118035Y146280D03*
Y142343D03*
X206635Y187780D03*
Y183843D03*
X202765Y158720D03*
Y162657D03*
X201665Y183720D03*
Y187657D03*
X196365Y165920D03*
Y169857D03*
X196335Y160980D03*
Y157043D03*
X191565Y165920D03*
Y169857D03*
X186865Y165920D03*
Y169857D03*
G54D180*
X146652Y209746D03*
Y206990D03*
X143108D03*
Y209746D03*
G54D183*
X162520Y121997D03*
Y106249D03*
X164489Y121997D03*
Y106249D03*
X166457Y121997D03*
Y106249D03*
X168426Y121997D03*
Y106249D03*
X170394Y121997D03*
Y106249D03*
X172363Y121997D03*
Y106249D03*
X174331Y121997D03*
Y106249D03*
X176300Y121997D03*
Y106249D03*
X178269Y121997D03*
Y106249D03*
X180237Y121997D03*
Y106249D03*
X182206Y121997D03*
Y106249D03*
X184174Y121997D03*
Y106249D03*
X186143Y121997D03*
Y106249D03*
X188111Y121997D03*
Y106249D03*
X190080Y121997D03*
Y106249D03*
X192048Y121997D03*
Y106249D03*
X194017Y121997D03*
Y106249D03*
X195985Y121997D03*
Y106249D03*
X197954Y121997D03*
Y106249D03*
X199922Y121997D03*
Y106249D03*
X201891Y121997D03*
Y106249D03*
X203859Y121997D03*
Y106249D03*
X205828Y121997D03*
Y106249D03*
X207796Y121997D03*
Y106249D03*
X209765Y121997D03*
Y106249D03*
X162520Y213729D03*
Y197981D03*
X164489Y213729D03*
Y197981D03*
X166457Y213729D03*
Y197981D03*
X168426Y213729D03*
Y197981D03*
X170394Y213729D03*
Y197981D03*
X172363Y213729D03*
Y197981D03*
X174331Y213729D03*
Y197981D03*
X176300Y213729D03*
Y197981D03*
X178269Y213729D03*
Y197981D03*
X180237Y213729D03*
Y197981D03*
X182206Y213729D03*
Y197981D03*
X184174Y213729D03*
Y197981D03*
X186143Y213729D03*
Y197981D03*
X188111Y213729D03*
Y197981D03*
X190080Y213729D03*
Y197981D03*
X192048Y213729D03*
Y197981D03*
X194017Y213729D03*
Y197981D03*
X195985Y213729D03*
Y197981D03*
X197954Y213729D03*
Y197981D03*
X199922Y213729D03*
Y197981D03*
X201891Y213729D03*
Y197981D03*
X203859Y213729D03*
Y197981D03*
X205828Y213729D03*
Y197981D03*
X207796Y213729D03*
Y197981D03*
X209765Y213729D03*
Y197981D03*
G54D184*
X227000Y134600D03*
Y142800D03*
G54D185*
X212400Y138700D03*
G54D191*
X224488Y195300D03*
Y200300D03*
Y205300D03*
Y210300D03*
X245748D03*
Y205300D03*
Y200300D03*
Y195300D03*
X0Y0D02*
M02*
