%
T1C.005F0S0
X020484Y017063
X020484Y01726
X020484Y017456
T2C.007F0S0
X0151Y01375
X0147Y01375
X0147Y01415
X0151Y01415
X0151Y01455
X0147Y01455
X017236Y021641
X016843Y021639
X016449Y021639
X017039Y021105
X017827Y021105
X016646Y021103
X016252Y021102
X016843Y020067
X016449Y020066
X01763Y020066
X016643Y019537
X016252Y019528
X017827Y019527
X017039Y019526
X0155Y01455
X0155Y01415
X0155Y01375
X017433Y011928
X016646Y010895
X016252Y010894
X017039Y010894
X017433Y010893
X017827Y010893
X017236Y010356
X016843Y010355
X016449Y010353
X020386Y010354
X018811Y010355
X019599Y010355
X018024Y010355
X019205Y010355
X01999Y01036
X02019Y01089
X019402Y01089
X018221Y010893
X019008Y010893
X018614Y011929
X019795Y011929
X020189Y011929
X020386Y012468
X018614Y019527
X018221Y019527
X019008Y019528
X019402Y019528
X019795Y019529
X020189Y019529
X019992Y020066
X019599Y020066
X020386Y020067
X018811Y020068
X018417Y020068
X019205Y020068
X018024Y020068
X020189Y0211
X019402Y021102
X019795Y021102
X019008Y021102
X018024Y021641
X019205Y021642
X019992Y021642
X019599Y021642
X02078Y02164
X02078Y020066
X020583Y019528
X020976Y019525
X02078Y01247
X02098Y01193
X020583Y011929
X020976Y010894
T3C.01F095S3
X01158Y01069
X01043Y0129
X01194Y01293
X01217Y01383
X01043Y01392
X01218Y01422
X01217Y01457
X01192Y01496
X012248Y01568
X01268Y01568
X012853Y016452
X012197Y017188
X010782Y017363
X01225Y01825
X01268Y01914
X013566Y021093
X014935Y020975
X01529Y018423
X01311Y01825
X014215Y018179
X014036Y017983
X014841Y01788
X014241Y017786
X014239Y017437
X015303Y017046
X014131Y016883
X01455Y01648
X0151Y01648
X01333Y01598
X01311Y01568
X01484Y01567
X01336Y01391
X0131Y01341
X013301Y012969
X013597Y012953
X013886Y012945
X014194Y01293
X0152Y01172
X01314Y01157
X01476Y01126
X017443Y011373
X01556Y01172
X01591Y01202
X01785Y01281
X01775Y01307
X01785Y01331
X01771Y01402
X01782Y01428
X01769Y01451
X01785Y01472
X01613Y01534
X01613Y01565
X017746Y016046
X015451Y016292
X01763Y01634
X01577Y01649
X017208Y016714
X015708Y016894
X015647Y017306
X01791Y01731
X01766Y01731
X01667Y01761
X016466Y017801
X015613Y017877
X01667Y01796
X016473Y018145
X01667Y01831
X016446Y01848
X01662Y01866
X016841Y019079
X01767Y01909
X01732Y01909
X01715Y01928
X017498Y019281
X018873Y018987
X018614Y018987
X01955Y01898
X01818Y01883
X01987Y01877
X01817Y018476
X018898Y018432
X01916Y01843
X01815Y01815
X019592Y017849
X018906Y01784
X01925Y0178
X02001Y01751
X02003Y01722
X01916Y01629
X01869Y01629
X01996Y01587
X01934Y0157
X019826Y015302
X019739Y014612
X019739Y014356
X01913Y01411
X01912Y01385
X01811Y01378
X01842Y01364
X01988Y01362
X01916Y01327
X019609Y01274
X019269Y012716
X018991Y012713
X01862Y01271
X019958Y01126
X018394Y011244
X02263Y01086
X02261Y01131
X0219Y01165
X02236Y01196
X021214Y012415
X02207Y01259
X02192Y01463
X02078Y01497
X02156Y01498
X02278Y01514
X021874Y015223
X021411Y015355
X020513Y01536
X021153Y015361
X02085Y01639
X020593Y016486
X022548Y016923
X021049Y016984
X020901Y01726
X021943Y017453
X022137Y017769
X022909Y018041
X02167Y01827
X022075Y018359
X02143Y01845
X0226Y01849
X02066Y01908
X02227Y01909
X021126Y019119
X0227Y01912
X0219Y01917
X022737Y01953
X022737Y02103
X024886Y021605
X023503Y020291
X024285Y02003
X024266Y01953
X02471Y019102
X02418Y01871
X02389Y01866
X02468Y01852
X02468Y01752
X02415Y01747
X02392Y01732
X022984Y017175
X02476Y01681
X025019Y015994
X023623Y015837
X024977Y015534
X023994Y015534
X022933Y015533
X02468Y01514
X02397Y01475
X02321Y01416
X02464Y01415
X02372Y01392
X02326Y01389
X02401Y01387
X0233Y013515
X023462Y013045
X02367Y01232
X02327Y01157
X02399Y01154
X02429Y01122
X02364Y01086
X02428Y01083
T4C.015F095S3
X01429Y01036
X01367Y01036
X01305Y01036
X011428Y012462
X01361Y02225
X01485Y02225
X01423Y02225
X01547Y02225
X01615Y02225
X01653Y02225
X01715Y02225
X01777Y02225
X02281Y01035
X02219Y01035
X01939Y02225
X02001Y02225
X01839Y02225
X01901Y02225
X02063Y02225
X02125Y02225
X02187Y02225
X02249Y02225
X02311Y02225
X02373Y02225
X02411Y02225
X02473Y02225
X02511Y02225
X02515Y015
X02515Y01438
X02515Y01376
X02507Y01107
X02507Y01045
X02343Y01035
X02405Y01035
T5C.025F197S55
X01042Y01539
X01042Y01634
T6C.03937F197S55
X014488Y020167
T7C.048F139S55
X01064Y012041
X024863Y012853
X024863Y011853
M30
