%
T1C.015F095S3
X01546Y01201
X0148Y0122
X01559Y01318
X01437Y01328
X014Y0138
X01558Y01399
X0136Y0146
X01561Y01476
X0132Y0154
X01559Y01558
X01697Y01663
X01641Y0384
X01384Y03865
X01639Y0392
X01361Y03922
X01641Y03999
X01359Y04002
X01639Y04077
X0136Y04079
X01641Y04158
X01359Y04159
X01361Y0424
X01642Y0424
X01641Y04314
X01362Y04321
X01641Y04353
X0153Y04361
X0136Y04399
X0176Y0268
X01755Y02597
X01758Y02521
X0176Y0244
X01762Y02361
X01763Y02276
X01724Y01716
X01709Y01553
X0172Y0148
X01719Y014
X0172Y0132
X0172Y0124
X0172Y0116
X0172Y0108
X0388Y0116
X0388Y012
X0388Y0128
X0388Y0136
X0388Y0144
X0388Y0152
X0388Y016
X0388Y0168
X03759Y02841
X03759Y02921
X0376Y03004
X03762Y0308
X0375Y0315
X0376Y03242
X0372Y0328
X03849Y03793
X038Y038
X03799Y0388
X03879Y0388
X0376Y0396
X03878Y03962
X03881Y04033
X0376Y0404
X03882Y04108
X0376Y0412
X038Y0424
X038Y0428
X038Y04355
X03803Y04438
X04009Y04107
X0409Y04071
X04107Y0404
X0412Y0396
X04Y0168
X0408Y016
X0408Y0152
X0408Y0144
X0408Y0136
X0408Y0128
X0408Y012
X0408Y0112
X042Y0112
T2C.048F139S55
X014Y023
X014Y024
X012Y024
X014Y025
X012Y025
X014Y026
X012Y026
X014Y027
X012Y027
X014Y028
X012Y028
X014Y029
X012Y029
X014Y03
X012Y03
X014Y031
X012Y031
X016Y031
X016Y03
X016Y029
X016Y028
X016Y027
X016Y026
X016Y025
X016Y024
X025Y011
X026Y011
X024Y013
X025Y013
X026Y013
X025Y015
X026Y015
X025Y04
X026Y04
X024Y042
X025Y042
X026Y042
X026Y044
X025Y044
X027Y044
X028Y044
X029Y044
X027Y042
X028Y042
X029Y042
X027Y04
X028Y04
X029Y04
X027Y015
X028Y015
X029Y015
X027Y013
X028Y013
X029Y013
X027Y011
X028Y011
X029Y011
X03Y011
X031Y011
X032Y011
X03Y013
X031Y013
X032Y013
X03Y015
X031Y015
X032Y015
X031Y04
X032Y04
X03Y04
X031Y042
X032Y042
X03Y042
X032Y044
X03Y044
X031Y044
X039Y031
X039Y03
X039Y029
X039Y028
X039Y027
X039Y026
X039Y025
X039Y024
X041Y023
X041Y024
X043Y024
X041Y025
X043Y025
X041Y026
X043Y026
X043Y027
X041Y027
X041Y028
X043Y028
X041Y029
X043Y029
X041Y03
X043Y03
X043Y031
X041Y031
M30
