*
*
G04 PADS VX.1.2 Build Number: 698008 generated Gerber (RS-274-X) file*
G04 PC Version=2.1*
*
%IN "GPSBoardV1Square.pcb"*%
*
%MOIN*%
*
%FSLAX35Y35*%
*
*
*
*
G04 PC Standard Apertures*
*
*
G04 Thermal Relief Aperture macro.*
%AMTER*
1,1,$1,0,0*
1,0,$1-$2,0,0*
21,0,$3,$4,0,0,45*
21,0,$3,$4,0,0,135*
%
*
*
G04 Annular Aperture macro.*
%AMANN*
1,1,$1,0,0*
1,0,$2,0,0*
%
*
*
G04 Odd Aperture macro.*
%AMODD*
1,1,$1,0,0*
1,0,$1-0.005,0,0*
%
*
*
G04 PC Custom Aperture Macros*
*
*
*
*
*
*
G04 PC Aperture Table*
*
%ADD010C,0.001*%
%ADD013C,0.01*%
%ADD016C,0.006*%
*
*
*
*
G04 PC Circuitry*
G04 Layer Name GPSBoardV1Square.pcb - circuitry*
%LPD*%
*
*
G04 PC Custom Flashes*
G04 Layer Name GPSBoardV1Square.pcb - flashes*
%LPD*%
*
*
G04 PC Circuitry*
G04 Layer Name GPSBoardV1Square.pcb - circuitry*
%LPD*%
*
G54D10*
G54D13*
G01X100000Y100000D02*
X236000D01*
Y163000*
X100000*
Y100000*
G54D16*
X218000Y127125D02*
X216364D01*
X213455Y128625D02*
Y126000D01*
Y128625D02*
X212273D01*
X213455Y127375D02*
X212727D01*
X213455Y126000D02*
X212273D01*
X211455Y127750D02*
X210455Y126000D01*
Y127750D02*
X211455Y126000D01*
X208545Y127375D02*
X208727Y127625D01*
X208909Y127750*
X209182*
X209364Y127625*
X209545Y127375*
X209636Y127000*
Y126750*
X209545Y126375*
X209364Y126125*
X209182Y126000*
X208909*
X208727Y126125*
X208545Y126375*
X207727Y127000D02*
X206636D01*
Y127250*
X206727Y127500*
X206818Y127625*
X207000Y127750*
X207273*
X207455Y127625*
X207636Y127375*
X207727Y127000*
Y126750*
X207636Y126375*
X207455Y126125*
X207273Y126000*
X207000*
X206818Y126125*
X206636Y126375*
X204818Y127375D02*
X204909Y127625D01*
X205182Y127750*
X205455*
X205727Y127625*
X205818Y127375*
X205727Y127125*
X205545Y127000*
X205091Y126875*
X204909Y126750*
X204818Y126500*
Y126375*
X204909Y126125*
X205182Y126000*
X205455*
X205727Y126125*
X205818Y126375*
X203000Y127375D02*
X203091Y127625D01*
X203364Y127750*
X203636*
X203909Y127625*
X204000Y127375*
X203909Y127125*
X203727Y127000*
X203273Y126875*
X203091Y126750*
X203000Y126500*
Y126375*
X203091Y126125*
X203364Y126000*
X203636*
X203909Y126125*
X204000Y126375*
X202182Y128625D02*
X202091Y128500D01*
X202000Y128625*
X202091Y128750*
X202182Y128625*
X202091Y127750D02*
Y126000D01*
X201182Y127750D02*
X200636Y126000D01*
X200091Y127750D02*
X200636Y126000D01*
X199273Y127000D02*
X198182D01*
Y127250*
X198273Y127500*
X198364Y127625*
X198545Y127750*
X198818*
X199000Y127625*
X199182Y127375*
X199273Y127000*
Y126750*
X199182Y126375*
X199000Y126125*
X198818Y126000*
X198545*
X198364Y126125*
X198182Y126375*
X194545Y128625D02*
X194727D01*
X194909Y128500*
X195000Y128125*
Y126000*
X195273Y127750D02*
X194636D01*
X193273D02*
X193455Y127625D01*
X193636Y127375*
X193727Y127000*
Y126750*
X193636Y126375*
X193455Y126125*
X193273Y126000*
X193000*
X192818Y126125*
X192636Y126375*
X192545Y126750*
Y127000*
X192636Y127375*
X192818Y127625*
X193000Y127750*
X193273*
X191727D02*
Y126000D01*
Y127000D02*
X191636Y127375D01*
X191455Y127625*
X191273Y127750*
X191000*
X189091Y127375D02*
X189273Y127625D01*
X189455Y127750*
X189727*
X189909Y127625*
X190091Y127375*
X190182Y127000*
Y126750*
X190091Y126375*
X189909Y126125*
X189727Y126000*
X189455*
X189273Y126125*
X189091Y126375*
X188273Y127000D02*
X187182D01*
Y127250*
X187273Y127500*
X187364Y127625*
X187545Y127750*
X187818*
X188000Y127625*
X188182Y127375*
X188273Y127000*
Y126750*
X188182Y126375*
X188000Y126125*
X187818Y126000*
X187545*
X187364Y126125*
X187182Y126375*
X183818Y127750D02*
X184000Y127625D01*
X184182Y127375*
X184273Y127000*
Y126750*
X184182Y126375*
X184000Y126125*
X183818Y126000*
X183545*
X183364Y126125*
X183182Y126375*
X183091Y126750*
Y127000*
X183182Y127375*
X183364Y127625*
X183545Y127750*
X183818*
X182273D02*
Y126000D01*
Y127250D02*
X182000Y127625D01*
X181818Y127750*
X181545*
X181364Y127625*
X181273Y127250*
Y126000*
X178091Y128625D02*
Y126500D01*
X178000Y126125*
X177818Y126000*
X177636*
X178364Y127750D02*
X177727D01*
X176818Y128625D02*
Y126000D01*
Y127250D02*
X176545Y127625D01*
X176364Y127750*
X176091*
X175909Y127625*
X175818Y127250*
Y126000*
X175000Y127000D02*
X173909D01*
Y127250*
X174000Y127500*
X174091Y127625*
X174273Y127750*
X174545*
X174727Y127625*
X174909Y127375*
X175000Y127000*
Y126750*
X174909Y126375*
X174727Y126125*
X174545Y126000*
X174273*
X174091Y126125*
X173909Y126375*
X171000Y128625D02*
Y126000D01*
Y128625D02*
X170273Y126000D01*
X169545Y128625D02*
X170273Y126000D01*
X169545Y128625D02*
Y126000D01*
X168727Y128625D02*
Y126000D01*
Y128625D02*
X168000Y126000D01*
X167273Y128625D02*
X168000Y126000D01*
X167273Y128625D02*
Y126000D01*
X165091Y128000D02*
X165182Y128250D01*
X165364Y128500*
X165545Y128625*
X165909*
X166091Y128500*
X166273Y128250*
X166364Y128000*
X166455Y127625*
Y127000*
X166364Y126625*
X166273Y126375*
X166091Y126125*
X165909Y126000*
X165545*
X165364Y126125*
X165182Y126375*
X165091Y126625*
X164273Y128625D02*
X163000Y126000D01*
Y128625D02*
X164273Y126000D01*
X159000Y127375D02*
X159182Y127625D01*
X159364Y127750*
X159636*
X159818Y127625*
X160000Y127375*
X160091Y127000*
Y126750*
X160000Y126375*
X159818Y126125*
X159636Y126000*
X159364*
X159182Y126125*
X159000Y126375*
X157727Y127750D02*
X157909Y127625D01*
X158091Y127375*
X158182Y127000*
Y126750*
X158091Y126375*
X157909Y126125*
X157727Y126000*
X157455*
X157273Y126125*
X157091Y126375*
X157000Y126750*
Y127000*
X157091Y127375*
X157273Y127625*
X157455Y127750*
X157727*
X156182D02*
Y126000D01*
Y127250D02*
X155909Y127625D01*
X155727Y127750*
X155455*
X155273Y127625*
X155182Y127250*
Y126000*
X154364Y127750D02*
Y126000D01*
Y127250D02*
X154091Y127625D01*
X153909Y127750*
X153636*
X153455Y127625*
X153364Y127250*
Y126000*
X152545Y127000D02*
X151455D01*
Y127250*
X151545Y127500*
X151636Y127625*
X151818Y127750*
X152091*
X152273Y127625*
X152455Y127375*
X152545Y127000*
Y126750*
X152455Y126375*
X152273Y126125*
X152091Y126000*
X151818*
X151636Y126125*
X151455Y126375*
X149545Y127375D02*
X149727Y127625D01*
X149909Y127750*
X150182*
X150364Y127625*
X150545Y127375*
X150636Y127000*
Y126750*
X150545Y126375*
X150364Y126125*
X150182Y126000*
X149909*
X149727Y126125*
X149545Y126375*
X148455Y128625D02*
Y126500D01*
X148364Y126125*
X148182Y126000*
X148000*
X148727Y127750D02*
X148091D01*
X146727D02*
X146909Y127625D01*
X147091Y127375*
X147182Y127000*
Y126750*
X147091Y126375*
X146909Y126125*
X146727Y126000*
X146455*
X146273Y126125*
X146091Y126375*
X146000Y126750*
Y127000*
X146091Y127375*
X146273Y127625*
X146455Y127750*
X146727*
X145182D02*
Y126000D01*
Y127000D02*
X145091Y127375D01*
X144909Y127625*
X144727Y127750*
X144455*
X140455Y127375D02*
X140636Y127625D01*
X140818Y127750*
X141091*
X141273Y127625*
X141455Y127375*
X141545Y127000*
Y126750*
X141455Y126375*
X141273Y126125*
X141091Y126000*
X140818*
X140636Y126125*
X140455Y126375*
X138545Y127750D02*
Y126000D01*
Y127375D02*
X138727Y127625D01*
X138909Y127750*
X139182*
X139364Y127625*
X139545Y127375*
X139636Y127000*
Y126750*
X139545Y126375*
X139364Y126125*
X139182Y126000*
X138909*
X138727Y126125*
X138545Y126375*
X137727Y127750D02*
Y126000D01*
Y127250D02*
X137455Y127625D01*
X137273Y127750*
X137000*
X136818Y127625*
X136727Y127250*
Y126000*
X132727Y128625D02*
Y126000D01*
Y127375D02*
X132909Y127625D01*
X133091Y127750*
X133364*
X133545Y127625*
X133727Y127375*
X133818Y127000*
Y126750*
X133727Y126375*
X133545Y126125*
X133364Y126000*
X133091*
X132909Y126125*
X132727Y126375*
X130818Y127750D02*
Y126000D01*
Y127375D02*
X131000Y127625D01*
X131182Y127750*
X131455*
X131636Y127625*
X131818Y127375*
X131909Y127000*
Y126750*
X131818Y126375*
X131636Y126125*
X131455Y126000*
X131182*
X131000Y126125*
X130818Y126375*
X130000Y127750D02*
Y126000D01*
Y127250D02*
X129727Y127625D01*
X129545Y127750*
X129273*
X129091Y127625*
X129000Y127250*
Y126000*
Y127250D02*
X128727Y127625D01*
X128545Y127750*
X128273*
X128091Y127625*
X128000Y127250*
Y126000*
X126091Y127750D02*
Y126000D01*
Y127375D02*
X126273Y127625D01*
X126455Y127750*
X126727*
X126909Y127625*
X127091Y127375*
X127182Y127000*
Y126750*
X127091Y126375*
X126909Y126125*
X126727Y126000*
X126455*
X126273Y126125*
X126091Y126375*
X124182Y127750D02*
Y125750D01*
X124273Y125375*
X124364Y125250*
X124545Y125125*
X124818*
X125000Y125250*
X124182Y127375D02*
X124364Y127625D01*
X124545Y127750*
X124818*
X125000Y127625*
X125182Y127375*
X125273Y127000*
Y126750*
X125182Y126375*
X125000Y126125*
X124818Y126000*
X124545*
X124364Y126125*
X124182Y126375*
X123364Y127000D02*
X122273D01*
Y127250*
X122364Y127500*
X122455Y127625*
X122636Y127750*
X122909*
X123091Y127625*
X123273Y127375*
X123364Y127000*
Y126750*
X123273Y126375*
X123091Y126125*
X122909Y126000*
X122636*
X122455Y126125*
X122273Y126375*
X119364Y127750D02*
Y125125D01*
Y127375D02*
X119182Y127625D01*
X119000Y127750*
X118727*
X118545Y127625*
X118364Y127375*
X118273Y127000*
Y126750*
X118364Y126375*
X118545Y126125*
X118727Y126000*
X119000*
X119182Y126125*
X119364Y126375*
X116364Y127750D02*
Y126000D01*
Y127375D02*
X116545Y127625D01*
X116727Y127750*
X117000*
X117182Y127625*
X117364Y127375*
X117455Y127000*
Y126750*
X117364Y126375*
X117182Y126125*
X117000Y126000*
X116727*
X116545Y126125*
X116364Y126375*
X114455Y128625D02*
Y126000D01*
Y127375D02*
X114636Y127625D01*
X114818Y127750*
X115091*
X115273Y127625*
X115455Y127375*
X115545Y127000*
Y126750*
X115455Y126375*
X115273Y126125*
X115091Y126000*
X114818*
X114636Y126125*
X114455Y126375*
X112636Y127375D02*
X112727Y127625D01*
X113000Y127750*
X113273*
X113545Y127625*
X113636Y127375*
X113545Y127125*
X113364Y127000*
X112909Y126875*
X112727Y126750*
X112636Y126500*
Y126375*
X112727Y126125*
X113000Y126000*
X113273*
X113545Y126125*
X113636Y126375*
X218000Y133125D02*
X216364D01*
X213455Y134625D02*
Y132000D01*
Y134625D02*
X212636D01*
X212364Y134500*
X212273Y134375*
X212182Y134125*
Y133875*
X212273Y133625*
X212364Y133500*
X212636Y133375*
X213455*
X212818D02*
X212182Y132000D01*
X211364Y133000D02*
X210273D01*
Y133250*
X210364Y133500*
X210455Y133625*
X210636Y133750*
X210909*
X211091Y133625*
X211273Y133375*
X211364Y133000*
Y132750*
X211273Y132375*
X211091Y132125*
X210909Y132000*
X210636*
X210455Y132125*
X210273Y132375*
X209455Y133750D02*
Y132000D01*
Y133250D02*
X209182Y133625D01*
X209000Y133750*
X208727*
X208545Y133625*
X208455Y133250*
Y132000*
Y133250D02*
X208182Y133625D01*
X208000Y133750*
X207727*
X207545Y133625*
X207455Y133250*
Y132000*
X206182Y133750D02*
X206364Y133625D01*
X206545Y133375*
X206636Y133000*
Y132750*
X206545Y132375*
X206364Y132125*
X206182Y132000*
X205909*
X205727Y132125*
X205545Y132375*
X205455Y132750*
Y133000*
X205545Y133375*
X205727Y133625*
X205909Y133750*
X206182*
X204636D02*
X204091Y132000D01*
X203545Y133750D02*
X204091Y132000D01*
X202727Y133000D02*
X201636D01*
Y133250*
X201727Y133500*
X201818Y133625*
X202000Y133750*
X202273*
X202455Y133625*
X202636Y133375*
X202727Y133000*
Y132750*
X202636Y132375*
X202455Y132125*
X202273Y132000*
X202000*
X201818Y132125*
X201636Y132375*
X197636Y133375D02*
X197818Y133625D01*
X198000Y133750*
X198273*
X198455Y133625*
X198636Y133375*
X198727Y133000*
Y132750*
X198636Y132375*
X198455Y132125*
X198273Y132000*
X198000*
X197818Y132125*
X197636Y132375*
X196818Y134625D02*
Y132000D01*
Y133250D02*
X196545Y133625D01*
X196364Y133750*
X196091*
X195909Y133625*
X195818Y133250*
Y132000*
X195000Y134625D02*
X194909Y134500D01*
X194818Y134625*
X194909Y134750*
X195000Y134625*
X194909Y133750D02*
Y132000D01*
X194000Y133750D02*
Y131125D01*
Y133375D02*
X193818Y133625D01*
X193636Y133750*
X193364*
X193182Y133625*
X193000Y133375*
X192909Y133000*
Y132750*
X193000Y132375*
X193182Y132125*
X193364Y132000*
X193636*
X193818Y132125*
X194000Y132375*
X188909Y133750D02*
Y132000D01*
Y133375D02*
X189091Y133625D01*
X189273Y133750*
X189545*
X189727Y133625*
X189909Y133375*
X190000Y133000*
Y132750*
X189909Y132375*
X189727Y132125*
X189545Y132000*
X189273*
X189091Y132125*
X188909Y132375*
X188091Y133750D02*
Y132000D01*
Y133250D02*
X187818Y133625D01*
X187636Y133750*
X187364*
X187182Y133625*
X187091Y133250*
Y132000*
X186000Y134625D02*
Y132500D01*
X185909Y132125*
X185727Y132000*
X185545*
X186273Y133750D02*
X185636D01*
X184727Y133000D02*
X183636D01*
Y133250*
X183727Y133500*
X183818Y133625*
X184000Y133750*
X184273*
X184455Y133625*
X184636Y133375*
X184727Y133000*
Y132750*
X184636Y132375*
X184455Y132125*
X184273Y132000*
X184000*
X183818Y132125*
X183636Y132375*
X182818Y133750D02*
Y132000D01*
Y133250D02*
X182545Y133625D01*
X182364Y133750*
X182091*
X181909Y133625*
X181818Y133250*
Y132000*
X181000Y133750D02*
Y132000D01*
Y133250D02*
X180727Y133625D01*
X180545Y133750*
X180273*
X180091Y133625*
X180000Y133250*
Y132000*
X178091Y133750D02*
Y132000D01*
Y133375D02*
X178273Y133625D01*
X178455Y133750*
X178727*
X178909Y133625*
X179091Y133375*
X179182Y133000*
Y132750*
X179091Y132375*
X178909Y132125*
X178727Y132000*
X178455*
X178273Y132125*
X178091Y132375*
X175182Y134625D02*
Y132000D01*
Y133375D02*
X175000Y133625D01*
X174818Y133750*
X174545*
X174364Y133625*
X174182Y133375*
X174091Y133000*
Y132750*
X174182Y132375*
X174364Y132125*
X174545Y132000*
X174818*
X175000Y132125*
X175182Y132375*
X173273Y133000D02*
X172182D01*
Y133250*
X172273Y133500*
X172364Y133625*
X172545Y133750*
X172818*
X173000Y133625*
X173182Y133375*
X173273Y133000*
Y132750*
X173182Y132375*
X173000Y132125*
X172818Y132000*
X172545*
X172364Y132125*
X172182Y132375*
X170636Y134625D02*
X170818D01*
X171000Y134500*
X171091Y134125*
Y132000*
X171364Y133750D02*
X170727D01*
X169364D02*
X169545Y133625D01*
X169727Y133375*
X169818Y133000*
Y132750*
X169727Y132375*
X169545Y132125*
X169364Y132000*
X169091*
X168909Y132125*
X168727Y132375*
X168636Y132750*
Y133000*
X168727Y133375*
X168909Y133625*
X169091Y133750*
X169364*
X167818D02*
Y132000D01*
Y133000D02*
X167727Y133375D01*
X167545Y133625*
X167364Y133750*
X167091*
X166273Y133000D02*
X165182D01*
Y133250*
X165273Y133500*
X165364Y133625*
X165545Y133750*
X165818*
X166000Y133625*
X166182Y133375*
X166273Y133000*
Y132750*
X166182Y132375*
X166000Y132125*
X165818Y132000*
X165545*
X165364Y132125*
X165182Y132375*
X162273Y133750D02*
Y132500D01*
X162182Y132125*
X162000Y132000*
X161727*
X161545Y132125*
X161273Y132500*
Y133750D02*
Y132000D01*
X159455Y133375D02*
X159545Y133625D01*
X159818Y133750*
X160091*
X160364Y133625*
X160455Y133375*
X160364Y133125*
X160182Y133000*
X159727Y132875*
X159545Y132750*
X159455Y132500*
Y132375*
X159545Y132125*
X159818Y132000*
X160091*
X160364Y132125*
X160455Y132375*
X158636Y134625D02*
X158545Y134500D01*
X158455Y134625*
X158545Y134750*
X158636Y134625*
X158545Y133750D02*
Y132000D01*
X157636Y133750D02*
Y132000D01*
Y133250D02*
X157364Y133625D01*
X157182Y133750*
X156909*
X156727Y133625*
X156636Y133250*
Y132000*
X154727Y133750D02*
Y131750D01*
X154818Y131375*
X154909Y131250*
X155091Y131125*
X155364*
X155545Y131250*
X154727Y133375D02*
X154909Y133625D01*
X155091Y133750*
X155364*
X155545Y133625*
X155727Y133375*
X155818Y133000*
Y132750*
X155727Y132375*
X155545Y132125*
X155364Y132000*
X155091*
X154909Y132125*
X154727Y132375*
X151818Y134625D02*
Y132000D01*
Y134625D02*
X151091Y132000D01*
X150364Y134625D02*
X151091Y132000D01*
X150364Y134625D02*
Y132000D01*
X149545Y134625D02*
Y132000D01*
Y134625D02*
X148818Y132000D01*
X148091Y134625D02*
X148818Y132000D01*
X148091Y134625D02*
Y132000D01*
X145909Y134000D02*
X146000Y134250D01*
X146182Y134500*
X146364Y134625*
X146727*
X146909Y134500*
X147091Y134250*
X147182Y134000*
X147273Y133625*
Y133000*
X147182Y132625*
X147091Y132375*
X146909Y132125*
X146727Y132000*
X146364*
X146182Y132125*
X146000Y132375*
X145909Y132625*
X145091Y134625D02*
X143818Y132000D01*
Y134625D02*
X145091Y132000D01*
X139818Y133375D02*
X140000Y133625D01*
X140182Y133750*
X140455*
X140636Y133625*
X140818Y133375*
X140909Y133000*
Y132750*
X140818Y132375*
X140636Y132125*
X140455Y132000*
X140182*
X140000Y132125*
X139818Y132375*
X138545Y133750D02*
X138727Y133625D01*
X138909Y133375*
X139000Y133000*
Y132750*
X138909Y132375*
X138727Y132125*
X138545Y132000*
X138273*
X138091Y132125*
X137909Y132375*
X137818Y132750*
Y133000*
X137909Y133375*
X138091Y133625*
X138273Y133750*
X138545*
X137000D02*
Y132000D01*
Y133250D02*
X136727Y133625D01*
X136545Y133750*
X136273*
X136091Y133625*
X136000Y133250*
Y132000*
X135182Y133750D02*
Y132000D01*
Y133250D02*
X134909Y133625D01*
X134727Y133750*
X134455*
X134273Y133625*
X134182Y133250*
Y132000*
X133364Y133000D02*
X132273D01*
Y133250*
X132364Y133500*
X132455Y133625*
X132636Y133750*
X132909*
X133091Y133625*
X133273Y133375*
X133364Y133000*
Y132750*
X133273Y132375*
X133091Y132125*
X132909Y132000*
X132636*
X132455Y132125*
X132273Y132375*
X130364Y133375D02*
X130545Y133625D01*
X130727Y133750*
X131000*
X131182Y133625*
X131364Y133375*
X131455Y133000*
Y132750*
X131364Y132375*
X131182Y132125*
X131000Y132000*
X130727*
X130545Y132125*
X130364Y132375*
X129273Y134625D02*
Y132500D01*
X129182Y132125*
X129000Y132000*
X128818*
X129545Y133750D02*
X128909D01*
X127545D02*
X127727Y133625D01*
X127909Y133375*
X128000Y133000*
Y132750*
X127909Y132375*
X127727Y132125*
X127545Y132000*
X127273*
X127091Y132125*
X126909Y132375*
X126818Y132750*
Y133000*
X126909Y133375*
X127091Y133625*
X127273Y133750*
X127545*
X126000D02*
Y132000D01*
Y133000D02*
X125909Y133375D01*
X125727Y133625*
X125545Y133750*
X125273*
X182000Y146563D02*
X180864Y140000D01*
X179727Y146563D02*
X180864Y140000D01*
X179727Y146563D02*
X178591Y140000D01*
X177455Y146563D02*
X178591Y140000D01*
X173591Y146563D02*
X175409Y140000D01*
X173591Y146563D02*
X171773Y140000D01*
X174727Y142188D02*
X172455D01*
X169727Y146563D02*
Y140000D01*
Y146563D02*
X167682D01*
X167682D02*
X167000Y146250D01*
X166773Y145938*
X166773D02*
X166545Y145313D01*
X166545D02*
Y144688D01*
X166545D02*
X166773Y144063D01*
X166773D02*
X167000Y143750D01*
X167682Y143438*
X167682D02*
X169727D01*
X168136D02*
X166545Y140000D01*
X164500Y146563D02*
Y140000D01*
Y146563D02*
X161318Y140000D01*
Y146563D02*
Y140000D01*
X159273Y146563D02*
Y140000D01*
X157227Y146563D02*
Y140000D01*
Y146563D02*
X154045Y140000D01*
Y146563D02*
Y140000D01*
X148591Y145000D02*
X148818Y145625D01*
X149273Y146250*
X149727Y146563*
X149727D02*
X150636D01*
X150636D02*
X151091Y146250D01*
X151545Y145625*
X151773Y145000*
X152000Y144063*
X152000D02*
Y142500D01*
X151773Y141563*
X151773D02*
X151545Y140938D01*
X151545D02*
X151091Y140313D01*
X151091D02*
X150636Y140000D01*
X149727*
X149273Y140313*
X149273D02*
X148818Y140938D01*
X148818D02*
X148591Y141563D01*
X148591D02*
Y142500D01*
X149727D02*
X148591D01*
X0Y0D02*
M02*
