%
T1C.015F095S300
X012130Y011240
X012580Y011250
X011000Y011260
X011540Y011260
X010500Y011260
X013930Y011270
X015130Y011270
X014730Y011270
X014330Y011270
X013500Y011260
X013080Y011250
X014100Y010600
X015530Y011270
X015970Y011410
X016030Y011870
X017530Y011870
X017930Y011870
X016030Y012370
X016030Y012870
X016030Y013370
X016030Y013870
X016130Y014270
X016130Y014670
X016130Y015070
X016530Y015170
X016880Y015170
X016480Y015720
X016880Y015720
X016130Y015870
X018730Y015870
X019130Y015870
X019530Y015870
X019930Y015870
X020330Y015870
X018330Y015870
X020330Y015470
X018330Y015470
X018730Y015070
X020330Y015070
X018330Y015070
X019930Y015070
X019530Y015070
X019130Y015070
X020330Y014670
X018330Y014670
X020330Y014270
X018330Y014270
X018730Y014070
X019930Y014070
X019530Y014070
X019130Y014070
X020330Y013870
X018330Y013870
X020330Y013470
X018330Y013470
X018730Y013070
X020330Y013070
X019530Y013070
X019930Y013070
X018330Y013070
X019130Y013070
X020330Y012670
X018330Y012670
X018330Y012270
X020330Y012270
X019930Y012270
X019530Y012270
X019130Y012270
X018730Y012270
X019530Y011870
X018730Y011870
X019130Y011870
X020330Y011870
X019930Y011870
X018330Y011870
X021930Y010670
X021930Y011070
X021530Y011470
X020730Y011870
X021130Y011870
X021530Y011870
X021950Y015390
T2C.031F197S550
X011800Y012320
X010520Y013600
X011800Y014880
T3C.035F197S550
X011600Y010600
X010600Y010600
X015600Y010700
X016600Y010700
X017600Y010700
X018600Y010700
X019600Y010700
X023000Y014600
X023000Y013600
X023000Y012600
X023000Y011600
X023000Y010600
M30
