*
*
G04 PADS 9.5 Build Number: 522968 generated Gerber (RS-274-X) file*
G04 PC Version=2.1*
*
%IN "MCollar_Microphone_work"*%
*
%MOIN*%
*
%FSLAX35Y35*%
*
*
*
*
G04 PC Standard Apertures*
*
*
G04 Thermal Relief Aperture macro.*
%AMTER*
1,1,$1,0,0*
1,0,$1-$2,0,0*
21,0,$3,$4,0,0,45*
21,0,$3,$4,0,0,135*
%
*
*
G04 Annular Aperture macro.*
%AMANN*
1,1,$1,0,0*
1,0,$2,0,0*
%
*
*
G04 Odd Aperture macro.*
%AMODD*
1,1,$1,0,0*
1,0,$1-0.005,0,0*
%
*
*
G04 PC Custom Aperture Macros*
*
*
*
*
*
*
G04 PC Aperture Table*
*
%ADD010C,0.001*%
%ADD013C,0.01*%
%ADD116C,0.06693*%
%ADD163C,0.042*%
*
*
*
*
G04 PC Circuitry*
G04 Layer Name MCollar_Microphone_work - circuitry*
%LPD*%
*
*
G04 PC Custom Flashes*
G04 Layer Name MCollar_Microphone_work - flashes*
%LPD*%
*
*
G04 PC Circuitry*
G04 Layer Name MCollar_Microphone_work - circuitry*
%LPD*%
*
G54D10*
G01X117996Y106345D02*
G75*
G03X117996I-3996J0D01*
G01X120050Y122000D02*
G03X120050I-2750J0D01*
G01X113550D02*
G03X113550I-2750J0D01*
G01X125950Y123852D02*
Y129900D01*
G03X125900Y129950I-50J0*
G01X102100*
G03X102050Y129900I0J-50*
G01Y123732*
G03X102139Y123701I50J0*
G01Y120299D02*
G03Y123701I2161J1701D01*
G01Y120299D02*
G03X102050Y120268I-39J-31D01*
G01Y102100*
G03X102100Y102050I50J0*
G01X125900*
G03X125950Y102100I0J50*
G01Y120148*
G03X125863Y120181I-50J-0*
G01X125862Y123819D02*
G03Y120181I-2062J-1819D01*
G01X125863Y123819D02*
G03X125950Y123852I37J33D01*
G01X117996Y106345D02*
G03X117996I-3996J0D01*
G01X120050Y122000D02*
G03X120050I-2750J0D01*
G01X113550D02*
G03X113550I-2750J0D01*
G01X102050Y129859D02*
X125950D01*
X102050Y129769D02*
X125950D01*
X102050Y129679D02*
X125950D01*
X102050Y129589D02*
X125950D01*
X102050Y129499D02*
X125950D01*
X102050Y129409D02*
X125950D01*
X102050Y129319D02*
X125950D01*
X102050Y129229D02*
X125950D01*
X102050Y129139D02*
X125950D01*
X102050Y129049D02*
X125950D01*
X102050Y128959D02*
X125950D01*
X102050Y128869D02*
X125950D01*
X102050Y128779D02*
X125950D01*
X102050Y128689D02*
X125950D01*
X102050Y128599D02*
X125950D01*
X102050Y128509D02*
X125950D01*
X102050Y128419D02*
X125950D01*
X102050Y128329D02*
X125950D01*
X102050Y128239D02*
X125950D01*
X102050Y128149D02*
X125950D01*
X102050Y128059D02*
X125950D01*
X102050Y127969D02*
X125950D01*
X102050Y127879D02*
X125950D01*
X102050Y127789D02*
X125950D01*
X102050Y127699D02*
X125950D01*
X102050Y127609D02*
X125950D01*
X102050Y127519D02*
X125950D01*
X102050Y127429D02*
X125950D01*
X102050Y127339D02*
X125950D01*
X102050Y127249D02*
X125950D01*
X102050Y127159D02*
X125950D01*
X102050Y127069D02*
X125950D01*
X102050Y126979D02*
X125950D01*
X102050Y126889D02*
X125950D01*
X102050Y126799D02*
X125950D01*
X102050Y126709D02*
X125950D01*
X102050Y126619D02*
X125950D01*
X102050Y126529D02*
X125950D01*
X102050Y126439D02*
X125950D01*
X102050Y126349D02*
X125950D01*
X102050Y126259D02*
X125950D01*
X102050Y126169D02*
X125950D01*
X102050Y126079D02*
X125950D01*
X102050Y125989D02*
X125950D01*
X102050Y125899D02*
X125950D01*
X102050Y125809D02*
X125950D01*
X102050Y125719D02*
X125950D01*
X102050Y125629D02*
X125950D01*
X102050Y125539D02*
X125950D01*
X102050Y125449D02*
X125950D01*
X102050Y125359D02*
X125950D01*
X102050Y125269D02*
X125950D01*
X102050Y125179D02*
X125950D01*
X102050Y125089D02*
X125950D01*
X102050Y124999D02*
X125950D01*
X102050Y124909D02*
X125950D01*
X102050Y124819D02*
X125950D01*
X124142Y124729D02*
X125950D01*
X124575Y124639D02*
X125950D01*
X124833Y124549D02*
X125950D01*
X125032Y124459D02*
X125950D01*
X125197Y124369D02*
X125950D01*
X125340Y124279D02*
X125950D01*
X125465Y124189D02*
X125950D01*
X125577Y124099D02*
X125950D01*
X125678Y124009D02*
X125950D01*
X125770Y123919D02*
X125950D01*
X125824Y120139D02*
X125950D01*
X125738Y120049D02*
X125950D01*
X125643Y119959D02*
X125950D01*
X125538Y119869D02*
X125950D01*
X125421Y119779D02*
X125950D01*
X125290Y119689D02*
X125950D01*
X125140Y119599D02*
X125950D01*
X124964Y119509D02*
X125950D01*
X124748Y119419D02*
X125950D01*
X124453Y119329D02*
X125950D01*
X102050Y119239D02*
X125950D01*
X102050Y119149D02*
X125950D01*
X102050Y119059D02*
X125950D01*
X102050Y118969D02*
X125950D01*
X102050Y118879D02*
X125950D01*
X102050Y118789D02*
X125950D01*
X102050Y118699D02*
X125950D01*
X102050Y118609D02*
X125950D01*
X102050Y118519D02*
X125950D01*
X102050Y118429D02*
X125950D01*
X102050Y118339D02*
X125950D01*
X102050Y118249D02*
X125950D01*
X102050Y118159D02*
X125950D01*
X102050Y118069D02*
X125950D01*
X102050Y117979D02*
X125950D01*
X102050Y117889D02*
X125950D01*
X102050Y117799D02*
X125950D01*
X102050Y117709D02*
X125950D01*
X102050Y117619D02*
X125950D01*
X102050Y117529D02*
X125950D01*
X102050Y117439D02*
X125950D01*
X102050Y117349D02*
X125950D01*
X102050Y117259D02*
X125950D01*
X102050Y117169D02*
X125950D01*
X102050Y117079D02*
X125950D01*
X102050Y116989D02*
X125950D01*
X102050Y116899D02*
X125950D01*
X102050Y116809D02*
X125950D01*
X102050Y116719D02*
X125950D01*
X102050Y116629D02*
X125950D01*
X102050Y116539D02*
X125950D01*
X102050Y116449D02*
X125950D01*
X102050Y116359D02*
X125950D01*
X102050Y116269D02*
X125950D01*
X102050Y116179D02*
X125950D01*
X102050Y116089D02*
X125950D01*
X102050Y115999D02*
X125950D01*
X102050Y115909D02*
X125950D01*
X102050Y115819D02*
X125950D01*
X102050Y115729D02*
X125950D01*
X102050Y115639D02*
X125950D01*
X102050Y115549D02*
X125950D01*
X102050Y115459D02*
X125950D01*
X102050Y115369D02*
X125950D01*
X102050Y115279D02*
X125950D01*
X102050Y115189D02*
X125950D01*
X102050Y115099D02*
X125950D01*
X102050Y115009D02*
X125950D01*
X102050Y114919D02*
X125950D01*
X102050Y114829D02*
X125950D01*
X102050Y114739D02*
X125950D01*
X102050Y114649D02*
X125950D01*
X102050Y114559D02*
X125950D01*
X102050Y114469D02*
X125950D01*
X102050Y114379D02*
X125950D01*
X102050Y114289D02*
X125950D01*
X102050Y114199D02*
X125950D01*
X102050Y114109D02*
X125950D01*
X102050Y114019D02*
X125950D01*
X102050Y113929D02*
X125950D01*
X102050Y113839D02*
X125950D01*
X102050Y113749D02*
X125950D01*
X102050Y113659D02*
X125950D01*
X102050Y113569D02*
X125950D01*
X102050Y113479D02*
X125950D01*
X102050Y113389D02*
X125950D01*
X102050Y113299D02*
X125950D01*
X102050Y113209D02*
X125950D01*
X102050Y113119D02*
X125950D01*
X102050Y113029D02*
X125950D01*
X102050Y112939D02*
X125950D01*
X102050Y112849D02*
X125950D01*
X102050Y112759D02*
X125950D01*
X102050Y112669D02*
X125950D01*
X102050Y112579D02*
X125950D01*
X102050Y112489D02*
X125950D01*
X102050Y112399D02*
X125950D01*
X102050Y112309D02*
X125950D01*
X102050Y112219D02*
X125950D01*
X102050Y112129D02*
X125950D01*
X102050Y112039D02*
X125950D01*
X102050Y111949D02*
X125950D01*
X102050Y111859D02*
X125950D01*
X102050Y111769D02*
X125950D01*
X102050Y111679D02*
X125950D01*
X102050Y111589D02*
X125950D01*
X102050Y111499D02*
X125950D01*
X102050Y111409D02*
X125950D01*
X102050Y111319D02*
X125950D01*
X102050Y111229D02*
X125950D01*
X102050Y111139D02*
X125950D01*
X102050Y111049D02*
X125950D01*
X102050Y110959D02*
X125950D01*
X102050Y110869D02*
X125950D01*
X102050Y110779D02*
X125950D01*
X102050Y110689D02*
X125950D01*
X102050Y110599D02*
X125950D01*
X102050Y110509D02*
X125950D01*
X102050Y110419D02*
X125950D01*
X114318Y110329D02*
X125950D01*
X114900Y110239D02*
X125950D01*
X115226Y110149D02*
X125950D01*
X115476Y110059D02*
X125950D01*
X115685Y109969D02*
X125950D01*
X115867Y109879D02*
X125950D01*
X116028Y109789D02*
X125950D01*
X116173Y109699D02*
X125950D01*
X116306Y109609D02*
X125950D01*
X116429Y109519D02*
X125950D01*
X116542Y109429D02*
X125950D01*
X116647Y109339D02*
X125950D01*
X116746Y109249D02*
X125950D01*
X116838Y109159D02*
X125950D01*
X116925Y109069D02*
X125950D01*
X117006Y108979D02*
X125950D01*
X117082Y108889D02*
X125950D01*
X117154Y108799D02*
X125950D01*
X117222Y108709D02*
X125950D01*
X117287Y108619D02*
X125950D01*
X117347Y108529D02*
X125950D01*
X117404Y108439D02*
X125950D01*
X117458Y108349D02*
X125950D01*
X117508Y108259D02*
X125950D01*
X117556Y108169D02*
X125950D01*
X117601Y108079D02*
X125950D01*
X117643Y107989D02*
X125950D01*
X117682Y107899D02*
X125950D01*
X117719Y107809D02*
X125950D01*
X117753Y107719D02*
X125950D01*
X117785Y107629D02*
X125950D01*
X117814Y107539D02*
X125950D01*
X117841Y107449D02*
X125950D01*
X117866Y107359D02*
X125950D01*
X117888Y107269D02*
X125950D01*
X117909Y107179D02*
X125950D01*
X117927Y107089D02*
X125950D01*
X117943Y106999D02*
X125950D01*
X117957Y106909D02*
X125950D01*
X117968Y106819D02*
X125950D01*
X117978Y106729D02*
X125950D01*
X117986Y106639D02*
X125950D01*
X117991Y106549D02*
X125950D01*
X117995Y106459D02*
X125950D01*
X117996Y106369D02*
X125950D01*
X117996Y106279D02*
X125950D01*
X117993Y106189D02*
X125950D01*
X117989Y106099D02*
X125950D01*
X117982Y106009D02*
X125950D01*
X117974Y105919D02*
X125950D01*
X117963Y105829D02*
X125950D01*
X117950Y105739D02*
X125950D01*
X117935Y105649D02*
X125950D01*
X117918Y105559D02*
X125950D01*
X117899Y105469D02*
X125950D01*
X117878Y105379D02*
X125950D01*
X117854Y105289D02*
X125950D01*
X117829Y105199D02*
X125950D01*
X117800Y105109D02*
X125950D01*
X117770Y105019D02*
X125950D01*
X117737Y104929D02*
X125950D01*
X117702Y104839D02*
X125950D01*
X117664Y104749D02*
X125950D01*
X117623Y104659D02*
X125950D01*
X117580Y104569D02*
X125950D01*
X117534Y104479D02*
X125950D01*
X117485Y104389D02*
X125950D01*
X117433Y104299D02*
X125950D01*
X117378Y104209D02*
X125950D01*
X117319Y104119D02*
X125950D01*
X117257Y104029D02*
X125950D01*
X117191Y103939D02*
X125950D01*
X117121Y103849D02*
X125950D01*
X117047Y103759D02*
X125950D01*
X116968Y103669D02*
X125950D01*
X116884Y103579D02*
X125950D01*
X116795Y103489D02*
X125950D01*
X116700Y103399D02*
X125950D01*
X116599Y103309D02*
X125950D01*
X116490Y103219D02*
X125950D01*
X116372Y103129D02*
X125950D01*
X116245Y103039D02*
X125950D01*
X116107Y102949D02*
X125950D01*
X115954Y102859D02*
X125950D01*
X115784Y102769D02*
X125950D01*
X115591Y102679D02*
X125950D01*
X115365Y102589D02*
X125950D01*
X115086Y102499D02*
X125950D01*
X114692Y102409D02*
X125950D01*
X102050Y102319D02*
X125950D01*
X102050Y102229D02*
X125950D01*
X102050Y102139D02*
X125950D01*
X125854Y123829D02*
X125944D01*
X102089Y129949D02*
X125911D01*
X117642Y124729D02*
X123458D01*
X117953Y119329D02*
X123147D01*
X118075Y124639D02*
X123025D01*
X118248Y119419D02*
X122852D01*
X118333Y124549D02*
X122767D01*
X118464Y119509D02*
X122636D01*
X118532Y124459D02*
X122568D01*
X118640Y119599D02*
X122460D01*
X118697Y124369D02*
X122403D01*
X118790Y119689D02*
X122310D01*
X118840Y124279D02*
X122260D01*
X118921Y119779D02*
X122179D01*
X118965Y124189D02*
X122135D01*
X119038Y119869D02*
X122062D01*
X119077Y124099D02*
X122023D01*
X119143Y119959D02*
X121957D01*
X119178Y124009D02*
X121922D01*
X119238Y120049D02*
X121862D01*
X119270Y123919D02*
X121830D01*
X119324Y120139D02*
X121776D01*
X119354Y123829D02*
X121746D01*
X119404Y120229D02*
X121696D01*
X119431Y123739D02*
X121669D01*
X119476Y120319D02*
X121624D01*
X119501Y123649D02*
X121599D01*
X119543Y120409D02*
X121557D01*
X119566Y123559D02*
X121534D01*
X119604Y120499D02*
X121496D01*
X119625Y123469D02*
X121475D01*
X119660Y120589D02*
X121440D01*
X119679Y123379D02*
X121421D01*
X119712Y120679D02*
X121388D01*
X119729Y123289D02*
X121371D01*
X119759Y120769D02*
X121341D01*
X119775Y123199D02*
X121325D01*
X119802Y120859D02*
X121298D01*
X119817Y123109D02*
X121283D01*
X119841Y120949D02*
X121259D01*
X119854Y123019D02*
X121246D01*
X119877Y121039D02*
X121223D01*
X119888Y122929D02*
X121212D01*
X119908Y121129D02*
X121192D01*
X119919Y122839D02*
X121181D01*
X119937Y121219D02*
X121163D01*
X119946Y122749D02*
X121154D01*
X119962Y121309D02*
X121138D01*
X119970Y122659D02*
X121130D01*
X119983Y121399D02*
X121117D01*
X119991Y122569D02*
X121109D01*
X120002Y121489D02*
X121098D01*
X120008Y122479D02*
X121092D01*
X120018Y121579D02*
X121082D01*
X120022Y122389D02*
X121078D01*
X120030Y121669D02*
X121070D01*
X120034Y122299D02*
X121066D01*
X120039Y121759D02*
X121061D01*
X120042Y122209D02*
X121058D01*
X120046Y121849D02*
X121054D01*
X120047Y122119D02*
X121053D01*
X120049Y121939D02*
X121051D01*
X120050Y122029D02*
X121050D01*
X111142Y124729D02*
X116958D01*
X111453Y119329D02*
X116647D01*
X111575Y124639D02*
X116525D01*
X111748Y119419D02*
X116352D01*
X111833Y124549D02*
X116267D01*
X111964Y119509D02*
X116136D01*
X112032Y124459D02*
X116068D01*
X112140Y119599D02*
X115960D01*
X112197Y124369D02*
X115903D01*
X112290Y119689D02*
X115810D01*
X112340Y124279D02*
X115760D01*
X112421Y119779D02*
X115679D01*
X112465Y124189D02*
X115635D01*
X112538Y119869D02*
X115562D01*
X112577Y124099D02*
X115523D01*
X112643Y119959D02*
X115457D01*
X112678Y124009D02*
X115422D01*
X112738Y120049D02*
X115362D01*
X112770Y123919D02*
X115330D01*
X112824Y120139D02*
X115276D01*
X112854Y123829D02*
X115246D01*
X112904Y120229D02*
X115196D01*
X112931Y123739D02*
X115169D01*
X112976Y120319D02*
X115124D01*
X113001Y123649D02*
X115099D01*
X113043Y120409D02*
X115057D01*
X113066Y123559D02*
X115034D01*
X113104Y120499D02*
X114996D01*
X113125Y123469D02*
X114975D01*
X113160Y120589D02*
X114940D01*
X113179Y123379D02*
X114921D01*
X113212Y120679D02*
X114888D01*
X113229Y123289D02*
X114871D01*
X113259Y120769D02*
X114841D01*
X113275Y123199D02*
X114825D01*
X113302Y120859D02*
X114798D01*
X113317Y123109D02*
X114783D01*
X113341Y120949D02*
X114759D01*
X113354Y123019D02*
X114746D01*
X113377Y121039D02*
X114723D01*
X113388Y122929D02*
X114712D01*
X113408Y121129D02*
X114692D01*
X113419Y122839D02*
X114681D01*
X113437Y121219D02*
X114663D01*
X113446Y122749D02*
X114654D01*
X113462Y121309D02*
X114638D01*
X113470Y122659D02*
X114630D01*
X113483Y121399D02*
X114617D01*
X113491Y122569D02*
X114609D01*
X113502Y121489D02*
X114598D01*
X113508Y122479D02*
X114592D01*
X113518Y121579D02*
X114582D01*
X113522Y122389D02*
X114578D01*
X113530Y121669D02*
X114570D01*
X113534Y122299D02*
X114566D01*
X113539Y121759D02*
X114561D01*
X113542Y122209D02*
X114558D01*
X113546Y121849D02*
X114554D01*
X113547Y122119D02*
X114553D01*
X113549Y121939D02*
X114551D01*
X113550Y122029D02*
X114550D01*
X102050Y110329D02*
X113682D01*
X102050Y102409D02*
X113308D01*
X102050Y110239D02*
X113100D01*
X102050Y102499D02*
X112914D01*
X102050Y110149D02*
X112774D01*
X102050Y102589D02*
X112635D01*
X102050Y110059D02*
X112524D01*
X102050Y102679D02*
X112409D01*
X102050Y109969D02*
X112315D01*
X102050Y102769D02*
X112216D01*
X102050Y109879D02*
X112133D01*
X102050Y102859D02*
X112046D01*
X102050Y109789D02*
X111972D01*
X102050Y102949D02*
X111893D01*
X102050Y109699D02*
X111827D01*
X102050Y103039D02*
X111755D01*
X102050Y109609D02*
X111694D01*
X102050Y103129D02*
X111628D01*
X102050Y109519D02*
X111571D01*
X102050Y103219D02*
X111510D01*
X102050Y109429D02*
X111458D01*
X102050Y103309D02*
X111401D01*
X102050Y109339D02*
X111353D01*
X102050Y103399D02*
X111300D01*
X102050Y109249D02*
X111254D01*
X102050Y103489D02*
X111205D01*
X102050Y109159D02*
X111162D01*
X102050Y103579D02*
X111116D01*
X102050Y109069D02*
X111075D01*
X102050Y103669D02*
X111032D01*
X102050Y108979D02*
X110994D01*
X102050Y103759D02*
X110953D01*
X102050Y108889D02*
X110918D01*
X102050Y103849D02*
X110879D01*
X102050Y108799D02*
X110846D01*
X102050Y103939D02*
X110809D01*
X102050Y108709D02*
X110778D01*
X102050Y104029D02*
X110743D01*
X102050Y108619D02*
X110713D01*
X102050Y104119D02*
X110681D01*
X102050Y108529D02*
X110653D01*
X102050Y104209D02*
X110622D01*
X102050Y108439D02*
X110596D01*
X102050Y104299D02*
X110567D01*
X102050Y108349D02*
X110542D01*
X102050Y104389D02*
X110515D01*
X102050Y108259D02*
X110492D01*
X102050Y104479D02*
X110466D01*
X104642Y124729D02*
X110458D01*
X102050Y108169D02*
X110444D01*
X102050Y104569D02*
X110420D01*
X102050Y108079D02*
X110399D01*
X102050Y104659D02*
X110377D01*
X102050Y107989D02*
X110357D01*
X102050Y104749D02*
X110336D01*
X102050Y107899D02*
X110318D01*
X102050Y104839D02*
X110298D01*
X102050Y107809D02*
X110281D01*
X102050Y104929D02*
X110263D01*
X102050Y107719D02*
X110247D01*
X102050Y105019D02*
X110230D01*
X102050Y107629D02*
X110215D01*
X102050Y105109D02*
X110200D01*
X102050Y107539D02*
X110186D01*
X102050Y105199D02*
X110171D01*
X102050Y107449D02*
X110159D01*
X104953Y119329D02*
X110147D01*
X102050Y105289D02*
X110146D01*
X102050Y107359D02*
X110134D01*
X102050Y105379D02*
X110122D01*
X102050Y107269D02*
X110112D01*
X102050Y105469D02*
X110101D01*
X102050Y107179D02*
X110091D01*
X102050Y105559D02*
X110082D01*
X102050Y107089D02*
X110073D01*
X102050Y105649D02*
X110065D01*
X102050Y106999D02*
X110057D01*
X102050Y105739D02*
X110050D01*
X102050Y106909D02*
X110043D01*
X102050Y105829D02*
X110037D01*
X102050Y106819D02*
X110032D01*
X102050Y105919D02*
X110026D01*
X105075Y124639D02*
X110025D01*
X102050Y106729D02*
X110022D01*
X102050Y106009D02*
X110018D01*
X102050Y106639D02*
X110014D01*
X102050Y106099D02*
X110011D01*
X102050Y106549D02*
X110009D01*
X102050Y106189D02*
X110007D01*
X102050Y106459D02*
X110005D01*
X102050Y106279D02*
X110004D01*
X102050Y106369D02*
X110004D01*
X105248Y119419D02*
X109852D01*
X105333Y124549D02*
X109767D01*
X105464Y119509D02*
X109636D01*
X105532Y124459D02*
X109568D01*
X105640Y119599D02*
X109460D01*
X105697Y124369D02*
X109403D01*
X105790Y119689D02*
X109310D01*
X105840Y124279D02*
X109260D01*
X105921Y119779D02*
X109179D01*
X105965Y124189D02*
X109135D01*
X106038Y119869D02*
X109062D01*
X106077Y124099D02*
X109023D01*
X106143Y119959D02*
X108957D01*
X106178Y124009D02*
X108922D01*
X106238Y120049D02*
X108862D01*
X106270Y123919D02*
X108830D01*
X106324Y120139D02*
X108776D01*
X106354Y123829D02*
X108746D01*
X106404Y120229D02*
X108696D01*
X106431Y123739D02*
X108669D01*
X106476Y120319D02*
X108624D01*
X106501Y123649D02*
X108599D01*
X106543Y120409D02*
X108557D01*
X106566Y123559D02*
X108534D01*
X106604Y120499D02*
X108496D01*
X106625Y123469D02*
X108475D01*
X106660Y120589D02*
X108440D01*
X106679Y123379D02*
X108421D01*
X106712Y120679D02*
X108388D01*
X106729Y123289D02*
X108371D01*
X106759Y120769D02*
X108341D01*
X106775Y123199D02*
X108325D01*
X106802Y120859D02*
X108298D01*
X106817Y123109D02*
X108283D01*
X106841Y120949D02*
X108259D01*
X106854Y123019D02*
X108246D01*
X106877Y121039D02*
X108223D01*
X106888Y122929D02*
X108212D01*
X106908Y121129D02*
X108192D01*
X106919Y122839D02*
X108181D01*
X106937Y121219D02*
X108163D01*
X106946Y122749D02*
X108154D01*
X106962Y121309D02*
X108138D01*
X106970Y122659D02*
X108130D01*
X106983Y121399D02*
X108117D01*
X106991Y122569D02*
X108109D01*
X107002Y121489D02*
X108098D01*
X107008Y122479D02*
X108092D01*
X107018Y121579D02*
X108082D01*
X107022Y122389D02*
X108078D01*
X107030Y121669D02*
X108070D01*
X107034Y122299D02*
X108066D01*
X107039Y121759D02*
X108061D01*
X107042Y122209D02*
X108058D01*
X107046Y121849D02*
X108054D01*
X107047Y122119D02*
X108053D01*
X107049Y121939D02*
X108051D01*
X107050Y122029D02*
X108050D01*
X102050Y124729D02*
X103958D01*
X102050Y119329D02*
X103647D01*
X102050Y124639D02*
X103525D01*
X102050Y119419D02*
X103352D01*
X102050Y124549D02*
X103267D01*
X102050Y119509D02*
X103136D01*
X102050Y124459D02*
X103068D01*
X102050Y119599D02*
X102960D01*
X102050Y124369D02*
X102903D01*
X102050Y119689D02*
X102810D01*
X102050Y124279D02*
X102760D01*
X102050Y119779D02*
X102679D01*
X102050Y124189D02*
X102635D01*
X102050Y119869D02*
X102562D01*
X102050Y124099D02*
X102523D01*
X102050Y119959D02*
X102457D01*
X102050Y124009D02*
X102422D01*
X102050Y120049D02*
X102362D01*
X102050Y123919D02*
X102330D01*
X102050Y120139D02*
X102276D01*
X102050Y123829D02*
X102246D01*
X102050Y120229D02*
X102196D01*
X102050Y123739D02*
X102169D01*
G54D13*
X121855Y123945D02*
X122315Y123485D01*
X121855Y120055D02*
X122315Y120515D01*
X125745Y120055D02*
X125285Y120515D01*
X125745Y123945D02*
X125285Y123485D01*
X116826Y109171D02*
X116366Y108711D01*
X111174Y109171D02*
X111634Y108711D01*
X111174Y103519D02*
X111634Y103979D01*
X116826Y103519D02*
X116366Y103979D01*
G54D116*
X114000Y106345D03*
G54D163*
X104300Y122000D03*
X110800D03*
X117300D03*
X123800D03*
G74*
X0Y0D02*
M02*
