*
*
G04 PADS 9.5 Build Number: 522968 generated Gerber (RS-274-X) file*
G04 PC Version=2.1*
*
%IN "MCollar_Microphone_work"*%
*
%MOIN*%
*
%FSLAX35Y35*%
*
*
*
*
G04 PC Standard Apertures*
*
*
G04 Thermal Relief Aperture macro.*
%AMTER*
1,1,$1,0,0*
1,0,$1-$2,0,0*
21,0,$3,$4,0,0,45*
21,0,$3,$4,0,0,135*
%
*
*
G04 Annular Aperture macro.*
%AMANN*
1,1,$1,0,0*
1,0,$2,0,0*
%
*
*
G04 Odd Aperture macro.*
%AMODD*
1,1,$1,0,0*
1,0,$1-0.005,0,0*
%
*
*
G04 PC Custom Aperture Macros*
*
*
*
*
*
*
G04 PC Aperture Table*
*
%ADD010C,0.001*%
%ADD012C,0.005*%
*
*
*
*
G04 PC Circuitry*
G04 Layer Name MCollar_Microphone_work - circuitry*
%LPD*%
*
*
G04 PC Custom Flashes*
G04 Layer Name MCollar_Microphone_work - flashes*
%LPD*%
*
*
G04 PC Circuitry*
G04 Layer Name MCollar_Microphone_work - circuitry*
%LPD*%
*
G54D10*
G54D12*
G01X124361Y109661D02*
Y112561D01*
X121161*
Y109661*
X124361Y107961D02*
Y105061D01*
X121161*
Y107961*
X107848Y102162D02*
X120159D01*
Y118410*
X107848*
Y102162*
X125300Y114777D02*
X125487Y114845D01*
X125487D02*
X125675Y114982D01*
X125769Y115118*
Y115391*
X125675Y115527*
X125487Y115664*
X125487D02*
X125300Y115732D01*
X125019Y115800*
X124550*
X124269Y115732*
X124081Y115664*
X123894Y115527*
X123800Y115391*
Y115118*
X123894Y114982*
X124081Y114845*
X124269Y114777*
X125394Y114164D02*
X125487Y114027D01*
X125487D02*
X125769Y113823D01*
X123800*
X103600Y105781D02*
Y103438D01*
X103600D02*
X103714Y102969D01*
X103941Y102656*
X104282Y102500*
X104509*
X104850Y102656*
X105077Y102969*
X105191Y103438*
X105191D02*
Y105781D01*
X106214Y105156D02*
X106441Y105313D01*
X106441D02*
X106782Y105781D01*
Y102500*
X102475Y124500D02*
X105100Y125227D01*
X102475Y125955D02*
X105100Y125227D01*
X102475Y126773D02*
X105100D01*
X102475D02*
Y127409D01*
X102600Y127682*
X102850Y127864*
X103100Y127955*
X103475Y128045*
X104100*
X104475Y127955*
X104725Y127864*
X104975Y127682*
X105100Y127409*
Y126773*
X102475Y128864D02*
X105100D01*
X102475D02*
Y129500D01*
X102600Y129773*
X102850Y129955*
X103100Y130045*
X103475Y130136*
X104100*
X104475Y130045*
X104725Y129955*
X104975Y129773*
X105100Y129500*
Y128864*
X123000Y125964D02*
X122750Y125873D01*
X122500Y125691*
X122375Y125509*
Y125145*
X122500Y124964*
X122750Y124782*
X123000Y124691*
X123375Y124600*
X124000*
X124375Y124691*
X124625Y124782*
X124875Y124964*
X125000Y125145*
Y125509*
X124875Y125691*
X124625Y125873*
X124375Y125964*
X124000*
Y125509D02*
Y125964D01*
X122375Y126782D02*
X125000D01*
X122375D02*
X125000Y128055D01*
X122375D02*
X125000D01*
X122375Y128873D02*
X125000D01*
X122375D02*
Y129509D01*
X122500Y129782*
X122750Y129964*
X123000Y130055*
X123375Y130145*
X124000*
X124375Y130055*
X124625Y129964*
X124875Y129782*
X125000Y129509*
Y128873*
X110000Y125864D02*
X109750Y125773D01*
X109500Y125591*
X109375Y125409*
Y125045*
X109500Y124864*
X109750Y124682*
X110000Y124591*
X110375Y124500*
X111000*
X111375Y124591*
X111625Y124682*
X111875Y124864*
X112000Y125045*
Y125409*
X111875Y125591*
X111625Y125773*
X111375Y125864*
X109375Y126682D02*
X112000D01*
Y127773*
X109375Y128591D02*
X112000D01*
X109375Y129864D02*
X111125Y128591D01*
X110500Y129045D02*
X112000Y129864D01*
X115975Y124600D02*
X118600D01*
X115975D02*
Y125236D01*
X116100Y125509*
X116350Y125691*
X116600Y125782*
X116975Y125873*
X117600*
X117975Y125782*
X118225Y125691*
X118475Y125509*
X118600Y125236*
Y124600*
X115975Y127418D02*
X118600Y126691D01*
X115975Y127418D02*
X118600Y128145D01*
X117725Y126964D02*
Y127873D01*
X115975Y129600D02*
X118600D01*
X115975Y128964D02*
Y130236D01*
X0Y0D02*
M02*
