*
*
G04 PADS VX.1.2 Build Number: 698008 generated Gerber (RS-274-X) file*
G04 PC Version=2.1*
*
%IN "GPSBoardV1Diagonal.pcb"*%
*
%MOIN*%
*
%FSLAX35Y35*%
*
*
*
*
G04 PC Standard Apertures*
*
*
G04 Thermal Relief Aperture macro.*
%AMTER*
1,1,$1,0,0*
1,0,$1-$2,0,0*
21,0,$3,$4,0,0,45*
21,0,$3,$4,0,0,135*
%
*
*
G04 Annular Aperture macro.*
%AMANN*
1,1,$1,0,0*
1,0,$2,0,0*
%
*
*
G04 Odd Aperture macro.*
%AMODD*
1,1,$1,0,0*
1,0,$1-0.005,0,0*
%
*
*
G04 PC Custom Aperture Macros*
*
*
*
*
*
*
G04 PC Aperture Table*
*
%ADD010C,0.001*%
%ADD013C,0.01*%
%ADD016C,0.006*%
%ADD130C,0.025*%
%ADD201R,0.06X0.06*%
%ADD202C,0.051*%
*
*
*
*
G04 PC Circuitry*
G04 Layer Name GPSBoardV1Diagonal.pcb - circuitry*
%LPD*%
*
*
G04 PC Custom Flashes*
G04 Layer Name GPSBoardV1Diagonal.pcb - flashes*
%LPD*%
*
*
G04 PC Circuitry*
G04 Layer Name GPSBoardV1Diagonal.pcb - circuitry*
%LPD*%
*
G54D10*
G01X221900Y106000D02*
G75*
G03X221900I-1900J0D01*
G01Y110000D02*
G03X221900I-1900J0D01*
G01X222200Y153200D02*
G03X222200I-1900J0D01*
G01X217900Y114000D02*
G03X217900I-1900J0D01*
G01Y118000D02*
G03X217900I-1900J0D01*
G01X213900D02*
G03X213900I-1900J0D01*
G01X209900D02*
G03X209900I-1900J0D01*
G01X205900D02*
G03X205900I-1900J0D01*
G01Y122000D02*
G03X205900I-1900J0D01*
G01Y126000D02*
G03X205900I-1900J0D01*
G01Y130000D02*
G03X205900I-1900J0D01*
G01Y134000D02*
G03X205900I-1900J0D01*
G01Y138000D02*
G03X205900I-1900J0D01*
G01Y142000D02*
G03X205900I-1900J0D01*
G01Y146000D02*
G03X205900I-1900J0D01*
G01Y150000D02*
G03X205900I-1900J0D01*
G01Y154000D02*
G03X205900I-1900J0D01*
G01Y158000D02*
G03X205900I-1900J0D01*
G01X201900Y118000D02*
G03X201900I-1900J0D01*
G01Y122000D02*
G03X201900I-1900J0D01*
G01Y130000D02*
G03X201900I-1900J0D01*
G01Y140000D02*
G03X201900I-1900J0D01*
G01Y150000D02*
G03X201900I-1900J0D01*
G01Y158000D02*
G03X201900I-1900J0D01*
G01X197900Y118000D02*
G03X197900I-1900J0D01*
G01Y122000D02*
G03X197900I-1900J0D01*
G01Y130000D02*
G03X197900I-1900J0D01*
G01Y140000D02*
G03X197900I-1900J0D01*
G01Y150000D02*
G03X197900I-1900J0D01*
G01Y158000D02*
G03X197900I-1900J0D01*
G01X193900Y118000D02*
G03X193900I-1900J0D01*
G01Y122000D02*
G03X193900I-1900J0D01*
G01Y130000D02*
G03X193900I-1900J0D01*
G01Y140000D02*
G03X193900I-1900J0D01*
G01Y150000D02*
G03X193900I-1900J0D01*
G01Y158000D02*
G03X193900I-1900J0D01*
G01X189900Y118000D02*
G03X189900I-1900J0D01*
G01Y122000D02*
G03X189900I-1900J0D01*
G01Y130000D02*
G03X189900I-1900J0D01*
G01Y140000D02*
G03X189900I-1900J0D01*
G01Y150000D02*
G03X189900I-1900J0D01*
G01Y158000D02*
G03X189900I-1900J0D01*
G01X185900Y118000D02*
G03X185900I-1900J0D01*
G01Y122000D02*
G03X185900I-1900J0D01*
G01Y126000D02*
G03X185900I-1900J0D01*
G01Y130000D02*
G03X185900I-1900J0D01*
G01Y134000D02*
G03X185900I-1900J0D01*
G01Y138000D02*
G03X185900I-1900J0D01*
G01Y142000D02*
G03X185900I-1900J0D01*
G01Y146000D02*
G03X185900I-1900J0D01*
G01Y150000D02*
G03X185900I-1900J0D01*
G01Y154000D02*
G03X185900I-1900J0D01*
G01Y158000D02*
G03X185900I-1900J0D01*
G01X181900Y118000D02*
G03X181900I-1900J0D01*
G01X177900D02*
G03X177900I-1900J0D01*
G01X171500Y127000D02*
G03X171500I-1900J0D01*
G01Y131500D02*
G03X171500I-1900J0D01*
G01Y140100D02*
G03X171500I-1900J0D01*
G01X161800Y117400D02*
G03X161800I-1900J0D01*
G01X163900Y132000D02*
G03X163900I-1900J0D01*
G01X159900Y128000D02*
G03X159900I-1900J0D01*
G01X155900Y124000D02*
G03X155900I-1900J0D01*
G01X151900Y120000D02*
G03X151900I-1900J0D01*
G01X147900Y116000D02*
G03X147900I-1900J0D01*
G01X143900Y112000D02*
G03X143900I-1900J0D01*
G01X169900Y150500D02*
G03X169900I-1900J0D01*
G01Y156500D02*
G03X169900I-1900J0D01*
G01X164900D02*
G03X164900I-1900J0D01*
G01X160400D02*
G03X160400I-1900J0D01*
G01X233950Y102051D02*
Y159949D01*
X233949Y159950D02*
X147517D01*
Y159949D02*
X151784Y155681D01*
X152682Y154785D02*
G03X151785Y155682I818J1715D01*
G01X152682Y154785D02*
X152681Y154784*
X157104Y150362D01*
X157105D02*
X157105D01*
X158862Y148605D02*
G03X157105Y150362I138J1895D01*
G01X158862Y148605D02*
Y148604*
X161284Y146181D01*
X162259Y148750D02*
G03X161285Y146182I741J-1750D01*
G01X162259Y148750D02*
X163741*
G03X162259I-741J1750D01*
G01X163741D02*
X162182Y145285*
G03X163741Y148750I818J1715D01*
G01X162182Y145285D02*
X162181Y145284*
X164284Y143181D01*
X167750Y144739D02*
G03X164285Y143182I-1750J-739D01*
G01X167750Y144739D02*
X167850Y143561*
G03X167751Y144739I1750J739D01*
G01X167850Y143561D02*
X165182Y142285*
G03X167849Y143561I818J1715D01*
G01X165182Y142285D02*
X165181Y142284*
X167133Y140333D01*
Y140262D02*
G03Y140333I-36J35D01*
G01Y140262D02*
X164337Y137466D01*
X162835Y135963D02*
G03X164337Y137465I1865J-363D01*
G01X162835Y135963D02*
X162835D01*
X162834D02*
X138050Y111179D01*
Y102051*
X138051Y102050D02*
X233949D01*
X233650Y109000D02*
Y103000D01*
X233000Y102350D02*
G03X233650Y103000I0J650D01*
G01X233000Y102350D02*
X227000D01*
X226350Y103000D02*
G03X227000Y102350I650J0D01*
G01X226350Y103000D02*
Y109000D01*
X227000Y109650D02*
G03X226350Y109000I0J-650D01*
G01X227000Y109650D02*
X233000D01*
X233650Y109000D02*
G03X233000Y109650I-650J0D01*
G01X233650Y119000D02*
Y113000D01*
X233000Y112350D02*
G03X233650Y113000I0J650D01*
G01X233000Y112350D02*
X227000D01*
X226350Y113000D02*
G03X227000Y112350I650J0D01*
G01X226350Y113000D02*
Y119000D01*
X227000Y119650D02*
G03X226350Y119000I0J-650D01*
G01X227000Y119650D02*
X233000D01*
X233650Y119000D02*
G03X233000Y119650I-650J0D01*
G01X233650Y129000D02*
Y123000D01*
X233000Y122350D02*
G03X233650Y123000I0J650D01*
G01X233000Y122350D02*
X227000D01*
X226350Y123000D02*
G03X227000Y122350I650J0D01*
G01X226350Y123000D02*
Y129000D01*
X227000Y129650D02*
G03X226350Y129000I0J-650D01*
G01X227000Y129650D02*
X233000D01*
X233650Y129000D02*
G03X233000Y129650I-650J0D01*
G01X233650Y139000D02*
Y133000D01*
X233000Y132350D02*
G03X233650Y133000I0J650D01*
G01X233000Y132350D02*
X227000D01*
X226350Y133000D02*
G03X227000Y132350I650J0D01*
G01X226350Y133000D02*
Y139000D01*
X227000Y139650D02*
G03X226350Y139000I0J-650D01*
G01X227000Y139650D02*
X233000D01*
X233650Y139000D02*
G03X233000Y139650I-650J0D01*
G01X233650Y149000D02*
Y143000D01*
X233000Y142350D02*
G03X233650Y143000I0J650D01*
G01X233000Y142350D02*
X227000D01*
X226350Y143000D02*
G03X227000Y142350I650J0D01*
G01X226350Y143000D02*
Y149000D01*
X227000Y149650D02*
G03X226350Y149000I0J-650D01*
G01X227000Y149650D02*
X233000D01*
X233650Y149000D02*
G03X233000Y149650I-650J0D01*
G01X221900Y106000D02*
G03X221900I-1900J0D01*
G01Y110000D02*
G03X221900I-1900J0D01*
G01X222200Y153200D02*
G03X222200I-1900J0D01*
G01X215650Y109000D02*
Y103000D01*
X215000Y102350D02*
G03X215650Y103000I0J650D01*
G01X215000Y102350D02*
X209000D01*
X208350Y103000D02*
G03X209000Y102350I650J0D01*
G01X208350Y103000D02*
Y109000D01*
X209000Y109650D02*
G03X208350Y109000I0J-650D01*
G01X209000Y109650D02*
X215000D01*
X215650Y109000D02*
G03X215000Y109650I-650J0D01*
G01X217900Y114000D02*
G03X217900I-1900J0D01*
G01Y118000D02*
G03X217900I-1900J0D01*
G01X213900D02*
G03X213900I-1900J0D01*
G01X209900D02*
G03X209900I-1900J0D01*
G01X205650Y109000D02*
Y103000D01*
X205000Y102350D02*
G03X205650Y103000I0J650D01*
G01X205000Y102350D02*
X199000D01*
X198350Y103000D02*
G03X199000Y102350I650J0D01*
G01X198350Y103000D02*
Y109000D01*
X199000Y109650D02*
G03X198350Y109000I0J-650D01*
G01X199000Y109650D02*
X205000D01*
X205650Y109000D02*
G03X205000Y109650I-650J0D01*
G01X205900Y118000D02*
G03X205900I-1900J0D01*
G01Y122000D02*
G03X205900I-1900J0D01*
G01Y126000D02*
G03X205900I-1900J0D01*
G01Y130000D02*
G03X205900I-1900J0D01*
G01Y134000D02*
G03X205900I-1900J0D01*
G01Y138000D02*
G03X205900I-1900J0D01*
G01Y142000D02*
G03X205900I-1900J0D01*
G01Y146000D02*
G03X205900I-1900J0D01*
G01Y150000D02*
G03X205900I-1900J0D01*
G01Y154000D02*
G03X205900I-1900J0D01*
G01Y158000D02*
G03X205900I-1900J0D01*
G01X201900Y118000D02*
G03X201900I-1900J0D01*
G01Y122000D02*
G03X201900I-1900J0D01*
G01Y130000D02*
G03X201900I-1900J0D01*
G01Y140000D02*
G03X201900I-1900J0D01*
G01Y150000D02*
G03X201900I-1900J0D01*
G01Y158000D02*
G03X201900I-1900J0D01*
G01X195650Y109000D02*
Y103000D01*
X195000Y102350D02*
G03X195650Y103000I0J650D01*
G01X195000Y102350D02*
X189000D01*
X188350Y103000D02*
G03X189000Y102350I650J0D01*
G01X188350Y103000D02*
Y109000D01*
X189000Y109650D02*
G03X188350Y109000I0J-650D01*
G01X189000Y109650D02*
X195000D01*
X195650Y109000D02*
G03X195000Y109650I-650J0D01*
G01X197900Y118000D02*
G03X197900I-1900J0D01*
G01Y122000D02*
G03X197900I-1900J0D01*
G01Y130000D02*
G03X197900I-1900J0D01*
G01Y140000D02*
G03X197900I-1900J0D01*
G01Y150000D02*
G03X197900I-1900J0D01*
G01Y158000D02*
G03X197900I-1900J0D01*
G01X193900Y118000D02*
G03X193900I-1900J0D01*
G01Y122000D02*
G03X193900I-1900J0D01*
G01Y130000D02*
G03X193900I-1900J0D01*
G01Y140000D02*
G03X193900I-1900J0D01*
G01Y150000D02*
G03X193900I-1900J0D01*
G01Y158000D02*
G03X193900I-1900J0D01*
G01X189900Y118000D02*
G03X189900I-1900J0D01*
G01Y122000D02*
G03X189900I-1900J0D01*
G01Y130000D02*
G03X189900I-1900J0D01*
G01Y140000D02*
G03X189900I-1900J0D01*
G01Y150000D02*
G03X189900I-1900J0D01*
G01Y158000D02*
G03X189900I-1900J0D01*
G01X185650Y109000D02*
Y103000D01*
X185000Y102350D02*
G03X185650Y103000I0J650D01*
G01X185000Y102350D02*
X179000D01*
X178350Y103000D02*
G03X179000Y102350I650J0D01*
G01X178350Y103000D02*
Y109000D01*
X179000Y109650D02*
G03X178350Y109000I0J-650D01*
G01X179000Y109650D02*
X185000D01*
X185650Y109000D02*
G03X185000Y109650I-650J0D01*
G01X185900Y118000D02*
G03X185900I-1900J0D01*
G01Y122000D02*
G03X185900I-1900J0D01*
G01Y126000D02*
G03X185900I-1900J0D01*
G01Y130000D02*
G03X185900I-1900J0D01*
G01Y134000D02*
G03X185900I-1900J0D01*
G01Y138000D02*
G03X185900I-1900J0D01*
G01Y142000D02*
G03X185900I-1900J0D01*
G01Y146000D02*
G03X185900I-1900J0D01*
G01Y150000D02*
G03X185900I-1900J0D01*
G01Y154000D02*
G03X185900I-1900J0D01*
G01Y158000D02*
G03X185900I-1900J0D01*
G01X181900Y118000D02*
G03X181900I-1900J0D01*
G01X175650Y109000D02*
Y103000D01*
X175000Y102350D02*
G03X175650Y103000I0J650D01*
G01X175000Y102350D02*
X169000D01*
X168350Y103000D02*
G03X169000Y102350I650J0D01*
G01X168350Y103000D02*
Y109000D01*
X169000Y109650D02*
G03X168350Y109000I0J-650D01*
G01X169000Y109650D02*
X175000D01*
X175650Y109000D02*
G03X175000Y109650I-650J0D01*
G01X177900Y118000D02*
G03X177900I-1900J0D01*
G01X171500Y127000D02*
G03X171500I-1900J0D01*
G01Y131500D02*
G03X171500I-1900J0D01*
G01Y140100D02*
G03X171500I-1900J0D01*
G01X161800Y117400D02*
G03X161800I-1900J0D01*
G01X163900Y132000D02*
G03X163900I-1900J0D01*
G01X159900Y128000D02*
G03X159900I-1900J0D01*
G01X155650Y109000D02*
Y103000D01*
X155000Y102350D02*
G03X155650Y103000I0J650D01*
G01X155000Y102350D02*
X149000D01*
X148350Y103000D02*
G03X149000Y102350I650J0D01*
G01X148350Y103000D02*
Y109000D01*
X149000Y109650D02*
G03X148350Y109000I0J-650D01*
G01X149000Y109650D02*
X155000D01*
X155650Y109000D02*
G03X155000Y109650I-650J0D01*
G01X155900Y124000D02*
G03X155900I-1900J0D01*
G01X151900Y120000D02*
G03X151900I-1900J0D01*
G01X145650Y109000D02*
Y103000D01*
X145000Y102350D02*
G03X145650Y103000I0J650D01*
G01X145000Y102350D02*
X139000D01*
X138350Y103000D02*
G03X139000Y102350I650J0D01*
G01X138350Y103000D02*
Y109000D01*
X139000Y109650D02*
G03X138350Y109000I0J-650D01*
G01X139000Y109650D02*
X145000D01*
X145650Y109000D02*
G03X145000Y109650I-650J0D01*
G01X147900Y116000D02*
G03X147900I-1900J0D01*
G01X143900Y112000D02*
G03X143900I-1900J0D01*
G01X169900Y150500D02*
G03X169900I-1900J0D01*
G01Y156500D02*
G03X169900I-1900J0D01*
G01X164900D02*
G03X164900I-1900J0D01*
G01X160400D02*
G03X160400I-1900J0D01*
G01X147547Y159919D02*
X233950D01*
X204516Y159829D02*
X233950D01*
X204766Y159739D02*
X233950D01*
X204944Y159649D02*
X233950D01*
X205087Y159559D02*
X233950D01*
X205205Y159469D02*
X233950D01*
X205307Y159379D02*
X233950D01*
X205396Y159289D02*
X233950D01*
X205474Y159199D02*
X233950D01*
X205543Y159109D02*
X233950D01*
X205604Y159019D02*
X233950D01*
X205658Y158929D02*
X233950D01*
X205705Y158839D02*
X233950D01*
X205746Y158749D02*
X233950D01*
X205782Y158659D02*
X233950D01*
X205813Y158569D02*
X233950D01*
X205839Y158479D02*
X233950D01*
X205860Y158389D02*
X233950D01*
X205876Y158299D02*
X233950D01*
X205889Y158209D02*
X233950D01*
X205896Y158119D02*
X233950D01*
X205900Y158029D02*
X233950D01*
X205899Y157939D02*
X233950D01*
X205894Y157849D02*
X233950D01*
X205885Y157759D02*
X233950D01*
X205871Y157669D02*
X233950D01*
X205853Y157579D02*
X233950D01*
X205830Y157489D02*
X233950D01*
X205802Y157399D02*
X233950D01*
X205770Y157309D02*
X233950D01*
X205732Y157219D02*
X233950D01*
X205688Y157129D02*
X233950D01*
X205639Y157039D02*
X233950D01*
X205583Y156949D02*
X233950D01*
X205519Y156859D02*
X233950D01*
X205447Y156769D02*
X233950D01*
X205365Y156679D02*
X233950D01*
X205272Y156589D02*
X233950D01*
X205165Y156499D02*
X233950D01*
X205038Y156409D02*
X233950D01*
X204885Y156319D02*
X233950D01*
X204687Y156229D02*
X233950D01*
X204382Y156139D02*
X233950D01*
X169846Y156049D02*
X233950D01*
X169821Y155959D02*
X233950D01*
X204344Y155869D02*
X233950D01*
X204668Y155779D02*
X233950D01*
X204871Y155689D02*
X233950D01*
X205027Y155599D02*
X233950D01*
X205155Y155509D02*
X233950D01*
X205264Y155419D02*
X233950D01*
X205358Y155329D02*
X233950D01*
X205441Y155239D02*
X233950D01*
X205513Y155149D02*
X233950D01*
X220694Y155059D02*
X233950D01*
X220994Y154969D02*
X233950D01*
X221190Y154879D02*
X233950D01*
X221342Y154789D02*
X233950D01*
X221468Y154699D02*
X233950D01*
X221575Y154609D02*
X233950D01*
X221668Y154519D02*
X233950D01*
X221749Y154429D02*
X233950D01*
X221821Y154339D02*
X233950D01*
X221884Y154249D02*
X233950D01*
X221940Y154159D02*
X233950D01*
X221990Y154069D02*
X233950D01*
X222033Y153979D02*
X233950D01*
X222071Y153889D02*
X233950D01*
X222103Y153799D02*
X233950D01*
X222131Y153709D02*
X233950D01*
X222153Y153619D02*
X233950D01*
X222171Y153529D02*
X233950D01*
X222185Y153439D02*
X233950D01*
X222194Y153349D02*
X233950D01*
X222199Y153259D02*
X233950D01*
X222200Y153169D02*
X233950D01*
X222196Y153079D02*
X233950D01*
X222188Y152989D02*
X233950D01*
X222176Y152899D02*
X233950D01*
X222159Y152809D02*
X233950D01*
X222138Y152719D02*
X233950D01*
X222112Y152629D02*
X233950D01*
X222081Y152539D02*
X233950D01*
X222045Y152449D02*
X233950D01*
X222004Y152359D02*
X233950D01*
X221956Y152269D02*
X233950D01*
X221902Y152179D02*
X233950D01*
X221841Y152089D02*
X233950D01*
X221772Y151999D02*
X233950D01*
X221694Y151909D02*
X233950D01*
X221605Y151819D02*
X233950D01*
X221502Y151729D02*
X233950D01*
X221383Y151639D02*
X233950D01*
X221240Y151549D02*
X233950D01*
X221060Y151459D02*
X233950D01*
X220806Y151369D02*
X233950D01*
X205405Y151279D02*
X233950D01*
X205482Y151189D02*
X233950D01*
X205550Y151099D02*
X233950D01*
X205610Y151009D02*
X233950D01*
X205663Y150919D02*
X233950D01*
X205710Y150829D02*
X233950D01*
X205751Y150739D02*
X233950D01*
X205786Y150649D02*
X233950D01*
X205816Y150559D02*
X233950D01*
X205841Y150469D02*
X233950D01*
X205862Y150379D02*
X233950D01*
X205878Y150289D02*
X233950D01*
X205890Y150199D02*
X233950D01*
X205897Y150109D02*
X233950D01*
X205900Y150019D02*
X233950D01*
X205899Y149929D02*
X233950D01*
X205893Y149839D02*
X233950D01*
X205883Y149749D02*
X233950D01*
X205869Y149659D02*
X233950D01*
X233315Y149569D02*
X233950D01*
X233440Y149479D02*
X233950D01*
X233521Y149389D02*
X233950D01*
X233577Y149299D02*
X233950D01*
X233616Y149209D02*
X233950D01*
X233639Y149119D02*
X233950D01*
X233649Y149029D02*
X233950D01*
X233650Y148939D02*
X233950D01*
X233650Y148849D02*
X233950D01*
X233650Y148759D02*
X233950D01*
X233650Y148669D02*
X233950D01*
X233650Y148579D02*
X233950D01*
X233650Y148489D02*
X233950D01*
X233650Y148399D02*
X233950D01*
X233650Y148309D02*
X233950D01*
X233650Y148219D02*
X233950D01*
X233650Y148129D02*
X233950D01*
X233650Y148039D02*
X233950D01*
X233650Y147949D02*
X233950D01*
X233650Y147859D02*
X233950D01*
X233650Y147769D02*
X233950D01*
X233650Y147679D02*
X233950D01*
X233650Y147589D02*
X233950D01*
X233650Y147499D02*
X233950D01*
X233650Y147409D02*
X233950D01*
X233650Y147319D02*
X233950D01*
X233650Y147229D02*
X233950D01*
X233650Y147139D02*
X233950D01*
X233650Y147049D02*
X233950D01*
X233650Y146959D02*
X233950D01*
X233650Y146869D02*
X233950D01*
X233650Y146779D02*
X233950D01*
X233650Y146689D02*
X233950D01*
X233650Y146599D02*
X233950D01*
X233650Y146509D02*
X233950D01*
X233650Y146419D02*
X233950D01*
X233650Y146329D02*
X233950D01*
X233650Y146239D02*
X233950D01*
X233650Y146149D02*
X233950D01*
X233650Y146059D02*
X233950D01*
X233650Y145969D02*
X233950D01*
X233650Y145879D02*
X233950D01*
X233650Y145789D02*
X233950D01*
X233650Y145699D02*
X233950D01*
X233650Y145609D02*
X233950D01*
X233650Y145519D02*
X233950D01*
X233650Y145429D02*
X233950D01*
X233650Y145339D02*
X233950D01*
X233650Y145249D02*
X233950D01*
X233650Y145159D02*
X233950D01*
X233650Y145069D02*
X233950D01*
X233650Y144979D02*
X233950D01*
X233650Y144889D02*
X233950D01*
X233650Y144799D02*
X233950D01*
X233650Y144709D02*
X233950D01*
X233650Y144619D02*
X233950D01*
X233650Y144529D02*
X233950D01*
X233650Y144439D02*
X233950D01*
X233650Y144349D02*
X233950D01*
X233650Y144259D02*
X233950D01*
X233650Y144169D02*
X233950D01*
X233650Y144079D02*
X233950D01*
X233650Y143989D02*
X233950D01*
X233650Y143899D02*
X233950D01*
X233650Y143809D02*
X233950D01*
X233650Y143719D02*
X233950D01*
X233650Y143629D02*
X233950D01*
X233650Y143539D02*
X233950D01*
X233650Y143449D02*
X233950D01*
X233650Y143359D02*
X233950D01*
X233650Y143269D02*
X233950D01*
X233650Y143179D02*
X233950D01*
X233650Y143089D02*
X233950D01*
X233650Y142999D02*
X233950D01*
X233644Y142909D02*
X233950D01*
X233624Y142819D02*
X233950D01*
X233591Y142729D02*
X233950D01*
X233540Y142639D02*
X233950D01*
X233468Y142549D02*
X233950D01*
X233360Y142459D02*
X233950D01*
X233155Y142369D02*
X233950D01*
X205879Y142279D02*
X233950D01*
X205891Y142189D02*
X233950D01*
X205897Y142099D02*
X233950D01*
X205900Y142009D02*
X233950D01*
X205898Y141919D02*
X233950D01*
X205892Y141829D02*
X233950D01*
X205882Y141739D02*
X233950D01*
X205867Y141649D02*
X233950D01*
X205848Y141559D02*
X233950D01*
X205824Y141469D02*
X233950D01*
X205796Y141379D02*
X233950D01*
X205762Y141289D02*
X233950D01*
X205723Y141199D02*
X233950D01*
X205678Y141109D02*
X233950D01*
X205627Y141019D02*
X233950D01*
X205569Y140929D02*
X233950D01*
X205504Y140839D02*
X233950D01*
X205430Y140749D02*
X233950D01*
X205346Y140659D02*
X233950D01*
X205250Y140569D02*
X233950D01*
X205138Y140479D02*
X233950D01*
X205007Y140389D02*
X233950D01*
X204846Y140299D02*
X233950D01*
X204633Y140209D02*
X233950D01*
X204266Y140119D02*
X233950D01*
X201900Y140029D02*
X233950D01*
X201899Y139939D02*
X233950D01*
X204439Y139849D02*
X233950D01*
X204719Y139759D02*
X233950D01*
X204909Y139669D02*
X233950D01*
X233296Y139579D02*
X233950D01*
X233429Y139489D02*
X233950D01*
X233513Y139399D02*
X233950D01*
X233572Y139309D02*
X233950D01*
X233612Y139219D02*
X233950D01*
X233637Y139129D02*
X233950D01*
X233649Y139039D02*
X233950D01*
X233650Y138949D02*
X233950D01*
X233650Y138859D02*
X233950D01*
X233650Y138769D02*
X233950D01*
X233650Y138679D02*
X233950D01*
X233650Y138589D02*
X233950D01*
X233650Y138499D02*
X233950D01*
X233650Y138409D02*
X233950D01*
X233650Y138319D02*
X233950D01*
X233650Y138229D02*
X233950D01*
X233650Y138139D02*
X233950D01*
X233650Y138049D02*
X233950D01*
X233650Y137959D02*
X233950D01*
X233650Y137869D02*
X233950D01*
X233650Y137779D02*
X233950D01*
X233650Y137689D02*
X233950D01*
X233650Y137599D02*
X233950D01*
X233650Y137509D02*
X233950D01*
X233650Y137419D02*
X233950D01*
X233650Y137329D02*
X233950D01*
X233650Y137239D02*
X233950D01*
X233650Y137149D02*
X233950D01*
X233650Y137059D02*
X233950D01*
X233650Y136969D02*
X233950D01*
X233650Y136879D02*
X233950D01*
X233650Y136789D02*
X233950D01*
X233650Y136699D02*
X233950D01*
X233650Y136609D02*
X233950D01*
X233650Y136519D02*
X233950D01*
X233650Y136429D02*
X233950D01*
X233650Y136339D02*
X233950D01*
X233650Y136249D02*
X233950D01*
X233650Y136159D02*
X233950D01*
X233650Y136069D02*
X233950D01*
X233650Y135979D02*
X233950D01*
X233650Y135889D02*
X233950D01*
X233650Y135799D02*
X233950D01*
X233650Y135709D02*
X233950D01*
X233650Y135619D02*
X233950D01*
X233650Y135529D02*
X233950D01*
X233650Y135439D02*
X233950D01*
X233650Y135349D02*
X233950D01*
X233650Y135259D02*
X233950D01*
X233650Y135169D02*
X233950D01*
X233650Y135079D02*
X233950D01*
X233650Y134989D02*
X233950D01*
X233650Y134899D02*
X233950D01*
X233650Y134809D02*
X233950D01*
X233650Y134719D02*
X233950D01*
X233650Y134629D02*
X233950D01*
X233650Y134539D02*
X233950D01*
X233650Y134449D02*
X233950D01*
X233650Y134359D02*
X233950D01*
X233650Y134269D02*
X233950D01*
X233650Y134179D02*
X233950D01*
X233650Y134089D02*
X233950D01*
X233650Y133999D02*
X233950D01*
X233650Y133909D02*
X233950D01*
X233650Y133819D02*
X233950D01*
X233650Y133729D02*
X233950D01*
X233650Y133639D02*
X233950D01*
X233650Y133549D02*
X233950D01*
X233650Y133459D02*
X233950D01*
X233650Y133369D02*
X233950D01*
X233650Y133279D02*
X233950D01*
X233650Y133189D02*
X233950D01*
X233650Y133099D02*
X233950D01*
X233650Y133009D02*
X233950D01*
X233645Y132919D02*
X233950D01*
X233627Y132829D02*
X233950D01*
X233595Y132739D02*
X233950D01*
X233547Y132649D02*
X233950D01*
X233477Y132559D02*
X233950D01*
X233374Y132469D02*
X233950D01*
X233191Y132379D02*
X233950D01*
X204826Y132289D02*
X233950D01*
X204604Y132199D02*
X233950D01*
X204182Y132109D02*
X233950D01*
X171428Y132019D02*
X233950D01*
X171451Y131929D02*
X233950D01*
X204479Y131839D02*
X233950D01*
X204743Y131749D02*
X233950D01*
X204927Y131659D02*
X233950D01*
X205072Y131569D02*
X233950D01*
X205193Y131479D02*
X233950D01*
X205297Y131389D02*
X233950D01*
X205387Y131299D02*
X233950D01*
X205466Y131209D02*
X233950D01*
X205536Y131119D02*
X233950D01*
X205597Y131029D02*
X233950D01*
X205652Y130939D02*
X233950D01*
X205700Y130849D02*
X233950D01*
X205742Y130759D02*
X233950D01*
X205778Y130669D02*
X233950D01*
X205810Y130579D02*
X233950D01*
X205836Y130489D02*
X233950D01*
X205858Y130399D02*
X233950D01*
X205875Y130309D02*
X233950D01*
X205887Y130219D02*
X233950D01*
X205896Y130129D02*
X233950D01*
X205900Y130039D02*
X233950D01*
X205899Y129949D02*
X233950D01*
X205895Y129859D02*
X233950D01*
X205886Y129769D02*
X233950D01*
X205873Y129679D02*
X233950D01*
X233276Y129589D02*
X233950D01*
X233417Y129499D02*
X233950D01*
X233505Y129409D02*
X233950D01*
X233567Y129319D02*
X233950D01*
X233608Y129229D02*
X233950D01*
X233635Y129139D02*
X233950D01*
X233648Y129049D02*
X233950D01*
X233650Y128959D02*
X233950D01*
X233650Y128869D02*
X233950D01*
X233650Y128779D02*
X233950D01*
X233650Y128689D02*
X233950D01*
X233650Y128599D02*
X233950D01*
X233650Y128509D02*
X233950D01*
X233650Y128419D02*
X233950D01*
X233650Y128329D02*
X233950D01*
X233650Y128239D02*
X233950D01*
X233650Y128149D02*
X233950D01*
X233650Y128059D02*
X233950D01*
X233650Y127969D02*
X233950D01*
X233650Y127879D02*
X233950D01*
X233650Y127789D02*
X233950D01*
X233650Y127699D02*
X233950D01*
X233650Y127609D02*
X233950D01*
X233650Y127519D02*
X233950D01*
X233650Y127429D02*
X233950D01*
X233650Y127339D02*
X233950D01*
X233650Y127249D02*
X233950D01*
X233650Y127159D02*
X233950D01*
X233650Y127069D02*
X233950D01*
X233650Y126979D02*
X233950D01*
X233650Y126889D02*
X233950D01*
X233650Y126799D02*
X233950D01*
X233650Y126709D02*
X233950D01*
X233650Y126619D02*
X233950D01*
X233650Y126529D02*
X233950D01*
X233650Y126439D02*
X233950D01*
X233650Y126349D02*
X233950D01*
X233650Y126259D02*
X233950D01*
X233650Y126169D02*
X233950D01*
X233650Y126079D02*
X233950D01*
X233650Y125989D02*
X233950D01*
X233650Y125899D02*
X233950D01*
X233650Y125809D02*
X233950D01*
X233650Y125719D02*
X233950D01*
X233650Y125629D02*
X233950D01*
X233650Y125539D02*
X233950D01*
X233650Y125449D02*
X233950D01*
X233650Y125359D02*
X233950D01*
X233650Y125269D02*
X233950D01*
X233650Y125179D02*
X233950D01*
X233650Y125089D02*
X233950D01*
X233650Y124999D02*
X233950D01*
X233650Y124909D02*
X233950D01*
X233650Y124819D02*
X233950D01*
X233650Y124729D02*
X233950D01*
X233650Y124639D02*
X233950D01*
X233650Y124549D02*
X233950D01*
X233650Y124459D02*
X233950D01*
X233650Y124369D02*
X233950D01*
X233650Y124279D02*
X233950D01*
X233650Y124189D02*
X233950D01*
X233650Y124099D02*
X233950D01*
X233650Y124009D02*
X233950D01*
X233650Y123919D02*
X233950D01*
X233650Y123829D02*
X233950D01*
X233650Y123739D02*
X233950D01*
X233650Y123649D02*
X233950D01*
X233650Y123559D02*
X233950D01*
X233650Y123469D02*
X233950D01*
X233650Y123379D02*
X233950D01*
X233650Y123289D02*
X233950D01*
X233650Y123199D02*
X233950D01*
X233650Y123109D02*
X233950D01*
X233650Y123019D02*
X233950D01*
X233646Y122929D02*
X233950D01*
X233630Y122839D02*
X233950D01*
X233599Y122749D02*
X233950D01*
X233553Y122659D02*
X233950D01*
X233486Y122569D02*
X233950D01*
X233388Y122479D02*
X233950D01*
X233221Y122389D02*
X233950D01*
X205876Y122299D02*
X233950D01*
X205889Y122209D02*
X233950D01*
X205896Y122119D02*
X233950D01*
X205900Y122029D02*
X233950D01*
X205899Y121939D02*
X233950D01*
X205894Y121849D02*
X233950D01*
X205885Y121759D02*
X233950D01*
X205871Y121669D02*
X233950D01*
X205853Y121579D02*
X233950D01*
X205830Y121489D02*
X233950D01*
X205802Y121399D02*
X233950D01*
X205770Y121309D02*
X233950D01*
X205732Y121219D02*
X233950D01*
X205688Y121129D02*
X233950D01*
X205639Y121039D02*
X233950D01*
X205583Y120949D02*
X233950D01*
X205519Y120859D02*
X233950D01*
X205447Y120769D02*
X233950D01*
X205365Y120679D02*
X233950D01*
X205272Y120589D02*
X233950D01*
X205165Y120499D02*
X233950D01*
X205038Y120409D02*
X233950D01*
X204885Y120319D02*
X233950D01*
X204687Y120229D02*
X233950D01*
X204382Y120139D02*
X233950D01*
X151899Y120049D02*
X233950D01*
X151900Y119959D02*
X233950D01*
X216344Y119869D02*
X233950D01*
X216668Y119779D02*
X233950D01*
X216871Y119689D02*
X233950D01*
X233253Y119599D02*
X233950D01*
X233405Y119509D02*
X233950D01*
X233497Y119419D02*
X233950D01*
X233561Y119329D02*
X233950D01*
X233605Y119239D02*
X233950D01*
X233633Y119149D02*
X233950D01*
X233647Y119059D02*
X233950D01*
X233650Y118969D02*
X233950D01*
X233650Y118879D02*
X233950D01*
X233650Y118789D02*
X233950D01*
X233650Y118699D02*
X233950D01*
X233650Y118609D02*
X233950D01*
X233650Y118519D02*
X233950D01*
X233650Y118429D02*
X233950D01*
X233650Y118339D02*
X233950D01*
X233650Y118249D02*
X233950D01*
X233650Y118159D02*
X233950D01*
X233650Y118069D02*
X233950D01*
X233650Y117979D02*
X233950D01*
X233650Y117889D02*
X233950D01*
X233650Y117799D02*
X233950D01*
X233650Y117709D02*
X233950D01*
X233650Y117619D02*
X233950D01*
X233650Y117529D02*
X233950D01*
X233650Y117439D02*
X233950D01*
X233650Y117349D02*
X233950D01*
X233650Y117259D02*
X233950D01*
X233650Y117169D02*
X233950D01*
X233650Y117079D02*
X233950D01*
X233650Y116989D02*
X233950D01*
X233650Y116899D02*
X233950D01*
X233650Y116809D02*
X233950D01*
X233650Y116719D02*
X233950D01*
X233650Y116629D02*
X233950D01*
X233650Y116539D02*
X233950D01*
X233650Y116449D02*
X233950D01*
X233650Y116359D02*
X233950D01*
X233650Y116269D02*
X233950D01*
X233650Y116179D02*
X233950D01*
X233650Y116089D02*
X233950D01*
X233650Y115999D02*
X233950D01*
X233650Y115909D02*
X233950D01*
X233650Y115819D02*
X233950D01*
X233650Y115729D02*
X233950D01*
X233650Y115639D02*
X233950D01*
X233650Y115549D02*
X233950D01*
X233650Y115459D02*
X233950D01*
X233650Y115369D02*
X233950D01*
X233650Y115279D02*
X233950D01*
X233650Y115189D02*
X233950D01*
X233650Y115099D02*
X233950D01*
X233650Y115009D02*
X233950D01*
X233650Y114919D02*
X233950D01*
X233650Y114829D02*
X233950D01*
X233650Y114739D02*
X233950D01*
X233650Y114649D02*
X233950D01*
X233650Y114559D02*
X233950D01*
X233650Y114469D02*
X233950D01*
X233650Y114379D02*
X233950D01*
X233650Y114289D02*
X233950D01*
X233650Y114199D02*
X233950D01*
X233650Y114109D02*
X233950D01*
X233650Y114019D02*
X233950D01*
X233650Y113929D02*
X233950D01*
X233650Y113839D02*
X233950D01*
X233650Y113749D02*
X233950D01*
X233650Y113659D02*
X233950D01*
X233650Y113569D02*
X233950D01*
X233650Y113479D02*
X233950D01*
X233650Y113389D02*
X233950D01*
X233650Y113299D02*
X233950D01*
X233650Y113209D02*
X233950D01*
X233650Y113119D02*
X233950D01*
X233650Y113029D02*
X233950D01*
X233647Y112939D02*
X233950D01*
X233632Y112849D02*
X233950D01*
X233604Y112759D02*
X233950D01*
X233559Y112669D02*
X233950D01*
X233495Y112579D02*
X233950D01*
X233401Y112489D02*
X233950D01*
X233247Y112399D02*
X233950D01*
X216866Y112309D02*
X233950D01*
X216661Y112219D02*
X233950D01*
X216329Y112129D02*
X233950D01*
X143900Y112039D02*
X233950D01*
X143899Y111949D02*
X233950D01*
X220394Y111859D02*
X233950D01*
X220694Y111769D02*
X233950D01*
X220890Y111679D02*
X233950D01*
X221042Y111589D02*
X233950D01*
X221168Y111499D02*
X233950D01*
X221275Y111409D02*
X233950D01*
X221368Y111319D02*
X233950D01*
X221449Y111229D02*
X233950D01*
X221521Y111139D02*
X233950D01*
X221584Y111049D02*
X233950D01*
X221640Y110959D02*
X233950D01*
X221690Y110869D02*
X233950D01*
X221733Y110779D02*
X233950D01*
X221771Y110689D02*
X233950D01*
X221803Y110599D02*
X233950D01*
X221831Y110509D02*
X233950D01*
X221853Y110419D02*
X233950D01*
X221871Y110329D02*
X233950D01*
X221885Y110239D02*
X233950D01*
X221894Y110149D02*
X233950D01*
X221899Y110059D02*
X233950D01*
X221900Y109969D02*
X233950D01*
X221896Y109879D02*
X233950D01*
X221888Y109789D02*
X233950D01*
X221876Y109699D02*
X233950D01*
X233228Y109609D02*
X233950D01*
X233392Y109519D02*
X233950D01*
X233489Y109429D02*
X233950D01*
X233555Y109339D02*
X233950D01*
X233601Y109249D02*
X233950D01*
X233630Y109159D02*
X233950D01*
X233646Y109069D02*
X233950D01*
X233650Y108979D02*
X233950D01*
X233650Y108889D02*
X233950D01*
X233650Y108799D02*
X233950D01*
X233650Y108709D02*
X233950D01*
X233650Y108619D02*
X233950D01*
X233650Y108529D02*
X233950D01*
X233650Y108439D02*
X233950D01*
X233650Y108349D02*
X233950D01*
X233650Y108259D02*
X233950D01*
X233650Y108169D02*
X233950D01*
X233650Y108079D02*
X233950D01*
X233650Y107989D02*
X233950D01*
X233650Y107899D02*
X233950D01*
X233650Y107809D02*
X233950D01*
X233650Y107719D02*
X233950D01*
X233650Y107629D02*
X233950D01*
X233650Y107539D02*
X233950D01*
X233650Y107449D02*
X233950D01*
X233650Y107359D02*
X233950D01*
X233650Y107269D02*
X233950D01*
X233650Y107179D02*
X233950D01*
X233650Y107089D02*
X233950D01*
X233650Y106999D02*
X233950D01*
X233650Y106909D02*
X233950D01*
X233650Y106819D02*
X233950D01*
X233650Y106729D02*
X233950D01*
X233650Y106639D02*
X233950D01*
X233650Y106549D02*
X233950D01*
X233650Y106459D02*
X233950D01*
X233650Y106369D02*
X233950D01*
X233650Y106279D02*
X233950D01*
X233650Y106189D02*
X233950D01*
X233650Y106099D02*
X233950D01*
X233650Y106009D02*
X233950D01*
X233650Y105919D02*
X233950D01*
X233650Y105829D02*
X233950D01*
X233650Y105739D02*
X233950D01*
X233650Y105649D02*
X233950D01*
X233650Y105559D02*
X233950D01*
X233650Y105469D02*
X233950D01*
X233650Y105379D02*
X233950D01*
X233650Y105289D02*
X233950D01*
X233650Y105199D02*
X233950D01*
X233650Y105109D02*
X233950D01*
X233650Y105019D02*
X233950D01*
X233650Y104929D02*
X233950D01*
X233650Y104839D02*
X233950D01*
X233650Y104749D02*
X233950D01*
X233650Y104659D02*
X233950D01*
X233650Y104569D02*
X233950D01*
X233650Y104479D02*
X233950D01*
X233650Y104389D02*
X233950D01*
X233650Y104299D02*
X233950D01*
X233650Y104209D02*
X233950D01*
X233650Y104119D02*
X233950D01*
X233650Y104029D02*
X233950D01*
X233650Y103939D02*
X233950D01*
X233650Y103849D02*
X233950D01*
X233650Y103759D02*
X233950D01*
X233650Y103669D02*
X233950D01*
X233650Y103579D02*
X233950D01*
X233650Y103489D02*
X233950D01*
X233650Y103399D02*
X233950D01*
X233650Y103309D02*
X233950D01*
X233650Y103219D02*
X233950D01*
X233650Y103129D02*
X233950D01*
X233650Y103039D02*
X233950D01*
X233648Y102949D02*
X233950D01*
X233634Y102859D02*
X233950D01*
X233607Y102769D02*
X233950D01*
X233565Y102679D02*
X233950D01*
X233503Y102589D02*
X233950D01*
X233414Y102499D02*
X233950D01*
X233270Y102409D02*
X233950D01*
X138050Y102319D02*
X233950D01*
X138050Y102229D02*
X233950D01*
X138050Y102139D02*
X233950D01*
X205864Y142369D02*
X226845D01*
X204991Y132379D02*
X226809D01*
X205860Y122389D02*
X226779D01*
X221859Y109609D02*
X226772D01*
X217023Y112399D02*
X226753D01*
X217027Y119599D02*
X226747D01*
X215270Y102409D02*
X226730D01*
X205855Y129589D02*
X226724D01*
X205057Y139579D02*
X226704D01*
X205850Y149569D02*
X226685D01*
X205844Y142459D02*
X226640D01*
X205125Y132469D02*
X226626D01*
X205839Y122479D02*
X226612D01*
X221838Y109519D02*
X226608D01*
X217152Y112489D02*
X226599D01*
X217155Y119509D02*
X226595D01*
X215414Y102499D02*
X226586D01*
X205833Y129499D02*
X226583D01*
X205181Y139489D02*
X226571D01*
X205827Y149479D02*
X226560D01*
X205819Y142549D02*
X226532D01*
X205238Y132559D02*
X226523D01*
X205813Y122569D02*
X226514D01*
X221812Y109429D02*
X226511D01*
X217261Y112579D02*
X226505D01*
X217264Y119419D02*
X226503D01*
X215503Y102589D02*
X226497D01*
X205806Y129409D02*
X226495D01*
X205286Y139399D02*
X226487D01*
X205799Y149389D02*
X226479D01*
X205789Y142639D02*
X226460D01*
X205336Y132649D02*
X226453D01*
X205782Y122659D02*
X226447D01*
X221781Y109339D02*
X226445D01*
X217356Y112669D02*
X226441D01*
X217358Y119329D02*
X226439D01*
X215565Y102679D02*
X226435D01*
X205774Y129319D02*
X226433D01*
X205377Y139309D02*
X226428D01*
X205766Y149299D02*
X226423D01*
X205755Y142729D02*
X226409D01*
X205421Y132739D02*
X226405D01*
X205746Y122749D02*
X226401D01*
X221745Y109249D02*
X226399D01*
X217438Y112759D02*
X226396D01*
X217441Y119239D02*
X226395D01*
X215607Y102769D02*
X226393D01*
X205736Y129229D02*
X226392D01*
X205458Y139219D02*
X226388D01*
X205727Y149209D02*
X226384D01*
X205715Y142819D02*
X226376D01*
X205496Y132829D02*
X226373D01*
X205705Y122839D02*
X226370D01*
X221704Y109159D02*
X226370D01*
X217511Y112849D02*
X226368D01*
X217513Y119149D02*
X226367D01*
X215634Y102859D02*
X226366D01*
X205694Y129139D02*
X226365D01*
X205528Y139129D02*
X226363D01*
X205683Y149119D02*
X226361D01*
X205669Y142909D02*
X226356D01*
X205562Y132919D02*
X226355D01*
X205658Y122929D02*
X226354D01*
X221656Y109069D02*
X226354D01*
X217576Y112939D02*
X226353D01*
X217578Y119059D02*
X226353D01*
X215648Y102949D02*
X226352D01*
X205645Y129049D02*
X226352D01*
X205591Y139039D02*
X226351D01*
X205633Y149029D02*
X226351D01*
X205616Y142999D02*
X226350D01*
X205576Y148939D02*
X226350D01*
X205511Y148849D02*
X226350D01*
X205438Y148759D02*
X226350D01*
X205356Y148669D02*
X226350D01*
X205261Y148579D02*
X226350D01*
X205152Y148489D02*
X226350D01*
X205023Y148399D02*
X226350D01*
X204866Y148309D02*
X226350D01*
X204661Y148219D02*
X226350D01*
X204329Y148129D02*
X226350D01*
X164591Y148039D02*
X226350D01*
X164646Y147949D02*
X226350D01*
X204394Y147859D02*
X226350D01*
X204694Y147769D02*
X226350D01*
X204890Y147679D02*
X226350D01*
X205042Y147589D02*
X226350D01*
X205168Y147499D02*
X226350D01*
X205275Y147409D02*
X226350D01*
X205368Y147319D02*
X226350D01*
X205449Y147229D02*
X226350D01*
X205521Y147139D02*
X226350D01*
X205584Y147049D02*
X226350D01*
X205640Y146959D02*
X226350D01*
X205690Y146869D02*
X226350D01*
X205733Y146779D02*
X226350D01*
X205771Y146689D02*
X226350D01*
X205803Y146599D02*
X226350D01*
X205831Y146509D02*
X226350D01*
X205853Y146419D02*
X226350D01*
X205871Y146329D02*
X226350D01*
X205885Y146239D02*
X226350D01*
X205894Y146149D02*
X226350D01*
X205899Y146059D02*
X226350D01*
X205900Y145969D02*
X226350D01*
X205896Y145879D02*
X226350D01*
X205888Y145789D02*
X226350D01*
X205876Y145699D02*
X226350D01*
X205859Y145609D02*
X226350D01*
X205838Y145519D02*
X226350D01*
X205812Y145429D02*
X226350D01*
X205781Y145339D02*
X226350D01*
X205745Y145249D02*
X226350D01*
X205704Y145159D02*
X226350D01*
X205656Y145069D02*
X226350D01*
X205602Y144979D02*
X226350D01*
X205541Y144889D02*
X226350D01*
X205472Y144799D02*
X226350D01*
X205394Y144709D02*
X226350D01*
X205305Y144619D02*
X226350D01*
X205202Y144529D02*
X226350D01*
X205083Y144439D02*
X226350D01*
X204940Y144349D02*
X226350D01*
X204760Y144259D02*
X226350D01*
X204506Y144169D02*
X226350D01*
X171487Y144079D02*
X226350D01*
X171474Y143989D02*
X226350D01*
X204071Y143899D02*
X226350D01*
X204582Y143809D02*
X226350D01*
X204810Y143719D02*
X226350D01*
X204978Y143629D02*
X226350D01*
X205115Y143539D02*
X226350D01*
X205229Y143449D02*
X226350D01*
X205328Y143359D02*
X226350D01*
X205414Y143269D02*
X226350D01*
X205490Y143179D02*
X226350D01*
X205557Y143089D02*
X226350D01*
X205646Y138949D02*
X226350D01*
X205695Y138859D02*
X226350D01*
X205738Y138769D02*
X226350D01*
X205775Y138679D02*
X226350D01*
X205807Y138589D02*
X226350D01*
X205833Y138499D02*
X226350D01*
X205856Y138409D02*
X226350D01*
X205873Y138319D02*
X226350D01*
X205886Y138229D02*
X226350D01*
X205895Y138139D02*
X226350D01*
X205899Y138049D02*
X226350D01*
X205900Y137959D02*
X226350D01*
X205895Y137869D02*
X226350D01*
X205887Y137779D02*
X226350D01*
X205874Y137689D02*
X226350D01*
X205857Y137599D02*
X226350D01*
X205835Y137509D02*
X226350D01*
X205809Y137419D02*
X226350D01*
X205777Y137329D02*
X226350D01*
X205741Y137239D02*
X226350D01*
X205699Y137149D02*
X226350D01*
X205650Y137059D02*
X226350D01*
X205596Y136969D02*
X226350D01*
X205534Y136879D02*
X226350D01*
X205464Y136789D02*
X226350D01*
X205384Y136699D02*
X226350D01*
X205294Y136609D02*
X226350D01*
X205190Y136519D02*
X226350D01*
X205068Y136429D02*
X226350D01*
X204922Y136339D02*
X226350D01*
X204737Y136249D02*
X226350D01*
X204469Y136159D02*
X226350D01*
X166541Y136069D02*
X226350D01*
X166562Y135979D02*
X226350D01*
X204207Y135889D02*
X226350D01*
X204612Y135799D02*
X226350D01*
X204831Y135709D02*
X226350D01*
X204995Y135619D02*
X226350D01*
X205128Y135529D02*
X226350D01*
X205241Y135439D02*
X226350D01*
X205338Y135349D02*
X226350D01*
X205423Y135259D02*
X226350D01*
X205498Y135169D02*
X226350D01*
X205564Y135079D02*
X226350D01*
X205623Y134989D02*
X226350D01*
X205674Y134899D02*
X226350D01*
X205719Y134809D02*
X226350D01*
X205759Y134719D02*
X226350D01*
X205793Y134629D02*
X226350D01*
X205822Y134539D02*
X226350D01*
X205846Y134449D02*
X226350D01*
X205866Y134359D02*
X226350D01*
X205881Y134269D02*
X226350D01*
X205892Y134179D02*
X226350D01*
X205898Y134089D02*
X226350D01*
X205900Y133999D02*
X226350D01*
X205898Y133909D02*
X226350D01*
X205891Y133819D02*
X226350D01*
X205881Y133729D02*
X226350D01*
X205865Y133639D02*
X226350D01*
X205846Y133549D02*
X226350D01*
X205821Y133459D02*
X226350D01*
X205792Y133369D02*
X226350D01*
X205758Y133279D02*
X226350D01*
X205718Y133189D02*
X226350D01*
X205673Y133099D02*
X226350D01*
X205621Y133009D02*
X226350D01*
X205589Y128959D02*
X226350D01*
X205527Y128869D02*
X226350D01*
X205455Y128779D02*
X226350D01*
X205375Y128689D02*
X226350D01*
X205283Y128599D02*
X226350D01*
X205177Y128509D02*
X226350D01*
X205053Y128419D02*
X226350D01*
X204904Y128329D02*
X226350D01*
X204713Y128239D02*
X226350D01*
X204427Y128149D02*
X226350D01*
X171178Y128059D02*
X226350D01*
X171235Y127969D02*
X226350D01*
X204284Y127879D02*
X226350D01*
X204641Y127789D02*
X226350D01*
X204851Y127699D02*
X226350D01*
X205011Y127609D02*
X226350D01*
X205142Y127519D02*
X226350D01*
X205253Y127429D02*
X226350D01*
X205348Y127339D02*
X226350D01*
X205432Y127249D02*
X226350D01*
X205506Y127159D02*
X226350D01*
X205571Y127069D02*
X226350D01*
X205629Y126979D02*
X226350D01*
X205679Y126889D02*
X226350D01*
X205724Y126799D02*
X226350D01*
X205763Y126709D02*
X226350D01*
X205796Y126619D02*
X226350D01*
X205825Y126529D02*
X226350D01*
X205849Y126439D02*
X226350D01*
X205868Y126349D02*
X226350D01*
X205882Y126259D02*
X226350D01*
X205893Y126169D02*
X226350D01*
X205898Y126079D02*
X226350D01*
X205900Y125989D02*
X226350D01*
X205897Y125899D02*
X226350D01*
X205890Y125809D02*
X226350D01*
X205879Y125719D02*
X226350D01*
X205863Y125629D02*
X226350D01*
X205843Y125539D02*
X226350D01*
X205818Y125449D02*
X226350D01*
X205789Y125359D02*
X226350D01*
X205754Y125269D02*
X226350D01*
X205713Y125179D02*
X226350D01*
X205667Y125089D02*
X226350D01*
X205615Y124999D02*
X226350D01*
X205555Y124909D02*
X226350D01*
X205488Y124819D02*
X226350D01*
X205412Y124729D02*
X226350D01*
X205325Y124639D02*
X226350D01*
X205226Y124549D02*
X226350D01*
X205111Y124459D02*
X226350D01*
X204974Y124369D02*
X226350D01*
X204804Y124279D02*
X226350D01*
X204574Y124189D02*
X226350D01*
X155897Y124099D02*
X226350D01*
X155900Y124009D02*
X226350D01*
X155898Y123919D02*
X226350D01*
X204516Y123829D02*
X226350D01*
X204766Y123739D02*
X226350D01*
X204944Y123649D02*
X226350D01*
X205087Y123559D02*
X226350D01*
X205205Y123469D02*
X226350D01*
X205307Y123379D02*
X226350D01*
X205396Y123289D02*
X226350D01*
X205474Y123199D02*
X226350D01*
X205543Y123109D02*
X226350D01*
X205604Y123019D02*
X226350D01*
X217635Y118969D02*
X226350D01*
X217685Y118879D02*
X226350D01*
X217729Y118789D02*
X226350D01*
X217767Y118699D02*
X226350D01*
X217800Y118609D02*
X226350D01*
X217828Y118519D02*
X226350D01*
X217851Y118429D02*
X226350D01*
X217870Y118339D02*
X226350D01*
X217884Y118249D02*
X226350D01*
X217893Y118159D02*
X226350D01*
X217899Y118069D02*
X226350D01*
X217900Y117979D02*
X226350D01*
X217897Y117889D02*
X226350D01*
X217889Y117799D02*
X226350D01*
X217878Y117709D02*
X226350D01*
X217861Y117619D02*
X226350D01*
X217841Y117529D02*
X226350D01*
X217815Y117439D02*
X226350D01*
X217785Y117349D02*
X226350D01*
X217749Y117259D02*
X226350D01*
X217709Y117169D02*
X226350D01*
X217662Y117079D02*
X226350D01*
X217609Y116989D02*
X226350D01*
X217548Y116899D02*
X226350D01*
X217480Y116809D02*
X226350D01*
X217403Y116719D02*
X226350D01*
X217315Y116629D02*
X226350D01*
X217214Y116539D02*
X226350D01*
X217097Y116449D02*
X226350D01*
X216957Y116359D02*
X226350D01*
X216783Y116269D02*
X226350D01*
X216541Y116179D02*
X226350D01*
X161275Y116089D02*
X226350D01*
X161183Y115999D02*
X226350D01*
X161077Y115909D02*
X226350D01*
X216550Y115819D02*
X226350D01*
X216788Y115729D02*
X226350D01*
X216962Y115639D02*
X226350D01*
X217101Y115549D02*
X226350D01*
X217218Y115459D02*
X226350D01*
X217318Y115369D02*
X226350D01*
X217405Y115279D02*
X226350D01*
X217482Y115189D02*
X226350D01*
X217550Y115099D02*
X226350D01*
X217610Y115009D02*
X226350D01*
X217663Y114919D02*
X226350D01*
X217710Y114829D02*
X226350D01*
X217751Y114739D02*
X226350D01*
X217786Y114649D02*
X226350D01*
X217816Y114559D02*
X226350D01*
X217841Y114469D02*
X226350D01*
X217862Y114379D02*
X226350D01*
X217878Y114289D02*
X226350D01*
X217890Y114199D02*
X226350D01*
X217897Y114109D02*
X226350D01*
X217900Y114019D02*
X226350D01*
X217899Y113929D02*
X226350D01*
X217893Y113839D02*
X226350D01*
X217883Y113749D02*
X226350D01*
X217869Y113659D02*
X226350D01*
X217850Y113569D02*
X226350D01*
X217827Y113479D02*
X226350D01*
X217799Y113389D02*
X226350D01*
X217766Y113299D02*
X226350D01*
X217727Y113209D02*
X226350D01*
X217683Y113119D02*
X226350D01*
X217633Y113029D02*
X226350D01*
X221602Y108979D02*
X226350D01*
X221541Y108889D02*
X226350D01*
X221472Y108799D02*
X226350D01*
X221394Y108709D02*
X226350D01*
X221305Y108619D02*
X226350D01*
X221202Y108529D02*
X226350D01*
X221083Y108439D02*
X226350D01*
X220940Y108349D02*
X226350D01*
X220760Y108259D02*
X226350D01*
X220506Y108169D02*
X226350D01*
X215650Y108079D02*
X226350D01*
X215650Y107989D02*
X226350D01*
X220071Y107899D02*
X226350D01*
X220582Y107809D02*
X226350D01*
X220810Y107719D02*
X226350D01*
X220978Y107629D02*
X226350D01*
X221115Y107539D02*
X226350D01*
X221229Y107449D02*
X226350D01*
X221328Y107359D02*
X226350D01*
X221414Y107269D02*
X226350D01*
X221490Y107179D02*
X226350D01*
X221557Y107089D02*
X226350D01*
X221616Y106999D02*
X226350D01*
X221669Y106909D02*
X226350D01*
X221715Y106819D02*
X226350D01*
X221755Y106729D02*
X226350D01*
X221789Y106639D02*
X226350D01*
X221819Y106549D02*
X226350D01*
X221844Y106459D02*
X226350D01*
X221864Y106369D02*
X226350D01*
X221879Y106279D02*
X226350D01*
X221891Y106189D02*
X226350D01*
X221897Y106099D02*
X226350D01*
X221900Y106009D02*
X226350D01*
X221898Y105919D02*
X226350D01*
X221892Y105829D02*
X226350D01*
X221882Y105739D02*
X226350D01*
X221867Y105649D02*
X226350D01*
X221848Y105559D02*
X226350D01*
X221824Y105469D02*
X226350D01*
X221796Y105379D02*
X226350D01*
X221762Y105289D02*
X226350D01*
X221723Y105199D02*
X226350D01*
X221678Y105109D02*
X226350D01*
X221627Y105019D02*
X226350D01*
X221569Y104929D02*
X226350D01*
X221504Y104839D02*
X226350D01*
X221430Y104749D02*
X226350D01*
X221346Y104659D02*
X226350D01*
X221250Y104569D02*
X226350D01*
X221138Y104479D02*
X226350D01*
X221007Y104389D02*
X226350D01*
X220846Y104299D02*
X226350D01*
X220633Y104209D02*
X226350D01*
X220266Y104119D02*
X226350D01*
X215650Y104029D02*
X226350D01*
X215650Y103939D02*
X226350D01*
X215650Y103849D02*
X226350D01*
X215650Y103759D02*
X226350D01*
X215650Y103669D02*
X226350D01*
X215650Y103579D02*
X226350D01*
X215650Y103489D02*
X226350D01*
X215650Y103399D02*
X226350D01*
X215650Y103309D02*
X226350D01*
X215650Y103219D02*
X226350D01*
X215650Y103129D02*
X226350D01*
X215650Y103039D02*
X226350D01*
X215650Y107899D02*
X219929D01*
X205578Y155059D02*
X219906D01*
X205318Y151369D02*
X219794D01*
X215650Y104119D02*
X219734D01*
X205635Y154969D02*
X219606D01*
X143895Y111859D02*
X219606D01*
X205218Y151459D02*
X219540D01*
X215650Y108169D02*
X219494D01*
X215650Y107809D02*
X219418D01*
X205685Y154879D02*
X219410D01*
X215650Y104209D02*
X219367D01*
X205101Y151549D02*
X219360D01*
X143886Y111769D02*
X219306D01*
X205729Y154789D02*
X219258D01*
X215650Y108259D02*
X219240D01*
X204962Y151639D02*
X219217D01*
X215650Y107719D02*
X219190D01*
X215650Y104299D02*
X219154D01*
X205767Y154699D02*
X219132D01*
X143873Y111679D02*
X219110D01*
X204788Y151729D02*
X219098D01*
X215650Y108349D02*
X219060D01*
X205800Y154609D02*
X219025D01*
X215650Y107629D02*
X219022D01*
X204550Y151819D02*
X218995D01*
X215650Y104389D02*
X218993D01*
X143855Y111589D02*
X218958D01*
X205828Y154519D02*
X218932D01*
X215650Y108439D02*
X218917D01*
X169275Y151909D02*
X218906D01*
X215650Y107539D02*
X218885D01*
X215650Y104479D02*
X218862D01*
X205851Y154429D02*
X218851D01*
X143833Y111499D02*
X218832D01*
X169168Y151999D02*
X218828D01*
X215650Y108529D02*
X218798D01*
X205870Y154339D02*
X218779D01*
X215650Y107449D02*
X218771D01*
X169042Y152089D02*
X218759D01*
X215650Y104569D02*
X218750D01*
X143806Y111409D02*
X218725D01*
X205884Y154249D02*
X218716D01*
X204541Y152179D02*
X218698D01*
X215650Y108619D02*
X218695D01*
X215650Y107359D02*
X218672D01*
X205893Y154159D02*
X218660D01*
X215650Y104659D02*
X218654D01*
X204783Y152269D02*
X218644D01*
X143774Y111319D02*
X218632D01*
X205899Y154069D02*
X218610D01*
X215650Y108709D02*
X218606D01*
X204957Y152359D02*
X218596D01*
X215650Y107269D02*
X218586D01*
X215650Y104749D02*
X218570D01*
X205900Y153979D02*
X218567D01*
X205097Y152449D02*
X218555D01*
X143736Y111229D02*
X218551D01*
X205897Y153889D02*
X218529D01*
X215650Y108799D02*
X218528D01*
X205214Y152539D02*
X218519D01*
X215650Y107179D02*
X218510D01*
X205889Y153799D02*
X218497D01*
X215650Y104839D02*
X218496D01*
X205315Y152629D02*
X218488D01*
X143694Y111139D02*
X218479D01*
X205878Y153709D02*
X218469D01*
X205403Y152719D02*
X218462D01*
X215650Y108889D02*
X218459D01*
X205861Y153619D02*
X218447D01*
X215650Y107089D02*
X218443D01*
X205480Y152809D02*
X218441D01*
X215650Y104929D02*
X218431D01*
X205841Y153529D02*
X218429D01*
X205548Y152899D02*
X218424D01*
X143645Y111049D02*
X218416D01*
X205815Y153439D02*
X218415D01*
X205609Y152989D02*
X218412D01*
X205785Y153349D02*
X218406D01*
X205662Y153079D02*
X218404D01*
X205749Y153259D02*
X218401D01*
X205709Y153169D02*
X218400D01*
X215650Y108979D02*
X218398D01*
X215650Y106999D02*
X218384D01*
X215650Y105019D02*
X218373D01*
X143589Y110959D02*
X218360D01*
X215646Y109069D02*
X218344D01*
X215650Y106909D02*
X218331D01*
X215650Y105109D02*
X218322D01*
X143527Y110869D02*
X218310D01*
X215630Y109159D02*
X218296D01*
X215650Y106819D02*
X218285D01*
X215650Y105199D02*
X218277D01*
X143455Y110779D02*
X218267D01*
X215601Y109249D02*
X218255D01*
X215650Y106729D02*
X218245D01*
X215650Y105289D02*
X218238D01*
X143375Y110689D02*
X218229D01*
X215555Y109339D02*
X218219D01*
X215650Y106639D02*
X218211D01*
X215650Y105379D02*
X218204D01*
X143283Y110599D02*
X218197D01*
X215489Y109429D02*
X218188D01*
X215650Y106549D02*
X218181D01*
X215650Y105469D02*
X218176D01*
X143177Y110509D02*
X218169D01*
X215392Y109519D02*
X218162D01*
X215650Y106459D02*
X218156D01*
X215650Y105559D02*
X218152D01*
X143053Y110419D02*
X218147D01*
X215228Y109609D02*
X218141D01*
X215650Y106369D02*
X218136D01*
X215650Y105649D02*
X218133D01*
X142904Y110329D02*
X218129D01*
X138050Y109699D02*
X218124D01*
X215650Y106279D02*
X218121D01*
X215650Y105739D02*
X218118D01*
X142713Y110239D02*
X218115D01*
X138050Y109789D02*
X218112D01*
X215650Y106189D02*
X218109D01*
X215650Y105829D02*
X218108D01*
X142427Y110149D02*
X218106D01*
X138050Y109879D02*
X218104D01*
X215650Y106099D02*
X218103D01*
X215650Y105919D02*
X218102D01*
X138050Y110059D02*
X218101D01*
X138050Y109969D02*
X218100D01*
X215650Y106009D02*
X218100D01*
X143896Y112129D02*
X215671D01*
X212344Y119869D02*
X215656D01*
X212541Y116179D02*
X215459D01*
X160953Y115819D02*
X215450D01*
X143887Y112219D02*
X215339D01*
X212668Y119779D02*
X215332D01*
X212783Y116269D02*
X215217D01*
X160804Y115729D02*
X215212D01*
X143875Y112309D02*
X215134D01*
X212871Y119689D02*
X215129D01*
X212957Y116359D02*
X215043D01*
X160613Y115639D02*
X215038D01*
X143858Y112399D02*
X214977D01*
X213027Y119599D02*
X214973D01*
X213097Y116449D02*
X214903D01*
X160327Y115549D02*
X214899D01*
X143836Y112489D02*
X214848D01*
X213155Y119509D02*
X214845D01*
X213214Y116539D02*
X214786D01*
X147821Y115459D02*
X214782D01*
X143810Y112579D02*
X214739D01*
X213264Y119419D02*
X214736D01*
X213315Y116629D02*
X214685D01*
X147792Y115369D02*
X214682D01*
X143778Y112669D02*
X214644D01*
X213358Y119329D02*
X214642D01*
X213403Y116719D02*
X214597D01*
X147758Y115279D02*
X214595D01*
X143742Y112759D02*
X214562D01*
X213441Y119239D02*
X214559D01*
X213480Y116809D02*
X214520D01*
X147718Y115189D02*
X214518D01*
X143700Y112849D02*
X214489D01*
X213513Y119149D02*
X214487D01*
X213548Y116899D02*
X214452D01*
X147673Y115099D02*
X214450D01*
X143652Y112939D02*
X214424D01*
X213578Y119059D02*
X214422D01*
X213609Y116989D02*
X214391D01*
X147621Y115009D02*
X214390D01*
X143597Y113029D02*
X214367D01*
X213635Y118969D02*
X214365D01*
X213662Y117079D02*
X214338D01*
X147562Y114919D02*
X214337D01*
X143536Y113119D02*
X214317D01*
X213685Y118879D02*
X214315D01*
X213709Y117169D02*
X214291D01*
X147496Y114829D02*
X214290D01*
X143466Y113209D02*
X214273D01*
X213729Y118789D02*
X214271D01*
X213749Y117259D02*
X214251D01*
X147421Y114739D02*
X214249D01*
X143387Y113299D02*
X214234D01*
X213767Y118699D02*
X214233D01*
X213785Y117349D02*
X214215D01*
X147336Y114649D02*
X214214D01*
X143297Y113389D02*
X214201D01*
X213800Y118609D02*
X214200D01*
X213815Y117439D02*
X214185D01*
X147238Y114559D02*
X214184D01*
X143193Y113479D02*
X214173D01*
X213828Y118519D02*
X214172D01*
X213841Y117529D02*
X214159D01*
X147125Y114469D02*
X214159D01*
X143072Y113569D02*
X214150D01*
X213851Y118429D02*
X214149D01*
X213861Y117619D02*
X214139D01*
X146991Y114379D02*
X214138D01*
X142927Y113659D02*
X214131D01*
X213870Y118339D02*
X214130D01*
X213878Y117709D02*
X214122D01*
X146826Y114289D02*
X214122D01*
X142743Y113749D02*
X214117D01*
X213884Y118249D02*
X214116D01*
X213889Y117799D02*
X214111D01*
X146604Y114199D02*
X214110D01*
X142479Y113839D02*
X214107D01*
X213893Y118159D02*
X214107D01*
X213897Y117889D02*
X214103D01*
X146182Y114109D02*
X214103D01*
X140799Y113929D02*
X214101D01*
X213899Y118069D02*
X214101D01*
X213900Y117979D02*
X214100D01*
X140889Y114019D02*
X214100D01*
X208344Y119869D02*
X211656D01*
X208541Y116179D02*
X211459D01*
X208668Y119779D02*
X211332D01*
X208783Y116269D02*
X211217D01*
X208871Y119689D02*
X211129D01*
X208957Y116359D02*
X211043D01*
X209027Y119599D02*
X210973D01*
X209097Y116449D02*
X210903D01*
X209155Y119509D02*
X210845D01*
X209214Y116539D02*
X210786D01*
X209264Y119419D02*
X210736D01*
X209315Y116629D02*
X210685D01*
X209358Y119329D02*
X210642D01*
X209403Y116719D02*
X210597D01*
X209441Y119239D02*
X210559D01*
X209480Y116809D02*
X210520D01*
X209513Y119149D02*
X210487D01*
X209548Y116899D02*
X210452D01*
X209578Y119059D02*
X210422D01*
X209609Y116989D02*
X210391D01*
X209635Y118969D02*
X210365D01*
X209662Y117079D02*
X210338D01*
X209685Y118879D02*
X210315D01*
X209709Y117169D02*
X210291D01*
X209729Y118789D02*
X210271D01*
X209749Y117259D02*
X210251D01*
X209767Y118699D02*
X210233D01*
X209785Y117349D02*
X210215D01*
X209800Y118609D02*
X210200D01*
X209815Y117439D02*
X210185D01*
X209828Y118519D02*
X210172D01*
X209841Y117529D02*
X210159D01*
X209851Y118429D02*
X210149D01*
X209861Y117619D02*
X210139D01*
X209870Y118339D02*
X210130D01*
X209878Y117709D02*
X210122D01*
X209884Y118249D02*
X210116D01*
X209889Y117799D02*
X210111D01*
X209893Y118159D02*
X210107D01*
X209897Y117889D02*
X210103D01*
X209899Y118069D02*
X210101D01*
X209900Y117979D02*
X210100D01*
X205228Y109609D02*
X208772D01*
X205270Y102409D02*
X208730D01*
X205392Y109519D02*
X208608D01*
X205414Y102499D02*
X208586D01*
X205489Y109429D02*
X208511D01*
X205503Y102589D02*
X208497D01*
X205555Y109339D02*
X208445D01*
X205565Y102679D02*
X208435D01*
X205601Y109249D02*
X208399D01*
X205607Y102769D02*
X208393D01*
X205630Y109159D02*
X208370D01*
X205634Y102859D02*
X208366D01*
X205646Y109069D02*
X208354D01*
X205648Y102949D02*
X208352D01*
X205650Y108979D02*
X208350D01*
X205650Y108889D02*
X208350D01*
X205650Y108799D02*
X208350D01*
X205650Y108709D02*
X208350D01*
X205650Y108619D02*
X208350D01*
X205650Y108529D02*
X208350D01*
X205650Y108439D02*
X208350D01*
X205650Y108349D02*
X208350D01*
X205650Y108259D02*
X208350D01*
X205650Y108169D02*
X208350D01*
X205650Y108079D02*
X208350D01*
X205650Y107989D02*
X208350D01*
X205650Y107899D02*
X208350D01*
X205650Y107809D02*
X208350D01*
X205650Y107719D02*
X208350D01*
X205650Y107629D02*
X208350D01*
X205650Y107539D02*
X208350D01*
X205650Y107449D02*
X208350D01*
X205650Y107359D02*
X208350D01*
X205650Y107269D02*
X208350D01*
X205650Y107179D02*
X208350D01*
X205650Y107089D02*
X208350D01*
X205650Y106999D02*
X208350D01*
X205650Y106909D02*
X208350D01*
X205650Y106819D02*
X208350D01*
X205650Y106729D02*
X208350D01*
X205650Y106639D02*
X208350D01*
X205650Y106549D02*
X208350D01*
X205650Y106459D02*
X208350D01*
X205650Y106369D02*
X208350D01*
X205650Y106279D02*
X208350D01*
X205650Y106189D02*
X208350D01*
X205650Y106099D02*
X208350D01*
X205650Y106009D02*
X208350D01*
X205650Y105919D02*
X208350D01*
X205650Y105829D02*
X208350D01*
X205650Y105739D02*
X208350D01*
X205650Y105649D02*
X208350D01*
X205650Y105559D02*
X208350D01*
X205650Y105469D02*
X208350D01*
X205650Y105379D02*
X208350D01*
X205650Y105289D02*
X208350D01*
X205650Y105199D02*
X208350D01*
X205650Y105109D02*
X208350D01*
X205650Y105019D02*
X208350D01*
X205650Y104929D02*
X208350D01*
X205650Y104839D02*
X208350D01*
X205650Y104749D02*
X208350D01*
X205650Y104659D02*
X208350D01*
X205650Y104569D02*
X208350D01*
X205650Y104479D02*
X208350D01*
X205650Y104389D02*
X208350D01*
X205650Y104299D02*
X208350D01*
X205650Y104209D02*
X208350D01*
X205650Y104119D02*
X208350D01*
X205650Y104029D02*
X208350D01*
X205650Y103939D02*
X208350D01*
X205650Y103849D02*
X208350D01*
X205650Y103759D02*
X208350D01*
X205650Y103669D02*
X208350D01*
X205650Y103579D02*
X208350D01*
X205650Y103489D02*
X208350D01*
X205650Y103399D02*
X208350D01*
X205650Y103309D02*
X208350D01*
X205650Y103219D02*
X208350D01*
X205650Y103129D02*
X208350D01*
X205650Y103039D02*
X208350D01*
X204344Y119869D02*
X207656D01*
X204541Y116179D02*
X207459D01*
X204668Y119779D02*
X207332D01*
X204783Y116269D02*
X207217D01*
X204871Y119689D02*
X207129D01*
X204957Y116359D02*
X207043D01*
X205027Y119599D02*
X206973D01*
X205097Y116449D02*
X206903D01*
X205155Y119509D02*
X206845D01*
X205214Y116539D02*
X206786D01*
X205264Y119419D02*
X206736D01*
X205315Y116629D02*
X206685D01*
X205358Y119329D02*
X206642D01*
X205403Y116719D02*
X206597D01*
X205441Y119239D02*
X206559D01*
X205480Y116809D02*
X206520D01*
X205513Y119149D02*
X206487D01*
X205548Y116899D02*
X206452D01*
X205578Y119059D02*
X206422D01*
X205609Y116989D02*
X206391D01*
X205635Y118969D02*
X206365D01*
X205662Y117079D02*
X206338D01*
X205685Y118879D02*
X206315D01*
X205709Y117169D02*
X206291D01*
X205729Y118789D02*
X206271D01*
X205749Y117259D02*
X206251D01*
X205767Y118699D02*
X206233D01*
X205785Y117349D02*
X206215D01*
X205800Y118609D02*
X206200D01*
X205815Y117439D02*
X206185D01*
X205828Y118519D02*
X206172D01*
X205841Y117529D02*
X206159D01*
X205851Y118429D02*
X206149D01*
X205861Y117619D02*
X206139D01*
X205870Y118339D02*
X206130D01*
X205878Y117709D02*
X206122D01*
X205884Y118249D02*
X206116D01*
X205889Y117799D02*
X206111D01*
X205893Y118159D02*
X206107D01*
X205897Y117889D02*
X206103D01*
X205899Y118069D02*
X206101D01*
X205900Y117979D02*
X206100D01*
X184071Y143899D02*
X203929D01*
X184182Y132109D02*
X203818D01*
X184207Y135889D02*
X203793D01*
X201896Y140119D02*
X203734D01*
X184284Y127879D02*
X203716D01*
X200329Y148129D02*
X203671D01*
X184344Y155869D02*
X203656D01*
X200344Y119869D02*
X203656D01*
X200382Y156139D02*
X203618D01*
X200382Y120139D02*
X203618D01*
X184394Y147859D02*
X203606D01*
X200427Y128149D02*
X203573D01*
X201894Y139849D02*
X203561D01*
X184469Y136159D02*
X203531D01*
X200479Y131839D02*
X203521D01*
X184506Y144169D02*
X203494D01*
X200516Y159829D02*
X203484D01*
X200516Y123829D02*
X203484D01*
X184541Y152179D02*
X203459D01*
X200541Y116179D02*
X203459D01*
X200550Y151819D02*
X203450D01*
X184574Y124189D02*
X203426D01*
X184582Y143809D02*
X203418D01*
X184604Y132199D02*
X203396D01*
X184612Y135799D02*
X203388D01*
X201889Y140209D02*
X203367D01*
X184641Y127789D02*
X203359D01*
X200661Y148219D02*
X203339D01*
X184668Y155779D02*
X203332D01*
X200668Y119779D02*
X203332D01*
X200687Y156229D02*
X203313D01*
X200687Y120229D02*
X203313D01*
X184694Y147769D02*
X203306D01*
X200713Y128239D02*
X203287D01*
X201885Y139759D02*
X203281D01*
X184737Y136249D02*
X203263D01*
X200743Y131749D02*
X203257D01*
X184760Y144259D02*
X203240D01*
X200766Y159739D02*
X203234D01*
X200766Y123739D02*
X203234D01*
X184783Y152269D02*
X203217D01*
X200783Y116269D02*
X203217D01*
X200788Y151729D02*
X203212D01*
X184804Y124279D02*
X203196D01*
X184810Y143719D02*
X203190D01*
X184826Y132289D02*
X203174D01*
X184831Y135709D02*
X203169D01*
X201876Y140299D02*
X203154D01*
X184851Y127699D02*
X203149D01*
X200866Y148309D02*
X203134D01*
X184871Y155689D02*
X203129D01*
X200871Y119689D02*
X203129D01*
X200885Y156319D02*
X203115D01*
X200885Y120319D02*
X203115D01*
X184890Y147679D02*
X203110D01*
X200904Y128329D02*
X203096D01*
X201871Y139669D02*
X203091D01*
X184922Y136339D02*
X203078D01*
X200927Y131659D02*
X203073D01*
X184940Y144349D02*
X203060D01*
X200944Y159649D02*
X203056D01*
X200944Y123649D02*
X203056D01*
X184957Y152359D02*
X203043D01*
X200957Y116359D02*
X203043D01*
X200962Y151639D02*
X203038D01*
X184974Y124369D02*
X203026D01*
X184978Y143629D02*
X203022D01*
X184991Y132379D02*
X203009D01*
X184995Y135619D02*
X203005D01*
X201860Y140389D02*
X202993D01*
X185011Y127609D02*
X202989D01*
X201023Y148399D02*
X202977D01*
X185027Y155599D02*
X202973D01*
X201027Y119599D02*
X202973D01*
X201038Y156409D02*
X202962D01*
X201038Y120409D02*
X202962D01*
X185042Y147589D02*
X202958D01*
X201053Y128419D02*
X202947D01*
X201853Y139579D02*
X202943D01*
X185068Y136429D02*
X202932D01*
X201072Y131569D02*
X202928D01*
X185083Y144439D02*
X202917D01*
X201087Y159559D02*
X202913D01*
X201087Y123559D02*
X202913D01*
X185097Y152449D02*
X202903D01*
X201097Y116449D02*
X202903D01*
X201101Y151549D02*
X202899D01*
X185111Y124459D02*
X202889D01*
X185115Y143539D02*
X202885D01*
X185125Y132469D02*
X202875D01*
X185128Y135529D02*
X202872D01*
X201839Y140479D02*
X202862D01*
X185142Y127519D02*
X202858D01*
X201152Y148489D02*
X202848D01*
X185155Y155509D02*
X202845D01*
X201155Y119509D02*
X202845D01*
X201165Y156499D02*
X202835D01*
X201165Y120499D02*
X202835D01*
X185168Y147499D02*
X202832D01*
X201177Y128509D02*
X202823D01*
X201830Y139489D02*
X202819D01*
X185190Y136519D02*
X202810D01*
X201193Y131479D02*
X202807D01*
X185202Y144529D02*
X202798D01*
X201205Y159469D02*
X202795D01*
X201205Y123469D02*
X202795D01*
X185214Y152539D02*
X202786D01*
X201214Y116539D02*
X202786D01*
X201218Y151459D02*
X202782D01*
X185226Y124549D02*
X202774D01*
X185229Y143449D02*
X202771D01*
X185238Y132559D02*
X202762D01*
X185241Y135439D02*
X202759D01*
X201813Y140569D02*
X202750D01*
X185253Y127429D02*
X202747D01*
X201261Y148579D02*
X202739D01*
X185264Y155419D02*
X202736D01*
X201264Y119419D02*
X202736D01*
X201272Y156589D02*
X202728D01*
X201272Y120589D02*
X202728D01*
X185275Y147409D02*
X202725D01*
X201283Y128599D02*
X202717D01*
X201802Y139399D02*
X202714D01*
X185294Y136609D02*
X202706D01*
X201297Y131389D02*
X202703D01*
X185305Y144619D02*
X202695D01*
X201307Y159379D02*
X202693D01*
X201307Y123379D02*
X202693D01*
X185315Y152629D02*
X202685D01*
X201315Y116629D02*
X202685D01*
X201318Y151369D02*
X202682D01*
X185325Y124639D02*
X202675D01*
X185328Y143359D02*
X202672D01*
X185336Y132649D02*
X202664D01*
X185338Y135349D02*
X202662D01*
X201782Y140659D02*
X202654D01*
X185348Y127339D02*
X202652D01*
X201356Y148669D02*
X202644D01*
X185358Y155329D02*
X202642D01*
X201358Y119329D02*
X202642D01*
X201365Y156679D02*
X202635D01*
X201365Y120679D02*
X202635D01*
X185368Y147319D02*
X202632D01*
X201375Y128689D02*
X202625D01*
X201770Y139309D02*
X202623D01*
X185384Y136699D02*
X202616D01*
X201387Y131299D02*
X202613D01*
X185394Y144709D02*
X202606D01*
X201396Y159289D02*
X202604D01*
X201396Y123289D02*
X202604D01*
X185403Y152719D02*
X202597D01*
X201403Y116719D02*
X202597D01*
X201405Y151279D02*
X202595D01*
X185412Y124729D02*
X202588D01*
X185414Y143269D02*
X202586D01*
X185421Y132739D02*
X202579D01*
X185423Y135259D02*
X202577D01*
X201746Y140749D02*
X202570D01*
X185432Y127249D02*
X202568D01*
X201438Y148759D02*
X202562D01*
X185441Y155239D02*
X202559D01*
X201441Y119239D02*
X202559D01*
X201447Y156769D02*
X202553D01*
X201447Y120769D02*
X202553D01*
X185449Y147229D02*
X202551D01*
X201455Y128779D02*
X202545D01*
X201732Y139219D02*
X202542D01*
X185464Y136789D02*
X202536D01*
X201466Y131209D02*
X202534D01*
X185472Y144799D02*
X202528D01*
X201474Y159199D02*
X202526D01*
X201474Y123199D02*
X202526D01*
X185480Y152809D02*
X202520D01*
X201480Y116809D02*
X202520D01*
X201482Y151189D02*
X202518D01*
X185488Y124819D02*
X202512D01*
X185490Y143179D02*
X202510D01*
X185496Y132829D02*
X202504D01*
X185498Y135169D02*
X202502D01*
X201705Y140839D02*
X202496D01*
X185506Y127159D02*
X202494D01*
X201511Y148849D02*
X202489D01*
X185513Y155149D02*
X202487D01*
X201513Y119149D02*
X202487D01*
X201519Y156859D02*
X202481D01*
X201519Y120859D02*
X202481D01*
X185521Y147139D02*
X202479D01*
X201527Y128869D02*
X202473D01*
X201688Y139129D02*
X202472D01*
X185534Y136879D02*
X202466D01*
X201536Y131119D02*
X202464D01*
X185541Y144889D02*
X202459D01*
X201543Y159109D02*
X202457D01*
X201543Y123109D02*
X202457D01*
X185548Y152899D02*
X202452D01*
X201548Y116899D02*
X202452D01*
X201550Y151099D02*
X202450D01*
X185555Y124909D02*
X202445D01*
X185557Y143089D02*
X202443D01*
X185562Y132919D02*
X202438D01*
X185564Y135079D02*
X202436D01*
X201658Y140929D02*
X202431D01*
X185571Y127069D02*
X202429D01*
X201576Y148939D02*
X202424D01*
X185578Y155059D02*
X202422D01*
X201578Y119059D02*
X202422D01*
X201583Y156949D02*
X202417D01*
X201583Y120949D02*
X202417D01*
X185584Y147049D02*
X202416D01*
X201589Y128959D02*
X202411D01*
X201639Y139039D02*
X202409D01*
X185596Y136969D02*
X202404D01*
X201597Y131029D02*
X202403D01*
X185602Y144979D02*
X202398D01*
X201604Y159019D02*
X202396D01*
X201604Y123019D02*
X202396D01*
X185609Y152989D02*
X202391D01*
X201609Y116989D02*
X202391D01*
X201610Y151009D02*
X202390D01*
X185615Y124999D02*
X202385D01*
X185616Y142999D02*
X202384D01*
X185621Y133009D02*
X202379D01*
X185623Y134989D02*
X202377D01*
X201604Y141019D02*
X202373D01*
X185629Y126979D02*
X202371D01*
X201633Y149029D02*
X202367D01*
X185635Y154969D02*
X202365D01*
X201635Y118969D02*
X202365D01*
X201639Y157039D02*
X202361D01*
X201639Y121039D02*
X202361D01*
X185640Y146959D02*
X202360D01*
X201645Y129049D02*
X202355D01*
X201583Y138949D02*
X202354D01*
X185650Y137059D02*
X202350D01*
X201652Y130939D02*
X202348D01*
X185656Y145069D02*
X202344D01*
X201658Y158929D02*
X202342D01*
X201658Y122929D02*
X202342D01*
X185662Y153079D02*
X202338D01*
X201662Y117079D02*
X202338D01*
X201663Y150919D02*
X202337D01*
X185667Y125089D02*
X202333D01*
X185669Y142909D02*
X202331D01*
X185673Y133099D02*
X202327D01*
X185674Y134899D02*
X202326D01*
X201543Y141109D02*
X202322D01*
X185679Y126889D02*
X202321D01*
X201683Y149119D02*
X202317D01*
X185685Y154879D02*
X202315D01*
X201685Y118879D02*
X202315D01*
X201688Y157129D02*
X202312D01*
X201688Y121129D02*
X202312D01*
X185690Y146869D02*
X202310D01*
X201694Y129139D02*
X202306D01*
X201519Y138859D02*
X202305D01*
X185699Y137149D02*
X202301D01*
X201700Y130849D02*
X202300D01*
X185704Y145159D02*
X202296D01*
X201705Y158839D02*
X202295D01*
X201705Y122839D02*
X202295D01*
X185709Y153169D02*
X202291D01*
X201709Y117169D02*
X202291D01*
X201710Y150829D02*
X202290D01*
X185713Y125179D02*
X202287D01*
X185715Y142819D02*
X202285D01*
X185718Y133189D02*
X202282D01*
X185719Y134809D02*
X202281D01*
X201474Y141199D02*
X202277D01*
X185724Y126799D02*
X202276D01*
X201727Y149209D02*
X202273D01*
X185729Y154789D02*
X202271D01*
X201729Y118789D02*
X202271D01*
X201732Y157219D02*
X202268D01*
X201732Y121219D02*
X202268D01*
X185733Y146779D02*
X202267D01*
X201736Y129229D02*
X202264D01*
X201447Y138769D02*
X202262D01*
X185741Y137239D02*
X202259D01*
X201742Y130759D02*
X202258D01*
X185745Y145249D02*
X202255D01*
X201746Y158749D02*
X202254D01*
X201746Y122749D02*
X202254D01*
X185749Y153259D02*
X202251D01*
X201749Y117259D02*
X202251D01*
X201751Y150739D02*
X202249D01*
X185754Y125269D02*
X202246D01*
X185755Y142729D02*
X202245D01*
X185758Y133279D02*
X202242D01*
X185759Y134719D02*
X202241D01*
X201396Y141289D02*
X202238D01*
X185763Y126709D02*
X202237D01*
X201766Y149299D02*
X202234D01*
X185767Y154699D02*
X202233D01*
X201767Y118699D02*
X202233D01*
X201770Y157309D02*
X202230D01*
X201770Y121309D02*
X202230D01*
X185771Y146689D02*
X202229D01*
X201774Y129319D02*
X202226D01*
X201365Y138679D02*
X202225D01*
X185777Y137329D02*
X202223D01*
X201778Y130669D02*
X202222D01*
X185781Y145339D02*
X202219D01*
X201782Y158659D02*
X202218D01*
X201782Y122659D02*
X202218D01*
X185785Y153349D02*
X202215D01*
X201785Y117349D02*
X202215D01*
X201786Y150649D02*
X202214D01*
X185789Y125359D02*
X202211D01*
X185789Y142639D02*
X202211D01*
X185792Y133369D02*
X202208D01*
X185793Y134629D02*
X202207D01*
X201307Y141379D02*
X202204D01*
X185796Y126619D02*
X202204D01*
X201799Y149389D02*
X202201D01*
X185800Y154609D02*
X202200D01*
X201800Y118609D02*
X202200D01*
X201802Y157399D02*
X202198D01*
X201802Y121399D02*
X202198D01*
X185803Y146599D02*
X202197D01*
X201806Y129409D02*
X202194D01*
X201272Y138589D02*
X202193D01*
X185809Y137419D02*
X202191D01*
X201810Y130579D02*
X202190D01*
X185812Y145429D02*
X202188D01*
X201813Y158569D02*
X202187D01*
X201813Y122569D02*
X202187D01*
X185815Y153439D02*
X202185D01*
X201815Y117439D02*
X202185D01*
X201816Y150559D02*
X202184D01*
X185818Y125449D02*
X202182D01*
X185819Y142549D02*
X202181D01*
X185821Y133459D02*
X202179D01*
X185822Y134539D02*
X202178D01*
X201205Y141469D02*
X202176D01*
X185825Y126529D02*
X202175D01*
X201827Y149479D02*
X202173D01*
X185828Y154519D02*
X202172D01*
X201828Y118519D02*
X202172D01*
X201830Y157489D02*
X202170D01*
X201830Y121489D02*
X202170D01*
X185831Y146509D02*
X202169D01*
X201833Y129499D02*
X202167D01*
X201165Y138499D02*
X202167D01*
X185835Y137509D02*
X202165D01*
X201836Y130489D02*
X202164D01*
X185838Y145519D02*
X202162D01*
X201839Y158479D02*
X202161D01*
X201839Y122479D02*
X202161D01*
X185841Y153529D02*
X202159D01*
X201841Y117529D02*
X202159D01*
X201841Y150469D02*
X202159D01*
X185843Y125539D02*
X202157D01*
X185844Y142459D02*
X202156D01*
X185846Y133549D02*
X202154D01*
X185846Y134449D02*
X202154D01*
X201087Y141559D02*
X202152D01*
X185849Y126439D02*
X202151D01*
X201850Y149569D02*
X202150D01*
X185851Y154429D02*
X202149D01*
X201851Y118429D02*
X202149D01*
X201853Y157579D02*
X202147D01*
X201853Y121579D02*
X202147D01*
X185853Y146419D02*
X202147D01*
X201855Y129589D02*
X202145D01*
X201038Y138409D02*
X202144D01*
X185857Y137599D02*
X202143D01*
X201858Y130399D02*
X202142D01*
X185859Y145609D02*
X202141D01*
X201860Y158389D02*
X202140D01*
X201860Y122389D02*
X202140D01*
X185861Y153619D02*
X202139D01*
X201861Y117619D02*
X202139D01*
X201862Y150379D02*
X202138D01*
X185863Y125629D02*
X202137D01*
X185864Y142369D02*
X202136D01*
X185865Y133639D02*
X202135D01*
X185866Y134359D02*
X202134D01*
X200944Y141649D02*
X202133D01*
X185868Y126349D02*
X202132D01*
X201869Y149659D02*
X202131D01*
X185870Y154339D02*
X202130D01*
X201870Y118339D02*
X202130D01*
X201871Y157669D02*
X202129D01*
X201871Y121669D02*
X202129D01*
X185871Y146329D02*
X202129D01*
X201873Y129679D02*
X202127D01*
X200885Y138319D02*
X202127D01*
X185874Y137689D02*
X202126D01*
X201875Y130309D02*
X202125D01*
X185876Y145699D02*
X202124D01*
X201876Y158299D02*
X202124D01*
X201876Y122299D02*
X202124D01*
X185878Y153709D02*
X202122D01*
X201878Y117709D02*
X202122D01*
X201878Y150289D02*
X202122D01*
X185879Y125719D02*
X202121D01*
X185879Y142279D02*
X202121D01*
X185881Y133729D02*
X202119D01*
X185881Y134269D02*
X202119D01*
X200766Y141739D02*
X202118D01*
X185882Y126259D02*
X202118D01*
X201883Y149749D02*
X202117D01*
X185884Y154249D02*
X202116D01*
X201884Y118249D02*
X202116D01*
X201885Y157759D02*
X202115D01*
X201885Y121759D02*
X202115D01*
X185885Y146239D02*
X202115D01*
X201886Y129769D02*
X202114D01*
X200687Y138229D02*
X202114D01*
X185887Y137779D02*
X202113D01*
X201887Y130219D02*
X202113D01*
X185888Y145789D02*
X202112D01*
X201889Y158209D02*
X202111D01*
X201889Y122209D02*
X202111D01*
X185889Y153799D02*
X202111D01*
X201889Y117799D02*
X202111D01*
X201890Y150199D02*
X202110D01*
X185890Y125809D02*
X202110D01*
X185891Y142189D02*
X202109D01*
X185891Y133819D02*
X202109D01*
X185892Y134179D02*
X202108D01*
X200516Y141829D02*
X202108D01*
X185893Y126169D02*
X202107D01*
X201893Y149839D02*
X202107D01*
X185893Y154159D02*
X202107D01*
X201893Y118159D02*
X202107D01*
X201894Y157849D02*
X202106D01*
X201894Y121849D02*
X202106D01*
X185894Y146149D02*
X202106D01*
X201895Y129859D02*
X202105D01*
X200382Y138139D02*
X202105D01*
X185895Y137869D02*
X202105D01*
X201896Y130129D02*
X202104D01*
X185896Y145879D02*
X202104D01*
X201896Y158119D02*
X202104D01*
X201896Y122119D02*
X202104D01*
X185897Y153889D02*
X202103D01*
X201897Y117889D02*
X202103D01*
X201897Y150109D02*
X202103D01*
X185897Y125899D02*
X202103D01*
X185897Y142099D02*
X202103D01*
X185898Y133909D02*
X202102D01*
X185898Y134089D02*
X202102D01*
X185898Y141919D02*
X202102D01*
X185898Y126079D02*
X202102D01*
X201899Y149929D02*
X202101D01*
X185899Y154069D02*
X202101D01*
X201899Y118069D02*
X202101D01*
X201899Y157939D02*
X202101D01*
X201899Y121939D02*
X202101D01*
X185899Y146059D02*
X202101D01*
X201899Y129949D02*
X202101D01*
X185899Y138049D02*
X202101D01*
X185900Y137959D02*
X202100D01*
X201900Y130039D02*
X202100D01*
X185900Y145969D02*
X202100D01*
X201900Y158029D02*
X202100D01*
X201900Y122029D02*
X202100D01*
X185900Y153979D02*
X202100D01*
X201900Y117979D02*
X202100D01*
X201900Y150019D02*
X202100D01*
X185900Y125989D02*
X202100D01*
X185900Y142009D02*
X202100D01*
X185900Y133999D02*
X202100D01*
X196329Y148129D02*
X199671D01*
X196344Y119869D02*
X199656D01*
X196382Y156139D02*
X199618D01*
X196382Y138139D02*
X199618D01*
X196382Y120139D02*
X199618D01*
X196427Y128149D02*
X199573D01*
X196479Y131839D02*
X199521D01*
X196516Y159829D02*
X199484D01*
X196516Y141829D02*
X199484D01*
X196516Y123829D02*
X199484D01*
X196541Y116179D02*
X199459D01*
X196550Y151819D02*
X199450D01*
X196661Y148219D02*
X199339D01*
X196668Y119779D02*
X199332D01*
X196687Y156229D02*
X199313D01*
X196687Y138229D02*
X199313D01*
X196687Y120229D02*
X199313D01*
X196713Y128239D02*
X199287D01*
X196743Y131749D02*
X199257D01*
X196766Y159739D02*
X199234D01*
X196766Y141739D02*
X199234D01*
X196766Y123739D02*
X199234D01*
X196783Y116269D02*
X199217D01*
X196788Y151729D02*
X199212D01*
X196866Y148309D02*
X199134D01*
X196871Y119689D02*
X199129D01*
X196885Y156319D02*
X199115D01*
X196885Y138319D02*
X199115D01*
X196885Y120319D02*
X199115D01*
X196904Y128329D02*
X199096D01*
X196927Y131659D02*
X199073D01*
X196944Y159649D02*
X199056D01*
X196944Y141649D02*
X199056D01*
X196944Y123649D02*
X199056D01*
X196957Y116359D02*
X199043D01*
X196962Y151639D02*
X199038D01*
X197023Y148399D02*
X198977D01*
X197027Y119599D02*
X198973D01*
X197038Y156409D02*
X198962D01*
X197038Y138409D02*
X198962D01*
X197038Y120409D02*
X198962D01*
X197053Y128419D02*
X198947D01*
X197072Y131569D02*
X198928D01*
X197087Y159559D02*
X198913D01*
X197087Y141559D02*
X198913D01*
X197087Y123559D02*
X198913D01*
X197097Y116449D02*
X198903D01*
X197101Y151549D02*
X198899D01*
X197152Y148489D02*
X198848D01*
X197155Y119509D02*
X198845D01*
X197165Y156499D02*
X198835D01*
X197165Y138499D02*
X198835D01*
X197165Y120499D02*
X198835D01*
X197177Y128509D02*
X198823D01*
X197193Y131479D02*
X198807D01*
X197205Y159469D02*
X198795D01*
X197205Y141469D02*
X198795D01*
X197205Y123469D02*
X198795D01*
X197214Y116539D02*
X198786D01*
X197218Y151459D02*
X198782D01*
X195228Y109609D02*
X198772D01*
X197261Y148579D02*
X198739D01*
X197264Y119419D02*
X198736D01*
X195270Y102409D02*
X198730D01*
X197272Y156589D02*
X198728D01*
X197272Y138589D02*
X198728D01*
X197272Y120589D02*
X198728D01*
X197283Y128599D02*
X198717D01*
X197297Y131389D02*
X198703D01*
X197307Y159379D02*
X198693D01*
X197307Y141379D02*
X198693D01*
X197307Y123379D02*
X198693D01*
X197315Y116629D02*
X198685D01*
X197318Y151369D02*
X198682D01*
X197356Y148669D02*
X198644D01*
X197358Y119329D02*
X198642D01*
X197365Y156679D02*
X198635D01*
X197365Y138679D02*
X198635D01*
X197365Y120679D02*
X198635D01*
X197375Y128689D02*
X198625D01*
X197387Y131299D02*
X198613D01*
X195392Y109519D02*
X198608D01*
X197396Y159289D02*
X198604D01*
X197396Y141289D02*
X198604D01*
X197396Y123289D02*
X198604D01*
X197403Y116719D02*
X198597D01*
X197405Y151279D02*
X198595D01*
X195414Y102499D02*
X198586D01*
X197438Y148759D02*
X198562D01*
X197441Y119239D02*
X198559D01*
X197447Y156769D02*
X198553D01*
X197447Y138769D02*
X198553D01*
X197447Y120769D02*
X198553D01*
X197455Y128779D02*
X198545D01*
X197466Y131209D02*
X198534D01*
X197474Y159199D02*
X198526D01*
X197474Y141199D02*
X198526D01*
X197474Y123199D02*
X198526D01*
X197480Y116809D02*
X198520D01*
X197482Y151189D02*
X198518D01*
X195489Y109429D02*
X198511D01*
X195503Y102589D02*
X198497D01*
X197511Y148849D02*
X198489D01*
X197513Y119149D02*
X198487D01*
X197519Y156859D02*
X198481D01*
X197519Y138859D02*
X198481D01*
X197519Y120859D02*
X198481D01*
X197527Y128869D02*
X198473D01*
X197536Y131119D02*
X198464D01*
X197543Y159109D02*
X198457D01*
X197543Y141109D02*
X198457D01*
X197543Y123109D02*
X198457D01*
X197548Y116899D02*
X198452D01*
X197550Y151099D02*
X198450D01*
X195555Y109339D02*
X198445D01*
X195565Y102679D02*
X198435D01*
X197576Y148939D02*
X198424D01*
X197578Y119059D02*
X198422D01*
X197583Y156949D02*
X198417D01*
X197583Y138949D02*
X198417D01*
X197583Y120949D02*
X198417D01*
X197589Y128959D02*
X198411D01*
X197597Y131029D02*
X198403D01*
X195601Y109249D02*
X198399D01*
X197604Y159019D02*
X198396D01*
X197604Y141019D02*
X198396D01*
X197604Y123019D02*
X198396D01*
X195607Y102769D02*
X198393D01*
X197609Y116989D02*
X198391D01*
X197610Y151009D02*
X198390D01*
X195630Y109159D02*
X198370D01*
X197633Y149029D02*
X198367D01*
X195634Y102859D02*
X198366D01*
X197635Y118969D02*
X198365D01*
X197639Y157039D02*
X198361D01*
X197639Y139039D02*
X198361D01*
X197639Y121039D02*
X198361D01*
X197645Y129049D02*
X198355D01*
X195646Y109069D02*
X198354D01*
X195648Y102949D02*
X198352D01*
X195650Y108979D02*
X198350D01*
X195650Y108889D02*
X198350D01*
X195650Y108799D02*
X198350D01*
X195650Y108709D02*
X198350D01*
X195650Y108619D02*
X198350D01*
X195650Y108529D02*
X198350D01*
X195650Y108439D02*
X198350D01*
X195650Y108349D02*
X198350D01*
X195650Y108259D02*
X198350D01*
X195650Y108169D02*
X198350D01*
X195650Y108079D02*
X198350D01*
X195650Y107989D02*
X198350D01*
X195650Y107899D02*
X198350D01*
X195650Y107809D02*
X198350D01*
X195650Y107719D02*
X198350D01*
X195650Y107629D02*
X198350D01*
X195650Y107539D02*
X198350D01*
X195650Y107449D02*
X198350D01*
X195650Y107359D02*
X198350D01*
X195650Y107269D02*
X198350D01*
X195650Y107179D02*
X198350D01*
X195650Y107089D02*
X198350D01*
X195650Y106999D02*
X198350D01*
X195650Y106909D02*
X198350D01*
X195650Y106819D02*
X198350D01*
X195650Y106729D02*
X198350D01*
X195650Y106639D02*
X198350D01*
X195650Y106549D02*
X198350D01*
X195650Y106459D02*
X198350D01*
X195650Y106369D02*
X198350D01*
X195650Y106279D02*
X198350D01*
X195650Y106189D02*
X198350D01*
X195650Y106099D02*
X198350D01*
X195650Y106009D02*
X198350D01*
X195650Y105919D02*
X198350D01*
X195650Y105829D02*
X198350D01*
X195650Y105739D02*
X198350D01*
X195650Y105649D02*
X198350D01*
X195650Y105559D02*
X198350D01*
X195650Y105469D02*
X198350D01*
X195650Y105379D02*
X198350D01*
X195650Y105289D02*
X198350D01*
X195650Y105199D02*
X198350D01*
X195650Y105109D02*
X198350D01*
X195650Y105019D02*
X198350D01*
X195650Y104929D02*
X198350D01*
X195650Y104839D02*
X198350D01*
X195650Y104749D02*
X198350D01*
X195650Y104659D02*
X198350D01*
X195650Y104569D02*
X198350D01*
X195650Y104479D02*
X198350D01*
X195650Y104389D02*
X198350D01*
X195650Y104299D02*
X198350D01*
X195650Y104209D02*
X198350D01*
X195650Y104119D02*
X198350D01*
X195650Y104029D02*
X198350D01*
X195650Y103939D02*
X198350D01*
X195650Y103849D02*
X198350D01*
X195650Y103759D02*
X198350D01*
X195650Y103669D02*
X198350D01*
X195650Y103579D02*
X198350D01*
X195650Y103489D02*
X198350D01*
X195650Y103399D02*
X198350D01*
X195650Y103309D02*
X198350D01*
X195650Y103219D02*
X198350D01*
X195650Y103129D02*
X198350D01*
X195650Y103039D02*
X198350D01*
X197652Y130939D02*
X198348D01*
X197658Y158929D02*
X198342D01*
X197658Y140929D02*
X198342D01*
X197658Y122929D02*
X198342D01*
X197662Y117079D02*
X198338D01*
X197663Y150919D02*
X198337D01*
X197683Y149119D02*
X198317D01*
X197685Y118879D02*
X198315D01*
X197688Y157129D02*
X198312D01*
X197688Y139129D02*
X198312D01*
X197688Y121129D02*
X198312D01*
X197694Y129139D02*
X198306D01*
X197700Y130849D02*
X198300D01*
X197705Y158839D02*
X198295D01*
X197705Y140839D02*
X198295D01*
X197705Y122839D02*
X198295D01*
X197709Y117169D02*
X198291D01*
X197710Y150829D02*
X198290D01*
X197727Y149209D02*
X198273D01*
X197729Y118789D02*
X198271D01*
X197732Y157219D02*
X198268D01*
X197732Y139219D02*
X198268D01*
X197732Y121219D02*
X198268D01*
X197736Y129229D02*
X198264D01*
X197742Y130759D02*
X198258D01*
X197746Y158749D02*
X198254D01*
X197746Y140749D02*
X198254D01*
X197746Y122749D02*
X198254D01*
X197749Y117259D02*
X198251D01*
X197751Y150739D02*
X198249D01*
X197766Y149299D02*
X198234D01*
X197767Y118699D02*
X198233D01*
X197770Y157309D02*
X198230D01*
X197770Y139309D02*
X198230D01*
X197770Y121309D02*
X198230D01*
X197774Y129319D02*
X198226D01*
X197778Y130669D02*
X198222D01*
X197782Y158659D02*
X198218D01*
X197782Y140659D02*
X198218D01*
X197782Y122659D02*
X198218D01*
X197785Y117349D02*
X198215D01*
X197786Y150649D02*
X198214D01*
X197799Y149389D02*
X198201D01*
X197800Y118609D02*
X198200D01*
X197802Y157399D02*
X198198D01*
X197802Y139399D02*
X198198D01*
X197802Y121399D02*
X198198D01*
X197806Y129409D02*
X198194D01*
X197810Y130579D02*
X198190D01*
X197813Y158569D02*
X198187D01*
X197813Y140569D02*
X198187D01*
X197813Y122569D02*
X198187D01*
X197815Y117439D02*
X198185D01*
X197816Y150559D02*
X198184D01*
X197827Y149479D02*
X198173D01*
X197828Y118519D02*
X198172D01*
X197830Y157489D02*
X198170D01*
X197830Y139489D02*
X198170D01*
X197830Y121489D02*
X198170D01*
X197833Y129499D02*
X198167D01*
X197836Y130489D02*
X198164D01*
X197839Y158479D02*
X198161D01*
X197839Y140479D02*
X198161D01*
X197839Y122479D02*
X198161D01*
X197841Y117529D02*
X198159D01*
X197841Y150469D02*
X198159D01*
X197850Y149569D02*
X198150D01*
X197851Y118429D02*
X198149D01*
X197853Y157579D02*
X198147D01*
X197853Y139579D02*
X198147D01*
X197853Y121579D02*
X198147D01*
X197855Y129589D02*
X198145D01*
X197858Y130399D02*
X198142D01*
X197860Y158389D02*
X198140D01*
X197860Y140389D02*
X198140D01*
X197860Y122389D02*
X198140D01*
X197861Y117619D02*
X198139D01*
X197862Y150379D02*
X198138D01*
X197869Y149659D02*
X198131D01*
X197870Y118339D02*
X198130D01*
X197871Y157669D02*
X198129D01*
X197871Y139669D02*
X198129D01*
X197871Y121669D02*
X198129D01*
X197873Y129679D02*
X198127D01*
X197875Y130309D02*
X198125D01*
X197876Y158299D02*
X198124D01*
X197876Y140299D02*
X198124D01*
X197876Y122299D02*
X198124D01*
X197878Y117709D02*
X198122D01*
X197878Y150289D02*
X198122D01*
X197883Y149749D02*
X198117D01*
X197884Y118249D02*
X198116D01*
X197885Y157759D02*
X198115D01*
X197885Y139759D02*
X198115D01*
X197885Y121759D02*
X198115D01*
X197886Y129769D02*
X198114D01*
X197887Y130219D02*
X198113D01*
X197889Y158209D02*
X198111D01*
X197889Y140209D02*
X198111D01*
X197889Y122209D02*
X198111D01*
X197889Y117799D02*
X198111D01*
X197890Y150199D02*
X198110D01*
X197893Y149839D02*
X198107D01*
X197893Y118159D02*
X198107D01*
X197894Y157849D02*
X198106D01*
X197894Y139849D02*
X198106D01*
X197894Y121849D02*
X198106D01*
X197895Y129859D02*
X198105D01*
X197896Y130129D02*
X198104D01*
X197896Y158119D02*
X198104D01*
X197896Y140119D02*
X198104D01*
X197896Y122119D02*
X198104D01*
X197897Y117889D02*
X198103D01*
X197897Y150109D02*
X198103D01*
X197899Y149929D02*
X198101D01*
X197899Y118069D02*
X198101D01*
X197899Y157939D02*
X198101D01*
X197899Y139939D02*
X198101D01*
X197899Y121939D02*
X198101D01*
X197899Y129949D02*
X198101D01*
X197900Y130039D02*
X198100D01*
X197900Y158029D02*
X198100D01*
X197900Y140029D02*
X198100D01*
X197900Y122029D02*
X198100D01*
X197900Y117979D02*
X198100D01*
X197900Y150019D02*
X198100D01*
X192329Y148129D02*
X195671D01*
X192344Y119869D02*
X195656D01*
X192382Y156139D02*
X195618D01*
X192382Y138139D02*
X195618D01*
X192382Y120139D02*
X195618D01*
X192427Y128149D02*
X195573D01*
X192479Y131839D02*
X195521D01*
X192516Y159829D02*
X195484D01*
X192516Y141829D02*
X195484D01*
X192516Y123829D02*
X195484D01*
X192541Y116179D02*
X195459D01*
X192550Y151819D02*
X195450D01*
X192661Y148219D02*
X195339D01*
X192668Y119779D02*
X195332D01*
X192687Y156229D02*
X195313D01*
X192687Y138229D02*
X195313D01*
X192687Y120229D02*
X195313D01*
X192713Y128239D02*
X195287D01*
X192743Y131749D02*
X195257D01*
X192766Y159739D02*
X195234D01*
X192766Y141739D02*
X195234D01*
X192766Y123739D02*
X195234D01*
X192783Y116269D02*
X195217D01*
X192788Y151729D02*
X195212D01*
X192866Y148309D02*
X195134D01*
X192871Y119689D02*
X195129D01*
X192885Y156319D02*
X195115D01*
X192885Y138319D02*
X195115D01*
X192885Y120319D02*
X195115D01*
X192904Y128329D02*
X195096D01*
X192927Y131659D02*
X195073D01*
X192944Y159649D02*
X195056D01*
X192944Y141649D02*
X195056D01*
X192944Y123649D02*
X195056D01*
X192957Y116359D02*
X195043D01*
X192962Y151639D02*
X195038D01*
X193023Y148399D02*
X194977D01*
X193027Y119599D02*
X194973D01*
X193038Y156409D02*
X194962D01*
X193038Y138409D02*
X194962D01*
X193038Y120409D02*
X194962D01*
X193053Y128419D02*
X194947D01*
X193072Y131569D02*
X194928D01*
X193087Y159559D02*
X194913D01*
X193087Y141559D02*
X194913D01*
X193087Y123559D02*
X194913D01*
X193097Y116449D02*
X194903D01*
X193101Y151549D02*
X194899D01*
X193152Y148489D02*
X194848D01*
X193155Y119509D02*
X194845D01*
X193165Y156499D02*
X194835D01*
X193165Y138499D02*
X194835D01*
X193165Y120499D02*
X194835D01*
X193177Y128509D02*
X194823D01*
X193193Y131479D02*
X194807D01*
X193205Y159469D02*
X194795D01*
X193205Y141469D02*
X194795D01*
X193205Y123469D02*
X194795D01*
X193214Y116539D02*
X194786D01*
X193218Y151459D02*
X194782D01*
X193261Y148579D02*
X194739D01*
X193264Y119419D02*
X194736D01*
X193272Y156589D02*
X194728D01*
X193272Y138589D02*
X194728D01*
X193272Y120589D02*
X194728D01*
X193283Y128599D02*
X194717D01*
X193297Y131389D02*
X194703D01*
X193307Y159379D02*
X194693D01*
X193307Y141379D02*
X194693D01*
X193307Y123379D02*
X194693D01*
X193315Y116629D02*
X194685D01*
X193318Y151369D02*
X194682D01*
X193356Y148669D02*
X194644D01*
X193358Y119329D02*
X194642D01*
X193365Y156679D02*
X194635D01*
X193365Y138679D02*
X194635D01*
X193365Y120679D02*
X194635D01*
X193375Y128689D02*
X194625D01*
X193387Y131299D02*
X194613D01*
X193396Y159289D02*
X194604D01*
X193396Y141289D02*
X194604D01*
X193396Y123289D02*
X194604D01*
X193403Y116719D02*
X194597D01*
X193405Y151279D02*
X194595D01*
X193438Y148759D02*
X194562D01*
X193441Y119239D02*
X194559D01*
X193447Y156769D02*
X194553D01*
X193447Y138769D02*
X194553D01*
X193447Y120769D02*
X194553D01*
X193455Y128779D02*
X194545D01*
X193466Y131209D02*
X194534D01*
X193474Y159199D02*
X194526D01*
X193474Y141199D02*
X194526D01*
X193474Y123199D02*
X194526D01*
X193480Y116809D02*
X194520D01*
X193482Y151189D02*
X194518D01*
X193511Y148849D02*
X194489D01*
X193513Y119149D02*
X194487D01*
X193519Y156859D02*
X194481D01*
X193519Y138859D02*
X194481D01*
X193519Y120859D02*
X194481D01*
X193527Y128869D02*
X194473D01*
X193536Y131119D02*
X194464D01*
X193543Y159109D02*
X194457D01*
X193543Y141109D02*
X194457D01*
X193543Y123109D02*
X194457D01*
X193548Y116899D02*
X194452D01*
X193550Y151099D02*
X194450D01*
X193576Y148939D02*
X194424D01*
X193578Y119059D02*
X194422D01*
X193583Y156949D02*
X194417D01*
X193583Y138949D02*
X194417D01*
X193583Y120949D02*
X194417D01*
X193589Y128959D02*
X194411D01*
X193597Y131029D02*
X194403D01*
X193604Y159019D02*
X194396D01*
X193604Y141019D02*
X194396D01*
X193604Y123019D02*
X194396D01*
X193609Y116989D02*
X194391D01*
X193610Y151009D02*
X194390D01*
X193633Y149029D02*
X194367D01*
X193635Y118969D02*
X194365D01*
X193639Y157039D02*
X194361D01*
X193639Y139039D02*
X194361D01*
X193639Y121039D02*
X194361D01*
X193645Y129049D02*
X194355D01*
X193652Y130939D02*
X194348D01*
X193658Y158929D02*
X194342D01*
X193658Y140929D02*
X194342D01*
X193658Y122929D02*
X194342D01*
X193662Y117079D02*
X194338D01*
X193663Y150919D02*
X194337D01*
X193683Y149119D02*
X194317D01*
X193685Y118879D02*
X194315D01*
X193688Y157129D02*
X194312D01*
X193688Y139129D02*
X194312D01*
X193688Y121129D02*
X194312D01*
X193694Y129139D02*
X194306D01*
X193700Y130849D02*
X194300D01*
X193705Y158839D02*
X194295D01*
X193705Y140839D02*
X194295D01*
X193705Y122839D02*
X194295D01*
X193709Y117169D02*
X194291D01*
X193710Y150829D02*
X194290D01*
X193727Y149209D02*
X194273D01*
X193729Y118789D02*
X194271D01*
X193732Y157219D02*
X194268D01*
X193732Y139219D02*
X194268D01*
X193732Y121219D02*
X194268D01*
X193736Y129229D02*
X194264D01*
X193742Y130759D02*
X194258D01*
X193746Y158749D02*
X194254D01*
X193746Y140749D02*
X194254D01*
X193746Y122749D02*
X194254D01*
X193749Y117259D02*
X194251D01*
X193751Y150739D02*
X194249D01*
X193766Y149299D02*
X194234D01*
X193767Y118699D02*
X194233D01*
X193770Y157309D02*
X194230D01*
X193770Y139309D02*
X194230D01*
X193770Y121309D02*
X194230D01*
X193774Y129319D02*
X194226D01*
X193778Y130669D02*
X194222D01*
X193782Y158659D02*
X194218D01*
X193782Y140659D02*
X194218D01*
X193782Y122659D02*
X194218D01*
X193785Y117349D02*
X194215D01*
X193786Y150649D02*
X194214D01*
X193799Y149389D02*
X194201D01*
X193800Y118609D02*
X194200D01*
X193802Y157399D02*
X194198D01*
X193802Y139399D02*
X194198D01*
X193802Y121399D02*
X194198D01*
X193806Y129409D02*
X194194D01*
X193810Y130579D02*
X194190D01*
X193813Y158569D02*
X194187D01*
X193813Y140569D02*
X194187D01*
X193813Y122569D02*
X194187D01*
X193815Y117439D02*
X194185D01*
X193816Y150559D02*
X194184D01*
X193827Y149479D02*
X194173D01*
X193828Y118519D02*
X194172D01*
X193830Y157489D02*
X194170D01*
X193830Y139489D02*
X194170D01*
X193830Y121489D02*
X194170D01*
X193833Y129499D02*
X194167D01*
X193836Y130489D02*
X194164D01*
X193839Y158479D02*
X194161D01*
X193839Y140479D02*
X194161D01*
X193839Y122479D02*
X194161D01*
X193841Y117529D02*
X194159D01*
X193841Y150469D02*
X194159D01*
X193850Y149569D02*
X194150D01*
X193851Y118429D02*
X194149D01*
X193853Y157579D02*
X194147D01*
X193853Y139579D02*
X194147D01*
X193853Y121579D02*
X194147D01*
X193855Y129589D02*
X194145D01*
X193858Y130399D02*
X194142D01*
X193860Y158389D02*
X194140D01*
X193860Y140389D02*
X194140D01*
X193860Y122389D02*
X194140D01*
X193861Y117619D02*
X194139D01*
X193862Y150379D02*
X194138D01*
X193869Y149659D02*
X194131D01*
X193870Y118339D02*
X194130D01*
X193871Y157669D02*
X194129D01*
X193871Y139669D02*
X194129D01*
X193871Y121669D02*
X194129D01*
X193873Y129679D02*
X194127D01*
X193875Y130309D02*
X194125D01*
X193876Y158299D02*
X194124D01*
X193876Y140299D02*
X194124D01*
X193876Y122299D02*
X194124D01*
X193878Y117709D02*
X194122D01*
X193878Y150289D02*
X194122D01*
X193883Y149749D02*
X194117D01*
X193884Y118249D02*
X194116D01*
X193885Y157759D02*
X194115D01*
X193885Y139759D02*
X194115D01*
X193885Y121759D02*
X194115D01*
X193886Y129769D02*
X194114D01*
X193887Y130219D02*
X194113D01*
X193889Y158209D02*
X194111D01*
X193889Y140209D02*
X194111D01*
X193889Y122209D02*
X194111D01*
X193889Y117799D02*
X194111D01*
X193890Y150199D02*
X194110D01*
X193893Y149839D02*
X194107D01*
X193893Y118159D02*
X194107D01*
X193894Y157849D02*
X194106D01*
X193894Y139849D02*
X194106D01*
X193894Y121849D02*
X194106D01*
X193895Y129859D02*
X194105D01*
X193896Y130129D02*
X194104D01*
X193896Y158119D02*
X194104D01*
X193896Y140119D02*
X194104D01*
X193896Y122119D02*
X194104D01*
X193897Y117889D02*
X194103D01*
X193897Y150109D02*
X194103D01*
X193899Y149929D02*
X194101D01*
X193899Y118069D02*
X194101D01*
X193899Y157939D02*
X194101D01*
X193899Y139939D02*
X194101D01*
X193899Y121939D02*
X194101D01*
X193899Y129949D02*
X194101D01*
X193900Y130039D02*
X194100D01*
X193900Y158029D02*
X194100D01*
X193900Y140029D02*
X194100D01*
X193900Y122029D02*
X194100D01*
X193900Y117979D02*
X194100D01*
X193900Y150019D02*
X194100D01*
X188329Y148129D02*
X191671D01*
X188344Y119869D02*
X191656D01*
X188382Y156139D02*
X191618D01*
X188382Y138139D02*
X191618D01*
X188382Y120139D02*
X191618D01*
X188427Y128149D02*
X191573D01*
X188479Y131839D02*
X191521D01*
X188516Y159829D02*
X191484D01*
X188516Y141829D02*
X191484D01*
X188516Y123829D02*
X191484D01*
X188541Y116179D02*
X191459D01*
X188550Y151819D02*
X191450D01*
X188661Y148219D02*
X191339D01*
X188668Y119779D02*
X191332D01*
X188687Y156229D02*
X191313D01*
X188687Y138229D02*
X191313D01*
X188687Y120229D02*
X191313D01*
X188713Y128239D02*
X191287D01*
X188743Y131749D02*
X191257D01*
X188766Y159739D02*
X191234D01*
X188766Y141739D02*
X191234D01*
X188766Y123739D02*
X191234D01*
X188783Y116269D02*
X191217D01*
X188788Y151729D02*
X191212D01*
X188866Y148309D02*
X191134D01*
X188871Y119689D02*
X191129D01*
X188885Y156319D02*
X191115D01*
X188885Y138319D02*
X191115D01*
X188885Y120319D02*
X191115D01*
X188904Y128329D02*
X191096D01*
X188927Y131659D02*
X191073D01*
X188944Y159649D02*
X191056D01*
X188944Y141649D02*
X191056D01*
X188944Y123649D02*
X191056D01*
X188957Y116359D02*
X191043D01*
X188962Y151639D02*
X191038D01*
X189023Y148399D02*
X190977D01*
X189027Y119599D02*
X190973D01*
X189038Y156409D02*
X190962D01*
X189038Y138409D02*
X190962D01*
X189038Y120409D02*
X190962D01*
X189053Y128419D02*
X190947D01*
X189072Y131569D02*
X190928D01*
X189087Y159559D02*
X190913D01*
X189087Y141559D02*
X190913D01*
X189087Y123559D02*
X190913D01*
X189097Y116449D02*
X190903D01*
X189101Y151549D02*
X190899D01*
X189152Y148489D02*
X190848D01*
X189155Y119509D02*
X190845D01*
X189165Y156499D02*
X190835D01*
X189165Y138499D02*
X190835D01*
X189165Y120499D02*
X190835D01*
X189177Y128509D02*
X190823D01*
X189193Y131479D02*
X190807D01*
X189205Y159469D02*
X190795D01*
X189205Y141469D02*
X190795D01*
X189205Y123469D02*
X190795D01*
X189214Y116539D02*
X190786D01*
X189218Y151459D02*
X190782D01*
X189261Y148579D02*
X190739D01*
X189264Y119419D02*
X190736D01*
X189272Y156589D02*
X190728D01*
X189272Y138589D02*
X190728D01*
X189272Y120589D02*
X190728D01*
X189283Y128599D02*
X190717D01*
X189297Y131389D02*
X190703D01*
X189307Y159379D02*
X190693D01*
X189307Y141379D02*
X190693D01*
X189307Y123379D02*
X190693D01*
X189315Y116629D02*
X190685D01*
X189318Y151369D02*
X190682D01*
X189356Y148669D02*
X190644D01*
X189358Y119329D02*
X190642D01*
X189365Y156679D02*
X190635D01*
X189365Y138679D02*
X190635D01*
X189365Y120679D02*
X190635D01*
X189375Y128689D02*
X190625D01*
X189387Y131299D02*
X190613D01*
X189396Y159289D02*
X190604D01*
X189396Y141289D02*
X190604D01*
X189396Y123289D02*
X190604D01*
X189403Y116719D02*
X190597D01*
X189405Y151279D02*
X190595D01*
X189438Y148759D02*
X190562D01*
X189441Y119239D02*
X190559D01*
X189447Y156769D02*
X190553D01*
X189447Y138769D02*
X190553D01*
X189447Y120769D02*
X190553D01*
X189455Y128779D02*
X190545D01*
X189466Y131209D02*
X190534D01*
X189474Y159199D02*
X190526D01*
X189474Y141199D02*
X190526D01*
X189474Y123199D02*
X190526D01*
X189480Y116809D02*
X190520D01*
X189482Y151189D02*
X190518D01*
X189511Y148849D02*
X190489D01*
X189513Y119149D02*
X190487D01*
X189519Y156859D02*
X190481D01*
X189519Y138859D02*
X190481D01*
X189519Y120859D02*
X190481D01*
X189527Y128869D02*
X190473D01*
X189536Y131119D02*
X190464D01*
X189543Y159109D02*
X190457D01*
X189543Y141109D02*
X190457D01*
X189543Y123109D02*
X190457D01*
X189548Y116899D02*
X190452D01*
X189550Y151099D02*
X190450D01*
X189576Y148939D02*
X190424D01*
X189578Y119059D02*
X190422D01*
X189583Y156949D02*
X190417D01*
X189583Y138949D02*
X190417D01*
X189583Y120949D02*
X190417D01*
X189589Y128959D02*
X190411D01*
X189597Y131029D02*
X190403D01*
X189604Y159019D02*
X190396D01*
X189604Y141019D02*
X190396D01*
X189604Y123019D02*
X190396D01*
X189609Y116989D02*
X190391D01*
X189610Y151009D02*
X190390D01*
X189633Y149029D02*
X190367D01*
X189635Y118969D02*
X190365D01*
X189639Y157039D02*
X190361D01*
X189639Y139039D02*
X190361D01*
X189639Y121039D02*
X190361D01*
X189645Y129049D02*
X190355D01*
X189652Y130939D02*
X190348D01*
X189658Y158929D02*
X190342D01*
X189658Y140929D02*
X190342D01*
X189658Y122929D02*
X190342D01*
X189662Y117079D02*
X190338D01*
X189663Y150919D02*
X190337D01*
X189683Y149119D02*
X190317D01*
X189685Y118879D02*
X190315D01*
X189688Y157129D02*
X190312D01*
X189688Y139129D02*
X190312D01*
X189688Y121129D02*
X190312D01*
X189694Y129139D02*
X190306D01*
X189700Y130849D02*
X190300D01*
X189705Y158839D02*
X190295D01*
X189705Y140839D02*
X190295D01*
X189705Y122839D02*
X190295D01*
X189709Y117169D02*
X190291D01*
X189710Y150829D02*
X190290D01*
X189727Y149209D02*
X190273D01*
X189729Y118789D02*
X190271D01*
X189732Y157219D02*
X190268D01*
X189732Y139219D02*
X190268D01*
X189732Y121219D02*
X190268D01*
X189736Y129229D02*
X190264D01*
X189742Y130759D02*
X190258D01*
X189746Y158749D02*
X190254D01*
X189746Y140749D02*
X190254D01*
X189746Y122749D02*
X190254D01*
X189749Y117259D02*
X190251D01*
X189751Y150739D02*
X190249D01*
X189766Y149299D02*
X190234D01*
X189767Y118699D02*
X190233D01*
X189770Y157309D02*
X190230D01*
X189770Y139309D02*
X190230D01*
X189770Y121309D02*
X190230D01*
X189774Y129319D02*
X190226D01*
X189778Y130669D02*
X190222D01*
X189782Y158659D02*
X190218D01*
X189782Y140659D02*
X190218D01*
X189782Y122659D02*
X190218D01*
X189785Y117349D02*
X190215D01*
X189786Y150649D02*
X190214D01*
X189799Y149389D02*
X190201D01*
X189800Y118609D02*
X190200D01*
X189802Y157399D02*
X190198D01*
X189802Y139399D02*
X190198D01*
X189802Y121399D02*
X190198D01*
X189806Y129409D02*
X190194D01*
X189810Y130579D02*
X190190D01*
X189813Y158569D02*
X190187D01*
X189813Y140569D02*
X190187D01*
X189813Y122569D02*
X190187D01*
X189815Y117439D02*
X190185D01*
X189816Y150559D02*
X190184D01*
X189827Y149479D02*
X190173D01*
X189828Y118519D02*
X190172D01*
X189830Y157489D02*
X190170D01*
X189830Y139489D02*
X190170D01*
X189830Y121489D02*
X190170D01*
X189833Y129499D02*
X190167D01*
X189836Y130489D02*
X190164D01*
X189839Y158479D02*
X190161D01*
X189839Y140479D02*
X190161D01*
X189839Y122479D02*
X190161D01*
X189841Y117529D02*
X190159D01*
X189841Y150469D02*
X190159D01*
X189850Y149569D02*
X190150D01*
X189851Y118429D02*
X190149D01*
X189853Y157579D02*
X190147D01*
X189853Y139579D02*
X190147D01*
X189853Y121579D02*
X190147D01*
X189855Y129589D02*
X190145D01*
X189858Y130399D02*
X190142D01*
X189860Y158389D02*
X190140D01*
X189860Y140389D02*
X190140D01*
X189860Y122389D02*
X190140D01*
X189861Y117619D02*
X190139D01*
X189862Y150379D02*
X190138D01*
X189869Y149659D02*
X190131D01*
X189870Y118339D02*
X190130D01*
X189871Y157669D02*
X190129D01*
X189871Y139669D02*
X190129D01*
X189871Y121669D02*
X190129D01*
X189873Y129679D02*
X190127D01*
X189875Y130309D02*
X190125D01*
X189876Y158299D02*
X190124D01*
X189876Y140299D02*
X190124D01*
X189876Y122299D02*
X190124D01*
X189878Y117709D02*
X190122D01*
X189878Y150289D02*
X190122D01*
X189883Y149749D02*
X190117D01*
X189884Y118249D02*
X190116D01*
X189885Y157759D02*
X190115D01*
X189885Y139759D02*
X190115D01*
X189885Y121759D02*
X190115D01*
X189886Y129769D02*
X190114D01*
X189887Y130219D02*
X190113D01*
X189889Y158209D02*
X190111D01*
X189889Y140209D02*
X190111D01*
X189889Y122209D02*
X190111D01*
X189889Y117799D02*
X190111D01*
X189890Y150199D02*
X190110D01*
X189893Y149839D02*
X190107D01*
X189893Y118159D02*
X190107D01*
X189894Y157849D02*
X190106D01*
X189894Y139849D02*
X190106D01*
X189894Y121849D02*
X190106D01*
X189895Y129859D02*
X190105D01*
X189896Y130129D02*
X190104D01*
X189896Y158119D02*
X190104D01*
X189896Y140119D02*
X190104D01*
X189896Y122119D02*
X190104D01*
X189897Y117889D02*
X190103D01*
X189897Y150109D02*
X190103D01*
X189899Y149929D02*
X190101D01*
X189899Y118069D02*
X190101D01*
X189899Y157939D02*
X190101D01*
X189899Y139939D02*
X190101D01*
X189899Y121939D02*
X190101D01*
X189899Y129949D02*
X190101D01*
X189900Y130039D02*
X190100D01*
X189900Y158029D02*
X190100D01*
X189900Y140029D02*
X190100D01*
X189900Y122029D02*
X190100D01*
X189900Y117979D02*
X190100D01*
X189900Y150019D02*
X190100D01*
X185228Y109609D02*
X188772D01*
X185270Y102409D02*
X188730D01*
X185392Y109519D02*
X188608D01*
X185414Y102499D02*
X188586D01*
X185489Y109429D02*
X188511D01*
X185503Y102589D02*
X188497D01*
X185555Y109339D02*
X188445D01*
X185565Y102679D02*
X188435D01*
X185601Y109249D02*
X188399D01*
X185607Y102769D02*
X188393D01*
X185630Y109159D02*
X188370D01*
X185634Y102859D02*
X188366D01*
X185646Y109069D02*
X188354D01*
X185648Y102949D02*
X188352D01*
X185650Y108979D02*
X188350D01*
X185650Y108889D02*
X188350D01*
X185650Y108799D02*
X188350D01*
X185650Y108709D02*
X188350D01*
X185650Y108619D02*
X188350D01*
X185650Y108529D02*
X188350D01*
X185650Y108439D02*
X188350D01*
X185650Y108349D02*
X188350D01*
X185650Y108259D02*
X188350D01*
X185650Y108169D02*
X188350D01*
X185650Y108079D02*
X188350D01*
X185650Y107989D02*
X188350D01*
X185650Y107899D02*
X188350D01*
X185650Y107809D02*
X188350D01*
X185650Y107719D02*
X188350D01*
X185650Y107629D02*
X188350D01*
X185650Y107539D02*
X188350D01*
X185650Y107449D02*
X188350D01*
X185650Y107359D02*
X188350D01*
X185650Y107269D02*
X188350D01*
X185650Y107179D02*
X188350D01*
X185650Y107089D02*
X188350D01*
X185650Y106999D02*
X188350D01*
X185650Y106909D02*
X188350D01*
X185650Y106819D02*
X188350D01*
X185650Y106729D02*
X188350D01*
X185650Y106639D02*
X188350D01*
X185650Y106549D02*
X188350D01*
X185650Y106459D02*
X188350D01*
X185650Y106369D02*
X188350D01*
X185650Y106279D02*
X188350D01*
X185650Y106189D02*
X188350D01*
X185650Y106099D02*
X188350D01*
X185650Y106009D02*
X188350D01*
X185650Y105919D02*
X188350D01*
X185650Y105829D02*
X188350D01*
X185650Y105739D02*
X188350D01*
X185650Y105649D02*
X188350D01*
X185650Y105559D02*
X188350D01*
X185650Y105469D02*
X188350D01*
X185650Y105379D02*
X188350D01*
X185650Y105289D02*
X188350D01*
X185650Y105199D02*
X188350D01*
X185650Y105109D02*
X188350D01*
X185650Y105019D02*
X188350D01*
X185650Y104929D02*
X188350D01*
X185650Y104839D02*
X188350D01*
X185650Y104749D02*
X188350D01*
X185650Y104659D02*
X188350D01*
X185650Y104569D02*
X188350D01*
X185650Y104479D02*
X188350D01*
X185650Y104389D02*
X188350D01*
X185650Y104299D02*
X188350D01*
X185650Y104209D02*
X188350D01*
X185650Y104119D02*
X188350D01*
X185650Y104029D02*
X188350D01*
X185650Y103939D02*
X188350D01*
X185650Y103849D02*
X188350D01*
X185650Y103759D02*
X188350D01*
X185650Y103669D02*
X188350D01*
X185650Y103579D02*
X188350D01*
X185650Y103489D02*
X188350D01*
X185650Y103399D02*
X188350D01*
X185650Y103309D02*
X188350D01*
X185650Y103219D02*
X188350D01*
X185650Y103129D02*
X188350D01*
X185650Y103039D02*
X188350D01*
X184329Y148129D02*
X187671D01*
X184344Y119869D02*
X187656D01*
X184382Y156139D02*
X187618D01*
X185895Y138139D02*
X187618D01*
X184382Y120139D02*
X187618D01*
X184427Y128149D02*
X187573D01*
X184479Y131839D02*
X187521D01*
X184516Y159829D02*
X187484D01*
X185892Y141829D02*
X187484D01*
X184516Y123829D02*
X187484D01*
X184541Y116179D02*
X187459D01*
X184550Y151819D02*
X187450D01*
X184661Y148219D02*
X187339D01*
X184668Y119779D02*
X187332D01*
X184687Y156229D02*
X187313D01*
X185886Y138229D02*
X187313D01*
X184687Y120229D02*
X187313D01*
X184713Y128239D02*
X187287D01*
X184743Y131749D02*
X187257D01*
X184766Y159739D02*
X187234D01*
X185882Y141739D02*
X187234D01*
X184766Y123739D02*
X187234D01*
X184783Y116269D02*
X187217D01*
X184788Y151729D02*
X187212D01*
X184866Y148309D02*
X187134D01*
X184871Y119689D02*
X187129D01*
X184885Y156319D02*
X187115D01*
X185873Y138319D02*
X187115D01*
X184885Y120319D02*
X187115D01*
X184904Y128329D02*
X187096D01*
X184927Y131659D02*
X187073D01*
X184944Y159649D02*
X187056D01*
X185867Y141649D02*
X187056D01*
X184944Y123649D02*
X187056D01*
X184957Y116359D02*
X187043D01*
X184962Y151639D02*
X187038D01*
X185023Y148399D02*
X186977D01*
X185027Y119599D02*
X186973D01*
X185038Y156409D02*
X186962D01*
X185856Y138409D02*
X186962D01*
X185038Y120409D02*
X186962D01*
X185053Y128419D02*
X186947D01*
X185072Y131569D02*
X186928D01*
X185087Y159559D02*
X186913D01*
X185848Y141559D02*
X186913D01*
X185087Y123559D02*
X186913D01*
X185097Y116449D02*
X186903D01*
X185101Y151549D02*
X186899D01*
X185152Y148489D02*
X186848D01*
X185155Y119509D02*
X186845D01*
X185165Y156499D02*
X186835D01*
X185833Y138499D02*
X186835D01*
X185165Y120499D02*
X186835D01*
X185177Y128509D02*
X186823D01*
X185193Y131479D02*
X186807D01*
X185205Y159469D02*
X186795D01*
X185824Y141469D02*
X186795D01*
X185205Y123469D02*
X186795D01*
X185214Y116539D02*
X186786D01*
X185218Y151459D02*
X186782D01*
X185261Y148579D02*
X186739D01*
X185264Y119419D02*
X186736D01*
X185272Y156589D02*
X186728D01*
X185807Y138589D02*
X186728D01*
X185272Y120589D02*
X186728D01*
X185283Y128599D02*
X186717D01*
X185297Y131389D02*
X186703D01*
X185307Y159379D02*
X186693D01*
X185796Y141379D02*
X186693D01*
X185307Y123379D02*
X186693D01*
X185315Y116629D02*
X186685D01*
X185318Y151369D02*
X186682D01*
X185356Y148669D02*
X186644D01*
X185358Y119329D02*
X186642D01*
X185365Y156679D02*
X186635D01*
X185775Y138679D02*
X186635D01*
X185365Y120679D02*
X186635D01*
X185375Y128689D02*
X186625D01*
X185387Y131299D02*
X186613D01*
X185396Y159289D02*
X186604D01*
X185762Y141289D02*
X186604D01*
X185396Y123289D02*
X186604D01*
X185403Y116719D02*
X186597D01*
X185405Y151279D02*
X186595D01*
X185438Y148759D02*
X186562D01*
X185441Y119239D02*
X186559D01*
X185447Y156769D02*
X186553D01*
X185738Y138769D02*
X186553D01*
X185447Y120769D02*
X186553D01*
X185455Y128779D02*
X186545D01*
X185466Y131209D02*
X186534D01*
X185474Y159199D02*
X186526D01*
X185723Y141199D02*
X186526D01*
X185474Y123199D02*
X186526D01*
X185480Y116809D02*
X186520D01*
X185482Y151189D02*
X186518D01*
X185511Y148849D02*
X186489D01*
X185513Y119149D02*
X186487D01*
X185519Y156859D02*
X186481D01*
X185695Y138859D02*
X186481D01*
X185519Y120859D02*
X186481D01*
X185527Y128869D02*
X186473D01*
X185536Y131119D02*
X186464D01*
X185543Y159109D02*
X186457D01*
X185678Y141109D02*
X186457D01*
X185543Y123109D02*
X186457D01*
X185548Y116899D02*
X186452D01*
X185550Y151099D02*
X186450D01*
X185576Y148939D02*
X186424D01*
X185578Y119059D02*
X186422D01*
X185583Y156949D02*
X186417D01*
X185646Y138949D02*
X186417D01*
X185583Y120949D02*
X186417D01*
X185589Y128959D02*
X186411D01*
X185597Y131029D02*
X186403D01*
X185604Y159019D02*
X186396D01*
X185627Y141019D02*
X186396D01*
X185604Y123019D02*
X186396D01*
X185609Y116989D02*
X186391D01*
X185610Y151009D02*
X186390D01*
X185633Y149029D02*
X186367D01*
X185635Y118969D02*
X186365D01*
X185639Y157039D02*
X186361D01*
X185591Y139039D02*
X186361D01*
X185639Y121039D02*
X186361D01*
X185645Y129049D02*
X186355D01*
X185652Y130939D02*
X186348D01*
X185658Y158929D02*
X186342D01*
X185569Y140929D02*
X186342D01*
X185658Y122929D02*
X186342D01*
X185662Y117079D02*
X186338D01*
X185663Y150919D02*
X186337D01*
X185683Y149119D02*
X186317D01*
X185685Y118879D02*
X186315D01*
X185688Y157129D02*
X186312D01*
X185528Y139129D02*
X186312D01*
X185688Y121129D02*
X186312D01*
X185694Y129139D02*
X186306D01*
X185700Y130849D02*
X186300D01*
X185705Y158839D02*
X186295D01*
X185504Y140839D02*
X186295D01*
X185705Y122839D02*
X186295D01*
X185709Y117169D02*
X186291D01*
X185710Y150829D02*
X186290D01*
X185727Y149209D02*
X186273D01*
X185729Y118789D02*
X186271D01*
X185732Y157219D02*
X186268D01*
X185458Y139219D02*
X186268D01*
X185732Y121219D02*
X186268D01*
X185736Y129229D02*
X186264D01*
X185742Y130759D02*
X186258D01*
X185746Y158749D02*
X186254D01*
X185430Y140749D02*
X186254D01*
X185746Y122749D02*
X186254D01*
X185749Y117259D02*
X186251D01*
X185751Y150739D02*
X186249D01*
X185766Y149299D02*
X186234D01*
X185767Y118699D02*
X186233D01*
X185770Y157309D02*
X186230D01*
X185377Y139309D02*
X186230D01*
X185770Y121309D02*
X186230D01*
X185774Y129319D02*
X186226D01*
X185778Y130669D02*
X186222D01*
X185782Y158659D02*
X186218D01*
X185346Y140659D02*
X186218D01*
X185782Y122659D02*
X186218D01*
X185785Y117349D02*
X186215D01*
X185786Y150649D02*
X186214D01*
X185799Y149389D02*
X186201D01*
X185800Y118609D02*
X186200D01*
X185802Y157399D02*
X186198D01*
X185286Y139399D02*
X186198D01*
X185802Y121399D02*
X186198D01*
X185806Y129409D02*
X186194D01*
X185810Y130579D02*
X186190D01*
X185813Y158569D02*
X186187D01*
X185250Y140569D02*
X186187D01*
X185813Y122569D02*
X186187D01*
X185815Y117439D02*
X186185D01*
X185816Y150559D02*
X186184D01*
X185827Y149479D02*
X186173D01*
X185828Y118519D02*
X186172D01*
X185830Y157489D02*
X186170D01*
X185181Y139489D02*
X186170D01*
X185830Y121489D02*
X186170D01*
X185833Y129499D02*
X186167D01*
X185836Y130489D02*
X186164D01*
X185839Y158479D02*
X186161D01*
X185138Y140479D02*
X186161D01*
X185839Y122479D02*
X186161D01*
X185841Y117529D02*
X186159D01*
X185841Y150469D02*
X186159D01*
X185850Y149569D02*
X186150D01*
X185851Y118429D02*
X186149D01*
X185853Y157579D02*
X186147D01*
X185057Y139579D02*
X186147D01*
X185853Y121579D02*
X186147D01*
X185855Y129589D02*
X186145D01*
X185858Y130399D02*
X186142D01*
X185860Y158389D02*
X186140D01*
X185007Y140389D02*
X186140D01*
X185860Y122389D02*
X186140D01*
X185861Y117619D02*
X186139D01*
X185862Y150379D02*
X186138D01*
X185869Y149659D02*
X186131D01*
X185870Y118339D02*
X186130D01*
X185871Y157669D02*
X186129D01*
X184909Y139669D02*
X186129D01*
X185871Y121669D02*
X186129D01*
X185873Y129679D02*
X186127D01*
X185875Y130309D02*
X186125D01*
X185876Y158299D02*
X186124D01*
X184846Y140299D02*
X186124D01*
X185876Y122299D02*
X186124D01*
X185878Y117709D02*
X186122D01*
X185878Y150289D02*
X186122D01*
X185883Y149749D02*
X186117D01*
X185884Y118249D02*
X186116D01*
X185885Y157759D02*
X186115D01*
X184719Y139759D02*
X186115D01*
X185885Y121759D02*
X186115D01*
X185886Y129769D02*
X186114D01*
X185887Y130219D02*
X186113D01*
X185889Y158209D02*
X186111D01*
X184633Y140209D02*
X186111D01*
X185889Y122209D02*
X186111D01*
X185889Y117799D02*
X186111D01*
X185890Y150199D02*
X186110D01*
X185893Y149839D02*
X186107D01*
X185893Y118159D02*
X186107D01*
X185894Y157849D02*
X186106D01*
X184439Y139849D02*
X186106D01*
X185894Y121849D02*
X186106D01*
X185895Y129859D02*
X186105D01*
X185896Y130129D02*
X186104D01*
X185896Y158119D02*
X186104D01*
X184266Y140119D02*
X186104D01*
X185896Y122119D02*
X186104D01*
X185897Y117889D02*
X186103D01*
X185897Y150109D02*
X186103D01*
X185899Y149929D02*
X186101D01*
X185899Y118069D02*
X186101D01*
X185899Y157939D02*
X186101D01*
X171493Y139939D02*
X186101D01*
X185899Y121939D02*
X186101D01*
X185899Y129949D02*
X186101D01*
X185900Y130039D02*
X186100D01*
X185900Y158029D02*
X186100D01*
X171499Y140029D02*
X186100D01*
X185900Y122029D02*
X186100D01*
X185900Y117979D02*
X186100D01*
X185900Y150019D02*
X186100D01*
X171457Y143899D02*
X183929D01*
X171400Y132109D02*
X183818D01*
X166578Y135889D02*
X183793D01*
X171500Y140119D02*
X183734D01*
X171285Y127879D02*
X183716D01*
X164528Y148129D02*
X183671D01*
X169792Y155869D02*
X183656D01*
X180344Y119869D02*
X183656D01*
X169865Y156139D02*
X183618D01*
X151895Y120139D02*
X183618D01*
X164695Y147859D02*
X183606D01*
X171113Y128149D02*
X183573D01*
X171483Y139849D02*
X183561D01*
X166516Y136159D02*
X183531D01*
X171470Y131839D02*
X183521D01*
X171495Y144169D02*
X183494D01*
X147637Y159829D02*
X183484D01*
X155892Y123829D02*
X183484D01*
X168890Y152179D02*
X183459D01*
X180541Y116179D02*
X183459D01*
X169368Y151819D02*
X183450D01*
X155891Y124189D02*
X183426D01*
X171435Y143809D02*
X183418D01*
X171367Y132199D02*
X183396D01*
X166590Y135799D02*
X183388D01*
X171497Y140209D02*
X183367D01*
X171329Y127789D02*
X183359D01*
X164458Y148219D02*
X183339D01*
X169758Y155779D02*
X183332D01*
X180668Y119779D02*
X183332D01*
X169881Y156229D02*
X183313D01*
X151886Y120229D02*
X183313D01*
X164738Y147769D02*
X183306D01*
X171041Y128239D02*
X183287D01*
X171469Y139759D02*
X183281D01*
X166486Y136249D02*
X183263D01*
X171484Y131749D02*
X183257D01*
X171500Y144259D02*
X183240D01*
X147727Y159739D02*
X183234D01*
X155882Y123739D02*
X183234D01*
X168694Y152269D02*
X183217D01*
X180783Y116269D02*
X183217D01*
X169449Y151729D02*
X183212D01*
X155879Y124279D02*
X183196D01*
X171409Y143719D02*
X183190D01*
X171329Y132289D02*
X183174D01*
X166597Y135709D02*
X183169D01*
X171490Y140299D02*
X183154D01*
X171367Y127699D02*
X183149D01*
X164377Y148309D02*
X183134D01*
X169718Y155689D02*
X183129D01*
X180871Y119689D02*
X183129D01*
X169891Y156319D02*
X183115D01*
X151873Y120319D02*
X183115D01*
X164775Y147679D02*
X183110D01*
X170958Y128329D02*
X183096D01*
X171450Y139669D02*
X183091D01*
X166451Y136339D02*
X183078D01*
X171493Y131659D02*
X183073D01*
X171499Y144349D02*
X183060D01*
X147817Y159649D02*
X183056D01*
X155867Y123649D02*
X183056D01*
X168394Y152359D02*
X183043D01*
X180957Y116359D02*
X183043D01*
X169521Y151639D02*
X183038D01*
X155864Y124369D02*
X183026D01*
X171377Y143629D02*
X183022D01*
X171285Y132379D02*
X183009D01*
X166600Y135619D02*
X183005D01*
X171478Y140389D02*
X182993D01*
X171400Y127609D02*
X182989D01*
X164286Y148399D02*
X182977D01*
X169673Y155599D02*
X182973D01*
X181027Y119599D02*
X182973D01*
X169898Y156409D02*
X182962D01*
X151856Y120409D02*
X182962D01*
X164807Y147589D02*
X182958D01*
X170864Y128419D02*
X182947D01*
X171427Y139579D02*
X182943D01*
X166410Y136429D02*
X182932D01*
X171499Y131569D02*
X182928D01*
X171495Y144439D02*
X182917D01*
X147907Y159559D02*
X182913D01*
X155848Y123559D02*
X182913D01*
X155017Y152449D02*
X182903D01*
X181097Y116449D02*
X182903D01*
X169584Y151549D02*
X182899D01*
X155844Y124459D02*
X182889D01*
X171341Y143539D02*
X182885D01*
X171235Y132469D02*
X182875D01*
X166599Y135529D02*
X182872D01*
X171462Y140479D02*
X182862D01*
X171428Y127519D02*
X182858D01*
X164181Y148489D02*
X182848D01*
X169621Y155509D02*
X182845D01*
X181155Y119509D02*
X182845D01*
X169900Y156499D02*
X182835D01*
X151833Y120499D02*
X182835D01*
X164833Y147499D02*
X182832D01*
X170755Y128509D02*
X182823D01*
X171399Y139489D02*
X182819D01*
X166363Y136519D02*
X182810D01*
X171500Y131479D02*
X182807D01*
X171486Y144529D02*
X182798D01*
X147997Y159469D02*
X182795D01*
X155824Y123469D02*
X182795D01*
X154927Y152539D02*
X182786D01*
X181214Y116539D02*
X182786D01*
X169640Y151459D02*
X182782D01*
X155819Y124549D02*
X182774D01*
X171299Y143449D02*
X182771D01*
X171178Y132559D02*
X182762D01*
X166593Y135439D02*
X182759D01*
X171441Y140569D02*
X182750D01*
X171451Y127429D02*
X182747D01*
X164057Y148579D02*
X182739D01*
X169562Y155419D02*
X182736D01*
X181264Y119419D02*
X182736D01*
X169898Y156589D02*
X182728D01*
X151807Y120589D02*
X182728D01*
X164856Y147409D02*
X182725D01*
X170627Y128599D02*
X182717D01*
X171366Y139399D02*
X182714D01*
X166310Y136609D02*
X182706D01*
X171497Y131389D02*
X182703D01*
X171473Y144619D02*
X182695D01*
X148087Y159379D02*
X182693D01*
X155796Y123379D02*
X182693D01*
X154837Y152629D02*
X182685D01*
X181315Y116629D02*
X182685D01*
X169690Y151369D02*
X182682D01*
X155789Y124639D02*
X182675D01*
X171250Y143359D02*
X182672D01*
X171113Y132649D02*
X182664D01*
X166583Y135349D02*
X182662D01*
X171416Y140659D02*
X182654D01*
X171470Y127339D02*
X182652D01*
X168506Y148669D02*
X182644D01*
X169496Y155329D02*
X182642D01*
X181358Y119329D02*
X182642D01*
X169892Y156679D02*
X182635D01*
X151775Y120679D02*
X182635D01*
X164873Y147319D02*
X182632D01*
X170471Y128689D02*
X182625D01*
X171327Y139309D02*
X182623D01*
X166250Y136699D02*
X182616D01*
X171489Y131299D02*
X182613D01*
X171456Y144709D02*
X182606D01*
X148177Y159289D02*
X182604D01*
X155762Y123289D02*
X182604D01*
X154747Y152719D02*
X182597D01*
X181403Y116719D02*
X182597D01*
X169733Y151279D02*
X182595D01*
X155755Y124729D02*
X182588D01*
X171196Y143269D02*
X182586D01*
X171041Y132739D02*
X182579D01*
X166569Y135259D02*
X182577D01*
X171386Y140749D02*
X182570D01*
X171484Y127249D02*
X182568D01*
X168760Y148759D02*
X182562D01*
X169421Y155239D02*
X182559D01*
X181441Y119239D02*
X182559D01*
X169881Y156769D02*
X182553D01*
X151738Y120769D02*
X182553D01*
X164886Y147229D02*
X182551D01*
X170268Y128779D02*
X182545D01*
X171283Y139219D02*
X182542D01*
X166182Y136789D02*
X182536D01*
X171478Y131209D02*
X182534D01*
X171433Y144799D02*
X182528D01*
X148267Y159199D02*
X182526D01*
X155723Y123199D02*
X182526D01*
X154657Y152809D02*
X182520D01*
X181480Y116809D02*
X182520D01*
X169771Y151189D02*
X182518D01*
X155715Y124819D02*
X182512D01*
X171134Y143179D02*
X182510D01*
X170958Y132829D02*
X182504D01*
X166550Y135169D02*
X182502D01*
X171351Y140839D02*
X182496D01*
X171493Y127159D02*
X182494D01*
X168940Y148849D02*
X182489D01*
X169336Y155149D02*
X182487D01*
X181513Y119149D02*
X182487D01*
X169866Y156859D02*
X182481D01*
X151695Y120859D02*
X182481D01*
X164895Y147139D02*
X182479D01*
X169944Y128869D02*
X182473D01*
X171233Y139129D02*
X182472D01*
X166105Y136879D02*
X182466D01*
X171461Y131119D02*
X182464D01*
X171407Y144889D02*
X182459D01*
X148357Y159109D02*
X182457D01*
X155678Y123109D02*
X182457D01*
X154567Y152899D02*
X182452D01*
X181548Y116899D02*
X182452D01*
X169803Y151099D02*
X182450D01*
X155669Y124909D02*
X182445D01*
X171064Y143089D02*
X182443D01*
X170864Y132919D02*
X182438D01*
X166527Y135079D02*
X182436D01*
X171310Y140929D02*
X182431D01*
X171499Y127069D02*
X182429D01*
X169083Y148939D02*
X182424D01*
X169238Y155059D02*
X182422D01*
X181578Y119059D02*
X182422D01*
X169846Y156949D02*
X182417D01*
X151646Y120949D02*
X182417D01*
X164899Y147049D02*
X182416D01*
X159640Y128959D02*
X182411D01*
X171176Y139039D02*
X182409D01*
X166018Y136969D02*
X182404D01*
X171441Y131029D02*
X182403D01*
X171375Y144979D02*
X182398D01*
X148447Y159019D02*
X182396D01*
X155627Y123019D02*
X182396D01*
X154477Y152989D02*
X182391D01*
X181609Y116989D02*
X182391D01*
X169831Y151009D02*
X182390D01*
X155616Y124999D02*
X182385D01*
X170984Y142999D02*
X182384D01*
X170755Y133009D02*
X182379D01*
X166499Y134989D02*
X182377D01*
X171263Y141019D02*
X182373D01*
X171500Y126979D02*
X182371D01*
X169202Y149029D02*
X182367D01*
X169125Y154969D02*
X182365D01*
X181635Y118969D02*
X182365D01*
X169822Y157039D02*
X182361D01*
X151591Y121039D02*
X182361D01*
X164900Y146959D02*
X182360D01*
X159584Y129049D02*
X182355D01*
X171111Y138949D02*
X182354D01*
X165918Y137059D02*
X182350D01*
X171415Y130939D02*
X182348D01*
X171338Y145069D02*
X182344D01*
X148537Y158929D02*
X182342D01*
X155569Y122929D02*
X182342D01*
X154387Y153079D02*
X182338D01*
X181662Y117079D02*
X182338D01*
X169853Y150919D02*
X182337D01*
X155557Y125089D02*
X182333D01*
X170894Y142909D02*
X182331D01*
X170627Y133099D02*
X182327D01*
X166466Y134899D02*
X182326D01*
X171210Y141109D02*
X182322D01*
X171497Y126889D02*
X182321D01*
X169305Y149119D02*
X182317D01*
X168991Y154879D02*
X182315D01*
X181685Y118879D02*
X182315D01*
X169793Y157129D02*
X182312D01*
X151528Y121129D02*
X182312D01*
X164895Y146869D02*
X182310D01*
X159521Y129139D02*
X182306D01*
X171038Y138859D02*
X182305D01*
X165801Y137149D02*
X182301D01*
X171385Y130849D02*
X182300D01*
X171295Y145159D02*
X182296D01*
X148627Y158839D02*
X182295D01*
X155504Y122839D02*
X182295D01*
X154297Y153169D02*
X182291D01*
X181709Y117169D02*
X182291D01*
X169871Y150829D02*
X182290D01*
X170141Y125179D02*
X182287D01*
X170790Y142819D02*
X182285D01*
X170471Y133189D02*
X182282D01*
X166427Y134809D02*
X182281D01*
X171150Y141199D02*
X182277D01*
X171489Y126799D02*
X182276D01*
X169394Y149209D02*
X182273D01*
X168826Y154789D02*
X182271D01*
X181729Y118789D02*
X182271D01*
X169759Y157219D02*
X182268D01*
X151458Y121219D02*
X182268D01*
X164887Y146779D02*
X182267D01*
X159449Y129229D02*
X182264D01*
X170956Y138769D02*
X182262D01*
X165662Y137239D02*
X182259D01*
X171349Y130759D02*
X182258D01*
X171246Y145249D02*
X182255D01*
X148717Y158749D02*
X182254D01*
X155430Y122749D02*
X182254D01*
X154207Y153259D02*
X182251D01*
X181749Y117259D02*
X182251D01*
X169885Y150739D02*
X182249D01*
X170383Y125269D02*
X182246D01*
X170668Y142729D02*
X182245D01*
X170268Y133279D02*
X182242D01*
X166383Y134719D02*
X182241D01*
X171082Y141289D02*
X182238D01*
X171478Y126709D02*
X182237D01*
X169472Y149299D02*
X182234D01*
X168604Y154699D02*
X182233D01*
X181767Y118699D02*
X182233D01*
X169719Y157309D02*
X182230D01*
X151377Y121309D02*
X182230D01*
X164874Y146689D02*
X182229D01*
X159368Y129319D02*
X182226D01*
X170861Y138679D02*
X182225D01*
X165488Y137329D02*
X182223D01*
X171309Y130669D02*
X182222D01*
X171191Y145339D02*
X182219D01*
X148807Y158659D02*
X182218D01*
X155346Y122659D02*
X182218D01*
X154117Y153349D02*
X182215D01*
X181785Y117349D02*
X182215D01*
X169894Y150649D02*
X182214D01*
X170557Y125359D02*
X182211D01*
X170522Y142639D02*
X182211D01*
X169944Y133369D02*
X182208D01*
X166333Y134629D02*
X182207D01*
X171005Y141379D02*
X182204D01*
X171461Y126619D02*
X182204D01*
X169541Y149389D02*
X182201D01*
X168182Y154609D02*
X182200D01*
X181800Y118609D02*
X182200D01*
X169674Y157399D02*
X182198D01*
X151286Y121399D02*
X182198D01*
X164857Y146599D02*
X182197D01*
X159275Y129409D02*
X182194D01*
X170752Y138589D02*
X182193D01*
X165250Y137419D02*
X182191D01*
X171262Y130579D02*
X182190D01*
X171128Y145429D02*
X182188D01*
X148897Y158569D02*
X182187D01*
X155250Y122569D02*
X182187D01*
X154027Y153439D02*
X182185D01*
X181815Y117439D02*
X182185D01*
X169899Y150559D02*
X182184D01*
X170697Y125449D02*
X182182D01*
X170337Y142549D02*
X182181D01*
X163218Y133459D02*
X182179D01*
X166276Y134539D02*
X182178D01*
X170918Y141469D02*
X182176D01*
X171441Y126529D02*
X182175D01*
X169602Y149479D02*
X182173D01*
X152947Y154519D02*
X182172D01*
X181828Y118519D02*
X182172D01*
X169623Y157489D02*
X182170D01*
X151181Y121489D02*
X182170D01*
X164835Y146509D02*
X182169D01*
X159168Y129499D02*
X182167D01*
X170623Y138499D02*
X182167D01*
X164379Y137509D02*
X182165D01*
X171209Y130489D02*
X182164D01*
X171058Y145519D02*
X182162D01*
X148987Y158479D02*
X182161D01*
X155138Y122479D02*
X182161D01*
X153937Y153529D02*
X182159D01*
X181841Y117529D02*
X182159D01*
X169900Y150469D02*
X182159D01*
X170814Y125539D02*
X182157D01*
X170069Y142459D02*
X182156D01*
X163101Y133549D02*
X182154D01*
X166211Y134449D02*
X182154D01*
X170818Y141559D02*
X182152D01*
X171415Y126439D02*
X182151D01*
X169656Y149569D02*
X182150D01*
X153037Y154429D02*
X182149D01*
X181851Y118429D02*
X182149D01*
X169564Y157579D02*
X182147D01*
X151057Y121579D02*
X182147D01*
X164809Y146419D02*
X182147D01*
X159042Y129589D02*
X182145D01*
X170466Y138409D02*
X182144D01*
X164469Y137599D02*
X182143D01*
X171148Y130399D02*
X182142D01*
X170977Y145609D02*
X182141D01*
X168207Y158389D02*
X182140D01*
X155007Y122389D02*
X182140D01*
X153847Y153619D02*
X182139D01*
X181861Y117619D02*
X182139D01*
X169896Y150379D02*
X182138D01*
X170915Y125629D02*
X182137D01*
X166974Y142369D02*
X182136D01*
X162962Y133639D02*
X182135D01*
X166138Y134359D02*
X182134D01*
X170701Y141649D02*
X182133D01*
X171385Y126349D02*
X182132D01*
X169704Y149659D02*
X182131D01*
X153127Y154339D02*
X182130D01*
X181870Y118339D02*
X182130D01*
X169498Y157669D02*
X182129D01*
X150909Y121669D02*
X182129D01*
X164777Y146329D02*
X182129D01*
X170141Y129679D02*
X182127D01*
X170261Y138319D02*
X182127D01*
X164559Y137689D02*
X182126D01*
X171080Y130309D02*
X182125D01*
X170886Y145699D02*
X182124D01*
X168612Y158299D02*
X182124D01*
X154846Y122299D02*
X182124D01*
X153757Y153709D02*
X182122D01*
X181878Y117709D02*
X182122D01*
X169888Y150289D02*
X182122D01*
X171003Y125719D02*
X182121D01*
X166804Y142279D02*
X182121D01*
X165029Y133729D02*
X182119D01*
X166056Y134269D02*
X182119D01*
X170562Y141739D02*
X182118D01*
X171349Y126259D02*
X182118D01*
X169745Y149749D02*
X182117D01*
X153217Y154249D02*
X182116D01*
X181884Y118249D02*
X182116D01*
X169423Y157759D02*
X182115D01*
X150719Y121759D02*
X182115D01*
X164741Y146239D02*
X182115D01*
X170383Y129769D02*
X182114D01*
X169929Y138229D02*
X182114D01*
X164649Y137779D02*
X182113D01*
X171003Y130219D02*
X182113D01*
X170781Y145789D02*
X182112D01*
X168831Y158209D02*
X182111D01*
X154633Y122209D02*
X182111D01*
X153667Y153799D02*
X182111D01*
X181889Y117799D02*
X182111D01*
X169876Y150199D02*
X182110D01*
X171080Y125809D02*
X182110D01*
X166574Y142189D02*
X182109D01*
X165361Y133819D02*
X182109D01*
X165961Y134179D02*
X182108D01*
X170388Y141829D02*
X182108D01*
X171309Y126169D02*
X182107D01*
X169781Y149839D02*
X182107D01*
X153307Y154159D02*
X182107D01*
X181893Y118159D02*
X182107D01*
X169338Y157849D02*
X182106D01*
X150439Y121849D02*
X182106D01*
X170039Y146149D02*
X182106D01*
X170557Y129859D02*
X182105D01*
X165009Y138139D02*
X182105D01*
X164739Y137869D02*
X182105D01*
X170915Y130129D02*
X182104D01*
X170657Y145879D02*
X182104D01*
X168995Y158119D02*
X182104D01*
X154266Y122119D02*
X182104D01*
X153577Y153889D02*
X182103D01*
X181897Y117889D02*
X182103D01*
X169859Y150109D02*
X182103D01*
X171148Y125899D02*
X182103D01*
X165367Y142099D02*
X182103D01*
X165566Y133909D02*
X182102D01*
X165852Y134089D02*
X182102D01*
X170150Y141919D02*
X182102D01*
X171262Y126079D02*
X182102D01*
X169812Y149929D02*
X182101D01*
X153397Y154069D02*
X182101D01*
X181899Y118069D02*
X182101D01*
X169241Y157939D02*
X182101D01*
X148809Y121939D02*
X182101D01*
X170319Y146059D02*
X182101D01*
X170697Y129949D02*
X182101D01*
X164919Y138049D02*
X182101D01*
X164829Y137959D02*
X182100D01*
X170814Y130039D02*
X182100D01*
X170509Y145969D02*
X182100D01*
X169128Y158029D02*
X182100D01*
X148899Y122029D02*
X182100D01*
X153487Y153979D02*
X182100D01*
X181900Y117979D02*
X182100D01*
X169838Y150019D02*
X182100D01*
X171209Y125989D02*
X182100D01*
X165457Y142009D02*
X182100D01*
X165723Y133999D02*
X182100D01*
X176344Y119869D02*
X179656D01*
X176541Y116179D02*
X179459D01*
X176668Y119779D02*
X179332D01*
X176783Y116269D02*
X179217D01*
X176871Y119689D02*
X179129D01*
X176957Y116359D02*
X179043D01*
X177027Y119599D02*
X178973D01*
X177097Y116449D02*
X178903D01*
X177155Y119509D02*
X178845D01*
X177214Y116539D02*
X178786D01*
X175228Y109609D02*
X178772D01*
X177264Y119419D02*
X178736D01*
X175270Y102409D02*
X178730D01*
X177315Y116629D02*
X178685D01*
X177358Y119329D02*
X178642D01*
X175392Y109519D02*
X178608D01*
X177403Y116719D02*
X178597D01*
X175414Y102499D02*
X178586D01*
X177441Y119239D02*
X178559D01*
X177480Y116809D02*
X178520D01*
X175489Y109429D02*
X178511D01*
X175503Y102589D02*
X178497D01*
X177513Y119149D02*
X178487D01*
X177548Y116899D02*
X178452D01*
X175555Y109339D02*
X178445D01*
X175565Y102679D02*
X178435D01*
X177578Y119059D02*
X178422D01*
X175601Y109249D02*
X178399D01*
X175607Y102769D02*
X178393D01*
X177609Y116989D02*
X178391D01*
X175630Y109159D02*
X178370D01*
X175634Y102859D02*
X178366D01*
X177635Y118969D02*
X178365D01*
X175646Y109069D02*
X178354D01*
X175648Y102949D02*
X178352D01*
X175650Y108979D02*
X178350D01*
X175650Y108889D02*
X178350D01*
X175650Y108799D02*
X178350D01*
X175650Y108709D02*
X178350D01*
X175650Y108619D02*
X178350D01*
X175650Y108529D02*
X178350D01*
X175650Y108439D02*
X178350D01*
X175650Y108349D02*
X178350D01*
X175650Y108259D02*
X178350D01*
X175650Y108169D02*
X178350D01*
X175650Y108079D02*
X178350D01*
X175650Y107989D02*
X178350D01*
X175650Y107899D02*
X178350D01*
X175650Y107809D02*
X178350D01*
X175650Y107719D02*
X178350D01*
X175650Y107629D02*
X178350D01*
X175650Y107539D02*
X178350D01*
X175650Y107449D02*
X178350D01*
X175650Y107359D02*
X178350D01*
X175650Y107269D02*
X178350D01*
X175650Y107179D02*
X178350D01*
X175650Y107089D02*
X178350D01*
X175650Y106999D02*
X178350D01*
X175650Y106909D02*
X178350D01*
X175650Y106819D02*
X178350D01*
X175650Y106729D02*
X178350D01*
X175650Y106639D02*
X178350D01*
X175650Y106549D02*
X178350D01*
X175650Y106459D02*
X178350D01*
X175650Y106369D02*
X178350D01*
X175650Y106279D02*
X178350D01*
X175650Y106189D02*
X178350D01*
X175650Y106099D02*
X178350D01*
X175650Y106009D02*
X178350D01*
X175650Y105919D02*
X178350D01*
X175650Y105829D02*
X178350D01*
X175650Y105739D02*
X178350D01*
X175650Y105649D02*
X178350D01*
X175650Y105559D02*
X178350D01*
X175650Y105469D02*
X178350D01*
X175650Y105379D02*
X178350D01*
X175650Y105289D02*
X178350D01*
X175650Y105199D02*
X178350D01*
X175650Y105109D02*
X178350D01*
X175650Y105019D02*
X178350D01*
X175650Y104929D02*
X178350D01*
X175650Y104839D02*
X178350D01*
X175650Y104749D02*
X178350D01*
X175650Y104659D02*
X178350D01*
X175650Y104569D02*
X178350D01*
X175650Y104479D02*
X178350D01*
X175650Y104389D02*
X178350D01*
X175650Y104299D02*
X178350D01*
X175650Y104209D02*
X178350D01*
X175650Y104119D02*
X178350D01*
X175650Y104029D02*
X178350D01*
X175650Y103939D02*
X178350D01*
X175650Y103849D02*
X178350D01*
X175650Y103759D02*
X178350D01*
X175650Y103669D02*
X178350D01*
X175650Y103579D02*
X178350D01*
X175650Y103489D02*
X178350D01*
X175650Y103399D02*
X178350D01*
X175650Y103309D02*
X178350D01*
X175650Y103219D02*
X178350D01*
X175650Y103129D02*
X178350D01*
X175650Y103039D02*
X178350D01*
X177662Y117079D02*
X178338D01*
X177685Y118879D02*
X178315D01*
X177709Y117169D02*
X178291D01*
X177729Y118789D02*
X178271D01*
X177749Y117259D02*
X178251D01*
X177767Y118699D02*
X178233D01*
X177785Y117349D02*
X178215D01*
X177800Y118609D02*
X178200D01*
X177815Y117439D02*
X178185D01*
X177828Y118519D02*
X178172D01*
X177841Y117529D02*
X178159D01*
X177851Y118429D02*
X178149D01*
X177861Y117619D02*
X178139D01*
X177870Y118339D02*
X178130D01*
X177878Y117709D02*
X178122D01*
X177884Y118249D02*
X178116D01*
X177889Y117799D02*
X178111D01*
X177893Y118159D02*
X178107D01*
X177897Y117889D02*
X178103D01*
X177899Y118069D02*
X178101D01*
X177900Y117979D02*
X178100D01*
X151895Y119869D02*
X175656D01*
X161355Y116179D02*
X175459D01*
X151887Y119779D02*
X175332D01*
X161427Y116269D02*
X175217D01*
X151874Y119689D02*
X175129D01*
X161489Y116359D02*
X175043D01*
X151857Y119599D02*
X174973D01*
X161545Y116449D02*
X174903D01*
X151835Y119509D02*
X174845D01*
X161594Y116539D02*
X174786D01*
X151809Y119419D02*
X174736D01*
X161636Y116629D02*
X174685D01*
X151777Y119329D02*
X174642D01*
X161674Y116719D02*
X174597D01*
X160379Y119239D02*
X174559D01*
X161706Y116809D02*
X174520D01*
X160643Y119149D02*
X174487D01*
X161733Y116899D02*
X174452D01*
X160827Y119059D02*
X174422D01*
X161755Y116989D02*
X174391D01*
X160972Y118969D02*
X174365D01*
X161773Y117079D02*
X174338D01*
X161093Y118879D02*
X174315D01*
X161786Y117169D02*
X174291D01*
X161197Y118789D02*
X174271D01*
X161795Y117259D02*
X174251D01*
X161287Y118699D02*
X174233D01*
X161799Y117349D02*
X174215D01*
X161366Y118609D02*
X174200D01*
X161800Y117439D02*
X174185D01*
X161436Y118519D02*
X174172D01*
X161796Y117529D02*
X174159D01*
X161497Y118429D02*
X174149D01*
X161787Y117619D02*
X174139D01*
X161552Y118339D02*
X174130D01*
X161775Y117709D02*
X174122D01*
X161600Y118249D02*
X174116D01*
X161758Y117799D02*
X174111D01*
X161642Y118159D02*
X174107D01*
X161736Y117889D02*
X174103D01*
X161678Y118069D02*
X174101D01*
X161710Y117979D02*
X174100D01*
X165099Y138229D02*
X169271D01*
X163318Y133369D02*
X169256D01*
X159690Y128869D02*
X169256D01*
X164699Y146149D02*
X169161D01*
X167111Y142459D02*
X169131D01*
X158890Y129679D02*
X169059D01*
X155490Y125179D02*
X169059D01*
X165547Y141919D02*
X169050D01*
X165189Y138319D02*
X168939D01*
X163405Y133279D02*
X168932D01*
X159733Y128779D02*
X168932D01*
X164650Y146059D02*
X168881D01*
X167226Y142549D02*
X168863D01*
X158694Y129769D02*
X168817D01*
X155414Y125269D02*
X168817D01*
X165637Y141829D02*
X168812D01*
X155228Y109609D02*
X168772D01*
X165279Y138409D02*
X168734D01*
X155270Y102409D02*
X168730D01*
X163482Y133189D02*
X168729D01*
X159771Y128689D02*
X168729D01*
X164596Y145969D02*
X168691D01*
X167325Y142639D02*
X168678D01*
X158394Y129859D02*
X168643D01*
X155328Y125359D02*
X168643D01*
X165727Y141739D02*
X168638D01*
X155392Y109519D02*
X168608D01*
X155414Y102499D02*
X168586D01*
X165369Y138499D02*
X168577D01*
X163550Y133099D02*
X168573D01*
X159803Y128599D02*
X168573D01*
X166284Y145879D02*
X168543D01*
X167412Y142729D02*
X168532D01*
X155489Y109429D02*
X168511D01*
X156819Y129949D02*
X168503D01*
X155229Y125449D02*
X168503D01*
X165817Y141649D02*
X168499D01*
X155503Y102589D02*
X168497D01*
X165459Y138589D02*
X168448D01*
X155555Y109339D02*
X168445D01*
X163610Y133009D02*
X168445D01*
X159831Y128509D02*
X168445D01*
X155565Y102679D02*
X168435D01*
X166641Y145789D02*
X168419D01*
X167488Y142819D02*
X168410D01*
X155601Y109249D02*
X168399D01*
X155607Y102769D02*
X168393D01*
X156909Y130039D02*
X168386D01*
X155115Y125539D02*
X168386D01*
X165907Y141559D02*
X168382D01*
X155630Y109159D02*
X168370D01*
X155634Y102859D02*
X168366D01*
X155646Y109069D02*
X168354D01*
X155648Y102949D02*
X168352D01*
X155650Y108979D02*
X168350D01*
X155650Y108889D02*
X168350D01*
X155650Y108799D02*
X168350D01*
X155650Y108709D02*
X168350D01*
X155650Y108619D02*
X168350D01*
X155650Y108529D02*
X168350D01*
X155650Y108439D02*
X168350D01*
X155650Y108349D02*
X168350D01*
X155650Y108259D02*
X168350D01*
X155650Y108169D02*
X168350D01*
X155650Y108079D02*
X168350D01*
X155650Y107989D02*
X168350D01*
X155650Y107899D02*
X168350D01*
X155650Y107809D02*
X168350D01*
X155650Y107719D02*
X168350D01*
X155650Y107629D02*
X168350D01*
X155650Y107539D02*
X168350D01*
X155650Y107449D02*
X168350D01*
X155650Y107359D02*
X168350D01*
X155650Y107269D02*
X168350D01*
X155650Y107179D02*
X168350D01*
X155650Y107089D02*
X168350D01*
X155650Y106999D02*
X168350D01*
X155650Y106909D02*
X168350D01*
X155650Y106819D02*
X168350D01*
X155650Y106729D02*
X168350D01*
X155650Y106639D02*
X168350D01*
X155650Y106549D02*
X168350D01*
X155650Y106459D02*
X168350D01*
X155650Y106369D02*
X168350D01*
X155650Y106279D02*
X168350D01*
X155650Y106189D02*
X168350D01*
X155650Y106099D02*
X168350D01*
X155650Y106009D02*
X168350D01*
X155650Y105919D02*
X168350D01*
X155650Y105829D02*
X168350D01*
X155650Y105739D02*
X168350D01*
X155650Y105649D02*
X168350D01*
X155650Y105559D02*
X168350D01*
X155650Y105469D02*
X168350D01*
X155650Y105379D02*
X168350D01*
X155650Y105289D02*
X168350D01*
X155650Y105199D02*
X168350D01*
X155650Y105109D02*
X168350D01*
X155650Y105019D02*
X168350D01*
X155650Y104929D02*
X168350D01*
X155650Y104839D02*
X168350D01*
X155650Y104749D02*
X168350D01*
X155650Y104659D02*
X168350D01*
X155650Y104569D02*
X168350D01*
X155650Y104479D02*
X168350D01*
X155650Y104389D02*
X168350D01*
X155650Y104299D02*
X168350D01*
X155650Y104209D02*
X168350D01*
X155650Y104119D02*
X168350D01*
X155650Y104029D02*
X168350D01*
X155650Y103939D02*
X168350D01*
X155650Y103849D02*
X168350D01*
X155650Y103759D02*
X168350D01*
X155650Y103669D02*
X168350D01*
X155650Y103579D02*
X168350D01*
X155650Y103489D02*
X168350D01*
X155650Y103399D02*
X168350D01*
X155650Y103309D02*
X168350D01*
X155650Y103219D02*
X168350D01*
X155650Y103129D02*
X168350D01*
X155650Y103039D02*
X168350D01*
X165549Y138679D02*
X168339D01*
X163663Y132919D02*
X168336D01*
X159853Y128419D02*
X168336D01*
X166851Y145699D02*
X168314D01*
X167555Y142909D02*
X168306D01*
X162329Y130129D02*
X168285D01*
X154978Y125629D02*
X168285D01*
X165997Y141469D02*
X168282D01*
X165639Y138769D02*
X168244D01*
X163710Y132829D02*
X168242D01*
X159871Y128329D02*
X168242D01*
X167011Y145609D02*
X168223D01*
X167615Y142999D02*
X168216D01*
X162661Y130219D02*
X168197D01*
X154810Y125719D02*
X168197D01*
X166087Y141379D02*
X168195D01*
X165729Y138859D02*
X168162D01*
X163751Y132739D02*
X168159D01*
X159885Y128239D02*
X168159D01*
X167142Y145519D02*
X168142D01*
X167667Y143089D02*
X168136D01*
X162866Y130309D02*
X168120D01*
X154582Y125809D02*
X168120D01*
X166177Y141289D02*
X168118D01*
X165819Y138949D02*
X168089D01*
X163786Y132649D02*
X168087D01*
X159894Y128149D02*
X168087D01*
X167253Y145429D02*
X168072D01*
X167713Y143179D02*
X168066D01*
X163023Y130399D02*
X168052D01*
X154071Y125899D02*
X168052D01*
X166267Y141199D02*
X168050D01*
X165909Y139039D02*
X168024D01*
X163816Y132559D02*
X168022D01*
X159899Y128059D02*
X168022D01*
X167348Y145339D02*
X168009D01*
X167754Y143269D02*
X168004D01*
X163152Y130489D02*
X167991D01*
X152859Y125989D02*
X167991D01*
X166357Y141109D02*
X167990D01*
X165999Y139129D02*
X167967D01*
X163841Y132469D02*
X167965D01*
X159900Y127969D02*
X167965D01*
X167432Y145249D02*
X167954D01*
X167789Y143359D02*
X167950D01*
X163261Y130579D02*
X167938D01*
X152949Y126079D02*
X167938D01*
X166447Y141019D02*
X167937D01*
X166089Y139219D02*
X167917D01*
X163862Y132379D02*
X167915D01*
X159896Y127879D02*
X167915D01*
X167506Y145159D02*
X167905D01*
X167818Y143449D02*
X167901D01*
X163356Y130669D02*
X167891D01*
X158506Y126169D02*
X167891D01*
X166537Y140929D02*
X167890D01*
X166179Y139309D02*
X167873D01*
X163878Y132289D02*
X167871D01*
X159888Y127789D02*
X167871D01*
X167571Y145069D02*
X167862D01*
X167843Y143539D02*
X167859D01*
X163438Y130759D02*
X167851D01*
X158760Y126259D02*
X167851D01*
X166627Y140839D02*
X167849D01*
X166269Y139399D02*
X167834D01*
X163890Y132199D02*
X167833D01*
X159876Y127699D02*
X167833D01*
X167629Y144979D02*
X167825D01*
X163182Y154609D02*
X167818D01*
X163511Y130849D02*
X167815D01*
X158940Y126349D02*
X167815D01*
X166717Y140749D02*
X167814D01*
X166359Y139489D02*
X167801D01*
X163897Y132109D02*
X167800D01*
X159859Y127609D02*
X167800D01*
X167679Y144889D02*
X167793D01*
X163207Y158389D02*
X167793D01*
X163576Y130939D02*
X167785D01*
X159083Y126439D02*
X167785D01*
X166807Y140659D02*
X167784D01*
X166449Y139579D02*
X167773D01*
X163900Y132019D02*
X167772D01*
X159838Y127519D02*
X167772D01*
X167724Y144799D02*
X167767D01*
X163633Y131029D02*
X167759D01*
X159202Y126529D02*
X167759D01*
X166897Y140569D02*
X167759D01*
X166539Y139669D02*
X167750D01*
X163899Y131929D02*
X167749D01*
X159812Y127429D02*
X167749D01*
X163683Y131119D02*
X167739D01*
X159305Y126619D02*
X167739D01*
X166987Y140479D02*
X167738D01*
X166629Y139759D02*
X167731D01*
X163893Y131839D02*
X167730D01*
X159781Y127339D02*
X167730D01*
X163727Y131209D02*
X167722D01*
X159394Y126709D02*
X167722D01*
X167077Y140389D02*
X167722D01*
X166719Y139849D02*
X167717D01*
X163883Y131749D02*
X167716D01*
X159745Y127249D02*
X167716D01*
X163766Y131299D02*
X167711D01*
X159472Y126799D02*
X167711D01*
X167147Y140299D02*
X167710D01*
X166809Y139939D02*
X167707D01*
X163869Y131659D02*
X167707D01*
X159704Y127159D02*
X167707D01*
X163799Y131389D02*
X167703D01*
X159541Y126889D02*
X167703D01*
X167079Y140209D02*
X167703D01*
X166899Y140029D02*
X167701D01*
X163850Y131569D02*
X167701D01*
X159656Y127069D02*
X167701D01*
X163827Y131479D02*
X167700D01*
X159602Y126979D02*
X167700D01*
X166989Y140119D02*
X167700D01*
X163394Y152359D02*
X167606D01*
X163909Y148669D02*
X167494D01*
X163604Y154699D02*
X167396D01*
X163612Y158299D02*
X167388D01*
X163694Y152269D02*
X167306D01*
X163760Y148759D02*
X167240D01*
X163826Y154789D02*
X167174D01*
X163831Y158209D02*
X167169D01*
X163890Y152179D02*
X167110D01*
X163940Y148849D02*
X167060D01*
X163991Y154879D02*
X167009D01*
X163995Y158119D02*
X167005D01*
X164042Y152089D02*
X166958D01*
X164083Y148939D02*
X166917D01*
X164125Y154969D02*
X166875D01*
X164128Y158029D02*
X166872D01*
X164168Y151999D02*
X166832D01*
X164202Y149029D02*
X166798D01*
X164238Y155059D02*
X166762D01*
X164241Y157939D02*
X166759D01*
X164275Y151909D02*
X166725D01*
X164305Y149119D02*
X166695D01*
X164336Y155149D02*
X166664D01*
X164338Y157849D02*
X166662D01*
X164368Y151819D02*
X166632D01*
X164394Y149209D02*
X166606D01*
X164421Y155239D02*
X166579D01*
X164423Y157759D02*
X166577D01*
X164449Y151729D02*
X166551D01*
X164472Y149299D02*
X166528D01*
X164496Y155329D02*
X166504D01*
X164498Y157669D02*
X166502D01*
X164521Y151639D02*
X166479D01*
X164541Y149389D02*
X166459D01*
X164562Y155419D02*
X166438D01*
X164564Y157579D02*
X166436D01*
X164584Y151549D02*
X166416D01*
X164602Y149479D02*
X166398D01*
X164621Y155509D02*
X166379D01*
X164623Y157489D02*
X166377D01*
X164640Y151459D02*
X166360D01*
X164656Y149569D02*
X166344D01*
X164673Y155599D02*
X166327D01*
X164674Y157399D02*
X166326D01*
X164690Y151369D02*
X166310D01*
X164704Y149659D02*
X166296D01*
X164718Y155689D02*
X166282D01*
X164719Y157309D02*
X166281D01*
X164733Y151279D02*
X166267D01*
X164745Y149749D02*
X166255D01*
X164758Y155779D02*
X166242D01*
X164759Y157219D02*
X166241D01*
X164771Y151189D02*
X166229D01*
X164781Y149839D02*
X166219D01*
X164792Y155869D02*
X166208D01*
X164793Y157129D02*
X166207D01*
X164803Y151099D02*
X166197D01*
X164812Y149929D02*
X166188D01*
X164821Y155959D02*
X166179D01*
X164822Y157039D02*
X166178D01*
X164831Y151009D02*
X166169D01*
X164838Y150019D02*
X166162D01*
X164846Y156049D02*
X166154D01*
X164846Y156949D02*
X166154D01*
X164853Y150919D02*
X166147D01*
X164859Y150109D02*
X166141D01*
X164865Y156139D02*
X166135D01*
X164866Y156859D02*
X166134D01*
X164871Y150829D02*
X166129D01*
X164876Y150199D02*
X166124D01*
X164881Y156229D02*
X166119D01*
X164881Y156769D02*
X166119D01*
X164885Y150739D02*
X166115D01*
X164888Y150289D02*
X166112D01*
X164891Y156319D02*
X166109D01*
X164892Y156679D02*
X166108D01*
X164894Y150649D02*
X166106D01*
X164896Y150379D02*
X166104D01*
X164898Y156409D02*
X166102D01*
X164898Y156589D02*
X166102D01*
X164899Y150559D02*
X166101D01*
X164900Y150469D02*
X166100D01*
X164900Y156499D02*
X166100D01*
X164534Y145879D02*
X165716D01*
X165277Y142189D02*
X165426D01*
X164464Y145789D02*
X165359D01*
X165187Y142279D02*
X165196D01*
X164384Y145699D02*
X165149D01*
X164294Y145609D02*
X164989D01*
X164190Y145519D02*
X164858D01*
X164068Y145429D02*
X164747D01*
X163922Y145339D02*
X164652D01*
X163737Y145249D02*
X164568D01*
X163469Y145159D02*
X164494D01*
X162397Y145069D02*
X164429D01*
X162487Y144979D02*
X164371D01*
X162788Y133729D02*
X164371D01*
X162577Y144889D02*
X164321D01*
X162667Y144799D02*
X164276D01*
X164197Y143269D02*
X164246D01*
X162757Y144709D02*
X164237D01*
X164107Y143359D02*
X164211D01*
X162847Y144619D02*
X164204D01*
X164017Y143449D02*
X164182D01*
X162937Y144529D02*
X164175D01*
X163927Y143539D02*
X164157D01*
X163027Y144439D02*
X164151D01*
X163837Y143629D02*
X164137D01*
X163117Y144349D02*
X164132D01*
X163747Y143719D02*
X164121D01*
X163207Y144259D02*
X164118D01*
X163657Y143809D02*
X164110D01*
X163297Y144169D02*
X164107D01*
X163567Y143899D02*
X164103D01*
X163387Y144079D02*
X164102D01*
X163477Y143989D02*
X164100D01*
X162550Y133819D02*
X164039D01*
X160779Y133909D02*
X163834D01*
X160869Y133999D02*
X163677D01*
X160959Y134089D02*
X163548D01*
X161049Y134179D02*
X163439D01*
X161139Y134269D02*
X163344D01*
X161229Y134359D02*
X163262D01*
X161319Y134449D02*
X163189D01*
X161409Y134539D02*
X163124D01*
X161499Y134629D02*
X163067D01*
X161589Y134719D02*
X163017D01*
X161679Y134809D02*
X162973D01*
X161769Y134899D02*
X162934D01*
X161859Y134989D02*
X162901D01*
X161949Y135079D02*
X162873D01*
X162039Y135169D02*
X162850D01*
X162129Y135259D02*
X162831D01*
X162759Y135889D02*
X162822D01*
X158682Y154609D02*
X162818D01*
X162219Y135349D02*
X162817D01*
X162669Y135799D02*
X162810D01*
X162309Y135439D02*
X162807D01*
X162579Y135709D02*
X162803D01*
X162399Y135529D02*
X162801D01*
X162489Y135619D02*
X162800D01*
X158707Y158389D02*
X162793D01*
X159394Y152359D02*
X162606D01*
X162307Y145159D02*
X162531D01*
X159104Y154699D02*
X162396D01*
X159112Y158299D02*
X162388D01*
X159694Y152269D02*
X162306D01*
X162217Y145249D02*
X162263D01*
X159760Y148759D02*
X162240D01*
X159326Y154789D02*
X162174D01*
X159331Y158209D02*
X162169D01*
X159890Y152179D02*
X162110D01*
X159506Y148669D02*
X162091D01*
X159940Y148849D02*
X162060D01*
X159491Y154879D02*
X162009D01*
X159495Y158119D02*
X162005D01*
X160042Y152089D02*
X161958D01*
X158887Y148579D02*
X161943D01*
X160083Y148939D02*
X161917D01*
X159625Y154969D02*
X161875D01*
X159628Y158029D02*
X161872D01*
X160168Y151999D02*
X161832D01*
X158977Y148489D02*
X161819D01*
X160202Y149029D02*
X161798D01*
X159738Y155059D02*
X161762D01*
X159741Y157939D02*
X161759D01*
X160275Y151909D02*
X161725D01*
X159067Y148399D02*
X161714D01*
X160305Y149119D02*
X161695D01*
X156999Y130129D02*
X161671D01*
X159836Y155149D02*
X161664D01*
X159838Y157849D02*
X161662D01*
X160368Y151819D02*
X161632D01*
X159157Y148309D02*
X161623D01*
X160394Y149209D02*
X161606D01*
X159921Y155239D02*
X161579D01*
X159923Y157759D02*
X161577D01*
X160449Y151729D02*
X161551D01*
X159247Y148219D02*
X161542D01*
X160472Y149299D02*
X161528D01*
X159996Y155329D02*
X161504D01*
X159998Y157669D02*
X161502D01*
X160521Y151639D02*
X161479D01*
X159337Y148129D02*
X161472D01*
X160541Y149389D02*
X161459D01*
X160689Y133819D02*
X161450D01*
X160062Y155419D02*
X161438D01*
X160064Y157579D02*
X161436D01*
X160584Y151549D02*
X161416D01*
X159427Y148039D02*
X161409D01*
X160602Y149479D02*
X161398D01*
X160121Y155509D02*
X161379D01*
X160123Y157489D02*
X161377D01*
X160640Y151459D02*
X161360D01*
X159517Y147949D02*
X161354D01*
X160656Y149569D02*
X161344D01*
X157089Y130219D02*
X161339D01*
X160173Y155599D02*
X161327D01*
X160174Y157399D02*
X161326D01*
X160690Y151369D02*
X161310D01*
X159607Y147859D02*
X161305D01*
X160704Y149659D02*
X161296D01*
X160218Y155689D02*
X161282D01*
X160219Y157309D02*
X161281D01*
X160733Y151279D02*
X161267D01*
X159697Y147769D02*
X161262D01*
X161227Y146239D02*
X161259D01*
X160745Y149749D02*
X161255D01*
X160258Y155779D02*
X161242D01*
X160259Y157219D02*
X161241D01*
X160771Y151189D02*
X161229D01*
X159787Y147679D02*
X161225D01*
X161137Y146329D02*
X161223D01*
X160781Y149839D02*
X161219D01*
X160599Y133729D02*
X161212D01*
X160292Y155869D02*
X161208D01*
X160293Y157129D02*
X161207D01*
X160803Y151099D02*
X161197D01*
X159877Y147589D02*
X161193D01*
X161047Y146419D02*
X161191D01*
X160812Y149929D02*
X161188D01*
X160321Y155959D02*
X161179D01*
X160322Y157039D02*
X161178D01*
X160831Y151009D02*
X161169D01*
X159967Y147499D02*
X161167D01*
X160957Y146509D02*
X161165D01*
X160838Y150019D02*
X161162D01*
X160346Y156049D02*
X161154D01*
X160346Y156949D02*
X161154D01*
X160853Y150919D02*
X161147D01*
X160057Y147409D02*
X161144D01*
X160867Y146599D02*
X161143D01*
X160859Y150109D02*
X161141D01*
X160365Y156139D02*
X161135D01*
X157179Y130309D02*
X161134D01*
X160366Y156859D02*
X161134D01*
X160871Y150829D02*
X161129D01*
X160147Y147319D02*
X161127D01*
X160777Y146689D02*
X161126D01*
X160876Y150199D02*
X161124D01*
X160381Y156229D02*
X161119D01*
X160381Y156769D02*
X161119D01*
X160885Y150739D02*
X161115D01*
X160237Y147229D02*
X161114D01*
X160687Y146779D02*
X161113D01*
X160888Y150289D02*
X161112D01*
X160391Y156319D02*
X161109D01*
X160392Y156679D02*
X161108D01*
X160894Y150649D02*
X161106D01*
X160327Y147139D02*
X161105D01*
X160597Y146869D02*
X161105D01*
X160896Y150379D02*
X161104D01*
X160398Y156409D02*
X161102D01*
X160398Y156589D02*
X161102D01*
X160899Y150559D02*
X161101D01*
X160417Y147049D02*
X161101D01*
X160507Y146959D02*
X161100D01*
X160900Y150469D02*
X161100D01*
X160400Y156499D02*
X161100D01*
X160509Y133639D02*
X161038D01*
X157269Y130399D02*
X160977D01*
X160419Y133549D02*
X160899D01*
X157359Y130489D02*
X160848D01*
X160329Y133459D02*
X160782D01*
X157449Y130579D02*
X160739D01*
X160239Y133369D02*
X160682D01*
X157539Y130669D02*
X160644D01*
X160149Y133279D02*
X160595D01*
X157629Y130759D02*
X160562D01*
X160059Y133189D02*
X160518D01*
X157719Y130849D02*
X160489D01*
X159969Y133099D02*
X160450D01*
X157809Y130939D02*
X160424D01*
X159879Y133009D02*
X160390D01*
X157899Y131029D02*
X160367D01*
X159789Y132919D02*
X160337D01*
X157989Y131119D02*
X160317D01*
X159699Y132829D02*
X160290D01*
X158079Y131209D02*
X160273D01*
X159609Y132739D02*
X160249D01*
X158169Y131299D02*
X160234D01*
X159519Y132649D02*
X160214D01*
X158259Y131389D02*
X160201D01*
X159429Y132559D02*
X160184D01*
X158349Y131479D02*
X160173D01*
X159339Y132469D02*
X160159D01*
X158439Y131569D02*
X160150D01*
X159249Y132379D02*
X160138D01*
X158529Y131659D02*
X160131D01*
X159159Y132289D02*
X160122D01*
X158619Y131749D02*
X160117D01*
X159069Y132199D02*
X160110D01*
X158709Y131839D02*
X160107D01*
X158979Y132109D02*
X160103D01*
X158799Y131929D02*
X160101D01*
X158889Y132019D02*
X160100D01*
X147846Y115549D02*
X159473D01*
X151741Y119239D02*
X159421D01*
X147865Y115639D02*
X159187D01*
X151699Y119149D02*
X159157D01*
X147881Y115729D02*
X158996D01*
X151650Y119059D02*
X158973D01*
X147891Y115819D02*
X158847D01*
X151596Y118969D02*
X158828D01*
X147898Y115909D02*
X158723D01*
X151534Y118879D02*
X158707D01*
X147900Y115999D02*
X158617D01*
X155107Y152359D02*
X158606D01*
X151464Y118789D02*
X158603D01*
X147898Y116089D02*
X158525D01*
X151384Y118699D02*
X158513D01*
X147892Y116179D02*
X158445D01*
X151294Y118609D02*
X158434D01*
X147881Y116269D02*
X158373D01*
X151190Y118519D02*
X158364D01*
X153682Y154609D02*
X158318D01*
X147866Y116359D02*
X158311D01*
X155197Y152269D02*
X158306D01*
X151068Y118429D02*
X158303D01*
X153707Y158389D02*
X158293D01*
X147846Y116449D02*
X158255D01*
X150922Y118339D02*
X158248D01*
X147822Y116539D02*
X158206D01*
X150737Y118249D02*
X158200D01*
X147793Y116629D02*
X158164D01*
X150469Y118159D02*
X158158D01*
X147759Y116719D02*
X158126D01*
X144939Y118069D02*
X158122D01*
X155287Y152179D02*
X158110D01*
X147719Y116809D02*
X158094D01*
X144849Y117979D02*
X158090D01*
X147674Y116899D02*
X158067D01*
X146207Y117889D02*
X158064D01*
X147623Y116989D02*
X158045D01*
X146612Y117799D02*
X158042D01*
X147564Y117079D02*
X158027D01*
X146831Y117709D02*
X158025D01*
X147498Y117169D02*
X158014D01*
X146995Y117619D02*
X158013D01*
X147423Y117259D02*
X158005D01*
X147128Y117529D02*
X158004D01*
X147338Y117349D02*
X158001D01*
X147241Y117439D02*
X158000D01*
X155377Y152089D02*
X157958D01*
X154104Y154699D02*
X157896D01*
X154112Y158299D02*
X157888D01*
X155467Y151999D02*
X157832D01*
X155557Y151909D02*
X157725D01*
X154326Y154789D02*
X157674D01*
X154331Y158209D02*
X157669D01*
X155647Y151819D02*
X157632D01*
X156729Y129859D02*
X157606D01*
X155737Y151729D02*
X157551D01*
X154491Y154879D02*
X157509D01*
X154495Y158119D02*
X157505D01*
X153039Y126169D02*
X157494D01*
X155827Y151639D02*
X157479D01*
X155917Y151549D02*
X157416D01*
X154625Y154969D02*
X157375D01*
X154628Y158029D02*
X157372D01*
X156007Y151459D02*
X157360D01*
X156097Y151369D02*
X157310D01*
X156639Y129769D02*
X157306D01*
X156187Y151279D02*
X157267D01*
X154738Y155059D02*
X157262D01*
X154741Y157939D02*
X157259D01*
X153129Y126259D02*
X157240D01*
X156277Y151189D02*
X157229D01*
X156367Y151099D02*
X157197D01*
X156457Y151009D02*
X157169D01*
X154836Y155149D02*
X157164D01*
X154838Y157849D02*
X157162D01*
X156547Y150919D02*
X157147D01*
X156637Y150829D02*
X157129D01*
X156727Y150739D02*
X157115D01*
X156549Y129679D02*
X157110D01*
X156817Y150649D02*
X157106D01*
X157087Y150379D02*
X157104D01*
X156907Y150559D02*
X157101D01*
X156997Y150469D02*
X157100D01*
X154921Y155239D02*
X157079D01*
X154923Y157759D02*
X157077D01*
X153219Y126349D02*
X157060D01*
X154996Y155329D02*
X157004D01*
X154998Y157669D02*
X157002D01*
X156459Y129589D02*
X156958D01*
X155062Y155419D02*
X156938D01*
X155064Y157579D02*
X156936D01*
X153309Y126439D02*
X156917D01*
X155121Y155509D02*
X156879D01*
X155123Y157489D02*
X156877D01*
X156369Y129499D02*
X156832D01*
X155173Y155599D02*
X156827D01*
X155174Y157399D02*
X156826D01*
X153399Y126529D02*
X156798D01*
X155218Y155689D02*
X156782D01*
X155219Y157309D02*
X156781D01*
X155258Y155779D02*
X156742D01*
X155259Y157219D02*
X156741D01*
X156279Y129409D02*
X156725D01*
X155292Y155869D02*
X156708D01*
X155293Y157129D02*
X156707D01*
X153489Y126619D02*
X156695D01*
X155321Y155959D02*
X156679D01*
X155322Y157039D02*
X156678D01*
X155346Y156049D02*
X156654D01*
X155346Y156949D02*
X156654D01*
X155365Y156139D02*
X156635D01*
X155366Y156859D02*
X156634D01*
X156189Y129319D02*
X156632D01*
X155381Y156229D02*
X156619D01*
X155381Y156769D02*
X156619D01*
X155391Y156319D02*
X156609D01*
X155392Y156679D02*
X156608D01*
X153579Y126709D02*
X156606D01*
X155398Y156409D02*
X156602D01*
X155398Y156589D02*
X156602D01*
X155400Y156499D02*
X156600D01*
X156099Y129229D02*
X156551D01*
X153669Y126799D02*
X156528D01*
X156009Y129139D02*
X156479D01*
X153759Y126889D02*
X156459D01*
X155919Y129049D02*
X156416D01*
X153849Y126979D02*
X156398D01*
X155829Y128959D02*
X156360D01*
X153939Y127069D02*
X156344D01*
X155739Y128869D02*
X156310D01*
X154029Y127159D02*
X156296D01*
X155649Y128779D02*
X156267D01*
X154119Y127249D02*
X156255D01*
X155559Y128689D02*
X156229D01*
X154209Y127339D02*
X156219D01*
X155469Y128599D02*
X156197D01*
X154299Y127429D02*
X156188D01*
X155379Y128509D02*
X156169D01*
X154389Y127519D02*
X156162D01*
X155289Y128419D02*
X156147D01*
X154479Y127609D02*
X156141D01*
X155199Y128329D02*
X156129D01*
X154569Y127699D02*
X156124D01*
X155109Y128239D02*
X156115D01*
X154659Y127789D02*
X156112D01*
X155019Y128149D02*
X156106D01*
X154749Y127879D02*
X156104D01*
X154929Y128059D02*
X156101D01*
X154839Y127969D02*
X156100D01*
X152769Y125899D02*
X153929D01*
X148989Y122119D02*
X153734D01*
X152679Y125809D02*
X153418D01*
X149079Y122209D02*
X153367D01*
X152857Y154609D02*
X153318D01*
X149077Y158389D02*
X153293D01*
X152589Y125719D02*
X153190D01*
X149169Y122299D02*
X153154D01*
X152499Y125629D02*
X153022D01*
X149259Y122389D02*
X152993D01*
X152767Y154699D02*
X152896D01*
X149167Y158299D02*
X152888D01*
X152409Y125539D02*
X152885D01*
X149349Y122479D02*
X152862D01*
X152319Y125449D02*
X152771D01*
X149439Y122569D02*
X152750D01*
X152229Y125359D02*
X152672D01*
X149257Y158209D02*
X152669D01*
X149529Y122659D02*
X152654D01*
X152139Y125269D02*
X152586D01*
X149619Y122749D02*
X152570D01*
X152049Y125179D02*
X152510D01*
X149347Y158119D02*
X152505D01*
X149709Y122839D02*
X152496D01*
X151959Y125089D02*
X152443D01*
X149799Y122929D02*
X152431D01*
X151869Y124999D02*
X152384D01*
X149889Y123019D02*
X152373D01*
X149437Y158029D02*
X152372D01*
X151779Y124909D02*
X152331D01*
X149979Y123109D02*
X152322D01*
X151689Y124819D02*
X152285D01*
X150069Y123199D02*
X152277D01*
X149527Y157939D02*
X152259D01*
X151599Y124729D02*
X152245D01*
X150159Y123289D02*
X152238D01*
X151509Y124639D02*
X152211D01*
X150249Y123379D02*
X152204D01*
X151419Y124549D02*
X152181D01*
X150339Y123469D02*
X152176D01*
X149617Y157849D02*
X152162D01*
X151329Y124459D02*
X152156D01*
X150429Y123559D02*
X152152D01*
X151239Y124369D02*
X152136D01*
X150519Y123649D02*
X152133D01*
X151149Y124279D02*
X152121D01*
X150609Y123739D02*
X152118D01*
X151059Y124189D02*
X152109D01*
X150699Y123829D02*
X152108D01*
X150969Y124099D02*
X152103D01*
X150789Y123919D02*
X152102D01*
X150879Y124009D02*
X152100D01*
X149707Y157759D02*
X152077D01*
X149797Y157669D02*
X152002D01*
X149887Y157579D02*
X151936D01*
X149977Y157489D02*
X151877D01*
X150067Y157399D02*
X151826D01*
X151777Y155689D02*
X151782D01*
X150157Y157309D02*
X151781D01*
X151687Y155779D02*
X151742D01*
X150247Y157219D02*
X151741D01*
X151597Y155869D02*
X151708D01*
X150337Y157129D02*
X151707D01*
X151507Y155959D02*
X151679D01*
X150427Y157039D02*
X151678D01*
X151417Y156049D02*
X151654D01*
X150517Y156949D02*
X151654D01*
X151327Y156139D02*
X151635D01*
X150607Y156859D02*
X151634D01*
X151237Y156229D02*
X151619D01*
X150697Y156769D02*
X151619D01*
X151147Y156319D02*
X151609D01*
X150787Y156679D02*
X151608D01*
X151057Y156409D02*
X151602D01*
X150877Y156589D02*
X151602D01*
X150967Y156499D02*
X151600D01*
X148719Y121849D02*
X149561D01*
X145029Y118159D02*
X149531D01*
X148629Y121759D02*
X149281D01*
X145119Y118249D02*
X149263D01*
X148539Y121669D02*
X149091D01*
X145209Y118339D02*
X149078D01*
X148449Y121579D02*
X148943D01*
X145299Y118429D02*
X148932D01*
X148359Y121489D02*
X148819D01*
X145389Y118519D02*
X148810D01*
X145228Y109609D02*
X148772D01*
X145270Y102409D02*
X148730D01*
X148269Y121399D02*
X148714D01*
X145479Y118609D02*
X148706D01*
X148179Y121309D02*
X148623D01*
X145569Y118699D02*
X148616D01*
X145392Y109519D02*
X148608D01*
X145414Y102499D02*
X148586D01*
X148089Y121219D02*
X148542D01*
X145659Y118789D02*
X148536D01*
X145489Y109429D02*
X148511D01*
X145503Y102589D02*
X148497D01*
X147999Y121129D02*
X148472D01*
X145749Y118879D02*
X148466D01*
X145555Y109339D02*
X148445D01*
X145565Y102679D02*
X148435D01*
X147909Y121039D02*
X148409D01*
X145839Y118969D02*
X148404D01*
X145601Y109249D02*
X148399D01*
X145607Y102769D02*
X148393D01*
X145630Y109159D02*
X148370D01*
X145634Y102859D02*
X148366D01*
X147819Y120949D02*
X148354D01*
X145646Y109069D02*
X148354D01*
X145648Y102949D02*
X148352D01*
X145650Y108979D02*
X148350D01*
X145650Y108889D02*
X148350D01*
X145650Y108799D02*
X148350D01*
X145650Y108709D02*
X148350D01*
X145650Y108619D02*
X148350D01*
X145650Y108529D02*
X148350D01*
X145650Y108439D02*
X148350D01*
X145650Y108349D02*
X148350D01*
X145650Y108259D02*
X148350D01*
X145650Y108169D02*
X148350D01*
X145650Y108079D02*
X148350D01*
X145650Y107989D02*
X148350D01*
X145650Y107899D02*
X148350D01*
X145650Y107809D02*
X148350D01*
X145650Y107719D02*
X148350D01*
X145650Y107629D02*
X148350D01*
X145650Y107539D02*
X148350D01*
X145650Y107449D02*
X148350D01*
X145650Y107359D02*
X148350D01*
X145650Y107269D02*
X148350D01*
X145650Y107179D02*
X148350D01*
X145650Y107089D02*
X148350D01*
X145650Y106999D02*
X148350D01*
X145650Y106909D02*
X148350D01*
X145650Y106819D02*
X148350D01*
X145650Y106729D02*
X148350D01*
X145650Y106639D02*
X148350D01*
X145650Y106549D02*
X148350D01*
X145650Y106459D02*
X148350D01*
X145650Y106369D02*
X148350D01*
X145650Y106279D02*
X148350D01*
X145650Y106189D02*
X148350D01*
X145650Y106099D02*
X148350D01*
X145650Y106009D02*
X148350D01*
X145650Y105919D02*
X148350D01*
X145650Y105829D02*
X148350D01*
X145650Y105739D02*
X148350D01*
X145650Y105649D02*
X148350D01*
X145650Y105559D02*
X148350D01*
X145650Y105469D02*
X148350D01*
X145650Y105379D02*
X148350D01*
X145650Y105289D02*
X148350D01*
X145650Y105199D02*
X148350D01*
X145650Y105109D02*
X148350D01*
X145650Y105019D02*
X148350D01*
X145650Y104929D02*
X148350D01*
X145650Y104839D02*
X148350D01*
X145650Y104749D02*
X148350D01*
X145650Y104659D02*
X148350D01*
X145650Y104569D02*
X148350D01*
X145650Y104479D02*
X148350D01*
X145650Y104389D02*
X148350D01*
X145650Y104299D02*
X148350D01*
X145650Y104209D02*
X148350D01*
X145650Y104119D02*
X148350D01*
X145650Y104029D02*
X148350D01*
X145650Y103939D02*
X148350D01*
X145650Y103849D02*
X148350D01*
X145650Y103759D02*
X148350D01*
X145650Y103669D02*
X148350D01*
X145650Y103579D02*
X148350D01*
X145650Y103489D02*
X148350D01*
X145650Y103399D02*
X148350D01*
X145650Y103309D02*
X148350D01*
X145650Y103219D02*
X148350D01*
X145650Y103129D02*
X148350D01*
X145650Y103039D02*
X148350D01*
X145929Y119059D02*
X148350D01*
X147729Y120859D02*
X148305D01*
X146019Y119149D02*
X148301D01*
X147639Y120769D02*
X148262D01*
X146109Y119239D02*
X148259D01*
X147549Y120679D02*
X148225D01*
X146199Y119329D02*
X148223D01*
X147459Y120589D02*
X148193D01*
X146289Y119419D02*
X148191D01*
X147369Y120499D02*
X148167D01*
X146379Y119509D02*
X148165D01*
X147279Y120409D02*
X148144D01*
X146469Y119599D02*
X148143D01*
X147189Y120319D02*
X148127D01*
X146559Y119689D02*
X148126D01*
X147099Y120229D02*
X148114D01*
X146649Y119779D02*
X148113D01*
X147009Y120139D02*
X148105D01*
X146739Y119869D02*
X148105D01*
X146919Y120049D02*
X148101D01*
X146829Y119959D02*
X148100D01*
X140979Y114109D02*
X145818D01*
X144759Y117889D02*
X145793D01*
X141069Y114199D02*
X145396D01*
X144669Y117799D02*
X145388D01*
X141159Y114289D02*
X145174D01*
X144579Y117709D02*
X145169D01*
X141249Y114379D02*
X145009D01*
X144489Y117619D02*
X145005D01*
X141339Y114469D02*
X144875D01*
X144399Y117529D02*
X144872D01*
X141429Y114559D02*
X144762D01*
X144309Y117439D02*
X144759D01*
X141519Y114649D02*
X144664D01*
X144219Y117349D02*
X144662D01*
X141609Y114739D02*
X144579D01*
X144129Y117259D02*
X144577D01*
X141699Y114829D02*
X144504D01*
X144039Y117169D02*
X144502D01*
X141789Y114919D02*
X144438D01*
X143949Y117079D02*
X144436D01*
X141879Y115009D02*
X144379D01*
X143859Y116989D02*
X144377D01*
X141969Y115099D02*
X144327D01*
X143769Y116899D02*
X144326D01*
X142059Y115189D02*
X144282D01*
X143679Y116809D02*
X144281D01*
X142149Y115279D02*
X144242D01*
X143589Y116719D02*
X144241D01*
X142239Y115369D02*
X144208D01*
X143499Y116629D02*
X144207D01*
X142329Y115459D02*
X144179D01*
X143409Y116539D02*
X144178D01*
X142419Y115549D02*
X144154D01*
X143319Y116449D02*
X144154D01*
X142509Y115639D02*
X144135D01*
X143229Y116359D02*
X144134D01*
X142599Y115729D02*
X144119D01*
X143139Y116269D02*
X144119D01*
X142689Y115819D02*
X144109D01*
X143049Y116179D02*
X144108D01*
X142779Y115909D02*
X144102D01*
X142959Y116089D02*
X144102D01*
X142869Y115999D02*
X144100D01*
X138050Y110149D02*
X141573D01*
X140709Y113839D02*
X141521D01*
X138050Y110239D02*
X141287D01*
X140619Y113749D02*
X141257D01*
X138050Y110329D02*
X141096D01*
X140529Y113659D02*
X141073D01*
X138050Y110419D02*
X140947D01*
X140439Y113569D02*
X140928D01*
X138050Y110509D02*
X140823D01*
X140349Y113479D02*
X140807D01*
X138050Y110599D02*
X140717D01*
X140259Y113389D02*
X140703D01*
X138050Y110689D02*
X140625D01*
X140169Y113299D02*
X140613D01*
X138050Y110779D02*
X140545D01*
X140079Y113209D02*
X140534D01*
X138050Y110869D02*
X140473D01*
X139989Y113119D02*
X140464D01*
X138050Y110959D02*
X140411D01*
X139899Y113029D02*
X140403D01*
X138050Y111049D02*
X140355D01*
X139809Y112939D02*
X140348D01*
X138050Y111139D02*
X140306D01*
X139719Y112849D02*
X140300D01*
X138099Y111229D02*
X140264D01*
X139629Y112759D02*
X140258D01*
X138189Y111319D02*
X140226D01*
X139539Y112669D02*
X140222D01*
X138279Y111409D02*
X140194D01*
X139449Y112579D02*
X140190D01*
X138369Y111499D02*
X140167D01*
X139359Y112489D02*
X140164D01*
X138459Y111589D02*
X140145D01*
X139269Y112399D02*
X140142D01*
X138549Y111679D02*
X140127D01*
X139179Y112309D02*
X140125D01*
X138639Y111769D02*
X140114D01*
X139089Y112219D02*
X140113D01*
X138729Y111859D02*
X140105D01*
X138999Y112129D02*
X140104D01*
X138819Y111949D02*
X140101D01*
X138909Y112039D02*
X140100D01*
X138050Y109609D02*
X138772D01*
X138050Y102409D02*
X138730D01*
X138050Y109519D02*
X138608D01*
X138050Y102499D02*
X138586D01*
X138050Y109429D02*
X138511D01*
X138050Y102589D02*
X138497D01*
X138050Y109339D02*
X138445D01*
X138050Y102679D02*
X138435D01*
X138050Y109249D02*
X138399D01*
X138050Y102769D02*
X138393D01*
X138050Y109159D02*
X138370D01*
X138050Y102859D02*
X138366D01*
X138050Y109069D02*
X138354D01*
X138050Y102949D02*
X138352D01*
X138050Y108979D02*
X138350D01*
X138050Y108889D02*
X138350D01*
X138050Y108799D02*
X138350D01*
X138050Y108709D02*
X138350D01*
X138050Y108619D02*
X138350D01*
X138050Y108529D02*
X138350D01*
X138050Y108439D02*
X138350D01*
X138050Y108349D02*
X138350D01*
X138050Y108259D02*
X138350D01*
X138050Y108169D02*
X138350D01*
X138050Y108079D02*
X138350D01*
X138050Y107989D02*
X138350D01*
X138050Y107899D02*
X138350D01*
X138050Y107809D02*
X138350D01*
X138050Y107719D02*
X138350D01*
X138050Y107629D02*
X138350D01*
X138050Y107539D02*
X138350D01*
X138050Y107449D02*
X138350D01*
X138050Y107359D02*
X138350D01*
X138050Y107269D02*
X138350D01*
X138050Y107179D02*
X138350D01*
X138050Y107089D02*
X138350D01*
X138050Y106999D02*
X138350D01*
X138050Y106909D02*
X138350D01*
X138050Y106819D02*
X138350D01*
X138050Y106729D02*
X138350D01*
X138050Y106639D02*
X138350D01*
X138050Y106549D02*
X138350D01*
X138050Y106459D02*
X138350D01*
X138050Y106369D02*
X138350D01*
X138050Y106279D02*
X138350D01*
X138050Y106189D02*
X138350D01*
X138050Y106099D02*
X138350D01*
X138050Y106009D02*
X138350D01*
X138050Y105919D02*
X138350D01*
X138050Y105829D02*
X138350D01*
X138050Y105739D02*
X138350D01*
X138050Y105649D02*
X138350D01*
X138050Y105559D02*
X138350D01*
X138050Y105469D02*
X138350D01*
X138050Y105379D02*
X138350D01*
X138050Y105289D02*
X138350D01*
X138050Y105199D02*
X138350D01*
X138050Y105109D02*
X138350D01*
X138050Y105019D02*
X138350D01*
X138050Y104929D02*
X138350D01*
X138050Y104839D02*
X138350D01*
X138050Y104749D02*
X138350D01*
X138050Y104659D02*
X138350D01*
X138050Y104569D02*
X138350D01*
X138050Y104479D02*
X138350D01*
X138050Y104389D02*
X138350D01*
X138050Y104299D02*
X138350D01*
X138050Y104209D02*
X138350D01*
X138050Y104119D02*
X138350D01*
X138050Y104029D02*
X138350D01*
X138050Y103939D02*
X138350D01*
X138050Y103849D02*
X138350D01*
X138050Y103759D02*
X138350D01*
X138050Y103669D02*
X138350D01*
X138050Y103579D02*
X138350D01*
X138050Y103489D02*
X138350D01*
X138050Y103399D02*
X138350D01*
X138050Y103309D02*
X138350D01*
X138050Y103219D02*
X138350D01*
X138050Y103129D02*
X138350D01*
X138050Y103039D02*
X138350D01*
G54D13*
X221644Y154544D02*
X221184Y154084D01*
X218956Y154544D02*
X219416Y154084D01*
X218956Y151856D02*
X219416Y152316D01*
X221644Y151856D02*
X221184Y152316D01*
X161244Y118744D02*
X160784Y118284D01*
X158556Y118744D02*
X159016Y118284D01*
X158556Y116056D02*
X159016Y116516D01*
X161244Y116056D02*
X160784Y116516D01*
G54D16*
X204000Y117700D02*
Y118000D01*
X199800Y130000D02*
X200000D01*
Y139400D02*
Y140000D01*
X161700Y132300D02*
X162000Y132000D01*
X200000Y117700D02*
Y118000D01*
X188000Y139300D02*
Y140000D01*
X192000Y139300D02*
Y140000D01*
X164400Y135900D02*
X164700Y135600D01*
X196000Y139400D02*
Y140000D01*
X150000Y120000D02*
X150500Y119500D01*
X146000Y116000D02*
X146500Y115500D01*
X158000Y128000D02*
X158500D01*
X154000Y124000D02*
X154500D01*
X184000Y122000D02*
X184300D01*
X188000D02*
Y122300D01*
X188100Y122400*
X192000Y122000D02*
Y122100D01*
X196000Y122000D02*
Y122200D01*
X196100Y122300*
X204000Y122000D02*
X204700D01*
X204000Y126000D02*
X204700D01*
X204000Y138000D02*
X204400D01*
X184000Y118000D02*
Y118200D01*
X180000Y118000D02*
Y118200D01*
X188000Y118000D02*
Y118300D01*
X192000Y118000D02*
Y118400D01*
X196000Y118000D02*
Y118400D01*
X208000Y118000D02*
Y118300D01*
X212000Y118000D02*
Y118300D01*
X216000Y118000D02*
X216400D01*
X216000Y114000D02*
X216400D01*
X184000Y138000D02*
X184500D01*
X184000Y134000D02*
X184200D01*
X220000Y106000D02*
X220700D01*
X220000Y110000D02*
X220700D01*
X192000Y149500D02*
Y150000D01*
X163000Y156000D02*
Y156500D01*
X200000Y149600D02*
Y150000D01*
X188000Y149500D02*
Y150000D01*
Y157500D02*
Y158000D01*
X192000Y157500D02*
Y158000D01*
X196000Y149600D02*
Y150000D01*
X168000Y156000D02*
Y156500D01*
X196000Y157600D02*
Y158000D01*
X200000Y157600D02*
Y158000D01*
X153700Y156500D02*
X153400Y156400D01*
X153500Y156500*
X184000Y142000D02*
Y142600D01*
X204000Y142000D02*
X204400D01*
X204000Y146000D02*
X204500D01*
X204000Y150000D02*
X204500D01*
X204000Y154000D02*
X204300D01*
X204000Y158000D02*
X204300D01*
X184000Y150000D02*
X184500D01*
X184000Y154000D02*
X184400D01*
X184000Y158000D02*
X184400D01*
X184000Y146000D02*
X184500D01*
X153500Y156500D02*
X154000Y157000D01*
X159000Y150500D02*
Y151000D01*
X163000Y150500D02*
Y151000D01*
Y147000D02*
X163300Y147300D01*
X166000Y144000D02*
X166300Y144300D01*
G54D130*
X134000Y104000D03*
X169600Y131500D03*
Y127000D03*
X150000Y120000D03*
X146000Y116000D03*
X158000Y128000D03*
X154000Y124000D03*
X164700Y135600D03*
X162000Y132000D03*
X184000Y122000D03*
X188000D03*
X192000D03*
X196000D03*
X200000D03*
X204000D03*
Y126000D03*
Y130000D03*
Y134000D03*
Y138000D03*
X188000Y130000D03*
X192000D03*
X196000D03*
X200000D03*
X184000Y118000D03*
X180000D03*
X176000D03*
X142000Y112000D03*
X188000Y118000D03*
X192000D03*
X196000D03*
X200000D03*
X204000D03*
X208000D03*
X212000D03*
X216000D03*
Y114000D03*
X184000Y138000D03*
Y134000D03*
Y130000D03*
Y126000D03*
X159900Y117400D03*
X220000Y106000D03*
Y110000D03*
X169600Y140100D03*
Y144300D03*
X184000Y142000D03*
X204000D03*
Y146000D03*
Y150000D03*
Y154000D03*
Y158000D03*
X200000D03*
X196000D03*
X192000D03*
X188000D03*
Y150000D03*
X192000D03*
X196000D03*
X200000D03*
X188000Y140000D03*
X184000Y150000D03*
Y154000D03*
Y158000D03*
Y146000D03*
X192000Y140000D03*
X196000D03*
X200000D03*
X153500Y156500D03*
X158500D03*
X163000D03*
X168000D03*
X159000Y150500D03*
X163000D03*
X168000D03*
X163000Y147000D03*
X166000Y144000D03*
X220300Y153200D03*
G54D201*
X230000Y146000D03*
Y136000D03*
Y126000D03*
Y116000D03*
Y106000D03*
X152000D03*
X142000D03*
X172000D03*
X182000D03*
X192000D03*
X202000D03*
X212000D03*
G54D202*
X118000Y121200D03*
X105200Y134000D03*
X118000Y146800D03*
G74*
X0Y0D02*
M02*
