%
T1C.015F095S300
X013400Y010400
X014200Y011200
X014600Y011600
X015000Y012000
X015400Y012400
X015350Y015650
X015850Y015650
X016300Y015650
X016800Y015650
X015900Y015050
X016300Y015050
X016800Y015050
X016300Y014700
X016960Y014430
X016600Y014400
X016960Y014010
X016470Y013560
X016200Y013200
X016960Y013150
X015800Y012800
X016960Y012700
X017600Y011800
X018000Y011800
X015990Y011740
X018800Y011800
X019200Y011800
X019600Y011800
X020000Y011800
X020400Y011800
X018400Y011800
X018400Y012200
X018800Y012200
X019600Y012200
X020000Y012200
X020400Y012200
X019200Y012200
X020400Y012600
X018400Y012600
X018400Y013000
X020400Y013000
X018800Y013000
X019200Y013000
X019600Y013000
X020000Y013000
X020400Y013400
X018400Y013400
X018400Y013800
X020400Y013800
X018800Y014000
X019200Y014000
X019600Y014000
X020000Y014000
X018400Y014200
X020400Y014200
X018400Y014600
X020400Y014600
X018400Y015000
X018800Y015000
X019200Y015000
X019600Y015000
X020000Y015000
X020400Y015000
X018400Y015400
X020400Y015400
X019200Y015800
X018800Y015800
X018400Y015800
X019600Y015800
X020400Y015800
X020000Y015800
X022030Y015320
X021200Y011800
X021600Y011800
X020800Y011800
X021600Y011400
X022000Y011000
X022000Y010600
T2C.031F197S550
X011800Y012120
X010520Y013400
X011800Y014680
T3C.035F197S550
X015200Y010600
X014200Y010600
X017200Y010600
X018200Y010600
X019200Y010600
X020200Y010600
X023000Y010600
X021200Y010600
X023000Y011600
X023000Y012600
X023000Y013600
X023000Y014600
M30
