*
*
G04 PADS 9.5 Build Number: 522968 generated Gerber (RS-274-X) file*
G04 PC Version=2.1*
*
%IN "MCollar_SANDWICH_workin"*%
*
%MOIN*%
*
%FSLAX35Y35*%
*
*
*
*
G04 PC Standard Apertures*
*
*
G04 Thermal Relief Aperture macro.*
%AMTER*
1,1,$1,0,0*
1,0,$1-$2,0,0*
21,0,$3,$4,0,0,45*
21,0,$3,$4,0,0,135*
%
*
*
G04 Annular Aperture macro.*
%AMANN*
1,1,$1,0,0*
1,0,$2,0,0*
%
*
*
G04 Odd Aperture macro.*
%AMODD*
1,1,$1,0,0*
1,0,$1-0.005,0,0*
%
*
*
G04 PC Custom Aperture Macros*
*
*
*
*
*
*
G04 PC Aperture Table*
*
%ADD010C,0.001*%
%ADD013C,0.01*%
%ADD016C,0.006*%
%ADD113C,0.08*%
%ADD130C,0.025*%
%ADD159R,0.01181X0.07087*%
*
*
*
*
G04 PC Circuitry*
G04 Layer Name MCollar_SANDWICH_workin - circuitry*
%LPD*%
*
*
G04 PC Custom Flashes*
G04 Layer Name MCollar_SANDWICH_workin - flashes*
%LPD*%
*
*
G04 PC Circuitry*
G04 Layer Name MCollar_SANDWICH_workin - circuitry*
%LPD*%
*
G54D10*
G54D13*
G01X100000Y100000D02*
X450000D01*
Y450000*
X100000*
Y100000*
G54D16*
X151300Y136400D02*
Y165854D01*
X240346Y254900*
X265583*
X278843Y241640*
Y237197*
X151300Y136400D02*
X155900Y131800D01*
X140000Y138000D02*
Y161397D01*
X238303Y259700*
X268657*
X286717Y241640*
Y237197*
X143700Y132800D02*
Y163346D01*
X238854Y258500*
X267888*
X284748Y241640*
Y237197*
X148000Y122000D02*
Y144449D01*
X148900Y145349*
Y166849*
X239351Y257300*
X267120*
X282780Y241640*
Y237197*
X172000Y132000D02*
X175600Y135600D01*
Y164424*
X238200Y227024*
Y228977*
X253323Y244100*
X258666*
X261126Y241640*
Y237197*
X172000Y124000D02*
X176900Y128900D01*
Y163424*
X239400Y225924*
Y228480*
X253820Y242900*
X257898*
X259157Y241640*
Y237197*
X172000Y116000D02*
X178300Y122300D01*
Y158900*
X247000Y227600*
Y234383*
X254317Y241700*
X257129*
X257189Y241640*
Y237197*
X172000Y108000D02*
X179800Y115800D01*
Y156200*
X255220Y231620*
Y237197*
X388445Y116000D02*
X388195Y116195D01*
X397350Y125350*
Y171873*
X408000Y136000D02*
X413200Y141200D01*
X408000Y112000D02*
X417200Y121200D01*
X408000Y128000D02*
X414400Y134400D01*
X388000Y120000D02*
X396150Y128150D01*
Y171376*
X388000Y116000D02*
X388445D01*
X388000Y128000D02*
X394950Y134950D01*
X388000Y136000D02*
X393750Y141750D01*
Y170382*
X408000Y120000D02*
X416000Y128000D01*
X129800Y167902D02*
X133550Y171652D01*
Y250480*
X138070Y255000*
X151400*
X152768Y256368*
X156368*
X160000Y260000*
X129800Y167902D02*
Y152200D01*
X136000Y146000*
X124000D02*
Y172812D01*
X130514Y179325*
Y252346*
X132996Y254829*
Y259926*
X138070Y265000*
X155000*
X160000Y270000*
X124000Y146000D02*
X148000Y122000D01*
X116000Y149262D02*
X149171Y116091D01*
X153632*
X158050Y120509*
Y143201*
X116000Y149262D02*
Y179376D01*
X127956Y191332*
Y253874*
X129430Y255347*
Y269430*
X140000Y280000*
X126000Y152000D02*
Y168671D01*
X132000Y174671*
Y252000*
X140000Y260000*
X126000Y152000D02*
X140000Y138000D01*
X122000Y144959D02*
X149062Y117898D01*
X152398*
X154600Y120100*
X122000Y144959D02*
Y176952D01*
X129235Y184187*
Y253110*
X131784Y255659*
Y261784*
X140000Y270000*
X110000Y150171D02*
X147771Y112400D01*
X160641*
X164241Y116000*
X172000*
X110000Y150171D02*
Y246930D01*
X118070Y255000*
X121930*
X125038Y258108*
X125038D02*
Y295038D01*
X125038D02*
X140000Y310000D01*
X112000Y149868D02*
X148268Y113600D01*
X154535*
X166713Y125778*
X166713D02*
Y131208D01*
X166713D02*
X171900Y136395D01*
Y140000*
X112000Y149868D02*
Y204050D01*
X125275Y217325*
Y255797*
X126369Y256890*
Y286369*
X140000Y300000*
X114000Y149565D02*
X148765Y114800D01*
X154038*
X162381Y123144*
Y158981*
X169700Y166300*
X114000Y149565D02*
Y190037D01*
X126663Y202700*
X126663D02*
Y254833D01*
X126663D02*
X127859Y256030D01*
Y277859*
X140000Y290000*
X132000Y154000D02*
Y157000D01*
X237100Y262100*
X270194*
X290654Y241640*
Y237197*
X136000Y146000D02*
Y159094D01*
X237806Y260900*
X269425*
X288685Y241640*
Y237197*
X144500Y164146D02*
X238854Y258500D01*
X267888*
X284748Y241640*
Y237197*
X152500Y146755D02*
Y165357D01*
X240843Y253700*
X264814*
X276874Y241640*
Y237197*
X152500Y146755D02*
X155800Y143455D01*
Y139900*
X150100Y166351D02*
X239849Y256100D01*
X266351*
X280811Y241640*
Y237197*
X150100Y166351D02*
Y124600D01*
X154600Y120100*
X153700Y153555D02*
Y164860D01*
X241340Y252500*
X264046*
X274906Y241640*
Y237197*
X153700Y153555D02*
X156100Y151155D01*
Y147600*
Y145151*
X158050Y143201*
X155900Y155800D02*
Y165363D01*
X241837Y251300*
X263277*
X272937Y241640*
Y237197*
X172400Y171600D02*
X182210Y181410D01*
Y181473*
X250838Y250100*
X262509*
X270969Y241640*
Y237197*
X169700Y166300D02*
X172035Y168635D01*
X172476*
X191700Y187859*
Y189265*
X251335Y248900*
X261740*
X269000Y241640*
Y237197*
X170900Y155300D02*
Y163424D01*
X171900Y164424*
Y166303*
X203200Y197603*
Y199068*
X251832Y247700*
X260972*
X267031Y241640*
Y237197*
X172000Y148000D02*
Y151755D01*
X173100Y152855*
Y165747*
X214700Y207347*
Y208871*
X252329Y246500*
X260203*
X265063Y241640*
Y237197*
X171900Y140000D02*
Y143505D01*
X174300Y145905*
Y165180*
X230800Y221680*
Y223274*
X252826Y245300*
X259435*
X263094Y241640*
Y237197*
X310000Y150000D02*
X266900Y193100D01*
X267031Y205669*
Y221449*
X250000Y150000D02*
Y213276D01*
X255220Y218496*
Y221449*
X388000Y160000D02*
Y163555D01*
X390150Y165705*
X388000Y152000D02*
Y155555D01*
X391350Y158905*
Y169388*
X408000Y144000D02*
X412000Y148000D01*
X408000Y152000D02*
Y155555D01*
X410150Y157705*
Y166588*
X388000Y144000D02*
X392550Y148550D01*
X400000Y168000D02*
X400070Y168070D01*
X135100Y237970D02*
X138070Y235000D01*
X168900*
X176300Y227600*
X135100Y237970D02*
Y245494D01*
X140000Y250000*
X176000Y268000D02*
X180126D01*
X181426Y269300*
X274805*
X302465Y241640*
Y237197*
X175500Y259700D02*
X183900Y268100D01*
X274036*
X300496Y241640*
Y237197*
X175800Y252100D02*
X190600Y266900D01*
X273268*
X298528Y241640*
Y237197*
X176000Y244000D02*
X197700Y265700D01*
X272499*
X296559Y241640*
Y237197*
X176200Y236100D02*
X204600Y264500D01*
X271731*
X294591Y241640*
Y237197*
X176300Y227600D02*
X212000Y263300D01*
X270962*
X292622Y241640*
Y237197*
X160000Y250000D02*
X167922Y242078D01*
X170222*
X176200Y236100*
X298528Y221449D02*
Y217006D01*
X299728Y215805*
X367720*
X367720D02*
X416000Y167526D01*
Y128000*
X296559Y221449D02*
X296850D01*
Y216986*
X299231Y214605*
X367224*
X414400Y167429*
Y134400*
X294591Y221449D02*
X294881D01*
Y217006*
X298482Y213405*
X366727*
X413200Y166932*
Y141200*
X292622Y221449D02*
X292913D01*
Y217006*
X297714Y212204*
X366231*
X412000Y166435*
Y148000*
X290654Y221449D02*
X290944D01*
Y217006*
X296947Y211003*
X365735*
X410150Y166588*
X288685Y221449D02*
X288976D01*
Y217006*
X296180Y209801*
X365239*
X408000Y167041*
Y160000*
X286717Y221449D02*
X287007D01*
Y217006*
X295414Y208599*
X362321*
X400070Y170850*
Y168070*
X284748Y221449D02*
X285039D01*
Y217006*
X294651Y207393*
X361830*
X397350Y171873*
X282780Y221449D02*
X283070D01*
Y217006*
X293889Y206187*
X361339*
X396150Y171376*
X280811Y221449D02*
X281102D01*
Y217006*
X293139Y204968*
X360861*
X394950Y170879*
Y134950*
X278843Y221449D02*
X279133D01*
Y217006*
X292439Y203700*
X325805*
X325835Y203730*
X360401*
X393750Y170382*
X276874Y221449D02*
X277165D01*
Y217006*
X291715Y202455*
X359980*
X392550Y169885*
Y148550*
X274906Y221449D02*
X275196D01*
Y217006*
X291097Y201105*
X359633*
X391350Y169388*
X272937Y221449D02*
X273228D01*
Y217006*
X290629Y199604*
X359437*
X390150Y168891*
Y165705*
X270969Y221449D02*
X271259D01*
Y217006*
X289944Y198321*
X357679*
X388000Y168000*
X269000Y221449D02*
Y200500D01*
X320000Y150000*
X265063Y221449D02*
Y184937D01*
X300000Y150000*
X263094Y221449D02*
Y176906D01*
X290000Y150000*
X261126Y221449D02*
Y168874D01*
X280000Y150000*
X259157Y221449D02*
Y187811D01*
X259400Y160600*
X270000Y150000*
X257189Y221449D02*
Y157911D01*
X260000Y155100*
Y150000*
X375900Y284100D02*
X381600Y289800D01*
Y301600*
X390000Y310000*
X302465Y221449D02*
X366051D01*
X420000Y167500*
Y112000*
X300496Y221449D02*
Y217006D01*
X368217*
X417200Y168023*
Y121200*
X385100Y287970D02*
X387970Y285100D01*
X395100*
X405000Y295000*
X415000*
X430000Y310000*
X385100Y287970D02*
Y302030D01*
X388070Y305000*
X391930*
X394900Y307970*
X390000Y290000D02*
X396100Y296100D01*
X390000Y280000D02*
X399000D01*
X404000Y285000*
X415000*
X425000Y295000*
X431930*
X434900Y297970*
X390000Y260000D02*
X396500D01*
X401500Y265000*
X415700*
X425700Y275000*
X431930*
X438500Y281570*
X390000Y250000D02*
X399000D01*
X404000Y255000*
X431930*
X442100Y265170*
X410000Y280000D02*
X419000D01*
X424000Y285000*
X431930*
X436100Y289170*
X410000Y260000D02*
X415700D01*
X420700Y265000*
X431930*
X439700Y272770*
X430000Y280000D02*
X437300Y287300D01*
X430000Y260000D02*
X440900Y270900D01*
X430000Y250000D02*
X443300Y263300D01*
X298528Y313181D02*
Y308738D01*
X299765Y307500*
X303887*
X368000Y371613*
Y416000*
X380000Y428000*
X298528Y328929D02*
Y391828D01*
X300000Y393300*
Y400000*
X296559Y313181D02*
Y308738D01*
X298997Y306300*
X304384*
X371286Y373202*
Y415286*
X380000Y424000*
X294591Y313181D02*
Y308738D01*
X298228Y305100*
X304881*
X372552Y372771*
Y404998*
X376000Y408445*
Y412000*
X292622Y313181D02*
Y308738D01*
X297460Y303900*
X305378*
X373801Y372323*
Y398246*
X376000Y400445*
Y404000*
X290654Y313181D02*
Y308738D01*
X296691Y302700*
X305875*
X376000Y372825*
Y396000*
X288685Y313181D02*
Y308738D01*
X295923Y301500*
X306372*
X377525Y372653*
Y382020*
X379900Y384395*
Y388000*
X286717Y313181D02*
Y308738D01*
X295154Y300300*
X306870*
X306870D02*
X380000Y373430D01*
X380000D02*
Y380000D01*
X284748Y313181D02*
Y308738D01*
X294386Y299100*
X307367*
X384300Y376033*
Y376100*
X384900Y379300*
X282780Y313181D02*
Y308738D01*
X293617Y297900*
X308941*
X390350Y379309*
Y385550*
X280811Y313181D02*
Y308738D01*
X292849Y296700*
X309438*
X391550Y378812*
Y392450*
X278843Y313181D02*
Y308738D01*
X292080Y295500*
X309935*
X392750Y378315*
Y398650*
X276874Y313181D02*
X277165D01*
Y308719*
X291583Y294300*
X310432*
X393950Y377818*
Y405050*
X274906Y313181D02*
Y311177D01*
X275486Y308700*
X291086Y293100*
X310929*
X395200Y377371*
Y405000*
X400900Y410700*
X272937Y313181D02*
X273228D01*
Y308738*
X290065Y291900*
X311426*
X399600Y380074*
Y397700*
X409000Y407100*
X270969Y313181D02*
Y311101D01*
X271568Y308700*
X289568Y290700*
X311923*
X405300Y384077*
Y394395*
X410700Y399795*
Y404000*
X269000Y313181D02*
X269291D01*
Y308738*
X288528Y289500*
X312420*
X412000Y389080*
Y396000*
X267031Y313181D02*
X267322D01*
Y308738*
X287760Y288300*
X316610*
X356310Y328000*
X372000*
X265063Y313181D02*
X265354D01*
Y308719*
X286972Y287100*
X320800*
X357900Y324200*
X376000*
X263094Y313181D02*
X263385D01*
Y308719*
X286204Y285900*
X333500*
X362600Y315000*
X375000*
X261126Y313181D02*
X261417D01*
Y308719*
X285435Y284700*
X343400*
X366700Y308000*
X376200*
X259157Y313181D02*
Y311177D01*
X259738Y308700*
X284938Y283500*
X347500*
X364400Y300400*
X376000*
X257189Y313181D02*
Y308738D01*
X283627Y282300*
X353700*
X363500Y292100*
X375900*
X255220Y313181D02*
Y308738D01*
X283958Y280000*
X371800*
X375900Y284100*
X372000Y328000D02*
X380627D01*
X396100Y312527*
Y296100*
X376000Y300400D02*
X381310Y305710D01*
Y308240*
X387970Y314900*
X392030*
X394900Y312030*
Y307970*
X302465Y313181D02*
Y316134D01*
X363700Y377369*
Y427400*
X380200Y443900*
X380300Y443800*
X300496Y313181D02*
Y309743D01*
X301539Y308700*
X303390*
X366700Y372010*
Y422300*
X380000Y435600*
Y435500*
X300496Y328929D02*
Y390200D01*
X310000Y400000*
X384900Y379300D02*
X384959Y379289D01*
X385000Y379500*
Y410641*
X388559Y414200*
X408632*
X438500Y384332*
Y281570*
X132700Y385765D02*
X182465Y336000D01*
X240325*
X241325Y337000*
X258653*
X262600Y333053*
X263094Y328929*
X132700Y385765D02*
Y404400D01*
X136000Y407900*
X131500Y385268D02*
X181968Y334800D01*
X243470*
X244470Y335800*
X258156*
X260556Y333400*
X261126Y330898*
Y328929*
X131500Y385268D02*
Y411500D01*
X135900Y415900*
X130300Y384771D02*
X181471Y333600D01*
X246615*
X247615Y334600*
X257658*
X258867Y333392*
Y328929*
X259157*
X130300Y384771D02*
Y418200D01*
X136100Y424000*
X129100Y384274D02*
X180974Y332400D01*
X248829*
X249829Y333400*
X257161*
X257189Y333372*
Y328929*
X129100Y384274D02*
Y425000D01*
X136200Y432100*
X127900Y383700D02*
X182671Y328929D01*
X255220*
X127900Y383700D02*
Y431800D01*
X136000Y439900*
X133900Y394545D02*
Y386262D01*
X182962Y337200*
X237493*
X238493Y338200*
X259230*
X265063Y332367*
Y328929*
X133900Y394545D02*
X134100Y398400D01*
X135900Y400200*
X138400Y386500D02*
X185300Y339600D01*
X233847*
X234847Y340600*
X261482*
X268709Y333372*
Y328929*
X269000*
X136100Y392200D02*
Y385759D01*
X183459Y338400*
X234661*
X235661Y339400*
X260442*
X266442Y333400*
X267031Y330980*
Y328929*
X160750Y382612D02*
X195362Y348000D01*
X229936*
X230936Y349000*
X266881*
X282489Y333392*
Y328929*
X282780*
X160750Y382612D02*
Y393150D01*
X164100Y396500*
Y399900*
X159550Y382115D02*
X194865Y346800D01*
X230435*
X231435Y347800*
X266112*
X280520Y333392*
Y328929*
X280811*
X159550Y382115D02*
Y403350D01*
X163900Y407700*
X158350Y381618D02*
X194368Y345600D01*
X230936*
X231936Y346600*
X265344*
X278552Y333392*
Y328929*
X278843*
X158350Y381618D02*
Y410050D01*
X164100Y415800*
X157150Y381121D02*
X193871Y344400D01*
X231440*
X232440Y345400*
X264575*
X276583Y333392*
Y328929*
X276874*
X157150Y381121D02*
Y416950D01*
X164200Y424000*
X155950Y380624D02*
X193374Y343200D01*
X231952*
X232952Y344200*
X263807*
X274615Y333392*
Y328929*
X274906*
X155950Y380624D02*
Y423250D01*
X164100Y431400*
X154750Y380127D02*
X192877Y342000D01*
X232493*
X233493Y343000*
X262767*
X272367Y333400*
X272937Y330898*
Y328929*
X154750Y380127D02*
Y425950D01*
X164100Y435300*
X161950Y383109D02*
X195859Y349200D01*
X229438*
X230438Y350200*
X267649*
X284457Y333392*
Y328929*
X284748*
X161950Y383109D02*
Y386350D01*
X163900Y388300*
Y392000*
X164100Y384000D02*
X197700Y350400D01*
X228941*
X229941Y351400*
X268146*
X286146Y333400*
X286717Y330898*
Y328929*
X153000Y436100D02*
Y380180D01*
X192380Y340800*
X233170*
X234170Y341800*
X261979*
X270379Y333400*
X270969Y330980*
Y328929*
X290000Y400000D02*
X296559Y393441D01*
Y328929*
X280000Y400000D02*
X294591Y385803D01*
Y328929*
X270000Y400000D02*
X292622Y377772D01*
Y328929*
X260000Y400000D02*
X290654Y369346D01*
Y328929*
X250000Y400000D02*
X288685Y361709D01*
Y328929*
X320000Y400000D02*
X302200Y382200D01*
Y357173*
X302465Y356909*
Y328929*
X376000Y412000D02*
X383000Y419000D01*
X410620*
X443300Y386320*
Y263300*
X376000Y396000D02*
Y398449D01*
X378400Y400849*
Y409132*
X387068Y417800*
X410123*
X442100Y385823*
Y265170*
X379900Y388000D02*
Y408935D01*
X387565Y416600*
X409626*
X440900Y385326*
Y270900*
X380000Y380000D02*
X383200Y383200D01*
Y410538*
X388062Y415400*
X409129*
X439700Y384829*
Y272770*
X387900Y388000D02*
X390350Y385550D01*
X387800Y396200D02*
X391550Y392450D01*
X388100Y403300D02*
X392750Y398650D01*
X393950Y405050D02*
X388200Y410800D01*
X390400Y413000*
X408135*
X437300Y383835*
Y287300*
X400900Y410700D02*
X408738D01*
X436100Y383338*
Y289170*
X409000Y407100D02*
X411200Y406541D01*
X434900Y382841*
Y297970*
G54D113*
X160000Y240000D03*
Y250000D03*
Y260000D03*
Y270000D03*
Y280000D03*
Y290000D03*
Y300000D03*
Y310000D03*
X140000Y230000D03*
Y240000D03*
Y250000D03*
Y260000D03*
Y270000D03*
Y280000D03*
Y290000D03*
Y300000D03*
Y310000D03*
X120000Y240000D03*
Y250000D03*
Y260000D03*
Y270000D03*
Y280000D03*
Y290000D03*
Y300000D03*
Y310000D03*
X430000Y240000D03*
Y250000D03*
Y260000D03*
Y270000D03*
Y280000D03*
Y290000D03*
Y300000D03*
Y310000D03*
X410000Y230000D03*
Y240000D03*
Y250000D03*
Y260000D03*
Y270000D03*
Y280000D03*
Y290000D03*
Y300000D03*
Y310000D03*
X390000Y240000D03*
Y250000D03*
Y260000D03*
Y270000D03*
Y280000D03*
Y290000D03*
Y300000D03*
Y310000D03*
X250000Y400000D03*
X260000D03*
X270000D03*
X280000D03*
X290000D03*
X300000D03*
X310000D03*
X320000D03*
X240000Y420000D03*
X250000D03*
X260000D03*
X270000D03*
X280000D03*
X290000D03*
X300000D03*
X310000D03*
X320000D03*
X250000Y440000D03*
X260000D03*
X270000D03*
X280000D03*
X290000D03*
X300000D03*
X310000D03*
X320000D03*
X250000Y110000D03*
X260000D03*
X270000D03*
X280000D03*
X290000D03*
X300000D03*
X310000D03*
X320000D03*
X240000Y130000D03*
X250000D03*
X260000D03*
X270000D03*
X280000D03*
X290000D03*
X300000D03*
X310000D03*
X320000D03*
X250000Y150000D03*
X260000D03*
X270000D03*
X280000D03*
X290000D03*
X300000D03*
X310000D03*
X320000D03*
G54D130*
X140000Y138000D03*
X143700Y132800D03*
X148000Y122000D03*
X154600Y120100D03*
X155900Y131800D03*
X155800Y139900D03*
X172000Y132000D03*
Y124000D03*
Y116000D03*
Y108000D03*
X408000Y136000D03*
Y112000D03*
Y128000D03*
X388000Y120000D03*
Y116000D03*
Y128000D03*
Y136000D03*
X408000Y120000D03*
X420000Y112000D03*
X132000Y154000D03*
X136000Y146000D03*
X156100Y147600D03*
X155900Y155800D03*
X172400Y171600D03*
X169700Y166300D03*
X170900Y155300D03*
X172000Y148000D03*
X171900Y140000D03*
X388000Y160000D03*
Y168000D03*
Y152000D03*
X408000Y144000D03*
Y160000D03*
Y152000D03*
X388000Y144000D03*
X400000Y168000D03*
X176000Y268000D03*
X175500Y259700D03*
X175800Y252100D03*
X176000Y244000D03*
X176200Y236100D03*
X176300Y227600D03*
X375900Y292100D03*
Y284100D03*
X372000Y328000D03*
X376000Y324200D03*
X375000Y315000D03*
X376200Y308000D03*
X376000Y300400D03*
X384900Y379300D03*
X138400Y386500D03*
X136100Y392200D03*
X135900Y400200D03*
X136000Y407900D03*
X135900Y415900D03*
X136100Y424000D03*
X136200Y432100D03*
X136000Y439900D03*
X164100Y384000D03*
X163900Y392000D03*
X164100Y399900D03*
X163900Y407700D03*
X164100Y415800D03*
X164200Y424000D03*
X164100Y431400D03*
Y435300D03*
X153000Y436100D03*
X376000Y412000D03*
Y404000D03*
Y396000D03*
X379900Y388000D03*
X380000Y435500D03*
Y428000D03*
Y424000D03*
Y380000D03*
X387900Y388000D03*
X387800Y396200D03*
X388100Y403300D03*
X388200Y410800D03*
X400900Y410700D03*
X409000Y407100D03*
X410700Y404000D03*
X412000Y396000D03*
X380300Y443800D03*
G54D159*
X255220Y237197D03*
Y221449D03*
X257189Y237197D03*
Y221449D03*
X259157Y237197D03*
Y221449D03*
X261126Y237197D03*
Y221449D03*
X263094Y237197D03*
Y221449D03*
X265063Y237197D03*
Y221449D03*
X267031Y237197D03*
Y221449D03*
X269000Y237197D03*
Y221449D03*
X270969Y237197D03*
Y221449D03*
X272937Y237197D03*
Y221449D03*
X274906Y237197D03*
Y221449D03*
X276874Y237197D03*
Y221449D03*
X278843Y237197D03*
Y221449D03*
X280811Y237197D03*
Y221449D03*
X282780Y237197D03*
Y221449D03*
X284748Y237197D03*
Y221449D03*
X286717Y237197D03*
Y221449D03*
X288685Y237197D03*
Y221449D03*
X290654Y237197D03*
Y221449D03*
X292622Y237197D03*
Y221449D03*
X294591Y237197D03*
Y221449D03*
X296559Y237197D03*
Y221449D03*
X298528Y237197D03*
Y221449D03*
X300496Y237197D03*
Y221449D03*
X302465Y237197D03*
Y221449D03*
X255220Y328929D03*
Y313181D03*
X257189Y328929D03*
Y313181D03*
X259157Y328929D03*
Y313181D03*
X261126Y328929D03*
Y313181D03*
X263094Y328929D03*
Y313181D03*
X265063Y328929D03*
Y313181D03*
X267031Y328929D03*
Y313181D03*
X269000Y328929D03*
Y313181D03*
X270969Y328929D03*
Y313181D03*
X272937Y328929D03*
Y313181D03*
X274906Y328929D03*
Y313181D03*
X276874Y328929D03*
Y313181D03*
X278843Y328929D03*
Y313181D03*
X280811Y328929D03*
Y313181D03*
X282780Y328929D03*
Y313181D03*
X284748Y328929D03*
Y313181D03*
X286717Y328929D03*
Y313181D03*
X288685Y328929D03*
Y313181D03*
X290654Y328929D03*
Y313181D03*
X292622Y328929D03*
Y313181D03*
X294591Y328929D03*
Y313181D03*
X296559Y328929D03*
Y313181D03*
X298528Y328929D03*
Y313181D03*
X300496Y328929D03*
Y313181D03*
X302465Y328929D03*
Y313181D03*
X0Y0D02*
M02*
