*
*
G04 PADS 9.5 Build Number: 522968 generated Gerber (RS-274-X) file*
G04 PC Version=2.1*
*
%IN "MCollar_INTERFACE_worki"*%
*
%MOIN*%
*
%FSLAX35Y35*%
*
*
*
*
G04 PC Standard Apertures*
*
*
G04 Thermal Relief Aperture macro.*
%AMTER*
1,1,$1,0,0*
1,0,$1-$2,0,0*
21,0,$3,$4,0,0,45*
21,0,$3,$4,0,0,135*
%
*
*
G04 Annular Aperture macro.*
%AMANN*
1,1,$1,0,0*
1,0,$2,0,0*
%
*
*
G04 Odd Aperture macro.*
%AMODD*
1,1,$1,0,0*
1,0,$1-0.005,0,0*
%
*
*
G04 PC Custom Aperture Macros*
*
*
*
*
*
*
G04 PC Aperture Table*
*
%ADD010C,0.001*%
%ADD012C,0.005*%
%ADD013C,0.01*%
%ADD019C,0.00787*%
*
*
*
*
G04 PC Circuitry*
G04 Layer Name MCollar_INTERFACE_worki - circuitry*
%LPD*%
*
*
G04 PC Custom Flashes*
G04 Layer Name MCollar_INTERFACE_worki - flashes*
%LPD*%
*
*
G04 PC Circuitry*
G04 Layer Name MCollar_INTERFACE_worki - circuitry*
%LPD*%
*
G54D10*
G54D12*
G01X111861Y106561D02*
X114761D01*
Y103361*
X111861*
X110161Y106561D02*
X107261D01*
Y103361*
X110161*
X110139Y128439D02*
X107239D01*
Y131639*
X110139*
X111839Y128439D02*
X114739D01*
Y131639*
X111839*
X220361Y246739D02*
Y243839D01*
X217161*
Y246739*
X220361Y248439D02*
Y251339D01*
X217161*
Y248439*
X111861Y114561D02*
X114761D01*
Y111361*
X111861*
X110161Y114561D02*
X107261D01*
Y111361*
X110161*
X110139Y120439D02*
X107239D01*
Y123639*
X110139*
X111839Y120439D02*
X114739D01*
Y123639*
X111839*
X202939Y248039D02*
X200039D01*
Y251239*
X202939*
X204639Y248039D02*
X207539D01*
Y251239*
X204639*
X104977Y105500D02*
X105045Y105688D01*
X105045D02*
X105182Y105875D01*
X105318Y105969*
X105591*
X105727Y105875*
X105864Y105688*
X105864D02*
X105932Y105500D01*
X106000Y105219*
Y104750*
X105932Y104469*
X105864Y104281*
X105727Y104094*
X105591Y104000*
X105318*
X105182Y104094*
X105045Y104281*
X104977Y104469*
X104364Y105594D02*
X104227Y105688D01*
X104227D02*
X104023Y105969D01*
Y104000*
X105023Y129500D02*
X104955Y129312D01*
X104955D02*
X104818Y129125D01*
X104682Y129031*
X104409*
X104273Y129125*
X104136Y129312*
X104136D02*
X104068Y129500D01*
X104000Y129781*
Y130250*
X104068Y130531*
X104136Y130719*
X104273Y130906*
X104409Y131000*
X104682*
X104818Y130906*
X104955Y130719*
X105023Y130531*
X105705Y129500D02*
Y129406D01*
X105773Y129219*
X105841Y129125*
X105977Y129031*
X106250*
X106386Y129125*
X106455Y129219*
X106523Y129406*
Y129594*
X106455Y129781*
X106318Y130062*
X106318D02*
X105636Y131000D01*
X106591*
X219300Y241623D02*
X219488Y241555D01*
X219488D02*
X219675Y241418D01*
X219769Y241282*
Y241009*
X219675Y240873*
X219488Y240736*
X219488D02*
X219300Y240668D01*
X219019Y240600*
X218550*
X218269Y240668*
X218081Y240736*
X217894Y240873*
X217800Y241009*
Y241282*
X217894Y241418*
X218081Y241555*
X218269Y241623*
X219769Y242918D02*
X218456Y242236D01*
Y243259*
X219769Y242918D02*
X217800D01*
X117977Y113500D02*
X118045Y113688D01*
X118045D02*
X118182Y113875D01*
X118318Y113969*
X118591*
X118727Y113875*
X118864Y113688*
X118864D02*
X118932Y113500D01*
X119000Y113219*
Y112750*
X118932Y112469*
X118864Y112281*
X118727Y112094*
X118591Y112000*
X118318*
X118182Y112094*
X118045Y112281*
X117977Y112469*
X117364Y113594D02*
X117227Y113688D01*
X117227D02*
X117023Y113969D01*
Y112000*
X116000Y113969D02*
X116205Y113875D01*
X116341Y113594*
X116409Y113125*
Y112844*
X116341Y112375*
X116205Y112094*
X116000Y112000*
X115864*
X115659Y112094*
X115523Y112375*
X115455Y112844*
Y113125*
X115523Y113594*
X115659Y113875*
X115864Y113969*
X116000*
X105023Y121500D02*
X104955Y121312D01*
X104955D02*
X104818Y121125D01*
X104682Y121031*
X104409*
X104273Y121125*
X104136Y121312*
X104136D02*
X104068Y121500D01*
X104000Y121781*
Y122250*
X104068Y122531*
X104136Y122719*
X104273Y122906*
X104409Y123000*
X104682*
X104818Y122906*
X104955Y122719*
X105023Y122531*
X106523Y121687D02*
X106455Y121969D01*
X106318Y122156*
X106114Y122250*
X106045*
X105841Y122156*
X105705Y121969*
X105636Y121687*
X105636D02*
Y121594D01*
X105705Y121312*
X105705D02*
X105841Y121125D01*
X106045Y121031*
X106114*
X106318Y121125*
X106455Y121312*
X106455D02*
X106523Y121687D01*
X106523D02*
Y122156D01*
X106455Y122625*
X106318Y122906*
X106114Y123000*
X105977*
X105773Y122906*
X105705Y122719*
X197823Y249100D02*
X197755Y248912D01*
X197755D02*
X197618Y248725D01*
X197482Y248631*
X197209*
X197073Y248725*
X196936Y248912*
X196936D02*
X196868Y249100D01*
X196800Y249381*
Y249850*
X196868Y250131*
X196936Y250319*
X197073Y250506*
X197209Y250600*
X197482*
X197618Y250506*
X197755Y250319*
X197823Y250131*
X198573Y248631D02*
X199323D01*
X198914Y249381*
X199118*
X199255Y249475*
X199323Y249569*
X199391Y249850*
Y250037*
X199391D02*
X199323Y250319D01*
X199186Y250506*
X198982Y250600*
X198777*
X198573Y250506*
X198505Y250412*
X198505D02*
X198436Y250225D01*
X206800Y233881D02*
Y231538D01*
X206800D02*
X206686Y231069D01*
X206459Y230756*
X206118Y230600*
X205891*
X205550Y230756*
X205323Y231069*
X205209Y231538*
X205209D02*
Y233881D01*
X204186Y233256D02*
X203959Y233413D01*
X203959D02*
X203618Y233881D01*
Y230600*
X206000Y210625D02*
Y208750D01*
X205909Y208375*
X205727Y208125*
X205455Y208000*
X205273*
X205000Y208125*
X204818Y208375*
X204727Y208750*
Y210625*
X203909Y210125D02*
X203727Y210250D01*
X203455Y210625*
Y208000*
X202091Y210625D02*
X202364Y210500D01*
X202545Y210125*
X202636Y209500*
Y209125*
X202545Y208500*
X202364Y208125*
X202091Y208000*
X201909*
X201636Y208125*
X201455Y208500*
X201364Y209125*
Y209500*
X201455Y210125*
X201636Y210500*
X201909Y210625*
X202091*
X220000Y179625D02*
Y177750D01*
X219909Y177375*
X219727Y177125*
X219455Y177000*
X219273*
X219000Y177125*
X218818Y177375*
X218727Y177750*
Y179625*
X216727Y178750D02*
X216818Y178375D01*
X217000Y178125*
X217273Y178000*
X217364*
X217636Y178125*
X217818Y178375*
X217909Y178750*
Y178875*
X217818Y179250*
X217636Y179500*
X217364Y179625*
X217273*
X217000Y179500*
X216818Y179250*
X216727Y178750*
Y178125*
X216818Y177500*
X217000Y177125*
X217273Y177000*
X217455*
X217727Y177125*
X217818Y177375*
X131000Y136719D02*
Y139062D01*
X131000D02*
X131114Y139531D01*
X131341Y139844*
X131682Y140000*
X131909*
X132250Y139844*
X132477Y139531*
X132591Y139062*
X132591D02*
Y136719D01*
X133727Y137500D02*
Y137344D01*
X133841Y137031*
X133955Y136875*
X134182Y136719*
X134636*
X134864Y136875*
X134977Y137031*
X135091Y137344*
Y137656*
X134977Y137969*
X134750Y138437*
X134750D02*
X133614Y140000D01*
X135205*
X163625Y214000D02*
X161750D01*
X161375Y214091*
X161125Y214273*
X161000Y214545*
Y214727*
X161125Y215000*
X161375Y215182*
X161750Y215273*
X163625*
Y216273D02*
Y217273D01*
X162625Y216727*
Y217000*
X162500Y217182*
X162375Y217273*
X162000Y217364*
X161750*
X161375Y217273*
X161125Y217091*
X161000Y216818*
Y216545*
X161125Y216273*
X161250Y216182*
X161500Y216091*
X178375Y216000D02*
X180250D01*
X180625Y215909*
X180875Y215727*
X181000Y215455*
Y215273*
X180875Y215000*
X180625Y214818*
X180250Y214727*
X178375*
X178750Y212818D02*
X178500Y212909D01*
X178375Y213182*
Y213364*
X178500Y213636*
X178875Y213818*
X179500Y213909*
X180125*
X180625Y213818*
X180875Y213636*
X181000Y213364*
Y213273*
X180875Y213000*
X180625Y212818*
X180250Y212727*
X180125*
X179750Y212818*
X179500Y213000*
X179375Y213273*
Y213364*
X179500Y213636*
X179750Y213818*
X180125Y213909*
X136625Y214000D02*
X134750D01*
X134375Y214091*
X134125Y214273*
X134000Y214545*
Y214727*
X134125Y215000*
X134375Y215182*
X134750Y215273*
X136625*
Y217273D02*
Y216364D01*
X135500Y216273*
X135625Y216364*
X135750Y216636*
Y216909*
X135625Y217182*
X135375Y217364*
X135000Y217455*
X134750Y217364*
X134375Y217273*
X134125Y217091*
X134000Y216818*
Y216545*
X134125Y216273*
X134250Y216182*
X134500Y216091*
X113000Y207625D02*
Y205750D01*
X112909Y205375*
X112727Y205125*
X112455Y205000*
X112273*
X112000Y205125*
X111818Y205375*
X111727Y205750*
Y207625*
X110000D02*
X110909Y205875D01*
X109545*
X110000Y207625D02*
Y205000D01*
X133000Y120969D02*
Y119563D01*
X133000D02*
X132932Y119281D01*
X132795Y119094*
X132591Y119000*
X132455*
X132250Y119094*
X132114Y119281*
X132045Y119563*
X132045D02*
Y120969D01*
X130477D02*
X131159Y119000D01*
X131432Y120969D02*
X130477D01*
G54D13*
X100000Y98000D02*
X270000D01*
Y162900*
X298400*
Y184700*
X294400*
Y189500*
X298200*
Y205400*
X294400*
Y211100*
X270000*
Y268000*
X100000*
Y98000*
G54D19*
X207189Y245610D02*
X204246D01*
Y244909*
X203754*
Y245610*
X200811*
Y234390*
X207189*
Y245610*
X210886Y206535D02*
X199142D01*
Y194661*
X210886*
Y206535*
X209746Y205000D02*
G75*
G03X209746I-317J0D01*
G01X223886Y175535D02*
X212142D01*
Y163661*
X223886*
Y175535*
X222746Y174000D02*
G03X222746I-317J0D01*
G01X129811Y124390D02*
X132754D01*
Y125091*
X133246*
Y124390*
X136189*
Y135610*
X129811*
Y124390*
X159839Y212756D02*
Y214951D01*
X159359*
Y215049*
X159839*
Y217205*
X152161*
Y212756*
X159839*
X182161Y217244D02*
Y215049D01*
X182641*
Y214951*
X182161*
Y212795*
X189839*
Y217244*
X182161*
X132839Y212756D02*
Y214951D01*
X132359*
Y215049*
X132839*
Y217205*
X125161*
Y212756*
X132839*
X114244Y203839D02*
X112049D01*
Y203359*
X111951*
Y203839*
X109795*
Y196161*
X114244*
Y203839*
X135465Y118118D02*
X132827D01*
Y116984*
X130898Y116976*
Y118118*
X128693*
Y107882*
X135465*
Y118118*
G74*
X0Y0D02*
M02*
