*
*
G04 PADS 9.5 Build Number: 522968 generated Gerber (RS-274-X) file*
G04 PC Version=2.1*
*
%IN "MCollar_INTERFACE_worki"*%
*
%MOIN*%
*
%FSLAX35Y35*%
*
*
*
*
G04 PC Standard Apertures*
*
*
G04 Thermal Relief Aperture macro.*
%AMTER*
1,1,$1,0,0*
1,0,$1-$2,0,0*
21,0,$3,$4,0,0,45*
21,0,$3,$4,0,0,135*
%
*
*
G04 Annular Aperture macro.*
%AMANN*
1,1,$1,0,0*
1,0,$2,0,0*
%
*
*
G04 Odd Aperture macro.*
%AMODD*
1,1,$1,0,0*
1,0,$1-0.005,0,0*
%
*
*
G04 PC Custom Aperture Macros*
*
*
*
*
*
*
G04 PC Aperture Table*
*
%ADD010C,0.001*%
%ADD013C,0.01*%
%ADD016C,0.006*%
%ADD018C,0.05*%
%ADD113C,0.08*%
%ADD118C,0.06*%
%ADD130C,0.025*%
%ADD167R,0.02362X0.02*%
%ADD168R,0.02X0.02362*%
%ADD170R,0.03937X0.02165*%
%ADD171R,0.04094X0.01181*%
%ADD172R,0.01575X0.03937*%
%ADD173R,0.03937X0.01575*%
%ADD174R,0.06102X0.00984*%
%ADD186C,0.11*%
%ADD187R,0.01575X0.07874*%
*
*
*
*
G04 PC Circuitry*
G04 Layer Name MCollar_INTERFACE_worki - circuitry*
%LPD*%
*
*
G04 PC Custom Flashes*
G04 Layer Name MCollar_INTERFACE_worki - flashes*
%LPD*%
*
*
G04 PC Circuitry*
G04 Layer Name MCollar_INTERFACE_worki - circuitry*
%LPD*%
*
G54D10*
G01X255650Y167000D02*
G75*
G03X255650I-4650J0D01*
G01Y177000D02*
G03X255650I-4650J0D01*
G01Y187000D02*
G03X255650I-4650J0D01*
G01Y197000D02*
G03X255650I-4650J0D01*
G01Y207000D02*
G03X255650I-4650J0D01*
G01X351950Y247940D02*
Y261560D01*
G03X351948Y261575I-50J-0*
G01X351850Y262200D02*
G03X351948Y261575I2050J0D01*
G01X351850Y262200D02*
Y265900D01*
G03X351800Y265950I-50J-0*
G01X242100*
G03X242050Y265900I0J-50*
G01Y257000*
G03X242100Y256950I50J0*
G01X248930*
X249601Y256672D02*
G03X248930Y256950I-671J-672D01*
G01X249601Y256672D02*
X256672Y249601D01*
X256950Y248930D02*
G03X256672Y249601I-950J-0D01*
G01X256950Y248930D02*
Y222000D01*
X256672Y221328D02*
G03X256950Y222000I-672J672D01*
G01X256672Y221328D02*
X254919Y219576D01*
G03X254912Y219513I35J-36*
G01X253513Y220912D02*
G03X254912Y219513I-2513J-3912D01*
G01X253513Y220912D02*
G03X253576Y220919I27J42D01*
G01X255035Y222379*
G03X255050Y222414I-35J35*
G01Y224532*
G03X254957Y224558I-50J0*
G01X247088Y229513D02*
G03X254957Y224558I3912J-2513D01*
G01X247088Y229513D02*
G03X247081Y229576I-42J27D01*
G01X242135Y234521*
G03X242050Y234486I-35J-35*
G01Y167597*
G03X242065Y167562I50J0*
G01X248600Y161026*
G03X248660Y161019I35J36*
G01X252189Y152504D02*
G03X248660Y161019I-1189J4496D01*
G01X252189Y152504D02*
G03X252152Y152456I13J-48D01*
G01X252152*
X252169Y146100*
G03X252219Y146050I50J0*
G01X327900*
G03X327950Y146100I-0J50*
G01Y220800*
Y220809D02*
G03Y220800I2050J-9D01*
G01Y220809D02*
X327950D01*
Y222050*
X328351*
G03X328390Y222069I-0J50*
G01X330000Y222850D02*
G03X328390Y222069I0J-2050D01*
G01X330000Y222850D02*
X351900D01*
G03X351950Y222900I0J50*
G01Y240960*
G03X351948Y240975I-50J-0*
G01X351850Y241600D02*
G03X351948Y240975I2050J0D01*
G01X351850Y241600D02*
Y247300D01*
X351948Y247925D02*
G03X351850Y247300I1952J-625D01*
G01X351948Y247925D02*
G03X351950Y247940I-48J15D01*
G01X255650Y167000D02*
G03X255650I-4650J0D01*
G01Y177000D02*
G03X255650I-4650J0D01*
G01Y187000D02*
G03X255650I-4650J0D01*
G01Y197000D02*
G03X255650I-4650J0D01*
G01Y207000D02*
G03X255650I-4650J0D01*
G01X242050Y261519D02*
X351950D01*
X242050Y261429D02*
X351950D01*
X242050Y261339D02*
X351950D01*
X242050Y261249D02*
X351950D01*
X242050Y261159D02*
X351950D01*
X242050Y261069D02*
X351950D01*
X242050Y260979D02*
X351950D01*
X242050Y260889D02*
X351950D01*
X242050Y260799D02*
X351950D01*
X242050Y260709D02*
X351950D01*
X242050Y260619D02*
X351950D01*
X242050Y260529D02*
X351950D01*
X242050Y260439D02*
X351950D01*
X242050Y260349D02*
X351950D01*
X242050Y260259D02*
X351950D01*
X242050Y260169D02*
X351950D01*
X242050Y260079D02*
X351950D01*
X242050Y259989D02*
X351950D01*
X242050Y259899D02*
X351950D01*
X242050Y259809D02*
X351950D01*
X242050Y259719D02*
X351950D01*
X242050Y259629D02*
X351950D01*
X242050Y259539D02*
X351950D01*
X242050Y259449D02*
X351950D01*
X242050Y259359D02*
X351950D01*
X242050Y259269D02*
X351950D01*
X242050Y259179D02*
X351950D01*
X242050Y259089D02*
X351950D01*
X242050Y258999D02*
X351950D01*
X242050Y258909D02*
X351950D01*
X242050Y258819D02*
X351950D01*
X242050Y258729D02*
X351950D01*
X242050Y258639D02*
X351950D01*
X242050Y258549D02*
X351950D01*
X242050Y258459D02*
X351950D01*
X242050Y258369D02*
X351950D01*
X242050Y258279D02*
X351950D01*
X242050Y258189D02*
X351950D01*
X242050Y258099D02*
X351950D01*
X242050Y258009D02*
X351950D01*
X242050Y257919D02*
X351950D01*
X242050Y257829D02*
X351950D01*
X242050Y257739D02*
X351950D01*
X242050Y257649D02*
X351950D01*
X242050Y257559D02*
X351950D01*
X242050Y257469D02*
X351950D01*
X242050Y257379D02*
X351950D01*
X242050Y257289D02*
X351950D01*
X242050Y257199D02*
X351950D01*
X242050Y257109D02*
X351950D01*
X242050Y257019D02*
X351950D01*
X249130Y256929D02*
X351950D01*
X249376Y256839D02*
X351950D01*
X249514Y256749D02*
X351950D01*
X249614Y256659D02*
X351950D01*
X249704Y256569D02*
X351950D01*
X249794Y256479D02*
X351950D01*
X249884Y256389D02*
X351950D01*
X249974Y256299D02*
X351950D01*
X250064Y256209D02*
X351950D01*
X250154Y256119D02*
X351950D01*
X250244Y256029D02*
X351950D01*
X250334Y255939D02*
X351950D01*
X250424Y255849D02*
X351950D01*
X250514Y255759D02*
X351950D01*
X250604Y255669D02*
X351950D01*
X250694Y255579D02*
X351950D01*
X250784Y255489D02*
X351950D01*
X250874Y255399D02*
X351950D01*
X250964Y255309D02*
X351950D01*
X251054Y255219D02*
X351950D01*
X251144Y255129D02*
X351950D01*
X251234Y255039D02*
X351950D01*
X251324Y254949D02*
X351950D01*
X251414Y254859D02*
X351950D01*
X251504Y254769D02*
X351950D01*
X251594Y254679D02*
X351950D01*
X251684Y254589D02*
X351950D01*
X251774Y254499D02*
X351950D01*
X251864Y254409D02*
X351950D01*
X251954Y254319D02*
X351950D01*
X252044Y254229D02*
X351950D01*
X252134Y254139D02*
X351950D01*
X252224Y254049D02*
X351950D01*
X252314Y253959D02*
X351950D01*
X252404Y253869D02*
X351950D01*
X252494Y253779D02*
X351950D01*
X252584Y253689D02*
X351950D01*
X252674Y253599D02*
X351950D01*
X252764Y253509D02*
X351950D01*
X252854Y253419D02*
X351950D01*
X252944Y253329D02*
X351950D01*
X253034Y253239D02*
X351950D01*
X253124Y253149D02*
X351950D01*
X253214Y253059D02*
X351950D01*
X253304Y252969D02*
X351950D01*
X253394Y252879D02*
X351950D01*
X253484Y252789D02*
X351950D01*
X253574Y252699D02*
X351950D01*
X253664Y252609D02*
X351950D01*
X253754Y252519D02*
X351950D01*
X253844Y252429D02*
X351950D01*
X253934Y252339D02*
X351950D01*
X254024Y252249D02*
X351950D01*
X254114Y252159D02*
X351950D01*
X254204Y252069D02*
X351950D01*
X254294Y251979D02*
X351950D01*
X254384Y251889D02*
X351950D01*
X254474Y251799D02*
X351950D01*
X254564Y251709D02*
X351950D01*
X254654Y251619D02*
X351950D01*
X254744Y251529D02*
X351950D01*
X254834Y251439D02*
X351950D01*
X254924Y251349D02*
X351950D01*
X255014Y251259D02*
X351950D01*
X255104Y251169D02*
X351950D01*
X255194Y251079D02*
X351950D01*
X255284Y250989D02*
X351950D01*
X255374Y250899D02*
X351950D01*
X255464Y250809D02*
X351950D01*
X255554Y250719D02*
X351950D01*
X255644Y250629D02*
X351950D01*
X255734Y250539D02*
X351950D01*
X255824Y250449D02*
X351950D01*
X255914Y250359D02*
X351950D01*
X256004Y250269D02*
X351950D01*
X256094Y250179D02*
X351950D01*
X256184Y250089D02*
X351950D01*
X256274Y249999D02*
X351950D01*
X256364Y249909D02*
X351950D01*
X256454Y249819D02*
X351950D01*
X256544Y249729D02*
X351950D01*
X256634Y249639D02*
X351950D01*
X256721Y249549D02*
X351950D01*
X256789Y249459D02*
X351950D01*
X256842Y249369D02*
X351950D01*
X256884Y249279D02*
X351950D01*
X256914Y249189D02*
X351950D01*
X256935Y249099D02*
X351950D01*
X256947Y249009D02*
X351950D01*
X256950Y248919D02*
X351950D01*
X256950Y248829D02*
X351950D01*
X256950Y248739D02*
X351950D01*
X256950Y248649D02*
X351950D01*
X256950Y248559D02*
X351950D01*
X256950Y248469D02*
X351950D01*
X256950Y248379D02*
X351950D01*
X256950Y248289D02*
X351950D01*
X256950Y248199D02*
X351950D01*
X256950Y248109D02*
X351950D01*
X256950Y248019D02*
X351950D01*
X256950Y240909D02*
X351950D01*
X256950Y240819D02*
X351950D01*
X256950Y240729D02*
X351950D01*
X256950Y240639D02*
X351950D01*
X256950Y240549D02*
X351950D01*
X256950Y240459D02*
X351950D01*
X256950Y240369D02*
X351950D01*
X256950Y240279D02*
X351950D01*
X256950Y240189D02*
X351950D01*
X256950Y240099D02*
X351950D01*
X256950Y240009D02*
X351950D01*
X256950Y239919D02*
X351950D01*
X256950Y239829D02*
X351950D01*
X256950Y239739D02*
X351950D01*
X256950Y239649D02*
X351950D01*
X256950Y239559D02*
X351950D01*
X256950Y239469D02*
X351950D01*
X256950Y239379D02*
X351950D01*
X256950Y239289D02*
X351950D01*
X256950Y239199D02*
X351950D01*
X256950Y239109D02*
X351950D01*
X256950Y239019D02*
X351950D01*
X256950Y238929D02*
X351950D01*
X256950Y238839D02*
X351950D01*
X256950Y238749D02*
X351950D01*
X256950Y238659D02*
X351950D01*
X256950Y238569D02*
X351950D01*
X256950Y238479D02*
X351950D01*
X256950Y238389D02*
X351950D01*
X256950Y238299D02*
X351950D01*
X256950Y238209D02*
X351950D01*
X256950Y238119D02*
X351950D01*
X256950Y238029D02*
X351950D01*
X256950Y237939D02*
X351950D01*
X256950Y237849D02*
X351950D01*
X256950Y237759D02*
X351950D01*
X256950Y237669D02*
X351950D01*
X256950Y237579D02*
X351950D01*
X256950Y237489D02*
X351950D01*
X256950Y237399D02*
X351950D01*
X256950Y237309D02*
X351950D01*
X256950Y237219D02*
X351950D01*
X256950Y237129D02*
X351950D01*
X256950Y237039D02*
X351950D01*
X256950Y236949D02*
X351950D01*
X256950Y236859D02*
X351950D01*
X256950Y236769D02*
X351950D01*
X256950Y236679D02*
X351950D01*
X256950Y236589D02*
X351950D01*
X256950Y236499D02*
X351950D01*
X256950Y236409D02*
X351950D01*
X256950Y236319D02*
X351950D01*
X256950Y236229D02*
X351950D01*
X256950Y236139D02*
X351950D01*
X256950Y236049D02*
X351950D01*
X256950Y235959D02*
X351950D01*
X256950Y235869D02*
X351950D01*
X256950Y235779D02*
X351950D01*
X256950Y235689D02*
X351950D01*
X256950Y235599D02*
X351950D01*
X256950Y235509D02*
X351950D01*
X256950Y235419D02*
X351950D01*
X256950Y235329D02*
X351950D01*
X256950Y235239D02*
X351950D01*
X256950Y235149D02*
X351950D01*
X256950Y235059D02*
X351950D01*
X256950Y234969D02*
X351950D01*
X256950Y234879D02*
X351950D01*
X256950Y234789D02*
X351950D01*
X256950Y234699D02*
X351950D01*
X256950Y234609D02*
X351950D01*
X256950Y234519D02*
X351950D01*
X256950Y234429D02*
X351950D01*
X256950Y234339D02*
X351950D01*
X256950Y234249D02*
X351950D01*
X256950Y234159D02*
X351950D01*
X256950Y234069D02*
X351950D01*
X256950Y233979D02*
X351950D01*
X256950Y233889D02*
X351950D01*
X256950Y233799D02*
X351950D01*
X256950Y233709D02*
X351950D01*
X256950Y233619D02*
X351950D01*
X256950Y233529D02*
X351950D01*
X256950Y233439D02*
X351950D01*
X256950Y233349D02*
X351950D01*
X256950Y233259D02*
X351950D01*
X256950Y233169D02*
X351950D01*
X256950Y233079D02*
X351950D01*
X256950Y232989D02*
X351950D01*
X256950Y232899D02*
X351950D01*
X256950Y232809D02*
X351950D01*
X256950Y232719D02*
X351950D01*
X256950Y232629D02*
X351950D01*
X256950Y232539D02*
X351950D01*
X256950Y232449D02*
X351950D01*
X256950Y232359D02*
X351950D01*
X256950Y232269D02*
X351950D01*
X256950Y232179D02*
X351950D01*
X256950Y232089D02*
X351950D01*
X256950Y231999D02*
X351950D01*
X256950Y231909D02*
X351950D01*
X256950Y231819D02*
X351950D01*
X256950Y231729D02*
X351950D01*
X256950Y231639D02*
X351950D01*
X256950Y231549D02*
X351950D01*
X256950Y231459D02*
X351950D01*
X256950Y231369D02*
X351950D01*
X256950Y231279D02*
X351950D01*
X256950Y231189D02*
X351950D01*
X256950Y231099D02*
X351950D01*
X256950Y231009D02*
X351950D01*
X256950Y230919D02*
X351950D01*
X256950Y230829D02*
X351950D01*
X256950Y230739D02*
X351950D01*
X256950Y230649D02*
X351950D01*
X256950Y230559D02*
X351950D01*
X256950Y230469D02*
X351950D01*
X256950Y230379D02*
X351950D01*
X256950Y230289D02*
X351950D01*
X256950Y230199D02*
X351950D01*
X256950Y230109D02*
X351950D01*
X256950Y230019D02*
X351950D01*
X256950Y229929D02*
X351950D01*
X256950Y229839D02*
X351950D01*
X256950Y229749D02*
X351950D01*
X256950Y229659D02*
X351950D01*
X256950Y229569D02*
X351950D01*
X256950Y229479D02*
X351950D01*
X256950Y229389D02*
X351950D01*
X256950Y229299D02*
X351950D01*
X256950Y229209D02*
X351950D01*
X256950Y229119D02*
X351950D01*
X256950Y229029D02*
X351950D01*
X256950Y228939D02*
X351950D01*
X256950Y228849D02*
X351950D01*
X256950Y228759D02*
X351950D01*
X256950Y228669D02*
X351950D01*
X256950Y228579D02*
X351950D01*
X256950Y228489D02*
X351950D01*
X256950Y228399D02*
X351950D01*
X256950Y228309D02*
X351950D01*
X256950Y228219D02*
X351950D01*
X256950Y228129D02*
X351950D01*
X256950Y228039D02*
X351950D01*
X256950Y227949D02*
X351950D01*
X256950Y227859D02*
X351950D01*
X256950Y227769D02*
X351950D01*
X256950Y227679D02*
X351950D01*
X256950Y227589D02*
X351950D01*
X256950Y227499D02*
X351950D01*
X256950Y227409D02*
X351950D01*
X256950Y227319D02*
X351950D01*
X256950Y227229D02*
X351950D01*
X256950Y227139D02*
X351950D01*
X256950Y227049D02*
X351950D01*
X256950Y226959D02*
X351950D01*
X256950Y226869D02*
X351950D01*
X256950Y226779D02*
X351950D01*
X256950Y226689D02*
X351950D01*
X256950Y226599D02*
X351950D01*
X256950Y226509D02*
X351950D01*
X256950Y226419D02*
X351950D01*
X256950Y226329D02*
X351950D01*
X256950Y226239D02*
X351950D01*
X256950Y226149D02*
X351950D01*
X256950Y226059D02*
X351950D01*
X256950Y225969D02*
X351950D01*
X256950Y225879D02*
X351950D01*
X256950Y225789D02*
X351950D01*
X256950Y225699D02*
X351950D01*
X256950Y225609D02*
X351950D01*
X256950Y225519D02*
X351950D01*
X256950Y225429D02*
X351950D01*
X256950Y225339D02*
X351950D01*
X256950Y225249D02*
X351950D01*
X256950Y225159D02*
X351950D01*
X256950Y225069D02*
X351950D01*
X256950Y224979D02*
X351950D01*
X256950Y224889D02*
X351950D01*
X256950Y224799D02*
X351950D01*
X256950Y224709D02*
X351950D01*
X256950Y224619D02*
X351950D01*
X256950Y224529D02*
X351950D01*
X256950Y224439D02*
X351950D01*
X256950Y224349D02*
X351950D01*
X256950Y224259D02*
X351950D01*
X256950Y224169D02*
X351950D01*
X256950Y224079D02*
X351950D01*
X256950Y223989D02*
X351950D01*
X256950Y223899D02*
X351950D01*
X256950Y223809D02*
X351950D01*
X256950Y223719D02*
X351950D01*
X256950Y223629D02*
X351950D01*
X256950Y223539D02*
X351950D01*
X256950Y223449D02*
X351950D01*
X256950Y223359D02*
X351950D01*
X256950Y223269D02*
X351950D01*
X256950Y223179D02*
X351950D01*
X256950Y223089D02*
X351950D01*
X256950Y222999D02*
X351950D01*
X256950Y222909D02*
X351950D01*
X256950Y247929D02*
X351949D01*
X256950Y240999D02*
X351940D01*
X242050Y261609D02*
X351937D01*
X256950Y247839D02*
X351922D01*
X256950Y241089D02*
X351915D01*
X242050Y261699D02*
X351912D01*
X256950Y247749D02*
X351900D01*
X256950Y241179D02*
X351894D01*
X242050Y261789D02*
X351892D01*
X256950Y247659D02*
X351882D01*
X256950Y241269D02*
X351877D01*
X242050Y261879D02*
X351875D01*
X256950Y247569D02*
X351868D01*
X256950Y241359D02*
X351864D01*
X242050Y261969D02*
X351863D01*
X256950Y247479D02*
X351858D01*
X256950Y241449D02*
X351856D01*
X242050Y262059D02*
X351855D01*
X256950Y247389D02*
X351852D01*
X256950Y241539D02*
X351851D01*
X242050Y262149D02*
X351851D01*
X242050Y265839D02*
X351850D01*
X242050Y265749D02*
X351850D01*
X242050Y265659D02*
X351850D01*
X242050Y265569D02*
X351850D01*
X242050Y265479D02*
X351850D01*
X242050Y265389D02*
X351850D01*
X242050Y265299D02*
X351850D01*
X242050Y265209D02*
X351850D01*
X242050Y265119D02*
X351850D01*
X242050Y265029D02*
X351850D01*
X242050Y264939D02*
X351850D01*
X242050Y264849D02*
X351850D01*
X242050Y264759D02*
X351850D01*
X242050Y264669D02*
X351850D01*
X242050Y264579D02*
X351850D01*
X242050Y264489D02*
X351850D01*
X242050Y264399D02*
X351850D01*
X242050Y264309D02*
X351850D01*
X242050Y264219D02*
X351850D01*
X242050Y264129D02*
X351850D01*
X242050Y264039D02*
X351850D01*
X242050Y263949D02*
X351850D01*
X242050Y263859D02*
X351850D01*
X242050Y263769D02*
X351850D01*
X242050Y263679D02*
X351850D01*
X242050Y263589D02*
X351850D01*
X242050Y263499D02*
X351850D01*
X242050Y263409D02*
X351850D01*
X242050Y263319D02*
X351850D01*
X242050Y263229D02*
X351850D01*
X242050Y263139D02*
X351850D01*
X242050Y263049D02*
X351850D01*
X242050Y262959D02*
X351850D01*
X242050Y262869D02*
X351850D01*
X242050Y262779D02*
X351850D01*
X242050Y262689D02*
X351850D01*
X242050Y262599D02*
X351850D01*
X242050Y262509D02*
X351850D01*
X242050Y262419D02*
X351850D01*
X242050Y262329D02*
X351850D01*
X242050Y262239D02*
X351850D01*
X256950Y247299D02*
X351850D01*
X256950Y247209D02*
X351850D01*
X256950Y247119D02*
X351850D01*
X256950Y247029D02*
X351850D01*
X256950Y246939D02*
X351850D01*
X256950Y246849D02*
X351850D01*
X256950Y246759D02*
X351850D01*
X256950Y246669D02*
X351850D01*
X256950Y246579D02*
X351850D01*
X256950Y246489D02*
X351850D01*
X256950Y246399D02*
X351850D01*
X256950Y246309D02*
X351850D01*
X256950Y246219D02*
X351850D01*
X256950Y246129D02*
X351850D01*
X256950Y246039D02*
X351850D01*
X256950Y245949D02*
X351850D01*
X256950Y245859D02*
X351850D01*
X256950Y245769D02*
X351850D01*
X256950Y245679D02*
X351850D01*
X256950Y245589D02*
X351850D01*
X256950Y245499D02*
X351850D01*
X256950Y245409D02*
X351850D01*
X256950Y245319D02*
X351850D01*
X256950Y245229D02*
X351850D01*
X256950Y245139D02*
X351850D01*
X256950Y245049D02*
X351850D01*
X256950Y244959D02*
X351850D01*
X256950Y244869D02*
X351850D01*
X256950Y244779D02*
X351850D01*
X256950Y244689D02*
X351850D01*
X256950Y244599D02*
X351850D01*
X256950Y244509D02*
X351850D01*
X256950Y244419D02*
X351850D01*
X256950Y244329D02*
X351850D01*
X256950Y244239D02*
X351850D01*
X256950Y244149D02*
X351850D01*
X256950Y244059D02*
X351850D01*
X256950Y243969D02*
X351850D01*
X256950Y243879D02*
X351850D01*
X256950Y243789D02*
X351850D01*
X256950Y243699D02*
X351850D01*
X256950Y243609D02*
X351850D01*
X256950Y243519D02*
X351850D01*
X256950Y243429D02*
X351850D01*
X256950Y243339D02*
X351850D01*
X256950Y243249D02*
X351850D01*
X256950Y243159D02*
X351850D01*
X256950Y243069D02*
X351850D01*
X256950Y242979D02*
X351850D01*
X256950Y242889D02*
X351850D01*
X256950Y242799D02*
X351850D01*
X256950Y242709D02*
X351850D01*
X256950Y242619D02*
X351850D01*
X256950Y242529D02*
X351850D01*
X256950Y242439D02*
X351850D01*
X256950Y242349D02*
X351850D01*
X256950Y242259D02*
X351850D01*
X256950Y242169D02*
X351850D01*
X256950Y242079D02*
X351850D01*
X256950Y241989D02*
X351850D01*
X256950Y241899D02*
X351850D01*
X256950Y241809D02*
X351850D01*
X256950Y241719D02*
X351850D01*
X256950Y241629D02*
X351850D01*
X242059Y265929D02*
X351841D01*
X256950Y222819D02*
X329643D01*
X256950Y222729D02*
X329305D01*
X256950Y222639D02*
X329093D01*
X256950Y222549D02*
X328930D01*
X256950Y222459D02*
X328795D01*
X256950Y222369D02*
X328680D01*
X256950Y222279D02*
X328580D01*
X256950Y222189D02*
X328492D01*
X256950Y222099D02*
X328414D01*
X256950Y222009D02*
X327950D01*
X256947Y221919D02*
X327950D01*
X256934Y221829D02*
X327950D01*
X256913Y221739D02*
X327950D01*
X256883Y221649D02*
X327950D01*
X256841Y221559D02*
X327950D01*
X256788Y221469D02*
X327950D01*
X256719Y221379D02*
X327950D01*
X256632Y221289D02*
X327950D01*
X256542Y221199D02*
X327950D01*
X256452Y221109D02*
X327950D01*
X256362Y221019D02*
X327950D01*
X256272Y220929D02*
X327950D01*
X256182Y220839D02*
X327950D01*
X256092Y220749D02*
X327950D01*
X256002Y220659D02*
X327950D01*
X255912Y220569D02*
X327950D01*
X255822Y220479D02*
X327950D01*
X255732Y220389D02*
X327950D01*
X255642Y220299D02*
X327950D01*
X255552Y220209D02*
X327950D01*
X255462Y220119D02*
X327950D01*
X255372Y220029D02*
X327950D01*
X255282Y219939D02*
X327950D01*
X255192Y219849D02*
X327950D01*
X255102Y219759D02*
X327950D01*
X255012Y219669D02*
X327950D01*
X254922Y219579D02*
X327950D01*
X254928Y219489D02*
X327950D01*
X254984Y219399D02*
X327950D01*
X255036Y219309D02*
X327950D01*
X255087Y219219D02*
X327950D01*
X255134Y219129D02*
X327950D01*
X255179Y219039D02*
X327950D01*
X255222Y218949D02*
X327950D01*
X255262Y218859D02*
X327950D01*
X255301Y218769D02*
X327950D01*
X255336Y218679D02*
X327950D01*
X255370Y218589D02*
X327950D01*
X255402Y218499D02*
X327950D01*
X255432Y218409D02*
X327950D01*
X255459Y218319D02*
X327950D01*
X255485Y218229D02*
X327950D01*
X255508Y218139D02*
X327950D01*
X255530Y218049D02*
X327950D01*
X255550Y217959D02*
X327950D01*
X255568Y217869D02*
X327950D01*
X255584Y217779D02*
X327950D01*
X255599Y217689D02*
X327950D01*
X255611Y217599D02*
X327950D01*
X255622Y217509D02*
X327950D01*
X255631Y217419D02*
X327950D01*
X255638Y217329D02*
X327950D01*
X255644Y217239D02*
X327950D01*
X255648Y217149D02*
X327950D01*
X255650Y217059D02*
X327950D01*
X255650Y216969D02*
X327950D01*
X255648Y216879D02*
X327950D01*
X255645Y216789D02*
X327950D01*
X255640Y216699D02*
X327950D01*
X255634Y216609D02*
X327950D01*
X255625Y216519D02*
X327950D01*
X255615Y216429D02*
X327950D01*
X255603Y216339D02*
X327950D01*
X255589Y216249D02*
X327950D01*
X255573Y216159D02*
X327950D01*
X255556Y216069D02*
X327950D01*
X255536Y215979D02*
X327950D01*
X255515Y215889D02*
X327950D01*
X255492Y215799D02*
X327950D01*
X255467Y215709D02*
X327950D01*
X255440Y215619D02*
X327950D01*
X255411Y215529D02*
X327950D01*
X255380Y215439D02*
X327950D01*
X255347Y215349D02*
X327950D01*
X255312Y215259D02*
X327950D01*
X255274Y215169D02*
X327950D01*
X255235Y215079D02*
X327950D01*
X255193Y214989D02*
X327950D01*
X255148Y214899D02*
X327950D01*
X255101Y214809D02*
X327950D01*
X255052Y214719D02*
X327950D01*
X255000Y214629D02*
X327950D01*
X254945Y214539D02*
X327950D01*
X254888Y214449D02*
X327950D01*
X254827Y214359D02*
X327950D01*
X254763Y214269D02*
X327950D01*
X254696Y214179D02*
X327950D01*
X254626Y214089D02*
X327950D01*
X254552Y213999D02*
X327950D01*
X254474Y213909D02*
X327950D01*
X254391Y213819D02*
X327950D01*
X254305Y213729D02*
X327950D01*
X254213Y213639D02*
X327950D01*
X254116Y213549D02*
X327950D01*
X254014Y213459D02*
X327950D01*
X253905Y213369D02*
X327950D01*
X253788Y213279D02*
X327950D01*
X253664Y213189D02*
X327950D01*
X253530Y213099D02*
X327950D01*
X253386Y213009D02*
X327950D01*
X253228Y212919D02*
X327950D01*
X253055Y212829D02*
X327950D01*
X252861Y212739D02*
X327950D01*
X252640Y212649D02*
X327950D01*
X252377Y212559D02*
X327950D01*
X252044Y212469D02*
X327950D01*
X251516Y212379D02*
X327950D01*
X242050Y212289D02*
X327950D01*
X242050Y212199D02*
X327950D01*
X242050Y212109D02*
X327950D01*
X242050Y212019D02*
X327950D01*
X242050Y211929D02*
X327950D01*
X242050Y211839D02*
X327950D01*
X242050Y211749D02*
X327950D01*
X242050Y211659D02*
X327950D01*
X251866Y211569D02*
X327950D01*
X252251Y211479D02*
X327950D01*
X252537Y211389D02*
X327950D01*
X252773Y211299D02*
X327950D01*
X252977Y211209D02*
X327950D01*
X253158Y211119D02*
X327950D01*
X253322Y211029D02*
X327950D01*
X253472Y210939D02*
X327950D01*
X253610Y210849D02*
X327950D01*
X253738Y210759D02*
X327950D01*
X253857Y210669D02*
X327950D01*
X253969Y210579D02*
X327950D01*
X254074Y210489D02*
X327950D01*
X254174Y210399D02*
X327950D01*
X254267Y210309D02*
X327950D01*
X254356Y210219D02*
X327950D01*
X254440Y210129D02*
X327950D01*
X254520Y210039D02*
X327950D01*
X254596Y209949D02*
X327950D01*
X254668Y209859D02*
X327950D01*
X254736Y209769D02*
X327950D01*
X254801Y209679D02*
X327950D01*
X254863Y209589D02*
X327950D01*
X254922Y209499D02*
X327950D01*
X254978Y209409D02*
X327950D01*
X255031Y209319D02*
X327950D01*
X255081Y209229D02*
X327950D01*
X255129Y209139D02*
X327950D01*
X255174Y209049D02*
X327950D01*
X255217Y208959D02*
X327950D01*
X255258Y208869D02*
X327950D01*
X255296Y208779D02*
X327950D01*
X255333Y208689D02*
X327950D01*
X255367Y208599D02*
X327950D01*
X255398Y208509D02*
X327950D01*
X255428Y208419D02*
X327950D01*
X255456Y208329D02*
X327950D01*
X255482Y208239D02*
X327950D01*
X255506Y208149D02*
X327950D01*
X255528Y208059D02*
X327950D01*
X255548Y207969D02*
X327950D01*
X255566Y207879D02*
X327950D01*
X255583Y207789D02*
X327950D01*
X255597Y207699D02*
X327950D01*
X255610Y207609D02*
X327950D01*
X255621Y207519D02*
X327950D01*
X255630Y207429D02*
X327950D01*
X255638Y207339D02*
X327950D01*
X255643Y207249D02*
X327950D01*
X255647Y207159D02*
X327950D01*
X255650Y207069D02*
X327950D01*
X255650Y206979D02*
X327950D01*
X255649Y206889D02*
X327950D01*
X255646Y206799D02*
X327950D01*
X255641Y206709D02*
X327950D01*
X255634Y206619D02*
X327950D01*
X255626Y206529D02*
X327950D01*
X255616Y206439D02*
X327950D01*
X255604Y206349D02*
X327950D01*
X255591Y206259D02*
X327950D01*
X255575Y206169D02*
X327950D01*
X255558Y206079D02*
X327950D01*
X255539Y205989D02*
X327950D01*
X255518Y205899D02*
X327950D01*
X255495Y205809D02*
X327950D01*
X255470Y205719D02*
X327950D01*
X255443Y205629D02*
X327950D01*
X255414Y205539D02*
X327950D01*
X255384Y205449D02*
X327950D01*
X255351Y205359D02*
X327950D01*
X255316Y205269D02*
X327950D01*
X255278Y205179D02*
X327950D01*
X255239Y205089D02*
X327950D01*
X255197Y204999D02*
X327950D01*
X255153Y204909D02*
X327950D01*
X255107Y204819D02*
X327950D01*
X255058Y204729D02*
X327950D01*
X255006Y204639D02*
X327950D01*
X254951Y204549D02*
X327950D01*
X254894Y204459D02*
X327950D01*
X254834Y204369D02*
X327950D01*
X254771Y204279D02*
X327950D01*
X254704Y204189D02*
X327950D01*
X254634Y204099D02*
X327950D01*
X254560Y204009D02*
X327950D01*
X254483Y203919D02*
X327950D01*
X254401Y203829D02*
X327950D01*
X254315Y203739D02*
X327950D01*
X254224Y203649D02*
X327950D01*
X254127Y203559D02*
X327950D01*
X254025Y203469D02*
X327950D01*
X253917Y203379D02*
X327950D01*
X253802Y203289D02*
X327950D01*
X253678Y203199D02*
X327950D01*
X253546Y203109D02*
X327950D01*
X253402Y203019D02*
X327950D01*
X253247Y202929D02*
X327950D01*
X253075Y202839D02*
X327950D01*
X252884Y202749D02*
X327950D01*
X252666Y202659D02*
X327950D01*
X252409Y202569D02*
X327950D01*
X252086Y202479D02*
X327950D01*
X251599Y202389D02*
X327950D01*
X242050Y202299D02*
X327950D01*
X242050Y202209D02*
X327950D01*
X242050Y202119D02*
X327950D01*
X242050Y202029D02*
X327950D01*
X242050Y201939D02*
X327950D01*
X242050Y201849D02*
X327950D01*
X242050Y201759D02*
X327950D01*
X242050Y201669D02*
X327950D01*
X251811Y201579D02*
X327950D01*
X252214Y201489D02*
X327950D01*
X252508Y201399D02*
X327950D01*
X252749Y201309D02*
X327950D01*
X252956Y201219D02*
X327950D01*
X253139Y201129D02*
X327950D01*
X253305Y201039D02*
X327950D01*
X253456Y200949D02*
X327950D01*
X253595Y200859D02*
X327950D01*
X253724Y200769D02*
X327950D01*
X253844Y200679D02*
X327950D01*
X253957Y200589D02*
X327950D01*
X254063Y200499D02*
X327950D01*
X254163Y200409D02*
X327950D01*
X254257Y200319D02*
X327950D01*
X254346Y200229D02*
X327950D01*
X254431Y200139D02*
X327950D01*
X254511Y200049D02*
X327950D01*
X254587Y199959D02*
X327950D01*
X254660Y199869D02*
X327950D01*
X254728Y199779D02*
X327950D01*
X254794Y199689D02*
X327950D01*
X254856Y199599D02*
X327950D01*
X254915Y199509D02*
X327950D01*
X254971Y199419D02*
X327950D01*
X255025Y199329D02*
X327950D01*
X255076Y199239D02*
X327950D01*
X255124Y199149D02*
X327950D01*
X255169Y199059D02*
X327950D01*
X255213Y198969D02*
X327950D01*
X255254Y198879D02*
X327950D01*
X255292Y198789D02*
X327950D01*
X255329Y198699D02*
X327950D01*
X255363Y198609D02*
X327950D01*
X255395Y198519D02*
X327950D01*
X255425Y198429D02*
X327950D01*
X255453Y198339D02*
X327950D01*
X255479Y198249D02*
X327950D01*
X255503Y198159D02*
X327950D01*
X255526Y198069D02*
X327950D01*
X255546Y197979D02*
X327950D01*
X255564Y197889D02*
X327950D01*
X255581Y197799D02*
X327950D01*
X255596Y197709D02*
X327950D01*
X255609Y197619D02*
X327950D01*
X255620Y197529D02*
X327950D01*
X255629Y197439D02*
X327950D01*
X255637Y197349D02*
X327950D01*
X255643Y197259D02*
X327950D01*
X255647Y197169D02*
X327950D01*
X255649Y197079D02*
X327950D01*
X255650Y196989D02*
X327950D01*
X255649Y196899D02*
X327950D01*
X255646Y196809D02*
X327950D01*
X255642Y196719D02*
X327950D01*
X255635Y196629D02*
X327950D01*
X255627Y196539D02*
X327950D01*
X255617Y196449D02*
X327950D01*
X255606Y196359D02*
X327950D01*
X255592Y196269D02*
X327950D01*
X255577Y196179D02*
X327950D01*
X255560Y196089D02*
X327950D01*
X255541Y195999D02*
X327950D01*
X255520Y195909D02*
X327950D01*
X255497Y195819D02*
X327950D01*
X255473Y195729D02*
X327950D01*
X255446Y195639D02*
X327950D01*
X255418Y195549D02*
X327950D01*
X255387Y195459D02*
X327950D01*
X255354Y195369D02*
X327950D01*
X255320Y195279D02*
X327950D01*
X255283Y195189D02*
X327950D01*
X255244Y195099D02*
X327950D01*
X255202Y195009D02*
X327950D01*
X255158Y194919D02*
X327950D01*
X255112Y194829D02*
X327950D01*
X255063Y194739D02*
X327950D01*
X255012Y194649D02*
X327950D01*
X254958Y194559D02*
X327950D01*
X254901Y194469D02*
X327950D01*
X254841Y194379D02*
X327950D01*
X254778Y194289D02*
X327950D01*
X254712Y194199D02*
X327950D01*
X254642Y194109D02*
X327950D01*
X254569Y194019D02*
X327950D01*
X254491Y193929D02*
X327950D01*
X254410Y193839D02*
X327950D01*
X254324Y193749D02*
X327950D01*
X254234Y193659D02*
X327950D01*
X254138Y193569D02*
X327950D01*
X254037Y193479D02*
X327950D01*
X253929Y193389D02*
X327950D01*
X253815Y193299D02*
X327950D01*
X253692Y193209D02*
X327950D01*
X253561Y193119D02*
X327950D01*
X253419Y193029D02*
X327950D01*
X253265Y192939D02*
X327950D01*
X253095Y192849D02*
X327950D01*
X252906Y192759D02*
X327950D01*
X252692Y192669D02*
X327950D01*
X252440Y192579D02*
X327950D01*
X252127Y192489D02*
X327950D01*
X251671Y192399D02*
X327950D01*
X242050Y192309D02*
X327950D01*
X242050Y192219D02*
X327950D01*
X242050Y192129D02*
X327950D01*
X242050Y192039D02*
X327950D01*
X242050Y191949D02*
X327950D01*
X242050Y191859D02*
X327950D01*
X242050Y191769D02*
X327950D01*
X242050Y191679D02*
X327950D01*
X251753Y191589D02*
X327950D01*
X252177Y191499D02*
X327950D01*
X252479Y191409D02*
X327950D01*
X252724Y191319D02*
X327950D01*
X252934Y191229D02*
X327950D01*
X253120Y191139D02*
X327950D01*
X253287Y191049D02*
X327950D01*
X253440Y190959D02*
X327950D01*
X253580Y190869D02*
X327950D01*
X253710Y190779D02*
X327950D01*
X253831Y190689D02*
X327950D01*
X253945Y190599D02*
X327950D01*
X254052Y190509D02*
X327950D01*
X254152Y190419D02*
X327950D01*
X254247Y190329D02*
X327950D01*
X254337Y190239D02*
X327950D01*
X254422Y190149D02*
X327950D01*
X254502Y190059D02*
X327950D01*
X254579Y189969D02*
X327950D01*
X254652Y189879D02*
X327950D01*
X254721Y189789D02*
X327950D01*
X254787Y189699D02*
X327950D01*
X254849Y189609D02*
X327950D01*
X254909Y189519D02*
X327950D01*
X254965Y189429D02*
X327950D01*
X255019Y189339D02*
X327950D01*
X255070Y189249D02*
X327950D01*
X255119Y189159D02*
X327950D01*
X255165Y189069D02*
X327950D01*
X255208Y188979D02*
X327950D01*
X255249Y188889D02*
X327950D01*
X255288Y188799D02*
X327950D01*
X255325Y188709D02*
X327950D01*
X255359Y188619D02*
X327950D01*
X255392Y188529D02*
X327950D01*
X255422Y188439D02*
X327950D01*
X255450Y188349D02*
X327950D01*
X255476Y188259D02*
X327950D01*
X255501Y188169D02*
X327950D01*
X255523Y188079D02*
X327950D01*
X255544Y187989D02*
X327950D01*
X255562Y187899D02*
X327950D01*
X255579Y187809D02*
X327950D01*
X255594Y187719D02*
X327950D01*
X255607Y187629D02*
X327950D01*
X255619Y187539D02*
X327950D01*
X255628Y187449D02*
X327950D01*
X255636Y187359D02*
X327950D01*
X255642Y187269D02*
X327950D01*
X255647Y187179D02*
X327950D01*
X255649Y187089D02*
X327950D01*
X255650Y186999D02*
X327950D01*
X255649Y186909D02*
X327950D01*
X255646Y186819D02*
X327950D01*
X255642Y186729D02*
X327950D01*
X255636Y186639D02*
X327950D01*
X255628Y186549D02*
X327950D01*
X255618Y186459D02*
X327950D01*
X255607Y186369D02*
X327950D01*
X255594Y186279D02*
X327950D01*
X255579Y186189D02*
X327950D01*
X255562Y186099D02*
X327950D01*
X255543Y186009D02*
X327950D01*
X255523Y185919D02*
X327950D01*
X255500Y185829D02*
X327950D01*
X255476Y185739D02*
X327950D01*
X255449Y185649D02*
X327950D01*
X255421Y185559D02*
X327950D01*
X255391Y185469D02*
X327950D01*
X255358Y185379D02*
X327950D01*
X255324Y185289D02*
X327950D01*
X255287Y185199D02*
X327950D01*
X255248Y185109D02*
X327950D01*
X255207Y185019D02*
X327950D01*
X255163Y184929D02*
X327950D01*
X255117Y184839D02*
X327950D01*
X255069Y184749D02*
X327950D01*
X255018Y184659D02*
X327950D01*
X254964Y184569D02*
X327950D01*
X254907Y184479D02*
X327950D01*
X254848Y184389D02*
X327950D01*
X254785Y184299D02*
X327950D01*
X254719Y184209D02*
X327950D01*
X254650Y184119D02*
X327950D01*
X254577Y184029D02*
X327950D01*
X254500Y183939D02*
X327950D01*
X254419Y183849D02*
X327950D01*
X254334Y183759D02*
X327950D01*
X254244Y183669D02*
X327950D01*
X254149Y183579D02*
X327950D01*
X254049Y183489D02*
X327950D01*
X253942Y183399D02*
X327950D01*
X253828Y183309D02*
X327950D01*
X253706Y183219D02*
X327950D01*
X253576Y183129D02*
X327950D01*
X253435Y183039D02*
X327950D01*
X253282Y182949D02*
X327950D01*
X253115Y182859D02*
X327950D01*
X252928Y182769D02*
X327950D01*
X252717Y182679D02*
X327950D01*
X252471Y182589D02*
X327950D01*
X252167Y182499D02*
X327950D01*
X251737Y182409D02*
X327950D01*
X242050Y182319D02*
X327950D01*
X242050Y182229D02*
X327950D01*
X242050Y182139D02*
X327950D01*
X242050Y182049D02*
X327950D01*
X242050Y181959D02*
X327950D01*
X242050Y181869D02*
X327950D01*
X242050Y181779D02*
X327950D01*
X242050Y181689D02*
X327950D01*
X251689Y181599D02*
X327950D01*
X252138Y181509D02*
X327950D01*
X252448Y181419D02*
X327950D01*
X252699Y181329D02*
X327950D01*
X252912Y181239D02*
X327950D01*
X253100Y181149D02*
X327950D01*
X253269Y181059D02*
X327950D01*
X253423Y180969D02*
X327950D01*
X253565Y180879D02*
X327950D01*
X253696Y180789D02*
X327950D01*
X253818Y180699D02*
X327950D01*
X253933Y180609D02*
X327950D01*
X254040Y180519D02*
X327950D01*
X254141Y180429D02*
X327950D01*
X254237Y180339D02*
X327950D01*
X254327Y180249D02*
X327950D01*
X254413Y180159D02*
X327950D01*
X254494Y180069D02*
X327950D01*
X254571Y179979D02*
X327950D01*
X254644Y179889D02*
X327950D01*
X254713Y179799D02*
X327950D01*
X254780Y179709D02*
X327950D01*
X254843Y179619D02*
X327950D01*
X254902Y179529D02*
X327950D01*
X254959Y179439D02*
X327950D01*
X255013Y179349D02*
X327950D01*
X255065Y179259D02*
X327950D01*
X255113Y179169D02*
X327950D01*
X255160Y179079D02*
X327950D01*
X255203Y178989D02*
X327950D01*
X255245Y178899D02*
X327950D01*
X255284Y178809D02*
X327950D01*
X255321Y178719D02*
X327950D01*
X255355Y178629D02*
X327950D01*
X255388Y178539D02*
X327950D01*
X255419Y178449D02*
X327950D01*
X255447Y178359D02*
X327950D01*
X255474Y178269D02*
X327950D01*
X255498Y178179D02*
X327950D01*
X255521Y178089D02*
X327950D01*
X255542Y177999D02*
X327950D01*
X255560Y177909D02*
X327950D01*
X255577Y177819D02*
X327950D01*
X255593Y177729D02*
X327950D01*
X255606Y177639D02*
X327950D01*
X255618Y177549D02*
X327950D01*
X255627Y177459D02*
X327950D01*
X255635Y177369D02*
X327950D01*
X255642Y177279D02*
X327950D01*
X255646Y177189D02*
X327950D01*
X255649Y177099D02*
X327950D01*
X255650Y177009D02*
X327950D01*
X255649Y176919D02*
X327950D01*
X255647Y176829D02*
X327950D01*
X255643Y176739D02*
X327950D01*
X255637Y176649D02*
X327950D01*
X255629Y176559D02*
X327950D01*
X255620Y176469D02*
X327950D01*
X255608Y176379D02*
X327950D01*
X255595Y176289D02*
X327950D01*
X255580Y176199D02*
X327950D01*
X255564Y176109D02*
X327950D01*
X255545Y176019D02*
X327950D01*
X255525Y175929D02*
X327950D01*
X255503Y175839D02*
X327950D01*
X255478Y175749D02*
X327950D01*
X255452Y175659D02*
X327950D01*
X255424Y175569D02*
X327950D01*
X255394Y175479D02*
X327950D01*
X255362Y175389D02*
X327950D01*
X255328Y175299D02*
X327950D01*
X255291Y175209D02*
X327950D01*
X255252Y175119D02*
X327950D01*
X255211Y175029D02*
X327950D01*
X255168Y174939D02*
X327950D01*
X255122Y174849D02*
X327950D01*
X255074Y174759D02*
X327950D01*
X255023Y174669D02*
X327950D01*
X254970Y174579D02*
X327950D01*
X254914Y174489D02*
X327950D01*
X254854Y174399D02*
X327950D01*
X254792Y174309D02*
X327950D01*
X254727Y174219D02*
X327950D01*
X254658Y174129D02*
X327950D01*
X254585Y174039D02*
X327950D01*
X254509Y173949D02*
X327950D01*
X254429Y173859D02*
X327950D01*
X254344Y173769D02*
X327950D01*
X254254Y173679D02*
X327950D01*
X254160Y173589D02*
X327950D01*
X254060Y173499D02*
X327950D01*
X253954Y173409D02*
X327950D01*
X253841Y173319D02*
X327950D01*
X253720Y173229D02*
X327950D01*
X253591Y173139D02*
X327950D01*
X253451Y173049D02*
X327950D01*
X253300Y172959D02*
X327950D01*
X253134Y172869D02*
X327950D01*
X252950Y172779D02*
X327950D01*
X252742Y172689D02*
X327950D01*
X252500Y172599D02*
X327950D01*
X252204Y172509D02*
X327950D01*
X251796Y172419D02*
X327950D01*
X242050Y172329D02*
X327950D01*
X242050Y172239D02*
X327950D01*
X242050Y172149D02*
X327950D01*
X242050Y172059D02*
X327950D01*
X242050Y171969D02*
X327950D01*
X242050Y171879D02*
X327950D01*
X242050Y171789D02*
X327950D01*
X242050Y171699D02*
X327950D01*
X251619Y171609D02*
X327950D01*
X252097Y171519D02*
X327950D01*
X252418Y171429D02*
X327950D01*
X252673Y171339D02*
X327950D01*
X252890Y171249D02*
X327950D01*
X253080Y171159D02*
X327950D01*
X253251Y171069D02*
X327950D01*
X253407Y170979D02*
X327950D01*
X253550Y170889D02*
X327950D01*
X253682Y170799D02*
X327950D01*
X253805Y170709D02*
X327950D01*
X253920Y170619D02*
X327950D01*
X254028Y170529D02*
X327950D01*
X254130Y170439D02*
X327950D01*
X254226Y170349D02*
X327950D01*
X254317Y170259D02*
X327950D01*
X254403Y170169D02*
X327950D01*
X254485Y170079D02*
X327950D01*
X254562Y169989D02*
X327950D01*
X254636Y169899D02*
X327950D01*
X254706Y169809D02*
X327950D01*
X254772Y169719D02*
X327950D01*
X254836Y169629D02*
X327950D01*
X254896Y169539D02*
X327950D01*
X254953Y169449D02*
X327950D01*
X255007Y169359D02*
X327950D01*
X255059Y169269D02*
X327950D01*
X255108Y169179D02*
X327950D01*
X255155Y169089D02*
X327950D01*
X255199Y168999D02*
X327950D01*
X255240Y168909D02*
X327950D01*
X255280Y168819D02*
X327950D01*
X255317Y168729D02*
X327950D01*
X255352Y168639D02*
X327950D01*
X255385Y168549D02*
X327950D01*
X255415Y168459D02*
X327950D01*
X255444Y168369D02*
X327950D01*
X255471Y168279D02*
X327950D01*
X255496Y168189D02*
X327950D01*
X255518Y168099D02*
X327950D01*
X255539Y168009D02*
X327950D01*
X255558Y167919D02*
X327950D01*
X255576Y167829D02*
X327950D01*
X255591Y167739D02*
X327950D01*
X255605Y167649D02*
X327950D01*
X255616Y167559D02*
X327950D01*
X255626Y167469D02*
X327950D01*
X255635Y167379D02*
X327950D01*
X255641Y167289D02*
X327950D01*
X255646Y167199D02*
X327950D01*
X255649Y167109D02*
X327950D01*
X255650Y167019D02*
X327950D01*
X255649Y166929D02*
X327950D01*
X255647Y166839D02*
X327950D01*
X255643Y166749D02*
X327950D01*
X255637Y166659D02*
X327950D01*
X255630Y166569D02*
X327950D01*
X255621Y166479D02*
X327950D01*
X255610Y166389D02*
X327950D01*
X255597Y166299D02*
X327950D01*
X255582Y166209D02*
X327950D01*
X255566Y166119D02*
X327950D01*
X255547Y166029D02*
X327950D01*
X255527Y165939D02*
X327950D01*
X255505Y165849D02*
X327950D01*
X255481Y165759D02*
X327950D01*
X255455Y165669D02*
X327950D01*
X255427Y165579D02*
X327950D01*
X255398Y165489D02*
X327950D01*
X255366Y165399D02*
X327950D01*
X255332Y165309D02*
X327950D01*
X255295Y165219D02*
X327950D01*
X255257Y165129D02*
X327950D01*
X255216Y165039D02*
X327950D01*
X255173Y164949D02*
X327950D01*
X255128Y164859D02*
X327950D01*
X255080Y164769D02*
X327950D01*
X255029Y164679D02*
X327950D01*
X254976Y164589D02*
X327950D01*
X254920Y164499D02*
X327950D01*
X254861Y164409D02*
X327950D01*
X254799Y164319D02*
X327950D01*
X254734Y164229D02*
X327950D01*
X254665Y164139D02*
X327950D01*
X254593Y164049D02*
X327950D01*
X254518Y163959D02*
X327950D01*
X254438Y163869D02*
X327950D01*
X254353Y163779D02*
X327950D01*
X254265Y163689D02*
X327950D01*
X254171Y163599D02*
X327950D01*
X254071Y163509D02*
X327950D01*
X253966Y163419D02*
X327950D01*
X253854Y163329D02*
X327950D01*
X253734Y163239D02*
X327950D01*
X253606Y163149D02*
X327950D01*
X253468Y163059D02*
X327950D01*
X253318Y162969D02*
X327950D01*
X253153Y162879D02*
X327950D01*
X252972Y162789D02*
X327950D01*
X252767Y162699D02*
X327950D01*
X252529Y162609D02*
X327950D01*
X252241Y162519D02*
X327950D01*
X251852Y162429D02*
X327950D01*
X247288Y162339D02*
X327950D01*
X247378Y162249D02*
X327950D01*
X247468Y162159D02*
X327950D01*
X247558Y162069D02*
X327950D01*
X247648Y161979D02*
X327950D01*
X247738Y161889D02*
X327950D01*
X247828Y161799D02*
X327950D01*
X247918Y161709D02*
X327950D01*
X251539Y161619D02*
X327950D01*
X252055Y161529D02*
X327950D01*
X252386Y161439D02*
X327950D01*
X252647Y161349D02*
X327950D01*
X252867Y161259D02*
X327950D01*
X253060Y161169D02*
X327950D01*
X253233Y161079D02*
X327950D01*
X253390Y160989D02*
X327950D01*
X253534Y160899D02*
X327950D01*
X253668Y160809D02*
X327950D01*
X253792Y160719D02*
X327950D01*
X253908Y160629D02*
X327950D01*
X254017Y160539D02*
X327950D01*
X254119Y160449D02*
X327950D01*
X254216Y160359D02*
X327950D01*
X254307Y160269D02*
X327950D01*
X254394Y160179D02*
X327950D01*
X254476Y160089D02*
X327950D01*
X254554Y159999D02*
X327950D01*
X254628Y159909D02*
X327950D01*
X254698Y159819D02*
X327950D01*
X254765Y159729D02*
X327950D01*
X254829Y159639D02*
X327950D01*
X254889Y159549D02*
X327950D01*
X254947Y159459D02*
X327950D01*
X255002Y159369D02*
X327950D01*
X255053Y159279D02*
X327950D01*
X255103Y159189D02*
X327950D01*
X255149Y159099D02*
X327950D01*
X255194Y159009D02*
X327950D01*
X255236Y158919D02*
X327950D01*
X255275Y158829D02*
X327950D01*
X255313Y158739D02*
X327950D01*
X255348Y158649D02*
X327950D01*
X255381Y158559D02*
X327950D01*
X255412Y158469D02*
X327950D01*
X255441Y158379D02*
X327950D01*
X255468Y158289D02*
X327950D01*
X255493Y158199D02*
X327950D01*
X255516Y158109D02*
X327950D01*
X255537Y158019D02*
X327950D01*
X255556Y157929D02*
X327950D01*
X255574Y157839D02*
X327950D01*
X255589Y157749D02*
X327950D01*
X255603Y157659D02*
X327950D01*
X255615Y157569D02*
X327950D01*
X255625Y157479D02*
X327950D01*
X255634Y157389D02*
X327950D01*
X255640Y157299D02*
X327950D01*
X255645Y157209D02*
X327950D01*
X255649Y157119D02*
X327950D01*
X255650Y157029D02*
X327950D01*
X255650Y156939D02*
X327950D01*
X255648Y156849D02*
X327950D01*
X255644Y156759D02*
X327950D01*
X255638Y156669D02*
X327950D01*
X255631Y156579D02*
X327950D01*
X255622Y156489D02*
X327950D01*
X255611Y156399D02*
X327950D01*
X255598Y156309D02*
X327950D01*
X255584Y156219D02*
X327950D01*
X255568Y156129D02*
X327950D01*
X255550Y156039D02*
X327950D01*
X255530Y155949D02*
X327950D01*
X255508Y155859D02*
X327950D01*
X255484Y155769D02*
X327950D01*
X255458Y155679D02*
X327950D01*
X255431Y155589D02*
X327950D01*
X255401Y155499D02*
X327950D01*
X255369Y155409D02*
X327950D01*
X255335Y155319D02*
X327950D01*
X255299Y155229D02*
X327950D01*
X255261Y155139D02*
X327950D01*
X255221Y155049D02*
X327950D01*
X255178Y154959D02*
X327950D01*
X255133Y154869D02*
X327950D01*
X255085Y154779D02*
X327950D01*
X255035Y154689D02*
X327950D01*
X254982Y154599D02*
X327950D01*
X254926Y154509D02*
X327950D01*
X254868Y154419D02*
X327950D01*
X254806Y154329D02*
X327950D01*
X254741Y154239D02*
X327950D01*
X254673Y154149D02*
X327950D01*
X254602Y154059D02*
X327950D01*
X254526Y153969D02*
X327950D01*
X254447Y153879D02*
X327950D01*
X254363Y153789D02*
X327950D01*
X254275Y153699D02*
X327950D01*
X254181Y153609D02*
X327950D01*
X254083Y153519D02*
X327950D01*
X253978Y153429D02*
X327950D01*
X253867Y153339D02*
X327950D01*
X253748Y153249D02*
X327950D01*
X253620Y153159D02*
X327950D01*
X253483Y153069D02*
X327950D01*
X253335Y152979D02*
X327950D01*
X253173Y152889D02*
X327950D01*
X252993Y152799D02*
X327950D01*
X252791Y152709D02*
X327950D01*
X252558Y152619D02*
X327950D01*
X252277Y152529D02*
X327950D01*
X252152Y152439D02*
X327950D01*
X252152Y152349D02*
X327950D01*
X252152Y152259D02*
X327950D01*
X252152Y152169D02*
X327950D01*
X252153Y152079D02*
X327950D01*
X252153Y151989D02*
X327950D01*
X252153Y151899D02*
X327950D01*
X252153Y151809D02*
X327950D01*
X252154Y151719D02*
X327950D01*
X252154Y151629D02*
X327950D01*
X252154Y151539D02*
X327950D01*
X252154Y151449D02*
X327950D01*
X252155Y151359D02*
X327950D01*
X252155Y151269D02*
X327950D01*
X252155Y151179D02*
X327950D01*
X252155Y151089D02*
X327950D01*
X252156Y150999D02*
X327950D01*
X252156Y150909D02*
X327950D01*
X252156Y150819D02*
X327950D01*
X252156Y150729D02*
X327950D01*
X252157Y150639D02*
X327950D01*
X252157Y150549D02*
X327950D01*
X252157Y150459D02*
X327950D01*
X252157Y150369D02*
X327950D01*
X252158Y150279D02*
X327950D01*
X252158Y150189D02*
X327950D01*
X252158Y150099D02*
X327950D01*
X252158Y150009D02*
X327950D01*
X252159Y149919D02*
X327950D01*
X252159Y149829D02*
X327950D01*
X252159Y149739D02*
X327950D01*
X252159Y149649D02*
X327950D01*
X252160Y149559D02*
X327950D01*
X252160Y149469D02*
X327950D01*
X252160Y149379D02*
X327950D01*
X252160Y149289D02*
X327950D01*
X252161Y149199D02*
X327950D01*
X252161Y149109D02*
X327950D01*
X252161Y149019D02*
X327950D01*
X252161Y148929D02*
X327950D01*
X252162Y148839D02*
X327950D01*
X252162Y148749D02*
X327950D01*
X252162Y148659D02*
X327950D01*
X252162Y148569D02*
X327950D01*
X252163Y148479D02*
X327950D01*
X252163Y148389D02*
X327950D01*
X252163Y148299D02*
X327950D01*
X252163Y148209D02*
X327950D01*
X252164Y148119D02*
X327950D01*
X252164Y148029D02*
X327950D01*
X252164Y147939D02*
X327950D01*
X252164Y147849D02*
X327950D01*
X252165Y147759D02*
X327950D01*
X252165Y147669D02*
X327950D01*
X252165Y147579D02*
X327950D01*
X252165Y147489D02*
X327950D01*
X252165Y147399D02*
X327950D01*
X252166Y147309D02*
X327950D01*
X252166Y147219D02*
X327950D01*
X252166Y147129D02*
X327950D01*
X252166Y147039D02*
X327950D01*
X252167Y146949D02*
X327950D01*
X252167Y146859D02*
X327950D01*
X252167Y146769D02*
X327950D01*
X252167Y146679D02*
X327950D01*
X252168Y146589D02*
X327950D01*
X252168Y146499D02*
X327950D01*
X252168Y146409D02*
X327950D01*
X252168Y146319D02*
X327950D01*
X252169Y146229D02*
X327950D01*
X252169Y146139D02*
X327950D01*
X254939Y224529D02*
X255050D01*
X254881Y224439D02*
X255050D01*
X254820Y224349D02*
X255050D01*
X254756Y224259D02*
X255050D01*
X254689Y224169D02*
X255050D01*
X254618Y224079D02*
X255050D01*
X254543Y223989D02*
X255050D01*
X254465Y223899D02*
X255050D01*
X254382Y223809D02*
X255050D01*
X254295Y223719D02*
X255050D01*
X254203Y223629D02*
X255050D01*
X254105Y223539D02*
X255050D01*
X254002Y223449D02*
X255050D01*
X253892Y223359D02*
X255050D01*
X253775Y223269D02*
X255050D01*
X253650Y223179D02*
X255050D01*
X253515Y223089D02*
X255050D01*
X253369Y222999D02*
X255050D01*
X253210Y222909D02*
X255050D01*
X253035Y222819D02*
X255050D01*
X252838Y222729D02*
X255050D01*
X252613Y222639D02*
X255050D01*
X252345Y222549D02*
X255050D01*
X252000Y222459D02*
X255050D01*
X251417Y222369D02*
X255025D01*
X242050Y222279D02*
X254935D01*
X242050Y222189D02*
X254845D01*
X242050Y222099D02*
X254755D01*
X242050Y222009D02*
X254665D01*
X242050Y221919D02*
X254575D01*
X242050Y221829D02*
X254485D01*
X242050Y221739D02*
X254395D01*
X251111Y221649D02*
X254305D01*
X251917Y221559D02*
X254215D01*
X252286Y221469D02*
X254125D01*
X252565Y221379D02*
X254035D01*
X252797Y221289D02*
X253945D01*
X252998Y221199D02*
X253855D01*
X253177Y221109D02*
X253765D01*
X253339Y221019D02*
X253675D01*
X253488Y220929D02*
X253585D01*
X242050Y221649D02*
X250889D01*
X242050Y222369D02*
X250583D01*
X242050Y212379D02*
X250484D01*
X248008Y161619D02*
X250461D01*
X242050Y202389D02*
X250401D01*
X242050Y171609D02*
X250381D01*
X242050Y192399D02*
X250329D01*
X242050Y181599D02*
X250311D01*
X242050Y182409D02*
X250263D01*
X242050Y191589D02*
X250247D01*
X242050Y172419D02*
X250204D01*
X242050Y201579D02*
X250189D01*
X247198Y162429D02*
X250148D01*
X242050Y211569D02*
X250134D01*
X242050Y221559D02*
X250083D01*
X242050Y222459D02*
X250000D01*
X242050Y212469D02*
X249956D01*
X248098Y161529D02*
X249945D01*
X242050Y202479D02*
X249914D01*
X242050Y171519D02*
X249903D01*
X242050Y192489D02*
X249873D01*
X242050Y181509D02*
X249862D01*
X242050Y182499D02*
X249833D01*
X242050Y191499D02*
X249823D01*
X242050Y172509D02*
X249796D01*
X242050Y201489D02*
X249786D01*
X247108Y162519D02*
X249759D01*
X242050Y211479D02*
X249749D01*
X242050Y221469D02*
X249714D01*
X242050Y222549D02*
X249655D01*
X242050Y212559D02*
X249623D01*
X248188Y161439D02*
X249614D01*
X242050Y202569D02*
X249591D01*
X242050Y171429D02*
X249582D01*
X242050Y192579D02*
X249560D01*
X242050Y181419D02*
X249552D01*
X242050Y182589D02*
X249529D01*
X242050Y191409D02*
X249521D01*
X242050Y172599D02*
X249500D01*
X242050Y201399D02*
X249492D01*
X247018Y162609D02*
X249471D01*
X242050Y211389D02*
X249463D01*
X242050Y221379D02*
X249435D01*
X242050Y222639D02*
X249387D01*
X242050Y212649D02*
X249360D01*
X248278Y161349D02*
X249353D01*
X242050Y202659D02*
X249334D01*
X242050Y171339D02*
X249327D01*
X242050Y192669D02*
X249308D01*
X242050Y181329D02*
X249301D01*
X242050Y182679D02*
X249283D01*
X242050Y191319D02*
X249276D01*
X242050Y172689D02*
X249258D01*
X242050Y201309D02*
X249251D01*
X246928Y162699D02*
X249233D01*
X242050Y211299D02*
X249227D01*
X242050Y221289D02*
X249203D01*
X242050Y222729D02*
X249162D01*
X242050Y212739D02*
X249139D01*
X248368Y161259D02*
X249133D01*
X242050Y202749D02*
X249116D01*
X242050Y171249D02*
X249110D01*
X242050Y192759D02*
X249094D01*
X242050Y181239D02*
X249088D01*
X242050Y182769D02*
X249072D01*
X242050Y191229D02*
X249066D01*
X242050Y172779D02*
X249050D01*
X242050Y201219D02*
X249044D01*
X246838Y162789D02*
X249028D01*
X242050Y211209D02*
X249023D01*
X242050Y221199D02*
X249002D01*
X242050Y222819D02*
X248965D01*
X242050Y212829D02*
X248945D01*
X248458Y161169D02*
X248940D01*
X242050Y202839D02*
X248925D01*
X242050Y171159D02*
X248920D01*
X242050Y192849D02*
X248905D01*
X242050Y181149D02*
X248900D01*
X242050Y182859D02*
X248885D01*
X242050Y191139D02*
X248880D01*
X242050Y172869D02*
X248866D01*
X242050Y201129D02*
X248861D01*
X246748Y162879D02*
X248847D01*
X242050Y211119D02*
X248842D01*
X242050Y221109D02*
X248823D01*
X242050Y222909D02*
X248790D01*
X242050Y212919D02*
X248772D01*
X248548Y161079D02*
X248767D01*
X242050Y202929D02*
X248753D01*
X242050Y171069D02*
X248749D01*
X242050Y192939D02*
X248735D01*
X242050Y181059D02*
X248731D01*
X242050Y182949D02*
X248718D01*
X242050Y191049D02*
X248713D01*
X242050Y172959D02*
X248700D01*
X242050Y201039D02*
X248695D01*
X246658Y162969D02*
X248682D01*
X242050Y211029D02*
X248678D01*
X242050Y221019D02*
X248661D01*
X242050Y222999D02*
X248631D01*
X242050Y213009D02*
X248614D01*
X242050Y203019D02*
X248598D01*
X242050Y170979D02*
X248593D01*
X242050Y193029D02*
X248581D01*
X242050Y180969D02*
X248577D01*
X242050Y183039D02*
X248565D01*
X242050Y190959D02*
X248560D01*
X242050Y173049D02*
X248549D01*
X242050Y200949D02*
X248544D01*
X246568Y163059D02*
X248532D01*
X242050Y210939D02*
X248528D01*
X242050Y220929D02*
X248512D01*
X242050Y223089D02*
X248485D01*
X242050Y213099D02*
X248470D01*
X242050Y203109D02*
X248454D01*
X242050Y170889D02*
X248450D01*
X242050Y193119D02*
X248439D01*
X242050Y180879D02*
X248435D01*
X242050Y183129D02*
X248424D01*
X242050Y190869D02*
X248420D01*
X242050Y173139D02*
X248409D01*
X242050Y200859D02*
X248405D01*
X246478Y163149D02*
X248394D01*
X242050Y210849D02*
X248390D01*
X242050Y220839D02*
X248376D01*
X242050Y223179D02*
X248350D01*
X242050Y213189D02*
X248336D01*
X242050Y203199D02*
X248322D01*
X242050Y170799D02*
X248318D01*
X242050Y193209D02*
X248308D01*
X242050Y180789D02*
X248304D01*
X242050Y183219D02*
X248294D01*
X242050Y190779D02*
X248290D01*
X242050Y173229D02*
X248280D01*
X242050Y200769D02*
X248276D01*
X246388Y163239D02*
X248266D01*
X242050Y210759D02*
X248262D01*
X242050Y220749D02*
X248249D01*
X242050Y223269D02*
X248225D01*
X242050Y213279D02*
X248212D01*
X242050Y203289D02*
X248198D01*
X242050Y170709D02*
X248195D01*
X242050Y193299D02*
X248185D01*
X242050Y180699D02*
X248182D01*
X242050Y183309D02*
X248172D01*
X242050Y190689D02*
X248169D01*
X242050Y173319D02*
X248159D01*
X242050Y200679D02*
X248156D01*
X246298Y163329D02*
X248146D01*
X242050Y210669D02*
X248143D01*
X242050Y220659D02*
X248130D01*
X242050Y223359D02*
X248108D01*
X242050Y213369D02*
X248095D01*
X242050Y203379D02*
X248083D01*
X242050Y170619D02*
X248080D01*
X242050Y193389D02*
X248071D01*
X242050Y180609D02*
X248067D01*
X242050Y183399D02*
X248058D01*
X242050Y190599D02*
X248055D01*
X242050Y173409D02*
X248046D01*
X242050Y200589D02*
X248043D01*
X246208Y163419D02*
X248034D01*
X242050Y210579D02*
X248031D01*
X242050Y220569D02*
X248019D01*
X242050Y223449D02*
X247998D01*
X242050Y213459D02*
X247986D01*
X242050Y203469D02*
X247975D01*
X242050Y170529D02*
X247972D01*
X242050Y193479D02*
X247963D01*
X242050Y180519D02*
X247960D01*
X242050Y183489D02*
X247951D01*
X242050Y190509D02*
X247948D01*
X242050Y173499D02*
X247940D01*
X242050Y200499D02*
X247937D01*
X246118Y163509D02*
X247929D01*
X242050Y210489D02*
X247926D01*
X242050Y220479D02*
X247914D01*
X242050Y223539D02*
X247895D01*
X242050Y213549D02*
X247884D01*
X242050Y203559D02*
X247873D01*
X242050Y170439D02*
X247870D01*
X242050Y193569D02*
X247862D01*
X242050Y180429D02*
X247859D01*
X242050Y183579D02*
X247851D01*
X242050Y190419D02*
X247848D01*
X242050Y173589D02*
X247840D01*
X242050Y200409D02*
X247837D01*
X246028Y163599D02*
X247829D01*
X242050Y210399D02*
X247826D01*
X242050Y220389D02*
X247816D01*
X242050Y223629D02*
X247797D01*
X242050Y213639D02*
X247787D01*
X242050Y203649D02*
X247776D01*
X242050Y170349D02*
X247774D01*
X242050Y193659D02*
X247766D01*
X242050Y180339D02*
X247763D01*
X242050Y183669D02*
X247756D01*
X242050Y190329D02*
X247753D01*
X242050Y173679D02*
X247746D01*
X242050Y200319D02*
X247743D01*
X245938Y163689D02*
X247735D01*
X242050Y210309D02*
X247733D01*
X242050Y220299D02*
X247723D01*
X242050Y223719D02*
X247705D01*
X242050Y213729D02*
X247695D01*
X242050Y203739D02*
X247685D01*
X242050Y170259D02*
X247683D01*
X242050Y193749D02*
X247676D01*
X242050Y180249D02*
X247673D01*
X242050Y183759D02*
X247666D01*
X242050Y190239D02*
X247663D01*
X242050Y173769D02*
X247656D01*
X242050Y200229D02*
X247654D01*
X245848Y163779D02*
X247647D01*
X242050Y210219D02*
X247644D01*
X242050Y220209D02*
X247634D01*
X242050Y223809D02*
X247618D01*
X242050Y213819D02*
X247609D01*
X242050Y203829D02*
X247599D01*
X242050Y170169D02*
X247597D01*
X242050Y193839D02*
X247590D01*
X242050Y180159D02*
X247587D01*
X242050Y183849D02*
X247581D01*
X242050Y190149D02*
X247578D01*
X242050Y173859D02*
X247571D01*
X242050Y200139D02*
X247569D01*
X245758Y163869D02*
X247562D01*
X242050Y210129D02*
X247560D01*
X242050Y220119D02*
X247551D01*
X242050Y223899D02*
X247535D01*
X242050Y213909D02*
X247526D01*
X242050Y203919D02*
X247517D01*
X242050Y170079D02*
X247515D01*
X242050Y193929D02*
X247509D01*
X242050Y180069D02*
X247506D01*
X242050Y183939D02*
X247500D01*
X242050Y190059D02*
X247498D01*
X242050Y173949D02*
X247491D01*
X242050Y200049D02*
X247489D01*
X245668Y163959D02*
X247482D01*
X242050Y210039D02*
X247480D01*
X242050Y220029D02*
X247472D01*
X242050Y223989D02*
X247457D01*
X242050Y213999D02*
X247448D01*
X242050Y204009D02*
X247440D01*
X242050Y169989D02*
X247438D01*
X242050Y194019D02*
X247431D01*
X242050Y179979D02*
X247429D01*
X242050Y184029D02*
X247423D01*
X242050Y189969D02*
X247421D01*
X242050Y174039D02*
X247415D01*
X242050Y199959D02*
X247413D01*
X245578Y164049D02*
X247407D01*
X242050Y209949D02*
X247404D01*
X242050Y219939D02*
X247396D01*
X242050Y224079D02*
X247382D01*
X242050Y214089D02*
X247374D01*
X242050Y204099D02*
X247366D01*
X242050Y169899D02*
X247364D01*
X242050Y194109D02*
X247358D01*
X242050Y179889D02*
X247356D01*
X242050Y184119D02*
X247350D01*
X242050Y189879D02*
X247348D01*
X242050Y174129D02*
X247342D01*
X242050Y199869D02*
X247340D01*
X245488Y164139D02*
X247335D01*
X242050Y209859D02*
X247332D01*
X242050Y219849D02*
X247325D01*
X242050Y224169D02*
X247311D01*
X242050Y214179D02*
X247304D01*
X242050Y204189D02*
X247296D01*
X242050Y169809D02*
X247294D01*
X242050Y194199D02*
X247288D01*
X242050Y179799D02*
X247287D01*
X242050Y184209D02*
X247281D01*
X242050Y189789D02*
X247279D01*
X242050Y174219D02*
X247273D01*
X242050Y199779D02*
X247272D01*
X245398Y164229D02*
X247266D01*
X242050Y209769D02*
X247264D01*
X242050Y219759D02*
X247257D01*
X242050Y224259D02*
X247244D01*
X242050Y214269D02*
X247237D01*
X242050Y204279D02*
X247229D01*
X242050Y169719D02*
X247228D01*
X242050Y194289D02*
X247222D01*
X242050Y179709D02*
X247220D01*
X242050Y184299D02*
X247215D01*
X242050Y189699D02*
X247213D01*
X242050Y174309D02*
X247208D01*
X242050Y199689D02*
X247206D01*
X245308Y164319D02*
X247201D01*
X242050Y209679D02*
X247199D01*
X242050Y219669D02*
X247192D01*
X242050Y224349D02*
X247180D01*
X242050Y214359D02*
X247173D01*
X242050Y204369D02*
X247166D01*
X242050Y169629D02*
X247164D01*
X242050Y194379D02*
X247159D01*
X242050Y179619D02*
X247157D01*
X242050Y184389D02*
X247152D01*
X242050Y189609D02*
X247151D01*
X242050Y174399D02*
X247146D01*
X242050Y199599D02*
X247144D01*
X245218Y164409D02*
X247139D01*
X242050Y209589D02*
X247137D01*
X242050Y219579D02*
X247130D01*
X242050Y224439D02*
X247119D01*
X242050Y214449D02*
X247112D01*
X242050Y204459D02*
X247106D01*
X242050Y169539D02*
X247104D01*
X242050Y194469D02*
X247099D01*
X242050Y179529D02*
X247098D01*
X242050Y184479D02*
X247093D01*
X242050Y189519D02*
X247091D01*
X242050Y229569D02*
X247087D01*
X242050Y174489D02*
X247086D01*
X242050Y199509D02*
X247085D01*
X245128Y164499D02*
X247080D01*
X242050Y209499D02*
X247078D01*
X242050Y219489D02*
X247072D01*
X242050Y229479D02*
X247066D01*
X242050Y224529D02*
X247061D01*
X242050Y214539D02*
X247055D01*
X242050Y204549D02*
X247049D01*
X242050Y169449D02*
X247047D01*
X242050Y194559D02*
X247042D01*
X242050Y179439D02*
X247041D01*
X242050Y184569D02*
X247036D01*
X242050Y189429D02*
X247035D01*
X242050Y174579D02*
X247030D01*
X242050Y199419D02*
X247029D01*
X245038Y164589D02*
X247024D01*
X242050Y209409D02*
X247022D01*
X242050Y219399D02*
X247016D01*
X242050Y229389D02*
X247010D01*
X242050Y224619D02*
X247006D01*
X242050Y214629D02*
X247000D01*
X242050Y229659D02*
X246998D01*
X242050Y204639D02*
X246994D01*
X242050Y169359D02*
X246993D01*
X242050Y194649D02*
X246988D01*
X242050Y179349D02*
X246987D01*
X242050Y184659D02*
X246982D01*
X242050Y189339D02*
X246981D01*
X242050Y174669D02*
X246977D01*
X242050Y199329D02*
X246975D01*
X244948Y164679D02*
X246971D01*
X242050Y209319D02*
X246969D01*
X242050Y219309D02*
X246964D01*
X242050Y229299D02*
X246958D01*
X242050Y224709D02*
X246954D01*
X242050Y214719D02*
X246948D01*
X242050Y204729D02*
X246942D01*
X242050Y169269D02*
X246941D01*
X242050Y194739D02*
X246937D01*
X242050Y179259D02*
X246935D01*
X242050Y184749D02*
X246931D01*
X242050Y189249D02*
X246930D01*
X242050Y174759D02*
X246926D01*
X242050Y199239D02*
X246924D01*
X244858Y164769D02*
X246920D01*
X242050Y209229D02*
X246919D01*
X242050Y219219D02*
X246913D01*
X242050Y229209D02*
X246908D01*
X242050Y229749D02*
X246908D01*
X242050Y224799D02*
X246904D01*
X242050Y214809D02*
X246899D01*
X242050Y204819D02*
X246893D01*
X242050Y169179D02*
X246892D01*
X242050Y194829D02*
X246888D01*
X242050Y179169D02*
X246887D01*
X242050Y184839D02*
X246883D01*
X242050Y189159D02*
X246881D01*
X242050Y174849D02*
X246878D01*
X242050Y199149D02*
X246876D01*
X244768Y164859D02*
X246872D01*
X242050Y209139D02*
X246871D01*
X242050Y219129D02*
X246866D01*
X242050Y229119D02*
X246861D01*
X242050Y224889D02*
X246857D01*
X242050Y214899D02*
X246852D01*
X242050Y204909D02*
X246847D01*
X242050Y169089D02*
X246845D01*
X242050Y194919D02*
X246842D01*
X242050Y179079D02*
X246840D01*
X242050Y184929D02*
X246837D01*
X242050Y189069D02*
X246835D01*
X242050Y174939D02*
X246832D01*
X242050Y199059D02*
X246831D01*
X244678Y164949D02*
X246827D01*
X242050Y209049D02*
X246826D01*
X242050Y219039D02*
X246821D01*
X242050Y229839D02*
X246818D01*
X242050Y229029D02*
X246816D01*
X242050Y224979D02*
X246812D01*
X242050Y214989D02*
X246807D01*
X242050Y204999D02*
X246803D01*
X242050Y168999D02*
X246801D01*
X242050Y195009D02*
X246798D01*
X242050Y178989D02*
X246797D01*
X242050Y185019D02*
X246793D01*
X242050Y188979D02*
X246792D01*
X242050Y175029D02*
X246789D01*
X242050Y198969D02*
X246787D01*
X244588Y165039D02*
X246784D01*
X242050Y208959D02*
X246783D01*
X242050Y218949D02*
X246778D01*
X242050Y228939D02*
X246773D01*
X242050Y225069D02*
X246770D01*
X242050Y215079D02*
X246765D01*
X242050Y205089D02*
X246761D01*
X242050Y168909D02*
X246760D01*
X242050Y195099D02*
X246756D01*
X242050Y178899D02*
X246755D01*
X242050Y185109D02*
X246752D01*
X242050Y188889D02*
X246751D01*
X242050Y175119D02*
X246748D01*
X242050Y198879D02*
X246746D01*
X244498Y165129D02*
X246743D01*
X242050Y208869D02*
X246742D01*
X242050Y218859D02*
X246738D01*
X242050Y228849D02*
X246733D01*
X242050Y225159D02*
X246730D01*
X242050Y229929D02*
X246728D01*
X242050Y215169D02*
X246726D01*
X242050Y205179D02*
X246722D01*
X242050Y168819D02*
X246720D01*
X242050Y195189D02*
X246717D01*
X242050Y178809D02*
X246716D01*
X242050Y185199D02*
X246713D01*
X242050Y188799D02*
X246712D01*
X242050Y175209D02*
X246709D01*
X242050Y198789D02*
X246708D01*
X244408Y165219D02*
X246705D01*
X242050Y208779D02*
X246704D01*
X242050Y218769D02*
X246699D01*
X242050Y228759D02*
X246695D01*
X242050Y225249D02*
X246692D01*
X242050Y215259D02*
X246688D01*
X242050Y205269D02*
X246684D01*
X242050Y168729D02*
X246683D01*
X242050Y195279D02*
X246680D01*
X242050Y178719D02*
X246679D01*
X242050Y185289D02*
X246676D01*
X242050Y188709D02*
X246675D01*
X242050Y175299D02*
X246672D01*
X242050Y198699D02*
X246671D01*
X244318Y165309D02*
X246668D01*
X242050Y208689D02*
X246667D01*
X242050Y218679D02*
X246664D01*
X242050Y228669D02*
X246660D01*
X242050Y225339D02*
X246657D01*
X242050Y215349D02*
X246653D01*
X242050Y205359D02*
X246649D01*
X242050Y168639D02*
X246648D01*
X242050Y195369D02*
X246646D01*
X242050Y178629D02*
X246645D01*
X242050Y185379D02*
X246642D01*
X242050Y188619D02*
X246641D01*
X242050Y175389D02*
X246638D01*
X242050Y230019D02*
X246638D01*
X242050Y198609D02*
X246637D01*
X244228Y165399D02*
X246634D01*
X242050Y208599D02*
X246633D01*
X242050Y218589D02*
X246630D01*
X242050Y228579D02*
X246626D01*
X242050Y225429D02*
X246624D01*
X242050Y215439D02*
X246620D01*
X242050Y205449D02*
X246616D01*
X242050Y168549D02*
X246615D01*
X242050Y195459D02*
X246613D01*
X242050Y178539D02*
X246612D01*
X242050Y185469D02*
X246609D01*
X242050Y188529D02*
X246608D01*
X242050Y175479D02*
X246606D01*
X242050Y198519D02*
X246605D01*
X244138Y165489D02*
X246602D01*
X242050Y208509D02*
X246602D01*
X242050Y218499D02*
X246598D01*
X242050Y228489D02*
X246595D01*
X242050Y225519D02*
X246592D01*
X242050Y215529D02*
X246589D01*
X242050Y205539D02*
X246586D01*
X242050Y168459D02*
X246585D01*
X242050Y195549D02*
X246582D01*
X242050Y178449D02*
X246581D01*
X242050Y185559D02*
X246579D01*
X242050Y188439D02*
X246578D01*
X242050Y175569D02*
X246576D01*
X242050Y198429D02*
X246575D01*
X244048Y165579D02*
X246573D01*
X242050Y208419D02*
X246572D01*
X242050Y218409D02*
X246568D01*
X242050Y228399D02*
X246565D01*
X242050Y225609D02*
X246563D01*
X242050Y215619D02*
X246560D01*
X242050Y205629D02*
X246557D01*
X242050Y168369D02*
X246556D01*
X242050Y195639D02*
X246554D01*
X242050Y178359D02*
X246553D01*
X242050Y185649D02*
X246551D01*
X242050Y188349D02*
X246550D01*
X242050Y230109D02*
X246548D01*
X242050Y175659D02*
X246548D01*
X242050Y198339D02*
X246547D01*
X243958Y165669D02*
X246545D01*
X242050Y208329D02*
X246544D01*
X242050Y218319D02*
X246541D01*
X242050Y228309D02*
X246538D01*
X242050Y225699D02*
X246536D01*
X242050Y215709D02*
X246533D01*
X242050Y205719D02*
X246530D01*
X242050Y168279D02*
X246529D01*
X242050Y195729D02*
X246527D01*
X242050Y178269D02*
X246526D01*
X242050Y185739D02*
X246524D01*
X242050Y188259D02*
X246524D01*
X242050Y175749D02*
X246522D01*
X242050Y198249D02*
X246521D01*
X243868Y165759D02*
X246519D01*
X242050Y208239D02*
X246518D01*
X242050Y218229D02*
X246515D01*
X242050Y228219D02*
X246513D01*
X242050Y225789D02*
X246511D01*
X242050Y215799D02*
X246508D01*
X242050Y205809D02*
X246505D01*
X242050Y168189D02*
X246504D01*
X242050Y195819D02*
X246503D01*
X242050Y178179D02*
X246502D01*
X242050Y185829D02*
X246500D01*
X242050Y188169D02*
X246499D01*
X242050Y175839D02*
X246497D01*
X242050Y198159D02*
X246497D01*
X243778Y165849D02*
X246495D01*
X242050Y208149D02*
X246494D01*
X242050Y218139D02*
X246492D01*
X242050Y228129D02*
X246489D01*
X242050Y225879D02*
X246487D01*
X242050Y215889D02*
X246485D01*
X242050Y205899D02*
X246482D01*
X242050Y168099D02*
X246482D01*
X242050Y195909D02*
X246480D01*
X242050Y178089D02*
X246479D01*
X242050Y185919D02*
X246477D01*
X242050Y188079D02*
X246477D01*
X242050Y175929D02*
X246475D01*
X242050Y198069D02*
X246474D01*
X243688Y165939D02*
X246473D01*
X242050Y208059D02*
X246472D01*
X242050Y218049D02*
X246470D01*
X242050Y228039D02*
X246467D01*
X242050Y225969D02*
X246466D01*
X242050Y215979D02*
X246464D01*
X242050Y205989D02*
X246461D01*
X242050Y168009D02*
X246461D01*
X242050Y195999D02*
X246459D01*
X242050Y177999D02*
X246458D01*
X242050Y230199D02*
X246458D01*
X242050Y186009D02*
X246457D01*
X242050Y187989D02*
X246456D01*
X242050Y176019D02*
X246455D01*
X242050Y197979D02*
X246454D01*
X243598Y166029D02*
X246453D01*
X242050Y207969D02*
X246452D01*
X242050Y217959D02*
X246450D01*
X242050Y227949D02*
X246448D01*
X242050Y226059D02*
X246446D01*
X242050Y216069D02*
X246444D01*
X242050Y206079D02*
X246442D01*
X242050Y167919D02*
X246442D01*
X242050Y196089D02*
X246440D01*
X242050Y177909D02*
X246440D01*
X242050Y186099D02*
X246438D01*
X242050Y187899D02*
X246438D01*
X242050Y176109D02*
X246436D01*
X242050Y197889D02*
X246436D01*
X243508Y166119D02*
X246434D01*
X242050Y207879D02*
X246434D01*
X242050Y217869D02*
X246432D01*
X242050Y227859D02*
X246430D01*
X242050Y226149D02*
X246429D01*
X242050Y216159D02*
X246427D01*
X242050Y206169D02*
X246425D01*
X242050Y167829D02*
X246424D01*
X242050Y196179D02*
X246423D01*
X242050Y177819D02*
X246423D01*
X242050Y186189D02*
X246421D01*
X242050Y187809D02*
X246421D01*
X242050Y176199D02*
X246420D01*
X242050Y197799D02*
X246419D01*
X243418Y166209D02*
X246418D01*
X242050Y207789D02*
X246417D01*
X242050Y217779D02*
X246416D01*
X242050Y227769D02*
X246414D01*
X242050Y226239D02*
X246413D01*
X242050Y216249D02*
X246411D01*
X242050Y206259D02*
X246409D01*
X242050Y167739D02*
X246409D01*
X242050Y196269D02*
X246408D01*
X242050Y177729D02*
X246407D01*
X242050Y186279D02*
X246406D01*
X242050Y187719D02*
X246406D01*
X242050Y176289D02*
X246405D01*
X242050Y197709D02*
X246404D01*
X243328Y166299D02*
X246403D01*
X242050Y207699D02*
X246403D01*
X242050Y217689D02*
X246401D01*
X242050Y227679D02*
X246400D01*
X242050Y226329D02*
X246399D01*
X242050Y216339D02*
X246397D01*
X242050Y206349D02*
X246396D01*
X242050Y167649D02*
X246395D01*
X242050Y196359D02*
X246394D01*
X242050Y177639D02*
X246394D01*
X242050Y186369D02*
X246393D01*
X242050Y187629D02*
X246393D01*
X242050Y176379D02*
X246392D01*
X242050Y197619D02*
X246391D01*
X243238Y166389D02*
X246390D01*
X242050Y207609D02*
X246390D01*
X242050Y217599D02*
X246389D01*
X242050Y227589D02*
X246387D01*
X242050Y226419D02*
X246386D01*
X242050Y216429D02*
X246385D01*
X242050Y206439D02*
X246384D01*
X242068Y167559D02*
X246384D01*
X242050Y196449D02*
X246383D01*
X242050Y177549D02*
X246382D01*
X242050Y186459D02*
X246382D01*
X242050Y187539D02*
X246381D01*
X242050Y176469D02*
X246380D01*
X242050Y197529D02*
X246380D01*
X243148Y166479D02*
X246379D01*
X242050Y207519D02*
X246379D01*
X242050Y217509D02*
X246378D01*
X242050Y227499D02*
X246377D01*
X242050Y226509D02*
X246376D01*
X242050Y216519D02*
X246375D01*
X242050Y206529D02*
X246374D01*
X242158Y167469D02*
X246374D01*
X242050Y196539D02*
X246373D01*
X242050Y177459D02*
X246373D01*
X242050Y186549D02*
X246372D01*
X242050Y187449D02*
X246372D01*
X242050Y176559D02*
X246371D01*
X242050Y197439D02*
X246371D01*
X243058Y166569D02*
X246370D01*
X242050Y207429D02*
X246370D01*
X242050Y217419D02*
X246369D01*
X242050Y227409D02*
X246368D01*
X242050Y230289D02*
X246368D01*
X242050Y226599D02*
X246367D01*
X242050Y216609D02*
X246366D01*
X242050Y206619D02*
X246366D01*
X242248Y167379D02*
X246365D01*
X242050Y196629D02*
X246365D01*
X242050Y177369D02*
X246365D01*
X242050Y186639D02*
X246364D01*
X242050Y187359D02*
X246364D01*
X242050Y176649D02*
X246363D01*
X242050Y197349D02*
X246363D01*
X242968Y166659D02*
X246363D01*
X242050Y207339D02*
X246362D01*
X242050Y217329D02*
X246362D01*
X242050Y227319D02*
X246361D01*
X242050Y226689D02*
X246360D01*
X242050Y216699D02*
X246360D01*
X242050Y206709D02*
X246359D01*
X242338Y167289D02*
X246359D01*
X242050Y196719D02*
X246358D01*
X242050Y177279D02*
X246358D01*
X242050Y186729D02*
X246358D01*
X242050Y187269D02*
X246358D01*
X242050Y176739D02*
X246357D01*
X242050Y197259D02*
X246357D01*
X242878Y166749D02*
X246357D01*
X242050Y207249D02*
X246357D01*
X242050Y217239D02*
X246356D01*
X242050Y227229D02*
X246356D01*
X242050Y226779D02*
X246355D01*
X242050Y216789D02*
X246355D01*
X242050Y206799D02*
X246354D01*
X242428Y167199D02*
X246354D01*
X242050Y196809D02*
X246354D01*
X242050Y177189D02*
X246354D01*
X242050Y186819D02*
X246354D01*
X242050Y187179D02*
X246353D01*
X242050Y176829D02*
X246353D01*
X242050Y197169D02*
X246353D01*
X242788Y166839D02*
X246353D01*
X242050Y207159D02*
X246353D01*
X242050Y217149D02*
X246352D01*
X242050Y227139D02*
X246352D01*
X242050Y226869D02*
X246352D01*
X242050Y216879D02*
X246352D01*
X242050Y206889D02*
X246351D01*
X242518Y167109D02*
X246351D01*
X242050Y196899D02*
X246351D01*
X242050Y177099D02*
X246351D01*
X242050Y186909D02*
X246351D01*
X242050Y187089D02*
X246351D01*
X242050Y176919D02*
X246351D01*
X242050Y197079D02*
X246351D01*
X242698Y166929D02*
X246351D01*
X242050Y207069D02*
X246350D01*
X242050Y217059D02*
X246350D01*
X242050Y227049D02*
X246350D01*
X242050Y226959D02*
X246350D01*
X242050Y216969D02*
X246350D01*
X242050Y206979D02*
X246350D01*
X242608Y167019D02*
X246350D01*
X242050Y196989D02*
X246350D01*
X242050Y177009D02*
X246350D01*
X242050Y186999D02*
X246350D01*
X242050Y230379D02*
X246278D01*
X242050Y230469D02*
X246188D01*
X242050Y230559D02*
X246098D01*
X242050Y230649D02*
X246008D01*
X242050Y230739D02*
X245918D01*
X242050Y230829D02*
X245828D01*
X242050Y230919D02*
X245738D01*
X242050Y231009D02*
X245648D01*
X242050Y231099D02*
X245558D01*
X242050Y231189D02*
X245468D01*
X242050Y231279D02*
X245378D01*
X242050Y231369D02*
X245288D01*
X242050Y231459D02*
X245198D01*
X242050Y231549D02*
X245108D01*
X242050Y231639D02*
X245018D01*
X242050Y231729D02*
X244928D01*
X242050Y231819D02*
X244838D01*
X242050Y231909D02*
X244748D01*
X242050Y231999D02*
X244658D01*
X242050Y232089D02*
X244568D01*
X242050Y232179D02*
X244478D01*
X242050Y232269D02*
X244388D01*
X242050Y232359D02*
X244298D01*
X242050Y232449D02*
X244208D01*
X242050Y232539D02*
X244118D01*
X242050Y232629D02*
X244028D01*
X242050Y232719D02*
X243938D01*
X242050Y232809D02*
X243848D01*
X242050Y232899D02*
X243758D01*
X242050Y232989D02*
X243668D01*
X242050Y233079D02*
X243578D01*
X242050Y233169D02*
X243488D01*
X242050Y233259D02*
X243398D01*
X242050Y233349D02*
X243308D01*
X242050Y233439D02*
X243218D01*
X242050Y233529D02*
X243128D01*
X242050Y233619D02*
X243038D01*
X242050Y233709D02*
X242948D01*
X242050Y233799D02*
X242858D01*
X242050Y233889D02*
X242768D01*
X242050Y233979D02*
X242678D01*
X242050Y234069D02*
X242588D01*
X242050Y234159D02*
X242498D01*
X242050Y234249D02*
X242408D01*
X242050Y234339D02*
X242318D01*
X242050Y234429D02*
X242228D01*
X242062Y234519D02*
X242138D01*
G54D13*
X108554Y101000D02*
X109000D01*
X211212*
X230000Y119788*
Y136000*
X251000Y157000*
X127685Y133740D02*
X116000D01*
Y133000*
X122740Y126260*
X127685*
X106739Y124573D02*
X109020Y126854D01*
Y130035*
X106739Y124573D02*
Y103261D01*
X109000Y101000*
X109020Y130035D02*
Y130526D01*
X112234Y133740*
X116000*
X213346Y206000D02*
X214514D01*
X225514Y217000*
X228500*
X239285Y206215*
Y168715*
X251000Y157000*
X213346Y204937D02*
Y206000D01*
X251000Y157000D02*
Y153000D01*
X251100Y116800*
X210201Y243740D02*
X216000Y243757D01*
X218000Y241757*
Y238243*
X210201Y243740D02*
X213584D01*
X215464Y245620*
X218765*
X209315Y236260D02*
X216017D01*
X218000Y238243*
X209315Y236260D02*
X210201D01*
X213346Y233114*
Y206000*
X209315Y243740D02*
X210201D01*
X254288Y200288D02*
X253828Y199828D01*
X247712Y200288D02*
X248172Y199828D01*
X247712Y193712D02*
X248172Y194172D01*
X254288Y193712D02*
X253828Y194172D01*
X100000Y98000D02*
X330000D01*
Y220800*
X357500*
Y241600*
X353900*
Y247300*
X357500*
Y262200*
X353900*
Y268000*
X100000*
Y98000*
G54D16*
X139201Y126260D02*
X141183Y128243D01*
Y135196*
X139201Y126260D02*
X150000Y115461D01*
Y114313*
X117587Y112965D02*
X118035D01*
X119000Y112000*
X127844*
X138315Y122471*
Y126260*
X117587Y112965D02*
X118831Y111720D01*
X125307*
X134742Y108296D02*
X136038Y107000D01*
X158177*
X163177Y112000*
X185000*
X201000Y128000*
X134742Y108296D02*
Y115446D01*
X136134Y116839*
X138693*
X120000Y108000D02*
X123063Y109161D01*
X125307*
X122000Y120000D02*
X122592Y116839D01*
X125307*
X123000Y130000D02*
X127685D01*
X118000Y125000D02*
X118043Y125043D01*
X138693Y109161D02*
X158177D01*
X166116Y117100*
X179000*
X138693Y111720D02*
X147408D01*
X150000Y114313*
X138693Y114280D02*
X141252D01*
X142644Y114000*
X145000*
X138315Y126260D02*
X139201D01*
X112957Y122035D02*
Y122162D01*
X115162*
X118000Y125000*
X109020Y122035D02*
X109846D01*
X110000Y124000*
X112000Y126000*
X109020Y122035D02*
Y120135D01*
X112155Y117000*
X116000*
X118720Y114280*
X125307*
X112980Y112965D02*
X117587D01*
X112957Y130035D02*
X113051D01*
X118043Y125043*
X109043Y104965D02*
X109909D01*
X110000Y109000*
X112980Y104965D02*
Y112965D01*
X201000Y128000D02*
X206000Y133000D01*
Y163866*
X208197Y166063*
X209654*
X201000Y138000D02*
Y162325D01*
X206706Y168031*
X209654*
X179000Y117100D02*
X190000Y128100D01*
Y155262*
X206706Y171969*
X209654*
X240864Y116800D02*
Y125575D01*
X240900Y125612*
Y131700*
X245982Y116800D02*
Y113163D01*
X248541*
Y116800*
X112000Y161611D02*
X132611Y141000D01*
X135379*
X141183Y135196*
X131559Y218740D02*
X131060D01*
X133928Y215872*
X158700*
X106800Y195981D02*
Y187664D01*
X122664Y171800*
X202835*
X206535Y175500*
X212127*
X223127Y164500*
X228694*
X232000Y167806*
Y201000*
X106800Y195981D02*
X108260Y197441D01*
X103600Y153400D02*
Y201928D01*
X106672Y205000*
X113299*
X115740Y202559*
X103600Y153400D02*
X105000Y152000D01*
X128000Y183394D02*
Y198857D01*
X129000Y199857*
Y211260*
X128000Y183394D02*
X133000Y178394D01*
X112000Y161611D02*
X104800Y168811D01*
Y199099*
X108260Y202559*
X109000Y190000D02*
X112000Y193000D01*
Y197730*
X114415Y200144*
X115740*
Y200000*
Y197441D02*
Y185654D01*
X123000Y178394*
X115740Y197441D02*
Y197297D01*
X117066*
X126441Y206672*
Y211260*
X115740Y202559D02*
Y204588D01*
X125281Y214128*
X130160*
X131703Y212585*
Y211260*
X126441Y218740D02*
Y217559D01*
X128300Y215700*
X131344*
X132644Y214400*
X173276*
X184708Y202969*
X196654*
X131703Y211260D02*
X131559D01*
Y210079*
X134638Y207000*
X155769*
X158703Y209934*
Y211260*
X133000Y178394D02*
X138394Y173000D01*
X202300*
X206300Y177000*
X212450*
X221450Y168000*
X223268*
X223299Y168031*
X226346*
X133000Y188394D02*
X137900Y183494D01*
X209351*
X220876Y171969*
X226346*
X158700Y215872D02*
X180572D01*
X183441Y218740*
X185856Y211260D02*
Y212585D01*
X188270Y215000*
X188860*
X193000Y219140*
Y238055*
X198685Y243740*
X185856Y211260D02*
Y209934D01*
X188790Y207000*
X198501*
X199601Y205900*
X158703Y211260D02*
X174336D01*
X190596Y195000*
X198501*
X199601Y196100*
Y205900*
X193000Y211260D02*
X196737D01*
X200900Y207097*
Y197927*
X224890Y173937*
X226346*
X179600Y211500D02*
X179172D01*
X185735Y204937*
X196654*
X143000Y210000D02*
X147911D01*
X149520Y208391*
X154601*
X156144Y209934*
X201700Y181300D02*
X209847D01*
X221147Y170000*
X226346*
X179600Y211500D02*
X183100Y215000D01*
X183730*
X186144Y217415*
X193000Y211000D02*
Y211260D01*
X150000Y211000D02*
X153441D01*
Y211260*
X218000Y187000D02*
X229294Y175706D01*
Y167068*
X209654Y166063D02*
X211110D01*
X179000Y147100D02*
X193000Y160231D01*
X206706Y173937*
X209654*
X213346Y197063D02*
Y191654D01*
X218000Y187000*
X213346Y199031D02*
X216294D01*
X217000Y198325*
Y197500*
X217700*
X213346Y201000D02*
X232000D01*
X213346Y202969D02*
X217669D01*
X227200Y212500*
X143000Y188394D02*
X159606Y205000D01*
X177000*
X183441Y211260D02*
X185856D01*
X188559D02*
X193000D01*
X188559Y218740D02*
Y239829D01*
X200266Y251535*
X205757*
Y249635*
X186000Y218740D02*
X186144D01*
Y217415*
X158559Y218740D02*
X158700D01*
Y215872*
X156000Y211260D02*
X156144D01*
Y209934*
X158559Y211260D02*
X158703D01*
X226346Y166063D02*
X226409Y166000D01*
X228226*
X229294Y167068*
X251000Y217000D02*
X256000Y222000D01*
X102400Y233723D02*
Y151559D01*
X104959Y149000*
X108000*
X112000Y153000*
Y161611*
X102400Y233723D02*
X122677Y254000D01*
X125323*
X129000Y250323*
Y221299*
X131559Y218740*
X119100Y227262D02*
X126441Y219921D01*
Y218740*
X119100Y227262D02*
Y243494D01*
X124000Y248394*
X147536Y244858D02*
X149671D01*
X151135Y243394*
X155930*
X159000Y240323*
Y236464*
X161970Y233494*
X179391*
X198633Y252735*
X225265*
X251000Y227000*
X147536Y244858D02*
Y242474D01*
X149000Y241010*
Y224362*
X153441Y219921*
Y218740*
X212000Y249500D02*
X212250Y249250D01*
X212557Y249557*
X218765*
X144000Y248394D02*
X147536Y244858D01*
X156000Y236394D02*
X154000Y238394D01*
Y223299*
X158559Y218740*
X154000Y248394D02*
X158900Y243494D01*
X166694*
X177900Y254700*
X243300*
X251000Y247000*
X164000Y248394D02*
X171606Y256000D01*
X248930*
X256000Y248930*
Y222000*
X205757Y249635D02*
X211365D01*
X211750Y249250*
X212000Y249500*
X198685Y243740D02*
Y246682D01*
X201639Y249635*
X201820*
X209315Y240000D02*
X215000D01*
G54D18*
X236218Y116800D03*
X255903D03*
G54D113*
X163000Y188394D03*
Y178394D03*
X153000Y188394D03*
Y178394D03*
X143000Y188394D03*
Y178394D03*
X133000Y188394D03*
Y178394D03*
X123000Y188394D03*
Y178394D03*
X164000Y248394D03*
Y238394D03*
X154000Y248394D03*
Y238394D03*
X144000Y248394D03*
Y238394D03*
X134000Y248394D03*
Y238394D03*
X124000Y248394D03*
Y238394D03*
X251000Y247000D03*
Y237000D03*
Y227000D03*
Y217000D03*
Y207000D03*
Y197000D03*
Y187000D03*
Y177000D03*
Y167000D03*
Y157000D03*
X179000Y147100D03*
Y137100D03*
Y127100D03*
Y117100D03*
Y107100D03*
X201000Y138000D03*
X211000D03*
X201000Y128000D03*
X211000D03*
X201000Y118000D03*
X211000D03*
X201000Y108000D03*
X211000D03*
G54D118*
X227200Y192500D03*
Y212500D03*
X259761Y106170D03*
X232202D03*
X137843Y159000D03*
X128000D03*
Y151126D03*
X137843D03*
G54D130*
X120000Y108000D03*
X122000Y120000D03*
X123000Y130000D03*
X110000Y109000D03*
X118000Y125000D03*
X112000Y126000D03*
X145000Y114000D03*
X240900Y131700D03*
X109000Y190000D03*
X105000Y152000D03*
X143000Y210000D03*
X201700Y181300D03*
X179600Y211500D03*
X193000Y211000D03*
X177000Y205000D03*
X217700Y197500D03*
X150000Y211000D03*
X218000Y187000D03*
X232000Y201000D03*
X212000Y249500D03*
X215000Y240000D03*
G54D167*
X201820Y249635D03*
X205757D03*
X112980Y104965D03*
X109043D03*
X109020Y130035D03*
X112957D03*
X112980Y112965D03*
X109043D03*
X109020Y122035D03*
X112957D03*
G54D168*
X218765Y245620D03*
Y249557D03*
G54D170*
X209315Y243740D03*
Y240000D03*
Y236260D03*
X198685D03*
Y243740D03*
X127685Y126260D03*
Y130000D03*
Y133740D03*
X138315D03*
Y126260D03*
G54D171*
X213346Y204937D03*
Y202969D03*
Y201000D03*
Y199031D03*
Y197063D03*
X196654D03*
Y199031D03*
Y201000D03*
Y202969D03*
Y204937D03*
X226346Y173937D03*
Y171969D03*
Y170000D03*
Y168031D03*
Y166063D03*
X209654D03*
Y168031D03*
Y170000D03*
Y171969D03*
Y173937D03*
G54D172*
X158559Y211260D03*
X156000D03*
X153441D03*
Y218740D03*
X158559D03*
X183441D03*
X186000D03*
X188559D03*
Y211260D03*
X183441D03*
X131559D03*
X129000D03*
X126441D03*
Y218740D03*
X131559D03*
G54D173*
X115740Y202559D03*
Y200000D03*
Y197441D03*
X108260D03*
Y202559D03*
G54D174*
X138693Y116839D03*
Y114280D03*
Y111720D03*
Y109161D03*
X125307D03*
Y111720D03*
Y114280D03*
Y116839D03*
G54D186*
X109220Y140220D03*
X156622D03*
G54D187*
X251100Y116800D03*
X248541D03*
X245982D03*
X243423D03*
X240864D03*
G74*
X0Y0D02*
M02*
