*
*
G04 PADS 9.5 Build Number: 522968 generated Gerber (RS-274-X) file*
G04 PC Version=2.1*
*
%IN "MCollar_INTERFACE_worki"*%
*
%MOIN*%
*
%FSLAX35Y35*%
*
*
*
*
G04 PC Standard Apertures*
*
*
G04 Thermal Relief Aperture macro.*
%AMTER*
1,1,$1,0,0*
1,0,$1-$2,0,0*
21,0,$3,$4,0,0,45*
21,0,$3,$4,0,0,135*
%
*
*
G04 Annular Aperture macro.*
%AMANN*
1,1,$1,0,0*
1,0,$2,0,0*
%
*
*
G04 Odd Aperture macro.*
%AMODD*
1,1,$1,0,0*
1,0,$1-0.005,0,0*
%
*
*
G04 PC Custom Aperture Macros*
*
*
*
*
*
*
G04 PC Aperture Table*
*
%ADD010C,0.001*%
%ADD013C,0.01*%
%ADD025C,0.085*%
%ADD053C,0.065*%
%ADD177R,0.02862X0.025*%
%ADD178R,0.025X0.02862*%
%ADD179R,0.04437X0.02665*%
%ADD180R,0.04594X0.01681*%
%ADD181R,0.02075X0.04437*%
%ADD182R,0.04437X0.02075*%
%ADD183R,0.06602X0.01484*%
%ADD184C,0.115*%
%ADD186C,0.055*%
*
*
*
*
G04 PC Circuitry*
G04 Layer Name MCollar_INTERFACE_worki - circuitry*
%LPD*%
*
*
G04 PC Custom Flashes*
G04 Layer Name MCollar_INTERFACE_worki - flashes*
%LPD*%
*
*
G04 PC Circuitry*
G04 Layer Name MCollar_INTERFACE_worki - circuitry*
%LPD*%
*
G54D10*
G54D13*
G01X100000Y98000D02*
X270000D01*
Y162900*
X298400*
Y184700*
X294400*
Y189500*
X298200*
Y205400*
X294400*
Y211100*
X270000*
Y268000*
X100000*
Y98000*
G54D25*
X193000Y147000D03*
Y137000D03*
Y127000D03*
Y117000D03*
Y107000D03*
X163000Y188394D03*
Y178394D03*
X153000Y188394D03*
Y178394D03*
X143000Y188394D03*
Y178394D03*
X133000Y188394D03*
Y178394D03*
X123000Y188394D03*
Y178394D03*
X164000Y248394D03*
Y238394D03*
X154000Y248394D03*
Y238394D03*
X144000Y248394D03*
Y238394D03*
X134000Y248394D03*
Y238394D03*
X124000Y248394D03*
Y238394D03*
X251000Y247000D03*
Y237000D03*
Y227000D03*
Y217000D03*
Y207000D03*
Y197000D03*
Y187000D03*
Y177000D03*
Y167000D03*
Y157000D03*
X214000Y137000D03*
X224000D03*
X214000Y127000D03*
X224000D03*
X214000Y117000D03*
X224000D03*
X214000Y107000D03*
X224000D03*
G54D53*
X227200Y192500D03*
Y212500D03*
X262630Y104339D03*
Y131898D03*
X137843Y159000D03*
X128000D03*
Y151126D03*
X137843D03*
G54D177*
X112980Y104965D03*
X109043D03*
X109020Y130035D03*
X112957D03*
X112980Y112965D03*
X109043D03*
X109020Y122035D03*
X112957D03*
X201820Y249635D03*
X205757D03*
G54D178*
X218765Y245620D03*
Y249557D03*
G54D179*
X209315Y243740D03*
Y240000D03*
Y236260D03*
X198685D03*
Y243740D03*
X127685Y126260D03*
Y130000D03*
Y133740D03*
X138315D03*
Y126260D03*
G54D180*
X213346Y204937D03*
Y202969D03*
Y201000D03*
Y199031D03*
Y197063D03*
X196654D03*
Y199031D03*
Y201000D03*
Y202969D03*
Y204937D03*
X226346Y173937D03*
Y171969D03*
Y170000D03*
Y168031D03*
Y166063D03*
X209654D03*
Y168031D03*
Y170000D03*
Y171969D03*
Y173937D03*
G54D181*
X158559Y211260D03*
X156000D03*
X153441D03*
Y218740D03*
X156000D03*
X158559D03*
X183441D03*
X186000D03*
X188559D03*
Y211260D03*
X186000D03*
X183441D03*
X131559D03*
X129000D03*
X126441D03*
Y218740D03*
X129000D03*
X131559D03*
G54D182*
X115740Y202559D03*
Y200000D03*
Y197441D03*
X108260D03*
Y200000D03*
Y202559D03*
G54D183*
X138693Y116839D03*
Y114280D03*
Y111720D03*
Y109161D03*
X125307D03*
Y111720D03*
Y114280D03*
Y116839D03*
G54D184*
X109220Y140220D03*
X156622D03*
G54D186*
X252000Y127882D03*
Y108197D03*
X0Y0D02*
M02*
