*
*
G04 PADS 9.5 Build Number: 522968 generated Gerber (RS-274-X) file*
G04 PC Version=2.1*
*
%IN "MCollar_INTERFACE_worki"*%
*
%MOIN*%
*
%FSLAX35Y35*%
*
*
*
*
G04 PC Standard Apertures*
*
*
G04 Thermal Relief Aperture macro.*
%AMTER*
1,1,$1,0,0*
1,0,$1-$2,0,0*
21,0,$3,$4,0,0,45*
21,0,$3,$4,0,0,135*
%
*
*
G04 Annular Aperture macro.*
%AMANN*
1,1,$1,0,0*
1,0,$2,0,0*
%
*
*
G04 Odd Aperture macro.*
%AMODD*
1,1,$1,0,0*
1,0,$1-0.005,0,0*
%
*
*
G04 PC Custom Aperture Macros*
*
*
*
*
*
*
G04 PC Aperture Table*
*
%ADD010C,0.001*%
%ADD013C,0.01*%
%ADD167R,0.02362X0.02*%
%ADD168R,0.02X0.02362*%
%ADD170R,0.03937X0.02165*%
%ADD171R,0.04094X0.01181*%
%ADD172R,0.01575X0.03937*%
%ADD173R,0.03937X0.01575*%
%ADD174R,0.06102X0.00984*%
%ADD187R,0.01575X0.07874*%
*
*
*
*
G04 PC Circuitry*
G04 Layer Name MCollar_INTERFACE_worki - circuitry*
%LPD*%
*
*
G04 PC Custom Flashes*
G04 Layer Name MCollar_INTERFACE_worki - flashes*
%LPD*%
*
*
G04 PC Circuitry*
G04 Layer Name MCollar_INTERFACE_worki - circuitry*
%LPD*%
*
G54D10*
G54D13*
G01X100000Y98000D02*
X330000D01*
Y220800*
X357500*
Y241600*
X353900*
Y247300*
X357500*
Y262200*
X353900*
Y268000*
X100000*
Y98000*
G54D167*
X201820Y249635D03*
X205757D03*
X112980Y104965D03*
X109043D03*
X109020Y130035D03*
X112957D03*
X112980Y112965D03*
X109043D03*
X109020Y122035D03*
X112957D03*
G54D168*
X218765Y245620D03*
Y249557D03*
G54D170*
X209315Y243740D03*
Y240000D03*
Y236260D03*
X198685D03*
Y243740D03*
X127685Y126260D03*
Y130000D03*
Y133740D03*
X138315D03*
Y126260D03*
G54D171*
X213346Y204937D03*
Y202969D03*
Y201000D03*
Y199031D03*
Y197063D03*
X196654D03*
Y199031D03*
Y201000D03*
Y202969D03*
Y204937D03*
X226346Y173937D03*
Y171969D03*
Y170000D03*
Y168031D03*
Y166063D03*
X209654D03*
Y168031D03*
Y170000D03*
Y171969D03*
Y173937D03*
G54D172*
X158559Y211260D03*
X156000D03*
X153441D03*
Y218740D03*
X158559D03*
X183441D03*
X186000D03*
X188559D03*
Y211260D03*
X183441D03*
X131559D03*
X129000D03*
X126441D03*
Y218740D03*
X131559D03*
G54D173*
X115740Y202559D03*
Y200000D03*
Y197441D03*
X108260D03*
Y202559D03*
G54D174*
X138693Y116839D03*
Y114280D03*
Y111720D03*
Y109161D03*
X125307D03*
Y111720D03*
Y114280D03*
Y116839D03*
G54D187*
X251100Y116800D03*
X248541D03*
X245982D03*
X243423D03*
X240864D03*
X0Y0D02*
M02*
