%
T1C.015F095S3
X012Y0108
X011Y0109
X0122Y012
X0118Y0125
X0112Y0126
X0123Y013
X0105Y0152
X0109Y019
X01796Y02115
X015Y0211
X0143Y021
X0177Y0205
X0145Y0114
X02017Y01813
X0218Y0187
X02177Y01975
X0193Y0211
X0215Y024
X0212Y02495
X0232Y0201
T2C.03346F197S55
X0252Y01082
X0252Y012788
T3C.035F197S55
X0128Y015113
X013784Y015113
X0128Y0159
X02272Y02125
X02272Y01925
T4C.03622F197S55
X013784Y0159
T5C.04528F139S55
X026263Y010434
X026263Y01319
T6C.048F139S55
X0193Y0107
X0193Y0117
X0193Y0127
X0193Y0137
X0193Y0147
X0214Y0137
X0224Y0137
X0214Y0127
X0224Y0127
X0214Y0117
X0224Y0117
X0214Y0107
X0224Y0107
X0251Y0157
X0251Y0167
X0251Y0177
X0251Y0187
X0251Y0197
X0251Y0207
X0251Y0217
X0251Y0227
X0251Y0237
X0251Y0247
T7C.06F089S55
X0123Y017839
X0143Y017839
X0133Y017839
X0153Y017839
X0143Y018839
X0123Y018839
X0133Y018839
X0153Y018839
X0154Y023839
X0144Y023839
X0134Y023839
X0124Y023839
X0134Y024839
X0144Y024839
X0124Y024839
X0154Y024839
X0164Y024839
X0164Y023839
X0163Y018839
X0163Y017839
T8C.09055F066S55
X010922Y014022
T9C.09055F066S55
X015662Y014022
M30
