%
T1C.015F095S300
X012000Y010800
X011000Y010900
X012200Y012000
X011800Y012500
X011200Y012600
X012300Y013000
X010500Y015200
X010900Y019000
X017960Y021150
X015000Y021100
X014300Y021000
X017700Y020500
X014500Y011400
X020170Y018130
X021800Y018700
X021770Y019750
X019300Y021100
X021500Y024000
X021200Y024950
X023200Y020100
X024090Y013170
T2C.03346F197S550
X023622Y011680
X025590Y011680
T3C.035F197S550
X012800Y015113
X013784Y015113
X012800Y015900
X022720Y021250
X022720Y019250
T4C.03622F197S550
X013784Y015900
T5C.04528F139S550
X023220Y010617
X025976Y010617
T6C.048F139S550
X017900Y010710
X017900Y011710
X017900Y012710
X017900Y013710
X017900Y014710
X020100Y013800
X021100Y013800
X020100Y012800
X021100Y012800
X020100Y011800
X021100Y011800
X020100Y010800
X021100Y010800
X025100Y015700
X025100Y016700
X025100Y017700
X025100Y018700
X025100Y019700
X025100Y020700
X025100Y021700
X025100Y022700
X025100Y023700
X025100Y024700
T7C.06F089S550
X012300Y017839
X014300Y017839
X013300Y017839
X015300Y017839
X014300Y018839
X012300Y018839
X013300Y018839
X015300Y018839
X015400Y023839
X014400Y023839
X013400Y023839
X012400Y023839
X013400Y024839
X014400Y024839
X012400Y024839
X015400Y024839
X016400Y024839
X016400Y023839
X016300Y018839
X016300Y017839
T8C.09055F066S550
X010922Y014022
T9C.09055F066S550
X015662Y014022
M30
