*
*
G04 PADS 9.5 Build Number: 522968 generated Gerber (RS-274-X) file*
G04 PC Version=2.1*
*
%IN "MCollar_SANDWICH_workin"*%
*
%MOIN*%
*
%FSLAX35Y35*%
*
*
*
*
G04 PC Standard Apertures*
*
*
G04 Thermal Relief Aperture macro.*
%AMTER*
1,1,$1,0,0*
1,0,$1-$2,0,0*
21,0,$3,$4,0,0,45*
21,0,$3,$4,0,0,135*
%
*
*
G04 Annular Aperture macro.*
%AMANN*
1,1,$1,0,0*
1,0,$2,0,0*
%
*
*
G04 Odd Aperture macro.*
%AMODD*
1,1,$1,0,0*
1,0,$1-0.005,0,0*
%
*
*
G04 PC Custom Aperture Macros*
*
*
*
*
*
*
G04 PC Aperture Table*
*
%ADD010C,0.001*%
%ADD013C,0.01*%
%ADD016C,0.006*%
%ADD113C,0.08*%
%ADD130C,0.025*%
%ADD158R,0.01181X0.04331*%
*
*
*
*
G04 PC Circuitry*
G04 Layer Name MCollar_SANDWICH_workin - circuitry*
%LPD*%
*
*
G04 PC Custom Flashes*
G04 Layer Name MCollar_SANDWICH_workin - flashes*
%LPD*%
*
*
G04 PC Circuitry*
G04 Layer Name MCollar_SANDWICH_workin - circuitry*
%LPD*%
*
G54D10*
G54D13*
G01X100000Y100000D02*
X450000D01*
Y450000*
X100000*
Y100000*
G54D16*
X140000Y138000D02*
Y154120D01*
X242880Y257000*
X268506*
X286535Y238971*
Y235906*
X143700Y132800D02*
Y156123D01*
X243377Y255800*
X267738*
X284567Y238971*
Y235906*
X148000Y122000D02*
Y158726D01*
X243874Y254600*
X266969*
X282598Y238971*
Y235906*
X155900Y131800D02*
Y125745D01*
X156800Y124845*
X155800Y139900D02*
Y136300D01*
X158050Y134050*
X172000Y132000D02*
X176500Y136500D01*
Y164789*
X253111Y241400*
X257511*
X260945Y237966*
Y235906*
X172000Y124000D02*
X177700Y129700D01*
Y159042*
X239800Y221142*
Y226392*
X253608Y240200*
X256742*
X258976Y237966*
Y235906*
X172000Y116000D02*
X178900Y122900D01*
Y157893*
X247128Y226121*
Y232023*
X254105Y239000*
X255974*
X257008Y237966*
Y235906*
X172000Y108000D02*
X180100Y116100D01*
Y156268*
X255039Y231208*
Y235906*
X293985Y130000D02*
X290000D01*
X297300Y137300*
X368915*
X378215Y128000*
X388000*
X280000Y130000D02*
X288500Y138500D01*
X376381*
X378881Y136000*
X388000*
X270000Y130000D02*
X279700Y139700D01*
X383700*
X388000Y144000*
X260000Y130000D02*
X270900Y140900D01*
X376900*
X388000Y152000*
X250000Y130000D02*
X262100Y142100D01*
X370100*
X388000Y160000*
X240000Y130000D02*
X253300Y143300D01*
X363300*
X388000Y168000*
X290000Y110000D02*
X297694Y117300D01*
X348131*
X357581Y107850*
X391376*
X408000Y124474*
Y128000*
X280000Y110000D02*
X288894Y118500D01*
X348694*
X358144Y109050*
X390879*
X405300Y123471*
Y129745*
X408000Y132445*
Y136000*
X270000Y110000D02*
X280094Y119700D01*
X349256*
X358706Y110250*
X390382*
X403500Y123368*
Y139500*
X408000Y144000*
X260000Y110000D02*
X270900Y120900D01*
X349840*
X359290Y111450*
X389885*
X401787Y123352*
Y145787*
X408000Y152000*
X250000Y110000D02*
X262494Y122100D01*
X350599*
X360049Y112650*
X389388*
X400329Y123591*
Y152329*
X408000Y160000*
X322693Y128800D02*
X320000Y130000D01*
X368700*
X384850Y113850*
X388891*
X398839Y123799*
Y158613*
X400000Y159774*
Y168000*
X310000Y130000D02*
X314900Y134900D01*
X365959*
X384859Y116000*
X388000*
X300000Y130000D02*
X306100Y136100D01*
X367437*
X383537Y120000*
X388000*
X320000Y110000D02*
X350300D01*
X356300Y104000*
X412000*
X420000Y112000*
X310000Y110000D02*
X315294Y114900D01*
X347109*
X356609Y105400*
X401400*
X408000Y112000*
X300000Y110000D02*
X306494Y116100D01*
X347618*
X357118Y106600*
X394600*
X408000Y120000*
Y136000D02*
X412600Y140600D01*
X408000Y112000D02*
X416200Y120200D01*
X408000Y128000D02*
X413800Y133800D01*
X388000Y120000D02*
X396150Y128150D01*
X388000Y116000D02*
X397350Y125350D01*
Y171873*
X388000Y128000D02*
X394950Y134950D01*
Y170879*
X388000Y136000D02*
X393750Y141750D01*
X408000Y120000D02*
X415000Y127000D01*
X113900Y161059D02*
X139874Y135085D01*
X141415*
X143700Y132800*
X113900Y161059D02*
Y253900D01*
X120000Y260000*
X106700Y151774D02*
Y283630D01*
X118070Y295000*
X146000*
X151000Y300000*
X160000*
X106700Y151774D02*
X146574Y111900D01*
X157926*
X168100Y122074*
Y141676*
X172000Y145576*
Y148000*
X105500Y151277D02*
Y285500D01*
X120000Y300000*
X105500Y151277D02*
X146077Y110700D01*
X158423*
X169600Y121877*
Y126045*
X172000Y128445*
Y132000*
X104300Y150780D02*
Y291230D01*
X118070Y305000*
X146100*
X151494Y310394*
X160000Y310000*
X104300Y150780D02*
X145580Y109500D01*
X158920*
X171220Y121800*
X172000Y124000*
X103100Y150283D02*
Y293100D01*
X120000Y310000*
X103100Y150283D02*
X145383Y108000D01*
X172000*
X107900Y152271D02*
Y277900D01*
X120000Y290000*
X107900Y152271D02*
X147071Y113100D01*
X157429*
X166600Y122271*
Y151000*
X170900Y155300*
X109100Y152768D02*
X147568Y114300D01*
X156932*
X163600Y120968*
Y163241*
X169624Y169265*
X170065*
X172400Y171600*
X109100Y152768D02*
Y276030D01*
X118070Y285000*
X146000*
X151000Y290000*
X160000*
X110300Y153265D02*
Y270300D01*
X120000Y280000*
X110300Y153265D02*
X148065Y115500D01*
X156435*
X159300Y118365*
Y149951*
X132000Y154000D02*
X136400D01*
X240700Y258300*
Y259400*
X270043*
X290472Y238971*
Y235906*
X136000Y146000D02*
Y151817D01*
X242383Y258200*
X269275*
X288504Y238971*
Y235906*
X153700Y157638D02*
X245862Y249800D01*
X263895*
X274724Y238971*
Y235906*
X153700Y157638D02*
Y153002D01*
X156100Y150602*
Y147600*
X152500Y158135D02*
X245365Y251000D01*
X264664*
X276693Y238971*
Y235906*
X152500Y158135D02*
Y146755D01*
X155800Y143455*
Y139900*
X151300Y158632D02*
X244868Y252200D01*
X265432*
X278661Y238971*
Y235906*
X151300Y158632D02*
Y136400D01*
X155900Y131800*
X150100Y159129D02*
X244371Y253400D01*
X266201*
X280630Y238971*
Y235906*
X150100Y159129D02*
Y124600D01*
X154600Y120100*
X171000Y155400D02*
X171702D01*
X171802Y155300*
X171000Y155400D02*
Y164391D01*
X251609Y245000*
X260821*
X266850Y238971*
Y235906*
X155900Y155800D02*
Y153351D01*
X159300Y149951*
X155900Y155800D02*
X160662Y160562D01*
Y162902*
X246359Y248600*
X263127*
X272756Y238971*
Y235906*
X172400Y171600D02*
X248200Y247400D01*
X261815*
X270215Y239000*
X270787Y236502*
Y235906*
X169700Y166300D02*
X172035Y168635D01*
X173011*
X250576Y246200*
X261318*
X268528Y238990*
Y235906*
X268819*
X170900Y155300D02*
X171802D01*
X172000Y148000D02*
Y151255D01*
X174100Y153355*
Y165794*
X252106Y243800*
X260053*
X264882Y238971*
Y235906*
X171900Y140000D02*
Y143505D01*
X175300Y146905*
Y165297*
X252603Y242600*
X258279*
X262913Y237966*
Y235906*
X250000Y150000D02*
Y215512D01*
X255039Y220551*
Y222126*
X388000Y160000D02*
Y163555D01*
X390150Y165705*
Y168891*
X388000Y152000D02*
Y155555D01*
X391350Y158905*
X408000Y144000D02*
Y147555D01*
X411400Y150955*
X408000Y152000D02*
Y155600D01*
X410150Y157750*
X388000Y144000D02*
X392550Y148550D01*
Y169885*
X135100Y242030D02*
Y234900D01*
X140000Y230000*
X135100Y242030D02*
X138070Y245000D01*
X142900*
X150000Y252100*
Y257323*
X157677Y265000*
X162800*
X165800Y268000*
X176000*
X111500Y268430D02*
Y153762D01*
X148562Y116700*
X155938*
X158050Y118812*
Y134050*
X111500Y268430D02*
X118070Y275000D01*
X155000*
X160000Y280000*
X120000Y270000D02*
X112700Y262700D01*
Y154259*
X149059Y117900*
X155441*
X156800Y119259*
Y124845*
X120000Y250000D02*
X115100Y245100D01*
Y170900*
X132000Y154000*
X120000Y240000D02*
X135000Y225000D01*
X157000*
X176000Y244000*
X155100Y252030D02*
Y245294D01*
X160000Y240000*
X155100Y252030D02*
X158070Y255000D01*
X170800*
X175500Y259700*
X176000Y268000D02*
X180126D01*
X181026Y268900*
X272354*
X302283Y238971*
Y235906*
X175500Y259700D02*
X183500Y267700D01*
X271586*
X300315Y238971*
Y235906*
X175800Y252100D02*
X190200Y266500D01*
X270817*
X298346Y238971*
Y235906*
X176000Y244000D02*
X197300Y265300D01*
X270049*
X296378Y238971*
Y235906*
X176200Y236100D02*
X204200Y264100D01*
X268737*
X293837Y239000*
X294409Y236502*
Y235906*
X176300Y227600D02*
X211600Y262900D01*
X268240*
X291963Y239177*
Y234800*
X292441*
Y235906*
X142198Y238702D02*
X140000Y240000D01*
X144900Y235100*
X162030*
X175800Y248870*
Y252100*
X298346Y222126D02*
Y219061D01*
X299607Y217800*
X363302*
X415000Y166102*
Y127000*
X296378Y222126D02*
Y219061D01*
X298839Y216600*
X362805*
X413800Y165605*
Y133800*
X294409Y222126D02*
Y219061D01*
X298070Y215400*
X362308*
X412600Y165108*
Y140600*
X292441Y222126D02*
Y219061D01*
X297302Y214200*
X361811*
X411400Y164611*
Y150955*
X290472Y222126D02*
Y219061D01*
X296533Y213000*
X361314*
X410150Y164164*
Y157750*
X288504Y222126D02*
Y219061D01*
X295765Y211800*
X360817*
X408000Y164617*
Y160000*
X286535Y222126D02*
Y219061D01*
X294996Y210600*
X360320*
X400000Y170920*
Y168000*
X284567Y222126D02*
Y219061D01*
X294242Y209385*
X359837*
X397350Y171873*
X282598Y222126D02*
Y219061D01*
X293509Y208150*
X359376*
X396150Y171376*
Y128150*
X280630Y222126D02*
Y219061D01*
X292850Y206840*
X358989*
X394950Y170879*
X278661Y222126D02*
Y219061D01*
X292302Y205420*
X358712*
X393750Y170382*
Y141750*
X276693Y222126D02*
Y219061D01*
X291754Y204000*
X358435*
X392550Y169885*
X274724Y222126D02*
Y219061D01*
X291852Y201933*
X358805*
X391350Y169388*
Y158905*
X272756Y222126D02*
Y219061D01*
X291951Y199865*
X359175*
X390150Y168891*
X270787Y222126D02*
Y219061D01*
X293848Y196000*
X360000*
X388000Y168000*
X268819Y222126D02*
Y200787D01*
X320000Y150000*
X266850Y222126D02*
Y193150D01*
X310000Y150000*
X264882Y222126D02*
Y185118D01*
X300000Y150000*
X262913Y222126D02*
Y177087D01*
X290000Y150000*
X260945Y222126D02*
Y169055D01*
X280000Y150000*
X258976Y222126D02*
Y161024D01*
X270000Y150000*
X257008Y222126D02*
Y159792D01*
X260000Y156800*
Y150000*
X375900Y292100D02*
X381610D01*
X384510Y295000*
X395000*
X410000Y310000*
X302283Y222126D02*
Y220300D01*
X364226*
X417400Y167126*
Y114600*
X420000Y112000*
X300315Y222126D02*
Y219061D01*
X300376Y219000*
X363799*
X416200Y166599*
Y120200*
X390000Y270000D02*
X399000D01*
X404000Y275000*
X415300*
X425300Y285000*
X431930*
X438500Y291570*
X390000Y240000D02*
X399000D01*
X404000Y245000*
X415000*
X425000Y255000*
X431930*
X443300Y266370*
X410000Y290000D02*
X420300D01*
X425300Y295000*
X431930*
X436100Y299170*
X410000Y270000D02*
X415300D01*
X420300Y275000*
X431930*
X439700Y282770*
X410000Y250000D02*
X425000Y265000D01*
X431930*
X442100Y275170*
X410000Y240000D02*
X423070D01*
X428070Y245000*
X431930*
X444500Y257570*
X410000Y230000D02*
X426930D01*
X446900Y249970*
X430000Y290000D02*
X437300Y297300D01*
X430000Y270000D02*
X440900Y280900D01*
X430000Y240000D02*
X445700Y255700D01*
X255022Y326049D02*
Y327624D01*
X298329Y313844D02*
Y310779D01*
X299608Y309500*
X303648*
X369510Y375362*
Y417510*
X380000Y428000*
X298329Y327624D02*
Y392929D01*
X300000Y394600*
Y400000*
X296361Y313844D02*
Y310779D01*
X298840Y308300*
X304145*
X370998Y375153*
Y414998*
X380000Y424000*
X294392Y313844D02*
Y310779D01*
X298071Y307100*
X304642*
X372383Y374841*
Y404828*
X376000Y408445*
Y412000*
X292424Y313844D02*
Y310779D01*
X297303Y305900*
X305139*
X373768Y374529*
Y398213*
X376000Y400445*
Y404000*
X292424Y327624D02*
Y362643D01*
X292700Y377300*
X290455Y313844D02*
Y310779D01*
X296534Y304700*
X305636*
X376000Y375064*
Y396000*
X290455Y327624D02*
Y362643D01*
X290700Y369300*
X288487Y313844D02*
Y310779D01*
X295766Y303500*
X306133*
X377525Y374892*
Y383151*
X379900Y385526*
Y388000*
X286518Y313844D02*
Y310779D01*
X294997Y302300*
X306630*
X380000Y375670*
Y380000*
X284550Y313844D02*
Y310779D01*
X294229Y301100*
X309100*
X384900Y376900*
Y379300*
X282581Y313844D02*
Y310779D01*
X293460Y299900*
X310941*
X390350Y379309*
Y385550*
X280613Y313844D02*
Y310779D01*
X292692Y298700*
X311438*
X391550Y378812*
Y392450*
X278644Y313844D02*
Y310779D01*
X291923Y297500*
X311935*
X392750Y378315*
Y398650*
X276676Y313844D02*
X276966D01*
Y310760*
X291426Y296300*
X312432*
X393950Y377818*
Y405050*
X274707Y313844D02*
Y313101D01*
X275329Y310700*
X290929Y295100*
X312929*
X397000Y379171*
Y406800*
X400900Y410700*
X272739Y313844D02*
X273029D01*
Y310779*
X289908Y293900*
X313426*
X399600Y380074*
Y397700*
X409000Y407100*
X270770Y313844D02*
Y313040D01*
X271411Y310700*
X289411Y292700*
X313923*
X405300Y384077*
Y394395*
X410700Y399795*
Y404000*
X268802Y313844D02*
X269092D01*
Y310779*
X288371Y291500*
X314420*
X412000Y389080*
Y396000*
X266833Y313844D02*
X267124D01*
Y310760*
X287584Y290300*
X318300*
X356000Y328000*
X372000*
X264865Y313844D02*
X265155D01*
Y310760*
X286815Y289100*
X329500*
X364600Y324200*
X376000*
X262896Y313844D02*
Y313101D01*
X263518Y310700*
X286318Y287900*
X335500*
X362600Y315000*
X375000*
X260928Y313844D02*
Y310779D01*
X285007Y286700*
X345400*
X366700Y308000*
X376200*
X258959Y313844D02*
Y310779D01*
X284238Y285500*
X349500*
X364400Y300400*
X376000*
X256991Y313844D02*
Y310779D01*
X283470Y284300*
X368100*
X375900Y292100*
X255022Y313844D02*
Y310779D01*
X285801Y280000*
X371800*
X375900Y284100*
X376000Y324200D02*
X422730D01*
X434900Y312030*
Y304900*
X375000Y315000D02*
X411930D01*
X414900Y312030*
Y304900*
X376200Y308000D02*
X382000D01*
X390000Y300000*
X302266Y313844D02*
Y315419D01*
X364000Y377153*
Y427700*
X380200Y443900*
X302266Y327624D02*
Y382266D01*
X320000Y400000*
X300298Y313844D02*
Y310779D01*
X300377Y310700*
X303151*
X368000Y375549*
Y423600*
X380000Y435600*
X300298Y327624D02*
Y389904D01*
X310000Y400000*
X410000Y300000D02*
X414900Y304900D01*
X430000Y300000D02*
X434900Y304900D01*
X132700Y384588D02*
X182988Y334300D01*
X258742*
X262342Y330700*
X262896Y328153*
X262896D02*
Y327624D01*
X132700Y384588D02*
Y404600D01*
X136000Y407900*
X131500Y384091D02*
X182491Y333100D01*
X258245*
X260637Y330708*
Y327624*
X260928*
X131500Y384091D02*
Y411500D01*
X135900Y415900*
X130300Y383594D02*
X181994Y331900D01*
X257748*
X258959Y330689*
Y327624*
X130300Y383594D02*
Y418200D01*
X136100Y424000*
X129100Y383097D02*
X181497Y330700D01*
X256980*
X256991Y330689*
Y327624*
X129100Y383097D02*
Y425000D01*
X136200Y432100*
X127900Y382600D02*
X182876Y327624D01*
X255022*
X127900Y382600D02*
Y431800D01*
X136000Y439900*
X133900Y385262D02*
X183662Y335500D01*
X260054*
X264865Y330689*
Y327624*
X133900Y385262D02*
Y398200D01*
X135900Y400200*
X138400Y386500D02*
X150400Y398500D01*
Y436541*
X152559Y438700*
X208197*
X218997Y427900*
X307900*
X320000Y440000*
X138400Y386500D02*
X187000Y337900D01*
X261591*
X268802Y330689*
Y327624*
X136100Y392200D02*
X148700Y404800D01*
Y436538*
X152062Y439900*
X208695*
X219495Y429100*
X299100*
X310000Y440000*
X136100Y392200D02*
Y384759D01*
X184159Y336700*
X260822*
X266833Y330689*
Y327624*
X135900Y400200D02*
X146900Y411200D01*
Y436435*
X151565Y441100*
X209193*
X219993Y430300*
X290300*
X300000Y440000*
X136000Y407900D02*
X145200Y417100D01*
Y436432*
X151068Y442300*
X209693*
X220493Y431500*
X281500*
X290000Y440000*
X135900Y415900D02*
X143500Y423500D01*
Y436429*
X150571Y443500*
X210193*
X220993Y432700*
X272700*
X280000Y440000*
X136100Y424000D02*
X141800Y429700D01*
Y436426*
X150074Y444700*
X210695*
X221495Y433900*
X263900*
X270000Y440000*
X136200Y432100D02*
X140600Y436500D01*
Y436923*
X149577Y445900*
X211398*
X221998Y435300*
Y435100*
X248544*
X248644Y435200*
X248744Y435100*
X255100*
X260000Y440000*
X136000Y439900D02*
X143200Y447100D01*
X211900*
X219000Y440000*
X250000*
X154750Y380127D02*
Y425950D01*
X164100Y435300*
X154750Y380127D02*
X194577Y340300D01*
X263128*
X272739Y330689*
Y327624*
X157150Y381121D02*
X195571Y342700D01*
X264665*
X276676Y330689*
Y327624*
X157150Y381121D02*
Y416950D01*
X164200Y424000*
X155950Y380624D02*
X195074Y341500D01*
X263896*
X274707Y330689*
Y327624*
X155950Y380624D02*
Y423250D01*
X164100Y431400*
X158350Y381618D02*
X196068Y343900D01*
X265433*
X278644Y330689*
Y327624*
X158350Y381618D02*
Y410050D01*
X164100Y415800*
X159550Y382115D02*
X196565Y345100D01*
X266202*
X280613Y330689*
Y327624*
X159550Y382115D02*
Y403350D01*
X163900Y407700*
X160750Y382612D02*
X197062Y346300D01*
X266970*
X282581Y330689*
Y327624*
X160750Y382612D02*
Y393150D01*
X164100Y396500*
Y399900*
X161950Y383109D02*
Y386350D01*
X163900Y388300*
Y392000*
X161950Y383109D02*
X197559Y347500D01*
X267739*
X284550Y330689*
Y327624*
X164100Y384000D02*
X199400Y348700D01*
X268507*
X286518Y330689*
Y327624*
X164100Y384000D02*
X185500Y405400D01*
X304406*
X304706Y405100*
X320000Y420000*
X163900Y392000D02*
X178500Y406600D01*
X296600*
X310000Y420000*
X164100Y399900D02*
X172400Y408200D01*
X288200*
X300000Y420000*
X163900Y407700D02*
X166000Y409800D01*
X279800*
X290000Y420000*
X164100Y415800D02*
X168400Y411500D01*
X271500*
X280000Y420000*
X164200Y424000D02*
X175500Y412700D01*
X262700*
X270000Y420000*
X164100Y431400D02*
X181600Y413900D01*
X253900*
X260000Y420000*
X164100Y435300D02*
X184300Y415100D01*
X245100*
X250000Y420000*
X153000Y436100D02*
Y380180D01*
X194080Y339100*
X262359*
X270770Y330689*
Y327624*
X153000Y436100D02*
X154400Y437500D01*
X207700*
X218600Y426600*
X233400*
X240000Y420000*
X290000Y400000D02*
X296361Y393639D01*
Y327624*
X280000Y400000D02*
X294392Y385608D01*
Y327624*
X270000Y400000D02*
X292700Y377300D01*
X260000Y400000D02*
X290700Y369300D01*
X250000Y400000D02*
X288487Y361907D01*
Y327624*
X376000Y404000D02*
Y406732D01*
X385868Y416600*
X407632*
X442100Y382132*
Y275170*
X380300Y443800D02*
X380200Y443900D01*
X387120*
X446900Y384120*
Y249970*
X380000Y435600D02*
X393723D01*
X445700Y383623*
Y255700*
X386050Y411691D02*
Y408750D01*
X388100Y406700*
Y403300*
X386050Y411691D02*
X387359Y413000D01*
X406141*
X438500Y380641*
Y291570*
X383650Y412685D02*
X386365Y415400D01*
X407135*
X440900Y381635*
Y280900*
X383650Y412685D02*
Y392250D01*
X387900Y388000*
X384850Y412188D02*
Y402450D01*
X387800Y399500*
Y396200*
X384850Y412188D02*
X386862Y414200D01*
X406638*
X439700Y381138*
Y282770*
X380000Y435500D02*
Y435600D01*
Y428000D02*
X399626D01*
X444500Y383126*
Y257570*
X380000Y424000D02*
X401929D01*
X443300Y382629*
Y266370*
X387900Y388000D02*
X390350Y385550D01*
X387800Y396200D02*
X391550Y392450D01*
X388100Y403300D02*
X392750Y398650D01*
X388200Y410800D02*
X393950Y405050D01*
X410700Y404000D02*
X437300Y377400D01*
Y297300*
X412000Y396000D02*
X436100Y371900D01*
Y299170*
G54D113*
X160000Y240000D03*
Y250000D03*
Y260000D03*
Y270000D03*
Y280000D03*
Y290000D03*
Y300000D03*
Y310000D03*
X140000Y230000D03*
Y240000D03*
Y250000D03*
Y260000D03*
Y270000D03*
Y280000D03*
Y290000D03*
Y300000D03*
Y310000D03*
X120000Y240000D03*
Y250000D03*
Y260000D03*
Y270000D03*
Y280000D03*
Y290000D03*
Y300000D03*
Y310000D03*
X430000Y240000D03*
Y250000D03*
Y260000D03*
Y270000D03*
Y280000D03*
Y290000D03*
Y300000D03*
Y310000D03*
X410000Y230000D03*
Y240000D03*
Y250000D03*
Y260000D03*
Y270000D03*
Y280000D03*
Y290000D03*
Y300000D03*
Y310000D03*
X390000Y240000D03*
Y250000D03*
Y260000D03*
Y270000D03*
Y280000D03*
Y290000D03*
Y300000D03*
Y310000D03*
X250000Y400000D03*
X260000D03*
X270000D03*
X280000D03*
X290000D03*
X300000D03*
X310000D03*
X320000D03*
X240000Y420000D03*
X250000D03*
X260000D03*
X270000D03*
X280000D03*
X290000D03*
X300000D03*
X310000D03*
X320000D03*
X250000Y440000D03*
X260000D03*
X270000D03*
X280000D03*
X290000D03*
X300000D03*
X310000D03*
X320000D03*
X250000Y110000D03*
X260000D03*
X270000D03*
X280000D03*
X290000D03*
X300000D03*
X310000D03*
X320000D03*
X240000Y130000D03*
X250000D03*
X260000D03*
X270000D03*
X280000D03*
X290000D03*
X300000D03*
X310000D03*
X320000D03*
X250000Y150000D03*
X260000D03*
X270000D03*
X280000D03*
X290000D03*
X300000D03*
X310000D03*
X320000D03*
G54D130*
X140000Y138000D03*
X143700Y132800D03*
X148000Y122000D03*
X154600Y120100D03*
X155900Y131800D03*
X155800Y139900D03*
X172000Y132000D03*
Y124000D03*
Y116000D03*
Y108000D03*
X408000Y136000D03*
Y112000D03*
Y128000D03*
X388000Y120000D03*
Y116000D03*
Y128000D03*
Y136000D03*
X408000Y120000D03*
X420000Y112000D03*
X132000Y154000D03*
X136000Y146000D03*
X156100Y147600D03*
X155900Y155800D03*
X172400Y171600D03*
X169700Y166300D03*
X170900Y155300D03*
X172000Y148000D03*
X171900Y140000D03*
X388000Y160000D03*
Y168000D03*
Y152000D03*
X408000Y144000D03*
Y160000D03*
Y152000D03*
X388000Y144000D03*
X400000Y168000D03*
X176000Y268000D03*
X175500Y259700D03*
X175800Y252100D03*
X176000Y244000D03*
X176200Y236100D03*
X176300Y227600D03*
X375900Y292100D03*
Y284100D03*
X372000Y328000D03*
X376000Y324200D03*
X375000Y315000D03*
X376200Y308000D03*
X376000Y300400D03*
X384900Y379300D03*
X138400Y386500D03*
X136100Y392200D03*
X135900Y400200D03*
X136000Y407900D03*
X135900Y415900D03*
X136100Y424000D03*
X136200Y432100D03*
X136000Y439900D03*
X164100Y384000D03*
X163900Y392000D03*
X164100Y399900D03*
X163900Y407700D03*
X164100Y415800D03*
X164200Y424000D03*
X164100Y431400D03*
Y435300D03*
X153000Y436100D03*
X376000Y412000D03*
Y404000D03*
Y396000D03*
X379900Y388000D03*
X380000Y435500D03*
Y428000D03*
Y424000D03*
Y380000D03*
X387900Y388000D03*
X387800Y396200D03*
X388100Y403300D03*
X388200Y410800D03*
X400900Y410700D03*
X409000Y407100D03*
X410700Y404000D03*
X412000Y396000D03*
X380300Y443800D03*
G54D158*
X255039Y235906D03*
Y222126D03*
X257008Y235906D03*
Y222126D03*
X258976Y235906D03*
Y222126D03*
X260945Y235906D03*
Y222126D03*
X262913Y235906D03*
Y222126D03*
X264882Y235906D03*
Y222126D03*
X266850Y235906D03*
Y222126D03*
X268819Y235906D03*
Y222126D03*
X270787Y235906D03*
Y222126D03*
X272756Y235906D03*
Y222126D03*
X274724Y235906D03*
Y222126D03*
X276693Y235906D03*
Y222126D03*
X278661Y235906D03*
Y222126D03*
X280630Y235906D03*
Y222126D03*
X282598Y235906D03*
Y222126D03*
X284567Y235906D03*
Y222126D03*
X286535Y235906D03*
Y222126D03*
X288504Y235906D03*
Y222126D03*
X290472Y235906D03*
Y222126D03*
X292441Y235906D03*
Y222126D03*
X294409Y235906D03*
Y222126D03*
X296378Y235906D03*
Y222126D03*
X298346Y235906D03*
Y222126D03*
X300315Y235906D03*
Y222126D03*
X302283Y235906D03*
Y222126D03*
X255022Y327624D03*
Y313844D03*
X256991Y327624D03*
Y313844D03*
X258959Y327624D03*
Y313844D03*
X260928Y327624D03*
Y313844D03*
X262896Y327624D03*
Y313844D03*
X264865Y327624D03*
Y313844D03*
X266833Y327624D03*
Y313844D03*
X268802Y327624D03*
Y313844D03*
X270770Y327624D03*
Y313844D03*
X272739Y327624D03*
Y313844D03*
X274707Y327624D03*
Y313844D03*
X276676Y327624D03*
Y313844D03*
X278644Y327624D03*
Y313844D03*
X280613Y327624D03*
Y313844D03*
X282581Y327624D03*
Y313844D03*
X284550Y327624D03*
Y313844D03*
X286518Y327624D03*
Y313844D03*
X288487Y327624D03*
Y313844D03*
X290455Y327624D03*
Y313844D03*
X292424Y327624D03*
Y313844D03*
X294392Y327624D03*
Y313844D03*
X296361Y327624D03*
Y313844D03*
X298329Y327624D03*
Y313844D03*
X300298Y327624D03*
Y313844D03*
X302266Y327624D03*
Y313844D03*
X0Y0D02*
M02*
