*
*
G04 PADS 9.5 Build Number: 522968 generated Gerber (RS-274-X) file*
G04 PC Version=2.1*
*
%IN "MCollar_INTERFACE_worki"*%
*
%MOIN*%
*
%FSLAX35Y35*%
*
*
*
*
G04 PC Standard Apertures*
*
*
G04 Thermal Relief Aperture macro.*
%AMTER*
1,1,$1,0,0*
1,0,$1-$2,0,0*
21,0,$3,$4,0,0,45*
21,0,$3,$4,0,0,135*
%
*
*
G04 Annular Aperture macro.*
%AMANN*
1,1,$1,0,0*
1,0,$2,0,0*
%
*
*
G04 Odd Aperture macro.*
%AMODD*
1,1,$1,0,0*
1,0,$1-0.005,0,0*
%
*
*
G04 PC Custom Aperture Macros*
*
*
*
*
*
*
G04 PC Aperture Table*
*
%ADD010C,0.001*%
%ADD011C,0.007*%
%ADD012C,0.005*%
%ADD013C,0.01*%
%ADD015C,0.01969*%
%ADD016C,0.006*%
%ADD018C,0.05*%
%ADD019C,0.00787*%
%ADD157C,0.00787*%
*
*
*
*
G04 PC Circuitry*
G04 Layer Name MCollar_INTERFACE_worki - circuitry*
%LPD*%
*
*
G04 PC Custom Flashes*
G04 Layer Name MCollar_INTERFACE_worki - flashes*
%LPD*%
*
*
G04 PC Circuitry*
G04 Layer Name MCollar_INTERFACE_worki - circuitry*
%LPD*%
*
G54D10*
G54D11*
G01X297591Y204772D02*
Y190009D01*
X293850*
Y184103*
X297591*
Y163513*
X270031*
Y210560*
X293850*
Y204772*
X297591*
G54D12*
X238942Y213956D02*
X239254Y214184D01*
X239410Y214525*
Y214979*
X239254Y215320*
X238942Y215547*
X238629*
X238317Y215434*
X238160Y215320*
X238004Y215093*
X237692Y214411*
X237535Y214184*
X237379Y214070*
X237067Y213956*
X236598*
X236285Y214184*
X236129Y214525*
Y214979*
X236285Y215320*
X236598Y215547*
X239410Y212934D02*
X236129D01*
Y211570*
X239410Y210547D02*
X236129D01*
X239410Y209525D02*
X236129D01*
X239410D02*
Y208729D01*
X239254Y208388*
X238942Y208161*
X238629Y208047*
X238160Y207934*
X237379*
X236910Y208047*
X236598Y208161*
X236285Y208388*
X236129Y208729*
Y209525*
X239410Y206911D02*
X236129D01*
X239410D02*
Y205434D01*
X237848Y206911D02*
Y206002D01*
X236129Y206911D02*
Y205434D01*
X238942Y200206D02*
X239254Y200434D01*
X239410Y200775*
Y201229*
X239254Y201570*
X238942Y201797*
X238629*
X238317Y201684*
X238160Y201570*
X238004Y201343*
X237692Y200661*
X237535Y200434*
X237379Y200320*
X237067Y200206*
X236598*
X236285Y200434*
X236129Y200775*
Y201229*
X236285Y201570*
X236598Y201797*
X239410Y199184D02*
X236129Y198615D01*
X239410Y198047D02*
X236129Y198615D01*
X239410Y198047D02*
X236129Y197479D01*
X239410Y196911D02*
X236129Y197479D01*
X239410Y195888D02*
X236129D01*
X239410Y194070D02*
X236129D01*
X239410Y194865D02*
Y193275D01*
X238629Y190547D02*
X238942Y190661D01*
X239254Y190888*
X239410Y191115*
Y191570*
X239254Y191797*
X238942Y192025*
X238629Y192138*
X238160Y192252*
X237379*
X236910Y192138*
X236598Y192025*
X236285Y191797*
X236129Y191570*
Y191115*
X236285Y190888*
X236598Y190661*
X236910Y190547*
X239410Y189525D02*
X236129D01*
X239410Y187934D02*
X236129D01*
X237848Y189525D02*
Y187934D01*
X187591Y157813D02*
X187364Y158125D01*
X187023Y158281*
X186568*
X186227Y158125*
X186000Y157813*
X186000D02*
Y157500D01*
X186114Y157188*
X186114D02*
X186227Y157031D01*
X186455Y156875*
X187136Y156563*
X187136D02*
X187364Y156406D01*
X187477Y156250*
X187591Y155938*
X187591D02*
Y155469D01*
X187364Y155156*
X187023Y155000*
X186568*
X186227Y155156*
X186000Y155469*
X188614Y158281D02*
Y155000D01*
Y158281D02*
X189523Y155000D01*
X190432Y158281D02*
X189523Y155000D01*
X190432Y158281D02*
Y155000D01*
X194068Y158281D02*
Y155000D01*
Y158281D02*
X195091D01*
X195432Y158125*
X195545Y157969*
X195659Y157656*
Y157344*
X195545Y157031*
X195432Y156875*
X195091Y156719*
X194068D02*
X195091D01*
X195432Y156563*
X195432D02*
X195545Y156406D01*
X195659Y156094*
Y155625*
X195545Y155313*
X195545D02*
X195432Y155156D01*
X195091Y155000*
X194068*
X196682Y158281D02*
Y155938D01*
X196682D02*
X196795Y155469D01*
X197023Y155156*
X197364Y155000*
X197591*
X197932Y155156*
X198159Y155469*
X198273Y155938*
X198273D02*
Y158281D01*
X200886Y157813D02*
X200659Y158125D01*
X200318Y158281*
X199864*
X199523Y158125*
X199295Y157813*
X199295D02*
Y157500D01*
X199409Y157188*
X199409D02*
X199523Y157031D01*
X199750Y156875*
X200432Y156563*
X200432D02*
X200659Y156406D01*
X200773Y156250*
X200886Y155938*
X200886D02*
Y155469D01*
X200659Y155156*
X200318Y155000*
X199864*
X199523Y155156*
X199295Y155469*
X240000Y258281D02*
Y255000D01*
Y258281D02*
X241477D01*
X240000Y256719D02*
X240909D01*
X240000Y255000D02*
X241477D01*
X242500Y258281D02*
X244091Y255000D01*
Y258281D02*
X242500Y255000D01*
X245909Y258281D02*
Y255000D01*
X245114Y258281D02*
X246705D01*
X251932Y257813D02*
X251705Y258125D01*
X251364Y258281*
X250909*
X250568Y258125*
X250341Y257813*
X250341D02*
Y257500D01*
X250455Y257188*
X250455D02*
X250568Y257031D01*
X250795Y256875*
X251477Y256563*
X251477D02*
X251705Y256406D01*
X251818Y256250*
X251932Y255938*
X251932D02*
Y255469D01*
X251705Y255156*
X251364Y255000*
X250909*
X250568Y255156*
X250341Y255469*
X252955Y258281D02*
Y255000D01*
Y258281D02*
X254432D01*
X252955Y256719D02*
X253864D01*
X252955Y255000D02*
X254432D01*
X255455Y258281D02*
Y255000D01*
Y258281D02*
X256477D01*
X256818Y258125*
X256932Y257969*
X257045Y257656*
Y257344*
X256932Y257031*
X256818Y256875*
X256477Y256719*
X255455*
X256250D02*
X257045Y255000D01*
X258068Y258281D02*
Y255000D01*
X260000Y258281D02*
X259091Y255000D01*
X260000Y258281D02*
X260909Y255000D01*
X259432Y256094D02*
X260568D01*
X261932Y258281D02*
Y255000D01*
X263295*
X259682Y248281D02*
X259455Y248125D01*
X259227Y247813*
X259227D02*
X259114Y247500D01*
X259000Y247031*
Y246250*
X259114Y245781*
X259227Y245469*
X259455Y245156*
X259682Y245000*
X260136*
X260364Y245156*
X260591Y245469*
X260705Y245781*
X260818Y246250*
Y247031*
X260705Y247500*
X260591Y247813*
X260591D02*
X260364Y248125D01*
X260136Y248281*
X259682*
X261841D02*
Y245938D01*
X261841D02*
X261955Y245469D01*
X262182Y245156*
X262523Y245000*
X262750*
X263091Y245156*
X263318Y245469*
X263432Y245938*
X263432D02*
Y248281D01*
X265250D02*
Y245000D01*
X264455Y248281D02*
X266045D01*
X259000Y238281D02*
Y235000D01*
X260023Y238281D02*
Y235000D01*
Y238281D02*
X261614Y235000D01*
Y238281D02*
Y235000D01*
X260705Y227500D02*
X260591Y227813D01*
X260591D02*
X260364Y228125D01*
X260136Y228281*
X259682*
X259455Y228125*
X259227Y227813*
X259227D02*
X259114Y227500D01*
X259000Y227031*
Y226250*
X259114Y225781*
X259227Y225469*
X259455Y225156*
X259682Y225000*
X260136*
X260364Y225156*
X260591Y225469*
X260705Y225781*
X262523Y228281D02*
Y225000D01*
X261727Y228281D02*
X263318D01*
X264341D02*
Y225000D01*
X265705*
X259795Y218281D02*
Y215000D01*
X259000Y218281D02*
X260591D01*
X263318Y217500D02*
X263205Y217813D01*
X263205D02*
X262977Y218125D01*
X262750Y218281*
X262295*
X262068Y218125*
X261841Y217813*
X261841D02*
X261727Y217500D01*
X261614Y217031*
Y216250*
X261727Y215781*
X261841Y215469*
X262068Y215156*
X262295Y215000*
X262750*
X262977Y215156*
X263205Y215469*
X263318Y215781*
X264341Y218281D02*
Y215000D01*
X265705*
X266727Y218281D02*
Y215000D01*
X268318Y218281D02*
X266727Y216094D01*
X267295Y216875D02*
X268318Y215000D01*
X260705Y207500D02*
X260591Y207813D01*
X260591D02*
X260364Y208125D01*
X260136Y208281*
X259682*
X259455Y208125*
X259227Y207813*
X259227D02*
X259114Y207500D01*
X259000Y207031*
Y206250*
X259114Y205781*
X259227Y205469*
X259455Y205156*
X259682Y205000*
X260136*
X260364Y205156*
X260591Y205469*
X260705Y205781*
X261727Y208281D02*
Y205000D01*
X263091*
X264114Y208281D02*
Y205000D01*
X265705Y208281D02*
X264114Y206094D01*
X264682Y206875D02*
X265705Y205000D01*
X260705Y197500D02*
X260591Y197813D01*
X260591D02*
X260364Y198125D01*
X260136Y198281*
X259682*
X259455Y198125*
X259227Y197813*
X259227D02*
X259114Y197500D01*
X259000Y197031*
Y196250*
X259114Y195781*
X259227Y195469*
X259455Y195156*
X259682Y195000*
X260136*
X260364Y195156*
X260591Y195469*
X260705Y195781*
Y196250*
X260136D02*
X260705D01*
X261727Y198281D02*
Y195000D01*
Y198281D02*
X263318Y195000D01*
Y198281D02*
Y195000D01*
X264341Y198281D02*
Y195000D01*
Y198281D02*
X265136D01*
X265477Y198125*
X265705Y197813*
X265705D02*
X265818Y197500D01*
X265932Y197031*
Y196250*
X265818Y195781*
X265705Y195469*
X265477Y195156*
X265136Y195000*
X264341*
X259000Y188281D02*
Y185000D01*
Y188281D02*
X260477D01*
X259000Y186719D02*
X259909D01*
X263091Y187813D02*
X262864Y188125D01*
X262523Y188281*
X262068*
X261727Y188125*
X261500Y187813*
X261500D02*
Y187500D01*
X261614Y187188*
X261614D02*
X261727Y187031D01*
X261955Y186875*
X262636Y186563*
X262636D02*
X262864Y186406D01*
X262977Y186250*
X263091Y185938*
X263091D02*
Y185469D01*
X262864Y185156*
X262523Y185000*
X262068*
X261727Y185156*
X261500Y185469*
X259000Y178281D02*
Y175000D01*
Y178281D02*
X259795D01*
X260136Y178125*
X260364Y177813*
X260364D02*
X260477Y177500D01*
X260591Y177031*
Y176250*
X260477Y175781*
X260364Y175469*
X260136Y175156*
X259795Y175000*
X259000*
X262636Y177813D02*
Y175000D01*
X261614Y176406D02*
X263659D01*
X259000Y168281D02*
Y165000D01*
Y168281D02*
X259795D01*
X260136Y168125*
X260364Y167813*
X260364D02*
X260477Y167500D01*
X260591Y167031*
Y166250*
X260477Y165781*
X260364Y165469*
X260136Y165156*
X259795Y165000*
X259000*
X261614Y166406D02*
X263659D01*
X259000Y157281D02*
X259909Y154000D01*
X260818Y157281D02*
X259909Y154000D01*
X263545Y156500D02*
X263432Y156813D01*
X263432D02*
X263205Y157125D01*
X262977Y157281*
X262523*
X262295Y157125*
X262068Y156813*
X262068D02*
X261955Y156500D01*
X261841Y156031*
Y155250*
X261955Y154781*
X262068Y154469*
X262295Y154156*
X262523Y154000*
X262977*
X263205Y154156*
X263432Y154469*
X263545Y154781*
X266273Y156500D02*
X266159Y156813D01*
X266159D02*
X265932Y157125D01*
X265705Y157281*
X265250*
X265023Y157125*
X264795Y156813*
X264795D02*
X264682Y156500D01*
X264568Y156031*
Y155250*
X264682Y154781*
X264795Y154469*
X265023Y154156*
X265250Y154000*
X265705*
X265932Y154156*
X266159Y154469*
X266273Y154781*
X243600Y135300D02*
Y100976D01*
X267406*
Y135300*
X243600*
X262926Y111039D02*
X265551D01*
X262926D02*
Y111858D01*
X263051Y112130*
X263176Y112221*
X263426Y112312*
X263801*
X264051Y112221*
X264176Y112130*
X264301Y111858*
Y111039*
X263551Y114494D02*
X263301Y114403D01*
X263051Y114221*
X262926Y114039*
Y113676*
X263051Y113494*
X263301Y113312*
X263551Y113221*
X263926Y113130*
X264551*
X264926Y113221*
X265176Y113312*
X265426Y113494*
X265551Y113676*
Y114039*
X265426Y114221*
X265176Y114403*
X264926Y114494*
X262926Y115312D02*
X265551D01*
X262926D02*
Y116130D01*
X263051Y116403*
X263176Y116494*
X263426Y116585*
X263676*
X263926Y116494*
X264051Y116403*
X264176Y116130*
Y115312D02*
Y116130D01*
X264301Y116403*
X264426Y116494*
X264676Y116585*
X265051*
X265301Y116494*
X265426Y116403*
X265551Y116130*
Y115312*
X262926Y119494D02*
X265551D01*
X262926D02*
Y120676D01*
X264176Y119494D02*
Y120221D01*
X265551Y119494D02*
Y120676D01*
X262926Y122585D02*
X265551D01*
X264176D02*
X263926Y122403D01*
X263801Y122221*
Y121948*
X263926Y121767*
X264176Y121585*
X264551Y121494*
X264801*
X265176Y121585*
X265426Y121767*
X265551Y121948*
Y122221*
X265426Y122403*
X265176Y122585*
X263801Y124494D02*
X265801D01*
X266176Y124403*
X266301Y124312*
X266426Y124130*
Y123858*
X266301Y123676*
X264176Y124494D02*
X263926Y124312D01*
X263801Y124130*
Y123858*
X263926Y123676*
X264176Y123494*
X264551Y123403*
X264801*
X265176Y123494*
X265426Y123676*
X265551Y123858*
Y124130*
X265426Y124312*
X265176Y124494*
X264551Y125312D02*
Y126403D01*
X264301*
X264051Y126312*
X263926Y126221*
X263801Y126039*
Y125767*
X263926Y125585*
X264176Y125403*
X264551Y125312*
X264801*
X265176Y125403*
X265426Y125585*
X265551Y125767*
Y126039*
X265426Y126221*
X265176Y126403*
X258687Y109280D02*
X261031D01*
X261500Y109393*
X261812Y109620*
X261969Y109961*
Y110189*
X261812Y110530*
X261500Y110757*
X261031Y110870*
X258687*
X259156Y113484D02*
X258844Y113257D01*
X258687Y112916*
Y112461*
X258844Y112120*
X259156Y111893*
X259469*
X259781Y112007*
X259937Y112120*
X260094Y112348*
X260406Y113030*
X260562Y113257*
X260719Y113370*
X261031Y113484*
X261500*
X261812Y113257*
X261969Y112916*
Y112461*
X261812Y112120*
X261500Y111893*
X258687Y114507D02*
X261969D01*
X258687D02*
Y115530D01*
X258844Y115870*
X259000Y115984*
X259312Y116098*
X259625*
X259937Y115984*
X260094Y115870*
X260250Y115530*
Y114507D02*
Y115530D01*
X260406Y115870*
X260562Y115984*
X260875Y116098*
X261344*
X261656Y115984*
X261812Y115870*
X261969Y115530*
Y114507*
X258687Y119734D02*
X261969D01*
X258687D02*
Y120757D01*
X258844Y121098*
X259000Y121211*
X259312Y121325*
X259781*
X260094Y121211*
X260250Y121098*
X260406Y120757*
Y119734*
X258687Y122348D02*
X261969Y122916D01*
X258687Y123484D02*
X261969Y122916D01*
X258687Y123484D02*
X261969Y124052D01*
X258687Y124620D02*
X261969Y124052D01*
X258687Y125643D02*
X261969D01*
X258687D02*
Y126666D01*
X258844Y127007*
X259000Y127120*
X259312Y127234*
X259625*
X259937Y127120*
X260094Y127007*
X260250Y126666*
Y125643*
Y126439D02*
X261969Y127234D01*
X123087Y106222D02*
Y103878D01*
X123200Y103410*
X123428Y103097*
X123768Y102941*
X123996*
X124337Y103097*
X124564Y103410*
X124678Y103878*
Y106222*
X127291Y105753D02*
X127064Y106066D01*
X126723Y106222*
X126268*
X125928Y106066*
X125700Y105753*
Y105441*
X125814Y105128*
X125928Y104972*
X126155Y104816*
X126837Y104503*
X127064Y104347*
X127178Y104191*
X127291Y103878*
Y103410*
X127064Y103097*
X126723Y102941*
X126268*
X125928Y103097*
X125700Y103410*
X128314Y106222D02*
Y102941D01*
Y106222D02*
X129337D01*
X129678Y106066*
X129791Y105910*
X129905Y105597*
Y105285*
X129791Y104972*
X129678Y104816*
X129337Y104660*
X128314D02*
X129337D01*
X129678Y104503*
X129791Y104347*
X129905Y104035*
Y103566*
X129791Y103253*
X129678Y103097*
X129337Y102941*
X128314*
X133541Y106222D02*
Y102941D01*
Y106222D02*
X134337D01*
X134678Y106066*
X134905Y105753*
X135018Y105441*
X135132Y104972*
Y104191*
X135018Y103722*
X134905Y103410*
X134678Y103097*
X134337Y102941*
X133541*
X137064Y106222D02*
X136155Y102941D01*
X137064Y106222D02*
X137973Y102941D01*
X136496Y104035D02*
X137632D01*
X139791Y106222D02*
Y102941D01*
X138996Y106222D02*
X140587D01*
X142518D02*
X141609Y102941D01*
X142518Y106222D02*
X143428Y102941D01*
X141950Y104035D02*
X143087D01*
X213845Y148210D02*
Y145710D01*
X213731Y145242*
X213618Y145085*
X213390Y144929*
X213163*
X212936Y145085*
X212822Y145242*
X212709Y145710*
Y146023*
X214868Y147117D02*
Y145554D01*
X214981Y145085*
X215209Y144929*
X215550*
X215777Y145085*
X216118Y145554*
Y147117D02*
Y144929D01*
X217140Y147117D02*
Y144929D01*
Y146492D02*
X217481Y146960D01*
X217709Y147117*
X218050*
X218277Y146960*
X218390Y146492*
Y144929*
Y146492D02*
X218731Y146960D01*
X218959Y147117*
X219300*
X219527Y146960*
X219640Y146492*
Y144929*
X220663Y147117D02*
Y143835D01*
Y146648D02*
X220890Y146960D01*
X221118Y147117*
X221459*
X221686Y146960*
X221913Y146648*
X222027Y146179*
Y145867*
X221913Y145398*
X221686Y145085*
X221459Y144929*
X221118*
X220890Y145085*
X220663Y145398*
X223050Y146179D02*
X224413D01*
Y146492*
X224300Y146804*
X224186Y146960*
X223959Y147117*
X223618*
X223390Y146960*
X223163Y146648*
X223050Y146179*
Y145867*
X223163Y145398*
X223390Y145085*
X223618Y144929*
X223959*
X224186Y145085*
X224413Y145398*
X225436Y147117D02*
Y144929D01*
Y146179D02*
X225550Y146648D01*
X225777Y146960*
X226004Y147117*
X226345*
X230336Y226781D02*
Y224281D01*
X230223Y223813*
X230223D02*
X230109Y223656D01*
X229882Y223500*
X229655*
X229427Y223656*
X229314Y223813*
X229314D02*
X229200Y224281D01*
Y224594*
X232950Y226781D02*
X231814Y223500D01*
X231359Y226781D02*
X232950D01*
X192536Y164781D02*
Y162281D01*
X192423Y161813*
X192423D02*
X192309Y161656D01*
X192082Y161500*
X191855*
X191627Y161656*
X191514Y161813*
X191514D02*
X191400Y162281D01*
Y162594*
X193559Y164156D02*
X193786Y164313D01*
X193786D02*
X194127Y164781D01*
Y161500*
X250236Y263981D02*
Y261481D01*
X250123Y261013*
X250123D02*
X250009Y260856D01*
X249782Y260700*
X249555*
X249327Y260856*
X249214Y261013*
X249214D02*
X249100Y261481D01*
Y261794*
X252395Y263981D02*
X251259Y261794D01*
X252964*
X252395Y263981D02*
Y260700D01*
X239522Y119191D02*
X242022D01*
X242491Y119078*
X242647Y118964*
X242803Y118737*
Y118510*
X242647Y118282*
X242491Y118169*
X242022Y118055*
X241709*
X239522Y121691D02*
Y120555D01*
X240928Y120441*
X240772Y120555*
X240616Y120896*
Y121237*
X240772Y121578*
X241084Y121805*
X241553Y121919*
X241866Y121805*
X242334Y121691*
X242647Y121464*
X242803Y121123*
Y120782*
X242647Y120441*
X242491Y120328*
X242178Y120214*
X217000Y152281D02*
Y149938D01*
X217000D02*
X217114Y149469D01*
X217341Y149156*
X217682Y149000*
X217909*
X218250Y149156*
X218477Y149469*
X218591Y149938*
X218591D02*
Y152281D01*
X220182D02*
X219841Y152125D01*
X219727Y151813*
X219727D02*
Y151500D01*
X219841Y151188*
X219841D02*
X220068Y151031D01*
X220523Y150875*
X220864Y150719*
X221091Y150406*
X221205Y150094*
Y149625*
X221091Y149313*
X221091D02*
X220977Y149156D01*
X220636Y149000*
X220182*
X219841Y149156*
X219727Y149313*
X219727D02*
X219614Y149625D01*
Y150094*
X219727Y150406*
X219955Y150719*
X220295Y150875*
X220750Y151031*
X220977Y151188*
X220977D02*
X221091Y151500D01*
Y151813*
X221091D02*
X220977Y152125D01*
X220636Y152281*
X220182*
G54D13*
X183000Y200000D02*
X103000D01*
Y166000*
X183000*
Y200000*
X184000Y260000D02*
X104000D01*
Y226000*
X184000*
Y260000*
X100000Y98000D02*
X270000D01*
Y162900*
X298400*
Y184700*
X294400*
Y189500*
X298200*
Y205400*
X294400*
Y211100*
X270000*
Y268000*
X100000*
Y98000*
G54D15*
X189340Y150791D02*
G75*
G03X189340I-474J0D01*
G01X242380Y156076D02*
G03X242380I-474J0D01*
G01X246431Y109503D02*
G03X246431I-474J0D01*
G01X143560Y160653D02*
G03X143560I-474J0D01*
G01X210230Y140953D02*
G03X210230I-474J0D01*
G54D16*
G01X137409Y171375D02*
X137136Y171750D01*
X136727Y171938*
X136727D02*
X136182D01*
X136182D02*
X135773Y171750D01*
X135500Y171375*
Y171000*
X135636Y170625*
X135773Y170438*
X135773D02*
X136045Y170250D01*
X136864Y169875*
X137136Y169688*
X137136D02*
X137273Y169500D01*
X137409Y169125*
Y168563*
X137409D02*
X137136Y168188D01*
X137136D02*
X136727Y168000D01*
X136182*
X135773Y168188*
X135773D02*
X135500Y168563D01*
X138636Y171938D02*
Y168000D01*
Y171938D02*
X139864D01*
X139864D02*
X140273Y171750D01*
X140409Y171563*
X140409D02*
X140545Y171188D01*
X140545D02*
Y170625D01*
X140409Y170250*
X140273Y170063*
X140273D02*
X139864Y169875D01*
X138636*
X141773Y171938D02*
Y168000D01*
X137864Y231938D02*
Y228938D01*
X137864D02*
X137727Y228375D01*
X137591Y228188*
X137591D02*
X137318Y228000D01*
X137045*
X136773Y228188*
X136773D02*
X136636Y228375D01*
X136500Y228938*
X136500D02*
Y229313D01*
X140045Y231938D02*
Y228000D01*
X139091Y231938D02*
X141000D01*
X143318D02*
X142227Y228000D01*
X143318Y231938D02*
X144409Y228000D01*
X142636Y229313D02*
X144000D01*
X147682Y231000D02*
X147545Y231375D01*
X147273Y231750*
X147000Y231938*
X147000D02*
X146455D01*
X146455D02*
X146182Y231750D01*
X145909Y231375*
X145773Y231000*
X145636Y230438*
X145636D02*
Y229500D01*
X145773Y228938*
X145773D02*
X145909Y228563D01*
X145909D02*
X146182Y228188D01*
X146182D02*
X146455Y228000D01*
X147000*
X147273Y228188*
X147273D02*
X147545Y228563D01*
X147545D02*
X147682Y228938D01*
X147682D02*
Y229500D01*
X147000D02*
X147682D01*
X142264Y205737D02*
Y202737D01*
X142264D02*
X142127Y202175D01*
X141991Y201987*
X141991D02*
X141718Y201800D01*
X141445*
X141173Y201987*
X141173D02*
X141036Y202175D01*
X140900Y202737*
X140900D02*
Y203112D01*
X143627Y204800D02*
Y204987D01*
X143627D02*
X143764Y205362D01*
X143764D02*
X143900Y205550D01*
X144173Y205737*
X144173D02*
X144718D01*
X144718D02*
X144991Y205550D01*
X145127Y205362*
X145127D02*
X145264Y204987D01*
X145264D02*
Y204612D01*
X145264D02*
X145127Y204237D01*
X145127D02*
X144855Y203675D01*
X143491Y201800*
X145400*
X141964Y265537D02*
Y262537D01*
X141964D02*
X141827Y261975D01*
X141691Y261787*
X141691D02*
X141418Y261600D01*
X141145*
X140873Y261787*
X140873D02*
X140736Y261975D01*
X140600Y262537*
X140600D02*
Y262912D01*
X143464Y265537D02*
X144964D01*
X144964D02*
X144145Y264037D01*
X144145D02*
X144555D01*
X144555D02*
X144827Y263850D01*
X144964Y263662*
X144964D02*
X145100Y263100D01*
Y262725*
X144964Y262162*
X144964D02*
X144691Y261787D01*
X144691D02*
X144282Y261600D01*
X143873*
X143464Y261787*
X143464D02*
X143327Y261975D01*
X143191Y262350*
G54D18*
X173183Y194200D02*
G03X173183I-583J0D01*
G01X174183Y254200D02*
G03X174183I-583J0D01*
G54D19*
G01X186697Y153000D02*
X199000D01*
Y101000*
X186697*
Y153000*
X245000Y253000D02*
X257000D01*
Y151000*
X245000*
Y253000*
X102803Y164828D02*
X163051D01*
Y100546*
X102803*
Y164828*
X207681Y143000D02*
X230000D01*
Y101000*
X207681*
Y143000*
G54D157*
X241500Y183200D02*
X220300D01*
Y221800*
X241500*
Y183200*
X231447Y189600D02*
G03X231447I-447J0D01*
G74*
G01X0Y0D02*
M02*
