*
*
G04 PADS 9.5 Build Number: 522968 generated Gerber (RS-274-X) file*
G04 PC Version=2.1*
*
%IN "MCollar_INTERFACE_worki"*%
*
%MOIN*%
*
%FSLAX35Y35*%
*
*
*
*
G04 PC Standard Apertures*
*
*
G04 Thermal Relief Aperture macro.*
%AMTER*
1,1,$1,0,0*
1,0,$1-$2,0,0*
21,0,$3,$4,0,0,45*
21,0,$3,$4,0,0,135*
%
*
*
G04 Annular Aperture macro.*
%AMANN*
1,1,$1,0,0*
1,0,$2,0,0*
%
*
*
G04 Odd Aperture macro.*
%AMODD*
1,1,$1,0,0*
1,0,$1-0.005,0,0*
%
*
*
G04 PC Custom Aperture Macros*
*
*
*
*
*
*
G04 PC Aperture Table*
*
%ADD010C,0.001*%
%ADD011C,0.007*%
%ADD012C,0.005*%
%ADD013C,0.01*%
%ADD015C,0.01969*%
%ADD016C,0.006*%
%ADD018C,0.05*%
%ADD019C,0.00787*%
%ADD157C,0.00787*%
*
*
*
*
G04 PC Circuitry*
G04 Layer Name MCollar_INTERFACE_worki - circuitry*
%LPD*%
*
*
G04 PC Custom Flashes*
G04 Layer Name MCollar_INTERFACE_worki - flashes*
%LPD*%
*
*
G04 PC Circuitry*
G04 Layer Name MCollar_INTERFACE_worki - circuitry*
%LPD*%
*
G54D10*
G54D11*
G01X357491Y262072D02*
Y247309D01*
X353750*
Y241403*
X357491*
Y220813*
X329931*
Y267860*
X353750*
Y262072*
X357491*
G54D12*
X238942Y213956D02*
X239254Y214184D01*
X239410Y214525*
Y214979*
X239254Y215320*
X238942Y215547*
X238629*
X238317Y215434*
X238160Y215320*
X238004Y215093*
X237692Y214411*
X237535Y214184*
X237379Y214070*
X237067Y213956*
X236598*
X236285Y214184*
X236129Y214525*
Y214979*
X236285Y215320*
X236598Y215547*
X239410Y212934D02*
X236129D01*
Y211570*
X239410Y210547D02*
X236129D01*
X239410Y209525D02*
X236129D01*
X239410D02*
Y208729D01*
X239254Y208388*
X238942Y208161*
X238629Y208047*
X238160Y207934*
X237379*
X236910Y208047*
X236598Y208161*
X236285Y208388*
X236129Y208729*
Y209525*
X239410Y206911D02*
X236129D01*
X239410D02*
Y205434D01*
X237848Y206911D02*
Y206002D01*
X236129Y206911D02*
Y205434D01*
X238942Y200206D02*
X239254Y200434D01*
X239410Y200775*
Y201229*
X239254Y201570*
X238942Y201797*
X238629*
X238317Y201684*
X238160Y201570*
X238004Y201343*
X237692Y200661*
X237535Y200434*
X237379Y200320*
X237067Y200206*
X236598*
X236285Y200434*
X236129Y200775*
Y201229*
X236285Y201570*
X236598Y201797*
X239410Y199184D02*
X236129Y198615D01*
X239410Y198047D02*
X236129Y198615D01*
X239410Y198047D02*
X236129Y197479D01*
X239410Y196911D02*
X236129Y197479D01*
X239410Y195888D02*
X236129D01*
X239410Y194070D02*
X236129D01*
X239410Y194865D02*
Y193275D01*
X238629Y190547D02*
X238942Y190661D01*
X239254Y190888*
X239410Y191115*
Y191570*
X239254Y191797*
X238942Y192025*
X238629Y192138*
X238160Y192252*
X237379*
X236910Y192138*
X236598Y192025*
X236285Y191797*
X236129Y191570*
Y191115*
X236285Y190888*
X236598Y190661*
X236910Y190547*
X239410Y189525D02*
X236129D01*
X239410Y187934D02*
X236129D01*
X237848Y189525D02*
Y187934D01*
X240000Y258281D02*
Y255000D01*
Y258281D02*
X241477D01*
X240000Y256719D02*
X240909D01*
X240000Y255000D02*
X241477D01*
X242500Y258281D02*
X244091Y255000D01*
Y258281D02*
X242500Y255000D01*
X245909Y258281D02*
Y255000D01*
X245114Y258281D02*
X246705D01*
X251932Y257813D02*
X251705Y258125D01*
X251364Y258281*
X250909*
X250568Y258125*
X250341Y257813*
X250341D02*
Y257500D01*
X250455Y257188*
X250455D02*
X250568Y257031D01*
X250795Y256875*
X251477Y256563*
X251477D02*
X251705Y256406D01*
X251818Y256250*
X251932Y255938*
X251932D02*
Y255469D01*
X251705Y255156*
X251364Y255000*
X250909*
X250568Y255156*
X250341Y255469*
X252955Y258281D02*
Y255000D01*
Y258281D02*
X254432D01*
X252955Y256719D02*
X253864D01*
X252955Y255000D02*
X254432D01*
X255455Y258281D02*
Y255000D01*
Y258281D02*
X256477D01*
X256818Y258125*
X256932Y257969*
X257045Y257656*
Y257344*
X256932Y257031*
X256818Y256875*
X256477Y256719*
X255455*
X256250D02*
X257045Y255000D01*
X258068Y258281D02*
Y255000D01*
X260000Y258281D02*
X259091Y255000D01*
X260000Y258281D02*
X260909Y255000D01*
X259432Y256094D02*
X260568D01*
X261932Y258281D02*
Y255000D01*
X263295*
X259682Y248281D02*
X259455Y248125D01*
X259227Y247813*
X259227D02*
X259114Y247500D01*
X259000Y247031*
Y246250*
X259114Y245781*
X259227Y245469*
X259455Y245156*
X259682Y245000*
X260136*
X260364Y245156*
X260591Y245469*
X260705Y245781*
X260818Y246250*
Y247031*
X260705Y247500*
X260591Y247813*
X260591D02*
X260364Y248125D01*
X260136Y248281*
X259682*
X261841D02*
Y245938D01*
X261841D02*
X261955Y245469D01*
X262182Y245156*
X262523Y245000*
X262750*
X263091Y245156*
X263318Y245469*
X263432Y245938*
X263432D02*
Y248281D01*
X265250D02*
Y245000D01*
X264455Y248281D02*
X266045D01*
X259000Y238281D02*
Y235000D01*
X260023Y238281D02*
Y235000D01*
Y238281D02*
X261614Y235000D01*
Y238281D02*
Y235000D01*
X260705Y227500D02*
X260591Y227813D01*
X260591D02*
X260364Y228125D01*
X260136Y228281*
X259682*
X259455Y228125*
X259227Y227813*
X259227D02*
X259114Y227500D01*
X259000Y227031*
Y226250*
X259114Y225781*
X259227Y225469*
X259455Y225156*
X259682Y225000*
X260136*
X260364Y225156*
X260591Y225469*
X260705Y225781*
X262523Y228281D02*
Y225000D01*
X261727Y228281D02*
X263318D01*
X264341D02*
Y225000D01*
X265705*
X259795Y218281D02*
Y215000D01*
X259000Y218281D02*
X260591D01*
X263318Y217500D02*
X263205Y217813D01*
X263205D02*
X262977Y218125D01*
X262750Y218281*
X262295*
X262068Y218125*
X261841Y217813*
X261841D02*
X261727Y217500D01*
X261614Y217031*
Y216250*
X261727Y215781*
X261841Y215469*
X262068Y215156*
X262295Y215000*
X262750*
X262977Y215156*
X263205Y215469*
X263318Y215781*
X264341Y218281D02*
Y215000D01*
X265705*
X266727Y218281D02*
Y215000D01*
X268318Y218281D02*
X266727Y216094D01*
X267295Y216875D02*
X268318Y215000D01*
X260705Y207500D02*
X260591Y207813D01*
X260591D02*
X260364Y208125D01*
X260136Y208281*
X259682*
X259455Y208125*
X259227Y207813*
X259227D02*
X259114Y207500D01*
X259000Y207031*
Y206250*
X259114Y205781*
X259227Y205469*
X259455Y205156*
X259682Y205000*
X260136*
X260364Y205156*
X260591Y205469*
X260705Y205781*
X261727Y208281D02*
Y205000D01*
X263091*
X264114Y208281D02*
Y205000D01*
X265705Y208281D02*
X264114Y206094D01*
X264682Y206875D02*
X265705Y205000D01*
X260705Y197500D02*
X260591Y197813D01*
X260591D02*
X260364Y198125D01*
X260136Y198281*
X259682*
X259455Y198125*
X259227Y197813*
X259227D02*
X259114Y197500D01*
X259000Y197031*
Y196250*
X259114Y195781*
X259227Y195469*
X259455Y195156*
X259682Y195000*
X260136*
X260364Y195156*
X260591Y195469*
X260705Y195781*
Y196250*
X260136D02*
X260705D01*
X261727Y198281D02*
Y195000D01*
Y198281D02*
X263318Y195000D01*
Y198281D02*
Y195000D01*
X264341Y198281D02*
Y195000D01*
Y198281D02*
X265136D01*
X265477Y198125*
X265705Y197813*
X265705D02*
X265818Y197500D01*
X265932Y197031*
Y196250*
X265818Y195781*
X265705Y195469*
X265477Y195156*
X265136Y195000*
X264341*
X259000Y188281D02*
Y185000D01*
Y188281D02*
X260477D01*
X259000Y186719D02*
X259909D01*
X263091Y187813D02*
X262864Y188125D01*
X262523Y188281*
X262068*
X261727Y188125*
X261500Y187813*
X261500D02*
Y187500D01*
X261614Y187188*
X261614D02*
X261727Y187031D01*
X261955Y186875*
X262636Y186563*
X262636D02*
X262864Y186406D01*
X262977Y186250*
X263091Y185938*
X263091D02*
Y185469D01*
X262864Y185156*
X262523Y185000*
X262068*
X261727Y185156*
X261500Y185469*
X259000Y178281D02*
Y175000D01*
Y178281D02*
X259795D01*
X260136Y178125*
X260364Y177813*
X260364D02*
X260477Y177500D01*
X260591Y177031*
Y176250*
X260477Y175781*
X260364Y175469*
X260136Y175156*
X259795Y175000*
X259000*
X262636Y177813D02*
Y175000D01*
X261614Y176406D02*
X263659D01*
X259000Y168281D02*
Y165000D01*
Y168281D02*
X259795D01*
X260136Y168125*
X260364Y167813*
X260364D02*
X260477Y167500D01*
X260591Y167031*
Y166250*
X260477Y165781*
X260364Y165469*
X260136Y165156*
X259795Y165000*
X259000*
X261614Y166406D02*
X263659D01*
X259000Y157281D02*
X259909Y154000D01*
X260818Y157281D02*
X259909Y154000D01*
X263545Y156500D02*
X263432Y156813D01*
X263432D02*
X263205Y157125D01*
X262977Y157281*
X262523*
X262295Y157125*
X262068Y156813*
X262068D02*
X261955Y156500D01*
X261841Y156031*
Y155250*
X261955Y154781*
X262068Y154469*
X262295Y154156*
X262523Y154000*
X262977*
X263205Y154156*
X263432Y154469*
X263545Y154781*
X266273Y156500D02*
X266159Y156813D01*
X266159D02*
X265932Y157125D01*
X265705Y157281*
X265250*
X265023Y157125*
X264795Y156813*
X264795D02*
X264682Y156500D01*
X264568Y156031*
Y155250*
X264682Y154781*
X264795Y154469*
X265023Y154156*
X265250Y154000*
X265705*
X265932Y154156*
X266159Y154469*
X266273Y154781*
X173591Y157913D02*
X173364Y158225D01*
X173023Y158381*
X172568*
X172227Y158225*
X172000Y157913*
X172000D02*
Y157600D01*
X172114Y157288*
X172114D02*
X172227Y157131D01*
X172455Y156975*
X173136Y156663*
X173136D02*
X173364Y156506D01*
X173477Y156350*
X173591Y156038*
X173591D02*
Y155569D01*
X173364Y155256*
X173023Y155100*
X172568*
X172227Y155256*
X172000Y155569*
X174614Y158381D02*
Y155100D01*
Y158381D02*
X175523Y155100D01*
X176432Y158381D02*
X175523Y155100D01*
X176432Y158381D02*
Y155100D01*
X180068Y158381D02*
Y155100D01*
Y158381D02*
X181091D01*
X181432Y158225*
X181545Y158069*
X181659Y157756*
Y157444*
X181545Y157131*
X181432Y156975*
X181091Y156819*
X180068D02*
X181091D01*
X181432Y156663*
X181432D02*
X181545Y156506D01*
X181659Y156194*
Y155725*
X181545Y155413*
X181545D02*
X181432Y155256D01*
X181091Y155100*
X180068*
X182682Y158381D02*
Y156038D01*
X182682D02*
X182795Y155569D01*
X183023Y155256*
X183364Y155100*
X183591*
X183932Y155256*
X184159Y155569*
X184273Y156038*
X184273D02*
Y158381D01*
X186886Y157913D02*
X186659Y158225D01*
X186318Y158381*
X185864*
X185523Y158225*
X185295Y157913*
X185295D02*
Y157600D01*
X185409Y157288*
X185409D02*
X185523Y157131D01*
X185750Y156975*
X186432Y156663*
X186432D02*
X186659Y156506D01*
X186773Y156350*
X186886Y156038*
X186886D02*
Y155569D01*
X186659Y155256*
X186318Y155100*
X185864*
X185523Y155256*
X185295Y155569*
X123087Y106222D02*
Y103878D01*
X123200Y103410*
X123428Y103097*
X123768Y102941*
X123996*
X124337Y103097*
X124564Y103410*
X124678Y103878*
Y106222*
X127291Y105753D02*
X127064Y106066D01*
X126723Y106222*
X126268*
X125928Y106066*
X125700Y105753*
Y105441*
X125814Y105128*
X125928Y104972*
X126155Y104816*
X126837Y104503*
X127064Y104347*
X127178Y104191*
X127291Y103878*
Y103410*
X127064Y103097*
X126723Y102941*
X126268*
X125928Y103097*
X125700Y103410*
X128314Y106222D02*
Y102941D01*
Y106222D02*
X129337D01*
X129678Y106066*
X129791Y105910*
X129905Y105597*
Y105285*
X129791Y104972*
X129678Y104816*
X129337Y104660*
X128314D02*
X129337D01*
X129678Y104503*
X129791Y104347*
X129905Y104035*
Y103566*
X129791Y103253*
X129678Y103097*
X129337Y102941*
X128314*
X133541Y106222D02*
Y102941D01*
Y106222D02*
X134337D01*
X134678Y106066*
X134905Y105753*
X135018Y105441*
X135132Y104972*
Y104191*
X135018Y103722*
X134905Y103410*
X134678Y103097*
X134337Y102941*
X133541*
X137064Y106222D02*
X136155Y102941D01*
X137064Y106222D02*
X137973Y102941D01*
X136496Y104035D02*
X137632D01*
X139791Y106222D02*
Y102941D01*
X138996Y106222D02*
X140587D01*
X142518D02*
X141609Y102941D01*
X142518Y106222D02*
X143428Y102941D01*
X141950Y104035D02*
X143087D01*
X200845Y149210D02*
Y146710D01*
X200731Y146242*
X200618Y146085*
X200390Y145929*
X200163*
X199936Y146085*
X199822Y146242*
X199709Y146710*
Y147023*
X201868Y148117D02*
Y146554D01*
X201981Y146085*
X202209Y145929*
X202550*
X202777Y146085*
X203118Y146554*
Y148117D02*
Y145929D01*
X204140Y148117D02*
Y145929D01*
Y147492D02*
X204481Y147960D01*
X204709Y148117*
X205050*
X205277Y147960*
X205390Y147492*
Y145929*
Y147492D02*
X205731Y147960D01*
X205959Y148117*
X206300*
X206527Y147960*
X206640Y147492*
Y145929*
X207663Y148117D02*
Y144835D01*
Y147648D02*
X207890Y147960D01*
X208118Y148117*
X208459*
X208686Y147960*
X208913Y147648*
X209027Y147179*
Y146867*
X208913Y146398*
X208686Y146085*
X208459Y145929*
X208118*
X207890Y146085*
X207663Y146398*
X210050Y147179D02*
X211413D01*
Y147492*
X211300Y147804*
X211186Y147960*
X210959Y148117*
X210618*
X210390Y147960*
X210163Y147648*
X210050Y147179*
Y146867*
X210163Y146398*
X210390Y146085*
X210618Y145929*
X210959*
X211186Y146085*
X211413Y146398*
X212436Y148117D02*
Y145929D01*
Y147179D02*
X212550Y147648D01*
X212777Y147960*
X213004Y148117*
X213345*
X230336Y226781D02*
Y224281D01*
X230223Y223813*
X230223D02*
X230109Y223656D01*
X229882Y223500*
X229655*
X229427Y223656*
X229314Y223813*
X229314D02*
X229200Y224281D01*
Y224594*
X232950Y226781D02*
X231814Y223500D01*
X231359Y226781D02*
X232950D01*
X250236Y263981D02*
Y261481D01*
X250123Y261013*
X250123D02*
X250009Y260856D01*
X249782Y260700*
X249555*
X249327Y260856*
X249214Y261013*
X249214D02*
X249100Y261481D01*
Y261794*
X252395Y263981D02*
X251259Y261794D01*
X252964*
X252395Y263981D02*
Y260700D01*
X178536Y164881D02*
Y162381D01*
X178423Y161913*
X178423D02*
X178309Y161756D01*
X178082Y161600*
X177855*
X177627Y161756*
X177514Y161913*
X177514D02*
X177400Y162381D01*
Y162694*
X179559Y164256D02*
X179786Y164413D01*
X179786D02*
X180127Y164881D01*
Y161600*
X204000Y153281D02*
Y150938D01*
X204000D02*
X204114Y150469D01*
X204341Y150156*
X204682Y150000*
X204909*
X205250Y150156*
X205477Y150469*
X205591Y150938*
X205591D02*
Y153281D01*
X207182D02*
X206841Y153125D01*
X206727Y152813*
X206727D02*
Y152500D01*
X206841Y152188*
X206841D02*
X207068Y152031D01*
X207523Y151875*
X207864Y151719*
X208091Y151406*
X208205Y151094*
Y150625*
X208091Y150313*
X208091D02*
X207977Y150156D01*
X207636Y150000*
X207182*
X206841Y150156*
X206727Y150313*
X206727D02*
X206614Y150625D01*
Y151094*
X206727Y151406*
X206955Y151719*
X207295Y151875*
X207750Y152031*
X207977Y152188*
X207977D02*
X208091Y152500D01*
Y152813*
X208091D02*
X207977Y153125D01*
X207636Y153281*
X207182*
G54D13*
X183000Y200000D02*
X103000D01*
Y166000*
X183000*
Y200000*
X184000Y260000D02*
X104000D01*
Y226000*
X184000*
Y260000*
X100000Y98000D02*
X330000D01*
Y220800*
X357500*
Y241600*
X353900*
Y247300*
X357500*
Y262200*
X353900*
Y268000*
X100000*
Y98000*
G54D15*
X242380Y156076D02*
G75*
G03X242380I-474J0D01*
G01X175340Y150891D02*
G03X175340I-474J0D01*
G01X143560Y160653D02*
G03X143560I-474J0D01*
G01X197230Y141953D02*
G03X197230I-474J0D01*
G54D16*
G01X137409Y171375D02*
X137136Y171750D01*
X136727Y171938*
X136727D02*
X136182D01*
X136182D02*
X135773Y171750D01*
X135500Y171375*
Y171000*
X135636Y170625*
X135773Y170438*
X135773D02*
X136045Y170250D01*
X136864Y169875*
X137136Y169688*
X137136D02*
X137273Y169500D01*
X137409Y169125*
Y168563*
X137409D02*
X137136Y168188D01*
X137136D02*
X136727Y168000D01*
X136182*
X135773Y168188*
X135773D02*
X135500Y168563D01*
X138636Y171938D02*
Y168000D01*
Y171938D02*
X139864D01*
X139864D02*
X140273Y171750D01*
X140409Y171563*
X140409D02*
X140545Y171188D01*
X140545D02*
Y170625D01*
X140409Y170250*
X140273Y170063*
X140273D02*
X139864Y169875D01*
X138636*
X141773Y171938D02*
Y168000D01*
X137864Y231938D02*
Y228938D01*
X137864D02*
X137727Y228375D01*
X137591Y228188*
X137591D02*
X137318Y228000D01*
X137045*
X136773Y228188*
X136773D02*
X136636Y228375D01*
X136500Y228938*
X136500D02*
Y229313D01*
X140045Y231938D02*
Y228000D01*
X139091Y231938D02*
X141000D01*
X143318D02*
X142227Y228000D01*
X143318Y231938D02*
X144409Y228000D01*
X142636Y229313D02*
X144000D01*
X147682Y231000D02*
X147545Y231375D01*
X147273Y231750*
X147000Y231938*
X147000D02*
X146455D01*
X146455D02*
X146182Y231750D01*
X145909Y231375*
X145773Y231000*
X145636Y230438*
X145636D02*
Y229500D01*
X145773Y228938*
X145773D02*
X145909Y228563D01*
X145909D02*
X146182Y228188D01*
X146182D02*
X146455Y228000D01*
X147000*
X147273Y228188*
X147273D02*
X147545Y228563D01*
X147545D02*
X147682Y228938D01*
X147682D02*
Y229500D01*
X147000D02*
X147682D01*
X142264Y205737D02*
Y202737D01*
X142264D02*
X142127Y202175D01*
X141991Y201987*
X141991D02*
X141718Y201800D01*
X141445*
X141173Y201987*
X141173D02*
X141036Y202175D01*
X140900Y202737*
X140900D02*
Y203112D01*
X143627Y204800D02*
Y204987D01*
X143627D02*
X143764Y205362D01*
X143764D02*
X143900Y205550D01*
X144173Y205737*
X144173D02*
X144718D01*
X144718D02*
X144991Y205550D01*
X145127Y205362*
X145127D02*
X145264Y204987D01*
X145264D02*
Y204612D01*
X145264D02*
X145127Y204237D01*
X145127D02*
X144855Y203675D01*
X143491Y201800*
X145400*
X141964Y265537D02*
Y262537D01*
X141964D02*
X141827Y261975D01*
X141691Y261787*
X141691D02*
X141418Y261600D01*
X141145*
X140873Y261787*
X140873D02*
X140736Y261975D01*
X140600Y262537*
X140600D02*
Y262912D01*
X143464Y265537D02*
X144964D01*
X144964D02*
X144145Y264037D01*
X144145D02*
X144555D01*
X144555D02*
X144827Y263850D01*
X144964Y263662*
X144964D02*
X145100Y263100D01*
Y262725*
X144964Y262162*
X144964D02*
X144691Y261787D01*
X144691D02*
X144282Y261600D01*
X143873*
X143464Y261787*
X143464D02*
X143327Y261975D01*
X143191Y262350*
G54D18*
X173183Y194200D02*
G03X173183I-583J0D01*
G01X174183Y254200D02*
G03X174183I-583J0D01*
G54D19*
G01X245000Y253000D02*
X257000D01*
Y151000*
X245000*
Y253000*
X172697Y153100D02*
X185000D01*
Y101100*
X172697*
Y153100*
X102803Y164828D02*
X163051D01*
Y100546*
X102803*
Y164828*
X194681Y144000D02*
X217000D01*
Y102000*
X194681*
Y144000*
G54D157*
X241500Y183200D02*
X220300D01*
Y221800*
X241500*
Y183200*
X231447Y189600D02*
G03X231447I-447J0D01*
G74*
G01X0Y0D02*
M02*
