*
*
G04 PADS 9.5 Build Number: 522968 generated Gerber (RS-274-X) file*
G04 PC Version=2.1*
*
%IN "MCollar_INTERFACE_worki"*%
*
%MOIN*%
*
%FSLAX35Y35*%
*
*
*
*
G04 PC Standard Apertures*
*
*
G04 Thermal Relief Aperture macro.*
%AMTER*
1,1,$1,0,0*
1,0,$1-$2,0,0*
21,0,$3,$4,0,0,45*
21,0,$3,$4,0,0,135*
%
*
*
G04 Annular Aperture macro.*
%AMANN*
1,1,$1,0,0*
1,0,$2,0,0*
%
*
*
G04 Odd Aperture macro.*
%AMODD*
1,1,$1,0,0*
1,0,$1-0.005,0,0*
%
*
*
G04 PC Custom Aperture Macros*
*
*
*
*
*
*
G04 PC Aperture Table*
*
%ADD010C,0.001*%
%ADD013C,0.01*%
%ADD025C,0.085*%
%ADD053C,0.065*%
%ADD159R,0.08374X0.02075*%
%ADD160C,0.03846*%
%ADD161C,0.05028*%
%ADD162O,0.03846X0.03846*%
%ADD184C,0.115*%
*
*
*
*
G04 PC Circuitry*
G04 Layer Name MCollar_INTERFACE_worki - circuitry*
%LPD*%
*
*
G04 PC Custom Flashes*
G04 Layer Name MCollar_INTERFACE_worki - flashes*
%LPD*%
*
*
G04 PC Circuitry*
G04 Layer Name MCollar_INTERFACE_worki - circuitry*
%LPD*%
*
G54D10*
G54D13*
G01X100000Y98000D02*
X270000D01*
Y162900*
X298400*
Y184700*
X294400*
Y189500*
X298200*
Y205400*
X294400*
Y211100*
X270000*
Y268000*
X100000*
Y98000*
G54D25*
X193000Y147000D03*
Y137000D03*
Y127000D03*
Y117000D03*
Y107000D03*
X251000Y247000D03*
Y237000D03*
Y227000D03*
Y217000D03*
Y207000D03*
Y197000D03*
Y187000D03*
Y177000D03*
Y167000D03*
Y157000D03*
X214000Y137000D03*
X224000D03*
X214000Y127000D03*
X224000D03*
X214000Y117000D03*
X224000D03*
X214000Y107000D03*
X224000D03*
X163000Y188394D03*
Y178394D03*
X153000Y188394D03*
Y178394D03*
X143000Y188394D03*
Y178394D03*
X133000Y188394D03*
Y178394D03*
X123000Y188394D03*
Y178394D03*
X164000Y248394D03*
Y238394D03*
X154000Y248394D03*
Y238394D03*
X144000Y248394D03*
Y238394D03*
X134000Y248394D03*
Y238394D03*
X124000Y248394D03*
Y238394D03*
G54D53*
X227200Y192500D03*
Y212500D03*
X137843Y159000D03*
X128000D03*
Y151126D03*
X137843D03*
G54D159*
X291700Y202600D03*
Y200041D03*
Y197482D03*
Y194923D03*
Y192364D03*
Y176222D03*
Y173663D03*
Y171104D03*
Y168545D03*
Y165986D03*
X252000Y113000D03*
Y115559D03*
Y118118D03*
Y120677D03*
Y123236D03*
G54D160*
Y127882D03*
G54D161*
X262630Y104339D03*
Y131898D03*
G54D162*
X252000Y108197D03*
G54D184*
X109220Y140220D03*
X156622D03*
X0Y0D02*
M02*
