*
*
G04 PADS 9.5 Build Number: 522968 generated Gerber (RS-274-X) file*
G04 PC Version=2.1*
*
%IN "MCollar_MAIN_working.pc"*%
*
%MOIN*%
*
%FSLAX35Y35*%
*
*
*
*
G04 PC Standard Apertures*
*
*
G04 Thermal Relief Aperture macro.*
%AMTER*
1,1,$1,0,0*
1,0,$1-$2,0,0*
21,0,$3,$4,0,0,45*
21,0,$3,$4,0,0,135*
%
*
*
G04 Annular Aperture macro.*
%AMANN*
1,1,$1,0,0*
1,0,$2,0,0*
%
*
*
G04 Odd Aperture macro.*
%AMODD*
1,1,$1,0,0*
1,0,$1-0.005,0,0*
%
*
*
G04 PC Custom Aperture Macros*
*
*
*
*
*
*
G04 PC Aperture Table*
*
%ADD010C,0.001*%
%ADD013C,0.01*%
%ADD029R,0.043X0.035*%
%ADD030R,0.01602X0.02075*%
%ADD031R,0.06406X0.03846*%
%ADD032R,0.02075X0.01602*%
%ADD033R,0.035X0.043*%
%ADD037R,0.09161X0.04043*%
%ADD042R,0.04043X0.09161*%
%ADD044R,0.02469X0.01681*%
%ADD045R,0.05618X0.01878*%
%ADD056R,0.04043X0.04831*%
%ADD064R,0.03846X0.06406*%
%ADD159R,0.02862X0.025*%
%ADD160R,0.025X0.02862*%
%ADD163C,0.01681*%
%ADD164R,0.03846X0.01602*%
%ADD165R,0.01602X0.03846*%
%ADD199R,0.08571X0.12508*%
%ADD200R,0.20815X0.19398*%
%ADD201R,0.10146X0.10146*%
%ADD202R,0.02075X0.01484*%
%ADD203R,0.02075X0.02075*%
%ADD204R,0.02469X0.02075*%
%ADD205R,0.02429X0.01681*%
%ADD206R,0.0365X0.02862*%
%ADD207R,0.02075X0.02469*%
%ADD208R,0.01484X0.02075*%
%ADD209R,0.01484X0.03256*%
%ADD210R,0.03256X0.01484*%
*
*
*
*
G04 PC Circuitry*
G04 Layer Name MCollar_MAIN_working.pc - circuitry*
%LPD*%
*
*
G04 PC Custom Flashes*
G04 Layer Name MCollar_MAIN_working.pc - flashes*
%LPD*%
*
*
G04 PC Circuitry*
G04 Layer Name MCollar_MAIN_working.pc - circuitry*
%LPD*%
*
G54D10*
G54D13*
G01X100000Y100000D02*
X238000D01*
Y220000*
X100000*
Y100000*
G54D29*
X159800Y173700D03*
X153600D03*
X190300Y169000D03*
X196500D03*
X212700Y132500D03*
X206500D03*
X213000Y214600D03*
X206800D03*
X206200Y195400D03*
X212400D03*
X222900Y195800D03*
X229100D03*
X119100Y205500D03*
X112900D03*
G54D30*
X162774Y114250D03*
X160806D03*
X158837D03*
X156869D03*
Y120746D03*
X158837D03*
X160806D03*
X162774D03*
G54D31*
X159920Y117494D03*
G54D32*
X150950Y196826D03*
Y198794D03*
Y200763D03*
Y202731D03*
X157446D03*
Y200763D03*
Y198794D03*
Y196826D03*
X121650Y210626D03*
Y212594D03*
Y214563D03*
Y216531D03*
X128146D03*
Y214563D03*
Y212594D03*
Y210626D03*
G54D33*
X173900Y142900D03*
Y136700D03*
X229100Y202700D03*
Y208900D03*
X213000Y208100D03*
Y201900D03*
G54D37*
X135690Y183024D03*
Y191291D03*
G54D42*
X207876Y204990D03*
X199609D03*
X125424Y202610D03*
X133691D03*
X118176Y196490D03*
X109909D03*
G54D44*
X224042Y207741D03*
Y205772D03*
Y203804D03*
Y201835D03*
G54D45*
X219711Y202426D03*
Y204788D03*
Y207150D03*
G54D56*
X200490Y113828D03*
Y120521D03*
X205608D03*
Y113828D03*
G54D64*
X154194Y199680D03*
X124894Y213480D03*
G54D159*
X143280Y160565D03*
X139343D03*
X143680Y156465D03*
X139743D03*
X154880Y165765D03*
X150943D03*
X148580Y151965D03*
X144643D03*
X144980Y140565D03*
X141043D03*
X196120Y162935D03*
X200057D03*
X148280Y134665D03*
X144343D03*
X151780Y160365D03*
X147843D03*
X202320Y179035D03*
X206257D03*
X151880Y180065D03*
X147943D03*
X174980Y192065D03*
X171043D03*
X193120Y178435D03*
X197057D03*
X145080Y145465D03*
X141143D03*
X186780Y147065D03*
X182843D03*
X128680Y155665D03*
X124743D03*
X160680Y159565D03*
X156743D03*
X169380D03*
X165443D03*
X187420Y159835D03*
X191357D03*
X178520D03*
X182457D03*
X128980Y130865D03*
X125043D03*
X113320Y130835D03*
X117257D03*
X179020Y212735D03*
X182957D03*
X205520Y174535D03*
X209457D03*
X123820Y146135D03*
X127757D03*
X195180Y121265D03*
X191243D03*
X182320Y121235D03*
X186257D03*
X172720Y114235D03*
X176657D03*
X204480Y126565D03*
X200543D03*
X108480Y186665D03*
X104543D03*
X113480Y211065D03*
X109543D03*
X113480Y216165D03*
X109543D03*
X173220Y204935D03*
X177157D03*
X140880Y215065D03*
X136943D03*
X121620Y163635D03*
X125557D03*
X152320Y192335D03*
X156257D03*
X184520Y130335D03*
X188457D03*
G54D160*
X195935Y189480D03*
Y185543D03*
X180235Y137780D03*
Y133843D03*
X166535Y130880D03*
Y126943D03*
X158135Y134180D03*
Y130243D03*
X181735Y172580D03*
Y168643D03*
X180165Y185120D03*
Y189057D03*
X145535Y175480D03*
Y171543D03*
X186565Y181620D03*
Y185557D03*
X156865Y182020D03*
Y185957D03*
X167465Y137220D03*
Y141157D03*
X173935Y160780D03*
Y156843D03*
Y152180D03*
Y148243D03*
X174065Y165420D03*
Y169357D03*
X174165Y173920D03*
Y177857D03*
Y182520D03*
Y186457D03*
X218365Y131920D03*
Y135857D03*
X182235Y116480D03*
Y112543D03*
X144365Y123420D03*
Y127357D03*
X147565Y114320D03*
Y118257D03*
X167635Y120480D03*
Y116543D03*
X234235Y209780D03*
Y205843D03*
X136635Y177480D03*
Y173543D03*
X154865Y207420D03*
Y211357D03*
X163935Y189580D03*
Y185643D03*
X116135Y164080D03*
Y160143D03*
X109165Y166120D03*
Y170057D03*
X148735Y188580D03*
Y184643D03*
X146965Y207320D03*
Y211257D03*
G54D163*
X226006Y109126D03*
X224037D03*
X222069D03*
X218131D03*
X216163D03*
X214194D03*
X212226D03*
X227974Y111094D03*
X224037D03*
X222069D03*
X218131D03*
X216163D03*
X212226D03*
X227974Y113063D03*
X222069D03*
X218131D03*
X212226D03*
X227974Y115031D03*
X226006D03*
X224037D03*
X216163D03*
X214194D03*
X212226D03*
X227974Y118969D03*
X226006D03*
X224037D03*
X216163D03*
X214194D03*
X212226D03*
X210257D03*
X227974Y120937D03*
X222069D03*
X218131D03*
X212226D03*
X227974Y122906D03*
X224037D03*
X222069D03*
X218131D03*
X216163D03*
X212226D03*
X227974Y124874D03*
X226006D03*
X224037D03*
X222069D03*
X218131D03*
X216163D03*
X214194D03*
X212226D03*
G54D164*
X230991Y164590D03*
Y162621D03*
Y160653D03*
Y158684D03*
Y156716D03*
Y154747D03*
Y152779D03*
Y150810D03*
X217409D03*
Y152779D03*
Y154747D03*
Y156716D03*
Y158684D03*
Y160653D03*
Y162621D03*
Y164590D03*
G54D165*
X227153Y166460D03*
Y148940D03*
X221247D03*
Y166460D03*
G54D199*
X224200Y157700D03*
G54D200*
X121700Y115700D03*
G54D201*
X120500Y180100D03*
G54D202*
X231000Y112424D03*
Y110376D03*
Y119476D03*
Y121524D03*
G54D203*
X227200Y178552D03*
Y190048D03*
X117548Y146500D03*
X106052D03*
G54D204*
X224739Y180550D03*
Y183050D03*
Y185550D03*
Y188050D03*
X229661D03*
Y185550D03*
Y183050D03*
Y180550D03*
G54D205*
X228317Y139969D03*
X228376Y138000D03*
Y136031D03*
X225424D03*
Y138000D03*
Y139969D03*
G54D206*
X107527Y108200D03*
Y113200D03*
Y118200D03*
Y123200D03*
X135873D03*
Y118200D03*
Y113200D03*
Y108200D03*
G54D207*
X115550Y144039D03*
X113050D03*
X110550D03*
X108050D03*
Y148961D03*
X110550D03*
X113050D03*
X115550D03*
G54D208*
X219376Y127500D03*
X221424D03*
X219576Y106700D03*
X221624D03*
X220924Y118700D03*
X218876D03*
X218976Y115300D03*
X221024D03*
G54D209*
X125421Y172620D03*
X123453D03*
X121484D03*
X119516D03*
X117547D03*
X115579D03*
Y187580D03*
X117547D03*
X119516D03*
X121484D03*
X123453D03*
X125421D03*
G54D210*
X113020Y175179D03*
Y177147D03*
Y179116D03*
Y181084D03*
Y183053D03*
Y185021D03*
X127980D03*
Y183053D03*
Y181084D03*
Y179116D03*
Y177147D03*
Y175179D03*
X0Y0D02*
M02*
