*
*
G04 PADS 9.5 Build Number: 522968 generated Gerber (RS-274-X) file*
G04 PC Version=2.1*
*
%IN "MCollar_MAIN_working.pc"*%
*
%MOIN*%
*
%FSLAX35Y35*%
*
*
*
*
G04 PC Standard Apertures*
*
*
G04 Thermal Relief Aperture macro.*
%AMTER*
1,1,$1,0,0*
1,0,$1-$2,0,0*
21,0,$3,$4,0,0,45*
21,0,$3,$4,0,0,135*
%
*
*
G04 Annular Aperture macro.*
%AMANN*
1,1,$1,0,0*
1,0,$2,0,0*
%
*
*
G04 Odd Aperture macro.*
%AMODD*
1,1,$1,0,0*
1,0,$1-0.005,0,0*
%
*
*
G04 PC Custom Aperture Macros*
*
*
*
*
*
*
G04 PC Aperture Table*
*
%ADD010C,0.001*%
%ADD011C,0.007*%
%ADD012C,0.005*%
%ADD013C,0.01*%
%ADD022C,0.015*%
%ADD077R,0.038X0.03*%
%ADD078R,0.01102X0.01575*%
%ADD079R,0.05906X0.03346*%
%ADD080R,0.01575X0.01102*%
%ADD081R,0.03X0.038*%
%ADD085R,0.08661X0.03543*%
%ADD086R,0.03543X0.08661*%
%ADD088R,0.01969X0.01181*%
%ADD089R,0.05118X0.01378*%
%ADD098R,0.03543X0.04331*%
%ADD104R,0.03346X0.05906*%
%ADD128C,0.02*%
%ADD150C,0.016*%
%ADD173R,0.02362X0.02*%
%ADD174R,0.02X0.02362*%
%ADD176R,0.03346X0.01102*%
%ADD177R,0.01102X0.03346*%
%ADD184C,0.01181*%
%ADD185R,0.01575X0.00984*%
%ADD186R,0.01575X0.01575*%
%ADD187R,0.01969X0.01575*%
%ADD188R,0.08071X0.12008*%
%ADD189R,0.02047X0.01181*%
%ADD190R,0.01929X0.01181*%
%ADD191R,0.0315X0.02362*%
%ADD192R,0.20315X0.18898*%
%ADD193R,0.01575X0.01969*%
%ADD194R,0.00984X0.01575*%
%ADD195R,0.00984X0.02756*%
%ADD196R,0.02756X0.00984*%
%ADD197R,0.09646X0.09646*%
*
*
*
*
G04 PC Circuitry*
G04 Layer Name MCollar_MAIN_working.pc - circuitry*
%LPD*%
*
*
G04 PC Custom Flashes*
G04 Layer Name MCollar_MAIN_working.pc - flashes*
%LPD*%
*
*
G04 PC Circuitry*
G04 Layer Name MCollar_MAIN_working.pc - circuitry*
%LPD*%
*
G54D10*
G54D11*
G01X109100Y131100D02*
Y130915D01*
X113320*
Y130835*
X104000Y123200D02*
X107527D01*
X135873Y108200D02*
X135900D01*
Y104100*
X128980Y130865D02*
X133665D01*
X135100Y132300*
X145454Y131354D02*
X144287Y132520D01*
Y134665*
X144343*
X188100Y117200D02*
X190852Y121265D01*
X191243*
X218400Y138800D02*
X219569Y139969D01*
X225424*
X162800Y130900D02*
X166535D01*
Y130880*
X158052Y137653D02*
Y134180D01*
X158135*
X202146Y131354D02*
Y131350D01*
X206500*
Y132500*
X142200Y121100D02*
X144902D01*
X147565Y118438*
Y118257*
X202600Y136100D02*
X211450D01*
X212700Y134850*
Y132500*
X178500Y130900D02*
Y132108D01*
X180235Y133843*
X167501Y134503D02*
X167805Y134199D01*
X171799*
X173900Y136300*
Y136700*
X159920Y117494D02*
X160806Y118380D01*
Y120746*
X159920Y117494D02*
X160000D01*
Y117100*
X159920Y117494D02*
X160871Y116543D01*
X167635*
X158837Y120746D02*
Y118577D01*
X159920Y117494*
X176657Y114235D02*
X176700D01*
Y117400*
X144365Y127357D02*
X144721Y127000D01*
X152100*
X186257Y121235D02*
X188100Y119392D01*
Y117200*
X182320Y121235D02*
Y124136D01*
X185284Y127100*
X195200*
X197400Y124900*
X195180Y121265D02*
X195400Y121045D01*
Y117100*
X205608Y120521D02*
X207160Y118969D01*
X210257*
X200490Y113828D02*
X205608D01*
X167465Y137220D02*
X167898Y137653D01*
X170650*
X148280Y134665D02*
Y134616D01*
X151753*
Y134503*
X158135Y130243D02*
X162000Y126379D01*
Y125000*
X166535Y126943D02*
X171657D01*
X173800Y124800*
X222100Y137700D02*
X224809Y137759D01*
X225424*
Y138000*
X222500Y134400D02*
X225208Y136031D01*
X225424*
X228376D02*
X232169D01*
X233800Y134400*
X228376Y138000D02*
X233200D01*
X233800Y137400*
X104550Y152657D02*
X108050Y149157D01*
Y148961*
X104550Y152657D02*
Y177150D01*
X108500Y181100*
Y181084*
X113020*
X125400Y169700D02*
X125557Y169543D01*
Y163635*
X125400Y169700D02*
X125421D01*
Y172620*
X119500Y169700D02*
X119516D01*
Y172620*
X110100Y174500D02*
X112493Y175179D01*
X113020*
X108800Y176800D02*
X111992Y177005D01*
X113020*
Y177147*
X123400Y149300D02*
X123616D01*
Y146135*
X123820*
X130900Y179100D02*
X135016D01*
X136635Y177480*
X110100Y183100D02*
Y183053D01*
X113020*
X110100Y179100D02*
Y179116D01*
X113020*
X117500Y168000D02*
X117547D01*
Y172620*
X118700Y213000D02*
X121213Y212796D01*
X121650*
Y212594*
X110500Y160700D02*
X111057Y160143D01*
X116135*
X106400Y166100D02*
X109165D01*
Y166120*
X104500Y189300D02*
Y186665D01*
X104543*
X109200Y205500D02*
X112900D01*
X106600Y211100D02*
X109543D01*
Y211065*
X106200Y216200D02*
X109543D01*
Y216165*
X133000Y215100D02*
X136943D01*
Y215065*
X135300Y150400D02*
Y152202D01*
X139562Y156465*
X139743*
X132900Y160000D02*
X135649D01*
X136213Y160565*
X139343*
X126600Y149400D02*
X127767Y148233D01*
X121800Y153000D02*
X124594Y155665D01*
X124743*
X121500Y168100D02*
Y163635D01*
X121620*
X118600Y216500D02*
Y216531D01*
X121650*
X124894Y213480D02*
Y214563D01*
X128146*
X124894Y213480D02*
Y212594D01*
X128146*
X124894Y213480D02*
Y213494D01*
X124900Y213500*
X128146Y216531D02*
X129784D01*
X130600Y215715*
Y213800*
X109165Y170057D02*
Y173565D01*
X110100Y174500*
X116135Y164080D02*
X116785D01*
Y164911*
X117500Y168000*
X136635Y173543D02*
Y173362D01*
X142198Y167800*
X144300*
X108480Y186665D02*
X109136D01*
X110100Y183100*
X127980Y175179D02*
X130900D01*
Y175200*
X127980Y177147D02*
X132600D01*
Y177100*
X127980Y179116D02*
X130900D01*
Y179100*
X121484Y172620D02*
Y168100D01*
X121500*
X106052Y146500D02*
X117548D01*
X117574*
X120300Y149400*
X127757Y146135D02*
X127767D01*
Y148233*
X128680Y155665D02*
X128861D01*
X131200Y153326*
Y149900*
X213000Y207150D02*
Y208100D01*
X151550Y206950D02*
X151815Y207215D01*
X154865*
Y207420*
X145535Y175480D02*
X144885D01*
Y180200*
X145000*
X150950Y198794D02*
X150513D01*
Y200763*
X150950*
X195800Y159700D02*
X213642D01*
X214657Y158684*
X217409*
X195900Y150300D02*
X196000Y150200D01*
X206104*
X210400Y154496*
Y156016*
X212184Y157800*
X213616*
X214800Y156616*
Y155835*
X216087Y154548*
X217409*
Y154747*
X195700Y165900D02*
X196120Y165480D01*
Y162935*
X198800Y175300D02*
Y175516D01*
X202320Y179035*
X183249Y162850D02*
X185300Y160798D01*
X186589Y160485*
X187420*
Y159835*
X170650Y165999D02*
Y165701D01*
X174065*
Y165420*
X167501Y169149D02*
X169575D01*
X174165Y173739*
Y173920*
X195900Y193300D02*
Y189480D01*
X195935*
X180100Y140800D02*
Y137780D01*
X180235*
X157900Y169300D02*
X159800Y171200D01*
Y173700*
X189548Y172298D02*
X190300Y171546D01*
Y169000*
X186398Y178598D02*
Y181454D01*
X186565Y181620*
X140800Y210800D02*
Y215065D01*
X140880*
X180099Y178598D02*
Y174398D01*
X181735Y172761*
Y172580*
X180099Y181747D02*
Y185120D01*
X180165*
X151753Y184897D02*
Y180065D01*
X151880*
X202500Y214600D02*
X206800D01*
X218800Y185600D02*
X224689D01*
X224739Y185550*
X211600Y150800D02*
X213961D01*
X216113Y152952*
X217409*
Y152779*
X147800Y200100D02*
X150513Y198996D01*
X150950*
Y198794*
X144300Y167800D02*
X146335Y165765D01*
X150943*
X218000Y169600D02*
X221700Y173300D01*
X224616*
X227153Y170764*
Y166460*
X165900Y216500D02*
X166000Y216400D01*
Y213600*
X166865Y212735*
X179020*
X145000Y164400D02*
X147843Y161557D01*
Y160365*
X202600Y183300D02*
X204250D01*
X206257Y181293*
Y179035*
X169100Y188500D02*
X170460Y192065D01*
X171043*
X164351Y140802D02*
X164706Y141157D01*
X167465*
X180099Y147102D02*
X182806D01*
X182843Y147065*
X183249Y156550D02*
X183288D01*
X189548Y162850D02*
X190193D01*
X191357Y161685*
Y159835*
X164351Y162850D02*
X164677Y159565D01*
X165443*
X192698Y172298D02*
X199698D01*
X201935Y174535*
X205520*
X148603Y175448D02*
X151852D01*
X153600Y173700*
X170650Y178598D02*
Y178688D01*
X174165*
Y177857*
X195847Y181747D02*
X197057Y180538D01*
Y178435*
X170650Y184897D02*
X172210Y186457D01*
X174165*
X145454Y188046D02*
Y186075D01*
X146885Y184643*
X148735*
X146965Y211257D02*
X147065Y211357D01*
X154865*
X146965Y211257D02*
X147000D01*
Y214700*
X156257Y192335D02*
X156958D01*
X157344Y190400*
X159472Y188272*
X159700Y188500*
X177157Y204935D02*
Y204900D01*
X180200*
X163935Y185643D02*
X165060D01*
X167917Y188500*
X169100*
X154194Y199680D02*
Y198794D01*
X157446*
X154194Y199680D02*
Y200763D01*
X157446*
X154194Y199680D02*
X154200D01*
Y204200*
X209457Y174535D02*
Y174600D01*
X213700*
X217409Y164590D02*
Y169009D01*
X218000Y169600*
X182957Y212735D02*
X183269D01*
Y209000*
X183600*
X174065Y169357D02*
Y169149D01*
X176950*
X173935Y148243D02*
X174292Y148600D01*
X175049*
X176700Y150251*
X176950*
X173935Y152180D02*
Y152904D01*
X176950Y153401*
X173900Y142900D02*
X175050D01*
Y144450*
X175548Y145700*
X180099Y150251*
X182457Y159835D02*
X183288D01*
Y156550*
X178520Y159835D02*
Y157985D01*
X180027Y156478*
X180099Y156550*
X169380Y159565D02*
X170091D01*
X170650Y156550*
X160680Y159565D02*
X160731D01*
X164351Y156550*
X173935Y156843D02*
Y156550D01*
X176950*
X173935Y160780D02*
Y161271D01*
X176950Y162850*
X186780Y147065D02*
X186817Y147102D01*
X189548*
X196500Y169000D02*
X198200Y170700D01*
X202600*
X156865Y185957D02*
X158715D01*
X161202Y183470*
Y181747*
X156865Y182020D02*
X157515D01*
Y181189*
X158052Y178598*
X186565Y185557D02*
Y187165D01*
X187900Y188500*
X145535Y171543D02*
Y171133D01*
X148603Y169149*
X180165Y189057D02*
X182557D01*
X183700Y190200*
X189400*
X191100Y188500*
X181735Y168643D02*
X183000Y167379D01*
Y166000*
X174980Y192065D02*
X175300D01*
Y189000*
X147943Y180065D02*
Y183851D01*
X148735Y184643*
X151780Y160365D02*
X151800D01*
X154902Y162850*
X200057Y162935D02*
Y164957D01*
X202600Y167500*
X144643Y151965D02*
Y152591D01*
X148603Y156550*
X148580Y151965D02*
X150039D01*
X151753Y150251*
X154880Y165765D02*
X155041D01*
X158100Y162800*
X143280Y160565D02*
X143480D01*
Y156465*
X143680*
X195935Y185543D02*
X205657D01*
X205800Y185400*
X220900Y146400D02*
X221046Y147617D01*
Y148940*
X221247*
X220900Y146400D02*
Y144684D01*
X222292Y143292*
X224100Y214900D02*
X232000D01*
X234235Y212665*
Y209780*
X224000Y199400D02*
Y201835D01*
X224042*
X233800Y168400D02*
X235650Y170250D01*
X221500Y188100D02*
Y188050D01*
X224739*
X234900Y159400D02*
X235017Y159283D01*
X222100Y143100D02*
X222292Y143292D01*
X234200Y198500D02*
Y202063D01*
X234235Y202099*
Y205843*
X229100Y195800D02*
Y202700D01*
Y208900D02*
Y212700D01*
X224042Y203804D02*
X227996D01*
X229100Y202700*
X224042Y205772D02*
X224113Y205843D01*
X234235*
X224042Y207741D02*
Y214842D01*
X224100Y214900*
X221247Y166460D02*
Y168983D01*
X223782Y171518*
X223900Y171400*
X227153Y148940D02*
X230360D01*
X233900Y145400*
X230991Y150810D02*
X231875D01*
X234300Y149700*
X230991Y152779D02*
X234800D01*
Y152600*
X230991Y154747D02*
X231372D01*
X234900Y155500*
X230991Y156716D02*
Y156548D01*
X232281*
X235017Y159283*
X230991Y160653D02*
Y160485D01*
X232281*
X235000Y163203*
Y163700*
X230991Y164590D02*
X232113D01*
X233800Y166276*
Y168400*
X229661Y183050D02*
X233800D01*
Y183100*
X229661Y185550D02*
X233966D01*
X235650Y183866*
Y170250*
X229661Y188050D02*
X234100D01*
Y188100*
G54D12*
X135873Y112853D02*
Y112269D01*
X137198*
X135873Y112853D02*
X136347D01*
X136599Y112601*
X140200*
Y112400*
X135873Y112853D02*
Y113200D01*
X123400Y132463D02*
Y137792D01*
X124608Y139000*
X127900*
X129700Y140800*
X123400Y132463D02*
X124742Y130865D01*
X125043*
X102250Y126442D02*
X109908Y134100D01*
X111492*
X113850Y136458*
Y138100*
X115550Y139800*
Y144039*
X102250Y126442D02*
Y108075D01*
X104625Y105700*
X107594*
X110194Y103100*
X114600*
X130700D02*
X131500Y102300D01*
X140300*
X142800Y104800*
X158160*
X158800Y104160*
X159709Y102877*
X104000Y111800D02*
X105400Y113200D01*
X107527*
X104100Y116800D02*
X105500Y118200D01*
X107527*
X108200Y126300D02*
X108237Y126337D01*
X109852Y124723*
Y111708*
X104100Y108700D02*
X106100Y110700D01*
X108843*
X109852Y111708*
X135873Y118200D02*
X136875D01*
X142900Y112175*
Y110625*
X145740Y107785*
X212854*
X214194Y109126*
X135873Y123200D02*
X135900D01*
Y126100*
X107527Y108200D02*
X108296D01*
X109435Y106292*
X110227Y105500*
X132167*
X133100Y106433*
Y109243*
X134057Y110200*
X137957*
X141457Y106700*
X213737*
X216163Y109126*
X117257Y130835D02*
X117438D01*
X119032Y132430*
X119222*
X120150Y133358*
Y137750*
X121900Y139500*
X123400Y140800*
X174404Y102896D02*
X176308Y104800D01*
X231092*
X235096Y108804*
X235200Y108700*
X174404Y102896D02*
X174500Y102800D01*
X159600D02*
X159709Y102877D01*
X186398Y134503D02*
X188457Y132445D01*
Y130335*
X189500Y137800D02*
Y133508D01*
X193808Y129200*
X195776*
X198411Y126565*
X200543*
X193500Y124800D02*
X195200Y123100D01*
X198071*
X200490Y121312*
Y120521*
X179700Y113700D02*
X180000Y113400D01*
X182235Y111950*
Y112543*
X157400Y111800D02*
X158837Y114220D01*
Y114250*
X184520Y130335D02*
Y135820D01*
X186400Y137700*
X204480Y126565D02*
X204661D01*
X210289Y120937*
X212226*
X159920Y117494D02*
X160000Y117414D01*
Y117100*
X160806Y114250D02*
Y111800D01*
X160900*
X219376Y127500D02*
X219472Y127404D01*
X216163Y124874D02*
Y129537D01*
X218365Y131739*
Y131920*
X218131Y122906D02*
X219472Y124246D01*
Y127404*
X216163Y118969D02*
Y118735D01*
X218876*
Y118700*
X214194Y115031D02*
X215781Y116618D01*
X217954*
X218976Y115595*
Y115300*
X218131Y111094D02*
X219576Y109650D01*
Y106700*
X218365Y135857D02*
X218400D01*
Y138800*
X220700Y109726D02*
Y108426D01*
X221624Y107502*
Y106700*
X220700Y109726D02*
X222069Y111094D01*
X220728Y125802D02*
X221424Y126498D01*
Y127500*
X220728Y125802D02*
Y124246D01*
X222069Y122906*
X221024Y115300D02*
Y115265D01*
X224037*
Y115031*
X220924Y118700D02*
Y119225D01*
X222400Y119300*
X224037Y120937*
Y122906*
X231000Y121524D02*
Y125592D01*
X232658Y127250*
X234200Y127900*
X228317Y139969D02*
X231900D01*
Y140200*
X227974Y122906D02*
X229700Y124631D01*
Y125907*
X235550Y131757*
X226006Y118969D02*
X227374Y117600D01*
X228828*
X230705Y119476*
X231000*
X226006Y115031D02*
X227374Y116400D01*
X228501*
X231000Y113901*
Y112424*
X227974Y115031D02*
X229400Y113606D01*
Y110439*
X229463Y110376*
X231000*
X112500Y166100D02*
X108750Y162350D01*
Y159309*
X110750Y157309*
Y149161*
X138400Y150600D02*
X141143Y147857D01*
Y145465*
X136300Y140600D02*
X141043D01*
Y140565*
X116100Y214600D02*
X116250Y214750D01*
X121463*
X121650Y214563*
X115550Y148961D02*
X116087D01*
Y148217*
X116100Y149422*
Y150900*
X122700Y157500*
X128592*
X131300Y160208*
Y163563*
X135737Y168000*
X136700*
X113050Y148961D02*
Y149650D01*
X114150Y150750*
Y153542*
X115058Y154450*
X118050*
X125200Y161600*
Y163635*
X125557*
X110550Y148961D02*
X110750Y149161D01*
X156502Y159323D02*
Y154951D01*
X158052Y153401*
X156502Y159323D02*
X156743Y159565D01*
X219463Y143163D02*
X221325Y141300D01*
X223457*
X224157Y142000*
X232575*
X235550Y139025*
Y131757*
X219463Y143163D02*
X219600Y143300D01*
X207700Y171200D02*
Y170861D01*
X216113Y162448*
X217409*
Y162621*
Y150810D02*
Y145491D01*
X219600Y143300*
X174165Y182520D02*
Y182339D01*
X176356Y180148*
X177592*
X178500Y179240*
Y167600*
X180099Y166001*
Y165999*
X186565Y181620D02*
X186963D01*
X188543Y183200*
X189992*
X191000Y182192*
Y180374*
X192939Y178435*
X193120*
X145080Y145465D02*
X147468D01*
X147530Y145527*
X153328*
X154902Y147102*
X144980Y140565D02*
X145161D01*
X146997Y142400*
X153350*
X154902Y143952*
X143680Y156465D02*
X145968D01*
X147604Y158100*
X152395*
X153328Y157168*
Y154976*
X154902Y153401*
X129704Y183650D02*
X126550D01*
Y182550*
X129804*
X131104Y181250*
X140150*
Y184850*
X130904*
X129704Y183650*
X121150Y188859D02*
Y186350D01*
X121850*
Y189176*
X122050Y189476*
Y210950*
X120950*
Y189259*
X121150Y188859*
X123150Y191196D02*
Y186350D01*
X123750*
Y189104*
X127050Y192404*
Y206950*
X123550*
Y191596*
X123150Y191196*
X131250Y189650D02*
X151650D01*
Y197150*
X131250*
Y189650*
X141650Y202350D02*
X151650D01*
Y206950*
X131850*
Y198350*
X141650*
Y202350*
X127550Y210950D02*
X130391D01*
X132791Y212950*
X143850*
Y208750*
X127550*
Y210950*
X156850Y202450D02*
Y204050D01*
X159550*
Y206750*
X172250*
Y199050*
X159550*
Y202450*
X156850*
X156750Y197150D02*
X167950D01*
Y190550*
X158750*
Y195450*
X156750*
Y197150*
X211650Y217050D02*
Y206950D01*
X221950*
Y217050*
X211650*
X211450Y202250D02*
X221450D01*
Y193250*
X211450*
Y202250*
X201250Y207150D02*
X182750D01*
Y200650*
X201250*
Y207150*
X130704Y184650D02*
X140150D01*
X130204Y184150D02*
X140150D01*
X126550Y183650D02*
X140150D01*
X126550Y183150D02*
X140150D01*
X126550Y182650D02*
X140150D01*
X130204Y182150D02*
X140150D01*
X130704Y181650D02*
X140150D01*
X126704Y182550D02*
Y183650D01*
X127204Y182550D02*
Y183650D01*
X127704Y182550D02*
Y183650D01*
X128204Y182550D02*
Y183650D01*
X128704Y182550D02*
Y183650D01*
X129204Y182550D02*
Y183650D01*
X129704Y182550D02*
Y183650D01*
X130204Y182150D02*
Y184150D01*
X130704Y181650D02*
Y184650D01*
X131204Y181250D02*
Y184850D01*
X131704Y181250D02*
Y184850D01*
X132204Y181250D02*
Y184850D01*
X132704Y181250D02*
Y184850D01*
X133204Y181250D02*
Y184850D01*
X133704Y181250D02*
Y184850D01*
X134204Y181250D02*
Y184850D01*
X134704Y181250D02*
Y184850D01*
X135204Y181250D02*
Y184850D01*
X135704Y181250D02*
Y184850D01*
X136204Y181250D02*
Y184850D01*
X136704Y181250D02*
Y184850D01*
X137204Y181250D02*
Y184850D01*
X137704Y181250D02*
Y184850D01*
X138204Y181250D02*
Y184850D01*
X138704Y181250D02*
Y184850D01*
X139204Y181250D02*
Y184850D01*
X139704Y181250D02*
Y184850D01*
X120950Y210859D02*
X122050D01*
X120950Y210359D02*
X122050D01*
X120950Y209859D02*
X122050D01*
X120950Y209359D02*
X122050D01*
X120950Y208859D02*
X122050D01*
X120950Y208359D02*
X122050D01*
X120950Y207859D02*
X122050D01*
X120950Y207359D02*
X122050D01*
X120950Y206859D02*
X122050D01*
X120950Y206359D02*
X122050D01*
X120950Y205859D02*
X122050D01*
X120950Y205359D02*
X122050D01*
X120950Y204859D02*
X122050D01*
X120950Y204359D02*
X122050D01*
X120950Y203859D02*
X122050D01*
X120950Y203359D02*
X122050D01*
X120950Y202859D02*
X122050D01*
X120950Y202359D02*
X122050D01*
X120950Y201859D02*
X122050D01*
X120950Y201359D02*
X122050D01*
X120950Y200859D02*
X122050D01*
X120950Y200359D02*
X122050D01*
X120950Y199859D02*
X122050D01*
X120950Y199359D02*
X122050D01*
X120950Y198859D02*
X122050D01*
X120950Y198359D02*
X122050D01*
X120950Y197859D02*
X122050D01*
X120950Y197359D02*
X122050D01*
X120950Y196859D02*
X122050D01*
X120950Y196359D02*
X122050D01*
X120950Y195859D02*
X122050D01*
X120950Y195359D02*
X122050D01*
X120950Y194859D02*
X122050D01*
X120950Y194359D02*
X122050D01*
X120950Y193859D02*
X122050D01*
X120950Y193359D02*
X122050D01*
X120950Y192859D02*
X122050D01*
X120950Y192359D02*
X122050D01*
X120950Y191859D02*
X122050D01*
X120950Y191359D02*
X122050D01*
X120950Y190859D02*
X122050D01*
X120950Y190359D02*
X122050D01*
X120950Y189859D02*
X122050D01*
X120950Y189359D02*
X121972D01*
X121150Y188859D02*
X121850D01*
X121150Y188359D02*
X121850D01*
X121150Y187859D02*
X121850D01*
X121150Y187359D02*
X121850D01*
X121150Y186859D02*
X121850D01*
X121150Y186359D02*
X121850D01*
X121150Y188859D02*
Y210950D01*
X121650Y186350D02*
Y210950D01*
X123550Y206696D02*
X127050D01*
X123550Y206196D02*
X127050D01*
X123550Y205696D02*
X127050D01*
X123550Y205196D02*
X127050D01*
X123550Y204696D02*
X127050D01*
X123550Y204196D02*
X127050D01*
X123550Y203696D02*
X127050D01*
X123550Y203196D02*
X127050D01*
X123550Y202696D02*
X127050D01*
X123550Y202196D02*
X127050D01*
X123550Y201696D02*
X127050D01*
X123550Y201196D02*
X127050D01*
X123550Y200696D02*
X127050D01*
X123550Y200196D02*
X127050D01*
X123550Y199696D02*
X127050D01*
X123550Y199196D02*
X127050D01*
X123550Y198696D02*
X127050D01*
X123550Y198196D02*
X127050D01*
X123550Y197696D02*
X127050D01*
X123550Y197196D02*
X127050D01*
X123550Y196696D02*
X127050D01*
X123550Y196196D02*
X127050D01*
X123550Y195696D02*
X127050D01*
X123550Y195196D02*
X127050D01*
X123550Y194696D02*
X127050D01*
X123550Y194196D02*
X127050D01*
X123550Y193696D02*
X127050D01*
X123550Y193196D02*
X127050D01*
X123550Y192696D02*
X127050D01*
X123550Y192196D02*
X126843D01*
X123550Y191696D02*
X126343D01*
X123150Y191196D02*
X125843D01*
X123150Y190696D02*
X125343D01*
X123150Y190196D02*
X124843D01*
X123150Y189696D02*
X124343D01*
X123150Y189196D02*
X123843D01*
X123150Y188696D02*
X123750D01*
X123150Y188196D02*
X123750D01*
X123150Y187696D02*
X123750D01*
X123150Y187196D02*
X123750D01*
X123150Y186696D02*
X123750D01*
X123150Y186350D02*
Y191196D01*
X123650Y186350D02*
Y206950D01*
X124150Y189504D02*
Y206950D01*
X124650Y190004D02*
Y206950D01*
X125150Y190504D02*
Y206950D01*
X125650Y191004D02*
Y206950D01*
X126150Y191504D02*
Y206950D01*
X126650Y192004D02*
Y206950D01*
X131250Y197150D02*
X151650D01*
X131250Y196650D02*
X151650D01*
X131250Y196150D02*
X151650D01*
X131250Y195650D02*
X151650D01*
X131250Y195150D02*
X151650D01*
X131250Y194650D02*
X151650D01*
X131250Y194150D02*
X151650D01*
X131250Y193650D02*
X151650D01*
X131250Y193150D02*
X151650D01*
X131250Y192650D02*
X151650D01*
X131250Y192150D02*
X151650D01*
X131250Y191650D02*
X151650D01*
X131250Y191150D02*
X151650D01*
X131250Y190650D02*
X151650D01*
X131250Y190150D02*
X151650D01*
X131250Y189650D02*
Y197150D01*
X131750Y189650D02*
Y197150D01*
X132250Y189650D02*
Y197150D01*
X132750Y189650D02*
Y197150D01*
X133250Y189650D02*
Y197150D01*
X133750Y189650D02*
Y197150D01*
X134250Y189650D02*
Y197150D01*
X134750Y189650D02*
Y197150D01*
X135250Y189650D02*
Y197150D01*
X135750Y189650D02*
Y197150D01*
X136250Y189650D02*
Y197150D01*
X136750Y189650D02*
Y197150D01*
X137250Y189650D02*
Y197150D01*
X137750Y189650D02*
Y197150D01*
X138250Y189650D02*
Y197150D01*
X138750Y189650D02*
Y197150D01*
X139250Y189650D02*
Y197150D01*
X139750Y189650D02*
Y197150D01*
X140250Y189650D02*
Y197150D01*
X140750Y189650D02*
Y197150D01*
X141250Y189650D02*
Y197150D01*
X141750Y189650D02*
Y197150D01*
X142250Y189650D02*
Y197150D01*
X142750Y189650D02*
Y197150D01*
X143250Y189650D02*
Y197150D01*
X143750Y189650D02*
Y197150D01*
X144250Y189650D02*
Y197150D01*
X144750Y189650D02*
Y197150D01*
X145250Y189650D02*
Y197150D01*
X145750Y189650D02*
Y197150D01*
X146250Y189650D02*
Y197150D01*
X146750Y189650D02*
Y197150D01*
X147250Y189650D02*
Y197150D01*
X147750Y189650D02*
Y197150D01*
X148250Y189650D02*
Y197150D01*
X148750Y189650D02*
Y197150D01*
X149250Y189650D02*
Y197150D01*
X149750Y189650D02*
Y197150D01*
X150250Y189650D02*
Y197150D01*
X150750Y189650D02*
Y197150D01*
X151250Y189650D02*
Y197150D01*
X131850Y206850D02*
X151650D01*
X131850Y206350D02*
X151650D01*
X131850Y205850D02*
X151650D01*
X131850Y205350D02*
X151650D01*
X131850Y204850D02*
X151650D01*
X131850Y204350D02*
X151650D01*
X131850Y203850D02*
X151650D01*
X131850Y203350D02*
X151650D01*
X131850Y202850D02*
X151650D01*
X131850Y202350D02*
X141650D01*
X131850Y201850D02*
X141650D01*
X131850Y201350D02*
X141650D01*
X131850Y200850D02*
X141650D01*
X131850Y200350D02*
X141650D01*
X131850Y199850D02*
X141650D01*
X131850Y199350D02*
X141650D01*
X131850Y198850D02*
X141650D01*
X132150Y198350D02*
Y206950D01*
X132650Y198350D02*
Y206950D01*
X133150Y198350D02*
Y206950D01*
X133650Y198350D02*
Y206950D01*
X134150Y198350D02*
Y206950D01*
X134650Y198350D02*
Y206950D01*
X135150Y198350D02*
Y206950D01*
X135650Y198350D02*
Y206950D01*
X136150Y198350D02*
Y206950D01*
X136650Y198350D02*
Y206950D01*
X137150Y198350D02*
Y206950D01*
X137650Y198350D02*
Y206950D01*
X138150Y198350D02*
Y206950D01*
X138650Y198350D02*
Y206950D01*
X139150Y198350D02*
Y206950D01*
X139650Y198350D02*
Y206950D01*
X140150Y198350D02*
Y206950D01*
X140650Y198350D02*
Y206950D01*
X141150Y198350D02*
Y206950D01*
X141650Y202350D02*
Y206950D01*
X142150Y202350D02*
Y206950D01*
X142650Y202350D02*
Y206950D01*
X143150Y202350D02*
Y206950D01*
X143650Y202350D02*
Y206950D01*
X144150Y202350D02*
Y206950D01*
X144650Y202350D02*
Y206950D01*
X145150Y202350D02*
Y206950D01*
X145650Y202350D02*
Y206950D01*
X146150Y202350D02*
Y206950D01*
X146650Y202350D02*
Y206950D01*
X147150Y202350D02*
Y206950D01*
X147650Y202350D02*
Y206950D01*
X148150Y202350D02*
Y206950D01*
X148650Y202350D02*
Y206950D01*
X149150Y202350D02*
Y206950D01*
X149650Y202350D02*
Y206950D01*
X150150Y202350D02*
Y206950D01*
X150650Y202350D02*
Y206950D01*
X151150Y202350D02*
Y206950D01*
X132791Y212950D02*
X143850D01*
X132191Y212450D02*
X143850D01*
X131591Y211950D02*
X143850D01*
X130991Y211450D02*
X143850D01*
X127550Y210950D02*
X143850D01*
X127550Y210450D02*
X143850D01*
X127550Y209950D02*
X143850D01*
X127550Y209450D02*
X143850D01*
X127550Y208950D02*
X143850D01*
X127550Y208750D02*
Y210950D01*
X128050Y208750D02*
Y210950D01*
X128550Y208750D02*
Y210950D01*
X129050Y208750D02*
Y210950D01*
X129550Y208750D02*
Y210950D01*
X130050Y208750D02*
Y210950D01*
X130550Y208750D02*
Y211083D01*
X131050Y208750D02*
Y211500D01*
X131550Y208750D02*
Y211916D01*
X132050Y208750D02*
Y212333D01*
X132550Y208750D02*
Y212750D01*
X133050Y208750D02*
Y212950D01*
X133550Y208750D02*
Y212950D01*
X134050Y208750D02*
Y212950D01*
X134550Y208750D02*
Y212950D01*
X135050Y208750D02*
Y212950D01*
X135550Y208750D02*
Y212950D01*
X136050Y208750D02*
Y212950D01*
X136550Y208750D02*
Y212950D01*
X137050Y208750D02*
Y212950D01*
X137550Y208750D02*
Y212950D01*
X138050Y208750D02*
Y212950D01*
X138550Y208750D02*
Y212950D01*
X139050Y208750D02*
Y212950D01*
X139550Y208750D02*
Y212950D01*
X140050Y208750D02*
Y212950D01*
X140550Y208750D02*
Y212950D01*
X141050Y208750D02*
Y212950D01*
X141550Y208750D02*
Y212950D01*
X142050Y208750D02*
Y212950D01*
X142550Y208750D02*
Y212950D01*
X143050Y208750D02*
Y212950D01*
X143550Y208750D02*
Y212950D01*
X159550Y206450D02*
X172250D01*
X159550Y205950D02*
X172250D01*
X159550Y205450D02*
X172250D01*
X159550Y204950D02*
X172250D01*
X159550Y204450D02*
X172250D01*
X156850Y203950D02*
X172250D01*
X156850Y203450D02*
X172250D01*
X156850Y202950D02*
X172250D01*
X159550Y202450D02*
X172250D01*
X159550Y201950D02*
X172250D01*
X159550Y201450D02*
X172250D01*
X159550Y200950D02*
X172250D01*
X159550Y200450D02*
X172250D01*
X159550Y199950D02*
X172250D01*
X159550Y199450D02*
X172250D01*
X156850Y202450D02*
Y204050D01*
X157350Y202450D02*
Y204050D01*
X157850Y202450D02*
Y204050D01*
X158350Y202450D02*
Y204050D01*
X158850Y202450D02*
Y204050D01*
X159350Y202450D02*
Y204050D01*
X159850Y199050D02*
Y206750D01*
X160350Y199050D02*
Y206750D01*
X160850Y199050D02*
Y206750D01*
X161350Y199050D02*
Y206750D01*
X161850Y199050D02*
Y206750D01*
X162350Y199050D02*
Y206750D01*
X162850Y199050D02*
Y206750D01*
X163350Y199050D02*
Y206750D01*
X163850Y199050D02*
Y206750D01*
X164350Y199050D02*
Y206750D01*
X164850Y199050D02*
Y206750D01*
X165350Y199050D02*
Y206750D01*
X165850Y199050D02*
Y206750D01*
X166350Y199050D02*
Y206750D01*
X166850Y199050D02*
Y206750D01*
X167350Y199050D02*
Y206750D01*
X167850Y199050D02*
Y206750D01*
X168350Y199050D02*
Y206750D01*
X168850Y199050D02*
Y206750D01*
X169350Y199050D02*
Y206750D01*
X169850Y199050D02*
Y206750D01*
X170350Y199050D02*
Y206750D01*
X170850Y199050D02*
Y206750D01*
X171350Y199050D02*
Y206750D01*
X171850Y199050D02*
Y206750D01*
X156750Y197150D02*
X167950D01*
X156750Y196650D02*
X167950D01*
X156750Y196150D02*
X167950D01*
X156750Y195650D02*
X167950D01*
X158750Y195150D02*
X167950D01*
X158750Y194650D02*
X167950D01*
X158750Y194150D02*
X167950D01*
X158750Y193650D02*
X167950D01*
X158750Y193150D02*
X167950D01*
X158750Y192650D02*
X167950D01*
X158750Y192150D02*
X167950D01*
X158750Y191650D02*
X167950D01*
X158750Y191150D02*
X167950D01*
X158750Y190650D02*
X167950D01*
X156750Y195450D02*
Y197150D01*
X157250Y195450D02*
Y197150D01*
X157750Y195450D02*
Y197150D01*
X158250Y195450D02*
Y197150D01*
X158750Y190550D02*
Y197150D01*
X159250Y190550D02*
Y197150D01*
X159750Y190550D02*
Y197150D01*
X160250Y190550D02*
Y197150D01*
X160750Y190550D02*
Y197150D01*
X161250Y190550D02*
Y197150D01*
X161750Y190550D02*
Y197150D01*
X162250Y190550D02*
Y197150D01*
X162750Y190550D02*
Y197150D01*
X163250Y190550D02*
Y197150D01*
X163750Y190550D02*
Y197150D01*
X164250Y190550D02*
Y197150D01*
X164750Y190550D02*
Y197150D01*
X165250Y190550D02*
Y197150D01*
X165750Y190550D02*
Y197150D01*
X166250Y190550D02*
Y197150D01*
X166750Y190550D02*
Y197150D01*
X167250Y190550D02*
Y197150D01*
X167750Y190550D02*
Y197150D01*
X211650Y217050D02*
X221950D01*
X211650Y216550D02*
X221950D01*
X211650Y216050D02*
X221950D01*
X211650Y215550D02*
X221950D01*
X211650Y215050D02*
X221950D01*
X211650Y214550D02*
X221950D01*
X211650Y214050D02*
X221950D01*
X211650Y213550D02*
X221950D01*
X211650Y213050D02*
X221950D01*
X211650Y212550D02*
X221950D01*
X211650Y212050D02*
X221950D01*
X211650Y211550D02*
X221950D01*
X211650Y211050D02*
X221950D01*
X211650Y210550D02*
X221950D01*
X211650Y210050D02*
X221950D01*
X211650Y209550D02*
X221950D01*
X211650Y209050D02*
X221950D01*
X211650Y208550D02*
X221950D01*
X211650Y208050D02*
X221950D01*
X211650Y207550D02*
X221950D01*
X211650Y207050D02*
X221950D01*
X211650Y206950D02*
Y217050D01*
X212150Y206950D02*
Y217050D01*
X212650Y206950D02*
Y217050D01*
X213150Y206950D02*
Y217050D01*
X213650Y206950D02*
Y217050D01*
X214150Y206950D02*
Y217050D01*
X214650Y206950D02*
Y217050D01*
X215150Y206950D02*
Y217050D01*
X215650Y206950D02*
Y217050D01*
X216150Y206950D02*
Y217050D01*
X216650Y206950D02*
Y217050D01*
X217150Y206950D02*
Y217050D01*
X217650Y206950D02*
Y217050D01*
X218150Y206950D02*
Y217050D01*
X218650Y206950D02*
Y217050D01*
X219150Y206950D02*
Y217050D01*
X219650Y206950D02*
Y217050D01*
X220150Y206950D02*
Y217050D01*
X220650Y206950D02*
Y217050D01*
X221150Y206950D02*
Y217050D01*
X221650Y206950D02*
Y217050D01*
X211450Y202250D02*
X221450D01*
X211450Y201750D02*
X221450D01*
X211450Y201250D02*
X221450D01*
X211450Y200750D02*
X221450D01*
X211450Y200250D02*
X221450D01*
X211450Y199750D02*
X221450D01*
X211450Y199250D02*
X221450D01*
X211450Y198750D02*
X221450D01*
X211450Y198250D02*
X221450D01*
X211450Y197750D02*
X221450D01*
X211450Y197250D02*
X221450D01*
X211450Y196750D02*
X221450D01*
X211450Y196250D02*
X221450D01*
X211450Y195750D02*
X221450D01*
X211450Y195250D02*
X221450D01*
X211450Y194750D02*
X221450D01*
X211450Y194250D02*
X221450D01*
X211450Y193750D02*
X221450D01*
X211450Y193250D02*
Y202250D01*
X211950Y193250D02*
Y202250D01*
X212450Y193250D02*
Y202250D01*
X212950Y193250D02*
Y202250D01*
X213450Y193250D02*
Y202250D01*
X213950Y193250D02*
Y202250D01*
X214450Y193250D02*
Y202250D01*
X214950Y193250D02*
Y202250D01*
X215450Y193250D02*
Y202250D01*
X215950Y193250D02*
Y202250D01*
X216450Y193250D02*
Y202250D01*
X216950Y193250D02*
Y202250D01*
X217450Y193250D02*
Y202250D01*
X217950Y193250D02*
Y202250D01*
X218450Y193250D02*
Y202250D01*
X218950Y193250D02*
Y202250D01*
X219450Y193250D02*
Y202250D01*
X219950Y193250D02*
Y202250D01*
X220450Y193250D02*
Y202250D01*
X220950Y193250D02*
Y202250D01*
X182750Y207150D02*
X201250D01*
X182750Y206650D02*
X201250D01*
X182750Y206150D02*
X201250D01*
X182750Y205650D02*
X201250D01*
X182750Y205150D02*
X201250D01*
X182750Y204650D02*
X201250D01*
X182750Y204150D02*
X201250D01*
X182750Y203650D02*
X201250D01*
X182750Y203150D02*
X201250D01*
X182750Y202650D02*
X201250D01*
X182750Y202150D02*
X201250D01*
X182750Y201650D02*
X201250D01*
X182750Y201150D02*
X201250D01*
X182750Y200650D02*
Y207150D01*
X183250Y200650D02*
Y207150D01*
X183750Y200650D02*
Y207150D01*
X184250Y200650D02*
Y207150D01*
X184750Y200650D02*
Y207150D01*
X185250Y200650D02*
Y207150D01*
X185750Y200650D02*
Y207150D01*
X186250Y200650D02*
Y207150D01*
X186750Y200650D02*
Y207150D01*
X187250Y200650D02*
Y207150D01*
X187750Y200650D02*
Y207150D01*
X188250Y200650D02*
Y207150D01*
X188750Y200650D02*
Y207150D01*
X189250Y200650D02*
Y207150D01*
X189750Y200650D02*
Y207150D01*
X190250Y200650D02*
Y207150D01*
X190750Y200650D02*
Y207150D01*
X191250Y200650D02*
Y207150D01*
X191750Y200650D02*
Y207150D01*
X192250Y200650D02*
Y207150D01*
X192750Y200650D02*
Y207150D01*
X193250Y200650D02*
Y207150D01*
X193750Y200650D02*
Y207150D01*
X194250Y200650D02*
Y207150D01*
X194750Y200650D02*
Y207150D01*
X195250Y200650D02*
Y207150D01*
X195750Y200650D02*
Y207150D01*
X196250Y200650D02*
Y207150D01*
X196750Y200650D02*
Y207150D01*
X197250Y200650D02*
Y207150D01*
X197750Y200650D02*
Y207150D01*
X198250Y200650D02*
Y207150D01*
X198750Y200650D02*
Y207150D01*
X199250Y200650D02*
Y207150D01*
X199750Y200650D02*
Y207150D01*
X200250Y200650D02*
Y207150D01*
X200750Y200650D02*
Y207150D01*
G54D13*
X200061Y113400D02*
X200490Y113828D01*
X172720Y114235D02*
X172700D01*
Y117300*
X142600Y116800D02*
X145080Y114320D01*
X147565*
X140100Y123400D02*
X144365D01*
Y123420*
X162774Y120746D02*
X167369D01*
X167635Y120480*
X162774Y114250D02*
X162789Y114235D01*
X172700*
X167635Y120480D02*
X178320D01*
X182235Y116676*
Y116480*
X147565Y114320D02*
X156799D01*
X156869Y114250*
X144365Y123420D02*
X147508D01*
X150181Y120746*
X156869*
X182235Y116480D02*
X185120D01*
X187772Y113828*
X200490*
X113300Y172600D02*
X115579D01*
Y172620*
X113000Y187600D02*
X115579D01*
Y187580*
X113000Y187600D02*
Y185021D01*
X113020*
X109909Y196490D02*
Y193931D01*
X113239Y190600*
X117156*
X117547Y190208*
Y187580*
X118176Y196490D02*
X119448D01*
Y190552*
X119516Y190484*
Y187580*
X120500Y180100D02*
Y181084D01*
X127980*
Y185021D02*
X128000D01*
Y187600*
X125421Y187580D02*
Y187600D01*
X128000*
X199399Y202221D02*
X206010Y195610D01*
X206200*
Y195400*
X199399Y202221D02*
Y204990D01*
X199609*
X213700Y174600D02*
X214800Y175700D01*
X225100*
X226913Y178265*
Y178552*
X227200*
X207876Y204990D02*
X219509D01*
X219711Y204788*
X227200Y178552D02*
Y190048D01*
X100000Y100000D02*
X238000D01*
Y220000*
X100000*
Y100000*
G54D22*
X157446Y202731D02*
X160969D01*
G54D77*
X159800Y173700D03*
X153600D03*
X190300Y169000D03*
X196500D03*
X212700Y132500D03*
X206500D03*
X213000Y214600D03*
X206800D03*
X206200Y195400D03*
X212400D03*
X222900Y195800D03*
X229100D03*
X119100Y205500D03*
X112900D03*
G54D78*
X162774Y114250D03*
X160806D03*
X158837D03*
X156869D03*
Y120746D03*
X158837D03*
X160806D03*
X162774D03*
G54D79*
X159920Y117494D03*
G54D80*
X150950Y196826D03*
Y198794D03*
Y200763D03*
Y202731D03*
X157446D03*
Y200763D03*
Y198794D03*
Y196826D03*
X121650Y210626D03*
Y212594D03*
Y214563D03*
Y216531D03*
X128146D03*
Y214563D03*
Y212594D03*
Y210626D03*
G54D81*
X173900Y142900D03*
Y136700D03*
X229100Y202700D03*
Y208900D03*
X213000Y208100D03*
Y201900D03*
G54D85*
X135690Y183024D03*
Y191291D03*
G54D86*
X207876Y204990D03*
X199609D03*
X125424Y202610D03*
X133691D03*
X118176Y196490D03*
X109909D03*
G54D88*
X224042Y207741D03*
Y205772D03*
Y203804D03*
Y201835D03*
G54D89*
X219711Y202426D03*
Y204788D03*
Y207150D03*
G54D98*
X200490Y113828D03*
Y120521D03*
X205608D03*
Y113828D03*
G54D104*
X154194Y199680D03*
X124894Y213480D03*
G54D128*
X113480Y216165D02*
X113661D01*
Y211065*
X113480D02*
X116535D01*
X119100Y208500*
Y205500*
X113480Y211065D02*
X113661D01*
X106800Y103600D03*
X117200Y103000D03*
X122800D03*
X128100D03*
X127900Y126800D03*
X118600Y126700D03*
X122600Y126800D03*
X125400Y103000D03*
X114600Y103100D03*
X130700D03*
X104000Y111800D03*
X135900Y126100D03*
Y104100D03*
X125300Y126900D03*
X130500D03*
X104100Y116800D03*
X104000Y123200D03*
X119900Y103000D03*
X108200Y126300D03*
X104100Y108700D03*
X104000Y119600D03*
X160900Y111800D03*
X188100Y117200D03*
X140200Y112400D03*
X197400Y124900D03*
X151800Y111400D03*
X142600Y116800D03*
X218400Y138800D03*
X152100Y117200D03*
X195400Y117100D03*
X150100Y125000D03*
X140100Y123400D03*
X149700Y103000D03*
X147200D03*
X190800Y125200D03*
X188200D03*
X197100Y111300D03*
X145600Y110400D03*
X193500Y124800D03*
X179700Y113700D03*
X157300Y103000D03*
X176700Y117400D03*
X185600Y124800D03*
X160000Y117100D03*
X173800Y124800D03*
X162000Y125000D03*
X157400Y111800D03*
X154700Y103000D03*
X152200D03*
X172700Y117300D03*
X140000Y120100D03*
X233800Y134400D03*
X222100Y137700D03*
X222500Y134400D03*
X233800Y137400D03*
X130600Y213800D03*
X108500Y181100D03*
X125400Y169700D03*
X136700Y168000D03*
X119500Y169700D03*
X107500Y190200D03*
X110100Y174500D03*
X106100Y205600D03*
X108800Y176800D03*
X138100Y210800D03*
X135500D03*
X132800D03*
X139100Y195200D03*
X136500D03*
X133700D03*
X121500Y194500D03*
X130900Y175200D03*
X132600Y177100D03*
X130900Y179100D03*
X110100Y183100D03*
Y179100D03*
X117500Y168000D03*
X112500Y166100D03*
X118700Y213000D03*
X129000Y171700D03*
X110500Y160700D03*
X106400Y166100D03*
X104500Y189300D03*
X109200Y205500D03*
X106600Y211100D03*
X106200Y216200D03*
X124900Y213500D03*
X133000Y215100D03*
X117700Y177100D03*
X123400D03*
X123800Y183200D03*
X117400D03*
X113300Y172600D03*
X128000Y187600D03*
X113000D03*
X120500Y180100D03*
X121500Y168100D03*
X118600Y216500D03*
X138500Y200000D03*
X138100Y205000D03*
X160000Y209100D03*
X161100Y205400D03*
X158000Y216500D03*
X166200Y205400D03*
X161000Y202800D03*
X168600D03*
X207700Y171200D03*
X167800Y209100D03*
X173700Y216700D03*
X187500Y193200D03*
X169800Y216800D03*
X175700Y209000D03*
X171800D03*
X173700Y195300D03*
X169800D03*
X189200Y203400D03*
Y205900D03*
X183900Y203300D03*
Y205900D03*
X195900Y193300D03*
X163000Y193700D03*
X166500Y193600D03*
X159500Y193700D03*
X219600Y143300D03*
X140800Y210800D03*
X163800Y209000D03*
X144600Y195200D03*
X161900Y216500D03*
X141900Y195200D03*
X152100Y209100D03*
X150100Y216500D03*
X202500Y214600D03*
X187500Y209000D03*
X213700Y174600D03*
X218800Y185600D03*
X185600Y216600D03*
X212900Y155900D03*
X213600Y179700D03*
X213400Y177200D03*
X183600Y209000D03*
X212200Y153400D03*
X179700Y208900D03*
X211600Y148200D03*
X177700Y216800D03*
X211800Y145700D03*
X203500Y164800D03*
X181600Y216700D03*
X211600Y150800D03*
X157800Y206200D03*
X154100Y216500D03*
X216200Y211400D03*
X147800Y200100D03*
X144300Y167800D03*
X205800Y185400D03*
X209500Y164200D03*
X218000Y169600D03*
X189500Y216900D03*
X193400Y195300D03*
X165900Y216500D03*
X219200Y196100D03*
X216100D03*
X216200Y198900D03*
X219200D03*
X147000Y214700D03*
X154200Y204200D03*
X180200Y204900D03*
X141800Y204400D03*
X234300Y149700D03*
X233800Y183100D03*
X231900Y140200D03*
X234900Y155500D03*
X224100Y214900D03*
X224000Y199400D03*
X229100Y212700D03*
X233800Y168400D03*
X223900Y171400D03*
X222800Y145900D03*
X235000Y163700D03*
X221500Y188100D03*
X234800Y152600D03*
X234900Y159400D03*
X234100Y188100D03*
X222100Y143100D03*
X220100Y211900D03*
X220300Y215300D03*
X233900Y145400D03*
X234200Y198500D03*
G54D150*
X125000Y134000D03*
X128000Y137100D03*
X118600Y134000D03*
Y137100D03*
X115400D03*
X121700D03*
X112300D03*
X121800Y134000D03*
X109200Y137100D03*
X125000Y137200D03*
X135100Y132300D03*
X109100Y131100D03*
X191800Y102800D03*
X217900D03*
X161800D03*
X159600D03*
X166000D03*
X174500D03*
X170300D03*
X189500D03*
X187200D03*
X185000D03*
X182900D03*
X180800D03*
X162800Y130900D03*
X186398Y134503D03*
X151753D03*
X189500Y137800D03*
X176950Y137653D03*
X158052D03*
X151753D03*
X161202D03*
X164351D03*
X170650D03*
X202146Y131354D03*
X186400Y137700D03*
X142200Y121100D03*
X152100Y127000D03*
X202600Y136100D03*
X178500Y130900D03*
X194300D03*
X145454Y131354D03*
X167501Y134503D03*
X161202D03*
X192600Y137700D03*
X183249Y137653D03*
X178700Y102800D03*
X163900D03*
X195700Y137800D03*
X176600Y102800D03*
X172400D03*
X168200D03*
X192400Y111200D03*
X235200Y121400D03*
Y119300D03*
Y117200D03*
X220000Y129600D03*
X224000Y129100D03*
X222300Y130500D03*
X235200Y108700D03*
Y113000D03*
X220000Y102800D03*
X222100D03*
X228200D03*
X231100D03*
X235100Y106600D03*
X235200Y123500D03*
X233100Y125500D03*
X225200Y102800D03*
X234200Y127900D03*
X235200Y110800D03*
Y115100D03*
X230300Y128900D03*
X115700Y152900D03*
X112300Y156000D03*
X114000Y140800D03*
X107700D03*
X112400Y152900D03*
X117200Y140900D03*
X110900Y140800D03*
X115500Y156000D03*
X124900Y159100D03*
X109200Y156000D03*
X128000Y159100D03*
X109200Y152900D03*
X131200Y149900D03*
X120300Y140900D03*
X126600D03*
X132900Y140800D03*
X123400Y149300D03*
X138400Y150600D03*
X136300Y140600D03*
X135300Y150400D03*
X132900Y160000D03*
X123400Y140800D03*
X129700D03*
X106300Y159100D03*
X126600Y149400D03*
X121800Y153000D03*
X120300Y149400D03*
X116100Y214600D03*
X195800Y159700D03*
X195900Y150300D03*
X158200Y165900D03*
X202100Y188000D03*
X180100Y144000D03*
X151753Y153401D03*
X154902Y150251D03*
X158052D03*
X151753Y147102D03*
X158052D03*
X151753Y143952D03*
X189500Y166000D03*
X186398Y175448D03*
X192600Y156600D03*
X189548Y175448D03*
X183400Y181600D03*
Y184700D03*
X192600Y153400D03*
X198900Y156600D03*
X195700Y165900D03*
X198800Y175300D03*
X145000Y148700D03*
X183249Y143952D03*
X154902D03*
X192698Y150251D03*
X151753D03*
X154902Y162850D03*
Y169149D03*
X151753D03*
X189548Y178598D03*
X186398Y172298D03*
X164351Y147102D03*
X167501D03*
X170650D03*
X158052Y143952D03*
X164351D03*
X167501D03*
X151753Y140802D03*
X161202D03*
X170650D03*
X177000Y140600D03*
X151753Y156550D03*
X154902D03*
X158052D03*
X161202D03*
Y153401D03*
Y150251D03*
X164351Y181747D03*
X176950D03*
X192698D03*
X167501D03*
X176950Y178598D03*
X167501D03*
X176950Y175448D03*
X170650D03*
X180099Y150251D03*
X170650D03*
X164351D03*
X183249Y153401D03*
X176950D03*
X167501D03*
X180099Y156550D03*
X170650D03*
X164351D03*
X183249Y162850D03*
X176950D03*
X167501D03*
X180099Y165999D03*
X170650D03*
X164351D03*
X167501Y169149D03*
X189500Y156700D03*
X192700Y162900D03*
X180100Y140800D03*
X161202Y143952D03*
X154902Y153401D03*
X158100Y162800D03*
X183249Y178598D03*
X157900Y169300D03*
X158052Y140802D03*
X186398Y143952D03*
X189548Y147102D03*
X154902D03*
X195847Y153401D03*
X189548Y172298D03*
X186398Y178598D03*
X158052D03*
X170650Y181747D03*
X175300Y189000D03*
X145000Y180200D03*
X180099Y178598D03*
X164351D03*
X154902D03*
X180099Y181747D03*
X167501Y184897D03*
X151753D03*
X192700Y140800D03*
X186400Y150200D03*
X186200Y162700D03*
X186398Y140802D03*
X184800Y188500D03*
X189400Y181600D03*
X186398Y165999D03*
X161100Y169300D03*
X145000Y164400D03*
X202600Y151900D03*
Y170700D03*
Y167500D03*
Y183300D03*
X191100Y188500D03*
X187900D03*
X169100D03*
X159700D03*
X198997Y140802D03*
X195847D03*
X189548D03*
X183249D03*
X164351D03*
X154902D03*
X148603D03*
X192698Y143952D03*
X189548D03*
X170650D03*
X148603D03*
X195847Y147102D03*
X180099D03*
X161202D03*
X189548Y150251D03*
X183249D03*
X176950D03*
X167501D03*
X189548Y153401D03*
X186398D03*
X180099D03*
X170650D03*
X164351D03*
X158052D03*
X186300Y156600D03*
X183249Y156550D03*
X176950D03*
X167501D03*
X148603D03*
X189548Y162850D03*
X180099D03*
X170650D03*
X164351D03*
X183000Y166000D03*
X176950Y165999D03*
X167501D03*
X186398Y169149D03*
X176950D03*
X164351D03*
X148603D03*
X192698Y172298D03*
X176950D03*
X183249Y175448D03*
X164351D03*
X148603D03*
X170650Y178598D03*
X195847Y181747D03*
X161202D03*
X170650Y184897D03*
X145454Y188046D03*
X195847Y143952D03*
X202700Y156400D03*
G54D173*
X143280Y160565D03*
X139343D03*
X143680Y156465D03*
X139743D03*
X154880Y165765D03*
X150943D03*
X148580Y151965D03*
X144643D03*
X144980Y140565D03*
X141043D03*
X196120Y162935D03*
X200057D03*
X148280Y134665D03*
X144343D03*
X151780Y160365D03*
X147843D03*
X202320Y179035D03*
X206257D03*
X151880Y180065D03*
X147943D03*
X174980Y192065D03*
X171043D03*
X193120Y178435D03*
X197057D03*
X145080Y145465D03*
X141143D03*
X186780Y147065D03*
X182843D03*
X128680Y155665D03*
X124743D03*
X160680Y159565D03*
X156743D03*
X169380D03*
X165443D03*
X187420Y159835D03*
X191357D03*
X178520D03*
X182457D03*
X128980Y130865D03*
X125043D03*
X113320Y130835D03*
X117257D03*
X179020Y212735D03*
X182957D03*
X205520Y174535D03*
X209457D03*
X123820Y146135D03*
X127757D03*
X195180Y121265D03*
X191243D03*
X182320Y121235D03*
X186257D03*
X172720Y114235D03*
X176657D03*
X204480Y126565D03*
X200543D03*
X108480Y186665D03*
X104543D03*
X113480Y211065D03*
X109543D03*
X113480Y216165D03*
X109543D03*
X173220Y204935D03*
X177157D03*
X140880Y215065D03*
X136943D03*
X121620Y163635D03*
X125557D03*
X152320Y192335D03*
X156257D03*
X184520Y130335D03*
X188457D03*
G54D174*
X195935Y189480D03*
Y185543D03*
X180235Y137780D03*
Y133843D03*
X166535Y130880D03*
Y126943D03*
X158135Y134180D03*
Y130243D03*
X181735Y172580D03*
Y168643D03*
X180165Y185120D03*
Y189057D03*
X145535Y175480D03*
Y171543D03*
X186565Y181620D03*
Y185557D03*
X156865Y182020D03*
Y185957D03*
X167465Y137220D03*
Y141157D03*
X173935Y160780D03*
Y156843D03*
Y152180D03*
Y148243D03*
X174065Y165420D03*
Y169357D03*
X174165Y173920D03*
Y177857D03*
Y182520D03*
Y186457D03*
X218365Y131920D03*
Y135857D03*
X182235Y116480D03*
Y112543D03*
X144365Y123420D03*
Y127357D03*
X147565Y114320D03*
Y118257D03*
X167635Y120480D03*
Y116543D03*
X234235Y209780D03*
Y205843D03*
X136635Y177480D03*
Y173543D03*
X154865Y207420D03*
Y211357D03*
X163935Y189580D03*
Y185643D03*
X116135Y164080D03*
Y160143D03*
X109165Y166120D03*
Y170057D03*
X148735Y188580D03*
Y184643D03*
X146965Y207320D03*
Y211257D03*
G54D176*
X230991Y164590D03*
Y162621D03*
Y160653D03*
Y158684D03*
Y156716D03*
Y154747D03*
Y152779D03*
Y150810D03*
X217409D03*
Y152779D03*
Y154747D03*
Y156716D03*
Y158684D03*
Y160653D03*
Y162621D03*
Y164590D03*
G54D177*
X227153Y166460D03*
Y148940D03*
X221247D03*
Y166460D03*
G54D184*
X227974Y109126D03*
X226006D03*
X224037D03*
X222069D03*
X218131D03*
X216163D03*
X214194D03*
X212226D03*
X227974Y111094D03*
X224037D03*
X222069D03*
X218131D03*
X216163D03*
X212226D03*
X227974Y113063D03*
X222069D03*
X218131D03*
X212226D03*
X227974Y115031D03*
X226006D03*
X224037D03*
X216163D03*
X214194D03*
X212226D03*
X227974Y118969D03*
X226006D03*
X224037D03*
X216163D03*
X214194D03*
X212226D03*
X210257D03*
X227974Y120937D03*
X222069D03*
X218131D03*
X212226D03*
X227974Y122906D03*
X224037D03*
X222069D03*
X218131D03*
X216163D03*
X212226D03*
X227974Y124874D03*
X226006D03*
X224037D03*
X222069D03*
X218131D03*
X216163D03*
X214194D03*
X212226D03*
G54D185*
X231000Y112424D03*
Y110376D03*
Y119476D03*
Y121524D03*
G54D186*
X227200Y178552D03*
Y190048D03*
X117548Y146500D03*
X106052D03*
G54D187*
X224739Y180550D03*
Y183050D03*
Y185550D03*
Y188050D03*
X229661D03*
Y185550D03*
Y183050D03*
Y180550D03*
G54D188*
X224200Y157700D03*
G54D189*
X228317Y139969D03*
G54D190*
X228376Y138000D03*
Y136031D03*
X225424D03*
Y138000D03*
Y139969D03*
G54D191*
X107527Y108200D03*
Y113200D03*
Y118200D03*
Y123200D03*
X135873D03*
Y118200D03*
Y113200D03*
Y108200D03*
G54D192*
X121700Y115700D03*
G54D193*
X115550Y144039D03*
X113050D03*
X110550D03*
X108050D03*
Y148961D03*
X110550D03*
X113050D03*
X115550D03*
G54D194*
X219376Y127500D03*
X221424D03*
X219576Y106700D03*
X221624D03*
X220924Y118700D03*
X218876D03*
X218976Y115300D03*
X221024D03*
G54D195*
X125421Y172620D03*
X123453D03*
X121484D03*
X119516D03*
X117547D03*
X115579D03*
Y187580D03*
X117547D03*
X119516D03*
X121484D03*
X123453D03*
X125421D03*
G54D196*
X113020Y175179D03*
Y177147D03*
Y179116D03*
Y181084D03*
Y183053D03*
Y185021D03*
X127980D03*
Y183053D03*
Y181084D03*
Y179116D03*
Y177147D03*
Y175179D03*
G54D197*
X120500Y180100D03*
X0Y0D02*
M02*
