*
*
G04 PADS 9.5 Build Number: 522968 generated Gerber (RS-274-X) file*
G04 PC Version=2.1*
*
%IN "MCollar_MAIN_working.pc"*%
*
%MOIN*%
*
%FSLAX35Y35*%
*
*
*
*
G04 PC Standard Apertures*
*
*
G04 Thermal Relief Aperture macro.*
%AMTER*
1,1,$1,0,0*
1,0,$1-$2,0,0*
21,0,$3,$4,0,0,45*
21,0,$3,$4,0,0,135*
%
*
*
G04 Annular Aperture macro.*
%AMANN*
1,1,$1,0,0*
1,0,$2,0,0*
%
*
*
G04 Odd Aperture macro.*
%AMODD*
1,1,$1,0,0*
1,0,$1-0.005,0,0*
%
*
*
G04 PC Custom Aperture Macros*
*
*
*
*
*
*
G04 PC Aperture Table*
*
%ADD010C,0.001*%
%ADD012C,0.005*%
%ADD013C,0.01*%
%ADD015C,0.01969*%
%ADD016C,0.006*%
%ADD019C,0.00787*%
%ADD157C,0.00787*%
%ADD198C,0.01575*%
*
*
*
*
G04 PC Circuitry*
G04 Layer Name MCollar_MAIN_working.pc - circuitry*
%LPD*%
*
*
G04 PC Custom Flashes*
G04 Layer Name MCollar_MAIN_working.pc - flashes*
%LPD*%
*
*
G04 PC Circuitry*
G04 Layer Name MCollar_MAIN_working.pc - circuitry*
%LPD*%
*
G54D10*
G54D12*
G01X194339Y188361D02*
Y191261D01*
X197539*
Y188361*
X194339Y186661D02*
Y183761D01*
X197539*
Y186661*
X142161Y162161D02*
X145061D01*
Y158961*
X142161*
X140461Y162161D02*
X137561D01*
Y158961*
X140461*
X178639Y136661D02*
Y139561D01*
X181839*
Y136661*
X178639Y134961D02*
Y132061D01*
X181839*
Y134961*
X142561Y158061D02*
X145461D01*
Y154861*
X142561*
X140861Y158061D02*
X137961D01*
Y154861*
X140861*
X153761Y167361D02*
X156661D01*
Y164161*
X153761*
X152061Y167361D02*
X149161D01*
Y164161*
X152061*
X147461Y153561D02*
X150361D01*
Y150361*
X147461*
X145761Y153561D02*
X142861D01*
Y150361*
X145761*
X143861Y142161D02*
X146761D01*
Y138961*
X143861*
X142161Y142161D02*
X139261D01*
Y138961*
X142161*
X197239Y161339D02*
X194339D01*
Y164539*
X197239*
X198939Y161339D02*
X201839D01*
Y164539*
X198939*
X164939Y129761D02*
Y132661D01*
X168139*
Y129761*
X164939Y128061D02*
Y125161D01*
X168139*
Y128061*
X156539Y133061D02*
Y135961D01*
X159739*
Y133061*
X156539Y131361D02*
Y128461D01*
X159739*
Y131361*
X147161Y136261D02*
X150061D01*
Y133061*
X147161*
X145461Y136261D02*
X142561D01*
Y133061*
X145461*
X150661Y161961D02*
X153561D01*
Y158761*
X150661*
X148961Y161961D02*
X146061D01*
Y158761*
X148961*
X203439Y177439D02*
X200539D01*
Y180639*
X203439*
X205139Y177439D02*
X208039D01*
Y180639*
X205139*
X150761Y181661D02*
X153661D01*
Y178461*
X150761*
X149061Y181661D02*
X146161D01*
Y178461*
X149061*
X173861Y193661D02*
X176761D01*
Y190461*
X173861*
X172161Y193661D02*
X169261D01*
Y190461*
X172161*
X180139Y171461D02*
Y174361D01*
X183339*
Y171461*
X180139Y169761D02*
Y166861D01*
X183339*
Y169761*
X181761Y186239D02*
Y183339D01*
X178561*
Y186239*
X181761Y187939D02*
Y190839D01*
X178561*
Y187939*
X143939Y174361D02*
Y177261D01*
X147139*
Y174361*
X143939Y172661D02*
Y169761D01*
X147139*
Y172661*
X194239Y176839D02*
X191339D01*
Y180039*
X194239*
X195939Y176839D02*
X198839D01*
Y180039*
X195939*
X143961Y147061D02*
X146861D01*
Y143861*
X143961*
X142261Y147061D02*
X139361D01*
Y143861*
X142261*
X157900Y175800D02*
X162300D01*
Y171600*
X157900*
X155500Y175800D02*
X151100D01*
Y171600*
X155500*
X188161Y182739D02*
Y179839D01*
X184961*
Y182739*
X188161Y184439D02*
Y187339D01*
X184961*
Y184439*
X158461Y183139D02*
Y180239D01*
X155261*
Y183139*
X158461Y184839D02*
Y187739D01*
X155261*
Y184839*
X192200Y166900D02*
X187800D01*
Y171100*
X192200*
X194600Y166900D02*
X199000D01*
Y171100*
X194600*
X185661Y148661D02*
X188561D01*
Y145461*
X185661*
X183961Y148661D02*
X181061D01*
Y145461*
X183961*
X169061Y138339D02*
Y135439D01*
X165861*
Y138339*
X169061Y140039D02*
Y142939D01*
X165861*
Y140039*
X127561Y157261D02*
X130461D01*
Y154061*
X127561*
X125861Y157261D02*
X122961D01*
Y154061*
X125861*
X172339Y159661D02*
Y162561D01*
X175539*
Y159661*
X172339Y157961D02*
Y155061D01*
X175539*
Y157961*
X159561Y161161D02*
X162461D01*
Y157961*
X159561*
X157861Y161161D02*
X154961D01*
Y157961*
X157861*
X168261Y161161D02*
X171161D01*
Y157961*
X168261*
X166561Y161161D02*
X163661D01*
Y157961*
X166561*
X188539Y158239D02*
X185639D01*
Y161439*
X188539*
X190239Y158239D02*
X193139D01*
Y161439*
X190239*
X179639Y158239D02*
X176739D01*
Y161439*
X179639*
X181339Y158239D02*
X184239D01*
Y161439*
X181339*
X171800Y141000D02*
Y145400D01*
X176000*
Y141000*
X171800Y138600D02*
Y134200D01*
X176000*
Y138600*
X172339Y151061D02*
Y153961D01*
X175539*
Y151061*
X172339Y149361D02*
Y146461D01*
X175539*
Y149361*
X175661Y166539D02*
Y163639D01*
X172461*
Y166539*
X175661Y168239D02*
Y171139D01*
X172461*
Y168239*
X175761Y175039D02*
Y172139D01*
X172561*
Y175039*
X175761Y176739D02*
Y179639D01*
X172561*
Y176739*
X175761Y183639D02*
Y180739D01*
X172561*
Y183639*
X175761Y185339D02*
Y188239D01*
X172561*
Y185339*
X127861Y132461D02*
X130761D01*
Y129261*
X127861*
X126161Y132461D02*
X123261D01*
Y129261*
X126161*
X114439Y129239D02*
X111539D01*
Y132439*
X114439*
X116139Y129239D02*
X119039D01*
Y132439*
X116139*
X219961Y133039D02*
Y130139D01*
X216761*
Y133039*
X219961Y134739D02*
Y137639D01*
X216761*
Y134739*
X229700Y112261D02*
Y113400D01*
X232300*
Y112261*
X229700Y110561D02*
Y109400D01*
X232300*
Y110561*
X180639Y115361D02*
Y118261D01*
X183839*
Y115361*
X180639Y113661D02*
Y110761D01*
X183839*
Y113661*
X180139Y211139D02*
X177239D01*
Y214339*
X180139*
X181839Y211139D02*
X184739D01*
Y214339*
X181839*
X230350Y178001D02*
Y190599D01*
X224050*
Y178001*
X230350*
X228869Y140854D02*
X224931D01*
Y135146*
X228869*
Y140854*
X206639Y172939D02*
X203739D01*
Y176139*
X206639*
X208339Y172939D02*
X211239D01*
Y176139*
X208339*
X210800Y134600D02*
X215200D01*
Y130400*
X210800*
X208400Y134600D02*
X204000D01*
Y130400*
X208400*
X124939Y144539D02*
X122039D01*
Y147739*
X124939*
X126639Y144539D02*
X129539D01*
Y147739*
X126639*
X118099Y149650D02*
X105501D01*
Y143350*
X118099*
Y149650*
X194061Y122861D02*
X196961D01*
Y119661*
X194061*
X192361Y122861D02*
X189461D01*
Y119661*
X192361*
X183439Y119639D02*
X180539D01*
Y122839*
X183439*
X185139Y119639D02*
X188039D01*
Y122839*
X185139*
X219539Y126200D02*
X218400D01*
Y128800*
X219539*
X221239Y126200D02*
X222400D01*
Y128800*
X221239*
X219739Y105400D02*
X218600D01*
Y108000*
X219739*
X221439Y105400D02*
X222600D01*
Y108000*
X221439*
X145961Y124539D02*
Y121639D01*
X142761*
Y124539*
X145961Y126239D02*
Y129139D01*
X142761*
Y126239*
X149161Y115439D02*
Y112539D01*
X145961*
Y115439*
X149161Y117139D02*
Y120039D01*
X145961*
Y117139*
X173839Y112639D02*
X170939D01*
Y115839*
X173839*
X175539Y112639D02*
X178439D01*
Y115839*
X175539*
X166039Y119361D02*
Y122261D01*
X169239*
Y119361*
X166039Y117661D02*
Y114761D01*
X169239*
Y117661*
X164113Y113187D02*
Y121809D01*
X155530*
Y113187*
X164113*
X232300Y119639D02*
Y118500D01*
X229700*
Y119639*
X232300Y121339D02*
Y122500D01*
X229700*
Y121339*
X203361Y128161D02*
X206261D01*
Y124961*
X203361*
X201661Y128161D02*
X198761D01*
Y124961*
X201661*
X211100Y216700D02*
X215500D01*
Y212500*
X211100*
X208700Y216700D02*
X204300D01*
Y212500*
X208700*
X208100Y193300D02*
X203700D01*
Y197500*
X208100*
X210500Y193300D02*
X214900D01*
Y197500*
X210500*
X231200Y204600D02*
Y200200D01*
X227000*
Y204600*
X231200Y207000D02*
Y211400D01*
X227000*
Y207000*
X224800Y193700D02*
X220400D01*
Y197900*
X224800*
X227200Y193700D02*
X231600D01*
Y197900*
X227200*
X232639Y208661D02*
Y211561D01*
X235839*
Y208661*
X232639Y206961D02*
Y204061D01*
X235839*
Y206961*
X210900Y206200D02*
Y210600D01*
X215100*
Y206200*
X210900Y203800D02*
Y199400D01*
X215100*
Y203800*
X107361Y188261D02*
X110261D01*
Y185061*
X107361*
X105661Y188261D02*
X102761D01*
Y185061*
X105661*
X135039Y176361D02*
Y179261D01*
X138239*
Y176361*
X135039Y174661D02*
Y171761D01*
X138239*
Y174661*
X149887Y195487D02*
X158509D01*
Y204070*
X149887*
Y195487*
X156461Y208539D02*
Y205639D01*
X153261*
Y208539*
X156461Y210239D02*
Y213139D01*
X153261*
Y210239*
X117200Y207600D02*
X121600D01*
Y203400*
X117200*
X114800Y207600D02*
X110400D01*
Y203400*
X114800*
X112361Y212661D02*
X115261D01*
Y209461*
X112361*
X110661Y212661D02*
X107761D01*
Y209461*
X110661*
X112361Y217761D02*
X115261D01*
Y214561*
X112361*
X110661Y217761D02*
X107761D01*
Y214561*
X110661*
X162339Y188461D02*
Y191361D01*
X165539*
Y188461*
X162339Y186761D02*
Y183861D01*
X165539*
Y186761*
X174339Y203339D02*
X171439D01*
Y206539*
X174339*
X176039Y203339D02*
X178939D01*
Y206539*
X176039*
X139761Y216661D02*
X142661D01*
Y213461*
X139761*
X138061Y216661D02*
X135161D01*
Y213461*
X138061*
X114539Y162961D02*
Y165861D01*
X117739*
Y162961*
X114539Y161261D02*
Y158361D01*
X117739*
Y161261*
X110761Y167239D02*
Y164339D01*
X107561*
Y167239*
X110761Y168939D02*
Y171839D01*
X107561*
Y168939*
X122739Y162039D02*
X119839D01*
Y165239*
X122739*
X124439Y162039D02*
X127339D01*
Y165239*
X124439*
X147139Y187461D02*
Y190361D01*
X150339*
Y187461*
X147139Y185761D02*
Y182861D01*
X150339*
Y185761*
X153439Y190739D02*
X150539D01*
Y193939*
X153439*
X155139Y190739D02*
X158039D01*
Y193939*
X155139*
X120587Y209287D02*
X129209D01*
Y217870*
X120587*
Y209287*
X148561Y208439D02*
Y205539D01*
X145361*
Y208439*
X148561Y210139D02*
Y213039D01*
X145361*
Y210139*
X220761Y120000D02*
X221900D01*
Y117400*
X220761*
X219061Y120000D02*
X217900D01*
Y117400*
X219061*
X219139Y114000D02*
X218000D01*
Y116600*
X219139*
X220839Y114000D02*
X222000D01*
Y116600*
X220839*
X185639Y128739D02*
X182739D01*
Y131939*
X185639*
X187339Y128739D02*
X190239D01*
Y131939*
X187339*
X191300Y189277D02*
X191112Y189345D01*
X191112D02*
X190925Y189482D01*
X190831Y189618*
Y189891*
X190925Y190027*
X191112Y190164*
X191112D02*
X191300Y190232D01*
X191581Y190300*
X192050*
X192331Y190232*
X192519Y190164*
X192706Y190027*
X192800Y189891*
Y189618*
X192706Y189482*
X192519Y189345*
X192331Y189277*
X191487Y187777D02*
X191769Y187845D01*
X191956Y187982*
X192050Y188186*
Y188255*
X191956Y188459*
X191769Y188595*
X191487Y188664*
X191487D02*
X191394D01*
X191112Y188595*
X191112D02*
X190925Y188459D01*
X190831Y188255*
Y188186*
X190925Y187982*
X191112Y187845*
X191112D02*
X191487Y187777D01*
X191487D02*
X191956D01*
X192425Y187845*
X192706Y187982*
X192800Y188186*
Y188323*
X192706Y188527*
X192519Y188595*
X190831Y186277D02*
Y186959D01*
X191675Y187027*
X191581Y186959*
X191487Y186755*
X191487D02*
Y186550D01*
X191487D02*
X191581Y186345D01*
X191769Y186209*
X192050Y186141*
X192237Y186209*
X192237D02*
X192519Y186277D01*
X192706Y186414*
X192800Y186618*
Y186823*
X192706Y187027*
X192612Y187095*
X192612D02*
X192425Y187164D01*
X143077Y165200D02*
X143145Y165388D01*
X143145D02*
X143282Y165575D01*
X143418Y165669*
X143691*
X143827Y165575*
X143964Y165388*
X143964D02*
X144032Y165200D01*
X144100Y164919*
Y164450*
X144032Y164169*
X143964Y163981*
X143827Y163794*
X143691Y163700*
X143418*
X143282Y163794*
X143145Y163981*
X143077Y164169*
X141577Y165013D02*
X141645Y164731D01*
X141782Y164544*
X141986Y164450*
X142055*
X142259Y164544*
X142395Y164731*
X142464Y165013*
X142464D02*
Y165106D01*
X142395Y165388*
X142395D02*
X142259Y165575D01*
X142055Y165669*
X141986*
X141782Y165575*
X141645Y165388*
X141645D02*
X141577Y165013D01*
X141577D02*
Y164544D01*
X141645Y164075*
X141782Y163794*
X141986Y163700*
X142123*
X142327Y163794*
X142395Y163981*
X140282Y165669D02*
X140964Y164356D01*
X139941*
X140282Y165669D02*
Y163700D01*
X177523Y128300D02*
X177455Y128113D01*
X177455D02*
X177318Y127925D01*
X177182Y127831*
X176909*
X176773Y127925*
X176636Y128113*
X176636D02*
X176568Y128300D01*
X176500Y128581*
Y129050*
X176568Y129331*
X176636Y129519*
X176773Y129706*
X176909Y129800*
X177182*
X177318Y129706*
X177455Y129519*
X177523Y129331*
X178273Y127831D02*
X179023D01*
X178614Y128581*
X178818*
X178955Y128675*
X179023Y128769*
X179091Y129050*
Y129238*
X179091D02*
X179023Y129519D01*
X178886Y129706*
X178682Y129800*
X178477*
X178273Y129706*
X178205Y129613*
X178205D02*
X178136Y129425D01*
X180591Y127831D02*
X179909D01*
X179841Y128675*
X179909Y128581*
X180114Y128488*
X180114D02*
X180318D01*
X180318D02*
X180523Y128581D01*
X180659Y128769*
X180727Y129050*
X180659Y129238*
X180659D02*
X180591Y129519D01*
X180455Y129706*
X180250Y129800*
X180045*
X179841Y129706*
X179773Y129613*
X179773D02*
X179705Y129425D01*
X135400Y156177D02*
X135212Y156245D01*
X135212D02*
X135025Y156382D01*
X134931Y156518*
Y156791*
X135025Y156927*
X135212Y157064*
X135212D02*
X135400Y157132D01*
X135681Y157200*
X136150*
X136431Y157132*
X136619Y157064*
X136806Y156927*
X136900Y156791*
Y156518*
X136806Y156382*
X136619Y156245*
X136431Y156177*
X135587Y154677D02*
X135869Y154745D01*
X136056Y154882*
X136150Y155086*
Y155155*
X136056Y155359*
X135869Y155495*
X135587Y155564*
X135587D02*
X135494D01*
X135212Y155495*
X135212D02*
X135025Y155359D01*
X134931Y155155*
Y155086*
X135025Y154882*
X135212Y154745*
X135212D02*
X135587Y154677D01*
X135587D02*
X136056D01*
X136525Y154745*
X136806Y154882*
X136900Y155086*
Y155223*
X136806Y155427*
X136619Y155495*
X134931Y153927D02*
Y153177D01*
X135681Y153586*
Y153382*
X135775Y153245*
X135869Y153177*
X136150Y153109*
X136337*
X136337D02*
X136619Y153177D01*
X136806Y153314*
X136900Y153518*
Y153723*
X136806Y153927*
X136712Y153995*
X136712D02*
X136525Y154064D01*
X154677Y170400D02*
X154745Y170588D01*
X154745D02*
X154882Y170775D01*
X155018Y170869*
X155291*
X155427Y170775*
X155564Y170588*
X155564D02*
X155632Y170400D01*
X155700Y170119*
Y169650*
X155632Y169369*
X155564Y169181*
X155427Y168994*
X155291Y168900*
X155018*
X154882Y168994*
X154745Y169181*
X154677Y169369*
X153177Y170213D02*
X153245Y169931D01*
X153382Y169744*
X153586Y169650*
X153655*
X153859Y169744*
X153995Y169931*
X154064Y170213*
X154064D02*
Y170306D01*
X153995Y170588*
X153995D02*
X153859Y170775D01*
X153655Y170869*
X153586*
X153382Y170775*
X153245Y170588*
X153245D02*
X153177Y170213D01*
X153177D02*
Y169744D01*
X153245Y169275*
X153382Y168994*
X153586Y168900*
X153723*
X153927Y168994*
X153995Y169181*
X152495Y170400D02*
Y170494D01*
X152427Y170681*
X152359Y170775*
X152223Y170869*
X151950*
X151814Y170775*
X151745Y170681*
X151677Y170494*
Y170306*
X151745Y170119*
X151882Y169838*
X151882D02*
X152564Y168900D01*
X151609*
X140000Y152277D02*
X139812Y152345D01*
X139812D02*
X139625Y152482D01*
X139531Y152618*
Y152891*
X139625Y153027*
X139812Y153164*
X139812D02*
X140000Y153232D01*
X140281Y153300*
X140750*
X141031Y153232*
X141219Y153164*
X141406Y153027*
X141500Y152891*
Y152618*
X141406Y152482*
X141219Y152345*
X141031Y152277*
X139531Y151323D02*
X139625Y151527D01*
X139812Y151595*
X139812D02*
X140000D01*
X140187Y151527*
X140187D02*
X140281Y151391D01*
X140375Y151118*
X140469Y150914*
X140656Y150777*
X140844Y150709*
X141125*
X141312Y150777*
X141312D02*
X141406Y150845D01*
X141500Y151050*
Y151323*
X141406Y151527*
X141312Y151595*
X141312D02*
X141125Y151664D01*
X140844*
X140656Y151595*
X140469Y151459*
X140375Y151255*
X140281Y150982*
X140187Y150845*
X140187D02*
X140000Y150777D01*
X139812*
X139812D02*
X139625Y150845D01*
X139531Y151050*
Y151323*
X139906Y150095D02*
X139812Y149959D01*
X139812D02*
X139531Y149755D01*
X141500*
X138023Y136400D02*
X137955Y136212D01*
X137955D02*
X137818Y136025D01*
X137682Y135931*
X137409*
X137273Y136025*
X137136Y136212*
X137136D02*
X137068Y136400D01*
X137000Y136681*
Y137150*
X137068Y137431*
X137136Y137619*
X137273Y137806*
X137409Y137900*
X137682*
X137818Y137806*
X137955Y137619*
X138023Y137431*
X139523Y136587D02*
X139455Y136869D01*
X139318Y137056*
X139114Y137150*
X139045*
X138841Y137056*
X138705Y136869*
X138636Y136587*
X138636D02*
Y136494D01*
X138705Y136212*
X138705D02*
X138841Y136025D01*
X139045Y135931*
X139114*
X139318Y136025*
X139455Y136212*
X139455D02*
X139523Y136587D01*
X139523D02*
Y137056D01*
X139455Y137525*
X139318Y137806*
X139114Y137900*
X138977*
X138773Y137806*
X138705Y137619*
X140545Y135931D02*
X140341Y136025D01*
X140205Y136306*
X140136Y136775*
Y137056*
X140205Y137525*
X140341Y137806*
X140545Y137900*
X140682*
X140886Y137806*
X141023Y137525*
X141091Y137056*
Y136775*
X141023Y136306*
X140886Y136025*
X140682Y135931*
X140545*
X199123Y159100D02*
X199055Y158912D01*
X199055D02*
X198918Y158725D01*
X198782Y158631*
X198509*
X198373Y158725*
X198236Y158912*
X198236D02*
X198168Y159100D01*
X198100Y159381*
Y159850*
X198168Y160131*
X198236Y160319*
X198373Y160506*
X198509Y160600*
X198782*
X198918Y160506*
X199055Y160319*
X199123Y160131*
X200077Y158631D02*
X199873Y158725D01*
X199805Y158912*
X199805D02*
Y159100D01*
X199873Y159287*
X199873D02*
X200009Y159381D01*
X200282Y159475*
X200486Y159569*
X200623Y159756*
X200691Y159944*
Y160225*
X200623Y160412*
X200623D02*
X200555Y160506D01*
X200350Y160600*
X200077*
X199873Y160506*
X199805Y160412*
X199805D02*
X199736Y160225D01*
Y159944*
X199805Y159756*
X199941Y159569*
X200145Y159475*
X200418Y159381*
X200555Y159287*
X200555D02*
X200623Y159100D01*
Y158912*
X200623D02*
X200555Y158725D01*
X200350Y158631*
X200077*
X202191Y159287D02*
X202123Y159569D01*
X201986Y159756*
X201782Y159850*
X201714*
X201509Y159756*
X201373Y159569*
X201305Y159287*
X201305D02*
Y159194D01*
X201373Y158912*
X201373D02*
X201509Y158725D01*
X201714Y158631*
X201782*
X201986Y158725*
X202123Y158912*
X202123D02*
X202191Y159287D01*
X202191D02*
Y159756D01*
X202123Y160225*
X201986Y160506*
X201782Y160600*
X201645*
X201441Y160506*
X201373Y160319*
X161900Y130677D02*
X161712Y130745D01*
X161712D02*
X161525Y130882D01*
X161431Y131018*
Y131291*
X161525Y131427*
X161712Y131564*
X161712D02*
X161900Y131632D01*
X162181Y131700*
X162650*
X162931Y131632*
X163119Y131564*
X163306Y131427*
X163400Y131291*
Y131018*
X163306Y130882*
X163119Y130745*
X162931Y130677*
X161431Y129723D02*
X161525Y129927D01*
X161712Y129995*
X161712D02*
X161900D01*
X162087Y129927*
X162087D02*
X162181Y129791D01*
X162275Y129518*
X162369Y129314*
X162556Y129177*
X162744Y129109*
X163025*
X163212Y129177*
X163212D02*
X163306Y129245D01*
X163400Y129450*
Y129723*
X163306Y129927*
X163212Y129995*
X163212D02*
X163025Y130064D01*
X162744*
X162556Y129995*
X162369Y129859*
X162275Y129655*
X162181Y129382*
X162087Y129245*
X162087D02*
X161900Y129177D01*
X161712*
X161712D02*
X161525Y129245D01*
X161431Y129450*
Y129723*
Y128155D02*
X161525Y128359D01*
X161712Y128427*
X161712D02*
X161900D01*
X162087Y128359*
X162087D02*
X162181Y128223D01*
X162275Y127950*
X162369Y127745*
X162556Y127609*
X162744Y127541*
X163025*
X163212Y127609*
X163212D02*
X163306Y127677D01*
X163400Y127882*
Y128155*
X163306Y128359*
X163212Y128427*
X163212D02*
X163025Y128495D01*
X162744*
X162556Y128427*
X162369Y128291*
X162275Y128086*
X162181Y127814*
X162087Y127677*
X162087D02*
X161900Y127609D01*
X161712*
X161712D02*
X161525Y127677D01*
X161431Y127882*
Y128155*
X157223Y125900D02*
X157155Y125713D01*
X157155D02*
X157018Y125525D01*
X156882Y125431*
X156609*
X156473Y125525*
X156336Y125713*
X156336D02*
X156268Y125900D01*
X156200Y126181*
Y126650*
X156268Y126931*
X156336Y127119*
X156473Y127306*
X156609Y127400*
X156882*
X157018Y127306*
X157155Y127119*
X157223Y126931*
X158723Y126088D02*
X158655Y126369D01*
X158518Y126556*
X158314Y126650*
X158245*
X158041Y126556*
X157905Y126369*
X157836Y126088*
X157836D02*
Y125994D01*
X157905Y125713*
X157905D02*
X158041Y125525D01*
X158245Y125431*
X158314*
X158518Y125525*
X158655Y125713*
X158655D02*
X158723Y126088D01*
X158723D02*
Y126556D01*
X158655Y127025*
X158518Y127306*
X158314Y127400*
X158177*
X157973Y127306*
X157905Y127119*
X159336Y125806D02*
X159473Y125713D01*
X159473D02*
X159677Y125431D01*
Y127400*
X148823Y130200D02*
X148755Y130012D01*
X148755D02*
X148618Y129825D01*
X148482Y129731*
X148209*
X148073Y129825*
X147936Y130012*
X147936D02*
X147868Y130200D01*
X147800Y130481*
Y130950*
X147868Y131231*
X147936Y131419*
X148073Y131606*
X148209Y131700*
X148482*
X148618Y131606*
X148755Y131419*
X148823Y131231*
X149573Y129731D02*
X150323D01*
X149914Y130481*
X150118*
X150255Y130575*
X150323Y130669*
X150391Y130950*
Y131137*
X150391D02*
X150323Y131419D01*
X150186Y131606*
X149982Y131700*
X149777*
X149573Y131606*
X149505Y131512*
X149505D02*
X149436Y131325D01*
X151686Y129731D02*
X151005Y131044D01*
X152027*
X151686Y129731D02*
Y131700D01*
X149223Y155900D02*
X149155Y155712D01*
X149155D02*
X149018Y155525D01*
X148882Y155431*
X148609*
X148473Y155525*
X148336Y155712*
X148336D02*
X148268Y155900D01*
X148200Y156181*
Y156650*
X148268Y156931*
X148336Y157119*
X148473Y157306*
X148609Y157400*
X148882*
X149018Y157306*
X149155Y157119*
X149223Y156931*
X150177Y155431D02*
X149973Y155525D01*
X149905Y155712*
X149905D02*
Y155900D01*
X149973Y156087*
X149973D02*
X150109Y156181D01*
X150382Y156275*
X150586Y156369*
X150723Y156556*
X150791Y156744*
Y157025*
X150723Y157212*
X150723D02*
X150655Y157306D01*
X150450Y157400*
X150177*
X149973Y157306*
X149905Y157212*
X149905D02*
X149836Y157025D01*
Y156744*
X149905Y156556*
X150041Y156369*
X150245Y156275*
X150518Y156181*
X150655Y156087*
X150655D02*
X150723Y155900D01*
Y155712*
X150723D02*
X150655Y155525D01*
X150450Y155431*
X150177*
X151541D02*
X152291D01*
X151882Y156181*
X152086*
X152223Y156275*
X152291Y156369*
X152359Y156650*
Y156837*
X152359D02*
X152291Y157119D01*
X152155Y157306*
X151950Y157400*
X151745*
X151541Y157306*
X151473Y157212*
X151473D02*
X151405Y157025D01*
X210800Y178923D02*
X210988Y178855D01*
X210988D02*
X211175Y178718D01*
X211269Y178582*
Y178309*
X211175Y178173*
X210988Y178036*
X210988D02*
X210800Y177968D01*
X210519Y177900*
X210050*
X209769Y177968*
X209581Y178036*
X209394Y178173*
X209300Y178309*
Y178582*
X209394Y178718*
X209581Y178855*
X209769Y178923*
X211269Y179877D02*
X211175Y179673D01*
X210988Y179605*
X210988D02*
X210800D01*
X210613Y179673*
X210613D02*
X210519Y179809D01*
X210425Y180082*
X210331Y180286*
X210144Y180423*
X209956Y180491*
X209675*
X209488Y180423*
X209488D02*
X209394Y180355D01*
X209300Y180150*
Y179877*
X209394Y179673*
X209488Y179605*
X209488D02*
X209675Y179536D01*
X209956*
X210144Y179605*
X210331Y179741*
X210425Y179945*
X210519Y180218*
X210613Y180355*
X210613D02*
X210800Y180423D01*
X210988*
X210988D02*
X211175Y180355D01*
X211269Y180150*
Y179877*
X210800Y181173D02*
X210894D01*
X211081Y181241*
X211175Y181309*
X211269Y181445*
Y181718*
X211175Y181855*
X211081Y181923*
X210894Y181991*
X210706*
X210519Y181923*
X210238Y181786*
X210238D02*
X209300Y181105D01*
Y182059*
X143600Y181477D02*
X143412Y181545D01*
X143412D02*
X143225Y181682D01*
X143131Y181818*
Y182091*
X143225Y182227*
X143412Y182364*
X143412D02*
X143600Y182432D01*
X143881Y182500*
X144350*
X144631Y182432*
X144819Y182364*
X145006Y182227*
X145100Y182091*
Y181818*
X145006Y181682*
X144819Y181545*
X144631Y181477*
X143131Y180523D02*
X143225Y180727D01*
X143412Y180795*
X143412D02*
X143600D01*
X143787Y180727*
X143787D02*
X143881Y180591D01*
X143975Y180318*
X144069Y180114*
X144256Y179977*
X144444Y179909*
X144725*
X144912Y179977*
X144912D02*
X145006Y180045D01*
X145100Y180250*
Y180523*
X145006Y180727*
X144912Y180795*
X144912D02*
X144725Y180864D01*
X144444*
X144256Y180795*
X144069Y180659*
X143975Y180455*
X143881Y180182*
X143787Y180045*
X143787D02*
X143600Y179977D01*
X143412*
X143412D02*
X143225Y180045D01*
X143131Y180250*
Y180523*
Y178614D02*
X144444Y179295D01*
Y178273*
X143131Y178614D02*
X145100D01*
X178677Y196400D02*
X178745Y196588D01*
X178745D02*
X178882Y196775D01*
X179018Y196869*
X179291*
X179427Y196775*
X179564Y196588*
X179564D02*
X179632Y196400D01*
X179700Y196119*
Y195650*
X179632Y195369*
X179564Y195181*
X179427Y194994*
X179291Y194900*
X179018*
X178882Y194994*
X178745Y195181*
X178677Y195369*
X177927Y196869D02*
X177177D01*
X177586Y196119*
X177382*
X177245Y196025*
X177177Y195931*
X177109Y195650*
Y195463*
X177109D02*
X177177Y195181D01*
X177314Y194994*
X177518Y194900*
X177723*
X177927Y194994*
X177995Y195088*
X177995D02*
X178064Y195275D01*
X176359Y196869D02*
X175609D01*
X176018Y196119*
X175814*
X175677Y196025*
X175609Y195931*
X175541Y195650*
Y195463*
X175541D02*
X175609Y195181D01*
X175745Y194994*
X175950Y194900*
X176155*
X176359Y194994*
X176427Y195088*
X176427D02*
X176495Y195275D01*
X177600Y172877D02*
X177413Y172945D01*
X177413D02*
X177225Y173082D01*
X177131Y173218*
Y173491*
X177225Y173627*
X177413Y173764*
X177413D02*
X177600Y173832D01*
X177881Y173900*
X178350*
X178631Y173832*
X178819Y173764*
X179006Y173627*
X179100Y173491*
Y173218*
X179006Y173082*
X178819Y172945*
X178631Y172877*
X177131Y171923D02*
X177225Y172127D01*
X177413Y172195*
X177413D02*
X177600D01*
X177788Y172127*
X177788D02*
X177881Y171991D01*
X177975Y171718*
X178069Y171514*
X178256Y171377*
X178444Y171309*
X178725*
X178913Y171377*
X178913D02*
X179006Y171445D01*
X179100Y171650*
Y171923*
X179006Y172127*
X178913Y172195*
X178913D02*
X178725Y172264D01*
X178444*
X178256Y172195*
X178069Y172059*
X177975Y171855*
X177881Y171582*
X177788Y171445*
X177788D02*
X177600Y171377D01*
X177413*
X177413D02*
X177225Y171445D01*
X177131Y171650*
Y171923*
Y169809D02*
Y170491D01*
X177975Y170559*
X177881Y170491*
X177788Y170286*
X177788D02*
Y170082D01*
X177788D02*
X177881Y169877D01*
X178069Y169741*
X178350Y169673*
X178538Y169741*
X178538D02*
X178819Y169809D01*
X179006Y169945*
X179100Y170150*
Y170355*
X179006Y170559*
X178913Y170627*
X178913D02*
X178725Y170695D01*
X181977Y193500D02*
X182045Y193688D01*
X182045D02*
X182182Y193875D01*
X182318Y193969*
X182591*
X182727Y193875*
X182864Y193688*
X182864D02*
X182932Y193500D01*
X183000Y193219*
Y192750*
X182932Y192469*
X182864Y192281*
X182727Y192094*
X182591Y192000*
X182318*
X182182Y192094*
X182045Y192281*
X181977Y192469*
X181023Y193969D02*
X181227Y193875D01*
X181295Y193688*
X181295D02*
Y193500D01*
X181227Y193313*
X181227D02*
X181091Y193219D01*
X180818Y193125*
X180614Y193031*
X180477Y192844*
X180409Y192656*
Y192375*
X180477Y192188*
X180477D02*
X180545Y192094D01*
X180750Y192000*
X181023*
X181227Y192094*
X181295Y192188*
X181295D02*
X181364Y192375D01*
Y192656*
X181295Y192844*
X181159Y193031*
X180955Y193125*
X180682Y193219*
X180545Y193313*
X180545D02*
X180477Y193500D01*
Y193688*
X180477D02*
X180545Y193875D01*
X180750Y193969*
X181023*
X178977Y193688D02*
X179045Y193875D01*
X179250Y193969*
X179386*
X179591Y193875*
X179727Y193594*
X179795Y193125*
Y192656*
X179727Y192281*
X179591Y192094*
X179386Y192000*
X179318*
X179114Y192094*
X178977Y192281*
X178909Y192563*
X178909D02*
Y192656D01*
X178977Y192938*
X178977D02*
X179114Y193125D01*
X179318Y193219*
X179386*
X179591Y193125*
X179727Y192938*
X179727D02*
X179795Y192656D01*
X140900Y175277D02*
X140712Y175345D01*
X140712D02*
X140525Y175482D01*
X140431Y175618*
Y175891*
X140525Y176027*
X140712Y176164*
X140712D02*
X140900Y176232D01*
X141181Y176300*
X141650*
X141931Y176232*
X142119Y176164*
X142306Y176027*
X142400Y175891*
Y175618*
X142306Y175482*
X142119Y175345*
X141931Y175277*
X140431Y174323D02*
X140525Y174527D01*
X140712Y174595*
X140712D02*
X140900D01*
X141087Y174527*
X141087D02*
X141181Y174391D01*
X141275Y174118*
X141369Y173914*
X141556Y173777*
X141744Y173709*
X142025*
X142212Y173777*
X142212D02*
X142306Y173845D01*
X142400Y174050*
Y174323*
X142306Y174527*
X142212Y174595*
X142212D02*
X142025Y174664D01*
X141744*
X141556Y174595*
X141369Y174459*
X141275Y174255*
X141181Y173982*
X141087Y173845*
X141087D02*
X140900Y173777D01*
X140712*
X140712D02*
X140525Y173845D01*
X140431Y174050*
Y174323*
Y172141D02*
X142400Y172823D01*
X140431Y173095D02*
Y172141D01*
X193523Y174200D02*
X193455Y174013D01*
X193455D02*
X193318Y173825D01*
X193182Y173731*
X192909*
X192773Y173825*
X192636Y174013*
X192636D02*
X192568Y174200D01*
X192500Y174481*
Y174950*
X192568Y175231*
X192636Y175419*
X192773Y175606*
X192909Y175700*
X193182*
X193318Y175606*
X193455Y175419*
X193523Y175231*
X194205Y174200D02*
Y174106D01*
X194273Y173919*
X194341Y173825*
X194477Y173731*
X194750*
X194886Y173825*
X194955Y173919*
X195023Y174106*
Y174294*
X194955Y174481*
X194818Y174763*
X194818D02*
X194136Y175700D01*
X195091*
X196659Y173731D02*
X195977Y175700D01*
X195705Y173731D02*
X196659D01*
X136400Y146277D02*
X136212Y146345D01*
X136212D02*
X136025Y146482D01*
X135931Y146618*
Y146891*
X136025Y147027*
X136212Y147164*
X136212D02*
X136400Y147232D01*
X136681Y147300*
X137150*
X137431Y147232*
X137619Y147164*
X137806Y147027*
X137900Y146891*
Y146618*
X137806Y146482*
X137619Y146345*
X137431Y146277*
X135931Y144709D02*
X137900Y145391D01*
X135931Y145664D02*
Y144709D01*
Y143141D02*
X137900Y143823D01*
X135931Y144095D02*
Y143141D01*
X165200Y172123D02*
X165388Y172055D01*
X165388D02*
X165575Y171918D01*
X165669Y171782*
Y171509*
X165575Y171373*
X165388Y171236*
X165388D02*
X165200Y171168D01*
X164919Y171100*
X164450*
X164169Y171168*
X163981Y171236*
X163794Y171373*
X163700Y171509*
Y171782*
X163794Y171918*
X163981Y172055*
X164169Y172123*
X165669Y172873D02*
Y173623D01*
X164919Y173214*
Y173418*
X164825Y173555*
X164731Y173623*
X164450Y173691*
X164263*
X164263D02*
X163981Y173623D01*
X163794Y173486*
X163700Y173282*
Y173077*
X163794Y172873*
X163888Y172805*
X163888D02*
X164075Y172736D01*
X165294Y174305D02*
X165388Y174441D01*
X165388D02*
X165669Y174645D01*
X163700*
X191200Y181823D02*
X191388Y181755D01*
X191388D02*
X191575Y181618D01*
X191669Y181482*
Y181209*
X191575Y181073*
X191388Y180936*
X191388D02*
X191200Y180868D01*
X190919Y180800*
X190450*
X190169Y180868*
X189981Y180936*
X189794Y181073*
X189700Y181209*
Y181482*
X189794Y181618*
X189981Y181755*
X190169Y181823*
X191669Y183391D02*
X189700Y182709D01*
X191669Y182436D02*
Y183391D01*
X191013Y184891D02*
X190731Y184823D01*
X190544Y184686*
X190450Y184482*
Y184414*
X190544Y184209*
X190731Y184073*
X191013Y184005*
X191013D02*
X191106D01*
X191388Y184073*
X191388D02*
X191575Y184209D01*
X191669Y184414*
Y184482*
X191575Y184686*
X191388Y184823*
X191388D02*
X191013Y184891D01*
X191013D02*
X190544D01*
X190075Y184823*
X189794Y184686*
X189700Y184482*
Y184345*
X189794Y184141*
X189981Y184073*
X161000Y179823D02*
X161187Y179755D01*
X161187D02*
X161375Y179618D01*
X161469Y179482*
Y179209*
X161375Y179073*
X161187Y178936*
X161187D02*
X161000Y178868D01*
X160719Y178800*
X160250*
X159969Y178868*
X159781Y178936*
X159594Y179073*
X159500Y179209*
Y179482*
X159594Y179618*
X159781Y179755*
X159969Y179823*
X161469Y180777D02*
X161375Y180573D01*
X161187Y180505*
X161187D02*
X161000D01*
X160812Y180573*
X160812D02*
X160719Y180709D01*
X160625Y180982*
X160531Y181186*
X160344Y181323*
X160156Y181391*
X159875*
X159687Y181323*
X159687D02*
X159594Y181255D01*
X159500Y181050*
Y180777*
X159594Y180573*
X159687Y180505*
X159687D02*
X159875Y180436D01*
X160156*
X160344Y180505*
X160531Y180641*
X160625Y180845*
X160719Y181118*
X160812Y181255*
X160812D02*
X161000Y181323D01*
X161187*
X161187D02*
X161375Y181255D01*
X161469Y181050*
Y180777*
Y182414D02*
X161375Y182209D01*
X161094Y182073*
X160625Y182005*
X160344*
X159875Y182073*
X159594Y182209*
X159500Y182414*
Y182550*
X159594Y182755*
X159875Y182891*
X160344Y182959*
X160625*
X161094Y182891*
X161375Y182755*
X161469Y182550*
Y182414*
X202300Y167623D02*
X202488Y167555D01*
X202488D02*
X202675Y167418D01*
X202769Y167282*
Y167009*
X202675Y166873*
X202488Y166736*
X202488D02*
X202300Y166668D01*
X202019Y166600*
X201550*
X201269Y166668*
X201081Y166736*
X200894Y166873*
X200800Y167009*
Y167282*
X200894Y167418*
X201081Y167555*
X201269Y167623*
X202300Y168305D02*
X202394D01*
X202581Y168373*
X202675Y168441*
X202769Y168577*
Y168850*
X202675Y168986*
X202581Y169055*
X202394Y169123*
X202206*
X202019Y169055*
X201738Y168918*
X201738D02*
X200800Y168236D01*
Y169191*
X202769Y170145D02*
X202675Y169941D01*
X202488Y169873*
X202488D02*
X202300D01*
X202113Y169941*
X202113D02*
X202019Y170077D01*
X201925Y170350*
X201831Y170555*
X201644Y170691*
X201456Y170759*
X201175*
X200988Y170691*
X200988D02*
X200894Y170623D01*
X200800Y170418*
Y170145*
X200894Y169941*
X200988Y169873*
X200988D02*
X201175Y169805D01*
X201456*
X201644Y169873*
X201831Y170009*
X201925Y170214*
X202019Y170486*
X202113Y170623*
X202113D02*
X202300Y170691D01*
X202488*
X202488D02*
X202675Y170623D01*
X202769Y170418*
Y170145*
X192400Y146123D02*
X192588Y146055D01*
X192588D02*
X192775Y145918D01*
X192869Y145782*
Y145509*
X192775Y145373*
X192588Y145236*
X192588D02*
X192400Y145168D01*
X192119Y145100*
X191650*
X191369Y145168*
X191181Y145236*
X190994Y145373*
X190900Y145509*
Y145782*
X190994Y145918*
X191181Y146055*
X191369Y146123*
X192869Y146873D02*
Y147623D01*
X192119Y147214*
Y147418*
X192025Y147555*
X191931Y147623*
X191650Y147691*
X191463*
X191463D02*
X191181Y147623D01*
X190994Y147486*
X190900Y147282*
Y147077*
X190994Y146873*
X191088Y146805*
X191088D02*
X191275Y146736D01*
X192869Y148714D02*
X192775Y148509D01*
X192494Y148373*
X192025Y148305*
X191744*
X191275Y148373*
X190994Y148509*
X190900Y148714*
Y148850*
X190994Y149055*
X191275Y149191*
X191744Y149259*
X192025*
X192494Y149191*
X192775Y149055*
X192869Y148850*
Y148714*
X162700Y140177D02*
X162512Y140245D01*
X162512D02*
X162325Y140382D01*
X162231Y140518*
Y140791*
X162325Y140927*
X162512Y141064*
X162512D02*
X162700Y141132D01*
X162981Y141200*
X163450*
X163731Y141132*
X163919Y141064*
X164106Y140927*
X164200Y140791*
Y140518*
X164106Y140382*
X163919Y140245*
X163731Y140177*
X162231Y138609D02*
X164200Y139291D01*
X162231Y139564D02*
Y138609D01*
Y137655D02*
X162325Y137859D01*
X162512Y137927*
X162512D02*
X162700D01*
X162887Y137859*
X162887D02*
X162981Y137723D01*
X163075Y137450*
X163169Y137245*
X163356Y137109*
X163544Y137041*
X163825*
X164012Y137109*
X164012D02*
X164106Y137177D01*
X164200Y137382*
Y137655*
X164106Y137859*
X164012Y137927*
X164012D02*
X163825Y137995D01*
X163544*
X163356Y137927*
X163169Y137791*
X163075Y137586*
X162981Y137314*
X162887Y137177*
X162887D02*
X162700Y137109D01*
X162512*
X162512D02*
X162325Y137177D01*
X162231Y137382*
Y137655*
X133100Y154323D02*
X133288Y154255D01*
X133288D02*
X133475Y154118D01*
X133569Y153982*
Y153709*
X133475Y153573*
X133288Y153436*
X133288D02*
X133100Y153368D01*
X132819Y153300*
X132350*
X132069Y153368*
X131881Y153436*
X131694Y153573*
X131600Y153709*
Y153982*
X131694Y154118*
X131881Y154255*
X132069Y154323*
X133288Y155755D02*
X133475Y155686D01*
X133569Y155482*
Y155345*
X133475Y155141*
X133194Y155005*
X132725Y154936*
X132256*
X131881Y155005*
X131694Y155141*
X131600Y155345*
Y155414*
X131694Y155618*
X131881Y155755*
X132163Y155823*
X132163D02*
X132256D01*
X132538Y155755*
X132538D02*
X132725Y155618D01*
X132819Y155414*
Y155345*
X132725Y155141*
X132538Y155005*
X132538D02*
X132256Y154936D01*
X133288Y157255D02*
X133475Y157186D01*
X133569Y156982*
Y156845*
X133475Y156641*
X133194Y156505*
X132725Y156436*
X132256*
X131881Y156505*
X131694Y156641*
X131600Y156845*
Y156914*
X131694Y157118*
X131881Y157255*
X132163Y157323*
X132163D02*
X132256D01*
X132538Y157255*
X132538D02*
X132725Y157118D01*
X132819Y156914*
Y156845*
X132725Y156641*
X132538Y156505*
X132538D02*
X132256Y156436D01*
X169877Y156000D02*
X169945Y156188D01*
X170082Y156375*
X170218Y156469*
X170491*
X170627Y156375*
X170764Y156188*
X170832Y156000*
X170900Y155719*
Y155250*
X170832Y154969*
X170764Y154781*
X170627Y154594*
X170491Y154500*
X170218*
X170082Y154594*
X169945Y154781*
X169877Y154969*
X168309Y156469D02*
X168991Y154500D01*
X169264Y156469D02*
X168309D01*
X166809D02*
X167491D01*
X167559Y155625*
X167491Y155719*
X167286Y155813*
X167082*
X166877Y155719*
X166741Y155531*
X166673Y155250*
X166741Y155063*
X166809Y154781*
X166945Y154594*
X167150Y154500*
X167355*
X167559Y154594*
X167627Y154688*
X167695Y154875*
X160477Y164200D02*
X160545Y164388D01*
X160545D02*
X160682Y164575D01*
X160818Y164669*
X161091*
X161227Y164575*
X161364Y164388*
X161364D02*
X161432Y164200D01*
X161500Y163919*
Y163450*
X161432Y163169*
X161364Y162981*
X161227Y162794*
X161091Y162700*
X160818*
X160682Y162794*
X160545Y162981*
X160477Y163169*
X158909Y164669D02*
X159591Y162700D01*
X159864Y164669D02*
X158909D01*
X158295Y164294D02*
X158159Y164388D01*
X158159D02*
X157955Y164669D01*
Y162700*
X169177Y164200D02*
X169245Y164388D01*
X169245D02*
X169382Y164575D01*
X169518Y164669*
X169791*
X169927Y164575*
X170064Y164388*
X170064D02*
X170132Y164200D01*
X170200Y163919*
Y163450*
X170132Y163169*
X170064Y162981*
X169927Y162794*
X169791Y162700*
X169518*
X169382Y162794*
X169245Y162981*
X169177Y163169*
X167609Y164669D02*
X168291Y162700D01*
X168564Y164669D02*
X167609D01*
X166314D02*
X166995Y163356D01*
X165973*
X166314Y164669D02*
Y162700D01*
X189777Y164500D02*
X189845Y164688D01*
X189845D02*
X189982Y164875D01*
X190118Y164969*
X190391*
X190527Y164875*
X190664Y164688*
X190664D02*
X190732Y164500D01*
X190800Y164219*
Y163750*
X190732Y163469*
X190664Y163281*
X190527Y163094*
X190391Y163000*
X190118*
X189982Y163094*
X189845Y163281*
X189777Y163469*
X188209Y164969D02*
X188891Y163000D01*
X189164Y164969D02*
X188209D01*
X187527Y164500D02*
Y164594D01*
X187459Y164781*
X187391Y164875*
X187255Y164969*
X186982*
X186845Y164875*
X186777Y164781*
X186709Y164594*
Y164406*
X186777Y164219*
X186914Y163938*
X186914D02*
X187595Y163000D01*
X186641*
X180123Y155300D02*
X180055Y155112D01*
X180055D02*
X179918Y154925D01*
X179782Y154831*
X179509*
X179373Y154925*
X179236Y155112*
X179236D02*
X179168Y155300D01*
X179100Y155581*
Y156050*
X179168Y156331*
X179236Y156519*
X179373Y156706*
X179509Y156800*
X179782*
X179918Y156706*
X180055Y156519*
X180123Y156331*
X181691Y154831D02*
X181009Y156800D01*
X180736Y154831D02*
X181691D01*
X182441D02*
X183191D01*
X182782Y155581*
X182986*
X183123Y155675*
X183191Y155769*
X183259Y156050*
Y156237*
X183259D02*
X183191Y156519D01*
X183055Y156706*
X182850Y156800*
X182645*
X182441Y156706*
X182373Y156612*
X182373D02*
X182305Y156425D01*
X172623Y131400D02*
X172555Y131212D01*
X172555D02*
X172418Y131025D01*
X172282Y130931*
X172009*
X171873Y131025*
X171736Y131212*
X171736D02*
X171668Y131400D01*
X171600Y131681*
Y132150*
X171668Y132431*
X171736Y132619*
X171873Y132806*
X172009Y132900*
X172282*
X172418Y132806*
X172555Y132619*
X172623Y132431*
X173305Y131400D02*
Y131306D01*
X173373Y131119*
X173441Y131025*
X173577Y130931*
X173850*
X173986Y131025*
X174055Y131119*
X174123Y131306*
Y131494*
X174055Y131681*
X173918Y131962*
X173918D02*
X173236Y132900D01*
X174191*
X175623Y131212D02*
X175555Y131025D01*
X175350Y130931*
X175214*
X175009Y131025*
X174873Y131306*
X174805Y131775*
Y132244*
X174873Y132619*
X175009Y132806*
X175214Y132900*
X175282*
X175486Y132806*
X175623Y132619*
X175691Y132337*
X175691D02*
Y132244D01*
X175623Y131962*
X175623D02*
X175486Y131775D01*
X175282Y131681*
X175214*
X175009Y131775*
X174873Y131962*
X174873D02*
X174805Y132244D01*
X169300Y151977D02*
X169112Y152045D01*
X169112D02*
X168925Y152182D01*
X168831Y152318*
Y152591*
X168925Y152727*
X169112Y152864*
X169112D02*
X169300Y152932D01*
X169581Y153000*
X170050*
X170331Y152932*
X170519Y152864*
X170706Y152727*
X170800Y152591*
Y152318*
X170706Y152182*
X170519Y152045*
X170331Y151977*
X169112Y150545D02*
X168925Y150614D01*
X168831Y150818*
Y150955*
X168925Y151159*
X169206Y151295*
X169675Y151364*
X170144*
X170519Y151295*
X170706Y151159*
X170800Y150955*
Y150886*
X170706Y150682*
X170519Y150545*
X170237Y150477*
X170237D02*
X170144D01*
X169862Y150545*
X169862D02*
X169675Y150682D01*
X169581Y150886*
Y150955*
X169675Y151159*
X169862Y151295*
X169862D02*
X170144Y151364D01*
X169487Y148977D02*
X169769Y149045D01*
X169956Y149182*
X170050Y149386*
Y149455*
X169956Y149659*
X169769Y149795*
X169487Y149864*
X169487D02*
X169394D01*
X169112Y149795*
X169112D02*
X168925Y149659D01*
X168831Y149455*
Y149386*
X168925Y149182*
X169112Y149045*
X169112D02*
X169487Y148977D01*
X169487D02*
X169956D01*
X170425Y149045*
X170706Y149182*
X170800Y149386*
Y149523*
X170706Y149727*
X170519Y149795*
X178400Y164323D02*
X178588Y164255D01*
X178588D02*
X178775Y164118D01*
X178869Y163982*
Y163709*
X178775Y163573*
X178588Y163436*
X178588D02*
X178400Y163368D01*
X178119Y163300*
X177650*
X177369Y163368*
X177181Y163436*
X176994Y163573*
X176900Y163709*
Y163982*
X176994Y164118*
X177181Y164255*
X177369Y164323*
X178869Y165891D02*
X176900Y165209D01*
X178869Y164936D02*
Y165891D01*
X178588Y167323D02*
X178775Y167255D01*
X178869Y167050*
Y166914*
X178775Y166709*
X178494Y166573*
X178025Y166505*
X177556*
X177181Y166573*
X176994Y166709*
X176900Y166914*
Y166982*
X176994Y167186*
X177181Y167323*
X177463Y167391*
X177463D02*
X177556D01*
X177838Y167323*
X177838D02*
X178025Y167186D01*
X178119Y166982*
Y166914*
X178025Y166709*
X177838Y166573*
X177838D02*
X177556Y166505D01*
X169500Y177077D02*
X169312Y177145D01*
X169312D02*
X169125Y177282D01*
X169031Y177418*
Y177691*
X169125Y177827*
X169312Y177964*
X169312D02*
X169500Y178032D01*
X169781Y178100*
X170250*
X170531Y178032*
X170719Y177964*
X170906Y177827*
X171000Y177691*
Y177418*
X170906Y177282*
X170719Y177145*
X170531Y177077*
X169031Y175509D02*
X171000Y176191D01*
X169031Y176464D02*
Y175509D01*
Y174486D02*
X169125Y174691D01*
X169406Y174827*
X169875Y174895*
X170156*
X170625Y174827*
X170906Y174691*
X171000Y174486*
Y174350*
X170906Y174145*
X170625Y174009*
X170156Y173941*
X169875*
X169406Y174009*
X169125Y174145*
X169031Y174350*
Y174486*
X169100Y184777D02*
X168912Y184845D01*
X168912D02*
X168725Y184982D01*
X168631Y185118*
Y185391*
X168725Y185527*
X168912Y185664*
X168912D02*
X169100Y185732D01*
X169381Y185800*
X169850*
X170131Y185732*
X170319Y185664*
X170506Y185527*
X170600Y185391*
Y185118*
X170506Y184982*
X170319Y184845*
X170131Y184777*
X169100Y184095D02*
X169006D01*
X168819Y184027*
X168725Y183959*
X168631Y183823*
Y183550*
X168725Y183414*
X168819Y183345*
X169006Y183277*
X169194*
X169381Y183345*
X169662Y183482*
X169662D02*
X170600Y184164D01*
Y183209*
X168631Y181709D02*
Y182391D01*
X169475Y182459*
X169381Y182391*
X169287Y182186*
X169287D02*
Y181982D01*
X169287D02*
X169381Y181777D01*
X169569Y181641*
X169850Y181573*
X170037Y181641*
X170037D02*
X170319Y181709D01*
X170506Y181845*
X170600Y182050*
Y182255*
X170506Y182459*
X170412Y182527*
X170412D02*
X170225Y182595D01*
X128777Y135500D02*
X128845Y135688D01*
X128845D02*
X128982Y135875D01*
X129118Y135969*
X129391*
X129527Y135875*
X129664Y135688*
X129664D02*
X129732Y135500D01*
X129800Y135219*
Y134750*
X129732Y134469*
X129664Y134281*
X129527Y134094*
X129391Y134000*
X129118*
X128982Y134094*
X128845Y134281*
X128777Y134469*
X127345Y135688D02*
X127414Y135875D01*
X127618Y135969*
X127755*
X127959Y135875*
X128095Y135594*
X128164Y135125*
Y134656*
X128095Y134281*
X127959Y134094*
X127755Y134000*
X127686*
X127482Y134094*
X127345Y134281*
X127277Y134563*
X127277D02*
Y134656D01*
X127345Y134938*
X127345D02*
X127482Y135125D01*
X127686Y135219*
X127755*
X127959Y135125*
X128095Y134938*
X128095D02*
X128164Y134656D01*
X125709Y135969D02*
X126391Y134000D01*
X126664Y135969D02*
X125709D01*
X115477Y135100D02*
X115545Y135288D01*
X115545D02*
X115682Y135475D01*
X115818Y135569*
X116091*
X116227Y135475*
X116364Y135288*
X116364D02*
X116432Y135100D01*
X116500Y134819*
Y134350*
X116432Y134069*
X116364Y133881*
X116227Y133694*
X116091Y133600*
X115818*
X115682Y133694*
X115545Y133881*
X115477Y134069*
X114045Y135288D02*
X114114Y135475D01*
X114318Y135569*
X114455*
X114659Y135475*
X114795Y135194*
X114864Y134725*
Y134256*
X114795Y133881*
X114659Y133694*
X114455Y133600*
X114386*
X114182Y133694*
X114045Y133881*
X113977Y134163*
X113977D02*
Y134256D01*
X114045Y134538*
X114045D02*
X114182Y134725D01*
X114386Y134819*
X114455*
X114659Y134725*
X114795Y134538*
X114795D02*
X114864Y134256D01*
X112477Y135569D02*
X113159D01*
X113227Y134725*
X113159Y134819*
X112955Y134913*
X112955D02*
X112750D01*
X112750D02*
X112545Y134819D01*
X112409Y134631*
X112341Y134350*
X112409Y134163*
X112409D02*
X112477Y133881D01*
X112614Y133694*
X112818Y133600*
X113023*
X113227Y133694*
X113295Y133788*
X113295D02*
X113364Y133975D01*
X223469Y131100D02*
X221500D01*
X223469D02*
Y131714D01*
X223375Y131918*
X223281Y131986*
X223094Y132055*
X222906*
X222719Y131986*
X222625Y131918*
X222531Y131714*
Y131100*
Y131577D02*
X221500Y132055D01*
X223094Y132668D02*
X223188Y132805D01*
X223188D02*
X223469Y133009D01*
X221500*
X223188Y134441D02*
X223375Y134373D01*
X223469Y134168*
Y134032*
X223375Y133827*
X223094Y133691*
X222625Y133623*
X222156*
X221781Y133691*
X221594Y133827*
X221500Y134032*
Y134100*
X221594Y134305*
X221781Y134441*
X222063Y134509*
X222063D02*
X222156D01*
X222438Y134441*
X222438D02*
X222625Y134305D01*
X222719Y134100*
Y134032*
X222625Y133827*
X222438Y133691*
X222438D02*
X222156Y133623D01*
X230223Y106300D02*
X230155Y106113D01*
X230155D02*
X230018Y105925D01*
X229882Y105831*
X229609*
X229473Y105925*
X229336Y106113*
X229336D02*
X229268Y106300D01*
X229200Y106581*
Y107050*
X229268Y107331*
X229336Y107519*
X229473Y107706*
X229609Y107800*
X229882*
X230018Y107706*
X230155Y107519*
X230223Y107331*
X230973Y105831D02*
X231723D01*
X231314Y106581*
X231518*
X231655Y106675*
X231723Y106769*
X231791Y107050*
Y107238*
X231791D02*
X231723Y107519D01*
X231586Y107706*
X231382Y107800*
X231177*
X230973Y107706*
X230905Y107613*
X230905D02*
X230836Y107425D01*
X232745Y105831D02*
X232541Y105925D01*
X232473Y106113*
X232473D02*
Y106300D01*
X232541Y106488*
X232541D02*
X232677Y106581D01*
X232950Y106675*
X233155Y106769*
X233291Y106956*
X233359Y107144*
Y107425*
X233291Y107613*
X233291D02*
X233223Y107706D01*
X233018Y107800*
X232745*
X232541Y107706*
X232473Y107613*
X232473D02*
X232405Y107425D01*
Y107144*
X232473Y106956*
X232609Y106769*
X232814Y106675*
X233086Y106581*
X233223Y106488*
X233223D02*
X233291Y106300D01*
Y106113*
X233291D02*
X233223Y105925D01*
X233018Y105831*
X232745*
X181423Y107900D02*
X181355Y107713D01*
X181355D02*
X181218Y107525D01*
X181082Y107431*
X180809*
X180673Y107525*
X180536Y107713*
X180536D02*
X180468Y107900D01*
X180400Y108181*
Y108650*
X180468Y108931*
X180536Y109119*
X180673Y109306*
X180809Y109400*
X181082*
X181218Y109306*
X181355Y109119*
X181423Y108931*
X182855Y107713D02*
X182786Y107525D01*
X182582Y107431*
X182445*
X182241Y107525*
X182105Y107806*
X182036Y108275*
Y108744*
X182105Y109119*
X182241Y109306*
X182445Y109400*
X182514*
X182718Y109306*
X182855Y109119*
X182923Y108838*
X182923D02*
Y108744D01*
X182855Y108463*
X182855D02*
X182718Y108275D01*
X182514Y108181*
X182445*
X182241Y108275*
X182105Y108463*
X182105D02*
X182036Y108744D01*
X184218Y107431D02*
X183536Y108744D01*
X184559*
X184218Y107431D02*
Y109400D01*
X201264Y107600D02*
X201173Y107350D01*
X200991Y107100*
X200809Y106975*
X200445*
X200264Y107100*
X200082Y107350*
X199991Y107600*
X199900Y107975*
Y108600*
X199991Y108975*
X200082Y109225*
X200264Y109475*
X200445Y109600*
X200809*
X200991Y109475*
X201173Y109225*
X201264Y108975*
X202082Y106975D02*
Y109600D01*
X203173*
X203991Y106975D02*
Y109600D01*
X205264Y106975D02*
X203991Y108725D01*
X204445Y108100D02*
X205264Y109600D01*
X206082Y107475D02*
X206264Y107350D01*
X206536Y106975*
Y109600*
X188269Y211000D02*
X186300D01*
X188269D02*
Y211614D01*
X188175Y211818*
X188081Y211886*
X187894Y211955*
X187706*
X187519Y211886*
X187425Y211818*
X187331Y211614*
Y211000*
Y211477D02*
X186300Y211955D01*
X187894Y212568D02*
X187988Y212705D01*
X187988D02*
X188269Y212909D01*
X186300*
X188269Y214409D02*
Y213727D01*
X187425Y213659*
X187519Y213727*
X187613Y213932*
X187613D02*
Y214136D01*
X187613D02*
X187519Y214341D01*
X187331Y214477*
X187050Y214545*
X186863Y214477*
X186863D02*
X186581Y214409D01*
X186394Y214273*
X186300Y214068*
Y213864*
X186394Y213659*
X186488Y213591*
X186488D02*
X186675Y213523D01*
X220175Y184200D02*
X222800D01*
X220175D02*
Y183382D01*
X220300Y183109*
X220425Y183018*
X220675Y182927*
X220925*
X221175Y183018*
X221300Y183109*
X221425Y183382*
Y184200*
Y183564D02*
X222800Y182927D01*
X220675Y182109D02*
X220550Y181927D01*
X220175Y181655*
X222800*
X220800Y180745D02*
X220675D01*
X220425Y180655*
X220300Y180564*
X220175Y180382*
Y180018*
X220300Y179836*
X220425Y179745*
X220675Y179655*
X220925*
X221175Y179745*
X221550Y179927*
X222800Y180836*
Y179564*
X233400Y172725D02*
Y170850D01*
X233309Y170475*
X233127Y170225*
X232855Y170100*
X232673*
X232400Y170225*
X232218Y170475*
X232127Y170850*
Y172725*
X230218Y172350D02*
X230309Y172600D01*
X230582Y172725*
X230764*
X231036Y172600*
X231218Y172225*
X231309Y171600*
Y170975*
X231218Y170475*
X231036Y170225*
X230764Y170100*
X230673*
X230400Y170225*
X230218Y170475*
X230127Y170850*
Y170975*
X230218Y171350*
X230400Y171600*
X230673Y171725*
X230764*
X231036Y171600*
X231218Y171350*
X231309Y170975*
X228000Y145225D02*
Y143350D01*
X227909Y142975*
X227727Y142725*
X227455Y142600*
X227273*
X227000Y142725*
X226818Y142975*
X226727Y143350*
Y145225*
X224636D02*
X225545Y142600D01*
X225909Y145225D02*
X224636D01*
X200531Y175800D02*
X202500D01*
X200531D02*
Y175186D01*
X200625Y174982*
X200719Y174914*
X200906Y174845*
X201094*
X201281Y174914*
X201375Y174982*
X201469Y175186*
Y175800*
Y175323D02*
X202500Y174845D01*
X200906Y174232D02*
X200812Y174095D01*
X200812D02*
X200531Y173891D01*
X202500*
X200531Y172595D02*
X201844Y173277D01*
Y172255*
X200531Y172595D02*
X202500D01*
X210200Y137769D02*
Y135800D01*
Y137769D02*
X209586D01*
X209382Y137675*
X209314Y137581*
X209245Y137394*
Y137206*
X209314Y137019*
X209382Y136925*
X209586Y136831*
X210200*
X209723D02*
X209245Y135800D01*
X208564Y137300D02*
Y137394D01*
X208495Y137581*
X208427Y137675*
X208291Y137769*
X208018*
X207882Y137675*
X207814Y137581*
X207745Y137394*
Y137206*
X207814Y137019*
X207950Y136738*
X207950D02*
X208632Y135800D01*
X207677*
X132500Y144723D02*
X132688Y144655D01*
X132688D02*
X132875Y144518D01*
X132969Y144382*
Y144109*
X132875Y143973*
X132688Y143836*
X132688D02*
X132500Y143768D01*
X132219Y143700*
X131750*
X131469Y143768*
X131281Y143836*
X131094Y143973*
X131000Y144109*
Y144382*
X131094Y144518*
X131281Y144655*
X131469Y144723*
X132688Y146155D02*
X132875Y146086D01*
X132969Y145882*
Y145745*
X132875Y145541*
X132594Y145405*
X132125Y145336*
X131656*
X131281Y145405*
X131094Y145541*
X131000Y145745*
Y145814*
X131094Y146018*
X131281Y146155*
X131563Y146223*
X131563D02*
X131656D01*
X131938Y146155*
X131938D02*
X132125Y146018D01*
X132219Y145814*
Y145745*
X132125Y145541*
X131938Y145405*
X131938D02*
X131656Y145336D01*
X132969Y147177D02*
X132875Y146973D01*
X132688Y146905*
X132688D02*
X132500D01*
X132313Y146973*
X132313D02*
X132219Y147109D01*
X132125Y147382*
X132031Y147586*
X131844Y147723*
X131656Y147791*
X131375*
X131188Y147723*
X131188D02*
X131094Y147655D01*
X131000Y147450*
Y147177*
X131094Y146973*
X131188Y146905*
X131188D02*
X131375Y146836D01*
X131656*
X131844Y146905*
X132031Y147041*
X132125Y147245*
X132219Y147518*
X132313Y147655*
X132313D02*
X132500Y147723D01*
X132688*
X132688D02*
X132875Y147655D01*
X132969Y147450*
Y147177*
X103600Y139375D02*
Y142000D01*
Y139375D02*
X104418D01*
X104691Y139500*
X104782Y139625*
X104873Y139875*
Y140125*
X104782Y140375*
X104691Y140500*
X104418Y140625*
X103600*
X104236D02*
X104873Y142000D01*
X105691Y139875D02*
X105873Y139750D01*
X106145Y139375*
Y142000*
X190000Y116331D02*
Y118300D01*
Y116331D02*
X190614D01*
X190818Y116425*
X190886Y116519*
X190955Y116706*
Y116894*
X190886Y117081*
X190818Y117175*
X190614Y117269*
X190000*
X190477D02*
X190955Y118300D01*
X191636Y116800D02*
Y116706D01*
X191705Y116519*
X191773Y116425*
X191909Y116331*
X192182*
X192318Y116425*
X192386Y116519*
X192455Y116706*
Y116894*
X192386Y117081*
X192250Y117362*
X192250D02*
X191568Y118300D01*
X192523*
X193273Y116331D02*
X194023D01*
X193614Y117081*
X193818*
X193955Y117175*
X194023Y117269*
X194091Y117550*
Y117737*
X194091D02*
X194023Y118019D01*
X193886Y118206*
X193682Y118300*
X193477*
X193273Y118206*
X193205Y118112*
X193205D02*
X193136Y117925D01*
X177331Y123700D02*
X179300D01*
X177331D02*
Y123086D01*
X177425Y122882*
X177519Y122814*
X177706Y122745*
X177894*
X178081Y122814*
X178175Y122882*
X178269Y123086*
Y123700*
Y123223D02*
X179300Y122745D01*
X177800Y122064D02*
X177706D01*
X177519Y121995*
X177425Y121927*
X177331Y121791*
Y121518*
X177425Y121382*
X177519Y121314*
X177706Y121245*
X177894*
X178081Y121314*
X178363Y121450*
X178363D02*
X179300Y122132D01*
Y121177*
X177800Y120495D02*
X177706D01*
X177519Y120427*
X177425Y120359*
X177331Y120223*
Y119950*
X177425Y119814*
X177519Y119745*
X177706Y119677*
X177894*
X178081Y119745*
X178363Y119882*
X178363D02*
X179300Y120564D01*
Y119609*
X215700Y127977D02*
X215512Y128045D01*
X215512D02*
X215325Y128182D01*
X215231Y128318*
Y128591*
X215325Y128727*
X215512Y128864*
X215512D02*
X215700Y128932D01*
X215981Y129000*
X216450*
X216731Y128932*
X216919Y128864*
X217106Y128727*
X217200Y128591*
Y128318*
X217106Y128182*
X216919Y128045*
X216731Y127977*
X215231Y126682D02*
X216544Y127364D01*
Y126341*
X215231Y126682D02*
X217200D01*
X215231Y125318D02*
X215325Y125523D01*
X215606Y125659*
X216075Y125727*
X216356*
X216825Y125659*
X217106Y125523*
X217200Y125318*
Y125182*
X217106Y124977*
X216825Y124841*
X216356Y124773*
X216075*
X215606Y124841*
X215325Y124977*
X215231Y125182*
Y125318*
X215100Y106677D02*
X214912Y106745D01*
X214912D02*
X214725Y106882D01*
X214631Y107018*
Y107291*
X214725Y107427*
X214912Y107564*
X214912D02*
X215100Y107632D01*
X215381Y107700*
X215850*
X216131Y107632*
X216319Y107564*
X216506Y107427*
X216600Y107291*
Y107018*
X216506Y106882*
X216319Y106745*
X216131Y106677*
X214631Y105927D02*
Y105177D01*
X215381Y105586*
Y105382*
X215475Y105245*
X215569Y105177*
X215850Y105109*
X216037*
X216037D02*
X216319Y105177D01*
X216506Y105314*
X216600Y105518*
Y105723*
X216506Y105927*
X216412Y105995*
X216412D02*
X216225Y106064D01*
X214631Y103541D02*
X216600Y104223D01*
X214631Y104495D02*
Y103541D01*
X140200Y129277D02*
X140013Y129345D01*
X140013D02*
X139825Y129482D01*
X139731Y129618*
Y129891*
X139825Y130027*
X140013Y130164*
X140013D02*
X140200Y130232D01*
X140481Y130300*
X140950*
X141231Y130232*
X141419Y130164*
X141606Y130027*
X141700Y129891*
Y129618*
X141606Y129482*
X141419Y129345*
X141231Y129277*
X140106Y128664D02*
X140013Y128527D01*
X140013D02*
X139731Y128323D01*
X141700*
X139731Y127573D02*
Y126823D01*
X140481Y127232*
Y127027*
X140575Y126891*
X140669Y126823*
X140950Y126755*
X141138*
X141138D02*
X141419Y126823D01*
X141606Y126959*
X141700Y127164*
Y127368*
X141606Y127573*
X141513Y127641*
X141513D02*
X141325Y127709D01*
X147823Y108500D02*
X147755Y108312D01*
X147755D02*
X147618Y108125D01*
X147482Y108031*
X147209*
X147073Y108125*
X146936Y108312*
X146936D02*
X146868Y108500D01*
X146800Y108781*
Y109250*
X146868Y109531*
X146936Y109719*
X147073Y109906*
X147209Y110000*
X147482*
X147618Y109906*
X147755Y109719*
X147823Y109531*
X148436Y108406D02*
X148573Y108312D01*
X148573D02*
X148777Y108031D01*
Y110000*
X149800Y108031D02*
X149595Y108125D01*
X149459Y108406*
X149391Y108875*
Y109156*
X149459Y109625*
X149595Y109906*
X149800Y110000*
X149936*
X150141Y109906*
X150277Y109625*
X150345Y109156*
Y108875*
X150277Y108406*
X150141Y108125*
X149936Y108031*
X149800*
X150959Y108406D02*
X151095Y108312D01*
X151095D02*
X151300Y108031D01*
Y110000*
X172923D02*
X172855Y109813D01*
X172855D02*
X172718Y109625D01*
X172582Y109531*
X172309*
X172173Y109625*
X172036Y109813*
X172036D02*
X171968Y110000D01*
X171900Y110281*
Y110750*
X171968Y111031*
X172036Y111219*
X172173Y111406*
X172309Y111500*
X172582*
X172718Y111406*
X172855Y111219*
X172923Y111031*
X173536Y109906D02*
X173673Y109813D01*
X173673D02*
X173877Y109531D01*
Y111500*
X174900Y109531D02*
X174695Y109625D01*
X174559Y109906*
X174491Y110375*
Y110656*
X174559Y111125*
X174695Y111406*
X174900Y111500*
X175036*
X175241Y111406*
X175377Y111125*
X175445Y110656*
Y110375*
X175377Y109906*
X175241Y109625*
X175036Y109531*
X174900*
X176945Y110188D02*
X176877Y110469D01*
X176741Y110656*
X176536Y110750*
X176468*
X176264Y110656*
X176127Y110469*
X176059Y110188*
X176059D02*
Y110094D01*
X176127Y109813*
X176127D02*
X176264Y109625D01*
X176468Y109531*
X176536*
X176741Y109625*
X176877Y109813*
X176877D02*
X176945Y110188D01*
X176945D02*
Y110656D01*
X176877Y111125*
X176741Y111406*
X176536Y111500*
X176400*
X176195Y111406*
X176127Y111219*
X172100Y120623D02*
X172288Y120555D01*
X172288D02*
X172475Y120418D01*
X172569Y120282*
Y120009*
X172475Y119873*
X172288Y119736*
X172288D02*
X172100Y119668D01*
X171819Y119600*
X171350*
X171069Y119668*
X170881Y119736*
X170694Y119873*
X170600Y120009*
Y120282*
X170694Y120418*
X170881Y120555*
X171069Y120623*
X172100Y121305D02*
X172194D01*
X172381Y121373*
X172475Y121441*
X172569Y121577*
Y121850*
X172475Y121986*
X172381Y122055*
X172194Y122123*
X172006*
X171819Y122055*
X171538Y121918*
X171538D02*
X170600Y121236D01*
Y122191*
X172194Y122805D02*
X172288Y122941D01*
X172288D02*
X172569Y123145D01*
X170600*
X159273Y107750D02*
X159091Y107500D01*
X158818Y107375*
X158455*
X158182Y107500*
X158000Y107750*
Y108000*
X158091Y108250*
X158182Y108375*
X158364Y108500*
X158909Y108750*
X159091Y108875*
X159182Y109000*
X159273Y109250*
Y109625*
X159091Y109875*
X158818Y110000*
X158455*
X158182Y109875*
X158000Y109625*
X161273Y108250D02*
X161182Y108625D01*
X161000Y108875*
X160727Y109000*
X160636*
X160364Y108875*
X160182Y108625*
X160091Y108250*
Y108125*
X160182Y107750*
X160364Y107500*
X160636Y107375*
X160727*
X161000Y107500*
X161182Y107750*
X161273Y108250*
Y108875*
X161182Y109500*
X161000Y109875*
X160727Y110000*
X160545*
X160273Y109875*
X160182Y109625*
X229923Y116000D02*
X229855Y115812D01*
X229855D02*
X229718Y115625D01*
X229582Y115531*
X229309*
X229173Y115625*
X229036Y115812*
X229036D02*
X228968Y116000D01*
X228900Y116281*
Y116750*
X228968Y117031*
X229036Y117219*
X229173Y117406*
X229309Y117500*
X229582*
X229718Y117406*
X229855Y117219*
X229923Y117031*
X230673Y115531D02*
X231423D01*
X231014Y116281*
X231218*
X231355Y116375*
X231423Y116469*
X231491Y116750*
Y116937*
X231491D02*
X231423Y117219D01*
X231286Y117406*
X231082Y117500*
X230877*
X230673Y117406*
X230605Y117312*
X230605D02*
X230536Y117125D01*
X232991Y116187D02*
X232923Y116469D01*
X232786Y116656*
X232582Y116750*
X232514*
X232309Y116656*
X232173Y116469*
X232105Y116187*
X232105D02*
Y116094D01*
X232173Y115812*
X232173D02*
X232309Y115625D01*
X232514Y115531*
X232582*
X232786Y115625*
X232923Y115812*
X232923D02*
X232991Y116187D01*
X232991D02*
Y116656D01*
X232923Y117125*
X232786Y117406*
X232582Y117500*
X232445*
X232241Y117406*
X232173Y117219*
X200600Y131269D02*
Y129300D01*
Y131269D02*
X199986D01*
X199782Y131175*
X199714Y131081*
X199645Y130894*
Y130706*
X199714Y130519*
X199782Y130425*
X199986Y130331*
X200600*
X200123D02*
X199645Y129300D01*
X199032Y130894D02*
X198895Y130988D01*
X198895D02*
X198691Y131269D01*
Y129300*
X197123Y131269D02*
X197805Y129300D01*
X198077Y131269D02*
X197123D01*
X198831Y215218D02*
X200331D01*
X200612Y215286*
X200612D02*
X200706Y215355D01*
X200800Y215491*
Y215627*
X200706Y215764*
X200612Y215832*
X200612D02*
X200331Y215900D01*
X200144*
X198831Y213923D02*
X200144Y214605D01*
Y213582*
X198831Y213923D02*
X200800D01*
X207623Y190600D02*
X207555Y190413D01*
X207555D02*
X207418Y190225D01*
X207282Y190131*
X207009*
X206873Y190225*
X206736Y190413*
X206736D02*
X206668Y190600D01*
X206600Y190881*
Y191350*
X206668Y191631*
X206736Y191819*
X206873Y192006*
X207009Y192100*
X207282*
X207418Y192006*
X207555Y191819*
X207623Y191631*
X208373Y190131D02*
X209123D01*
X208714Y190881*
X208918*
X209055Y190975*
X209123Y191069*
X209191Y191350*
Y191538*
X209191D02*
X209123Y191819D01*
X208986Y192006*
X208782Y192100*
X208577*
X208373Y192006*
X208305Y191913*
X208305D02*
X208236Y191725D01*
X229900Y216369D02*
Y214400D01*
Y216369D02*
X229286D01*
X229082Y216275*
X229014Y216181*
X228945Y215994*
Y215806*
X229014Y215619*
X229082Y215525*
X229286Y215431*
X229900*
X229423D02*
X228945Y214400D01*
X228332Y215994D02*
X228195Y216088D01*
X228195D02*
X227991Y216369D01*
Y214400*
X227036Y216369D02*
X227241Y216275D01*
X227309Y216088*
X227309D02*
Y215900D01*
X227241Y215713*
X227241D02*
X227105Y215619D01*
X226832Y215525*
X226627Y215431*
X226491Y215244*
X226423Y215056*
Y214775*
X226491Y214588*
X226491D02*
X226559Y214494D01*
X226764Y214400*
X227036*
X227241Y214494*
X227309Y214588*
X227309D02*
X227377Y214775D01*
Y215056*
X227309Y215244*
X227173Y215431*
X226968Y215525*
X226695Y215619*
X226559Y215713*
X226559D02*
X226491Y215900D01*
Y216088*
X226491D02*
X226559Y216275D01*
X226764Y216369*
X227036*
X234669Y192600D02*
X232700D01*
X234669D02*
Y193214D01*
X234575Y193418*
X234481Y193486*
X234294Y193555*
X234106*
X233919Y193486*
X233825Y193418*
X233731Y193214*
Y192600*
Y193077D02*
X232700Y193555D01*
X234294Y194168D02*
X234388Y194305D01*
X234388D02*
X234669Y194509D01*
X232700*
X234013Y196009D02*
X233731Y195941D01*
X233544Y195805*
X233450Y195600*
Y195532*
X233544Y195327*
X233731Y195191*
X234013Y195123*
X234013D02*
X234106D01*
X234388Y195191*
X234388D02*
X234575Y195327D01*
X234669Y195532*
Y195600*
X234575Y195805*
X234388Y195941*
X234388D02*
X234013Y196009D01*
X234013D02*
X233544D01*
X233075Y195941*
X232794Y195805*
X232700Y195600*
Y195464*
X232794Y195259*
X232981Y195191*
X235400Y214769D02*
Y212800D01*
Y214769D02*
X234786D01*
X234582Y214675*
X234514Y214581*
X234445Y214394*
Y214206*
X234514Y214019*
X234582Y213925*
X234786Y213831*
X235400*
X234923D02*
X234445Y212800D01*
X233764Y214300D02*
Y214394D01*
X233695Y214581*
X233627Y214675*
X233491Y214769*
X233218*
X233082Y214675*
X233014Y214581*
X232945Y214394*
Y214206*
X233014Y214019*
X233150Y213738*
X233150D02*
X233832Y212800D01*
X232877*
X231855Y214769D02*
X232059Y214675D01*
X232195Y214394*
X232264Y213925*
Y213644*
X232195Y213175*
X232059Y212894*
X231855Y212800*
X231718*
X231514Y212894*
X231377Y213175*
X231309Y213644*
Y213925*
X231377Y214394*
X231514Y214675*
X231718Y214769*
X231855*
X218100Y211223D02*
X218288Y211155D01*
X218288D02*
X218475Y211018D01*
X218569Y210882*
Y210609*
X218475Y210473*
X218288Y210336*
X218288D02*
X218100Y210268D01*
X217819Y210200*
X217350*
X217069Y210268*
X216881Y210336*
X216694Y210473*
X216600Y210609*
Y210882*
X216694Y211018*
X216881Y211155*
X217069Y211223*
X218194Y211836D02*
X218288Y211973D01*
X218288D02*
X218569Y212177D01*
X216600*
X194731Y210000D02*
X196700D01*
Y209182*
X194731Y207886D02*
X196044Y208568D01*
Y207545*
X194731Y207886D02*
X196700D01*
X112500Y167875D02*
Y169750D01*
X112591Y170125*
X112773Y170375*
X113045Y170500*
X113227*
X113500Y170375*
X113682Y170125*
X113773Y169750*
Y167875*
X114682Y168500D02*
Y168375D01*
X114773Y168125*
X114864Y168000*
X115045Y167875*
X115409*
X115591Y168000*
X115682Y168125*
X115773Y168375*
Y168625*
X115682Y168875*
X115500Y169250*
X114591Y170500*
X115864*
X144269Y184800D02*
X142300D01*
Y185618*
X144269Y186368D02*
Y187118D01*
X143519Y186709*
Y186914*
X143425Y187050*
X143331Y187118*
X143050Y187186*
X142863*
X142863D02*
X142581Y187118D01*
X142394Y186982*
X142300Y186777*
Y186573*
X142394Y186368*
X142488Y186300*
X142488D02*
X142675Y186232D01*
X104323Y182500D02*
X104255Y182312D01*
X104255D02*
X104118Y182125D01*
X103982Y182031*
X103709*
X103573Y182125*
X103436Y182312*
X103436D02*
X103368Y182500D01*
X103300Y182781*
Y183250*
X103368Y183531*
X103436Y183719*
X103573Y183906*
X103709Y184000*
X103982*
X104118Y183906*
X104255Y183719*
X104323Y183531*
X105823Y182031D02*
X105141D01*
X105073Y182875*
X105141Y182781*
X105345Y182687*
X105345D02*
X105550D01*
X105550D02*
X105755Y182781D01*
X105891Y182969*
X105959Y183250*
X105891Y183437*
X105891D02*
X105823Y183719D01*
X105686Y183906*
X105482Y184000*
X105277*
X105073Y183906*
X105005Y183812*
X105005D02*
X104936Y183625D01*
X106641Y182500D02*
Y182406D01*
X106709Y182219*
X106777Y182125*
X106914Y182031*
X107186*
X107323Y182125*
X107391Y182219*
X107459Y182406*
Y182594*
X107391Y182781*
X107255Y183062*
X107255D02*
X106573Y184000D01*
X107527*
X132500Y172877D02*
X132312Y172945D01*
X132312D02*
X132125Y173082D01*
X132031Y173218*
Y173491*
X132125Y173627*
X132312Y173764*
X132312D02*
X132500Y173832D01*
X132781Y173900*
X133250*
X133531Y173832*
X133719Y173764*
X133906Y173627*
X134000Y173491*
Y173218*
X133906Y173082*
X133719Y172945*
X133531Y172877*
X132031Y171377D02*
Y172059D01*
X132875Y172127*
X132781Y172059*
X132687Y171855*
X132687D02*
Y171650D01*
X132687D02*
X132781Y171445D01*
X132969Y171309*
X133250Y171241*
X133437Y171309*
X133437D02*
X133719Y171377D01*
X133906Y171514*
X134000Y171718*
Y171923*
X133906Y172127*
X133812Y172195*
X133812D02*
X133625Y172264D01*
X132031Y170218D02*
X132125Y170423D01*
X132406Y170559*
X132875Y170627*
X133156*
X133625Y170559*
X133906Y170423*
X134000Y170218*
Y170082*
X133906Y169877*
X133625Y169741*
X133156Y169673*
X132875*
X132406Y169741*
X132125Y169877*
X132031Y170082*
Y170218*
X162350Y197573D02*
X162600Y197391D01*
X162725Y197118*
Y196755*
X162600Y196482*
X162350Y196300*
X162100*
X161850Y196391*
X161725Y196482*
X161600Y196664*
X161350Y197209*
X161225Y197391*
X161100Y197482*
X160850Y197573*
X160475*
X160225Y197391*
X160100Y197118*
Y196755*
X160225Y196482*
X160475Y196300*
X162225Y198391D02*
X162350Y198573D01*
X162725Y198845*
X160100*
X162225Y199664D02*
X162350Y199845D01*
X162725Y200118*
X160100*
X125800Y193531D02*
Y195500D01*
X126618*
X127300Y194000D02*
Y193906D01*
X127368Y193719*
X127436Y193625*
X127573Y193531*
X127845*
X127982Y193625*
X128050Y193719*
X128118Y193906*
Y194094*
X128050Y194281*
X127914Y194562*
X127914D02*
X127232Y195500D01*
X128186*
X159400Y208023D02*
X159588Y207955D01*
X159588D02*
X159775Y207818D01*
X159869Y207682*
Y207409*
X159775Y207273*
X159588Y207136*
X159588D02*
X159400Y207068D01*
X159119Y207000*
X158650*
X158369Y207068*
X158181Y207136*
X157994Y207273*
X157900Y207409*
Y207682*
X157994Y207818*
X158181Y207955*
X158369Y208023*
X159494Y208636D02*
X159588Y208773D01*
X159588D02*
X159869Y208977D01*
X157900*
X159869Y210000D02*
X159775Y209795D01*
X159494Y209659*
X159025Y209591*
X158744*
X158275Y209659*
X157994Y209795*
X157900Y210000*
Y210136*
X157994Y210341*
X158275Y210477*
X158744Y210545*
X159025*
X159494Y210477*
X159775Y210341*
X159869Y210136*
Y210000*
X159400Y211227D02*
X159494D01*
X159681Y211295*
X159775Y211364*
X159869Y211500*
Y211773*
X159775Y211909*
X159681Y211977*
X159494Y212045*
X159306*
X159119Y211977*
X158838Y211841*
X158838D02*
X157900Y211159D01*
Y212114*
X105600Y203077D02*
X105412Y203145D01*
X105412D02*
X105225Y203282D01*
X105131Y203418*
Y203691*
X105225Y203827*
X105412Y203964*
X105412D02*
X105600Y204032D01*
X105881Y204100*
X106350*
X106631Y204032*
X106819Y203964*
X107006Y203827*
X107100Y203691*
Y203418*
X107006Y203282*
X106819Y203145*
X106631Y203077*
X105131Y201782D02*
X106444Y202464D01*
Y201441*
X105131Y201782D02*
X107100D01*
X105600Y200759D02*
X105506D01*
X105319Y200691*
X105225Y200623*
X105131Y200486*
Y200214*
X105225Y200077*
X105319Y200009*
X105506Y199941*
X105694*
X105881Y200009*
X106162Y200145*
X106162D02*
X107100Y200827D01*
Y199873*
X103800Y209077D02*
X103612Y209145D01*
X103612D02*
X103425Y209282D01*
X103331Y209418*
Y209691*
X103425Y209827*
X103612Y209964*
X103612D02*
X103800Y210032D01*
X104081Y210100*
X104550*
X104831Y210032*
X105019Y209964*
X105206Y209827*
X105300Y209691*
Y209418*
X105206Y209282*
X105019Y209145*
X104831Y209077*
X103331Y207782D02*
X104644Y208464D01*
Y207441*
X103331Y207782D02*
X105300D01*
X103331Y206691D02*
Y205941D01*
X104081Y206350*
Y206145*
X104175Y206009*
X104269Y205941*
X104550Y205873*
X104737*
X104737D02*
X105019Y205941D01*
X105206Y206077*
X105300Y206282*
Y206486*
X105206Y206691*
X105112Y206759*
X105112D02*
X104925Y206827D01*
X103300Y216377D02*
X103112Y216445D01*
X103112D02*
X102925Y216582D01*
X102831Y216718*
Y216991*
X102925Y217127*
X103112Y217264*
X103112D02*
X103300Y217332D01*
X103581Y217400*
X104050*
X104331Y217332*
X104519Y217264*
X104706Y217127*
X104800Y216991*
Y216718*
X104706Y216582*
X104519Y216445*
X104331Y216377*
X103206Y215764D02*
X103112Y215627D01*
X103112D02*
X102831Y215423D01*
X104800*
X102831Y214400D02*
X102925Y214605D01*
X103206Y214741*
X103675Y214809*
X103956*
X104425Y214741*
X104706Y214605*
X104800Y214400*
Y214264*
X104706Y214059*
X104425Y213923*
X103956Y213855*
X103675*
X103206Y213923*
X102925Y214059*
X102831Y214264*
Y214400*
Y212559D02*
X104144Y213241D01*
Y212218*
X102831Y212559D02*
X104800D01*
X164023Y181300D02*
X163955Y181112D01*
X163955D02*
X163818Y180925D01*
X163682Y180831*
X163409*
X163273Y180925*
X163136Y181112*
X163136D02*
X163068Y181300D01*
X163000Y181581*
Y182050*
X163068Y182331*
X163136Y182519*
X163273Y182706*
X163409Y182800*
X163682*
X163818Y182706*
X163955Y182519*
X164023Y182331*
X164636Y181206D02*
X164773Y181112D01*
X164773D02*
X164977Y180831D01*
Y182800*
X166477Y180831D02*
X165795D01*
X165727Y181675*
X165795Y181581*
X166000Y181487*
X166000D02*
X166205D01*
X166205D02*
X166409Y181581D01*
X166545Y181769*
X166614Y182050*
X166545Y182237*
X166545D02*
X166477Y182519D01*
X166341Y182706*
X166136Y182800*
X165932*
X165727Y182706*
X165659Y182612*
X165659D02*
X165591Y182425D01*
X174423Y200600D02*
X174355Y200412D01*
X174355D02*
X174218Y200225D01*
X174082Y200131*
X173809*
X173673Y200225*
X173536Y200412*
X173536D02*
X173468Y200600D01*
X173400Y200881*
Y201350*
X173468Y201631*
X173536Y201819*
X173673Y202006*
X173809Y202100*
X174082*
X174218Y202006*
X174355Y201819*
X174423Y201631*
X175036Y200506D02*
X175173Y200412D01*
X175173D02*
X175377Y200131D01*
Y202100*
X176673Y200131D02*
X175991Y201444D01*
X177014*
X176673Y200131D02*
Y202100D01*
X145500Y215023D02*
X145688Y214955D01*
X145688D02*
X145875Y214818D01*
X145969Y214682*
Y214409*
X145875Y214273*
X145688Y214136*
X145688D02*
X145500Y214068D01*
X145219Y214000*
X144750*
X144469Y214068*
X144281Y214136*
X144094Y214273*
X144000Y214409*
Y214682*
X144094Y214818*
X144281Y214955*
X144469Y215023*
X145594Y215636D02*
X145688Y215773D01*
X145688D02*
X145969Y215977D01*
X144000*
X145688Y217409D02*
X145875Y217341D01*
X145969Y217136*
Y217000*
X145875Y216795*
X145594Y216659*
X145125Y216591*
X144656*
X144281Y216659*
X144094Y216795*
X144000Y217000*
Y217068*
X144094Y217273*
X144281Y217409*
X144563Y217477*
X144563D02*
X144656D01*
X144938Y217409*
X144938D02*
X145125Y217273D01*
X145219Y217068*
Y217000*
X145125Y216795*
X144938Y216659*
X144938D02*
X144656Y216591D01*
X120600Y157823D02*
X120787Y157755D01*
X120787D02*
X120975Y157618D01*
X121069Y157482*
Y157209*
X120975Y157073*
X120787Y156936*
X120787D02*
X120600Y156868D01*
X120319Y156800*
X119850*
X119569Y156868*
X119381Y156936*
X119194Y157073*
X119100Y157209*
Y157482*
X119194Y157618*
X119381Y157755*
X119569Y157823*
X121069Y159323D02*
Y158641D01*
X120225Y158573*
X120319Y158641*
X120412Y158845*
X120412D02*
Y159050D01*
X120412D02*
X120319Y159255D01*
X120131Y159391*
X119850Y159459*
X119662Y159391*
X119662D02*
X119381Y159323D01*
X119194Y159186*
X119100Y158982*
Y158777*
X119194Y158573*
X119287Y158505*
X119287D02*
X119475Y158436D01*
X120694Y160073D02*
X120787Y160209D01*
X120787D02*
X121069Y160414D01*
X119100*
X104231Y171200D02*
X106200D01*
X104231D02*
Y170586D01*
X104325Y170382*
X104419Y170314*
X104606Y170245*
X104794*
X104981Y170314*
X105075Y170382*
X105169Y170586*
Y171200*
Y170723D02*
X106200Y170245D01*
X104606Y169632D02*
X104512Y169495D01*
X104512D02*
X104231Y169291D01*
X106200*
X104606Y168677D02*
X104512Y168541D01*
X104512D02*
X104231Y168336D01*
X106200*
X130469Y162300D02*
X128500D01*
X130469D02*
Y162914D01*
X130375Y163118*
X130281Y163186*
X130094Y163255*
X129906*
X129719Y163186*
X129625Y163118*
X129531Y162914*
Y162300*
Y162777D02*
X128500Y163255D01*
X129813Y164755D02*
X129531Y164686D01*
X129344Y164550*
X129250Y164345*
Y164277*
X129344Y164073*
X129531Y163936*
X129813Y163868*
X129813D02*
X129906D01*
X130188Y163936*
X130188D02*
X130375Y164073D01*
X130469Y164277*
Y164345*
X130375Y164550*
X130188Y164686*
X130188D02*
X129813Y164755D01*
X129813D02*
X129344D01*
X128875Y164686*
X128594Y164550*
X128500Y164345*
Y164209*
X128594Y164005*
X128781Y163936*
X147977Y193200D02*
X148045Y193388D01*
X148045D02*
X148182Y193575D01*
X148318Y193669*
X148591*
X148727Y193575*
X148864Y193388*
X148864D02*
X148932Y193200D01*
X149000Y192919*
Y192450*
X148932Y192169*
X148864Y191981*
X148727Y191794*
X148591Y191700*
X148318*
X148182Y191794*
X148045Y191981*
X147977Y192169*
X147364Y193294D02*
X147227Y193388D01*
X147227D02*
X147023Y193669D01*
Y191700*
X146000Y193669D02*
X146205Y193575D01*
X146341Y193294*
X146409Y192825*
Y192544*
X146341Y192075*
X146205Y191794*
X146000Y191700*
X145864*
X145659Y191794*
X145523Y192075*
X145455Y192544*
Y192825*
X145523Y193294*
X145659Y193575*
X145864Y193669*
X146000*
X144705D02*
X143955D01*
X144364Y192919*
X144159*
X144023Y192825*
X143955Y192731*
X143886Y192450*
Y192263*
X143886D02*
X143955Y191981D01*
X144091Y191794*
X144295Y191700*
X144500*
X144705Y191794*
X144773Y191888*
X144773D02*
X144841Y192075D01*
X160700Y190823D02*
X160887Y190755D01*
X160887D02*
X161075Y190618D01*
X161169Y190482*
Y190209*
X161075Y190073*
X160887Y189936*
X160887D02*
X160700Y189868D01*
X160419Y189800*
X159950*
X159669Y189868*
X159481Y189936*
X159294Y190073*
X159200Y190209*
Y190482*
X159294Y190618*
X159481Y190755*
X159669Y190823*
X161169Y192118D02*
X159856Y191436D01*
Y192459*
X161169Y192118D02*
X159200D01*
X161169Y194027D02*
X159200Y193345D01*
X161169Y193073D02*
Y194027D01*
X133050Y211073D02*
X133300Y210891D01*
X133425Y210618*
Y210255*
X133300Y209982*
X133050Y209800*
X132800*
X132550Y209891*
X132425Y209982*
X132300Y210164*
X132050Y210709*
X131925Y210891*
X131800Y210982*
X131550Y211073*
X131175*
X130925Y210891*
X130800Y210618*
Y210255*
X130925Y209982*
X131175Y209800*
X132925Y211891D02*
X133050Y212073D01*
X133425Y212345*
X130800*
X132800Y213255D02*
X132925D01*
X133175Y213345*
X133300Y213436*
X133425Y213618*
Y213982*
X133300Y214164*
X133175Y214255*
X132925Y214345*
X132675*
X132425Y214255*
X132050Y214073*
X130800Y213164*
Y214436*
X107169Y194600D02*
X105200D01*
Y195418*
X106794Y196032D02*
X106888Y196168D01*
X106888D02*
X107169Y196373D01*
X105200*
X145023Y203000D02*
X144955Y202812D01*
X144955D02*
X144818Y202625D01*
X144682Y202531*
X144409*
X144273Y202625*
X144136Y202812*
X144136D02*
X144068Y203000D01*
X144000Y203281*
Y203750*
X144068Y204031*
X144136Y204219*
X144273Y204406*
X144409Y204500*
X144682*
X144818Y204406*
X144955Y204219*
X145023Y204031*
X146318Y202531D02*
X145636Y203844D01*
X146659*
X146318Y202531D02*
Y204500D01*
X148091Y202812D02*
X148023Y202625D01*
X147818Y202531*
X147682*
X147477Y202625*
X147341Y202906*
X147273Y203375*
Y203844*
X147341Y204219*
X147477Y204406*
X147682Y204500*
X147750*
X147955Y204406*
X148091Y204219*
X148159Y203937*
X148159D02*
Y203844D01*
X148091Y203562*
X148091D02*
X147955Y203375D01*
X147750Y203281*
X147682*
X147477Y203375*
X147341Y203562*
X147341D02*
X147273Y203844D01*
X220877Y122700D02*
X220945Y122888D01*
X220945D02*
X221082Y123075D01*
X221218Y123169*
X221491*
X221627Y123075*
X221764Y122888*
X221764D02*
X221832Y122700D01*
X221900Y122419*
Y121950*
X221832Y121669*
X221764Y121481*
X221627Y121294*
X221491Y121200*
X221218*
X221082Y121294*
X220945Y121481*
X220877Y121669*
X220127Y123169D02*
X219377D01*
X219786Y122419*
X219582*
X219445Y122325*
X219377Y122231*
X219309Y121950*
Y121763*
X219309D02*
X219377Y121481D01*
X219514Y121294*
X219718Y121200*
X219923*
X220127Y121294*
X220195Y121388*
X220195D02*
X220264Y121575D01*
X217877Y122888D02*
X217945Y123075D01*
X218150Y123169*
X218286*
X218491Y123075*
X218627Y122794*
X218695Y122325*
Y121856*
X218627Y121481*
X218491Y121294*
X218286Y121200*
X218218*
X218014Y121294*
X217877Y121481*
X217809Y121763*
X217809D02*
Y121856D01*
X217877Y122138*
X217877D02*
X218014Y122325D01*
X218218Y122419*
X218286*
X218491Y122325*
X218627Y122138*
X218627D02*
X218695Y121856D01*
X219123Y111200D02*
X219055Y111013D01*
X219055D02*
X218918Y110825D01*
X218782Y110731*
X218509*
X218373Y110825*
X218236Y111013*
X218236D02*
X218168Y111200D01*
X218100Y111481*
Y111950*
X218168Y112231*
X218236Y112419*
X218373Y112606*
X218509Y112700*
X218782*
X218918Y112606*
X219055Y112419*
X219123Y112231*
X220418Y110731D02*
X219736Y112044D01*
X220759*
X220418Y110731D02*
Y112700D01*
X221373Y111106D02*
X221509Y111013D01*
X221509D02*
X221714Y110731D01*
Y112700*
X193100Y135469D02*
Y133500D01*
Y135469D02*
X192486D01*
X192282Y135375*
X192214Y135281*
X192145Y135094*
Y134906*
X192214Y134719*
X192282Y134625*
X192486Y134531*
X193100*
X192623D02*
X192145Y133500D01*
X191464Y135000D02*
Y135094D01*
X191395Y135281*
X191327Y135375*
X191191Y135469*
X190918*
X190782Y135375*
X190714Y135281*
X190645Y135094*
Y134906*
X190714Y134719*
X190850Y134437*
X190850D02*
X191532Y133500D01*
X190577*
X189964Y135094D02*
X189827Y135187D01*
X189827D02*
X189623Y135469D01*
Y133500*
G54D13*
X228531Y169511D02*
G75*
G03X228531I-394J0D01*
G01X230647Y141701D02*
G03X230647I-125J0D01*
G01X163200Y111494D02*
Y112750D01*
X162400*
Y111494*
X163200*
X225026Y200851D02*
Y208725D01*
X217152*
Y200851*
X225026*
X208613Y209939D02*
X198770D01*
Y200108*
X208613*
Y209939*
X140639Y182287D02*
Y192130D01*
X130808*
Y182287*
X140639*
X148194Y196400D02*
X149450D01*
Y197200*
X148194*
Y196400*
X124687Y197661D02*
X134530D01*
Y207492*
X124687*
Y197661*
X118894Y210200D02*
X120150D01*
Y211000*
X118894*
Y210200*
X118913Y201439D02*
X109070D01*
Y191608*
X118913*
Y201439*
X100000Y100000D02*
X238000D01*
Y220000*
X100000*
Y100000*
G54D15*
X195805Y113872D02*
G03X195805I-418J0D01*
G01X128706Y172580D02*
G03X128706I-726J0D01*
G54D16*
G01X224700Y212725D02*
Y210100D01*
Y212725D02*
X223882D01*
X223609Y212600*
X223518Y212475*
X223427Y212225*
Y211850*
X223518Y211600*
X223609Y211475*
X223882Y211350*
X224700*
X221336Y212350D02*
X221518Y212600D01*
X221791Y212725*
X222155*
X222427Y212600*
X222609Y212350*
Y212100*
X222518Y211850*
X222427Y211725*
X222245Y211600*
X221700Y211350*
X221518Y211225*
X221427Y211100*
X221336Y210850*
Y210475*
X221518Y210225*
X221791Y210100*
X222155*
X222427Y210225*
X222609Y210475*
X220518Y212225D02*
X220336Y212350D01*
X220064Y212725*
Y210100*
G54D19*
X105952Y103889D02*
X137448D01*
Y127511*
X105952*
Y103889*
X128374Y172226D02*
Y187974D01*
X112626*
Y172226*
X128374*
G54D157*
X231385Y148546D02*
Y166854D01*
X217015*
Y148546*
X231385*
G54D198*
X103753Y105464D02*
G03X103753I-557J0D01*
G74*
G01X0Y0D02*
M02*
