*
*
G04 PADS 9.5 Build Number: 522968 generated Gerber (RS-274-X) file*
G04 PC Version=2.1*
*
%IN "MCollar_MAIN_working.pc"*%
*
%MOIN*%
*
%FSLAX35Y35*%
*
*
*
*
G04 PC Standard Apertures*
*
*
G04 Thermal Relief Aperture macro.*
%AMTER*
1,1,$1,0,0*
1,0,$1-$2,0,0*
21,0,$3,$4,0,0,45*
21,0,$3,$4,0,0,135*
%
*
*
G04 Annular Aperture macro.*
%AMANN*
1,1,$1,0,0*
1,0,$2,0,0*
%
*
*
G04 Odd Aperture macro.*
%AMODD*
1,1,$1,0,0*
1,0,$1-0.005,0,0*
%
*
*
G04 PC Custom Aperture Macros*
*
*
*
*
*
*
G04 PC Aperture Table*
*
%ADD010C,0.001*%
%ADD011C,0.007*%
%ADD012C,0.005*%
%ADD013C,0.01*%
%ADD128C,0.02*%
%ADD150C,0.016*%
%ADD184C,0.01181*%
*
*
*
*
G04 PC Circuitry*
G04 Layer Name MCollar_MAIN_working.pc - circuitry*
%LPD*%
*
*
G04 PC Custom Flashes*
G04 Layer Name MCollar_MAIN_working.pc - flashes*
%LPD*%
*
*
G04 PC Circuitry*
G04 Layer Name MCollar_MAIN_working.pc - circuitry*
%LPD*%
*
G54D10*
G54D11*
G01X212900Y155900D02*
X220700Y163700D01*
X235000*
X211600Y148200D02*
X223700D01*
X234900Y159400*
X203500Y164800D02*
X203916D01*
X210600Y171484*
Y181616*
X220484Y191500*
X230700*
X181600Y216700D02*
X185500Y212800D01*
Y207650*
X186500Y206650*
Y203484*
X190684Y199300*
X201150*
X206950Y193500*
X228700*
X230700Y191500*
X232721Y189479*
X234100Y188100*
G54D12*
X109350Y139650D02*
X110750Y138250D01*
Y136458*
X118220Y128988*
X118220D02*
X120412D01*
X120412D02*
X122600Y126800D01*
X109350Y139650D02*
Y142742D01*
X121608Y155000*
X196657*
X218859Y132798*
X220002*
X222300Y130500*
X105150Y132858D02*
Y154142D01*
X109208Y158200*
X111600*
X121500Y168100*
X105150Y132858D02*
X123708Y114300D01*
X151900*
X156200Y110000*
X191200*
X192400Y111200*
X118600Y134000D02*
X120200Y132400D01*
X129300*
X131100Y134200*
X148390*
X150290Y136100*
X168140*
X169100Y137060*
Y145551*
X170650Y147102*
X118600Y137100D02*
X120400Y138900D01*
X138850*
X142350Y142400*
X162799*
X164351Y143952*
X115400Y137100D02*
X116950Y135550D01*
X147458*
X151111Y139203*
X164944*
X165926Y140185*
Y142377*
X167501Y143952*
X180800Y102800D02*
X180704Y102896D01*
X183208Y105400*
X204499*
X205199Y104700*
X216047*
X216747Y105400*
X233900*
X235100Y106600*
X176600Y102800D02*
X176504Y102896D01*
X181008Y107400*
X209579*
X210279Y106700*
X215165*
X215865Y107400*
X218301*
X220100Y109199*
Y112990*
X221610Y114500*
X222600*
X227974Y109126*
X182900Y102800D02*
X182804Y102896D01*
X184308Y104400*
X198238*
X198938Y103700*
X216534*
X217234Y104400*
X229500*
X231100Y102800*
X178604Y102896D02*
X182108Y106400D01*
X208102*
X208802Y105700*
X215592*
X216292Y106400*
X223280*
X226006Y109126*
X178604Y102896D02*
X178700Y102800D01*
X152100Y117200D02*
Y118989D01*
X161711Y128600*
X163790*
X172200Y137011*
Y139252*
X195700Y137800D02*
X197892D01*
X206700Y128992*
Y112756*
X211756Y107700*
X214737*
X216163Y109126*
X157400Y111800D02*
Y117450D01*
X174300Y134350*
Y140392*
X179458Y145550*
X197456*
X218131Y124874*
X140000Y120100D02*
X141394Y118706D01*
X145644*
X148950Y115400*
X152775*
X154300Y116925*
Y119775*
X161725Y127200*
X163804*
X173300Y136696*
Y142494*
X179506Y148700*
X183200*
X183300Y148600*
X187923*
X188023Y148700*
X197574*
X218774Y127500*
X228900*
X230300Y128900*
X214194Y109126D02*
Y111094D01*
X217503Y114403*
X230150Y134859D02*
X235750Y129259D01*
Y124050*
X230150Y134859D02*
Y150750D01*
X234900Y155500*
X235200Y123500D02*
X235750Y124050D01*
X106150Y141442D02*
X111508Y146800D01*
X111893*
X121893Y156800*
X137276*
X138776Y158300*
X194890*
X198990Y154200*
X202492*
X206500Y150192*
Y147111*
X216711Y136900*
X217420*
X222020Y132300*
X222692*
X224000Y130992*
Y129100*
X106150Y141442D02*
Y137958D01*
X112364Y131744*
X113556*
X118600Y126700*
X112450Y143742D02*
Y139650D01*
X113850Y138250*
Y136458*
X119614Y130694*
X124006*
X127900Y126800*
X112450Y143742D02*
X120158Y151450D01*
X128300*
X129000Y152150*
X144927*
X145227Y151850*
X197750*
X220000Y129600*
X114000Y140800D02*
X120100Y146900D01*
X147376*
X149176Y148700*
X156501*
X158052Y150251*
X117200Y140900D02*
X121852Y145552D01*
X162801*
X164351Y147102*
X116100Y214600D02*
Y206350D01*
X138900Y183550*
Y168308*
X144358Y162850*
X149176*
X150726Y164400*
X156526*
X156576Y164350*
X161251*
X161325Y164424*
X189524*
X189550Y164450*
X194650*
X202700Y156400*
X209800Y145225D02*
X214025Y141000D01*
X221275*
X232200Y130075*
Y126158*
X232858Y125500*
X233100*
X209800Y145225D02*
Y151537D01*
X210700Y152437*
X212175Y153437*
X212200Y153400*
X186398Y172298D02*
X187948Y173848D01*
X197274*
X197623Y173500*
X205400*
X207700Y171200*
X170650Y140802D02*
X172200Y139252D01*
X177000Y140600D02*
X181900Y135700D01*
Y126025*
X190825Y117100*
X195400*
X187500Y193200D02*
X188592D01*
X192698Y189094*
Y181747*
X186398Y165999D02*
X187949Y167550D01*
X198050*
X212200Y153400*
X195847Y143952D02*
X197400Y142399D01*
Y140207*
X199107Y138500*
X202392*
X208300Y132592*
Y119030*
X210330Y117000*
X216090*
X217503Y115587*
Y114403*
G54D13*
X100000Y100000D02*
X238000D01*
Y220000*
X100000*
Y100000*
G54D128*
X106800Y103600D03*
X117200Y103000D03*
X122800D03*
X128100D03*
X127900Y126800D03*
X118600Y126700D03*
X122600Y126800D03*
X125400Y103000D03*
X114600Y103100D03*
X130700D03*
X104000Y111800D03*
X135900Y126100D03*
Y104100D03*
X125300Y126900D03*
X130500D03*
X104100Y116800D03*
X104000Y123200D03*
X119900Y103000D03*
X108200Y126300D03*
X104100Y108700D03*
X104000Y119600D03*
X160900Y111800D03*
X188100Y117200D03*
X140200Y112400D03*
X197400Y124900D03*
X151800Y111400D03*
X142600Y116800D03*
X218400Y138800D03*
X152100Y117200D03*
X195400Y117100D03*
X150100Y125000D03*
X140100Y123400D03*
X149700Y103000D03*
X147200D03*
X190800Y125200D03*
X188200D03*
X197100Y111300D03*
X145600Y110400D03*
X193500Y124800D03*
X179700Y113700D03*
X157300Y103000D03*
X176700Y117400D03*
X185600Y124800D03*
X160000Y117100D03*
X173800Y124800D03*
X162000Y125000D03*
X157400Y111800D03*
X154700Y103000D03*
X152200D03*
X172700Y117300D03*
X140000Y120100D03*
X233800Y134400D03*
X222100Y137700D03*
X222500Y134400D03*
X233800Y137400D03*
X130600Y213800D03*
X108500Y181100D03*
X125400Y169700D03*
X136700Y168000D03*
X119500Y169700D03*
X107500Y190200D03*
X110100Y174500D03*
X106100Y205600D03*
X108800Y176800D03*
X138100Y210800D03*
X135500D03*
X132800D03*
X139100Y195200D03*
X136500D03*
X133700D03*
X121500Y194500D03*
X130900Y175200D03*
X132600Y177100D03*
X130900Y179100D03*
X110100Y183100D03*
Y179100D03*
X117500Y168000D03*
X112500Y166100D03*
X118700Y213000D03*
X129000Y171700D03*
X110500Y160700D03*
X106400Y166100D03*
X104500Y189300D03*
X109200Y205500D03*
X106600Y211100D03*
X106200Y216200D03*
X124900Y213500D03*
X133000Y215100D03*
X117700Y177100D03*
X123400D03*
X123800Y183200D03*
X117400D03*
X113300Y172600D03*
X128000Y187600D03*
X113000D03*
X120500Y180100D03*
X121500Y168100D03*
X118600Y216500D03*
X138500Y200000D03*
X138100Y205000D03*
X160000Y209100D03*
X161100Y205400D03*
X158000Y216500D03*
X166200Y205400D03*
X161000Y202800D03*
X168600D03*
X207700Y171200D03*
X167800Y209100D03*
X173700Y216700D03*
X187500Y193200D03*
X169800Y216800D03*
X175700Y209000D03*
X171800D03*
X173700Y195300D03*
X169800D03*
X189200Y203400D03*
Y205900D03*
X183900Y203300D03*
Y205900D03*
X195900Y193300D03*
X163000Y193700D03*
X166500Y193600D03*
X159500Y193700D03*
X219600Y143300D03*
X140800Y210800D03*
X163800Y209000D03*
X144600Y195200D03*
X161900Y216500D03*
X141900Y195200D03*
X152100Y209100D03*
X150100Y216500D03*
X202500Y214600D03*
X187500Y209000D03*
X213700Y174600D03*
X218800Y185600D03*
X185600Y216600D03*
X212900Y155900D03*
X213600Y179700D03*
X213400Y177200D03*
X183600Y209000D03*
X212200Y153400D03*
X179700Y208900D03*
X211600Y148200D03*
X177700Y216800D03*
X211800Y145700D03*
X203500Y164800D03*
X181600Y216700D03*
X211600Y150800D03*
X157800Y206200D03*
X154100Y216500D03*
X216200Y211400D03*
X147800Y200100D03*
X144300Y167800D03*
X205800Y185400D03*
X209500Y164200D03*
X218000Y169600D03*
X189500Y216900D03*
X193400Y195300D03*
X165900Y216500D03*
X219200Y196100D03*
X216100D03*
X216200Y198900D03*
X219200D03*
X147000Y214700D03*
X154200Y204200D03*
X180200Y204900D03*
X141800Y204400D03*
X234300Y149700D03*
X233800Y183100D03*
X231900Y140200D03*
X234900Y155500D03*
X224100Y214900D03*
X224000Y199400D03*
X229100Y212700D03*
X233800Y168400D03*
X223900Y171400D03*
X222800Y145900D03*
X235000Y163700D03*
X221500Y188100D03*
X234800Y152600D03*
X234900Y159400D03*
X234100Y188100D03*
X222100Y143100D03*
X220100Y211900D03*
X220300Y215300D03*
X233900Y145400D03*
X234200Y198500D03*
G54D150*
X125000Y134000D03*
X128000Y137100D03*
X118600Y134000D03*
Y137100D03*
X115400D03*
X121700D03*
X112300D03*
X121800Y134000D03*
X109200Y137100D03*
X125000Y137200D03*
X135100Y132300D03*
X109100Y131100D03*
X191800Y102800D03*
X217900D03*
X161800D03*
X159600D03*
X166000D03*
X174500D03*
X170300D03*
X189500D03*
X187200D03*
X185000D03*
X182900D03*
X180800D03*
X162800Y130900D03*
X186398Y134503D03*
X151753D03*
X189500Y137800D03*
X176950Y137653D03*
X158052D03*
X151753D03*
X161202D03*
X164351D03*
X170650D03*
X202146Y131354D03*
X186400Y137700D03*
X142200Y121100D03*
X152100Y127000D03*
X202600Y136100D03*
X178500Y130900D03*
X194300D03*
X145454Y131354D03*
X167501Y134503D03*
X161202D03*
X192600Y137700D03*
X183249Y137653D03*
X178700Y102800D03*
X163900D03*
X195700Y137800D03*
X176600Y102800D03*
X172400D03*
X168200D03*
X192400Y111200D03*
X235200Y121400D03*
Y119300D03*
Y117200D03*
X220000Y129600D03*
X224000Y129100D03*
X222300Y130500D03*
X235200Y108700D03*
Y113000D03*
X220000Y102800D03*
X222100D03*
X228200D03*
X231100D03*
X235100Y106600D03*
X235200Y123500D03*
X233100Y125500D03*
X225200Y102800D03*
X234200Y127900D03*
X235200Y110800D03*
Y115100D03*
X230300Y128900D03*
X115700Y152900D03*
X112300Y156000D03*
X114000Y140800D03*
X107700D03*
X112400Y152900D03*
X117200Y140900D03*
X110900Y140800D03*
X115500Y156000D03*
X124900Y159100D03*
X109200Y156000D03*
X128000Y159100D03*
X109200Y152900D03*
X131200Y149900D03*
X120300Y140900D03*
X126600D03*
X132900Y140800D03*
X123400Y149300D03*
X138400Y150600D03*
X136300Y140600D03*
X135300Y150400D03*
X132900Y160000D03*
X123400Y140800D03*
X129700D03*
X106300Y159100D03*
X126600Y149400D03*
X121800Y153000D03*
X120300Y149400D03*
X116100Y214600D03*
X195800Y159700D03*
X195900Y150300D03*
X158200Y165900D03*
X202100Y188000D03*
X180100Y144000D03*
X151753Y153401D03*
X154902Y150251D03*
X158052D03*
X151753Y147102D03*
X158052D03*
X151753Y143952D03*
X189500Y166000D03*
X186398Y175448D03*
X192600Y156600D03*
X189548Y175448D03*
X183400Y181600D03*
Y184700D03*
X192600Y153400D03*
X198900Y156600D03*
X195700Y165900D03*
X198800Y175300D03*
X145000Y148700D03*
X183249Y143952D03*
X154902D03*
X192698Y150251D03*
X151753D03*
X154902Y162850D03*
Y169149D03*
X151753D03*
X189548Y178598D03*
X186398Y172298D03*
X164351Y147102D03*
X167501D03*
X170650D03*
X158052Y143952D03*
X164351D03*
X167501D03*
X151753Y140802D03*
X161202D03*
X170650D03*
X177000Y140600D03*
X151753Y156550D03*
X154902D03*
X158052D03*
X161202D03*
Y153401D03*
Y150251D03*
X164351Y181747D03*
X176950D03*
X192698D03*
X167501D03*
X176950Y178598D03*
X167501D03*
X176950Y175448D03*
X170650D03*
X180099Y150251D03*
X170650D03*
X164351D03*
X183249Y153401D03*
X176950D03*
X167501D03*
X180099Y156550D03*
X170650D03*
X164351D03*
X183249Y162850D03*
X176950D03*
X167501D03*
X180099Y165999D03*
X170650D03*
X164351D03*
X167501Y169149D03*
X189500Y156700D03*
X192700Y162900D03*
X180100Y140800D03*
X161202Y143952D03*
X154902Y153401D03*
X158100Y162800D03*
X183249Y178598D03*
X157900Y169300D03*
X158052Y140802D03*
X186398Y143952D03*
X189548Y147102D03*
X154902D03*
X195847Y153401D03*
X189548Y172298D03*
X186398Y178598D03*
X158052D03*
X170650Y181747D03*
X175300Y189000D03*
X145000Y180200D03*
X180099Y178598D03*
X164351D03*
X154902D03*
X180099Y181747D03*
X167501Y184897D03*
X151753D03*
X192700Y140800D03*
X186400Y150200D03*
X186200Y162700D03*
X186398Y140802D03*
X184800Y188500D03*
X189400Y181600D03*
X186398Y165999D03*
X161100Y169300D03*
X145000Y164400D03*
X202600Y151900D03*
Y170700D03*
Y167500D03*
Y183300D03*
X191100Y188500D03*
X187900D03*
X169100D03*
X159700D03*
X198997Y140802D03*
X195847D03*
X189548D03*
X183249D03*
X164351D03*
X154902D03*
X148603D03*
X192698Y143952D03*
X189548D03*
X170650D03*
X148603D03*
X195847Y147102D03*
X180099D03*
X161202D03*
X189548Y150251D03*
X183249D03*
X176950D03*
X167501D03*
X189548Y153401D03*
X186398D03*
X180099D03*
X170650D03*
X164351D03*
X158052D03*
X186300Y156600D03*
X183249Y156550D03*
X176950D03*
X167501D03*
X148603D03*
X189548Y162850D03*
X180099D03*
X170650D03*
X164351D03*
X183000Y166000D03*
X176950Y165999D03*
X167501D03*
X186398Y169149D03*
X176950D03*
X164351D03*
X148603D03*
X192698Y172298D03*
X176950D03*
X183249Y175448D03*
X164351D03*
X148603D03*
X170650Y178598D03*
X195847Y181747D03*
X161202D03*
X170650Y184897D03*
X145454Y188046D03*
X195847Y143952D03*
X202700Y156400D03*
G54D184*
X227974Y109126D03*
X226006D03*
X224037D03*
X222069D03*
X218131D03*
X216163D03*
X214194D03*
X212226D03*
X227974Y111094D03*
X224037D03*
X222069D03*
X218131D03*
X216163D03*
X212226D03*
X227974Y113063D03*
X222069D03*
X218131D03*
X212226D03*
X227974Y115031D03*
X226006D03*
X224037D03*
X216163D03*
X214194D03*
X212226D03*
X227974Y118969D03*
X226006D03*
X224037D03*
X216163D03*
X214194D03*
X212226D03*
X210257D03*
X227974Y120937D03*
X222069D03*
X218131D03*
X212226D03*
X227974Y122906D03*
X224037D03*
X222069D03*
X218131D03*
X216163D03*
X212226D03*
X227974Y124874D03*
X226006D03*
X224037D03*
X222069D03*
X218131D03*
X216163D03*
X214194D03*
X212226D03*
X0Y0D02*
M02*
