*
*
G04 PADS 9.5 Build Number: 522968 generated Gerber (RS-274-X) file*
G04 PC Version=2.1*
*
%IN "MCollar_MAIN_working.pc"*%
*
%MOIN*%
*
%FSLAX35Y35*%
*
*
*
*
G04 PC Standard Apertures*
*
*
G04 Thermal Relief Aperture macro.*
%AMTER*
1,1,$1,0,0*
1,0,$1-$2,0,0*
21,0,$3,$4,0,0,45*
21,0,$3,$4,0,0,135*
%
*
*
G04 Annular Aperture macro.*
%AMANN*
1,1,$1,0,0*
1,0,$2,0,0*
%
*
*
G04 Odd Aperture macro.*
%AMODD*
1,1,$1,0,0*
1,0,$1-0.005,0,0*
%
*
*
G04 PC Custom Aperture Macros*
*
*
*
*
*
*
G04 PC Aperture Table*
*
%ADD010C,0.001*%
%ADD011C,0.007*%
%ADD012C,0.005*%
%ADD013C,0.01*%
%ADD128C,0.02*%
%ADD150C,0.016*%
%ADD184C,0.01181*%
*
*
*
*
G04 PC Circuitry*
G04 Layer Name MCollar_MAIN_working.pc - circuitry*
%LPD*%
*
*
G04 PC Custom Flashes*
G04 Layer Name MCollar_MAIN_working.pc - flashes*
%LPD*%
*
*
G04 PC Circuitry*
G04 Layer Name MCollar_MAIN_working.pc - circuitry*
%LPD*%
*
G54D10*
G54D11*
G01X227974Y124874D02*
X228600Y125500D01*
Y163200*
X233800Y168400*
X110100Y183100D02*
X110350D01*
Y179100*
X110100D02*
X110350D01*
X118700Y213000D02*
X123500Y208200D01*
X140616*
X147800Y201016*
Y200100*
X178300Y207500D02*
Y204184D01*
X183184Y199300*
X204240*
X215440Y188100*
X221500*
X178300Y207500D02*
X179700Y208900D01*
X203500Y164800D02*
Y158900D01*
X211600Y150800*
X214784*
X222292Y143292*
X233800Y183100D02*
X235650Y181250D01*
X231900Y140200D02*
Y163700D01*
X235650Y167450*
Y181250*
X222100Y143100D02*
X222292Y143292D01*
G54D12*
X104750Y139358D02*
X115208Y128900D01*
X191875*
X195400Y125375*
Y124425*
X203225Y116600*
X225606*
X227974Y118969*
X104750Y139358D02*
Y160859D01*
X110100Y166209*
Y174500*
X128000Y137100D02*
X135600D01*
X144002Y145502*
X165901*
X167501Y147102*
X125000Y137200D02*
X126400Y138500D01*
X128150Y140250*
Y141442*
X133210Y146502*
X146978*
X149176Y148700*
X159650*
X161202Y150251*
X172304Y102896D02*
X173808Y104400D01*
X228608*
X235104Y110896*
X235200Y110800*
X172304Y102896D02*
X172400Y102800D01*
X170204Y102896D02*
X172708Y105400D01*
X227558*
X235104Y112946*
Y113096*
X235200Y113000*
X170204Y102896D02*
X170300Y102800D01*
X168104Y102896D02*
X171608Y106400D01*
X227144*
X231100Y110356*
Y111092*
X235108Y115100*
X235200*
X168104Y102896D02*
X168200Y102800D01*
X166000D02*
X170800Y107600D01*
X218501*
X220100Y109199*
Y112990*
X221610Y114500*
X222600*
X226006Y111094*
X227974*
X222100Y137700D02*
X226400Y133400D01*
Y127237*
X224037Y124874D02*
X226400Y127237D01*
X226006Y124874D02*
X227400Y126269D01*
X136700Y183155D02*
X151000Y197455D01*
Y203616*
X158384Y211000*
X204240*
X205740Y209500*
X220916*
X224100Y212684*
Y214900*
X107650Y152258D02*
X113508Y146400D01*
X116992*
X121850Y141542*
Y139650*
X123400Y138100*
Y133408*
X126058Y130750*
X139200*
X141354Y132904*
X194488*
X202362Y125030*
Y124968*
X209730Y117600*
X220700*
X224037Y120937*
X227974*
X107650Y152258D02*
Y156642D01*
X109208Y158200*
X110475*
X119500Y167225*
Y169700*
X103700Y179175D02*
X109525Y185000D01*
X134855*
X136700Y183155*
X103700Y179175D02*
Y134308D01*
X113108Y124900*
X128500*
X130500Y126900*
X109200Y156000D02*
X110750Y154450D01*
X118600*
X119126Y154976*
X156477*
X158052Y156550*
X128000Y159100D02*
X129679D01*
X132179Y161600*
X138100*
X140000Y159700*
X158052*
X161202Y156550*
X109200Y152900D02*
X110750Y151350D01*
X126400*
X127200Y152150*
X144927*
X145226Y151851*
X159652*
X161202Y153401*
X136700Y168000D02*
Y183155D01*
X222069Y124874D02*
X200550Y146393D01*
Y188642*
X201508Y189600*
X209640*
X215440Y183800*
X219675*
X228106Y192231*
Y192406*
X234200Y198500*
X202100Y188000D02*
X209775D01*
X227400Y170375*
Y126269*
X186398Y175448D02*
X187973Y173873D01*
Y170379*
X189500Y168852*
Y166000*
G54D13*
X135900Y104100D02*
X144500D01*
X151800Y111400*
X100000Y100000D02*
X238000D01*
Y220000*
X100000*
Y100000*
G54D128*
X106800Y103600D03*
X117200Y103000D03*
X122800D03*
X128100D03*
X127900Y126800D03*
X118600Y126700D03*
X122600Y126800D03*
X125400Y103000D03*
X114600Y103100D03*
X130700D03*
X104000Y111800D03*
X135900Y126100D03*
Y104100D03*
X125300Y126900D03*
X130500D03*
X104100Y116800D03*
X104000Y123200D03*
X119900Y103000D03*
X108200Y126300D03*
X104100Y108700D03*
X104000Y119600D03*
X160900Y111800D03*
X188100Y117200D03*
X140200Y112400D03*
X197400Y124900D03*
X151800Y111400D03*
X142600Y116800D03*
X218400Y138800D03*
X152100Y117200D03*
X195400Y117100D03*
X150100Y125000D03*
X140100Y123400D03*
X149700Y103000D03*
X147200D03*
X190800Y125200D03*
X188200D03*
X197100Y111300D03*
X145600Y110400D03*
X193500Y124800D03*
X179700Y113700D03*
X157300Y103000D03*
X176700Y117400D03*
X185600Y124800D03*
X160000Y117100D03*
X173800Y124800D03*
X162000Y125000D03*
X157400Y111800D03*
X154700Y103000D03*
X152200D03*
X172700Y117300D03*
X140000Y120100D03*
X233800Y134400D03*
X222100Y137700D03*
X222500Y134400D03*
X233800Y137400D03*
X130600Y213800D03*
X108500Y181100D03*
X125400Y169700D03*
X136700Y168000D03*
X119500Y169700D03*
X107500Y190200D03*
X110100Y174500D03*
X106100Y205600D03*
X108800Y176800D03*
X138100Y210800D03*
X135500D03*
X132800D03*
X139100Y195200D03*
X136500D03*
X133700D03*
X121500Y194500D03*
X130900Y175200D03*
X132600Y177100D03*
X130900Y179100D03*
X110100Y183100D03*
Y179100D03*
X117500Y168000D03*
X112500Y166100D03*
X118700Y213000D03*
X129000Y171700D03*
X110500Y160700D03*
X106400Y166100D03*
X104500Y189300D03*
X109200Y205500D03*
X106600Y211100D03*
X106200Y216200D03*
X124900Y213500D03*
X133000Y215100D03*
X117700Y177100D03*
X123400D03*
X123800Y183200D03*
X117400D03*
X113300Y172600D03*
X128000Y187600D03*
X113000D03*
X120500Y180100D03*
X121500Y168100D03*
X118600Y216500D03*
X138500Y200000D03*
X138100Y205000D03*
X160000Y209100D03*
X161100Y205400D03*
X158000Y216500D03*
X166200Y205400D03*
X161000Y202800D03*
X168600D03*
X207700Y171200D03*
X167800Y209100D03*
X173700Y216700D03*
X187500Y193200D03*
X169800Y216800D03*
X175700Y209000D03*
X171800D03*
X173700Y195300D03*
X169800D03*
X189200Y203400D03*
Y205900D03*
X183900Y203300D03*
Y205900D03*
X195900Y193300D03*
X163000Y193700D03*
X166500Y193600D03*
X159500Y193700D03*
X219600Y143300D03*
X140800Y210800D03*
X163800Y209000D03*
X144600Y195200D03*
X161900Y216500D03*
X141900Y195200D03*
X152100Y209100D03*
X150100Y216500D03*
X202500Y214600D03*
X187500Y209000D03*
X213700Y174600D03*
X218800Y185600D03*
X185600Y216600D03*
X212900Y155900D03*
X213600Y179700D03*
X213400Y177200D03*
X183600Y209000D03*
X212200Y153400D03*
X179700Y208900D03*
X211600Y148200D03*
X177700Y216800D03*
X211800Y145700D03*
X203500Y164800D03*
X181600Y216700D03*
X211600Y150800D03*
X157800Y206200D03*
X154100Y216500D03*
X216200Y211400D03*
X147800Y200100D03*
X144300Y167800D03*
X205800Y185400D03*
X209500Y164200D03*
X218000Y169600D03*
X189500Y216900D03*
X193400Y195300D03*
X165900Y216500D03*
X219200Y196100D03*
X216100D03*
X216200Y198900D03*
X219200D03*
X147000Y214700D03*
X154200Y204200D03*
X180200Y204900D03*
X141800Y204400D03*
X234300Y149700D03*
X233800Y183100D03*
X231900Y140200D03*
X234900Y155500D03*
X224100Y214900D03*
X224000Y199400D03*
X229100Y212700D03*
X233800Y168400D03*
X223900Y171400D03*
X222800Y145900D03*
X235000Y163700D03*
X221500Y188100D03*
X234800Y152600D03*
X234900Y159400D03*
X234100Y188100D03*
X222100Y143100D03*
X220100Y211900D03*
X220300Y215300D03*
X233900Y145400D03*
X234200Y198500D03*
G54D150*
X125000Y134000D03*
X128000Y137100D03*
X118600Y134000D03*
Y137100D03*
X115400D03*
X121700D03*
X112300D03*
X121800Y134000D03*
X109200Y137100D03*
X125000Y137200D03*
X135100Y132300D03*
X109100Y131100D03*
X191800Y102800D03*
X217900D03*
X161800D03*
X159600D03*
X166000D03*
X174500D03*
X170300D03*
X189500D03*
X187200D03*
X185000D03*
X182900D03*
X180800D03*
X162800Y130900D03*
X186398Y134503D03*
X151753D03*
X189500Y137800D03*
X176950Y137653D03*
X158052D03*
X151753D03*
X161202D03*
X164351D03*
X170650D03*
X202146Y131354D03*
X186400Y137700D03*
X142200Y121100D03*
X152100Y127000D03*
X202600Y136100D03*
X178500Y130900D03*
X194300D03*
X145454Y131354D03*
X167501Y134503D03*
X161202D03*
X192600Y137700D03*
X183249Y137653D03*
X178700Y102800D03*
X163900D03*
X195700Y137800D03*
X176600Y102800D03*
X172400D03*
X168200D03*
X192400Y111200D03*
X235200Y121400D03*
Y119300D03*
Y117200D03*
X220000Y129600D03*
X224000Y129100D03*
X222300Y130500D03*
X235200Y108700D03*
Y113000D03*
X220000Y102800D03*
X222100D03*
X228200D03*
X231100D03*
X235100Y106600D03*
X235200Y123500D03*
X233100Y125500D03*
X225200Y102800D03*
X234200Y127900D03*
X235200Y110800D03*
Y115100D03*
X230300Y128900D03*
X115700Y152900D03*
X112300Y156000D03*
X114000Y140800D03*
X107700D03*
X112400Y152900D03*
X117200Y140900D03*
X110900Y140800D03*
X115500Y156000D03*
X124900Y159100D03*
X109200Y156000D03*
X128000Y159100D03*
X109200Y152900D03*
X131200Y149900D03*
X120300Y140900D03*
X126600D03*
X132900Y140800D03*
X123400Y149300D03*
X138400Y150600D03*
X136300Y140600D03*
X135300Y150400D03*
X132900Y160000D03*
X123400Y140800D03*
X129700D03*
X106300Y159100D03*
X126600Y149400D03*
X121800Y153000D03*
X120300Y149400D03*
X116100Y214600D03*
X195800Y159700D03*
X195900Y150300D03*
X158200Y165900D03*
X202100Y188000D03*
X180100Y144000D03*
X151753Y153401D03*
X154902Y150251D03*
X158052D03*
X151753Y147102D03*
X158052D03*
X151753Y143952D03*
X189500Y166000D03*
X186398Y175448D03*
X192600Y156600D03*
X189548Y175448D03*
X183400Y181600D03*
Y184700D03*
X192600Y153400D03*
X198900Y156600D03*
X195700Y165900D03*
X198800Y175300D03*
X145000Y148700D03*
X183249Y143952D03*
X154902D03*
X192698Y150251D03*
X151753D03*
X154902Y162850D03*
Y169149D03*
X151753D03*
X189548Y178598D03*
X186398Y172298D03*
X164351Y147102D03*
X167501D03*
X170650D03*
X158052Y143952D03*
X164351D03*
X167501D03*
X151753Y140802D03*
X161202D03*
X170650D03*
X177000Y140600D03*
X151753Y156550D03*
X154902D03*
X158052D03*
X161202D03*
Y153401D03*
Y150251D03*
X164351Y181747D03*
X176950D03*
X192698D03*
X167501D03*
X176950Y178598D03*
X167501D03*
X176950Y175448D03*
X170650D03*
X180099Y150251D03*
X170650D03*
X164351D03*
X183249Y153401D03*
X176950D03*
X167501D03*
X180099Y156550D03*
X170650D03*
X164351D03*
X183249Y162850D03*
X176950D03*
X167501D03*
X180099Y165999D03*
X170650D03*
X164351D03*
X167501Y169149D03*
X189500Y156700D03*
X192700Y162900D03*
X180100Y140800D03*
X161202Y143952D03*
X154902Y153401D03*
X158100Y162800D03*
X183249Y178598D03*
X157900Y169300D03*
X158052Y140802D03*
X186398Y143952D03*
X189548Y147102D03*
X154902D03*
X195847Y153401D03*
X189548Y172298D03*
X186398Y178598D03*
X158052D03*
X170650Y181747D03*
X175300Y189000D03*
X145000Y180200D03*
X180099Y178598D03*
X164351D03*
X154902D03*
X180099Y181747D03*
X167501Y184897D03*
X151753D03*
X192700Y140800D03*
X186400Y150200D03*
X186200Y162700D03*
X186398Y140802D03*
X184800Y188500D03*
X189400Y181600D03*
X186398Y165999D03*
X161100Y169300D03*
X145000Y164400D03*
X202600Y151900D03*
Y170700D03*
Y167500D03*
Y183300D03*
X191100Y188500D03*
X187900D03*
X169100D03*
X159700D03*
X198997Y140802D03*
X195847D03*
X189548D03*
X183249D03*
X164351D03*
X154902D03*
X148603D03*
X192698Y143952D03*
X189548D03*
X170650D03*
X148603D03*
X195847Y147102D03*
X180099D03*
X161202D03*
X189548Y150251D03*
X183249D03*
X176950D03*
X167501D03*
X189548Y153401D03*
X186398D03*
X180099D03*
X170650D03*
X164351D03*
X158052D03*
X186300Y156600D03*
X183249Y156550D03*
X176950D03*
X167501D03*
X148603D03*
X189548Y162850D03*
X180099D03*
X170650D03*
X164351D03*
X183000Y166000D03*
X176950Y165999D03*
X167501D03*
X186398Y169149D03*
X176950D03*
X164351D03*
X148603D03*
X192698Y172298D03*
X176950D03*
X183249Y175448D03*
X164351D03*
X148603D03*
X170650Y178598D03*
X195847Y181747D03*
X161202D03*
X170650Y184897D03*
X145454Y188046D03*
X195847Y143952D03*
X202700Y156400D03*
G54D184*
X227974Y109126D03*
X226006D03*
X224037D03*
X222069D03*
X218131D03*
X216163D03*
X214194D03*
X212226D03*
X227974Y111094D03*
X224037D03*
X222069D03*
X218131D03*
X216163D03*
X212226D03*
X227974Y113063D03*
X222069D03*
X218131D03*
X212226D03*
X227974Y115031D03*
X226006D03*
X224037D03*
X216163D03*
X214194D03*
X212226D03*
X227974Y118969D03*
X226006D03*
X224037D03*
X216163D03*
X214194D03*
X212226D03*
X210257D03*
X227974Y120937D03*
X222069D03*
X218131D03*
X212226D03*
X227974Y122906D03*
X224037D03*
X222069D03*
X218131D03*
X216163D03*
X212226D03*
X227974Y124874D03*
X226006D03*
X224037D03*
X222069D03*
X218131D03*
X216163D03*
X214194D03*
X212226D03*
X0Y0D02*
M02*
