%
T1C.004F0S0
X022797Y010913
X022601Y010913
X022404Y010913
X022207Y010913
X021813Y010913
X021616Y010913
X021419Y010913
X021223Y010913
X022797Y011109
X022404Y011109
X022207Y011109
X021813Y011109
X021616Y011109
X021223Y011109
X022797Y011306
X022207Y011306
X021813Y011306
X021223Y011306
X022797Y011503
X022601Y011503
X022404Y011503
X021616Y011503
X021419Y011503
X021223Y011503
X022797Y011897
X022601Y011897
X022404Y011897
X021616Y011897
X021419Y011897
X021223Y011897
X021026Y011897
X022797Y012094
X022207Y012094
X021813Y012094
X021223Y012094
X022797Y012291
X022404Y012291
X022207Y012291
X021813Y012291
X021616Y012291
X021223Y012291
X022797Y012487
X022601Y012487
X022404Y012487
X022207Y012487
X021813Y012487
X021616Y012487
X021419Y012487
X021223Y012487
T2C.006F0S0
X01091Y01311
X01186Y0134
X01218Y0134
X0125Y0134
X01154Y01371
X01217Y01371
X01123Y01371
X0128Y01371
X01092Y01371
X01186Y01371
X0125Y01372
X0114Y01408
X01077Y01408
X01109Y01408
X01234Y01408
X01172Y01409
X01203Y01409
X01266Y01409
X01234Y01493
X01266Y01494
X01203Y01494
X01092Y01529
X01124Y01529
X01157Y01529
X01218Y0153
X01155Y0156
X01123Y0156
X01092Y0156
X01249Y01591
X0128Y01591
X01063Y01591
X01161Y02146
X014545Y018805
X015175Y01849
X0145Y01802
X01486Y017545
X015175Y016915
X01486Y016915
X0145Y01644
X01329Y016
X015175Y015655
X01486Y015655
X015175Y01534
X01384Y01506
X01353Y01504
X015175Y015025
X01312Y01499
X0145Y01487
X015175Y01471
X015175Y014395
X01486Y014395
X015175Y01408
X01486Y01408
X01297Y01408
X01329Y01408
X01363Y01406
X015175Y013765
X015175Y01345
X01351Y01323
X014545Y013135
X01521Y0127
X01422Y01211
X01618Y01028
X01596Y01028
X0166Y01028
X01745Y01028
X01703Y01028
X01787Y01028
X01639Y01028
X01766Y01028
X01724Y01028
X01682Y01028
X01628Y01309
X01785Y01309
X01612Y01345
X01675Y01345
X016435Y013765
X015805Y013765
X017065Y013765
X017695Y013765
X01612Y013765
X0177Y01406
X01612Y01408
X017065Y01408
X015805Y01408
X016435Y01408
X01549Y01408
X015805Y014395
X016435Y014395
X01675Y014395
X01549Y014395
X01612Y014395
X017065Y014395
X015805Y01471
X016435Y01471
X01675Y01471
X01549Y01471
X017065Y01471
X01612Y01471
X01612Y015025
X017065Y015025
X016435Y015025
X015805Y015025
X01549Y015025
X017695Y015025
X01675Y015025
X01612Y01534
X017695Y01534
X01675Y01534
X01549Y01534
X017065Y01534
X016435Y01534
X015805Y01534
X017065Y015655
X016435Y015655
X01549Y015655
X015805Y015655
X01612Y015655
X017695Y015655
X01675Y015655
X01581Y01628
X01549Y016285
X017695Y016285
X01675Y016285
X017065Y016285
X016435Y016285
X01582Y01659
X017065Y0166
X016435Y0166
X017695Y0166
X01675Y0166
X01549Y016915
X01675Y016915
X017695Y016915
X016435Y016915
X01579Y01693
X01611Y01693
X017695Y01723
X017695Y017545
X017065Y017545
X016435Y017545
X015805Y01786
X01675Y01786
X016435Y01786
X01549Y01786
X017695Y01786
X017065Y01786
X017695Y018175
X01675Y018175
X016435Y018175
X017065Y018175
X01612Y018175
X01675Y01849
X017065Y01849
X01597Y01885
X01691Y01885
X01753Y0189
X01848Y01885
X01911Y01885
X01879Y01885
X02021Y0188
X01834Y01847
X02026Y01833
X01801Y018175
X01927Y018175
X019585Y018175
X01894Y01816
X01834Y01816
X018325Y01786
X01864Y01786
X01801Y01786
X018955Y01786
X018955Y017545
X018325Y017545
X01864Y017545
X01988Y01753
X018955Y01723
X01864Y01723
X01927Y01723
X02026Y01707
X01864Y016915
X02026Y01675
X01895Y0166
X0183Y0166
X01801Y0166
X01864Y0166
X01957Y01659
X01927Y01629
X018325Y016285
X018955Y016285
X01801Y016285
X01862Y01627
X01958Y01597
X01895Y01567
X01989Y01566
X01926Y01566
X01863Y01566
X018325Y015655
X01801Y015655
X02027Y01564
X019585Y01534
X018955Y01534
X01864Y01534
X01801Y01534
X018325Y01534
X01926Y01534
X02026Y01519
X01959Y01503
X018955Y015025
X018325Y015025
X01927Y015025
X01801Y015025
X01864Y01502
X019585Y01471
X01801Y01471
X018955Y01471
X01801Y0144
X01864Y014395
X018325Y014395
X018955Y014395
X01927Y014395
X019585Y014395
X018955Y01408
X018325Y01408
X019585Y01408
X01864Y01408
X0199Y01408
X01927Y01408
X01801Y01408
X01957Y01378
X01895Y01378
X01864Y01377
X01926Y01377
X018325Y013765
X02026Y01361
X01864Y01345
X020215Y013135
X01943Y01309
X01924Y01112
X01829Y01028
X01918Y01028
X01872Y01028
X01808Y01028
X01895Y01028
X0185Y01028
X02179Y01028
X02221Y01028
X02252Y01028
X02282Y01028
X022Y01028
X0224Y01291
X022Y01296
X02223Y01305
X02303Y01289
X02342Y01279
X02331Y01255
X02352Y01235
X02352Y01214
X02352Y01193
X02352Y01172
X02352Y01151
X02352Y0113
X02352Y01108
X02352Y01087
X02351Y01066
X02311Y01028
T3C.01F095S3
X01172Y0103
X01228Y0103
X01281Y0103
X01254Y0103
X01199Y0103
X01146Y01031
X01068Y01036
X01041Y01087
X0104Y01118
X01041Y01168
X0104Y01196
X0104Y01232
X01082Y01263
X01186Y01267
X01279Y01268
X01226Y01268
X01253Y01269
X01105Y01607
X01125Y01661
X01064Y01661
X01175Y0168
X01215Y01681
X01254Y01697
X01195Y01697
X01133Y01726
X01101Y01745
X01088Y01768
X01177Y01771
X01234Y01771
X01101Y01791
X01205Y01801
X01085Y01811
X01101Y01831
X01238Y01832
X01174Y01832
X0128Y01876
X0113Y01876
X01045Y01893
X01075Y01902
X01215Y01945
X01092Y02055
X01061Y02056
X01066Y02111
X01187Y0213
X01249Y02135
X01062Y02162
X01186Y02165
X01501Y02165
X0133Y02151
X0147Y02147
X01306Y02138
X01381Y02108
X01355Y02108
X01328Y02108
X01408Y02108
X01521Y02091
X01381Y0205
X01418Y02044
X01478Y02001
X01385Y02
X01365Y01952
X01337Y01952
X01391Y01952
X01446Y01952
X01419Y01952
X01309Y01791
X01326Y01771
X01309Y01752
X0129Y01717
X01367Y0168
X01443Y01678
X01305Y01269
X01359Y01261
X01501Y0125
X01401Y01234
X014Y01201
X01521Y01172
X01426Y01168
X01402Y01124
X01518Y01114
X01456Y01104
X01359Y01041
X01307Y01031
X01522Y0103
X01472Y0103
X01497Y0103
X01547Y0103
X01573Y0103
X01574Y01118
X01609Y01118
X016Y01171
X01727Y01173
X01767Y01174
X01738Y01248
X0162Y0125
X01665Y01936
X0163Y01937
X01595Y01937
X01737Y01953
X01698Y01953
X01686Y02028
X0161Y02028
X01542Y02042
X01662Y02054
X01611Y02054
X01578Y02062
X01718Y0209
X01638Y0209
X01757Y0209
X016Y02091
X01678Y02091
X0158Y02165
X01619Y02165
X01541Y02165
X01659Y02165
X01737Y02167
X01777Y02168
X01698Y02168
X01895Y02169
X01816Y02167
X01856Y02166
X02025Y02146
X01875Y0209
X01836Y0209
X01797Y02089
X01839Y02059
X01892Y02059
X01802Y02049
X01892Y02034
X01839Y02033
X01934Y01953
X01959Y01933
X01875Y01932
X02035Y01648
X01908Y01252
X01882Y01252
X01974Y01249
X01935Y01248
X01856Y01248
X01881Y01172
X01954Y01171
X01797Y01137
X01971Y01113
X02225Y01344
X02221Y01377
X02184Y01388
X02221Y01431
X02196Y01433
X02118Y01457
X02228Y01459
X02116Y01482
X02116Y01508
X02122Y01534
X02129Y01559
X02095Y01642
X0218Y01696
X02077Y01712
X02239Y01714
X02137Y01746
X02134Y01772
X02136Y01797
X02058Y01854
X02188Y01856
X02215Y01881
X02192Y01961
X02161Y01961
X02192Y01989
X02162Y01989
X0224Y01994
X02162Y02114
X02201Y02119
X02241Y02149
X02203Y02153
X02291Y02127
X02342Y01985
X02341Y01881
X02338Y01831
X02338Y01684
X0235Y01637
X02349Y01594
X02349Y01555
X02348Y01526
X02343Y01497
X02339Y01454
X02319Y01402
X02338Y01374
X02338Y01344
M30
