*
*
G04 PADS 9.5 Build Number: 522968 generated Gerber (RS-274-X) file*
G04 PC Version=2.1*
*
%IN "MCollar_MAIN_working.pc"*%
*
%MOIN*%
*
%FSLAX35Y35*%
*
*
*
*
G04 PC Standard Apertures*
*
*
G04 Thermal Relief Aperture macro.*
%AMTER*
1,1,$1,0,0*
1,0,$1-$2,0,0*
21,0,$3,$4,0,0,45*
21,0,$3,$4,0,0,135*
%
*
*
G04 Annular Aperture macro.*
%AMANN*
1,1,$1,0,0*
1,0,$2,0,0*
%
*
*
G04 Odd Aperture macro.*
%AMODD*
1,1,$1,0,0*
1,0,$1-0.005,0,0*
%
*
*
G04 PC Custom Aperture Macros*
*
*
*
*
*
*
G04 PC Aperture Table*
*
%ADD010C,0.001*%
%ADD011C,0.007*%
%ADD012C,0.005*%
%ADD013C,0.01*%
%ADD022C,0.015*%
%ADD081R,0.03X0.038*%
%ADD084C,0.01339*%
%ADD121C,0.01181*%
%ADD128C,0.02*%
%ADD150C,0.016*%
%ADD172R,0.12008X0.08071*%
%ADD173R,0.02362X0.02*%
%ADD174R,0.02X0.02362*%
%ADD175R,0.05X0.06*%
%ADD176R,0.03346X0.01102*%
%ADD177R,0.01102X0.03346*%
%ADD178R,0.01181X0.04331*%
%ADD179R,0.05315X0.01575*%
%ADD180R,0.0748X0.07087*%
%ADD181R,0.0748X0.0748*%
%ADD182R,0.07087X0.09055*%
%ADD183R,0.00787X0.03346*%
%ADD184C,0.01181*%
*
*
*
*
G04 PC Circuitry*
G04 Layer Name MCollar_MAIN_working.pc - circuitry*
%LPD*%
*
*
G04 PC Custom Flashes*
G04 Layer Name MCollar_MAIN_working.pc - flashes*
%LPD*%
*
*
G04 PC Circuitry*
G04 Layer Name MCollar_MAIN_working.pc - circuitry*
%LPD*%
*
G54D10*
G01X207850Y181550D02*
X217050D01*
Y189184*
X206450Y204084*
Y216150*
X195050*
Y195450*
X207850*
Y181550*
X195050Y216150D02*
X206450D01*
X195050Y216050D02*
X206450D01*
X195050Y215950D02*
X206450D01*
X195050Y215850D02*
X206450D01*
X195050Y215750D02*
X206450D01*
X195050Y215650D02*
X206450D01*
X195050Y215550D02*
X206450D01*
X195050Y215450D02*
X206450D01*
X195050Y215350D02*
X206450D01*
X195050Y215250D02*
X206450D01*
X195050Y215150D02*
X206450D01*
X195050Y215050D02*
X206450D01*
X195050Y214950D02*
X206450D01*
X195050Y214850D02*
X206450D01*
X195050Y214750D02*
X206450D01*
X195050Y214650D02*
X206450D01*
X195050Y214550D02*
X206450D01*
X195050Y214450D02*
X206450D01*
X195050Y214350D02*
X206450D01*
X195050Y214250D02*
X206450D01*
X195050Y214150D02*
X206450D01*
X195050Y214050D02*
X206450D01*
X195050Y213950D02*
X206450D01*
X195050Y213850D02*
X206450D01*
X195050Y213750D02*
X206450D01*
X195050Y213650D02*
X206450D01*
X195050Y213550D02*
X206450D01*
X195050Y213450D02*
X206450D01*
X195050Y213350D02*
X206450D01*
X195050Y213250D02*
X206450D01*
X195050Y213150D02*
X206450D01*
X195050Y213050D02*
X206450D01*
X195050Y212950D02*
X206450D01*
X195050Y212850D02*
X206450D01*
X195050Y212750D02*
X206450D01*
X195050Y212650D02*
X206450D01*
X195050Y212550D02*
X206450D01*
X195050Y212450D02*
X206450D01*
X195050Y212350D02*
X206450D01*
X195050Y212250D02*
X206450D01*
X195050Y212150D02*
X206450D01*
X195050Y212050D02*
X206450D01*
X195050Y211950D02*
X206450D01*
X195050Y211850D02*
X206450D01*
X195050Y211750D02*
X206450D01*
X195050Y211650D02*
X206450D01*
X195050Y211550D02*
X206450D01*
X195050Y211450D02*
X206450D01*
X195050Y211350D02*
X206450D01*
X195050Y211250D02*
X206450D01*
X195050Y211150D02*
X206450D01*
X195050Y211050D02*
X206450D01*
X195050Y210950D02*
X206450D01*
X195050Y210850D02*
X206450D01*
X195050Y210750D02*
X206450D01*
X195050Y210650D02*
X206450D01*
X195050Y210550D02*
X206450D01*
X195050Y210450D02*
X206450D01*
X195050Y210350D02*
X206450D01*
X195050Y210250D02*
X206450D01*
X195050Y210150D02*
X206450D01*
X195050Y210050D02*
X206450D01*
X195050Y209950D02*
X206450D01*
X195050Y209850D02*
X206450D01*
X195050Y209750D02*
X206450D01*
X195050Y209650D02*
X206450D01*
X195050Y209550D02*
X206450D01*
X195050Y209450D02*
X206450D01*
X195050Y209350D02*
X206450D01*
X195050Y209250D02*
X206450D01*
X195050Y209150D02*
X206450D01*
X195050Y209050D02*
X206450D01*
X195050Y208950D02*
X206450D01*
X195050Y208850D02*
X206450D01*
X195050Y208750D02*
X206450D01*
X195050Y208650D02*
X206450D01*
X195050Y208550D02*
X206450D01*
X195050Y208450D02*
X206450D01*
X195050Y208350D02*
X206450D01*
X195050Y208250D02*
X206450D01*
X195050Y208150D02*
X206450D01*
X195050Y208050D02*
X206450D01*
X195050Y207950D02*
X206450D01*
X195050Y207850D02*
X206450D01*
X195050Y207750D02*
X206450D01*
X195050Y207650D02*
X206450D01*
X195050Y207550D02*
X206450D01*
X195050Y207450D02*
X206450D01*
X195050Y207350D02*
X206450D01*
X195050Y207250D02*
X206450D01*
X195050Y207150D02*
X206450D01*
X195050Y207050D02*
X206450D01*
X195050Y206950D02*
X206450D01*
X195050Y206850D02*
X206450D01*
X195050Y206750D02*
X206450D01*
X195050Y206650D02*
X206450D01*
X195050Y206550D02*
X206450D01*
X195050Y206450D02*
X206450D01*
X195050Y206350D02*
X206450D01*
X195050Y206250D02*
X206450D01*
X195050Y206150D02*
X206450D01*
X195050Y206050D02*
X206450D01*
X195050Y205950D02*
X206450D01*
X195050Y205850D02*
X206450D01*
X195050Y205750D02*
X206450D01*
X195050Y205650D02*
X206450D01*
X195050Y205550D02*
X206450D01*
X195050Y205450D02*
X206450D01*
X195050Y205350D02*
X206450D01*
X195050Y205250D02*
X206450D01*
X195050Y205150D02*
X206450D01*
X195050Y205050D02*
X206450D01*
X195050Y204950D02*
X206450D01*
X195050Y204850D02*
X206450D01*
X195050Y204750D02*
X206450D01*
X195050Y204650D02*
X206450D01*
X195050Y204550D02*
X206450D01*
X195050Y204450D02*
X206450D01*
X195050Y204350D02*
X206450D01*
X195050Y204250D02*
X206450D01*
X195050Y204150D02*
X206450D01*
X195050Y204050D02*
X206474D01*
X195050Y203950D02*
X206545D01*
X195050Y203850D02*
X206616D01*
X195050Y203750D02*
X206688D01*
X195050Y203650D02*
X206759D01*
X195050Y203550D02*
X206830D01*
X195050Y203450D02*
X206901D01*
X195050Y203350D02*
X206972D01*
X195050Y203250D02*
X207043D01*
X195050Y203150D02*
X207114D01*
X195050Y203050D02*
X207186D01*
X195050Y202950D02*
X207257D01*
X195050Y202850D02*
X207328D01*
X195050Y202750D02*
X207399D01*
X195050Y202650D02*
X207470D01*
X195050Y202550D02*
X207541D01*
X195050Y202450D02*
X207612D01*
X195050Y202350D02*
X207684D01*
X195050Y202250D02*
X207755D01*
X195050Y202150D02*
X207826D01*
X195050Y202050D02*
X207897D01*
X195050Y201950D02*
X207968D01*
X195050Y201850D02*
X208039D01*
X195050Y201750D02*
X208110D01*
X195050Y201650D02*
X208182D01*
X195050Y201550D02*
X208253D01*
X195050Y201450D02*
X208324D01*
X195050Y201350D02*
X208395D01*
X195050Y201250D02*
X208466D01*
X195050Y201150D02*
X208537D01*
X195050Y201050D02*
X208608D01*
X195050Y200950D02*
X208680D01*
X195050Y200850D02*
X208751D01*
X195050Y200750D02*
X208822D01*
X195050Y200650D02*
X208893D01*
X195050Y200550D02*
X208964D01*
X195050Y200450D02*
X209035D01*
X195050Y200350D02*
X209106D01*
X195050Y200250D02*
X209178D01*
X195050Y200150D02*
X209249D01*
X195050Y200050D02*
X209320D01*
X195050Y199950D02*
X209391D01*
X195050Y199850D02*
X209462D01*
X195050Y199750D02*
X209533D01*
X195050Y199650D02*
X209604D01*
X195050Y199550D02*
X209676D01*
X195050Y199450D02*
X209747D01*
X195050Y199350D02*
X209818D01*
X195050Y199250D02*
X209889D01*
X195050Y199150D02*
X209960D01*
X195050Y199050D02*
X210031D01*
X195050Y198950D02*
X210102D01*
X195050Y198850D02*
X210174D01*
X195050Y198750D02*
X210245D01*
X195050Y198650D02*
X210316D01*
X195050Y198550D02*
X210387D01*
X195050Y198450D02*
X210458D01*
X195050Y198350D02*
X210529D01*
X195050Y198250D02*
X210600D01*
X195050Y198150D02*
X210672D01*
X195050Y198050D02*
X210743D01*
X195050Y197950D02*
X210814D01*
X195050Y197850D02*
X210885D01*
X195050Y197750D02*
X210956D01*
X195050Y197650D02*
X211027D01*
X195050Y197550D02*
X211098D01*
X195050Y197450D02*
X211170D01*
X195050Y197350D02*
X211241D01*
X195050Y197250D02*
X211312D01*
X195050Y197150D02*
X211383D01*
X195050Y197050D02*
X211454D01*
X195050Y196950D02*
X211525D01*
X195050Y196850D02*
X211596D01*
X195050Y196750D02*
X211667D01*
X195050Y196650D02*
X211739D01*
X195050Y196550D02*
X211810D01*
X195050Y196450D02*
X211881D01*
X195050Y196350D02*
X211952D01*
X195050Y196250D02*
X212023D01*
X195050Y196150D02*
X212094D01*
X195050Y196050D02*
X212165D01*
X195050Y195950D02*
X212237D01*
X195050Y195850D02*
X212308D01*
X195050Y195750D02*
X212379D01*
X195050Y195650D02*
X212450D01*
X195050Y195550D02*
X212521D01*
X207850Y195450D02*
X212592D01*
X207850Y195350D02*
X212663D01*
X207850Y195250D02*
X212735D01*
X207850Y195150D02*
X212806D01*
X207850Y195050D02*
X212877D01*
X207850Y194950D02*
X212948D01*
X207850Y194850D02*
X213019D01*
X207850Y194750D02*
X213090D01*
X207850Y194650D02*
X213161D01*
X207850Y194550D02*
X213233D01*
X207850Y194450D02*
X213304D01*
X207850Y194350D02*
X213375D01*
X207850Y194250D02*
X213446D01*
X207850Y194150D02*
X213517D01*
X207850Y194050D02*
X213588D01*
X207850Y193950D02*
X213659D01*
X207850Y193850D02*
X213731D01*
X207850Y193750D02*
X213802D01*
X207850Y193650D02*
X213873D01*
X207850Y193550D02*
X213944D01*
X207850Y193450D02*
X214015D01*
X207850Y193350D02*
X214086D01*
X207850Y193250D02*
X214157D01*
X207850Y193150D02*
X214229D01*
X207850Y193050D02*
X214300D01*
X207850Y192950D02*
X214371D01*
X207850Y192850D02*
X214442D01*
X207850Y192750D02*
X214513D01*
X207850Y192650D02*
X214584D01*
X207850Y192550D02*
X214655D01*
X207850Y192450D02*
X214727D01*
X207850Y192350D02*
X214798D01*
X207850Y192250D02*
X214869D01*
X207850Y192150D02*
X214940D01*
X207850Y192050D02*
X215011D01*
X207850Y191950D02*
X215082D01*
X207850Y191850D02*
X215153D01*
X207850Y191750D02*
X215225D01*
X207850Y191650D02*
X215296D01*
X207850Y191550D02*
X215367D01*
X207850Y191450D02*
X215438D01*
X207850Y191350D02*
X215509D01*
X207850Y191250D02*
X215580D01*
X207850Y191150D02*
X215651D01*
X207850Y191050D02*
X215723D01*
X207850Y190950D02*
X215794D01*
X207850Y190850D02*
X215865D01*
X207850Y190750D02*
X215936D01*
X207850Y190650D02*
X216007D01*
X207850Y190550D02*
X216078D01*
X207850Y190450D02*
X216149D01*
X207850Y190350D02*
X216221D01*
X207850Y190250D02*
X216292D01*
X207850Y190150D02*
X216363D01*
X207850Y190050D02*
X216434D01*
X207850Y189950D02*
X216505D01*
X207850Y189850D02*
X216576D01*
X207850Y189750D02*
X216647D01*
X207850Y189650D02*
X216719D01*
X207850Y189550D02*
X216790D01*
X207850Y189450D02*
X216861D01*
X207850Y189350D02*
X216932D01*
X207850Y189250D02*
X217003D01*
X207850Y189150D02*
X217050D01*
X207850Y189050D02*
X217050D01*
X207850Y188950D02*
X217050D01*
X207850Y188850D02*
X217050D01*
X207850Y188750D02*
X217050D01*
X207850Y188650D02*
X217050D01*
X207850Y188550D02*
X217050D01*
X207850Y188450D02*
X217050D01*
X207850Y188350D02*
X217050D01*
X207850Y188250D02*
X217050D01*
X207850Y188150D02*
X217050D01*
X207850Y188050D02*
X217050D01*
X207850Y187950D02*
X217050D01*
X207850Y187850D02*
X217050D01*
X207850Y187750D02*
X217050D01*
X207850Y187650D02*
X217050D01*
X207850Y187550D02*
X217050D01*
X207850Y187450D02*
X217050D01*
X207850Y187350D02*
X217050D01*
X207850Y187250D02*
X217050D01*
X207850Y187150D02*
X217050D01*
X207850Y187050D02*
X217050D01*
X207850Y186950D02*
X217050D01*
X207850Y186850D02*
X217050D01*
X207850Y186750D02*
X217050D01*
X207850Y186650D02*
X217050D01*
X207850Y186550D02*
X217050D01*
X207850Y186450D02*
X217050D01*
X207850Y186350D02*
X217050D01*
X207850Y186250D02*
X217050D01*
X207850Y186150D02*
X217050D01*
X207850Y186050D02*
X217050D01*
X207850Y185950D02*
X217050D01*
X207850Y185850D02*
X217050D01*
X207850Y185750D02*
X217050D01*
X207850Y185650D02*
X217050D01*
X207850Y185550D02*
X217050D01*
X207850Y185450D02*
X217050D01*
X207850Y185350D02*
X217050D01*
X207850Y185250D02*
X217050D01*
X207850Y185150D02*
X217050D01*
X207850Y185050D02*
X217050D01*
X207850Y184950D02*
X217050D01*
X207850Y184850D02*
X217050D01*
X207850Y184750D02*
X217050D01*
X207850Y184650D02*
X217050D01*
X207850Y184550D02*
X217050D01*
X207850Y184450D02*
X217050D01*
X207850Y184350D02*
X217050D01*
X207850Y184250D02*
X217050D01*
X207850Y184150D02*
X217050D01*
X207850Y184050D02*
X217050D01*
X207850Y183950D02*
X217050D01*
X207850Y183850D02*
X217050D01*
X207850Y183750D02*
X217050D01*
X207850Y183650D02*
X217050D01*
X207850Y183550D02*
X217050D01*
X207850Y183450D02*
X217050D01*
X207850Y183350D02*
X217050D01*
X207850Y183250D02*
X217050D01*
X207850Y183150D02*
X217050D01*
X207850Y183050D02*
X217050D01*
X207850Y182950D02*
X217050D01*
X207850Y182850D02*
X217050D01*
X207850Y182750D02*
X217050D01*
X207850Y182650D02*
X217050D01*
X207850Y182550D02*
X217050D01*
X207850Y182450D02*
X217050D01*
X207850Y182350D02*
X217050D01*
X207850Y182250D02*
X217050D01*
X207850Y182150D02*
X217050D01*
X207850Y182050D02*
X217050D01*
X207850Y181950D02*
X217050D01*
X207850Y181850D02*
X217050D01*
X207850Y181750D02*
X217050D01*
X207850Y181650D02*
X217050D01*
X195050Y195450D02*
Y216150D01*
X195150Y195450D02*
Y216150D01*
X195250Y195450D02*
Y216150D01*
X195350Y195450D02*
Y216150D01*
X195450Y195450D02*
Y216150D01*
X195550Y195450D02*
Y216150D01*
X195650Y195450D02*
Y216150D01*
X195750Y195450D02*
Y216150D01*
X195850Y195450D02*
Y216150D01*
X195950Y195450D02*
Y216150D01*
X196050Y195450D02*
Y216150D01*
X196150Y195450D02*
Y216150D01*
X196250Y195450D02*
Y216150D01*
X196350Y195450D02*
Y216150D01*
X196450Y195450D02*
Y216150D01*
X196550Y195450D02*
Y216150D01*
X196650Y195450D02*
Y216150D01*
X196750Y195450D02*
Y216150D01*
X196850Y195450D02*
Y216150D01*
X196950Y195450D02*
Y216150D01*
X197050Y195450D02*
Y216150D01*
X197150Y195450D02*
Y216150D01*
X197250Y195450D02*
Y216150D01*
X197350Y195450D02*
Y216150D01*
X197450Y195450D02*
Y216150D01*
X197550Y195450D02*
Y216150D01*
X197650Y195450D02*
Y216150D01*
X197750Y195450D02*
Y216150D01*
X197850Y195450D02*
Y216150D01*
X197950Y195450D02*
Y216150D01*
X198050Y195450D02*
Y216150D01*
X198150Y195450D02*
Y216150D01*
X198250Y195450D02*
Y216150D01*
X198350Y195450D02*
Y216150D01*
X198450Y195450D02*
Y216150D01*
X198550Y195450D02*
Y216150D01*
X198650Y195450D02*
Y216150D01*
X198750Y195450D02*
Y216150D01*
X198850Y195450D02*
Y216150D01*
X198950Y195450D02*
Y216150D01*
X199050Y195450D02*
Y216150D01*
X199150Y195450D02*
Y216150D01*
X199250Y195450D02*
Y216150D01*
X199350Y195450D02*
Y216150D01*
X199450Y195450D02*
Y216150D01*
X199550Y195450D02*
Y216150D01*
X199650Y195450D02*
Y216150D01*
X199750Y195450D02*
Y216150D01*
X199850Y195450D02*
Y216150D01*
X199950Y195450D02*
Y216150D01*
X200050Y195450D02*
Y216150D01*
X200150Y195450D02*
Y216150D01*
X200250Y195450D02*
Y216150D01*
X200350Y195450D02*
Y216150D01*
X200450Y195450D02*
Y216150D01*
X200550Y195450D02*
Y216150D01*
X200650Y195450D02*
Y216150D01*
X200750Y195450D02*
Y216150D01*
X200850Y195450D02*
Y216150D01*
X200950Y195450D02*
Y216150D01*
X201050Y195450D02*
Y216150D01*
X201150Y195450D02*
Y216150D01*
X201250Y195450D02*
Y216150D01*
X201350Y195450D02*
Y216150D01*
X201450Y195450D02*
Y216150D01*
X201550Y195450D02*
Y216150D01*
X201650Y195450D02*
Y216150D01*
X201750Y195450D02*
Y216150D01*
X201850Y195450D02*
Y216150D01*
X201950Y195450D02*
Y216150D01*
X202050Y195450D02*
Y216150D01*
X202150Y195450D02*
Y216150D01*
X202250Y195450D02*
Y216150D01*
X202350Y195450D02*
Y216150D01*
X202450Y195450D02*
Y216150D01*
X202550Y195450D02*
Y216150D01*
X202650Y195450D02*
Y216150D01*
X202750Y195450D02*
Y216150D01*
X202850Y195450D02*
Y216150D01*
X202950Y195450D02*
Y216150D01*
X203050Y195450D02*
Y216150D01*
X203150Y195450D02*
Y216150D01*
X203250Y195450D02*
Y216150D01*
X203350Y195450D02*
Y216150D01*
X203450Y195450D02*
Y216150D01*
X203550Y195450D02*
Y216150D01*
X203650Y195450D02*
Y216150D01*
X203750Y195450D02*
Y216150D01*
X203850Y195450D02*
Y216150D01*
X203950Y195450D02*
Y216150D01*
X204050Y195450D02*
Y216150D01*
X204150Y195450D02*
Y216150D01*
X204250Y195450D02*
Y216150D01*
X204350Y195450D02*
Y216150D01*
X204450Y195450D02*
Y216150D01*
X204550Y195450D02*
Y216150D01*
X204650Y195450D02*
Y216150D01*
X204750Y195450D02*
Y216150D01*
X204850Y195450D02*
Y216150D01*
X204950Y195450D02*
Y216150D01*
X205050Y195450D02*
Y216150D01*
X205150Y195450D02*
Y216150D01*
X205250Y195450D02*
Y216150D01*
X205350Y195450D02*
Y216150D01*
X205450Y195450D02*
Y216150D01*
X205550Y195450D02*
Y216150D01*
X205650Y195450D02*
Y216150D01*
X205750Y195450D02*
Y216150D01*
X205850Y195450D02*
Y216150D01*
X205950Y195450D02*
Y216150D01*
X206050Y195450D02*
Y216150D01*
X206150Y195450D02*
Y216150D01*
X206250Y195450D02*
Y216150D01*
X206350Y195450D02*
Y216150D01*
X206450Y195450D02*
Y204084D01*
X206550Y195450D02*
Y203943D01*
X206650Y195450D02*
Y203803D01*
X206750Y195450D02*
Y203662D01*
X206850Y195450D02*
Y203522D01*
X206950Y195450D02*
Y203381D01*
X207050Y195450D02*
Y203241D01*
X207150Y195450D02*
Y203100D01*
X207250Y195450D02*
Y202960D01*
X207350Y195450D02*
Y202819D01*
X207450Y195450D02*
Y202678D01*
X207550Y195450D02*
Y202538D01*
X207650Y195450D02*
Y202397D01*
X207750Y195450D02*
Y202257D01*
X207850Y181550D02*
Y202116D01*
X207950Y181550D02*
Y201976D01*
X208050Y181550D02*
Y201835D01*
X208150Y181550D02*
Y201694D01*
X208250Y181550D02*
Y201554D01*
X208350Y181550D02*
Y201413D01*
X208450Y181550D02*
Y201273D01*
X208550Y181550D02*
Y201132D01*
X208650Y181550D02*
Y200992D01*
X208750Y181550D02*
Y200851D01*
X208850Y181550D02*
Y200710D01*
X208950Y181550D02*
Y200570D01*
X209050Y181550D02*
Y200429D01*
X209150Y181550D02*
Y200289D01*
X209250Y181550D02*
Y200148D01*
X209350Y181550D02*
Y200008D01*
X209450Y181550D02*
Y199867D01*
X209550Y181550D02*
Y199726D01*
X209650Y181550D02*
Y199586D01*
X209750Y181550D02*
Y199445D01*
X209850Y181550D02*
Y199305D01*
X209950Y181550D02*
Y199164D01*
X210050Y181550D02*
Y199024D01*
X210150Y181550D02*
Y198883D01*
X210250Y181550D02*
Y198743D01*
X210350Y181550D02*
Y198602D01*
X210450Y181550D02*
Y198461D01*
X210550Y181550D02*
Y198321D01*
X210650Y181550D02*
Y198180D01*
X210750Y181550D02*
Y198040D01*
X210850Y181550D02*
Y197899D01*
X210950Y181550D02*
Y197759D01*
X211050Y181550D02*
Y197618D01*
X211150Y181550D02*
Y197477D01*
X211250Y181550D02*
Y197337D01*
X211350Y181550D02*
Y197196D01*
X211450Y181550D02*
Y197056D01*
X211550Y181550D02*
Y196915D01*
X211650Y181550D02*
Y196775D01*
X211750Y181550D02*
Y196634D01*
X211850Y181550D02*
Y196493D01*
X211950Y181550D02*
Y196353D01*
X212050Y181550D02*
Y196212D01*
X212150Y181550D02*
Y196072D01*
X212250Y181550D02*
Y195931D01*
X212350Y181550D02*
Y195791D01*
X212450Y181550D02*
Y195650D01*
X212550Y181550D02*
Y195510D01*
X212650Y181550D02*
Y195369D01*
X212750Y181550D02*
Y195228D01*
X212850Y181550D02*
Y195088D01*
X212950Y181550D02*
Y194947D01*
X213050Y181550D02*
Y194807D01*
X213150Y181550D02*
Y194666D01*
X213250Y181550D02*
Y194526D01*
X213350Y181550D02*
Y194385D01*
X213450Y181550D02*
Y194244D01*
X213550Y181550D02*
Y194104D01*
X213650Y181550D02*
Y193963D01*
X213750Y181550D02*
Y193823D01*
X213850Y181550D02*
Y193682D01*
X213950Y181550D02*
Y193542D01*
X214050Y181550D02*
Y193401D01*
X214150Y181550D02*
Y193260D01*
X214250Y181550D02*
Y193120D01*
X214350Y181550D02*
Y192979D01*
X214450Y181550D02*
Y192839D01*
X214550Y181550D02*
Y192698D01*
X214650Y181550D02*
Y192558D01*
X214750Y181550D02*
Y192417D01*
X214850Y181550D02*
Y192276D01*
X214950Y181550D02*
Y192136D01*
X215050Y181550D02*
Y191995D01*
X215150Y181550D02*
Y191855D01*
X215250Y181550D02*
Y191714D01*
X215350Y181550D02*
Y191574D01*
X215450Y181550D02*
Y191433D01*
X215550Y181550D02*
Y191293D01*
X215650Y181550D02*
Y191152D01*
X215750Y181550D02*
Y191011D01*
X215850Y181550D02*
Y190871D01*
X215950Y181550D02*
Y190730D01*
X216050Y181550D02*
Y190590D01*
X216150Y181550D02*
Y190449D01*
X216250Y181550D02*
Y190309D01*
X216350Y181550D02*
Y190168D01*
X216450Y181550D02*
Y190027D01*
X216550Y181550D02*
Y189887D01*
X216650Y181550D02*
Y189746D01*
X216750Y181550D02*
Y189606D01*
X216850Y181550D02*
Y189465D01*
X216950Y181550D02*
Y189325D01*
G54D11*
X104000Y119600D02*
X108371D01*
X111718Y116253*
X112840*
X130360Y110347D02*
X138290D01*
X138343Y110400*
X145600*
X189307Y122841D02*
Y121059D01*
X189514*
X147142Y103058D02*
X150144Y106061D01*
Y107279*
X147142Y103058D02*
X147200Y103000D01*
X152200D02*
X151996Y103204D01*
X154289Y105497*
X190800Y125200D02*
X191483Y121609D01*
Y121059*
X188200Y125200D02*
X189514Y122353D01*
Y121059*
X197100Y111300D02*
X197148Y109094D01*
Y107279*
X197388*
X157300Y103000D02*
X158018Y106704D01*
Y107279*
X154700Y103000D02*
X156050Y105998D01*
Y107279*
X193451Y121059D02*
Y124800D01*
X193500*
X185577Y121059D02*
Y124800D01*
X185600*
X154081Y107279D02*
X154289D01*
Y105497*
X222100Y137700D02*
X223950Y139550D01*
Y144434*
X132500Y173600D02*
X132957Y173143D01*
Y168665*
X132500Y173600D02*
X135757Y176857D01*
X136235*
X129050Y178334D02*
Y184048D01*
X131665Y186662*
Y186843*
X129050Y178334D02*
X130284Y177100D01*
X132600*
X111150Y188366D02*
Y184823D01*
X113635Y182338*
Y182157*
X111150Y188366D02*
X117284Y194500D01*
X121500*
X113491Y177894D02*
X117806Y173580D01*
X117843*
Y173435*
X113491Y177894D02*
Y178220D01*
X113635*
X130600Y213800D02*
X132500Y213100D01*
X140795*
X140880Y213185*
Y215035*
X108800Y176800D02*
X110650D01*
X111785Y177935*
X113635*
Y178220*
X136500Y195200D02*
Y192445D01*
X137665Y191280*
X133700Y195200D02*
Y192289D01*
X135200Y190789*
Y186200*
X137557Y183843*
Y181765*
X130900Y175200D02*
X132500Y173600D01*
X132600Y177100D02*
X132800D01*
X129000Y171700D02*
Y168665D01*
X129020*
X106600Y211100D02*
X112700D01*
X113700Y210100*
X106200Y216200D02*
X109743D01*
Y216135*
X124900Y213500D02*
X129435Y208965D01*
Y204557*
X133000Y215100D02*
X136879D01*
X136943Y215035*
X113000Y187600D02*
X116980Y191580D01*
X119465*
X113680Y216135D02*
Y216250D01*
X118600*
Y216500*
X104835Y175957D02*
Y177435D01*
Y172020D02*
X106955Y169900D01*
X119500*
Y169700*
X136235Y172920D02*
X138085D01*
X139800Y174634*
Y179700*
X121780Y173435D02*
X122441D01*
X123400Y177100*
X137665Y187343D02*
X138368Y188046D01*
X145454*
X124335Y191457D02*
X125169Y192291D01*
X129435*
X124335Y187520D02*
Y187339D01*
X125974Y185700*
X128800*
X129800Y186700*
X131665*
Y186843*
X119465Y187643D02*
Y187520D01*
X124335*
X113700Y210100D02*
Y208000D01*
X121700*
X123850*
Y210650*
X124900Y213500*
X137557Y181765D02*
X137739D01*
X139800Y179700*
X133620Y181765D02*
Y179654D01*
X136235Y177038*
Y176857*
X217700Y145682D02*
Y142350D01*
X220250Y139800*
Y136650*
X222500Y134400*
X217700Y145682D02*
X218021D01*
X210892Y157492D02*
Y154708D01*
X212200Y153400*
X210892Y157492D02*
X211800Y158400D01*
Y160360*
X207200Y166390D02*
Y149916D01*
X211608Y145508*
X211800Y145700*
X207200Y166390D02*
X208650Y167840D01*
X208400Y160109D02*
Y151216D01*
X211508Y148108*
X211600Y148200*
X208400Y160109D02*
X208650Y160360D01*
X209692Y157992D02*
Y152708D01*
X211600Y150800*
X209692Y157992D02*
X210225Y158525D01*
Y160360*
X163800Y209000D02*
X163905D01*
Y212800*
X161900Y216500D02*
X161936D01*
Y212800*
X150100Y216500D02*
X150125D01*
Y212800*
X187500Y209000D02*
X187527D01*
Y212800*
X213700Y174600D02*
Y174619D01*
X218021*
X212900Y155900D02*
Y155918D01*
X218021*
X212900Y155900D02*
X213375Y159355D01*
Y160360*
X212200Y153400D02*
Y153359D01*
X218021*
X211600Y148200D02*
Y148241D01*
X218021*
X211800Y145700D02*
Y145682D01*
X218021*
X181600Y216700D02*
X181621D01*
Y212800*
X211600Y150800D02*
X218021D01*
X209500Y164200D02*
X213633D01*
X214950Y162883*
Y160360*
X218000Y169600D02*
Y172060D01*
X218021*
X193400Y195300D02*
X193432D01*
Y199020*
X210225Y167840D02*
Y176709D01*
X213408Y179892*
X213600Y179700*
X211800Y167840D02*
Y175600D01*
X213400Y177200*
X213375Y167840D02*
Y174275D01*
X213700Y174600*
X214950Y167840D02*
Y167700D01*
X218716*
X221529Y170512*
Y180899*
X218021Y182296D02*
Y182416D01*
X220012*
X221529Y180899*
X189495Y212800D02*
Y216900D01*
X189500*
X185558Y212800D02*
Y216600D01*
X185600*
X183590Y212800D02*
Y209000D01*
X183600*
X179653Y212800D02*
Y208900D01*
X179700*
X177684Y212800D02*
Y216800D01*
X177700*
X165873Y212800D02*
Y216500D01*
X165900*
X159968Y212800D02*
Y209100D01*
X160000*
X157999Y212800D02*
Y216500D01*
X158000*
X156031Y212800D02*
Y207969D01*
X157800Y206200*
X154062Y212800D02*
Y216500D01*
X154100*
X152094Y212800D02*
Y209100D01*
X152100*
X194272Y158125D02*
X195800Y159700D01*
X194272Y151826D02*
X195900Y150300D01*
X178524Y145527D02*
X180100Y144000D01*
X234900Y159400D02*
X233150Y161150D01*
Y164800*
X235650Y167300*
X222800Y145900D02*
X223950Y144434D01*
X221500Y188100D02*
Y184603D01*
X225103Y181000*
X232429*
X235650Y177779*
Y167300*
G54D12*
X104750Y133258D02*
X108708Y129300D01*
X110212*
X111012Y128500*
X119275*
X120616Y127159*
Y120091*
X104750Y133258D02*
Y159742D01*
X111108Y166100*
X112500*
X103085Y133508D02*
X108294Y128300D01*
X109798*
X116782Y121316*
Y120091*
X103085Y133508D02*
Y176785D01*
X103735Y177435*
X104835*
X114600Y103100D02*
X114593Y103107D01*
X116776Y105289*
X106800Y103600D02*
X109709Y106509D01*
X114710*
X117200Y103000D02*
X118647Y105633D01*
Y106509*
X118600Y126700D02*
X118647Y126653D01*
Y120091*
X119900Y103000D02*
X120315Y105085D01*
Y106509*
X120616*
X108200Y126300D02*
X109624D01*
X114710Y121213*
Y120091*
X104100Y108700D02*
X105747Y110347D01*
X112840*
X116679Y120091D02*
X116782D01*
X122584D02*
Y126784D01*
X122600Y126800*
X124553Y120091D02*
Y126153D01*
X125300Y126900*
X126521Y120091D02*
Y125421D01*
X127900Y126800*
X128490Y120091D02*
Y124890D01*
X130500Y126900*
X130360Y116253D02*
X131482D01*
X135329Y120100*
X140000*
X128490Y106509D02*
Y105399D01*
X130700Y103100*
X126521Y106509D02*
Y105577D01*
X128100Y103000*
X124553Y106509D02*
Y106236D01*
X125400Y103000*
X122584Y106509D02*
Y103000D01*
X122800*
X116679Y106509D02*
X116776D01*
Y105289*
X107702Y132502D02*
X109100Y131100D01*
X107702Y135651D02*
X109200Y137100D01*
X110851Y132502D02*
X113753Y129600D01*
X126200*
X127100Y128700*
X149099*
X153328Y132928*
X110851Y135651D02*
X112300Y137100D01*
X110851Y138801D02*
X110900Y140800D01*
X114001Y132502D02*
X115702Y130800D01*
X126700*
X127800Y129700*
X146950*
X150178Y132928*
X114001Y135651D02*
X115400Y137100D01*
X117150Y132502D02*
X118600Y134000D01*
X117150Y135651D02*
X118600Y137100D01*
X117150Y138801D02*
X117200Y140900D01*
X120300Y132502D02*
X121800Y134000D01*
X120300Y135651D02*
X121700Y137100D01*
X120300Y138801D02*
Y140900D01*
X123450Y132502D02*
X125000Y134000D01*
X123450Y135651D02*
X125000Y137200D01*
X126599Y132502D02*
X128401Y130700D01*
X139184*
X142984Y134500*
X148600*
X150178Y136078*
X126599Y135651D02*
X128000Y137100D01*
X126599Y138801D02*
X126600Y140900D01*
X129749Y132502D02*
X131347Y134100D01*
X137745*
X139723Y136078*
X147028*
X129749Y135651D02*
X131298Y137200D01*
X137695*
X139723Y139228*
X147028*
X132898Y132502D02*
X135100Y132300D01*
X132898Y135651D02*
X137674D01*
X139723Y137700*
X148650*
X150178Y139228*
X132898Y138801D02*
X132900Y140800D01*
X158018Y134470D02*
X159627Y136078D01*
X187379Y105345D02*
Y107279D01*
X187546*
X187379Y105345D02*
X189500Y103224D01*
Y102800*
X191955Y102955D02*
X189360Y105550D01*
Y107279*
X189514*
X149700Y103000D02*
X149691Y103009D01*
X152250Y105568*
X195420Y107279D02*
X195279D01*
Y105563*
X196542Y104300*
X209369*
X212226Y107157*
X193451Y107279D02*
X193279D01*
Y105532*
X195511Y103300*
X210337*
X214194Y107157*
X191483Y107279D02*
X191346D01*
Y105568*
X194614Y102300*
X211306*
X216163Y107157*
X191800Y102800D02*
X191955Y102955D01*
X217900Y102800D02*
X218016D01*
Y107157*
X218131*
X161800Y102800D02*
X161955D01*
Y107279*
X159600Y102800D02*
X159646Y105364D01*
Y107279*
X159987*
X151753Y134503D02*
X153328Y136078D01*
X158052Y137653D02*
X159627Y139228D01*
X152100Y117200D02*
X152113D01*
Y121059*
X195400Y117100D02*
X195420D01*
Y121059*
X151753Y137653D02*
X153328Y139228D01*
X161202Y137653D02*
X162776Y139228D01*
X150100Y125000D02*
X150144D01*
Y121059*
X164351Y137653D02*
X165926Y139228D01*
X170650Y137653D02*
X172225Y139228D01*
X178500Y130900D02*
X178524Y132928D01*
X145454Y131354D02*
X147028Y132928D01*
X167501Y134503D02*
X169076Y136078D01*
X161202Y134503D02*
X162776Y136078D01*
X163900Y102800D02*
X163924D01*
Y107279*
X168200Y102800D02*
X168201D01*
X192400Y111200D02*
X195700Y114500D01*
X202915*
X210257Y107157*
X197388Y121059D02*
Y124900D01*
X197400*
X189514Y121059D02*
Y122195D01*
X185577Y107279D02*
Y106045D01*
X187200Y102800*
X183609Y107279D02*
Y106195D01*
X185000Y102800*
X181640Y107279D02*
Y106314D01*
X182900Y102800*
X181640Y121059D02*
Y132895D01*
X181674Y132928*
X179672Y107279D02*
Y106472D01*
X180800Y102800*
X179672Y121059D02*
X180100Y121487D01*
X177703Y107279D02*
Y106694D01*
X178700Y102800*
X175735Y107279D02*
Y107028D01*
X176600Y102800*
X173766Y107279D02*
X174107D01*
Y105364*
X174500Y102800*
X173766Y121059D02*
Y124800D01*
X173800*
X171798Y107279D02*
X172138D01*
Y105364*
X172400Y102800*
X171798Y121059D02*
Y132501D01*
X172225Y132928*
X169829Y107279D02*
X170170D01*
Y105364*
X170300Y102800*
X169829Y121059D02*
Y130929D01*
X170600Y131700*
Y134453*
X172225Y136078*
X167861Y107279D02*
X168201D01*
Y102800*
X167861Y121059D02*
Y131714D01*
X169076Y132928*
X165892Y107279D02*
Y102800D01*
X166000*
X165892Y121059D02*
Y132895D01*
X165926Y132928*
X163924Y121059D02*
Y126903D01*
X164400Y127379*
Y134552*
X165926Y136078*
X161955Y121059D02*
Y125000D01*
X162000*
X158018Y121059D02*
Y134470D01*
X156050Y121059D02*
Y132501D01*
X156477Y132928*
X154081Y121059D02*
Y123181D01*
X154800Y123900*
Y134401*
X156477Y136078*
X152113Y107279D02*
X152250D01*
Y105568*
X210257Y115031D02*
X212226D01*
X210257Y113063D02*
X212226D01*
X210257Y111094D02*
X212226D01*
X210257Y109126D02*
X212226D01*
X175375Y139228D02*
X176950Y137653D01*
X181674Y139228D02*
X183249Y137653D01*
X184824Y139228D02*
X186400Y137700D01*
X187973Y139228D02*
X189500Y137800D01*
X191123Y139228D02*
X192600Y137700D01*
X194272Y139228D02*
X195700Y137800D01*
X197422Y139228D02*
X199000Y137650D01*
Y132194*
X210257Y120937*
X200572Y139228D02*
X201862Y137937D01*
X202955*
X206500Y134392*
Y126663*
X210257Y122906*
X175375Y136078D02*
X176900Y134553D01*
Y129500*
X177703Y128697*
Y121059*
X178524Y136078D02*
X180100Y134502D01*
Y121487*
X181674Y136078D02*
X183200Y134552D01*
Y121467*
X183609Y121059*
X184824Y136078D02*
X186398Y134503D01*
X187973Y136078D02*
X189500Y134551D01*
Y130680*
X193380Y126800*
X197975*
X200000Y124775*
Y119383*
X210257Y109126*
X191123Y136078D02*
X192600Y134601D01*
Y130408*
X193808Y129200*
X198403*
X204800Y122803*
Y118520*
X210257Y113063*
X194272Y136078D02*
X195800Y134550D01*
Y132543*
X197443Y130900*
X198118*
X207400Y121618*
Y117889*
X210257Y115031*
X200572Y136078D02*
X202600Y136100D01*
X159627Y132928D02*
X159987Y132568D01*
Y121059*
X162776Y132928D02*
X162800Y130900D01*
X175375Y132928D02*
X175735Y132568D01*
Y121059*
X191123Y132928D02*
Y130471D01*
X193594Y128000*
X198189*
X201900Y124289*
Y119452*
X210257Y111094*
X194272Y132928D02*
X194300Y130900D01*
X200572Y132928D02*
X202146Y131354D01*
X220000Y129600D02*
X222069Y126843D01*
X224000Y129100D02*
X226006Y126843D01*
X222300Y130500D02*
Y128580D01*
X224037Y126843*
X220000Y102800D02*
X220050D01*
Y107157*
X220100*
X229943Y126843D02*
X230300Y128900D01*
X229943Y124874D02*
X233100Y125500D01*
X229943Y122906D02*
X230337Y123300D01*
X235200*
Y123500*
X229943Y120937D02*
X230406Y121400D01*
X235200*
X229943Y118969D02*
X230274Y119300D01*
X235200*
X229943Y117000D02*
X230143Y117200D01*
X235200*
X229943Y115031D02*
X230011Y115100D01*
X235200*
X229943Y113063D02*
X230006Y113000D01*
X235200*
X229943Y111094D02*
X230237Y110800D01*
X235200*
X229943Y109126D02*
X230369Y108700D01*
X235200*
X222069Y107157D02*
X222084D01*
Y102800*
X222100*
X224037Y107157D02*
X225200Y105994D01*
Y102800*
X226153Y107157D02*
X226006D01*
X228200Y104963*
Y102800*
X227974Y107157D02*
X230731Y104400D01*
X231100Y102800*
X229943Y107157D02*
X230500Y106600D01*
X235100*
X104835Y177435D02*
X108500Y181100D01*
X114000Y140800D02*
X114001Y138801D01*
X107700Y140800D02*
X107702Y138801D01*
X123400Y149300D02*
X123450Y151399D01*
X123400Y140800D02*
X123450Y138801D01*
X129700Y140800D02*
X129749Y138801D01*
X106300Y159100D02*
X107702Y157698D01*
X120300Y149400D02*
Y151399D01*
X107702D02*
X109200Y152900D01*
X107702Y154549D02*
X109200Y156000D01*
X110851Y151399D02*
X112400Y152900D01*
X110851Y154549D02*
X112300Y156000D01*
X110851Y157698D02*
X119153Y166000D01*
X151752*
X153328Y164424*
X114001Y151399D02*
X115700Y152900D01*
X114001Y154549D02*
X115500Y156000D01*
X114001Y157698D02*
X120902Y164600D01*
X139461*
X141261Y162800*
X148554*
X150178Y164424*
X117150Y151399D02*
Y148943D01*
X122594Y143500*
X135339*
X136462Y142377*
X147028*
X117150Y154549D02*
X118700Y152999D01*
Y148808*
X121981Y145527*
X147028*
X117150Y157698D02*
X123052Y163600D01*
X137232*
X139558Y161275*
X147028*
X120300Y154549D02*
X121800Y153000D01*
X120300Y157698D02*
Y158000D01*
X124900Y162600*
X135004*
X139479Y158125*
X147028*
X123450Y154549D02*
X125000Y152998D01*
Y148808*
X126808Y147000*
X148502*
X150178Y148676*
X123450Y157698D02*
X124900Y159100D01*
X126599Y151399D02*
X126600Y149400D01*
X126599Y154549D02*
X128200Y152948D01*
Y150708*
X130608Y148300*
X138900*
X141000Y150400*
X148752*
X150178Y151826*
X126599Y157698D02*
X128000Y159100D01*
X129749Y151399D02*
X131200Y149900D01*
X129749Y154549D02*
X131298Y153000D01*
X139491*
X140665Y151826*
X147028*
X129749Y157698D02*
X131051Y159001D01*
Y160343*
X132308Y161600*
X134041*
X140665Y154976*
X147028*
X132898Y151399D02*
X135300Y150400D01*
X132898Y154549D02*
X139516D01*
X140665Y153400*
X148602*
X150178Y154976*
X132898Y157698D02*
X132900Y160000D01*
X162776Y183322D02*
X161250Y184848D01*
Y194950*
X161936Y195636*
Y199020*
X157750Y187550D02*
Y194429D01*
X160121Y196800*
Y199020*
X157750Y187550D02*
X158100Y187200D01*
Y184849*
X159627Y183322*
X165926D02*
X164507Y184741D01*
Y189896*
X164750Y190139*
Y194653*
X165873Y195776*
Y199020*
X155058Y196158D02*
Y184741D01*
X156477Y183322*
X155058Y196158D02*
X156031Y197131D01*
Y199020*
X148759Y197653D02*
Y184741D01*
X150178Y183322*
X148759Y197653D02*
X150125Y199020D01*
X206100Y148325D02*
Y167448D01*
X207500Y168848*
Y171200*
X207700*
X206100Y148325D02*
X222225Y132200D01*
X222986*
X224486Y130700*
X232525*
X233800Y131975*
Y134400*
X158200Y165900D02*
X159627Y164424D01*
X151753Y153401D02*
X153328Y154976D01*
X154902Y150251D02*
X156477Y151826D01*
X158052Y150251D02*
X159627Y151826D01*
X151753Y147102D02*
X153328Y148676D01*
X158052Y147102D02*
X159627Y148676D01*
X151753Y143952D02*
X153328Y145527D01*
X183400Y181600D02*
X184824Y180172D01*
X183400Y184700D02*
X184824Y183322D01*
X145000Y148700D02*
X147028Y148676D01*
X154902Y143952D02*
X156477Y145527D01*
X151753Y150251D02*
X153328Y151826D01*
X154902Y162850D02*
X156477Y161275D01*
X154902Y169149D02*
X156477Y167574D01*
X151753Y169149D02*
X153328Y167574D01*
X164351Y147102D02*
X165926Y148676D01*
X167501Y147102D02*
X169076Y148676D01*
X170650Y147102D02*
X172225Y148676D01*
X158052Y143952D02*
X159627Y145527D01*
X164351Y143952D02*
X165926Y145527D01*
X167501Y143952D02*
X169076Y145527D01*
X151753Y140802D02*
X153328Y142377D01*
X161202Y140802D02*
X162776Y142377D01*
X170650Y140802D02*
X172225Y142377D01*
X151753Y156550D02*
X153328Y158125D01*
X154902Y156550D02*
X156477Y158125D01*
X158052Y156550D02*
X159627Y158125D01*
X161202Y156550D02*
X162776Y158125D01*
X161202Y153401D02*
X162776Y154976D01*
X161202Y150251D02*
X162776Y151826D01*
X167800Y209100D02*
X167842D01*
Y212800*
X164351Y181747D02*
X165926Y180172D01*
X173700Y216700D02*
X173747D01*
Y212800*
X187500Y193200D02*
X187527D01*
Y199020*
X169800Y216800D02*
X169810D01*
Y212800*
X167501Y181747D02*
X169076Y180172D01*
X175700Y209000D02*
X175716D01*
Y212800*
X167501Y178598D02*
X169076Y177023D01*
X173700Y195300D02*
X173747D01*
Y199020*
X169800Y195300D02*
X169810D01*
Y199020*
X170650Y175448D02*
X172225Y173873D01*
X170650Y150251D02*
X172225Y151826D01*
X164351Y150251D02*
X165926Y151826D01*
X167501Y153401D02*
X169076Y154976D01*
X170650Y156550D02*
X172225Y158125D01*
X164351Y156550D02*
X165926Y158125D01*
X167501Y162850D02*
X169076Y161275D01*
X170650Y165999D02*
X172225Y164424D01*
X164351Y165999D02*
X165926Y164424D01*
X167501Y169149D02*
X169076Y167574D01*
X161202Y143952D02*
X162776Y145527D01*
X154902Y153401D02*
X156477Y154976D01*
X158100Y162800D02*
X159627Y161275D01*
X158052Y140802D02*
X159627Y142377D01*
X154902Y147102D02*
X156477Y148676D01*
X158052Y178598D02*
X159627Y177023D01*
X170650Y181747D02*
X172225Y180172D01*
X175300Y189000D02*
X175375Y186472D01*
X145000Y180200D02*
X147028Y180172D01*
X164351Y178598D02*
X165926Y177023D01*
X154902Y178598D02*
X156477Y177023D01*
X167501Y184897D02*
X169076Y183322D01*
X151753Y184897D02*
X153328Y183322D01*
X213600Y179700D02*
X218021D01*
Y179737*
X184800Y188500D02*
X184824Y186472D01*
X213400Y177200D02*
X218021D01*
Y177178*
X145000Y164400D02*
X147028Y164424D01*
X191100Y188500D02*
X191123Y186472D01*
X187900Y188500D02*
X187973Y186472D01*
X164351Y140802D02*
X165926Y142377D01*
X154902Y140802D02*
X156477Y142377D01*
X148603Y140802D02*
X150178Y142377D01*
X170650Y143952D02*
X172225Y145527D01*
X148603Y143952D02*
X150178Y145527D01*
X161202Y147102D02*
X162776Y148676D01*
X167501Y150251D02*
X169076Y151826D01*
X170650Y153401D02*
X172225Y154976D01*
X164351Y153401D02*
X165926Y154976D01*
X158052Y153401D02*
X159627Y154976D01*
X167501Y156550D02*
X169076Y158125D01*
X148603Y156550D02*
X150178Y158125D01*
X170650Y162850D02*
X172225Y161275D01*
X164351Y162850D02*
X165926Y161275D01*
X167501Y165999D02*
X169076Y164424D01*
X164351Y169149D02*
X165926Y167574D01*
X148603Y169149D02*
X150178Y167574D01*
X164351Y175448D02*
X165926Y173873D01*
X148603Y175448D02*
X150178Y173873D01*
X170650Y178598D02*
X172225Y177023D01*
X161202Y181747D02*
X162776Y180172D01*
X170650Y184897D02*
X172225Y183322D01*
X145454Y188046D02*
X147028Y186472D01*
X202700Y156400D02*
X204500Y154600D01*
Y148269*
X218100Y134669*
Y128843*
X220100Y126843*
X191464Y199020D02*
Y192545D01*
X192650Y191359*
Y184849*
X185558Y199020D02*
Y191300D01*
X186350Y190509*
Y181796*
X187973Y180172*
X183590Y199020D02*
Y189710D01*
X184800Y188500*
X181621Y199020D02*
X181674Y198967D01*
Y186472*
X179653Y199020D02*
X179944Y198729D01*
X177684Y199020D02*
Y192916D01*
X178524Y192076*
Y186472*
X175716Y199020D02*
Y193184D01*
X176850Y192050*
Y184797*
X171779Y199020D02*
Y186918D01*
X172225Y186472*
X171779Y212800D02*
Y209000D01*
X171800*
X167842Y199020D02*
Y194809D01*
X168250Y194401*
X159968Y199020D02*
X160121D01*
X150178Y186472D02*
Y191040D01*
X152094Y192956*
Y199020*
X153328Y186472D02*
Y191801D01*
X153722Y192195*
Y199020*
X154062*
X156477Y186472D02*
Y194576D01*
X157999Y196099*
Y199020*
X159627Y186472D02*
X159700Y188500D01*
X165926Y186472D02*
X167240Y187785D01*
Y190348*
X168250Y191359*
Y194401*
X169076Y186472D02*
X169100Y188500D01*
X200572Y186472D02*
X202100Y188000D01*
X175375Y183322D02*
X176850Y184797D01*
X178524Y183322D02*
X179944Y184741D01*
Y198729*
X187973Y183322D02*
X189495Y184844D01*
Y199020*
X191123Y183322D02*
X192650Y184849D01*
X200572Y183322D02*
X202600Y183300D01*
X175375Y180172D02*
X176950Y181747D01*
X178524Y180172D02*
X180099Y181747D01*
X187973Y180172D02*
X189400Y181600D01*
X191123Y180172D02*
X192698Y181747D01*
X194272Y180172D02*
X195847Y181747D01*
X175375Y177023D02*
X176950Y178598D01*
X178524Y177023D02*
X180099Y178598D01*
X181674Y177023D02*
X183249Y178598D01*
X184824Y177023D02*
X186398Y178598D01*
X187973Y177023D02*
X189548Y178598D01*
X175375Y173873D02*
X176950Y175448D01*
X181674Y173873D02*
X183249Y175448D01*
X184824Y173873D02*
X186398Y175448D01*
X187973Y173873D02*
X189548Y175448D01*
X197422Y173873D02*
X198800Y175300D01*
X156477Y170724D02*
X157900Y169300D01*
X159627Y170724D02*
X161100Y169300D01*
X175375Y170724D02*
X176950Y172298D01*
X184824Y170724D02*
X186398Y172298D01*
X187973Y170724D02*
X189548Y172298D01*
X191123Y170724D02*
X192698Y172298D01*
X200572Y170724D02*
X202600Y170700D01*
X175375Y167574D02*
X176950Y169149D01*
X184824Y167574D02*
X186398Y169149D01*
X200572Y167574D02*
X202600Y167500D01*
X175375Y164424D02*
X176950Y165999D01*
X178524Y164424D02*
X180099Y165999D01*
X181674Y164424D02*
X183000Y166000D01*
X184824Y164424D02*
X186398Y165999D01*
X187973Y164424D02*
X189500Y166000D01*
X194272Y164424D02*
X195700Y165900D01*
X175375Y161275D02*
X176950Y162850D01*
X178524Y161275D02*
X180099Y162850D01*
X181674Y161275D02*
X183249Y162850D01*
X184824Y161275D02*
X186200Y162700D01*
X187973Y161275D02*
X189548Y162850D01*
X191123Y161275D02*
X192700Y162900D01*
X175375Y158125D02*
X176950Y156550D01*
X178524Y158125D02*
X180099Y156550D01*
X181674Y158125D02*
X183249Y156550D01*
X184824Y158125D02*
X186300Y156600D01*
X187973Y158125D02*
X189500Y156700D01*
X191123Y158125D02*
X192600Y156600D01*
X197422Y158125D02*
X198900Y156600D01*
X175375Y154976D02*
X176950Y153401D01*
X178524Y154976D02*
X180099Y153401D01*
X181674Y154976D02*
X183249Y153401D01*
X184824Y154976D02*
X186398Y153401D01*
X187973Y154976D02*
X189548Y153401D01*
X191123Y154976D02*
X192600Y153400D01*
X194272Y154976D02*
X195847Y153401D01*
X175375Y151826D02*
X176950Y150251D01*
X178524Y151826D02*
X180099Y150251D01*
X181674Y151826D02*
X183249Y150251D01*
X184824Y151826D02*
X186400Y150200D01*
X187973Y151826D02*
X189548Y150251D01*
X191123Y151826D02*
X192698Y150251D01*
X197422Y151826D02*
X198948Y150300D01*
X200955*
X216000Y135255*
Y128974*
X218131Y126843*
X200572Y151826D02*
X202600Y151900D01*
X178524Y148676D02*
X180099Y147102D01*
X187973Y148676D02*
X189548Y147102D01*
X194272Y148676D02*
X195847Y147102D01*
X197422Y148676D02*
X198998Y147100D01*
X201006*
X214000Y134106*
Y126843*
X214194*
X200572Y148676D02*
X200708Y148812D01*
X215000Y134520*
Y128006*
X216163Y126843*
X181674Y145527D02*
X183249Y143952D01*
X184824Y145527D02*
X186398Y143952D01*
X187973Y145527D02*
X189548Y143952D01*
X191123Y145527D02*
X192698Y143952D01*
X194272Y145527D02*
X195847Y143952D01*
X197422Y145527D02*
X198949Y144000D01*
X200956*
X210257Y134699*
Y126843*
X200572Y145527D02*
X200708Y145663D01*
X212226Y134144*
Y126843*
X175375Y142377D02*
X177000Y140600D01*
X178524Y142377D02*
X180100Y140800D01*
X181674Y142377D02*
X183249Y140802D01*
X184824Y142377D02*
X186398Y140802D01*
X187973Y142377D02*
X189548Y140802D01*
X191123Y142377D02*
X192700Y140800D01*
X194272Y142377D02*
X195847Y140802D01*
X197422Y142377D02*
X198997Y140802D01*
X200572Y142377D02*
X207900Y135049D01*
Y127231*
X210257Y124874*
G54D13*
X187546Y121059D02*
Y119822D01*
X188100Y117200*
X106100Y200700D02*
Y205600D01*
Y194500D02*
X107100D01*
Y193100*
X107500Y190200*
X189200Y203400D02*
X189386Y203214D01*
X193432Y207261*
Y212800*
X189200Y205900D02*
X191464Y208164D01*
Y212800*
X163000Y193700D02*
X163905Y197761D01*
Y199020*
X100000Y100000D02*
X238000D01*
Y220000*
X100000*
Y100000*
G54D22*
X129435Y200620D02*
Y192291D01*
X131665Y191075*
Y190780*
X129435Y200620D02*
X132820D01*
X135100Y202900*
X138100*
Y205000*
X106100Y200700D02*
Y201100D01*
X113700*
X119600*
X121700Y199000*
G54D81*
X106100Y194500D03*
Y200700D03*
G54D84*
X200572Y132928D03*
X197422D03*
X194272D03*
X191123D03*
X187973D03*
X184824D03*
X181674D03*
X178524D03*
X175375D03*
X172225D03*
X169076D03*
X165926D03*
X162776D03*
X159627D03*
X156477D03*
X153328D03*
X150178D03*
X147028D03*
X200572Y136078D03*
X197422D03*
X194272D03*
X191123D03*
X187973D03*
X184824D03*
X181674D03*
X178524D03*
X175375D03*
X172225D03*
X169076D03*
X165926D03*
X162776D03*
X159627D03*
X156477D03*
X153328D03*
X150178D03*
X147028D03*
X200572Y139228D03*
X197422D03*
X194272D03*
X191123D03*
X187973D03*
X184824D03*
X181674D03*
X178524D03*
X175375D03*
X172225D03*
X169076D03*
X165926D03*
X162776D03*
X159627D03*
X156477D03*
X153328D03*
X150178D03*
X147028D03*
X200572Y142377D03*
X197422D03*
X194272D03*
X191123D03*
X187973D03*
X184824D03*
X181674D03*
X178524D03*
X175375D03*
X172225D03*
X169076D03*
X165926D03*
X162776D03*
X159627D03*
X156477D03*
X153328D03*
X150178D03*
X147028D03*
X200572Y145527D03*
X197422D03*
X194272D03*
X191123D03*
X187973D03*
X184824D03*
X181674D03*
X178524D03*
X175375D03*
X172225D03*
X169076D03*
X165926D03*
X162776D03*
X159627D03*
X156477D03*
X153328D03*
X150178D03*
X147028D03*
X200572Y148676D03*
X197422D03*
X194272D03*
X191123D03*
X187973D03*
X184824D03*
X181674D03*
X178524D03*
X175375D03*
X172225D03*
X169076D03*
X165926D03*
X162776D03*
X159627D03*
X156477D03*
X153328D03*
X150178D03*
X147028D03*
X200572Y151826D03*
X197422D03*
X194272D03*
X191123D03*
X187973D03*
X184824D03*
X181674D03*
X178524D03*
X175375D03*
X172225D03*
X169076D03*
X165926D03*
X162776D03*
X159627D03*
X156477D03*
X153328D03*
X150178D03*
X147028D03*
X200572Y154976D03*
X197422D03*
X194272D03*
X191123D03*
X187973D03*
X184824D03*
X181674D03*
X178524D03*
X175375D03*
X172225D03*
X169076D03*
X165926D03*
X162776D03*
X159627D03*
X156477D03*
X153328D03*
X150178D03*
X147028D03*
X200572Y158125D03*
X197422D03*
X194272D03*
X191123D03*
X187973D03*
X184824D03*
X181674D03*
X178524D03*
X175375D03*
X172225D03*
X169076D03*
X165926D03*
X162776D03*
X159627D03*
X156477D03*
X153328D03*
X150178D03*
X147028D03*
X200572Y161275D03*
X197422D03*
X194272D03*
X191123D03*
X187973D03*
X184824D03*
X181674D03*
X178524D03*
X175375D03*
X172225D03*
X169076D03*
X165926D03*
X162776D03*
X159627D03*
X156477D03*
X153328D03*
X150178D03*
X147028D03*
X200572Y164424D03*
X197422D03*
X194272D03*
X191123D03*
X187973D03*
X184824D03*
X181674D03*
X178524D03*
X175375D03*
X172225D03*
X169076D03*
X165926D03*
X162776D03*
X159627D03*
X156477D03*
X153328D03*
X150178D03*
X147028D03*
X200572Y167574D03*
X197422D03*
X194272D03*
X191123D03*
X187973D03*
X184824D03*
X181674D03*
X178524D03*
X175375D03*
X172225D03*
X169076D03*
X165926D03*
X162776D03*
X159627D03*
X156477D03*
X153328D03*
X150178D03*
X147028D03*
X200572Y170724D03*
X197422D03*
X194272D03*
X191123D03*
X187973D03*
X184824D03*
X181674D03*
X178524D03*
X175375D03*
X172225D03*
X169076D03*
X165926D03*
X162776D03*
X159627D03*
X156477D03*
X153328D03*
X150178D03*
X147028D03*
X200572Y173873D03*
X197422D03*
X194272D03*
X191123D03*
X187973D03*
X184824D03*
X181674D03*
X178524D03*
X175375D03*
X172225D03*
X169076D03*
X165926D03*
X162776D03*
X159627D03*
X156477D03*
X153328D03*
X150178D03*
X147028D03*
X200572Y177023D03*
X197422D03*
X194272D03*
X191123D03*
X187973D03*
X184824D03*
X181674D03*
X178524D03*
X175375D03*
X172225D03*
X169076D03*
X165926D03*
X162776D03*
X159627D03*
X156477D03*
X153328D03*
X150178D03*
X147028D03*
X200572Y180172D03*
X197422D03*
X194272D03*
X191123D03*
X187973D03*
X184824D03*
X181674D03*
X178524D03*
X175375D03*
X172225D03*
X169076D03*
X165926D03*
X162776D03*
X159627D03*
X156477D03*
X153328D03*
X150178D03*
X147028D03*
X200572Y183322D03*
X197422D03*
X194272D03*
X191123D03*
X187973D03*
X184824D03*
X181674D03*
X178524D03*
X175375D03*
X172225D03*
X169076D03*
X165926D03*
X162776D03*
X159627D03*
X156477D03*
X153328D03*
X150178D03*
X147028D03*
X200572Y186472D03*
X197422D03*
X194272D03*
X191123D03*
X187973D03*
X184824D03*
X181674D03*
X178524D03*
X175375D03*
X172225D03*
X169076D03*
X165926D03*
X162776D03*
X159627D03*
X156477D03*
X153328D03*
X150178D03*
X147028D03*
X132898Y157698D03*
Y154549D03*
Y151399D03*
Y138801D03*
Y135651D03*
Y132502D03*
X129749Y157698D03*
Y154549D03*
Y151399D03*
Y138801D03*
Y135651D03*
Y132502D03*
X126599Y157698D03*
Y154549D03*
Y151399D03*
Y138801D03*
Y135651D03*
Y132502D03*
X123450Y157698D03*
Y154549D03*
Y151399D03*
Y138801D03*
Y135651D03*
Y132502D03*
X120300Y157698D03*
Y154549D03*
Y151399D03*
Y138801D03*
Y135651D03*
Y132502D03*
X117150Y157698D03*
Y154549D03*
Y151399D03*
Y138801D03*
Y135651D03*
Y132502D03*
X114001Y157698D03*
Y154549D03*
Y151399D03*
Y138801D03*
Y135651D03*
Y132502D03*
X110851Y157698D03*
Y154549D03*
Y151399D03*
Y138801D03*
Y135651D03*
Y132502D03*
X107702Y157698D03*
Y154549D03*
Y151399D03*
Y138801D03*
Y135651D03*
Y132502D03*
G54D121*
X229943Y107157D03*
X227974D03*
X226006D03*
X222069D03*
X220100D03*
X218131D03*
X216163D03*
X214194D03*
X212226D03*
X210257D03*
X229943Y109126D03*
X210257D03*
X229943Y111094D03*
X210257D03*
X229943Y113063D03*
X210257D03*
X229943Y115031D03*
X210257D03*
X229943Y117000D03*
X210257D03*
X229943Y118969D03*
X210257D03*
X229943Y120937D03*
X210257D03*
X229943Y122906D03*
X210257D03*
X229943Y124874D03*
X210257D03*
X229943Y126843D03*
X227974D03*
X226006D03*
X224037D03*
X222069D03*
X220100D03*
X218131D03*
X216163D03*
X214194D03*
X212226D03*
X210257D03*
G54D128*
X106800Y103600D03*
X117200Y103000D03*
X122800D03*
X128100D03*
X127900Y126800D03*
X118600Y126700D03*
X122600Y126800D03*
X125400Y103000D03*
X114600Y103100D03*
X130700D03*
X104000Y111800D03*
X135900Y126100D03*
Y104100D03*
X125300Y126900D03*
X130500D03*
X104100Y116800D03*
X104000Y123200D03*
X119900Y103000D03*
X108200Y126300D03*
X104100Y108700D03*
X104000Y119600D03*
X160900Y111800D03*
X188100Y117200D03*
X140200Y112400D03*
X197400Y124900D03*
X151800Y111400D03*
X142600Y116800D03*
X218400Y138800D03*
X152100Y117200D03*
X195400Y117100D03*
X150100Y125000D03*
X140100Y123400D03*
X149700Y103000D03*
X147200D03*
X190800Y125200D03*
X188200D03*
X197100Y111300D03*
X145600Y110400D03*
X193500Y124800D03*
X179700Y113700D03*
X157300Y103000D03*
X176700Y117400D03*
X185600Y124800D03*
X160000Y117100D03*
X173800Y124800D03*
X162000Y125000D03*
X157400Y111800D03*
X154700Y103000D03*
X152200D03*
X172700Y117300D03*
X140000Y120100D03*
X233800Y134400D03*
X222100Y137700D03*
X222500Y134400D03*
X233800Y137400D03*
X130600Y213800D03*
X108500Y181100D03*
X125400Y169700D03*
X136700Y168000D03*
X119500Y169700D03*
X107500Y190200D03*
X110100Y174500D03*
X106100Y205600D03*
X108800Y176800D03*
X138100Y210800D03*
X135500D03*
X132800D03*
X139100Y195200D03*
X136500D03*
X133700D03*
X121500Y194500D03*
X130900Y175200D03*
X132600Y177100D03*
X130900Y179100D03*
X110100Y183100D03*
Y179100D03*
X117500Y168000D03*
X112500Y166100D03*
X118700Y213000D03*
X129000Y171700D03*
X110500Y160700D03*
X106400Y166100D03*
X104500Y189300D03*
X109200Y205500D03*
X106600Y211100D03*
X106200Y216200D03*
X124900Y213500D03*
X133000Y215100D03*
X117700Y177100D03*
X123400D03*
X123800Y183200D03*
X117400D03*
X113300Y172600D03*
X128000Y187600D03*
X113000D03*
X120500Y180100D03*
X121500Y168100D03*
X118600Y216500D03*
X138500Y200000D03*
X138100Y205000D03*
X160000Y209100D03*
X161100Y205400D03*
X158000Y216500D03*
X166200Y205400D03*
X161000Y202800D03*
X168600D03*
X207700Y171200D03*
X167800Y209100D03*
X173700Y216700D03*
X187500Y193200D03*
X169800Y216800D03*
X175700Y209000D03*
X171800D03*
X173700Y195300D03*
X169800D03*
X189200Y203400D03*
Y205900D03*
X183900Y203300D03*
Y205900D03*
X195900Y193300D03*
X163000Y193700D03*
X166500Y193600D03*
X159500Y193700D03*
X219600Y143300D03*
X140800Y210800D03*
X163800Y209000D03*
X144600Y195200D03*
X161900Y216500D03*
X141900Y195200D03*
X152100Y209100D03*
X150100Y216500D03*
X202500Y214600D03*
X187500Y209000D03*
X213700Y174600D03*
X218800Y185600D03*
X185600Y216600D03*
X212900Y155900D03*
X213600Y179700D03*
X213400Y177200D03*
X183600Y209000D03*
X212200Y153400D03*
X179700Y208900D03*
X211600Y148200D03*
X177700Y216800D03*
X211800Y145700D03*
X203500Y164800D03*
X181600Y216700D03*
X211600Y150800D03*
X157800Y206200D03*
X154100Y216500D03*
X216200Y211400D03*
X147800Y200100D03*
X144300Y167800D03*
X205800Y185400D03*
X209500Y164200D03*
X218000Y169600D03*
X189500Y216900D03*
X193400Y195300D03*
X165900Y216500D03*
X219200Y196100D03*
X216100D03*
X216200Y198900D03*
X219200D03*
X147000Y214700D03*
X154200Y204200D03*
X180200Y204900D03*
X141800Y204400D03*
X234300Y149700D03*
X233800Y183100D03*
X231900Y140200D03*
X234900Y155500D03*
X224100Y214900D03*
X224000Y199400D03*
X229100Y212700D03*
X233800Y168400D03*
X223900Y171400D03*
X222800Y145900D03*
X235000Y163700D03*
X221500Y188100D03*
X234800Y152600D03*
X234900Y159400D03*
X234100Y188100D03*
X222100Y143100D03*
X220100Y211900D03*
X220300Y215300D03*
X233900Y145400D03*
X234200Y198500D03*
G54D150*
X125000Y134000D03*
X128000Y137100D03*
X118600Y134000D03*
Y137100D03*
X115400D03*
X121700D03*
X112300D03*
X121800Y134000D03*
X109200Y137100D03*
X125000Y137200D03*
X135100Y132300D03*
X109100Y131100D03*
X191800Y102800D03*
X217900D03*
X161800D03*
X159600D03*
X166000D03*
X174500D03*
X170300D03*
X189500D03*
X187200D03*
X185000D03*
X182900D03*
X180800D03*
X162800Y130900D03*
X186398Y134503D03*
X151753D03*
X189500Y137800D03*
X176950Y137653D03*
X158052D03*
X151753D03*
X161202D03*
X164351D03*
X170650D03*
X202146Y131354D03*
X186400Y137700D03*
X142200Y121100D03*
X152100Y127000D03*
X202600Y136100D03*
X178500Y130900D03*
X194300D03*
X145454Y131354D03*
X167501Y134503D03*
X161202D03*
X192600Y137700D03*
X183249Y137653D03*
X178700Y102800D03*
X163900D03*
X195700Y137800D03*
X176600Y102800D03*
X172400D03*
X168200D03*
X192400Y111200D03*
X235200Y121400D03*
Y119300D03*
Y117200D03*
X220000Y129600D03*
X224000Y129100D03*
X222300Y130500D03*
X235200Y108700D03*
Y113000D03*
X220000Y102800D03*
X222100D03*
X228200D03*
X231100D03*
X235100Y106600D03*
X235200Y123500D03*
X233100Y125500D03*
X225200Y102800D03*
X234200Y127900D03*
X235200Y110800D03*
Y115100D03*
X230300Y128900D03*
X115700Y152900D03*
X112300Y156000D03*
X114000Y140800D03*
X107700D03*
X112400Y152900D03*
X117200Y140900D03*
X110900Y140800D03*
X115500Y156000D03*
X124900Y159100D03*
X109200Y156000D03*
X128000Y159100D03*
X109200Y152900D03*
X131200Y149900D03*
X120300Y140900D03*
X126600D03*
X132900Y140800D03*
X123400Y149300D03*
X138400Y150600D03*
X136300Y140600D03*
X135300Y150400D03*
X132900Y160000D03*
X123400Y140800D03*
X129700D03*
X106300Y159100D03*
X126600Y149400D03*
X121800Y153000D03*
X120300Y149400D03*
X116100Y214600D03*
X195800Y159700D03*
X195900Y150300D03*
X158200Y165900D03*
X202100Y188000D03*
X180100Y144000D03*
X151753Y153401D03*
X154902Y150251D03*
X158052D03*
X151753Y147102D03*
X158052D03*
X151753Y143952D03*
X189500Y166000D03*
X186398Y175448D03*
X192600Y156600D03*
X189548Y175448D03*
X183400Y181600D03*
Y184700D03*
X192600Y153400D03*
X198900Y156600D03*
X195700Y165900D03*
X198800Y175300D03*
X145000Y148700D03*
X183249Y143952D03*
X154902D03*
X192698Y150251D03*
X151753D03*
X154902Y162850D03*
Y169149D03*
X151753D03*
X189548Y178598D03*
X186398Y172298D03*
X164351Y147102D03*
X167501D03*
X170650D03*
X158052Y143952D03*
X164351D03*
X167501D03*
X151753Y140802D03*
X161202D03*
X170650D03*
X177000Y140600D03*
X151753Y156550D03*
X154902D03*
X158052D03*
X161202D03*
Y153401D03*
Y150251D03*
X164351Y181747D03*
X176950D03*
X192698D03*
X167501D03*
X176950Y178598D03*
X167501D03*
X176950Y175448D03*
X170650D03*
X180099Y150251D03*
X170650D03*
X164351D03*
X183249Y153401D03*
X176950D03*
X167501D03*
X180099Y156550D03*
X170650D03*
X164351D03*
X183249Y162850D03*
X176950D03*
X167501D03*
X180099Y165999D03*
X170650D03*
X164351D03*
X167501Y169149D03*
X189500Y156700D03*
X192700Y162900D03*
X180100Y140800D03*
X161202Y143952D03*
X154902Y153401D03*
X158100Y162800D03*
X183249Y178598D03*
X157900Y169300D03*
X158052Y140802D03*
X186398Y143952D03*
X189548Y147102D03*
X154902D03*
X195847Y153401D03*
X189548Y172298D03*
X186398Y178598D03*
X158052D03*
X170650Y181747D03*
X175300Y189000D03*
X145000Y180200D03*
X180099Y178598D03*
X164351D03*
X154902D03*
X180099Y181747D03*
X167501Y184897D03*
X151753D03*
X192700Y140800D03*
X186400Y150200D03*
X186200Y162700D03*
X186398Y140802D03*
X184800Y188500D03*
X189400Y181600D03*
X186398Y165999D03*
X161100Y169300D03*
X145000Y164400D03*
X202600Y151900D03*
Y170700D03*
Y167500D03*
Y183300D03*
X191100Y188500D03*
X187900D03*
X169100D03*
X159700D03*
X198997Y140802D03*
X195847D03*
X189548D03*
X183249D03*
X164351D03*
X154902D03*
X148603D03*
X192698Y143952D03*
X189548D03*
X170650D03*
X148603D03*
X195847Y147102D03*
X180099D03*
X161202D03*
X189548Y150251D03*
X183249D03*
X176950D03*
X167501D03*
X189548Y153401D03*
X186398D03*
X180099D03*
X170650D03*
X164351D03*
X158052D03*
X186300Y156600D03*
X183249Y156550D03*
X176950D03*
X167501D03*
X148603D03*
X189548Y162850D03*
X180099D03*
X170650D03*
X164351D03*
X183000Y166000D03*
X176950Y165999D03*
X167501D03*
X186398Y169149D03*
X176950D03*
X164351D03*
X148603D03*
X192698Y172298D03*
X176950D03*
X183249Y175448D03*
X164351D03*
X148603D03*
X170650Y178598D03*
X195847Y181747D03*
X161202D03*
X170650Y184897D03*
X145454Y188046D03*
X195847Y143952D03*
X202700Y156400D03*
G54D172*
X121600Y113300D03*
G54D173*
X133620Y181765D03*
X137557D03*
X121780Y173435D03*
X117843D03*
X129020Y168665D03*
X132957D03*
X140880Y215035D03*
X136943D03*
X113680Y216135D03*
X109743D03*
G54D174*
X131665Y190780D03*
Y186843D03*
X113635Y178220D03*
Y182157D03*
X119465Y191580D03*
Y187643D03*
X124335Y187520D03*
Y191457D03*
X137665Y191280D03*
Y187343D03*
X136235Y172920D03*
Y176857D03*
X129435Y200620D03*
Y204557D03*
X104835Y172020D03*
Y175957D03*
G54D175*
X121700Y199000D03*
Y208000D03*
X113700Y201100D03*
Y210100D03*
G54D176*
X112840Y110347D03*
X130360D03*
Y116253D03*
X112840D03*
G54D177*
X114710Y106509D03*
X116679D03*
X118647D03*
X120616D03*
X122584D03*
X124553D03*
X126521D03*
X128490D03*
Y120091D03*
X126521D03*
X124553D03*
X122584D03*
X120616D03*
X118647D03*
X116679D03*
X114710D03*
G54D178*
X150144Y121059D03*
Y107279D03*
X152113Y121059D03*
Y107279D03*
X154081Y121059D03*
Y107279D03*
X156050Y121059D03*
Y107279D03*
X158018Y121059D03*
Y107279D03*
X159987Y121059D03*
Y107279D03*
X161955Y121059D03*
Y107279D03*
X163924Y121059D03*
Y107279D03*
X165892Y121059D03*
Y107279D03*
X167861Y121059D03*
Y107279D03*
X169829Y121059D03*
Y107279D03*
X171798Y121059D03*
Y107279D03*
X173766Y121059D03*
Y107279D03*
X175735Y121059D03*
Y107279D03*
X177703Y121059D03*
Y107279D03*
X179672Y121059D03*
Y107279D03*
X181640Y121059D03*
Y107279D03*
X183609Y121059D03*
Y107279D03*
X185577Y121059D03*
Y107279D03*
X187546Y121059D03*
Y107279D03*
X189514Y121059D03*
Y107279D03*
X191483Y121059D03*
Y107279D03*
X193451Y121059D03*
Y107279D03*
X195420Y121059D03*
Y107279D03*
X197388Y121059D03*
Y107279D03*
X150125Y212800D03*
Y199020D03*
X152094Y212800D03*
Y199020D03*
X154062Y212800D03*
Y199020D03*
X156031Y212800D03*
Y199020D03*
X157999Y212800D03*
Y199020D03*
X159968Y212800D03*
Y199020D03*
X161936Y212800D03*
Y199020D03*
X163905Y212800D03*
Y199020D03*
X165873Y212800D03*
Y199020D03*
X167842Y212800D03*
Y199020D03*
X169810Y212800D03*
Y199020D03*
X171779Y212800D03*
Y199020D03*
X173747Y212800D03*
Y199020D03*
X175716Y212800D03*
Y199020D03*
X177684Y212800D03*
Y199020D03*
X179653Y212800D03*
Y199020D03*
X181621Y212800D03*
Y199020D03*
X183590Y212800D03*
Y199020D03*
X185558Y212800D03*
Y199020D03*
X187527Y212800D03*
Y199020D03*
X189495Y212800D03*
Y199020D03*
X191464Y212800D03*
Y199020D03*
X193432Y212800D03*
Y199020D03*
X195401Y212800D03*
Y199020D03*
X197369Y212800D03*
Y199020D03*
G54D179*
X218021Y182296D03*
Y179737D03*
Y177178D03*
Y174619D03*
Y172060D03*
Y155918D03*
Y153359D03*
Y150800D03*
Y148241D03*
Y145682D03*
G54D180*
X228553Y135072D03*
Y166548D03*
Y176391D03*
G54D181*
Y146076D03*
Y155524D03*
G54D182*
X228750Y186627D03*
G54D183*
X214950Y167840D03*
X213375D03*
X211800D03*
X210225D03*
X208650D03*
Y160360D03*
X210225D03*
X211800D03*
X213375D03*
X214950D03*
G54D184*
X224037Y107157D03*
X227974Y109126D03*
X226006D03*
X224037D03*
X222069D03*
X220100D03*
X218131D03*
X216163D03*
X214194D03*
X212226D03*
X227974Y111094D03*
X224037D03*
X222069D03*
X220100D03*
X218131D03*
X216163D03*
X212226D03*
X227974Y113063D03*
X226006D03*
X222069D03*
X218131D03*
X214194D03*
X212226D03*
X227974Y115031D03*
X226006D03*
X224037D03*
X216163D03*
X214194D03*
X212226D03*
X227974Y117000D03*
X226006D03*
X214194D03*
X212226D03*
X227974Y118969D03*
X226006D03*
X224037D03*
X216163D03*
X214194D03*
X212226D03*
X227974Y120937D03*
X226006D03*
X222069D03*
X218131D03*
X214194D03*
X212226D03*
X227974Y122906D03*
X224037D03*
X222069D03*
X220100D03*
X218131D03*
X216163D03*
X212226D03*
X227974Y124874D03*
X226006D03*
X224037D03*
X222069D03*
X220100D03*
X218131D03*
X216163D03*
X214194D03*
X212226D03*
X0Y0D02*
M02*
