*
*
G04 PADS 9.5 Build Number: 522968 generated Gerber (RS-274-X) file*
G04 PC Version=2.1*
*
%IN "MCollar_MAIN_working.pc"*%
*
%MOIN*%
*
%FSLAX35Y35*%
*
*
*
*
G04 PC Standard Apertures*
*
*
G04 Thermal Relief Aperture macro.*
%AMTER*
1,1,$1,0,0*
1,0,$1-$2,0,0*
21,0,$3,$4,0,0,45*
21,0,$3,$4,0,0,135*
%
*
*
G04 Annular Aperture macro.*
%AMANN*
1,1,$1,0,0*
1,0,$2,0,0*
%
*
*
G04 Odd Aperture macro.*
%AMODD*
1,1,$1,0,0*
1,0,$1-0.005,0,0*
%
*
*
G04 PC Custom Aperture Macros*
*
*
*
*
*
*
G04 PC Aperture Table*
*
%ADD010C,0.001*%
%ADD013C,0.01*%
%ADD033R,0.035X0.043*%
%ADD036C,0.01839*%
%ADD158R,0.12508X0.08571*%
%ADD159R,0.02862X0.025*%
%ADD160R,0.025X0.02862*%
%ADD161R,0.055X0.065*%
%ADD162C,0.01681*%
%ADD163C,0.01681*%
%ADD164R,0.03846X0.01602*%
%ADD165R,0.01602X0.03846*%
%ADD166R,0.01681X0.04831*%
%ADD167R,0.05815X0.02075*%
%ADD168R,0.0798X0.07587*%
%ADD169R,0.0798X0.0798*%
%ADD170R,0.07587X0.09555*%
%ADD171R,0.01287X0.03846*%
*
*
*
*
G04 PC Circuitry*
G04 Layer Name MCollar_MAIN_working.pc - circuitry*
%LPD*%
*
*
G04 PC Custom Flashes*
G04 Layer Name MCollar_MAIN_working.pc - flashes*
%LPD*%
*
*
G04 PC Circuitry*
G04 Layer Name MCollar_MAIN_working.pc - circuitry*
%LPD*%
*
G54D10*
G54D13*
G01X100000Y100000D02*
X238000D01*
Y220000*
X100000*
Y100000*
G54D33*
X106100Y194500D03*
Y200700D03*
G54D36*
X200572Y132928D03*
X197422D03*
X194272D03*
X191123D03*
X187973D03*
X184824D03*
X181674D03*
X178524D03*
X175375D03*
X172225D03*
X169076D03*
X165926D03*
X162776D03*
X159627D03*
X156477D03*
X153328D03*
X150178D03*
X147028D03*
X200572Y136078D03*
X197422D03*
X194272D03*
X191123D03*
X187973D03*
X184824D03*
X181674D03*
X178524D03*
X175375D03*
X172225D03*
X169076D03*
X165926D03*
X162776D03*
X159627D03*
X156477D03*
X153328D03*
X150178D03*
X147028D03*
X200572Y139228D03*
X197422D03*
X194272D03*
X191123D03*
X187973D03*
X184824D03*
X181674D03*
X178524D03*
X175375D03*
X172225D03*
X169076D03*
X165926D03*
X162776D03*
X159627D03*
X156477D03*
X153328D03*
X150178D03*
X147028D03*
X200572Y142377D03*
X197422D03*
X194272D03*
X191123D03*
X187973D03*
X184824D03*
X181674D03*
X178524D03*
X175375D03*
X172225D03*
X169076D03*
X165926D03*
X162776D03*
X159627D03*
X156477D03*
X153328D03*
X150178D03*
X147028D03*
X200572Y145527D03*
X197422D03*
X194272D03*
X191123D03*
X187973D03*
X184824D03*
X181674D03*
X178524D03*
X175375D03*
X172225D03*
X169076D03*
X165926D03*
X162776D03*
X159627D03*
X156477D03*
X153328D03*
X150178D03*
X147028D03*
X200572Y148676D03*
X197422D03*
X194272D03*
X191123D03*
X187973D03*
X184824D03*
X181674D03*
X178524D03*
X175375D03*
X172225D03*
X169076D03*
X165926D03*
X162776D03*
X159627D03*
X156477D03*
X153328D03*
X150178D03*
X147028D03*
X200572Y151826D03*
X197422D03*
X194272D03*
X191123D03*
X187973D03*
X184824D03*
X181674D03*
X178524D03*
X175375D03*
X172225D03*
X169076D03*
X165926D03*
X162776D03*
X159627D03*
X156477D03*
X153328D03*
X150178D03*
X147028D03*
X200572Y154976D03*
X197422D03*
X194272D03*
X191123D03*
X187973D03*
X184824D03*
X181674D03*
X178524D03*
X175375D03*
X172225D03*
X169076D03*
X165926D03*
X162776D03*
X159627D03*
X156477D03*
X153328D03*
X150178D03*
X147028D03*
X200572Y158125D03*
X197422D03*
X194272D03*
X191123D03*
X187973D03*
X184824D03*
X181674D03*
X178524D03*
X175375D03*
X172225D03*
X169076D03*
X165926D03*
X162776D03*
X159627D03*
X156477D03*
X153328D03*
X150178D03*
X147028D03*
X200572Y161275D03*
X197422D03*
X194272D03*
X191123D03*
X187973D03*
X184824D03*
X181674D03*
X178524D03*
X175375D03*
X172225D03*
X169076D03*
X165926D03*
X162776D03*
X159627D03*
X156477D03*
X153328D03*
X150178D03*
X147028D03*
X200572Y164424D03*
X197422D03*
X194272D03*
X191123D03*
X187973D03*
X184824D03*
X181674D03*
X178524D03*
X175375D03*
X172225D03*
X169076D03*
X165926D03*
X162776D03*
X159627D03*
X156477D03*
X153328D03*
X150178D03*
X147028D03*
X200572Y167574D03*
X197422D03*
X194272D03*
X191123D03*
X187973D03*
X184824D03*
X181674D03*
X178524D03*
X175375D03*
X172225D03*
X169076D03*
X165926D03*
X162776D03*
X159627D03*
X156477D03*
X153328D03*
X150178D03*
X147028D03*
X200572Y170724D03*
X197422D03*
X194272D03*
X191123D03*
X187973D03*
X184824D03*
X181674D03*
X178524D03*
X175375D03*
X172225D03*
X169076D03*
X165926D03*
X162776D03*
X159627D03*
X156477D03*
X153328D03*
X150178D03*
X147028D03*
X200572Y173873D03*
X197422D03*
X194272D03*
X191123D03*
X187973D03*
X184824D03*
X181674D03*
X178524D03*
X175375D03*
X172225D03*
X169076D03*
X165926D03*
X162776D03*
X159627D03*
X156477D03*
X153328D03*
X150178D03*
X147028D03*
X200572Y177023D03*
X197422D03*
X194272D03*
X191123D03*
X187973D03*
X184824D03*
X181674D03*
X178524D03*
X175375D03*
X172225D03*
X169076D03*
X165926D03*
X162776D03*
X159627D03*
X156477D03*
X153328D03*
X150178D03*
X147028D03*
X200572Y180172D03*
X197422D03*
X194272D03*
X191123D03*
X187973D03*
X184824D03*
X181674D03*
X178524D03*
X175375D03*
X172225D03*
X169076D03*
X165926D03*
X162776D03*
X159627D03*
X156477D03*
X153328D03*
X150178D03*
X147028D03*
X200572Y183322D03*
X197422D03*
X194272D03*
X191123D03*
X187973D03*
X184824D03*
X181674D03*
X178524D03*
X175375D03*
X172225D03*
X169076D03*
X165926D03*
X162776D03*
X159627D03*
X156477D03*
X153328D03*
X150178D03*
X147028D03*
X200572Y186472D03*
X197422D03*
X194272D03*
X191123D03*
X187973D03*
X184824D03*
X181674D03*
X178524D03*
X175375D03*
X172225D03*
X169076D03*
X165926D03*
X162776D03*
X159627D03*
X156477D03*
X153328D03*
X150178D03*
X147028D03*
X132898Y157698D03*
Y154549D03*
Y151399D03*
Y138801D03*
Y135651D03*
Y132502D03*
X129749Y157698D03*
Y154549D03*
Y151399D03*
Y138801D03*
Y135651D03*
Y132502D03*
X126599Y157698D03*
Y154549D03*
Y151399D03*
Y138801D03*
Y135651D03*
Y132502D03*
X123450Y157698D03*
Y154549D03*
Y151399D03*
Y138801D03*
Y135651D03*
Y132502D03*
X120300Y157698D03*
Y154549D03*
Y151399D03*
Y138801D03*
Y135651D03*
Y132502D03*
X117150Y157698D03*
Y154549D03*
Y151399D03*
Y138801D03*
Y135651D03*
Y132502D03*
X114001Y157698D03*
Y154549D03*
Y151399D03*
Y138801D03*
Y135651D03*
Y132502D03*
X110851Y157698D03*
Y154549D03*
Y151399D03*
Y138801D03*
Y135651D03*
Y132502D03*
X107702Y157698D03*
Y154549D03*
Y151399D03*
Y138801D03*
Y135651D03*
Y132502D03*
G54D158*
X121600Y113300D03*
G54D159*
X133620Y181765D03*
X137557D03*
X121780Y173435D03*
X117843D03*
X129020Y168665D03*
X132957D03*
X140880Y215035D03*
X136943D03*
X113680Y216135D03*
X109743D03*
G54D160*
X131665Y190780D03*
Y186843D03*
X113635Y178220D03*
Y182157D03*
X119465Y191580D03*
Y187643D03*
X124335Y187520D03*
Y191457D03*
X137665Y191280D03*
Y187343D03*
X136235Y172920D03*
Y176857D03*
X129435Y200620D03*
Y204557D03*
X104835Y172020D03*
Y175957D03*
G54D161*
X121700Y199000D03*
Y208000D03*
X113700Y201100D03*
Y210100D03*
G54D162*
X229943Y107157D03*
X227974D03*
X226006D03*
X224037D03*
X222069D03*
X220100D03*
X218131D03*
X216163D03*
X214194D03*
X212226D03*
X210257D03*
X229943Y109126D03*
X227974D03*
X226006D03*
X224037D03*
X222069D03*
X220100D03*
X218131D03*
X216163D03*
X214194D03*
X212226D03*
X210257D03*
X229943Y111094D03*
X227974D03*
X224037D03*
X222069D03*
X220100D03*
X218131D03*
X216163D03*
X212226D03*
X210257D03*
X229943Y113063D03*
X227974D03*
X226006D03*
X222069D03*
X218131D03*
X214194D03*
X212226D03*
X210257D03*
X229943Y115031D03*
X227974D03*
X226006D03*
X224037D03*
X216163D03*
X214194D03*
X212226D03*
X210257D03*
X229943Y117000D03*
X227974D03*
X226006D03*
X214194D03*
X212226D03*
X210257D03*
X229943Y118969D03*
X227974D03*
X226006D03*
X224037D03*
X216163D03*
X214194D03*
X212226D03*
X229943Y120937D03*
X227974D03*
X226006D03*
X222069D03*
X218131D03*
X214194D03*
X212226D03*
X210257D03*
X229943Y122906D03*
X227974D03*
X224037D03*
X222069D03*
X220100D03*
X218131D03*
X216163D03*
X212226D03*
X210257D03*
X229943Y124874D03*
X227974D03*
X226006D03*
X224037D03*
X222069D03*
X220100D03*
X218131D03*
X216163D03*
X214194D03*
X212226D03*
X210257D03*
X229943Y126843D03*
X227974D03*
X226006D03*
X224037D03*
X222069D03*
X220100D03*
X218131D03*
X216163D03*
X214194D03*
X212226D03*
X210257D03*
G54D163*
Y118969D03*
G54D164*
X112840Y110347D03*
X130360D03*
Y116253D03*
X112840D03*
G54D165*
X114710Y106509D03*
X116679D03*
X118647D03*
X120616D03*
X122584D03*
X124553D03*
X126521D03*
X128490D03*
Y120091D03*
X126521D03*
X124553D03*
X122584D03*
X120616D03*
X118647D03*
X116679D03*
X114710D03*
G54D166*
X150144Y121059D03*
Y107279D03*
X152113Y121059D03*
Y107279D03*
X154081Y121059D03*
Y107279D03*
X156050Y121059D03*
Y107279D03*
X158018Y121059D03*
Y107279D03*
X159987Y121059D03*
Y107279D03*
X161955Y121059D03*
Y107279D03*
X163924Y121059D03*
Y107279D03*
X165892Y121059D03*
Y107279D03*
X167861Y121059D03*
Y107279D03*
X169829Y121059D03*
Y107279D03*
X171798Y121059D03*
Y107279D03*
X173766Y121059D03*
Y107279D03*
X175735Y121059D03*
Y107279D03*
X177703Y121059D03*
Y107279D03*
X179672Y121059D03*
Y107279D03*
X181640Y121059D03*
Y107279D03*
X183609Y121059D03*
Y107279D03*
X185577Y121059D03*
Y107279D03*
X187546Y121059D03*
Y107279D03*
X189514Y121059D03*
Y107279D03*
X191483Y121059D03*
Y107279D03*
X193451Y121059D03*
Y107279D03*
X195420Y121059D03*
Y107279D03*
X197388Y121059D03*
Y107279D03*
X150125Y212800D03*
Y199020D03*
X152094Y212800D03*
Y199020D03*
X154062Y212800D03*
Y199020D03*
X156031Y212800D03*
Y199020D03*
X157999Y212800D03*
Y199020D03*
X159968Y212800D03*
Y199020D03*
X161936Y212800D03*
Y199020D03*
X163905Y212800D03*
Y199020D03*
X165873Y212800D03*
Y199020D03*
X167842Y212800D03*
Y199020D03*
X169810Y212800D03*
Y199020D03*
X171779Y212800D03*
Y199020D03*
X173747Y212800D03*
Y199020D03*
X175716Y212800D03*
Y199020D03*
X177684Y212800D03*
Y199020D03*
X179653Y212800D03*
Y199020D03*
X181621Y212800D03*
Y199020D03*
X183590Y212800D03*
Y199020D03*
X185558Y212800D03*
Y199020D03*
X187527Y212800D03*
Y199020D03*
X189495Y212800D03*
Y199020D03*
X191464Y212800D03*
Y199020D03*
X193432Y212800D03*
Y199020D03*
X195401Y212800D03*
Y199020D03*
X197369Y212800D03*
Y199020D03*
G54D167*
X218021Y182296D03*
Y179737D03*
Y177178D03*
Y174619D03*
Y172060D03*
Y155918D03*
Y153359D03*
Y150800D03*
Y148241D03*
Y145682D03*
G54D168*
X228553Y135072D03*
Y166548D03*
Y176391D03*
G54D169*
Y146076D03*
Y155524D03*
G54D170*
X228750Y186627D03*
G54D171*
X214950Y167840D03*
X213375D03*
X211800D03*
X210225D03*
X208650D03*
Y160360D03*
X210225D03*
X211800D03*
X213375D03*
X214950D03*
X0Y0D02*
M02*
