*
*
G04 PADS 9.5 Build Number: 522968 generated Gerber (RS-274-X) file*
G04 PC Version=2.1*
*
%IN "MCollar_MAIN_working.pc"*%
*
%MOIN*%
*
%FSLAX35Y35*%
*
*
*
*
G04 PC Standard Apertures*
*
*
G04 Thermal Relief Aperture macro.*
%AMTER*
1,1,$1,0,0*
1,0,$1-$2,0,0*
21,0,$3,$4,0,0,45*
21,0,$3,$4,0,0,135*
%
*
*
G04 Annular Aperture macro.*
%AMANN*
1,1,$1,0,0*
1,0,$2,0,0*
%
*
*
G04 Odd Aperture macro.*
%AMODD*
1,1,$1,0,0*
1,0,$1-0.005,0,0*
%
*
*
G04 PC Custom Aperture Macros*
*
*
*
*
*
*
G04 PC Aperture Table*
*
%ADD010C,0.001*%
%ADD012C,0.005*%
%ADD013C,0.01*%
%ADD019C,0.00787*%
%ADD021C,0.011*%
%ADD121C,0.01181*%
%ADD157C,0.00787*%
*
*
*
*
G04 PC Circuitry*
G04 Layer Name MCollar_MAIN_working.pc - circuitry*
%LPD*%
*
*
G04 PC Custom Flashes*
G04 Layer Name MCollar_MAIN_working.pc - flashes*
%LPD*%
*
*
G04 PC Circuitry*
G04 Layer Name MCollar_MAIN_working.pc - circuitry*
%LPD*%
*
G54D10*
G01X141760Y128360D02*
Y127310D01*
G54D12*
X203580Y129920D02*
X144020D01*
Y189480*
X203580*
Y129920*
X134739Y183361D02*
X131839D01*
Y180161*
X134739*
X136439Y183361D02*
X139339D01*
Y180161*
X136439*
X133261Y189661D02*
Y192561D01*
X130061*
Y189661*
X133261Y187961D02*
Y185061D01*
X130061*
Y187961*
X136300Y161100D02*
Y129100D01*
X104300*
Y161100*
X136300*
X118700Y202000D02*
Y195500D01*
X124700*
Y202000*
X118700Y205000D02*
Y211500D01*
X124700*
Y205000*
X110700Y204100D02*
Y197600D01*
X116700*
Y204100*
X110700Y207100D02*
Y213600D01*
X116700*
Y207100*
X144475Y107003D02*
X202822D01*
Y121255*
X144475*
Y107003*
X144456Y198744D02*
X202803D01*
Y212996*
X144456*
Y198744*
X224340Y161135D02*
X232057D01*
X230639Y162552*
Y159717*
X232057Y161135*
X234261Y131509D02*
Y191150D01*
X218053*
Y131509*
X234261*
X215737Y168037D02*
Y160163D01*
X207863*
Y168037*
X215737*
X104000Y196400D02*
Y192000D01*
X108200*
Y196400*
X104000Y198800D02*
Y203200D01*
X108200*
Y198800*
X112039Y179339D02*
Y176439D01*
X115239*
Y179339*
X112039Y181039D02*
Y183939D01*
X115239*
Y181039*
X121061Y190461D02*
Y193361D01*
X117861*
Y190461*
X121061Y188761D02*
Y185861D01*
X117861*
Y188761*
X122739Y188639D02*
Y185739D01*
X125939*
Y188639*
X122739Y190339D02*
Y193239D01*
X125939*
Y190339*
X139261Y190161D02*
Y193061D01*
X136061*
Y190161*
X139261Y188461D02*
Y185561D01*
X136061*
Y188461*
X120661Y171839D02*
X123561D01*
Y175039*
X120661*
X118961Y171839D02*
X116061D01*
Y175039*
X118961*
X130139Y170261D02*
X127239D01*
Y167061*
X130139*
X131839Y170261D02*
X134739D01*
Y167061*
X131839*
X134639Y174039D02*
Y171139D01*
X137839*
Y174039*
X134639Y175739D02*
Y178639D01*
X137839*
Y175739*
X127839Y201739D02*
Y198839D01*
X131039*
Y201739*
X127839Y203439D02*
Y206339D01*
X131039*
Y203439*
X103239Y173139D02*
Y170239D01*
X106439*
Y173139*
X103239Y174839D02*
Y177739D01*
X106439*
Y174839*
X139761Y213439D02*
X142661D01*
Y216639*
X139761*
X138061Y213439D02*
X135161D01*
Y216639*
X138061*
X112561Y214539D02*
X115461D01*
Y217739*
X112561*
X110861Y214539D02*
X107961D01*
Y217739*
X110861*
X170200Y123975D02*
Y125850D01*
X170109Y126225*
X169927Y126475*
X169655Y126600*
X169473*
X169200Y126475*
X169018Y126225*
X168927Y125850*
Y123975*
X167927D02*
X166927D01*
X167473Y124975*
X167200*
X167018Y125100*
X166927Y125225*
X166836Y125600*
Y125850*
X166927Y126225*
X167109Y126475*
X167382Y126600*
X167655*
X167927Y126475*
X168018Y126350*
X168109Y126100*
X128831Y179800D02*
X130800D01*
X128831D02*
Y180414D01*
X128925Y180618*
X129019Y180686*
X129206Y180755*
X129394*
X129581Y180686*
X129675Y180618*
X129769Y180414*
Y179800*
Y180277D02*
X130800Y180755D01*
X128831Y182323D02*
X130800Y181641D01*
X128831Y181368D02*
Y182323D01*
X128623Y195700D02*
X128555Y195887D01*
X128555D02*
X128418Y196075D01*
X128282Y196169*
X128009*
X127873Y196075*
X127736Y195887*
X127736D02*
X127668Y195700D01*
X127600Y195419*
Y194950*
X127668Y194669*
X127736Y194481*
X127873Y194294*
X128009Y194200*
X128282*
X128418Y194294*
X128555Y194481*
X128623Y194669*
X129918Y196169D02*
X129236Y194856D01*
X130259*
X129918Y196169D02*
Y194200D01*
X131759Y196169D02*
X131077D01*
X131009Y195325*
X131077Y195419*
X131282Y195512*
X131282D02*
X131486D01*
X131486D02*
X131691Y195419D01*
X131827Y195231*
X131895Y194950*
X131827Y194762*
X131827D02*
X131759Y194481D01*
X131623Y194294*
X131418Y194200*
X131214*
X131009Y194294*
X130941Y194387*
X130941D02*
X130873Y194575D01*
X136900Y121175D02*
Y123050D01*
X136809Y123425*
X136627Y123675*
X136355Y123800*
X136173*
X135900Y123675*
X135718Y123425*
X135627Y123050*
Y121175*
X133627Y122050D02*
X133718Y122425D01*
X133900Y122675*
X134173Y122800*
X134264*
X134536Y122675*
X134718Y122425*
X134809Y122050*
Y121925*
X134718Y121550*
X134536Y121300*
X134264Y121175*
X134173*
X133900Y121300*
X133718Y121550*
X133627Y122050*
Y122675*
X133718Y123300*
X133900Y123675*
X134173Y123800*
X134355*
X134627Y123675*
X134718Y123425*
X127400Y210677D02*
X127587Y210745D01*
X127587D02*
X127775Y210882D01*
X127869Y211018*
Y211291*
X127775Y211427*
X127587Y211564*
X127587D02*
X127400Y211632D01*
X127119Y211700*
X126650*
X126369Y211632*
X126181Y211564*
X125994Y211427*
X125900Y211291*
Y211018*
X125994Y210882*
X126181Y210745*
X126369Y210677*
X127400Y209995D02*
X127494D01*
X127681Y209927*
X127775Y209859*
X127869Y209723*
Y209450*
X127775Y209314*
X127681Y209245*
X127494Y209177*
X127306*
X127119Y209245*
X126837Y209382*
X126837D02*
X125900Y210064D01*
Y209109*
X127212Y207609D02*
X126931Y207677D01*
X126744Y207814*
X126650Y208018*
Y208086*
X126744Y208291*
X126931Y208427*
X127212Y208495*
X127212D02*
X127306D01*
X127587Y208427*
X127587D02*
X127775Y208291D01*
X127869Y208086*
Y208018*
X127775Y207814*
X127587Y207677*
X127587D02*
X127212Y207609D01*
X127212D02*
X126744D01*
X126275Y207677*
X125994Y207814*
X125900Y208018*
Y208155*
X125994Y208359*
X126181Y208427*
X108100Y208023D02*
X107912Y207955D01*
X107912D02*
X107725Y207818D01*
X107631Y207682*
Y207409*
X107725Y207273*
X107912Y207136*
X107912D02*
X108100Y207068D01*
X108381Y207000*
X108850*
X109131Y207068*
X109319Y207136*
X109506Y207273*
X109600Y207409*
Y207682*
X109506Y207818*
X109319Y207955*
X109131Y208023*
X107631Y208773D02*
Y209523D01*
X108381Y209114*
Y209318*
X108475Y209455*
X108569Y209523*
X108850Y209591*
X109037*
X109037D02*
X109319Y209523D01*
X109506Y209386*
X109600Y209182*
Y208977*
X109506Y208773*
X109412Y208705*
X109412D02*
X109225Y208636D01*
X108100Y210273D02*
X108006D01*
X107819Y210341*
X107725Y210409*
X107631Y210545*
Y210818*
X107725Y210955*
X107819Y211023*
X108006Y211091*
X108194*
X108381Y211023*
X108662Y210886*
X108662D02*
X109600Y210205D01*
Y211159*
X212500Y133225D02*
Y131350D01*
X212591Y130975*
X212773Y130725*
X213045Y130600*
X213227*
X213500Y130725*
X213682Y130975*
X213773Y131350*
Y133225*
X214591Y132725D02*
X214773Y132850D01*
X215045Y133225*
Y130600*
X106875Y112300D02*
X108750D01*
X109125Y112391*
X109375Y112573*
X109500Y112845*
Y113027*
X109375Y113300*
X109125Y113482*
X108750Y113573*
X106875*
Y115300D02*
X108625Y114391D01*
Y115755*
X106875Y115300D02*
X109500D01*
X140631Y108782D02*
X142131D01*
X142412Y108714*
X142412D02*
X142506Y108645D01*
X142600Y108509*
Y108373*
X142506Y108236*
X142412Y108168*
X142412D02*
X142131Y108100D01*
X141944*
X141006Y109395D02*
X140912Y109532D01*
X140912D02*
X140631Y109736D01*
X142600*
X140431Y206982D02*
X141931D01*
X142212Y206914*
X142212D02*
X142306Y206845D01*
X142400Y206709*
Y206573*
X142306Y206436*
X142212Y206368*
X142212D02*
X141931Y206300D01*
X141744*
X140900Y207664D02*
X140806D01*
X140619Y207732*
X140525Y207800*
X140431Y207936*
Y208209*
X140525Y208345*
X140619Y208414*
X140806Y208482*
X140994*
X141181Y208414*
X141462Y208277*
X141462D02*
X142400Y207595D01*
Y208550*
X227209Y195325D02*
Y193325D01*
X227118Y192950*
X227027Y192825*
X226845Y192700*
X226664*
X226482Y192825*
X226391Y192950*
X226300Y193325*
Y193575*
X228209Y195325D02*
X229209D01*
X228664Y194325*
X228936*
X229118Y194200*
X229209Y194075*
X229300Y193700*
Y193450*
X229209Y193075*
X229027Y192825*
X228755Y192700*
X228482*
X228209Y192825*
X228118Y192950*
X228027Y193200*
X210800Y154675D02*
Y156550D01*
X210709Y156925*
X210527Y157175*
X210255Y157300*
X210073*
X209800Y157175*
X209618Y156925*
X209527Y156550*
Y154675*
X207527D02*
X208436D01*
X208527Y155800*
X208436Y155675*
X208164Y155550*
X207891*
X207618Y155675*
X207436Y155925*
X207345Y156300*
X207436Y156550*
X207527Y156925*
X207709Y157175*
X207982Y157300*
X208255*
X208527Y157175*
X208618Y157050*
X208709Y156800*
X111769Y194500D02*
X109800D01*
X111769D02*
Y193614D01*
X110831Y194500D02*
Y193955D01*
X111769Y193000D02*
X109800D01*
X111769D02*
Y192386D01*
X111675Y192182*
X111581Y192114*
X111394Y192045*
X111206*
X111019Y192114*
X110925Y192182*
X110831Y192386*
Y193000D02*
Y192386D01*
X110738Y192182*
X110738D02*
X110644Y192114D01*
X110456Y192045*
X110175*
X109988Y192114*
X109988D02*
X109894Y192182D01*
X109800Y192386*
Y193000*
X111394Y191432D02*
X111488Y191295D01*
X111488D02*
X111769Y191091D01*
X109800*
X118569Y181500D02*
X116600D01*
X118569D02*
Y180886D01*
X118475Y180682*
X118381Y180614*
X118194Y180545*
X118006*
X117819Y180614*
X117725Y180682*
X117631Y180886*
Y181500*
Y181023D02*
X116600Y180545D01*
X118569Y179795D02*
Y179045D01*
X117819Y179455*
Y179250*
X117725Y179114*
X117631Y179045*
X117350Y178977*
X117163*
X117163D02*
X116881Y179045D01*
X116694Y179182*
X116600Y179386*
Y179591*
X116694Y179795*
X116788Y179864*
X116788D02*
X116975Y179932D01*
X114731Y190800D02*
X116700D01*
X114731D02*
Y191414D01*
X114825Y191618*
X114919Y191686*
X115106Y191755*
X115294*
X115481Y191686*
X115575Y191618*
X115669Y191414*
Y190800*
Y191277D02*
X116700Y191755D01*
X115012Y193186D02*
X114825Y193118D01*
X114731Y192914*
Y192777*
X114825Y192573*
X115106Y192436*
X115575Y192368*
X116044*
X116419Y192436*
X116606Y192573*
X116700Y192777*
Y192845*
X116606Y193050*
X116419Y193186*
X116137Y193255*
X116137D02*
X116044D01*
X115762Y193186*
X115762D02*
X115575Y193050D01*
X115481Y192845*
Y192777*
X115575Y192573*
X115762Y192436*
X115762D02*
X116044Y192368D01*
X128969Y192600D02*
X127000D01*
X128969D02*
Y191986D01*
X128875Y191782*
X128781Y191714*
X128594Y191645*
X128406*
X128219Y191714*
X128125Y191782*
X128031Y191986*
Y192600*
Y192123D02*
X127000Y191645D01*
X128969Y190145D02*
Y190827D01*
X128125Y190895*
X128219Y190827*
X128312Y190623*
X128312D02*
Y190418D01*
X128312D02*
X128219Y190214D01*
X128031Y190077*
X127750Y190009*
X127562Y190077*
X127562D02*
X127281Y190145D01*
X127094Y190282*
X127000Y190486*
Y190691*
X127094Y190895*
X127187Y190964*
X127187D02*
X127375Y191032D01*
X137223Y198200D02*
X137155Y198388D01*
X137155D02*
X137018Y198575D01*
X136882Y198669*
X136609*
X136473Y198575*
X136336Y198388*
X136336D02*
X136268Y198200D01*
X136200Y197919*
Y197450*
X136268Y197169*
X136336Y196981*
X136473Y196794*
X136609Y196700*
X136882*
X137018Y196794*
X137155Y196981*
X137223Y197169*
X138518Y198669D02*
X137836Y197356D01*
X138859*
X138518Y198669D02*
Y196700D01*
X140359Y198013D02*
X140291Y197731D01*
X140155Y197544*
X139950Y197450*
X139882*
X139677Y197544*
X139541Y197731*
X139473Y198013*
X139473D02*
Y198106D01*
X139541Y198388*
X139541D02*
X139677Y198575D01*
X139882Y198669*
X139950*
X140155Y198575*
X140291Y198388*
X140291D02*
X140359Y198013D01*
X140359D02*
Y197544D01*
X140291Y197075*
X140155Y196794*
X139950Y196700*
X139814*
X139609Y196794*
X139541Y196981*
X126369Y174500D02*
X124400D01*
X126369D02*
Y173886D01*
X126275Y173682*
X126181Y173614*
X125994Y173545*
X125806*
X125619Y173614*
X125525Y173682*
X125431Y173886*
Y174500*
Y174023D02*
X124400Y173545D01*
X126369Y172250D02*
X125056Y172932D01*
Y171909*
X126369Y172250D02*
X124400D01*
X124231Y165400D02*
X126200D01*
X124231D02*
Y166014D01*
X124325Y166218*
X124419Y166286*
X124606Y166355*
X124794*
X124981Y166286*
X125075Y166218*
X125169Y166014*
Y165400*
Y165877D02*
X126200Y166355D01*
X124231Y167309D02*
X124325Y167105D01*
X124512Y167036*
X124512D02*
X124700D01*
X124887Y167105*
X124887D02*
X124981Y167241D01*
X125075Y167514*
X125169Y167718*
X125356Y167855*
X125544Y167923*
X125825*
X126012Y167855*
X126012D02*
X126106Y167786D01*
X126200Y167582*
Y167309*
X126106Y167105*
X126012Y167036*
X126012D02*
X125825Y166968D01*
X125544*
X125356Y167036*
X125169Y167173*
X125075Y167377*
X124981Y167650*
X124887Y167786*
X124887D02*
X124700Y167855D01*
X124512*
X124512D02*
X124325Y167786D01*
X124231Y167582*
Y167309*
X140100Y175577D02*
X140288Y175645D01*
X140288D02*
X140475Y175782D01*
X140569Y175918*
Y176191*
X140475Y176327*
X140288Y176464*
X140288D02*
X140100Y176532D01*
X139819Y176600*
X139350*
X139069Y176532*
X138881Y176464*
X138694Y176327*
X138600Y176191*
Y175918*
X138694Y175782*
X138881Y175645*
X139069Y175577*
X140569Y174282D02*
X139256Y174964D01*
Y173941*
X140569Y174282D02*
X138600D01*
X140569Y172986D02*
X140475Y173191D01*
X140288Y173259*
X140288D02*
X140100D01*
X139913Y173191*
X139913D02*
X139819Y173055D01*
X139725Y172782*
X139631Y172577*
X139444Y172441*
X139256Y172373*
X138975*
X138788Y172441*
X138788D02*
X138694Y172509D01*
X138600Y172714*
Y172986*
X138694Y173191*
X138788Y173259*
X138788D02*
X138975Y173327D01*
X139256*
X139444Y173259*
X139631Y173123*
X139725Y172918*
X139819Y172645*
X139913Y172509*
X139913D02*
X140100Y172441D01*
X140288*
X140288D02*
X140475Y172509D01*
X140569Y172714*
Y172986*
X133400Y203677D02*
X133588Y203745D01*
X133588D02*
X133775Y203882D01*
X133869Y204018*
Y204291*
X133775Y204427*
X133588Y204564*
X133588D02*
X133400Y204632D01*
X133119Y204700*
X132650*
X132369Y204632*
X132181Y204564*
X131994Y204427*
X131900Y204291*
Y204018*
X131994Y203882*
X132181Y203745*
X132369Y203677*
X133869Y202382D02*
X132556Y203064D01*
Y202041*
X133869Y202382D02*
X131900D01*
X133869Y200745D02*
X132556Y201427D01*
Y200405*
X133869Y200745D02*
X131900D01*
X103300Y180969D02*
Y179000D01*
Y180969D02*
X103914D01*
X104118Y180875*
X104186Y180781*
X104255Y180594*
Y180406*
X104186Y180219*
X104118Y180125*
X103914Y180031*
X103300*
X103777D02*
X104255Y179000D01*
X104868Y180594D02*
X105005Y180688D01*
X105005D02*
X105209Y180969D01*
Y179000*
X106232Y180969D02*
X106027Y180875D01*
X105891Y180594*
X105823Y180125*
Y179844*
X105891Y179375*
X106027Y179094*
X106232Y179000*
X106368*
X106573Y179094*
X106709Y179375*
X106777Y179844*
Y180125*
X106709Y180594*
X106573Y180875*
X106368Y180969*
X106232*
X145200Y216077D02*
X145388Y216145D01*
X145388D02*
X145575Y216282D01*
X145669Y216418*
Y216691*
X145575Y216827*
X145388Y216964*
X145388D02*
X145200Y217032D01*
X144919Y217100*
X144450*
X144169Y217032*
X143981Y216964*
X143794Y216827*
X143700Y216691*
Y216418*
X143794Y216282*
X143981Y216145*
X144169Y216077*
X145200Y215395D02*
X145294D01*
X145481Y215327*
X145575Y215259*
X145669Y215123*
Y214850*
X145575Y214714*
X145481Y214645*
X145294Y214577*
X145106*
X144919Y214645*
X144638Y214782*
X144638D02*
X143700Y215464D01*
Y214509*
X105877Y213100D02*
X105945Y212912D01*
X105945D02*
X106082Y212725D01*
X106218Y212631*
X106491*
X106627Y212725*
X106764Y212912*
X106764D02*
X106832Y213100D01*
X106900Y213381*
Y213850*
X106832Y214131*
X106764Y214319*
X106627Y214506*
X106491Y214600*
X106218*
X106082Y214506*
X105945Y214319*
X105877Y214131*
X104582Y212631D02*
X105264Y213944D01*
X104241*
X104582Y212631D02*
Y214600D01*
G54D13*
X205840Y191740D02*
X141760D01*
Y127660*
X205840*
Y191740*
X205340Y129640D02*
X203850Y128150D01*
X205360*
Y129600*
X102050Y163350D02*
Y126800D01*
X138550*
Y163350*
X102050*
X233866Y103969D02*
G75*
G03X233866I-498J0D01*
G01X110183Y109363D02*
G03X110183I-394J0D01*
G01X100000Y100000D02*
X238000D01*
Y220000*
X100000*
Y100000*
G54D19*
X231911Y128811D02*
Y105939D01*
X231161Y105189*
X208289*
Y128811*
X231911*
G54D21*
X138050Y162850D02*
X136250D01*
X138050Y161050*
Y162850*
G54D121*
X149420Y117751D02*
G03X149420I-142J0D01*
G01X149401Y209492D02*
G03X149401I-142J0D01*
G01X217203Y168667D02*
G03X217203I-88J0D01*
G54D157*
G01X130754Y106115D02*
X112446D01*
Y120485*
X130754*
Y106115*
G74*
X0Y0D02*
M02*
