*
*
G04 PADS VX.1.2 Build Number: 698008 generated Gerber (RS-274-X) file*
G04 PC Version=2.1*
*
%IN "GPSBoardV1Square.pcb"*%
*
%MOIN*%
*
%FSLAX35Y35*%
*
*
*
*
G04 PC Standard Apertures*
*
*
G04 Thermal Relief Aperture macro.*
%AMTER*
1,1,$1,0,0*
1,0,$1-$2,0,0*
21,0,$3,$4,0,0,45*
21,0,$3,$4,0,0,135*
%
*
*
G04 Annular Aperture macro.*
%AMANN*
1,1,$1,0,0*
1,0,$2,0,0*
%
*
*
G04 Odd Aperture macro.*
%AMODD*
1,1,$1,0,0*
1,0,$1-0.005,0,0*
%
*
*
G04 PC Custom Aperture Macros*
*
*
*
*
*
*
G04 PC Aperture Table*
*
%ADD010C,0.001*%
%ADD013C,0.01*%
%ADD130C,0.025*%
%ADD201R,0.06X0.06*%
%ADD202C,0.051*%
*
*
*
*
G04 PC Circuitry*
G04 Layer Name GPSBoardV1Square.pcb - circuitry*
%LPD*%
*
*
G04 PC Custom Flashes*
G04 Layer Name GPSBoardV1Square.pcb - flashes*
%LPD*%
*
*
G04 PC Circuitry*
G04 Layer Name GPSBoardV1Square.pcb - circuitry*
%LPD*%
*
G54D10*
G01X221200Y106700D02*
G75*
G03X221200I-1900J0D01*
G01Y110700D02*
G03X221200I-1900J0D01*
G01X221400Y153900D02*
G03X221400I-1900J0D01*
G01X217200Y114700D02*
G03X217200I-1900J0D01*
G01Y118700D02*
G03X217200I-1900J0D01*
G01X213200D02*
G03X213200I-1900J0D01*
G01X209200D02*
G03X209200I-1900J0D01*
G01X205200D02*
G03X205200I-1900J0D01*
G01Y122700D02*
G03X205200I-1900J0D01*
G01Y126700D02*
G03X205200I-1900J0D01*
G01Y130700D02*
G03X205200I-1900J0D01*
G01Y134700D02*
G03X205200I-1900J0D01*
G01Y138700D02*
G03X205200I-1900J0D01*
G01Y142700D02*
G03X205200I-1900J0D01*
G01Y146700D02*
G03X205200I-1900J0D01*
G01Y150700D02*
G03X205200I-1900J0D01*
G01Y154700D02*
G03X205200I-1900J0D01*
G01Y158700D02*
G03X205200I-1900J0D01*
G01X201200Y118700D02*
G03X201200I-1900J0D01*
G01Y122700D02*
G03X201200I-1900J0D01*
G01Y130700D02*
G03X201200I-1900J0D01*
G01Y140700D02*
G03X201200I-1900J0D01*
G01Y150700D02*
G03X201200I-1900J0D01*
G01Y158700D02*
G03X201200I-1900J0D01*
G01X197200Y118700D02*
G03X197200I-1900J0D01*
G01Y122700D02*
G03X197200I-1900J0D01*
G01Y130700D02*
G03X197200I-1900J0D01*
G01Y140700D02*
G03X197200I-1900J0D01*
G01Y150700D02*
G03X197200I-1900J0D01*
G01Y158700D02*
G03X197200I-1900J0D01*
G01X193200Y118700D02*
G03X193200I-1900J0D01*
G01Y122700D02*
G03X193200I-1900J0D01*
G01Y130700D02*
G03X193200I-1900J0D01*
G01Y140700D02*
G03X193200I-1900J0D01*
G01Y150700D02*
G03X193200I-1900J0D01*
G01Y158700D02*
G03X193200I-1900J0D01*
G01X189200Y118700D02*
G03X189200I-1900J0D01*
G01Y122700D02*
G03X189200I-1900J0D01*
G01Y130700D02*
G03X189200I-1900J0D01*
G01Y140700D02*
G03X189200I-1900J0D01*
G01Y150700D02*
G03X189200I-1900J0D01*
G01Y158700D02*
G03X189200I-1900J0D01*
G01X185200Y118700D02*
G03X185200I-1900J0D01*
G01Y122700D02*
G03X185200I-1900J0D01*
G01Y126700D02*
G03X185200I-1900J0D01*
G01Y130700D02*
G03X185200I-1900J0D01*
G01Y134700D02*
G03X185200I-1900J0D01*
G01Y138700D02*
G03X185200I-1900J0D01*
G01Y142700D02*
G03X185200I-1900J0D01*
G01Y146700D02*
G03X185200I-1900J0D01*
G01Y150700D02*
G03X185200I-1900J0D01*
G01Y154700D02*
G03X185200I-1900J0D01*
G01Y158700D02*
G03X185200I-1900J0D01*
G01X181200Y118700D02*
G03X181200I-1900J0D01*
G01X177200D02*
G03X177200I-1900J0D01*
G01X170700Y157200D02*
G03X170700I-1900J0D01*
G01X157200Y112700D02*
G03X157200I-1900J0D01*
G01X153200D02*
G03X153200I-1900J0D01*
G01X149200D02*
G03X149200I-1900J0D01*
G01X142900Y106000D02*
G03X142900I-1900J0D01*
G01X145200Y112700D02*
G03X145200I-1900J0D01*
G01X141200D02*
G03X141200I-1900J0D01*
G01X136900Y112600D02*
G03X136900I-1900J0D01*
G01X132700Y112500D02*
G03X132700I-1900J0D01*
G01X127700D02*
G03X127700I-1900J0D01*
G01X123200Y112400D02*
G03X123200I-1900J0D01*
G01X117300Y112600D02*
G03X117300I-1900J0D01*
G01X111900D02*
G03X111900I-1900J0D01*
G01X106900D02*
G03X106900I-1900J0D01*
G01X233950Y102100D02*
Y160900D01*
G03X233900Y160950I-50J-0*
G01X159400*
G03X159350Y160900I0J-50*
G01Y159139*
G03X159449Y159128I50J-0*
G01X163167Y158347D02*
G03X159449Y159128I-1867J353D01*
G01X163167Y158347D02*
G03X163257Y158308I49J-10D01*
G01X162933Y157553D02*
G03X163257Y158308I1867J-353D01*
G01X162933Y157553D02*
G03X162843Y157592I-49J10D01*
G01X159449Y158272D02*
G03X162843Y157592I1851J428D01*
G01X159449Y158272D02*
G03X159350Y158261I-49J-11D01*
G01Y151139*
G03X159449Y151128I50J-0*
G01Y150272D02*
G03Y151128I1851J428D01*
G01Y150272D02*
G03X159350Y150261I-49J-11D01*
G01Y147139*
G03X159449Y147128I50J-0*
G01Y146272D02*
G03Y147128I1851J428D01*
G01Y146272D02*
G03X159350Y146261I-49J-11D01*
G01Y143139*
G03X159449Y143128I50J-0*
G01Y142272D02*
G03Y143128I1851J428D01*
G01Y142272D02*
G03X159350Y142261I-49J-11D01*
G01Y140430*
G03X159423Y140386I50J-0*
G01Y137014D02*
G03Y140386I877J1686D01*
G01Y137014D02*
G03X159350Y136970I-23J-44D01*
G01Y135430*
G03X159423Y135386I50J-0*
G01Y132014D02*
G03Y135386I877J1686D01*
G01Y132014D02*
G03X159350Y131970I-23J-44D01*
G01Y130430*
G03X159423Y130386I50J-0*
G01Y127014D02*
G03Y130386I877J1686D01*
G01Y127014D02*
G03X159350Y126970I-23J-44D01*
G01Y125430*
G03X159423Y125386I50J-0*
G01Y122014D02*
G03Y125386I877J1686D01*
G01Y122014D02*
G03X159350Y121970I-23J-44D01*
G01Y120430*
G03X159423Y120386I50J-0*
G01Y117014D02*
G03Y120386I877J1686D01*
G01Y117014D02*
G03X159350Y116970I-23J-44D01*
G01Y116027*
G03X159408Y115977I50J-0*
G01X158069Y115074D02*
G03X159408Y115977I1631J-974D01*
G01X158069Y115074D02*
G03X158026Y115150I-43J26D01*
G01X102100*
G03X102050Y115100I0J-50*
G01Y102100*
G03X102100Y102050I50J0*
G01X233900*
G03X233950Y102100I-0J50*
G01X233650Y109000D02*
Y103000D01*
X233000Y102350D02*
G03X233650Y103000I0J650D01*
G01X233000Y102350D02*
X227000D01*
X226350Y103000D02*
G03X227000Y102350I650J0D01*
G01X226350Y103000D02*
Y109000D01*
X227000Y109650D02*
G03X226350Y109000I0J-650D01*
G01X227000Y109650D02*
X233000D01*
X233650Y109000D02*
G03X233000Y109650I-650J0D01*
G01X233650Y119000D02*
Y113000D01*
X233000Y112350D02*
G03X233650Y113000I0J650D01*
G01X233000Y112350D02*
X227000D01*
X226350Y113000D02*
G03X227000Y112350I650J0D01*
G01X226350Y113000D02*
Y119000D01*
X227000Y119650D02*
G03X226350Y119000I0J-650D01*
G01X227000Y119650D02*
X233000D01*
X233650Y119000D02*
G03X233000Y119650I-650J0D01*
G01X233650Y129000D02*
Y123000D01*
X233000Y122350D02*
G03X233650Y123000I0J650D01*
G01X233000Y122350D02*
X227000D01*
X226350Y123000D02*
G03X227000Y122350I650J0D01*
G01X226350Y123000D02*
Y129000D01*
X227000Y129650D02*
G03X226350Y129000I0J-650D01*
G01X227000Y129650D02*
X233000D01*
X233650Y129000D02*
G03X233000Y129650I-650J0D01*
G01X233650Y139000D02*
Y133000D01*
X233000Y132350D02*
G03X233650Y133000I0J650D01*
G01X233000Y132350D02*
X227000D01*
X226350Y133000D02*
G03X227000Y132350I650J0D01*
G01X226350Y133000D02*
Y139000D01*
X227000Y139650D02*
G03X226350Y139000I0J-650D01*
G01X227000Y139650D02*
X233000D01*
X233650Y139000D02*
G03X233000Y139650I-650J0D01*
G01X233650Y149000D02*
Y143000D01*
X233000Y142350D02*
G03X233650Y143000I0J650D01*
G01X233000Y142350D02*
X227000D01*
X226350Y143000D02*
G03X227000Y142350I650J0D01*
G01X226350Y143000D02*
Y149000D01*
X227000Y149650D02*
G03X226350Y149000I0J-650D01*
G01X227000Y149650D02*
X233000D01*
X233650Y149000D02*
G03X233000Y149650I-650J0D01*
G01X221200Y106700D02*
G03X221200I-1900J0D01*
G01Y110700D02*
G03X221200I-1900J0D01*
G01X221400Y153900D02*
G03X221400I-1900J0D01*
G01X217200Y114700D02*
G03X217200I-1900J0D01*
G01Y118700D02*
G03X217200I-1900J0D01*
G01X213200D02*
G03X213200I-1900J0D01*
G01X209200D02*
G03X209200I-1900J0D01*
G01X205200D02*
G03X205200I-1900J0D01*
G01Y122700D02*
G03X205200I-1900J0D01*
G01Y126700D02*
G03X205200I-1900J0D01*
G01Y130700D02*
G03X205200I-1900J0D01*
G01Y134700D02*
G03X205200I-1900J0D01*
G01Y138700D02*
G03X205200I-1900J0D01*
G01Y142700D02*
G03X205200I-1900J0D01*
G01Y146700D02*
G03X205200I-1900J0D01*
G01Y150700D02*
G03X205200I-1900J0D01*
G01Y154700D02*
G03X205200I-1900J0D01*
G01Y158700D02*
G03X205200I-1900J0D01*
G01X199650Y110000D02*
Y104000D01*
X199000Y103350D02*
G03X199650Y104000I0J650D01*
G01X199000Y103350D02*
X193000D01*
X192350Y104000D02*
G03X193000Y103350I650J0D01*
G01X192350Y104000D02*
Y110000D01*
X193000Y110650D02*
G03X192350Y110000I0J-650D01*
G01X193000Y110650D02*
X199000D01*
X199650Y110000D02*
G03X199000Y110650I-650J0D01*
G01X201200Y118700D02*
G03X201200I-1900J0D01*
G01Y122700D02*
G03X201200I-1900J0D01*
G01Y130700D02*
G03X201200I-1900J0D01*
G01Y140700D02*
G03X201200I-1900J0D01*
G01Y150700D02*
G03X201200I-1900J0D01*
G01Y158700D02*
G03X201200I-1900J0D01*
G01X197200Y118700D02*
G03X197200I-1900J0D01*
G01Y122700D02*
G03X197200I-1900J0D01*
G01Y130700D02*
G03X197200I-1900J0D01*
G01Y140700D02*
G03X197200I-1900J0D01*
G01Y150700D02*
G03X197200I-1900J0D01*
G01Y158700D02*
G03X197200I-1900J0D01*
G01X189650Y110000D02*
Y104000D01*
X189000Y103350D02*
G03X189650Y104000I0J650D01*
G01X189000Y103350D02*
X183000D01*
X182350Y104000D02*
G03X183000Y103350I650J0D01*
G01X182350Y104000D02*
Y110000D01*
X183000Y110650D02*
G03X182350Y110000I0J-650D01*
G01X183000Y110650D02*
X189000D01*
X189650Y110000D02*
G03X189000Y110650I-650J0D01*
G01X193200Y118700D02*
G03X193200I-1900J0D01*
G01Y122700D02*
G03X193200I-1900J0D01*
G01Y130700D02*
G03X193200I-1900J0D01*
G01Y140700D02*
G03X193200I-1900J0D01*
G01Y150700D02*
G03X193200I-1900J0D01*
G01Y158700D02*
G03X193200I-1900J0D01*
G01X189200Y118700D02*
G03X189200I-1900J0D01*
G01Y122700D02*
G03X189200I-1900J0D01*
G01Y130700D02*
G03X189200I-1900J0D01*
G01Y140700D02*
G03X189200I-1900J0D01*
G01Y150700D02*
G03X189200I-1900J0D01*
G01Y158700D02*
G03X189200I-1900J0D01*
G01X185200Y118700D02*
G03X185200I-1900J0D01*
G01Y122700D02*
G03X185200I-1900J0D01*
G01Y126700D02*
G03X185200I-1900J0D01*
G01Y130700D02*
G03X185200I-1900J0D01*
G01Y134700D02*
G03X185200I-1900J0D01*
G01Y138700D02*
G03X185200I-1900J0D01*
G01Y142700D02*
G03X185200I-1900J0D01*
G01Y146700D02*
G03X185200I-1900J0D01*
G01Y150700D02*
G03X185200I-1900J0D01*
G01Y154700D02*
G03X185200I-1900J0D01*
G01Y158700D02*
G03X185200I-1900J0D01*
G01X179650Y110000D02*
Y104000D01*
X179000Y103350D02*
G03X179650Y104000I0J650D01*
G01X179000Y103350D02*
X173000D01*
X172350Y104000D02*
G03X173000Y103350I650J0D01*
G01X172350Y104000D02*
Y110000D01*
X173000Y110650D02*
G03X172350Y110000I0J-650D01*
G01X173000Y110650D02*
X179000D01*
X179650Y110000D02*
G03X179000Y110650I-650J0D01*
G01X181200Y118700D02*
G03X181200I-1900J0D01*
G01X177200D02*
G03X177200I-1900J0D01*
G01X169650Y110000D02*
Y104000D01*
X169000Y103350D02*
G03X169650Y104000I0J650D01*
G01X169000Y103350D02*
X163000D01*
X162350Y104000D02*
G03X163000Y103350I650J0D01*
G01X162350Y104000D02*
Y110000D01*
X163000Y110650D02*
G03X162350Y110000I0J-650D01*
G01X163000Y110650D02*
X169000D01*
X169650Y110000D02*
G03X169000Y110650I-650J0D01*
G01X167095Y150862D02*
G03Y152538I1705J838D01*
G01Y150862D02*
G03X167005I-45J-22D01*
G01Y152538D02*
G03Y150862I-1705J-838D01*
G01Y152538D02*
G03X167095I45J22D01*
G01X170700Y157200D02*
G03X170700I-1900J0D01*
G01X159650Y110000D02*
Y104000D01*
X159000Y103350D02*
G03X159650Y104000I0J650D01*
G01X159000Y103350D02*
X153000D01*
X152350Y104000D02*
G03X153000Y103350I650J0D01*
G01X152350Y104000D02*
Y110000D01*
X153000Y110650D02*
G03X152350Y110000I0J-650D01*
G01X153000Y110650D02*
X159000D01*
X159650Y110000D02*
G03X159000Y110650I-650J0D01*
G01X157200Y112700D02*
G03X157200I-1900J0D01*
G01X153200D02*
G03X153200I-1900J0D01*
G01X149200D02*
G03X149200I-1900J0D01*
G01X142900Y106000D02*
G03X142900I-1900J0D01*
G01X145200Y112700D02*
G03X145200I-1900J0D01*
G01X141200D02*
G03X141200I-1900J0D01*
G01X136900Y112600D02*
G03X136900I-1900J0D01*
G01X132700Y112500D02*
G03X132700I-1900J0D01*
G01X127700D02*
G03X127700I-1900J0D01*
G01X119650Y109000D02*
Y103000D01*
X119000Y102350D02*
G03X119650Y103000I0J650D01*
G01X119000Y102350D02*
X113000D01*
X112350Y103000D02*
G03X113000Y102350I650J0D01*
G01X112350Y103000D02*
Y109000D01*
X113000Y109650D02*
G03X112350Y109000I0J-650D01*
G01X113000Y109650D02*
X119000D01*
X119650Y109000D02*
G03X119000Y109650I-650J0D01*
G01X123200Y112400D02*
G03X123200I-1900J0D01*
G01X117300Y112600D02*
G03X117300I-1900J0D01*
G01X109650Y109000D02*
Y103000D01*
X109000Y102350D02*
G03X109650Y103000I0J650D01*
G01X109000Y102350D02*
X103000D01*
X102350Y103000D02*
G03X103000Y102350I650J0D01*
G01X102350Y103000D02*
Y109000D01*
X103000Y109650D02*
G03X102350Y109000I0J-650D01*
G01X103000Y109650D02*
X109000D01*
X109650Y109000D02*
G03X109000Y109650I-650J0D01*
G01X111900Y112600D02*
G03X111900I-1900J0D01*
G01X106900D02*
G03X106900I-1900J0D01*
G01X159350Y160819D02*
X233950D01*
X159350Y160729D02*
X233950D01*
X159350Y160639D02*
X233950D01*
X203739Y160549D02*
X233950D01*
X204019Y160459D02*
X233950D01*
X204209Y160369D02*
X233950D01*
X204357Y160279D02*
X233950D01*
X204481Y160189D02*
X233950D01*
X204586Y160099D02*
X233950D01*
X204677Y160009D02*
X233950D01*
X204758Y159919D02*
X233950D01*
X204828Y159829D02*
X233950D01*
X204891Y159739D02*
X233950D01*
X204946Y159649D02*
X233950D01*
X204995Y159559D02*
X233950D01*
X205038Y159469D02*
X233950D01*
X205075Y159379D02*
X233950D01*
X205107Y159289D02*
X233950D01*
X205133Y159199D02*
X233950D01*
X205156Y159109D02*
X233950D01*
X205173Y159019D02*
X233950D01*
X205186Y158929D02*
X233950D01*
X205195Y158839D02*
X233950D01*
X205199Y158749D02*
X233950D01*
X205200Y158659D02*
X233950D01*
X205195Y158569D02*
X233950D01*
X205187Y158479D02*
X233950D01*
X205174Y158389D02*
X233950D01*
X205157Y158299D02*
X233950D01*
X205135Y158209D02*
X233950D01*
X205109Y158119D02*
X233950D01*
X205077Y158029D02*
X233950D01*
X205041Y157939D02*
X233950D01*
X204999Y157849D02*
X233950D01*
X204950Y157759D02*
X233950D01*
X204896Y157669D02*
X233950D01*
X204834Y157579D02*
X233950D01*
X204764Y157489D02*
X233950D01*
X204684Y157399D02*
X233950D01*
X204594Y157309D02*
X233950D01*
X204490Y157219D02*
X233950D01*
X204368Y157129D02*
X233950D01*
X204222Y157039D02*
X233950D01*
X204037Y156949D02*
X233950D01*
X203769Y156859D02*
X233950D01*
X170650Y156769D02*
X233950D01*
X170627Y156679D02*
X233950D01*
X203507Y156589D02*
X233950D01*
X203912Y156499D02*
X233950D01*
X204131Y156409D02*
X233950D01*
X204295Y156319D02*
X233950D01*
X204428Y156229D02*
X233950D01*
X204541Y156139D02*
X233950D01*
X204638Y156049D02*
X233950D01*
X204723Y155959D02*
X233950D01*
X204798Y155869D02*
X233950D01*
X219784Y155779D02*
X233950D01*
X220141Y155689D02*
X233950D01*
X220351Y155599D02*
X233950D01*
X220511Y155509D02*
X233950D01*
X220642Y155419D02*
X233950D01*
X220753Y155329D02*
X233950D01*
X220848Y155239D02*
X233950D01*
X220932Y155149D02*
X233950D01*
X221006Y155059D02*
X233950D01*
X221071Y154969D02*
X233950D01*
X221129Y154879D02*
X233950D01*
X221179Y154789D02*
X233950D01*
X221224Y154699D02*
X233950D01*
X221263Y154609D02*
X233950D01*
X221296Y154519D02*
X233950D01*
X221325Y154429D02*
X233950D01*
X221349Y154339D02*
X233950D01*
X221368Y154249D02*
X233950D01*
X221382Y154159D02*
X233950D01*
X221393Y154069D02*
X233950D01*
X221398Y153979D02*
X233950D01*
X221400Y153889D02*
X233950D01*
X221397Y153799D02*
X233950D01*
X221390Y153709D02*
X233950D01*
X221379Y153619D02*
X233950D01*
X221363Y153529D02*
X233950D01*
X221343Y153439D02*
X233950D01*
X221318Y153349D02*
X233950D01*
X221289Y153259D02*
X233950D01*
X221254Y153169D02*
X233950D01*
X221213Y153079D02*
X233950D01*
X221167Y152989D02*
X233950D01*
X221115Y152899D02*
X233950D01*
X221055Y152809D02*
X233950D01*
X220988Y152719D02*
X233950D01*
X220912Y152629D02*
X233950D01*
X220825Y152539D02*
X233950D01*
X220726Y152449D02*
X233950D01*
X220611Y152359D02*
X233950D01*
X220474Y152269D02*
X233950D01*
X220304Y152179D02*
X233950D01*
X220074Y152089D02*
X233950D01*
X204687Y151999D02*
X233950D01*
X204766Y151909D02*
X233950D01*
X204836Y151819D02*
X233950D01*
X204897Y151729D02*
X233950D01*
X204952Y151639D02*
X233950D01*
X205000Y151549D02*
X233950D01*
X205042Y151459D02*
X233950D01*
X205078Y151369D02*
X233950D01*
X205110Y151279D02*
X233950D01*
X205136Y151189D02*
X233950D01*
X205158Y151099D02*
X233950D01*
X205175Y151009D02*
X233950D01*
X205187Y150919D02*
X233950D01*
X205196Y150829D02*
X233950D01*
X205200Y150739D02*
X233950D01*
X205199Y150649D02*
X233950D01*
X205195Y150559D02*
X233950D01*
X205186Y150469D02*
X233950D01*
X205173Y150379D02*
X233950D01*
X205155Y150289D02*
X233950D01*
X205133Y150199D02*
X233950D01*
X205106Y150109D02*
X233950D01*
X205074Y150019D02*
X233950D01*
X205036Y149929D02*
X233950D01*
X204994Y149839D02*
X233950D01*
X204945Y149749D02*
X233950D01*
X204889Y149659D02*
X233950D01*
X233315Y149569D02*
X233950D01*
X233440Y149479D02*
X233950D01*
X233521Y149389D02*
X233950D01*
X233577Y149299D02*
X233950D01*
X233616Y149209D02*
X233950D01*
X233639Y149119D02*
X233950D01*
X233649Y149029D02*
X233950D01*
X233650Y148939D02*
X233950D01*
X233650Y148849D02*
X233950D01*
X233650Y148759D02*
X233950D01*
X233650Y148669D02*
X233950D01*
X233650Y148579D02*
X233950D01*
X233650Y148489D02*
X233950D01*
X233650Y148399D02*
X233950D01*
X233650Y148309D02*
X233950D01*
X233650Y148219D02*
X233950D01*
X233650Y148129D02*
X233950D01*
X233650Y148039D02*
X233950D01*
X233650Y147949D02*
X233950D01*
X233650Y147859D02*
X233950D01*
X233650Y147769D02*
X233950D01*
X233650Y147679D02*
X233950D01*
X233650Y147589D02*
X233950D01*
X233650Y147499D02*
X233950D01*
X233650Y147409D02*
X233950D01*
X233650Y147319D02*
X233950D01*
X233650Y147229D02*
X233950D01*
X233650Y147139D02*
X233950D01*
X233650Y147049D02*
X233950D01*
X233650Y146959D02*
X233950D01*
X233650Y146869D02*
X233950D01*
X233650Y146779D02*
X233950D01*
X233650Y146689D02*
X233950D01*
X233650Y146599D02*
X233950D01*
X233650Y146509D02*
X233950D01*
X233650Y146419D02*
X233950D01*
X233650Y146329D02*
X233950D01*
X233650Y146239D02*
X233950D01*
X233650Y146149D02*
X233950D01*
X233650Y146059D02*
X233950D01*
X233650Y145969D02*
X233950D01*
X233650Y145879D02*
X233950D01*
X233650Y145789D02*
X233950D01*
X233650Y145699D02*
X233950D01*
X233650Y145609D02*
X233950D01*
X233650Y145519D02*
X233950D01*
X233650Y145429D02*
X233950D01*
X233650Y145339D02*
X233950D01*
X233650Y145249D02*
X233950D01*
X233650Y145159D02*
X233950D01*
X233650Y145069D02*
X233950D01*
X233650Y144979D02*
X233950D01*
X233650Y144889D02*
X233950D01*
X233650Y144799D02*
X233950D01*
X233650Y144709D02*
X233950D01*
X233650Y144619D02*
X233950D01*
X233650Y144529D02*
X233950D01*
X233650Y144439D02*
X233950D01*
X233650Y144349D02*
X233950D01*
X233650Y144259D02*
X233950D01*
X233650Y144169D02*
X233950D01*
X233650Y144079D02*
X233950D01*
X233650Y143989D02*
X233950D01*
X233650Y143899D02*
X233950D01*
X233650Y143809D02*
X233950D01*
X233650Y143719D02*
X233950D01*
X233650Y143629D02*
X233950D01*
X233650Y143539D02*
X233950D01*
X233650Y143449D02*
X233950D01*
X233650Y143359D02*
X233950D01*
X233650Y143269D02*
X233950D01*
X233650Y143179D02*
X233950D01*
X233650Y143089D02*
X233950D01*
X233650Y142999D02*
X233950D01*
X233644Y142909D02*
X233950D01*
X233624Y142819D02*
X233950D01*
X233591Y142729D02*
X233950D01*
X233540Y142639D02*
X233950D01*
X233468Y142549D02*
X233950D01*
X233360Y142459D02*
X233950D01*
X233155Y142369D02*
X233950D01*
X205153Y142279D02*
X233950D01*
X205130Y142189D02*
X233950D01*
X205102Y142099D02*
X233950D01*
X205070Y142009D02*
X233950D01*
X205032Y141919D02*
X233950D01*
X204988Y141829D02*
X233950D01*
X204939Y141739D02*
X233950D01*
X204883Y141649D02*
X233950D01*
X204819Y141559D02*
X233950D01*
X204747Y141469D02*
X233950D01*
X204665Y141379D02*
X233950D01*
X204572Y141289D02*
X233950D01*
X204465Y141199D02*
X233950D01*
X204338Y141109D02*
X233950D01*
X204185Y141019D02*
X233950D01*
X203987Y140929D02*
X233950D01*
X203682Y140839D02*
X233950D01*
X201199Y140749D02*
X233950D01*
X201200Y140659D02*
X233950D01*
X203644Y140569D02*
X233950D01*
X203968Y140479D02*
X233950D01*
X204171Y140389D02*
X233950D01*
X204327Y140299D02*
X233950D01*
X204455Y140209D02*
X233950D01*
X204564Y140119D02*
X233950D01*
X204658Y140029D02*
X233950D01*
X204741Y139939D02*
X233950D01*
X204813Y139849D02*
X233950D01*
X204878Y139759D02*
X233950D01*
X204935Y139669D02*
X233950D01*
X233296Y139579D02*
X233950D01*
X233429Y139489D02*
X233950D01*
X233513Y139399D02*
X233950D01*
X233572Y139309D02*
X233950D01*
X233612Y139219D02*
X233950D01*
X233637Y139129D02*
X233950D01*
X233649Y139039D02*
X233950D01*
X233650Y138949D02*
X233950D01*
X233650Y138859D02*
X233950D01*
X233650Y138769D02*
X233950D01*
X233650Y138679D02*
X233950D01*
X233650Y138589D02*
X233950D01*
X233650Y138499D02*
X233950D01*
X233650Y138409D02*
X233950D01*
X233650Y138319D02*
X233950D01*
X233650Y138229D02*
X233950D01*
X233650Y138139D02*
X233950D01*
X233650Y138049D02*
X233950D01*
X233650Y137959D02*
X233950D01*
X233650Y137869D02*
X233950D01*
X233650Y137779D02*
X233950D01*
X233650Y137689D02*
X233950D01*
X233650Y137599D02*
X233950D01*
X233650Y137509D02*
X233950D01*
X233650Y137419D02*
X233950D01*
X233650Y137329D02*
X233950D01*
X233650Y137239D02*
X233950D01*
X233650Y137149D02*
X233950D01*
X233650Y137059D02*
X233950D01*
X233650Y136969D02*
X233950D01*
X233650Y136879D02*
X233950D01*
X233650Y136789D02*
X233950D01*
X233650Y136699D02*
X233950D01*
X233650Y136609D02*
X233950D01*
X233650Y136519D02*
X233950D01*
X233650Y136429D02*
X233950D01*
X233650Y136339D02*
X233950D01*
X233650Y136249D02*
X233950D01*
X233650Y136159D02*
X233950D01*
X233650Y136069D02*
X233950D01*
X233650Y135979D02*
X233950D01*
X233650Y135889D02*
X233950D01*
X233650Y135799D02*
X233950D01*
X233650Y135709D02*
X233950D01*
X233650Y135619D02*
X233950D01*
X233650Y135529D02*
X233950D01*
X233650Y135439D02*
X233950D01*
X233650Y135349D02*
X233950D01*
X233650Y135259D02*
X233950D01*
X233650Y135169D02*
X233950D01*
X233650Y135079D02*
X233950D01*
X233650Y134989D02*
X233950D01*
X233650Y134899D02*
X233950D01*
X233650Y134809D02*
X233950D01*
X233650Y134719D02*
X233950D01*
X233650Y134629D02*
X233950D01*
X233650Y134539D02*
X233950D01*
X233650Y134449D02*
X233950D01*
X233650Y134359D02*
X233950D01*
X233650Y134269D02*
X233950D01*
X233650Y134179D02*
X233950D01*
X233650Y134089D02*
X233950D01*
X233650Y133999D02*
X233950D01*
X233650Y133909D02*
X233950D01*
X233650Y133819D02*
X233950D01*
X233650Y133729D02*
X233950D01*
X233650Y133639D02*
X233950D01*
X233650Y133549D02*
X233950D01*
X233650Y133459D02*
X233950D01*
X233650Y133369D02*
X233950D01*
X233650Y133279D02*
X233950D01*
X233650Y133189D02*
X233950D01*
X233650Y133099D02*
X233950D01*
X233650Y133009D02*
X233950D01*
X233645Y132919D02*
X233950D01*
X233627Y132829D02*
X233950D01*
X233595Y132739D02*
X233950D01*
X233547Y132649D02*
X233950D01*
X233477Y132559D02*
X233950D01*
X233374Y132469D02*
X233950D01*
X233191Y132379D02*
X233950D01*
X204342Y132289D02*
X233950D01*
X204468Y132199D02*
X233950D01*
X204575Y132109D02*
X233950D01*
X204668Y132019D02*
X233950D01*
X204749Y131929D02*
X233950D01*
X204821Y131839D02*
X233950D01*
X204884Y131749D02*
X233950D01*
X204940Y131659D02*
X233950D01*
X204990Y131569D02*
X233950D01*
X205033Y131479D02*
X233950D01*
X205071Y131389D02*
X233950D01*
X205103Y131299D02*
X233950D01*
X205131Y131209D02*
X233950D01*
X205153Y131119D02*
X233950D01*
X205171Y131029D02*
X233950D01*
X205185Y130939D02*
X233950D01*
X205194Y130849D02*
X233950D01*
X205199Y130759D02*
X233950D01*
X205200Y130669D02*
X233950D01*
X205196Y130579D02*
X233950D01*
X205188Y130489D02*
X233950D01*
X205176Y130399D02*
X233950D01*
X205159Y130309D02*
X233950D01*
X205138Y130219D02*
X233950D01*
X205112Y130129D02*
X233950D01*
X205081Y130039D02*
X233950D01*
X205045Y129949D02*
X233950D01*
X205004Y129859D02*
X233950D01*
X204956Y129769D02*
X233950D01*
X204902Y129679D02*
X233950D01*
X233276Y129589D02*
X233950D01*
X233417Y129499D02*
X233950D01*
X233505Y129409D02*
X233950D01*
X233567Y129319D02*
X233950D01*
X233608Y129229D02*
X233950D01*
X233635Y129139D02*
X233950D01*
X233648Y129049D02*
X233950D01*
X233650Y128959D02*
X233950D01*
X233650Y128869D02*
X233950D01*
X233650Y128779D02*
X233950D01*
X233650Y128689D02*
X233950D01*
X233650Y128599D02*
X233950D01*
X233650Y128509D02*
X233950D01*
X233650Y128419D02*
X233950D01*
X233650Y128329D02*
X233950D01*
X233650Y128239D02*
X233950D01*
X233650Y128149D02*
X233950D01*
X233650Y128059D02*
X233950D01*
X233650Y127969D02*
X233950D01*
X233650Y127879D02*
X233950D01*
X233650Y127789D02*
X233950D01*
X233650Y127699D02*
X233950D01*
X233650Y127609D02*
X233950D01*
X233650Y127519D02*
X233950D01*
X233650Y127429D02*
X233950D01*
X233650Y127339D02*
X233950D01*
X233650Y127249D02*
X233950D01*
X233650Y127159D02*
X233950D01*
X233650Y127069D02*
X233950D01*
X233650Y126979D02*
X233950D01*
X233650Y126889D02*
X233950D01*
X233650Y126799D02*
X233950D01*
X233650Y126709D02*
X233950D01*
X233650Y126619D02*
X233950D01*
X233650Y126529D02*
X233950D01*
X233650Y126439D02*
X233950D01*
X233650Y126349D02*
X233950D01*
X233650Y126259D02*
X233950D01*
X233650Y126169D02*
X233950D01*
X233650Y126079D02*
X233950D01*
X233650Y125989D02*
X233950D01*
X233650Y125899D02*
X233950D01*
X233650Y125809D02*
X233950D01*
X233650Y125719D02*
X233950D01*
X233650Y125629D02*
X233950D01*
X233650Y125539D02*
X233950D01*
X233650Y125449D02*
X233950D01*
X233650Y125359D02*
X233950D01*
X233650Y125269D02*
X233950D01*
X233650Y125179D02*
X233950D01*
X233650Y125089D02*
X233950D01*
X233650Y124999D02*
X233950D01*
X233650Y124909D02*
X233950D01*
X233650Y124819D02*
X233950D01*
X233650Y124729D02*
X233950D01*
X233650Y124639D02*
X233950D01*
X233650Y124549D02*
X233950D01*
X233650Y124459D02*
X233950D01*
X233650Y124369D02*
X233950D01*
X233650Y124279D02*
X233950D01*
X233650Y124189D02*
X233950D01*
X233650Y124099D02*
X233950D01*
X233650Y124009D02*
X233950D01*
X233650Y123919D02*
X233950D01*
X233650Y123829D02*
X233950D01*
X233650Y123739D02*
X233950D01*
X233650Y123649D02*
X233950D01*
X233650Y123559D02*
X233950D01*
X233650Y123469D02*
X233950D01*
X233650Y123379D02*
X233950D01*
X233650Y123289D02*
X233950D01*
X233650Y123199D02*
X233950D01*
X233650Y123109D02*
X233950D01*
X233650Y123019D02*
X233950D01*
X233646Y122929D02*
X233950D01*
X233630Y122839D02*
X233950D01*
X233599Y122749D02*
X233950D01*
X233553Y122659D02*
X233950D01*
X233486Y122569D02*
X233950D01*
X233388Y122479D02*
X233950D01*
X233221Y122389D02*
X233950D01*
X205157Y122299D02*
X233950D01*
X205135Y122209D02*
X233950D01*
X205109Y122119D02*
X233950D01*
X205077Y122029D02*
X233950D01*
X205041Y121939D02*
X233950D01*
X204999Y121849D02*
X233950D01*
X204950Y121759D02*
X233950D01*
X204896Y121669D02*
X233950D01*
X204834Y121579D02*
X233950D01*
X204764Y121489D02*
X233950D01*
X204684Y121399D02*
X233950D01*
X204594Y121309D02*
X233950D01*
X204490Y121219D02*
X233950D01*
X204368Y121129D02*
X233950D01*
X204222Y121039D02*
X233950D01*
X204037Y120949D02*
X233950D01*
X203769Y120859D02*
X233950D01*
X159350Y120769D02*
X233950D01*
X159350Y120679D02*
X233950D01*
X215507Y120589D02*
X233950D01*
X215912Y120499D02*
X233950D01*
X216131Y120409D02*
X233950D01*
X216295Y120319D02*
X233950D01*
X216428Y120229D02*
X233950D01*
X216541Y120139D02*
X233950D01*
X216638Y120049D02*
X233950D01*
X216723Y119959D02*
X233950D01*
X216798Y119869D02*
X233950D01*
X216864Y119779D02*
X233950D01*
X216923Y119689D02*
X233950D01*
X233253Y119599D02*
X233950D01*
X233405Y119509D02*
X233950D01*
X233497Y119419D02*
X233950D01*
X233561Y119329D02*
X233950D01*
X233605Y119239D02*
X233950D01*
X233633Y119149D02*
X233950D01*
X233647Y119059D02*
X233950D01*
X233650Y118969D02*
X233950D01*
X233650Y118879D02*
X233950D01*
X233650Y118789D02*
X233950D01*
X233650Y118699D02*
X233950D01*
X233650Y118609D02*
X233950D01*
X233650Y118519D02*
X233950D01*
X233650Y118429D02*
X233950D01*
X233650Y118339D02*
X233950D01*
X233650Y118249D02*
X233950D01*
X233650Y118159D02*
X233950D01*
X233650Y118069D02*
X233950D01*
X233650Y117979D02*
X233950D01*
X233650Y117889D02*
X233950D01*
X233650Y117799D02*
X233950D01*
X233650Y117709D02*
X233950D01*
X233650Y117619D02*
X233950D01*
X233650Y117529D02*
X233950D01*
X233650Y117439D02*
X233950D01*
X233650Y117349D02*
X233950D01*
X233650Y117259D02*
X233950D01*
X233650Y117169D02*
X233950D01*
X233650Y117079D02*
X233950D01*
X233650Y116989D02*
X233950D01*
X233650Y116899D02*
X233950D01*
X233650Y116809D02*
X233950D01*
X233650Y116719D02*
X233950D01*
X233650Y116629D02*
X233950D01*
X233650Y116539D02*
X233950D01*
X233650Y116449D02*
X233950D01*
X233650Y116359D02*
X233950D01*
X233650Y116269D02*
X233950D01*
X233650Y116179D02*
X233950D01*
X233650Y116089D02*
X233950D01*
X233650Y115999D02*
X233950D01*
X233650Y115909D02*
X233950D01*
X233650Y115819D02*
X233950D01*
X233650Y115729D02*
X233950D01*
X233650Y115639D02*
X233950D01*
X233650Y115549D02*
X233950D01*
X233650Y115459D02*
X233950D01*
X233650Y115369D02*
X233950D01*
X233650Y115279D02*
X233950D01*
X233650Y115189D02*
X233950D01*
X233650Y115099D02*
X233950D01*
X233650Y115009D02*
X233950D01*
X233650Y114919D02*
X233950D01*
X233650Y114829D02*
X233950D01*
X233650Y114739D02*
X233950D01*
X233650Y114649D02*
X233950D01*
X233650Y114559D02*
X233950D01*
X233650Y114469D02*
X233950D01*
X233650Y114379D02*
X233950D01*
X233650Y114289D02*
X233950D01*
X233650Y114199D02*
X233950D01*
X233650Y114109D02*
X233950D01*
X233650Y114019D02*
X233950D01*
X233650Y113929D02*
X233950D01*
X233650Y113839D02*
X233950D01*
X233650Y113749D02*
X233950D01*
X233650Y113659D02*
X233950D01*
X233650Y113569D02*
X233950D01*
X233650Y113479D02*
X233950D01*
X233650Y113389D02*
X233950D01*
X233650Y113299D02*
X233950D01*
X233650Y113209D02*
X233950D01*
X233650Y113119D02*
X233950D01*
X233650Y113029D02*
X233950D01*
X233647Y112939D02*
X233950D01*
X233632Y112849D02*
X233950D01*
X233604Y112759D02*
X233950D01*
X233559Y112669D02*
X233950D01*
X233495Y112579D02*
X233950D01*
X233401Y112489D02*
X233950D01*
X233247Y112399D02*
X233950D01*
X220311Y112309D02*
X233950D01*
X220442Y112219D02*
X233950D01*
X220553Y112129D02*
X233950D01*
X220648Y112039D02*
X233950D01*
X220732Y111949D02*
X233950D01*
X220806Y111859D02*
X233950D01*
X220871Y111769D02*
X233950D01*
X220929Y111679D02*
X233950D01*
X220979Y111589D02*
X233950D01*
X221024Y111499D02*
X233950D01*
X221063Y111409D02*
X233950D01*
X221096Y111319D02*
X233950D01*
X221125Y111229D02*
X233950D01*
X221149Y111139D02*
X233950D01*
X221168Y111049D02*
X233950D01*
X221182Y110959D02*
X233950D01*
X221193Y110869D02*
X233950D01*
X221198Y110779D02*
X233950D01*
X221200Y110689D02*
X233950D01*
X221197Y110599D02*
X233950D01*
X221190Y110509D02*
X233950D01*
X221179Y110419D02*
X233950D01*
X221163Y110329D02*
X233950D01*
X221143Y110239D02*
X233950D01*
X221118Y110149D02*
X233950D01*
X221089Y110059D02*
X233950D01*
X221054Y109969D02*
X233950D01*
X221013Y109879D02*
X233950D01*
X220967Y109789D02*
X233950D01*
X220915Y109699D02*
X233950D01*
X233228Y109609D02*
X233950D01*
X233392Y109519D02*
X233950D01*
X233489Y109429D02*
X233950D01*
X233555Y109339D02*
X233950D01*
X233601Y109249D02*
X233950D01*
X233630Y109159D02*
X233950D01*
X233646Y109069D02*
X233950D01*
X233650Y108979D02*
X233950D01*
X233650Y108889D02*
X233950D01*
X233650Y108799D02*
X233950D01*
X233650Y108709D02*
X233950D01*
X233650Y108619D02*
X233950D01*
X233650Y108529D02*
X233950D01*
X233650Y108439D02*
X233950D01*
X233650Y108349D02*
X233950D01*
X233650Y108259D02*
X233950D01*
X233650Y108169D02*
X233950D01*
X233650Y108079D02*
X233950D01*
X233650Y107989D02*
X233950D01*
X233650Y107899D02*
X233950D01*
X233650Y107809D02*
X233950D01*
X233650Y107719D02*
X233950D01*
X233650Y107629D02*
X233950D01*
X233650Y107539D02*
X233950D01*
X233650Y107449D02*
X233950D01*
X233650Y107359D02*
X233950D01*
X233650Y107269D02*
X233950D01*
X233650Y107179D02*
X233950D01*
X233650Y107089D02*
X233950D01*
X233650Y106999D02*
X233950D01*
X233650Y106909D02*
X233950D01*
X233650Y106819D02*
X233950D01*
X233650Y106729D02*
X233950D01*
X233650Y106639D02*
X233950D01*
X233650Y106549D02*
X233950D01*
X233650Y106459D02*
X233950D01*
X233650Y106369D02*
X233950D01*
X233650Y106279D02*
X233950D01*
X233650Y106189D02*
X233950D01*
X233650Y106099D02*
X233950D01*
X233650Y106009D02*
X233950D01*
X233650Y105919D02*
X233950D01*
X233650Y105829D02*
X233950D01*
X233650Y105739D02*
X233950D01*
X233650Y105649D02*
X233950D01*
X233650Y105559D02*
X233950D01*
X233650Y105469D02*
X233950D01*
X233650Y105379D02*
X233950D01*
X233650Y105289D02*
X233950D01*
X233650Y105199D02*
X233950D01*
X233650Y105109D02*
X233950D01*
X233650Y105019D02*
X233950D01*
X233650Y104929D02*
X233950D01*
X233650Y104839D02*
X233950D01*
X233650Y104749D02*
X233950D01*
X233650Y104659D02*
X233950D01*
X233650Y104569D02*
X233950D01*
X233650Y104479D02*
X233950D01*
X233650Y104389D02*
X233950D01*
X233650Y104299D02*
X233950D01*
X233650Y104209D02*
X233950D01*
X233650Y104119D02*
X233950D01*
X233650Y104029D02*
X233950D01*
X233650Y103939D02*
X233950D01*
X233650Y103849D02*
X233950D01*
X233650Y103759D02*
X233950D01*
X233650Y103669D02*
X233950D01*
X233650Y103579D02*
X233950D01*
X233650Y103489D02*
X233950D01*
X233650Y103399D02*
X233950D01*
X233650Y103309D02*
X233950D01*
X233650Y103219D02*
X233950D01*
X233650Y103129D02*
X233950D01*
X233650Y103039D02*
X233950D01*
X233648Y102949D02*
X233950D01*
X233634Y102859D02*
X233950D01*
X233607Y102769D02*
X233950D01*
X233565Y102679D02*
X233950D01*
X233503Y102589D02*
X233950D01*
X233414Y102499D02*
X233950D01*
X233270Y102409D02*
X233950D01*
X102050Y102319D02*
X233950D01*
X102050Y102229D02*
X233950D01*
X102050Y102139D02*
X233950D01*
X159351Y160909D02*
X233949D01*
X205171Y142369D02*
X226845D01*
X204190Y132379D02*
X226809D01*
X205174Y122389D02*
X226779D01*
X220855Y109609D02*
X226772D01*
X220151Y112399D02*
X226753D01*
X216974Y119599D02*
X226747D01*
X119270Y102409D02*
X226730D01*
X204841Y129589D02*
X226724D01*
X204985Y139579D02*
X226704D01*
X204827Y149569D02*
X226685D01*
X205185Y142459D02*
X226640D01*
X203994Y132469D02*
X226626D01*
X205187Y122479D02*
X226612D01*
X220788Y109519D02*
X226608D01*
X219941Y112489D02*
X226599D01*
X217019Y119509D02*
X226595D01*
X119414Y102499D02*
X226586D01*
X204772Y129499D02*
X226583D01*
X205029Y139489D02*
X226571D01*
X204755Y149479D02*
X226560D01*
X205194Y142549D02*
X226532D01*
X203694Y132559D02*
X226523D01*
X205195Y122569D02*
X226514D01*
X220712Y109429D02*
X226511D01*
X219584Y112579D02*
X226505D01*
X217059Y119419D02*
X226503D01*
X119503Y102589D02*
X226497D01*
X204694Y129409D02*
X226495D01*
X205067Y139399D02*
X226487D01*
X204675Y149389D02*
X226479D01*
X205199Y142639D02*
X226460D01*
X161883Y132649D02*
X226453D01*
X205200Y122659D02*
X226447D01*
X220625Y109339D02*
X226445D01*
X160950Y112669D02*
X226441D01*
X217093Y119329D02*
X226439D01*
X119565Y102679D02*
X226435D01*
X204605Y129319D02*
X226433D01*
X205100Y139309D02*
X226428D01*
X204583Y149299D02*
X226423D01*
X205200Y142729D02*
X226409D01*
X161939Y132739D02*
X226405D01*
X205199Y122749D02*
X226401D01*
X220526Y109249D02*
X226399D01*
X161046Y112759D02*
X226396D01*
X217122Y119239D02*
X226395D01*
X119607Y102769D02*
X226393D01*
X204502Y129229D02*
X226392D01*
X205128Y139219D02*
X226388D01*
X204477Y149209D02*
X226384D01*
X205196Y142819D02*
X226376D01*
X203629Y132829D02*
X226373D01*
X205195Y122839D02*
X226370D01*
X220411Y109159D02*
X226370D01*
X215727Y112849D02*
X226368D01*
X217146Y119149D02*
X226367D01*
X119634Y102859D02*
X226366D01*
X204383Y129139D02*
X226365D01*
X205151Y139129D02*
X226363D01*
X204353Y149119D02*
X226361D01*
X205189Y142909D02*
X226356D01*
X203961Y132919D02*
X226355D01*
X205186Y122929D02*
X226354D01*
X220274Y109069D02*
X226354D01*
X216013Y112939D02*
X226353D01*
X217166Y119059D02*
X226353D01*
X119648Y102949D02*
X226352D01*
X204240Y129049D02*
X226352D01*
X205170Y139039D02*
X226351D01*
X204204Y149029D02*
X226351D01*
X205176Y142999D02*
X226350D01*
X204013Y148939D02*
X226350D01*
X203727Y148849D02*
X226350D01*
X159350Y148759D02*
X226350D01*
X159350Y148669D02*
X226350D01*
X203584Y148579D02*
X226350D01*
X203941Y148489D02*
X226350D01*
X204151Y148399D02*
X226350D01*
X204311Y148309D02*
X226350D01*
X204442Y148219D02*
X226350D01*
X204553Y148129D02*
X226350D01*
X204648Y148039D02*
X226350D01*
X204732Y147949D02*
X226350D01*
X204806Y147859D02*
X226350D01*
X204871Y147769D02*
X226350D01*
X204929Y147679D02*
X226350D01*
X204979Y147589D02*
X226350D01*
X205024Y147499D02*
X226350D01*
X205063Y147409D02*
X226350D01*
X205096Y147319D02*
X226350D01*
X205125Y147229D02*
X226350D01*
X205149Y147139D02*
X226350D01*
X205168Y147049D02*
X226350D01*
X205182Y146959D02*
X226350D01*
X205193Y146869D02*
X226350D01*
X205198Y146779D02*
X226350D01*
X205200Y146689D02*
X226350D01*
X205197Y146599D02*
X226350D01*
X205190Y146509D02*
X226350D01*
X205179Y146419D02*
X226350D01*
X205163Y146329D02*
X226350D01*
X205143Y146239D02*
X226350D01*
X205118Y146149D02*
X226350D01*
X205089Y146059D02*
X226350D01*
X205054Y145969D02*
X226350D01*
X205013Y145879D02*
X226350D01*
X204967Y145789D02*
X226350D01*
X204915Y145699D02*
X226350D01*
X204855Y145609D02*
X226350D01*
X204788Y145519D02*
X226350D01*
X204712Y145429D02*
X226350D01*
X204625Y145339D02*
X226350D01*
X204526Y145249D02*
X226350D01*
X204411Y145159D02*
X226350D01*
X204274Y145069D02*
X226350D01*
X204104Y144979D02*
X226350D01*
X203874Y144889D02*
X226350D01*
X159350Y144799D02*
X226350D01*
X159350Y144709D02*
X226350D01*
X159350Y144619D02*
X226350D01*
X203816Y144529D02*
X226350D01*
X204066Y144439D02*
X226350D01*
X204244Y144349D02*
X226350D01*
X204387Y144259D02*
X226350D01*
X204505Y144169D02*
X226350D01*
X204607Y144079D02*
X226350D01*
X204696Y143989D02*
X226350D01*
X204774Y143899D02*
X226350D01*
X204843Y143809D02*
X226350D01*
X204904Y143719D02*
X226350D01*
X204958Y143629D02*
X226350D01*
X205005Y143539D02*
X226350D01*
X205046Y143449D02*
X226350D01*
X205082Y143359D02*
X226350D01*
X205113Y143269D02*
X226350D01*
X205139Y143179D02*
X226350D01*
X205160Y143089D02*
X226350D01*
X205184Y138949D02*
X226350D01*
X205193Y138859D02*
X226350D01*
X205199Y138769D02*
X226350D01*
X205200Y138679D02*
X226350D01*
X205197Y138589D02*
X226350D01*
X205189Y138499D02*
X226350D01*
X205178Y138409D02*
X226350D01*
X205161Y138319D02*
X226350D01*
X205141Y138229D02*
X226350D01*
X205115Y138139D02*
X226350D01*
X205085Y138049D02*
X226350D01*
X205049Y137959D02*
X226350D01*
X205009Y137869D02*
X226350D01*
X204962Y137779D02*
X226350D01*
X204909Y137689D02*
X226350D01*
X204848Y137599D02*
X226350D01*
X204780Y137509D02*
X226350D01*
X204703Y137419D02*
X226350D01*
X204615Y137329D02*
X226350D01*
X204514Y137239D02*
X226350D01*
X204397Y137149D02*
X226350D01*
X204257Y137059D02*
X226350D01*
X204083Y136969D02*
X226350D01*
X203841Y136879D02*
X226350D01*
X159350Y136789D02*
X226350D01*
X159350Y136699D02*
X226350D01*
X159350Y136609D02*
X226350D01*
X203850Y136519D02*
X226350D01*
X204088Y136429D02*
X226350D01*
X204262Y136339D02*
X226350D01*
X204401Y136249D02*
X226350D01*
X204518Y136159D02*
X226350D01*
X204618Y136069D02*
X226350D01*
X204705Y135979D02*
X226350D01*
X204782Y135889D02*
X226350D01*
X204850Y135799D02*
X226350D01*
X204910Y135709D02*
X226350D01*
X204963Y135619D02*
X226350D01*
X205010Y135529D02*
X226350D01*
X205051Y135439D02*
X226350D01*
X205086Y135349D02*
X226350D01*
X205116Y135259D02*
X226350D01*
X205141Y135169D02*
X226350D01*
X205162Y135079D02*
X226350D01*
X205178Y134989D02*
X226350D01*
X205190Y134899D02*
X226350D01*
X205197Y134809D02*
X226350D01*
X205200Y134719D02*
X226350D01*
X205199Y134629D02*
X226350D01*
X205193Y134539D02*
X226350D01*
X205183Y134449D02*
X226350D01*
X205169Y134359D02*
X226350D01*
X205150Y134269D02*
X226350D01*
X205127Y134179D02*
X226350D01*
X205099Y134089D02*
X226350D01*
X205066Y133999D02*
X226350D01*
X205027Y133909D02*
X226350D01*
X204983Y133819D02*
X226350D01*
X204933Y133729D02*
X226350D01*
X204876Y133639D02*
X226350D01*
X204811Y133549D02*
X226350D01*
X204738Y133459D02*
X226350D01*
X204656Y133369D02*
X226350D01*
X204561Y133279D02*
X226350D01*
X204452Y133189D02*
X226350D01*
X204323Y133099D02*
X226350D01*
X204166Y133009D02*
X226350D01*
X204060Y128959D02*
X226350D01*
X203806Y128869D02*
X226350D01*
X162198Y128779D02*
X226350D01*
X162200Y128689D02*
X226350D01*
X203371Y128599D02*
X226350D01*
X203882Y128509D02*
X226350D01*
X204110Y128419D02*
X226350D01*
X204278Y128329D02*
X226350D01*
X204415Y128239D02*
X226350D01*
X204529Y128149D02*
X226350D01*
X204628Y128059D02*
X226350D01*
X204714Y127969D02*
X226350D01*
X204790Y127879D02*
X226350D01*
X204857Y127789D02*
X226350D01*
X204916Y127699D02*
X226350D01*
X204969Y127609D02*
X226350D01*
X205015Y127519D02*
X226350D01*
X205055Y127429D02*
X226350D01*
X205089Y127339D02*
X226350D01*
X205119Y127249D02*
X226350D01*
X205144Y127159D02*
X226350D01*
X205164Y127069D02*
X226350D01*
X205179Y126979D02*
X226350D01*
X205191Y126889D02*
X226350D01*
X205197Y126799D02*
X226350D01*
X205200Y126709D02*
X226350D01*
X205198Y126619D02*
X226350D01*
X205192Y126529D02*
X226350D01*
X205182Y126439D02*
X226350D01*
X205167Y126349D02*
X226350D01*
X205148Y126259D02*
X226350D01*
X205124Y126169D02*
X226350D01*
X205096Y126079D02*
X226350D01*
X205062Y125989D02*
X226350D01*
X205023Y125899D02*
X226350D01*
X204978Y125809D02*
X226350D01*
X204927Y125719D02*
X226350D01*
X204869Y125629D02*
X226350D01*
X204804Y125539D02*
X226350D01*
X204730Y125449D02*
X226350D01*
X204646Y125359D02*
X226350D01*
X204550Y125269D02*
X226350D01*
X204438Y125179D02*
X226350D01*
X204307Y125089D02*
X226350D01*
X204146Y124999D02*
X226350D01*
X203933Y124909D02*
X226350D01*
X203566Y124819D02*
X226350D01*
X161897Y124729D02*
X226350D01*
X161952Y124639D02*
X226350D01*
X203739Y124549D02*
X226350D01*
X204019Y124459D02*
X226350D01*
X204209Y124369D02*
X226350D01*
X204357Y124279D02*
X226350D01*
X204481Y124189D02*
X226350D01*
X204586Y124099D02*
X226350D01*
X204677Y124009D02*
X226350D01*
X204758Y123919D02*
X226350D01*
X204828Y123829D02*
X226350D01*
X204891Y123739D02*
X226350D01*
X204946Y123649D02*
X226350D01*
X204995Y123559D02*
X226350D01*
X205038Y123469D02*
X226350D01*
X205075Y123379D02*
X226350D01*
X205107Y123289D02*
X226350D01*
X205133Y123199D02*
X226350D01*
X205156Y123109D02*
X226350D01*
X205173Y123019D02*
X226350D01*
X217181Y118969D02*
X226350D01*
X217192Y118879D02*
X226350D01*
X217198Y118789D02*
X226350D01*
X217200Y118699D02*
X226350D01*
X217198Y118609D02*
X226350D01*
X217191Y118519D02*
X226350D01*
X217181Y118429D02*
X226350D01*
X217165Y118339D02*
X226350D01*
X217146Y118249D02*
X226350D01*
X217121Y118159D02*
X226350D01*
X217092Y118069D02*
X226350D01*
X217058Y117979D02*
X226350D01*
X217018Y117889D02*
X226350D01*
X216973Y117799D02*
X226350D01*
X216921Y117709D02*
X226350D01*
X216862Y117619D02*
X226350D01*
X216796Y117529D02*
X226350D01*
X216721Y117439D02*
X226350D01*
X216636Y117349D02*
X226350D01*
X216538Y117259D02*
X226350D01*
X216425Y117169D02*
X226350D01*
X216291Y117079D02*
X226350D01*
X216126Y116989D02*
X226350D01*
X215904Y116899D02*
X226350D01*
X215482Y116809D02*
X226350D01*
X159350Y116719D02*
X226350D01*
X159350Y116629D02*
X226350D01*
X215779Y116539D02*
X226350D01*
X216043Y116449D02*
X226350D01*
X216227Y116359D02*
X226350D01*
X216372Y116269D02*
X226350D01*
X216493Y116179D02*
X226350D01*
X216597Y116089D02*
X226350D01*
X216687Y115999D02*
X226350D01*
X216766Y115909D02*
X226350D01*
X216836Y115819D02*
X226350D01*
X216897Y115729D02*
X226350D01*
X216952Y115639D02*
X226350D01*
X217000Y115549D02*
X226350D01*
X217042Y115459D02*
X226350D01*
X217078Y115369D02*
X226350D01*
X217110Y115279D02*
X226350D01*
X217136Y115189D02*
X226350D01*
X217158Y115099D02*
X226350D01*
X217175Y115009D02*
X226350D01*
X217187Y114919D02*
X226350D01*
X217196Y114829D02*
X226350D01*
X217200Y114739D02*
X226350D01*
X217199Y114649D02*
X226350D01*
X217195Y114559D02*
X226350D01*
X217186Y114469D02*
X226350D01*
X217173Y114379D02*
X226350D01*
X217155Y114289D02*
X226350D01*
X217133Y114199D02*
X226350D01*
X217106Y114109D02*
X226350D01*
X217074Y114019D02*
X226350D01*
X217036Y113929D02*
X226350D01*
X216994Y113839D02*
X226350D01*
X216945Y113749D02*
X226350D01*
X216889Y113659D02*
X226350D01*
X216827Y113569D02*
X226350D01*
X216755Y113479D02*
X226350D01*
X216675Y113389D02*
X226350D01*
X216583Y113299D02*
X226350D01*
X216477Y113209D02*
X226350D01*
X216353Y113119D02*
X226350D01*
X216204Y113029D02*
X226350D01*
X220104Y108979D02*
X226350D01*
X219874Y108889D02*
X226350D01*
X199650Y108799D02*
X226350D01*
X199650Y108709D02*
X226350D01*
X199650Y108619D02*
X226350D01*
X219816Y108529D02*
X226350D01*
X220066Y108439D02*
X226350D01*
X220244Y108349D02*
X226350D01*
X220387Y108259D02*
X226350D01*
X220505Y108169D02*
X226350D01*
X220607Y108079D02*
X226350D01*
X220696Y107989D02*
X226350D01*
X220774Y107899D02*
X226350D01*
X220843Y107809D02*
X226350D01*
X220904Y107719D02*
X226350D01*
X220958Y107629D02*
X226350D01*
X221005Y107539D02*
X226350D01*
X221046Y107449D02*
X226350D01*
X221082Y107359D02*
X226350D01*
X221113Y107269D02*
X226350D01*
X221139Y107179D02*
X226350D01*
X221160Y107089D02*
X226350D01*
X221176Y106999D02*
X226350D01*
X221189Y106909D02*
X226350D01*
X221196Y106819D02*
X226350D01*
X221200Y106729D02*
X226350D01*
X221199Y106639D02*
X226350D01*
X221194Y106549D02*
X226350D01*
X221185Y106459D02*
X226350D01*
X221171Y106369D02*
X226350D01*
X221153Y106279D02*
X226350D01*
X221130Y106189D02*
X226350D01*
X221102Y106099D02*
X226350D01*
X221070Y106009D02*
X226350D01*
X221032Y105919D02*
X226350D01*
X220988Y105829D02*
X226350D01*
X220939Y105739D02*
X226350D01*
X220883Y105649D02*
X226350D01*
X220819Y105559D02*
X226350D01*
X220747Y105469D02*
X226350D01*
X220665Y105379D02*
X226350D01*
X220572Y105289D02*
X226350D01*
X220465Y105199D02*
X226350D01*
X220338Y105109D02*
X226350D01*
X220185Y105019D02*
X226350D01*
X219987Y104929D02*
X226350D01*
X219682Y104839D02*
X226350D01*
X199650Y104749D02*
X226350D01*
X199650Y104659D02*
X226350D01*
X199650Y104569D02*
X226350D01*
X199650Y104479D02*
X226350D01*
X199650Y104389D02*
X226350D01*
X199650Y104299D02*
X226350D01*
X199650Y104209D02*
X226350D01*
X199650Y104119D02*
X226350D01*
X199650Y104029D02*
X226350D01*
X199647Y103939D02*
X226350D01*
X199632Y103849D02*
X226350D01*
X199604Y103759D02*
X226350D01*
X199559Y103669D02*
X226350D01*
X199495Y103579D02*
X226350D01*
X199401Y103489D02*
X226350D01*
X199247Y103399D02*
X226350D01*
X119650Y103309D02*
X226350D01*
X119650Y103219D02*
X226350D01*
X119650Y103129D02*
X226350D01*
X119650Y103039D02*
X226350D01*
X204864Y155779D02*
X219216D01*
X160838Y112579D02*
X219016D01*
X204597Y152089D02*
X218926D01*
X199650Y104839D02*
X218918D01*
X204923Y155689D02*
X218859D01*
X199650Y108529D02*
X218784D01*
X199650Y108889D02*
X218726D01*
X204493Y152179D02*
X218696D01*
X160707Y112489D02*
X218659D01*
X204974Y155599D02*
X218649D01*
X199650Y104929D02*
X218613D01*
X199650Y108439D02*
X218534D01*
X204372Y152269D02*
X218526D01*
X199650Y108979D02*
X218496D01*
X205019Y155509D02*
X218489D01*
X160546Y112399D02*
X218449D01*
X199650Y105019D02*
X218415D01*
X204227Y152359D02*
X218389D01*
X205059Y155419D02*
X218358D01*
X199650Y108349D02*
X218356D01*
X199650Y109069D02*
X218326D01*
X160333Y112309D02*
X218289D01*
X204043Y152449D02*
X218274D01*
X199650Y105109D02*
X218262D01*
X205093Y155329D02*
X218247D01*
X199650Y108259D02*
X218213D01*
X199650Y109159D02*
X218189D01*
X203779Y152539D02*
X218175D01*
X159966Y112219D02*
X218158D01*
X205122Y155239D02*
X218152D01*
X199650Y105199D02*
X218135D01*
X199650Y108169D02*
X218095D01*
X170458Y152629D02*
X218088D01*
X199650Y109249D02*
X218074D01*
X205146Y155149D02*
X218068D01*
X157112Y112129D02*
X218047D01*
X199650Y105289D02*
X218028D01*
X170404Y152719D02*
X218012D01*
X205166Y155059D02*
X217994D01*
X199650Y108079D02*
X217993D01*
X199650Y109339D02*
X217975D01*
X157081Y112039D02*
X217952D01*
X203482Y152809D02*
X217945D01*
X199650Y105379D02*
X217935D01*
X205181Y154969D02*
X217929D01*
X199650Y107989D02*
X217904D01*
X199650Y109429D02*
X217888D01*
X203904Y152899D02*
X217885D01*
X205192Y154879D02*
X217871D01*
X157045Y111949D02*
X217868D01*
X199650Y105469D02*
X217853D01*
X204126Y152989D02*
X217833D01*
X199650Y107899D02*
X217826D01*
X205198Y154789D02*
X217821D01*
X199650Y109519D02*
X217812D01*
X157004Y111859D02*
X217794D01*
X204291Y153079D02*
X217787D01*
X199650Y105559D02*
X217781D01*
X205200Y154699D02*
X217776D01*
X199650Y107809D02*
X217757D01*
X204425Y153169D02*
X217746D01*
X199650Y109609D02*
X217745D01*
X205198Y154609D02*
X217737D01*
X156956Y111769D02*
X217729D01*
X199650Y105649D02*
X217717D01*
X204538Y153259D02*
X217711D01*
X205191Y154519D02*
X217704D01*
X199650Y107719D02*
X217696D01*
X199650Y109699D02*
X217685D01*
X204636Y153349D02*
X217682D01*
X205181Y154429D02*
X217675D01*
X156902Y111679D02*
X217671D01*
X199650Y105739D02*
X217661D01*
X204721Y153439D02*
X217657D01*
X205165Y154339D02*
X217651D01*
X199650Y107629D02*
X217642D01*
X204796Y153529D02*
X217637D01*
X199650Y109789D02*
X217633D01*
X205146Y154249D02*
X217632D01*
X204862Y153619D02*
X217621D01*
X156841Y111589D02*
X217621D01*
X205121Y154159D02*
X217618D01*
X199650Y105829D02*
X217612D01*
X204921Y153709D02*
X217610D01*
X205092Y154069D02*
X217607D01*
X204973Y153799D02*
X217603D01*
X205058Y153979D02*
X217602D01*
X205018Y153889D02*
X217600D01*
X199650Y107539D02*
X217595D01*
X199650Y109879D02*
X217587D01*
X156772Y111499D02*
X217576D01*
X199650Y105919D02*
X217568D01*
X199650Y107449D02*
X217554D01*
X199650Y109969D02*
X217546D01*
X156694Y111409D02*
X217537D01*
X199650Y106009D02*
X217530D01*
X199650Y107359D02*
X217518D01*
X199647Y110059D02*
X217511D01*
X156605Y111319D02*
X217504D01*
X199650Y106099D02*
X217498D01*
X199650Y107269D02*
X217487D01*
X199633Y110149D02*
X217482D01*
X156502Y111229D02*
X217475D01*
X199650Y106189D02*
X217470D01*
X199650Y107179D02*
X217461D01*
X199605Y110239D02*
X217457D01*
X156383Y111139D02*
X217451D01*
X199650Y106279D02*
X217447D01*
X199650Y107089D02*
X217440D01*
X199561Y110329D02*
X217437D01*
X156240Y111049D02*
X217432D01*
X199650Y106369D02*
X217429D01*
X199650Y106999D02*
X217424D01*
X199497Y110419D02*
X217421D01*
X156060Y110959D02*
X217418D01*
X199650Y106459D02*
X217415D01*
X199650Y106909D02*
X217411D01*
X199405Y110509D02*
X217410D01*
X155806Y110869D02*
X217407D01*
X199650Y106549D02*
X217406D01*
X199650Y106819D02*
X217404D01*
X199253Y110599D02*
X217403D01*
X135541Y110779D02*
X217402D01*
X199650Y106639D02*
X217401D01*
X199650Y106729D02*
X217400D01*
X131374Y110689D02*
X217400D01*
X211482Y116809D02*
X215118D01*
X211507Y120589D02*
X215093D01*
X161130Y112849D02*
X214873D01*
X159350Y116539D02*
X214821D01*
X211904Y116899D02*
X214696D01*
X211912Y120499D02*
X214688D01*
X161204Y112939D02*
X214587D01*
X159350Y116449D02*
X214557D01*
X212126Y116989D02*
X214474D01*
X212131Y120409D02*
X214469D01*
X161269Y113029D02*
X214396D01*
X159350Y116359D02*
X214373D01*
X212291Y117079D02*
X214309D01*
X212295Y120319D02*
X214305D01*
X161327Y113119D02*
X214247D01*
X159350Y116269D02*
X214228D01*
X212425Y117169D02*
X214175D01*
X212428Y120229D02*
X214172D01*
X161378Y113209D02*
X214123D01*
X159350Y116179D02*
X214107D01*
X212538Y117259D02*
X214062D01*
X212541Y120139D02*
X214059D01*
X161423Y113299D02*
X214017D01*
X159350Y116089D02*
X214003D01*
X212636Y117349D02*
X213964D01*
X212638Y120049D02*
X213962D01*
X161462Y113389D02*
X213925D01*
X159771Y115999D02*
X213913D01*
X212721Y117439D02*
X213879D01*
X212723Y119959D02*
X213877D01*
X161496Y113479D02*
X213845D01*
X160282Y115909D02*
X213834D01*
X212796Y117529D02*
X213804D01*
X212798Y119869D02*
X213802D01*
X161524Y113569D02*
X213773D01*
X160510Y115819D02*
X213764D01*
X212862Y117619D02*
X213738D01*
X212864Y119779D02*
X213736D01*
X161548Y113659D02*
X213711D01*
X160678Y115729D02*
X213703D01*
X212921Y117709D02*
X213679D01*
X212923Y119689D02*
X213677D01*
X161567Y113749D02*
X213655D01*
X160815Y115639D02*
X213648D01*
X212973Y117799D02*
X213627D01*
X212974Y119599D02*
X213626D01*
X161582Y113839D02*
X213606D01*
X160929Y115549D02*
X213600D01*
X213018Y117889D02*
X213582D01*
X213019Y119509D02*
X213581D01*
X161592Y113929D02*
X213564D01*
X161028Y115459D02*
X213558D01*
X213058Y117979D02*
X213542D01*
X213059Y119419D02*
X213541D01*
X161598Y114019D02*
X213526D01*
X161114Y115369D02*
X213522D01*
X213092Y118069D02*
X213508D01*
X213093Y119329D02*
X213507D01*
X161600Y114109D02*
X213494D01*
X161190Y115279D02*
X213490D01*
X213121Y118159D02*
X213479D01*
X213122Y119239D02*
X213478D01*
X161597Y114199D02*
X213467D01*
X161257Y115189D02*
X213464D01*
X213146Y118249D02*
X213454D01*
X213146Y119149D02*
X213454D01*
X161591Y114289D02*
X213445D01*
X161316Y115099D02*
X213442D01*
X213165Y118339D02*
X213435D01*
X213166Y119059D02*
X213434D01*
X161579Y114379D02*
X213427D01*
X161369Y115009D02*
X213425D01*
X213181Y118429D02*
X213419D01*
X213181Y118969D02*
X213419D01*
X161564Y114469D02*
X213414D01*
X161415Y114919D02*
X213413D01*
X213191Y118519D02*
X213409D01*
X213192Y118879D02*
X213408D01*
X161544Y114559D02*
X213405D01*
X161455Y114829D02*
X213404D01*
X213198Y118609D02*
X213402D01*
X213198Y118789D02*
X213402D01*
X161519Y114649D02*
X213401D01*
X161489Y114739D02*
X213400D01*
X213200Y118699D02*
X213400D01*
X207482Y116809D02*
X211118D01*
X207507Y120589D02*
X211093D01*
X207904Y116899D02*
X210696D01*
X207912Y120499D02*
X210688D01*
X208126Y116989D02*
X210474D01*
X208131Y120409D02*
X210469D01*
X208291Y117079D02*
X210309D01*
X208295Y120319D02*
X210305D01*
X208425Y117169D02*
X210175D01*
X208428Y120229D02*
X210172D01*
X208538Y117259D02*
X210062D01*
X208541Y120139D02*
X210059D01*
X208636Y117349D02*
X209964D01*
X208638Y120049D02*
X209962D01*
X208721Y117439D02*
X209879D01*
X208723Y119959D02*
X209877D01*
X208796Y117529D02*
X209804D01*
X208798Y119869D02*
X209802D01*
X208862Y117619D02*
X209738D01*
X208864Y119779D02*
X209736D01*
X208921Y117709D02*
X209679D01*
X208923Y119689D02*
X209677D01*
X208973Y117799D02*
X209627D01*
X208974Y119599D02*
X209626D01*
X209018Y117889D02*
X209582D01*
X209019Y119509D02*
X209581D01*
X209058Y117979D02*
X209542D01*
X209059Y119419D02*
X209541D01*
X209092Y118069D02*
X209508D01*
X209093Y119329D02*
X209507D01*
X209121Y118159D02*
X209479D01*
X209122Y119239D02*
X209478D01*
X209146Y118249D02*
X209454D01*
X209146Y119149D02*
X209454D01*
X209165Y118339D02*
X209435D01*
X209166Y119059D02*
X209434D01*
X209181Y118429D02*
X209419D01*
X209181Y118969D02*
X209419D01*
X209191Y118519D02*
X209409D01*
X209192Y118879D02*
X209408D01*
X209198Y118609D02*
X209402D01*
X209198Y118789D02*
X209402D01*
X209200Y118699D02*
X209400D01*
X203482Y116809D02*
X207118D01*
X203507Y120589D02*
X207093D01*
X203904Y116899D02*
X206696D01*
X203912Y120499D02*
X206688D01*
X204126Y116989D02*
X206474D01*
X204131Y120409D02*
X206469D01*
X204291Y117079D02*
X206309D01*
X204295Y120319D02*
X206305D01*
X204425Y117169D02*
X206175D01*
X204428Y120229D02*
X206172D01*
X204538Y117259D02*
X206062D01*
X204541Y120139D02*
X206059D01*
X204636Y117349D02*
X205964D01*
X204638Y120049D02*
X205962D01*
X204721Y117439D02*
X205879D01*
X204723Y119959D02*
X205877D01*
X204796Y117529D02*
X205804D01*
X204798Y119869D02*
X205802D01*
X204862Y117619D02*
X205738D01*
X204864Y119779D02*
X205736D01*
X204921Y117709D02*
X205679D01*
X204923Y119689D02*
X205677D01*
X204973Y117799D02*
X205627D01*
X204974Y119599D02*
X205626D01*
X205018Y117889D02*
X205582D01*
X205019Y119509D02*
X205581D01*
X205058Y117979D02*
X205542D01*
X205059Y119419D02*
X205541D01*
X205092Y118069D02*
X205508D01*
X205093Y119329D02*
X205507D01*
X205121Y118159D02*
X205479D01*
X205122Y119239D02*
X205478D01*
X205146Y118249D02*
X205454D01*
X205146Y119149D02*
X205454D01*
X205165Y118339D02*
X205435D01*
X205166Y119059D02*
X205434D01*
X205181Y118429D02*
X205419D01*
X205181Y118969D02*
X205419D01*
X205191Y118519D02*
X205409D01*
X205192Y118879D02*
X205408D01*
X205198Y118609D02*
X205402D01*
X205198Y118789D02*
X205402D01*
X205200Y118699D02*
X205400D01*
X183371Y128599D02*
X203229D01*
X183482Y152809D02*
X203118D01*
X199482Y116809D02*
X203118D01*
X183507Y156589D02*
X203093D01*
X199507Y120589D02*
X203093D01*
X183566Y124819D02*
X203034D01*
X183584Y148579D02*
X203016D01*
X183629Y132829D02*
X202971D01*
X201195Y140569D02*
X202956D01*
X201195Y140839D02*
X202918D01*
X199694Y132559D02*
X202906D01*
X199727Y148849D02*
X202873D01*
X199739Y160549D02*
X202861D01*
X199739Y124549D02*
X202861D01*
X199769Y156859D02*
X202831D01*
X199769Y120859D02*
X202831D01*
X199779Y152539D02*
X202821D01*
X199806Y128869D02*
X202794D01*
X183816Y144529D02*
X202784D01*
X183841Y136879D02*
X202759D01*
X183850Y136519D02*
X202750D01*
X183874Y144889D02*
X202726D01*
X183882Y128509D02*
X202718D01*
X183904Y152899D02*
X202696D01*
X199904Y116899D02*
X202696D01*
X183912Y156499D02*
X202688D01*
X199912Y120499D02*
X202688D01*
X183933Y124909D02*
X202667D01*
X183941Y148489D02*
X202659D01*
X183961Y132919D02*
X202639D01*
X201187Y140479D02*
X202632D01*
X201186Y140929D02*
X202613D01*
X199994Y132469D02*
X202606D01*
X200013Y148939D02*
X202587D01*
X200019Y160459D02*
X202581D01*
X200019Y124459D02*
X202581D01*
X200037Y156949D02*
X202563D01*
X200037Y120949D02*
X202563D01*
X200043Y152449D02*
X202557D01*
X200060Y128959D02*
X202540D01*
X184066Y144439D02*
X202534D01*
X184083Y136969D02*
X202517D01*
X184088Y136429D02*
X202512D01*
X184104Y144979D02*
X202496D01*
X184110Y128419D02*
X202490D01*
X184126Y152989D02*
X202474D01*
X200126Y116989D02*
X202474D01*
X184131Y156409D02*
X202469D01*
X200131Y120409D02*
X202469D01*
X184146Y124999D02*
X202454D01*
X184151Y148399D02*
X202449D01*
X184166Y133009D02*
X202434D01*
X201174Y140389D02*
X202429D01*
X201173Y141019D02*
X202415D01*
X200190Y132379D02*
X202410D01*
X200204Y149029D02*
X202396D01*
X200209Y160369D02*
X202391D01*
X200209Y124369D02*
X202391D01*
X200222Y157039D02*
X202378D01*
X200222Y121039D02*
X202378D01*
X200227Y152359D02*
X202373D01*
X200240Y129049D02*
X202360D01*
X184244Y144349D02*
X202356D01*
X184257Y137059D02*
X202343D01*
X184262Y136339D02*
X202338D01*
X184274Y145069D02*
X202326D01*
X184278Y128329D02*
X202322D01*
X184291Y153079D02*
X202309D01*
X200291Y117079D02*
X202309D01*
X184295Y156319D02*
X202305D01*
X200295Y120319D02*
X202305D01*
X184307Y125089D02*
X202293D01*
X184311Y148309D02*
X202289D01*
X184323Y133099D02*
X202277D01*
X201157Y140299D02*
X202273D01*
X201156Y141109D02*
X202262D01*
X200342Y132289D02*
X202258D01*
X200353Y149119D02*
X202247D01*
X200357Y160279D02*
X202243D01*
X200357Y124279D02*
X202243D01*
X200368Y157129D02*
X202232D01*
X200368Y121129D02*
X202232D01*
X200372Y152269D02*
X202228D01*
X200383Y129139D02*
X202217D01*
X184387Y144259D02*
X202213D01*
X184397Y137149D02*
X202203D01*
X184401Y136249D02*
X202199D01*
X184411Y145159D02*
X202189D01*
X184415Y128239D02*
X202185D01*
X184425Y153169D02*
X202175D01*
X200425Y117169D02*
X202175D01*
X184428Y156229D02*
X202172D01*
X200428Y120229D02*
X202172D01*
X184438Y125179D02*
X202162D01*
X184442Y148219D02*
X202158D01*
X184452Y133189D02*
X202148D01*
X201135Y140209D02*
X202145D01*
X201133Y141199D02*
X202135D01*
X200468Y132199D02*
X202132D01*
X200477Y149209D02*
X202123D01*
X200481Y160189D02*
X202119D01*
X200481Y124189D02*
X202119D01*
X200490Y157219D02*
X202110D01*
X200490Y121219D02*
X202110D01*
X200493Y152179D02*
X202107D01*
X200502Y129229D02*
X202098D01*
X184505Y144169D02*
X202095D01*
X184514Y137239D02*
X202086D01*
X184518Y136159D02*
X202082D01*
X184526Y145249D02*
X202074D01*
X184529Y128149D02*
X202071D01*
X184538Y153259D02*
X202062D01*
X200538Y117259D02*
X202062D01*
X184541Y156139D02*
X202059D01*
X200541Y120139D02*
X202059D01*
X184550Y125269D02*
X202050D01*
X184553Y148129D02*
X202047D01*
X184561Y133279D02*
X202039D01*
X201109Y140119D02*
X202036D01*
X201107Y141289D02*
X202028D01*
X200575Y132109D02*
X202025D01*
X200583Y149299D02*
X202017D01*
X200586Y160099D02*
X202014D01*
X200586Y124099D02*
X202014D01*
X200594Y157309D02*
X202006D01*
X200594Y121309D02*
X202006D01*
X200597Y152089D02*
X202003D01*
X200605Y129319D02*
X201995D01*
X184607Y144079D02*
X201993D01*
X184615Y137329D02*
X201985D01*
X184618Y136069D02*
X201982D01*
X184625Y145339D02*
X201975D01*
X184628Y128059D02*
X201972D01*
X184636Y153349D02*
X201964D01*
X200636Y117349D02*
X201964D01*
X184638Y156049D02*
X201962D01*
X200638Y120049D02*
X201962D01*
X184646Y125359D02*
X201954D01*
X184648Y148039D02*
X201952D01*
X184656Y133369D02*
X201944D01*
X201077Y140029D02*
X201942D01*
X201075Y141379D02*
X201935D01*
X200668Y132019D02*
X201932D01*
X200675Y149389D02*
X201925D01*
X200677Y160009D02*
X201923D01*
X200677Y124009D02*
X201923D01*
X200684Y157399D02*
X201916D01*
X200684Y121399D02*
X201916D01*
X200687Y151999D02*
X201913D01*
X200694Y129409D02*
X201906D01*
X184696Y143989D02*
X201904D01*
X184703Y137419D02*
X201897D01*
X184705Y135979D02*
X201895D01*
X184712Y145429D02*
X201888D01*
X184714Y127969D02*
X201886D01*
X184721Y153439D02*
X201879D01*
X200721Y117439D02*
X201879D01*
X184723Y155959D02*
X201877D01*
X200723Y119959D02*
X201877D01*
X184730Y125449D02*
X201870D01*
X184732Y147949D02*
X201868D01*
X184738Y133459D02*
X201862D01*
X201041Y139939D02*
X201859D01*
X201038Y141469D02*
X201853D01*
X200749Y131929D02*
X201851D01*
X200755Y149479D02*
X201845D01*
X200758Y159919D02*
X201842D01*
X200758Y123919D02*
X201842D01*
X200764Y157489D02*
X201836D01*
X200764Y121489D02*
X201836D01*
X200766Y151909D02*
X201834D01*
X200772Y129499D02*
X201828D01*
X184774Y143899D02*
X201826D01*
X184780Y137509D02*
X201820D01*
X184782Y135889D02*
X201818D01*
X184788Y145519D02*
X201812D01*
X184790Y127879D02*
X201810D01*
X184796Y153529D02*
X201804D01*
X200796Y117529D02*
X201804D01*
X184798Y155869D02*
X201802D01*
X200798Y119869D02*
X201802D01*
X184804Y125539D02*
X201796D01*
X184806Y147859D02*
X201794D01*
X184811Y133549D02*
X201789D01*
X200999Y139849D02*
X201787D01*
X200995Y141559D02*
X201781D01*
X200821Y131839D02*
X201779D01*
X200827Y149569D02*
X201773D01*
X200828Y159829D02*
X201772D01*
X200828Y123829D02*
X201772D01*
X200834Y157579D02*
X201766D01*
X200834Y121579D02*
X201766D01*
X200836Y151819D02*
X201764D01*
X200841Y129589D02*
X201759D01*
X184843Y143809D02*
X201757D01*
X184848Y137599D02*
X201752D01*
X184850Y135799D02*
X201750D01*
X184855Y145609D02*
X201745D01*
X184857Y127789D02*
X201743D01*
X184862Y153619D02*
X201738D01*
X200862Y117619D02*
X201738D01*
X184864Y155779D02*
X201736D01*
X200864Y119779D02*
X201736D01*
X184869Y125629D02*
X201731D01*
X184871Y147769D02*
X201729D01*
X184876Y133639D02*
X201724D01*
X200950Y139759D02*
X201722D01*
X200946Y141649D02*
X201717D01*
X200884Y131749D02*
X201716D01*
X200889Y149659D02*
X201711D01*
X200891Y159739D02*
X201709D01*
X200891Y123739D02*
X201709D01*
X200896Y157669D02*
X201704D01*
X200896Y121669D02*
X201704D01*
X200897Y151729D02*
X201703D01*
X200902Y129679D02*
X201698D01*
X184904Y143719D02*
X201696D01*
X184909Y137689D02*
X201691D01*
X184910Y135709D02*
X201690D01*
X184915Y145699D02*
X201685D01*
X184916Y127699D02*
X201684D01*
X184921Y153709D02*
X201679D01*
X200921Y117709D02*
X201679D01*
X184923Y155689D02*
X201677D01*
X200923Y119689D02*
X201677D01*
X184927Y125719D02*
X201673D01*
X184929Y147679D02*
X201671D01*
X184933Y133729D02*
X201667D01*
X200896Y139669D02*
X201665D01*
X200891Y141739D02*
X201661D01*
X200940Y131659D02*
X201660D01*
X200945Y149749D02*
X201655D01*
X200946Y159649D02*
X201654D01*
X200946Y123649D02*
X201654D01*
X200950Y157759D02*
X201650D01*
X200950Y121759D02*
X201650D01*
X200952Y151639D02*
X201648D01*
X200956Y129769D02*
X201644D01*
X184958Y143629D02*
X201642D01*
X184962Y137779D02*
X201638D01*
X184963Y135619D02*
X201637D01*
X184967Y145789D02*
X201633D01*
X184969Y127609D02*
X201631D01*
X184973Y153799D02*
X201627D01*
X200973Y117799D02*
X201627D01*
X184974Y155599D02*
X201626D01*
X200974Y119599D02*
X201626D01*
X184978Y125809D02*
X201622D01*
X184979Y147589D02*
X201621D01*
X184983Y133819D02*
X201617D01*
X200834Y139579D02*
X201615D01*
X200828Y141829D02*
X201612D01*
X200990Y131569D02*
X201610D01*
X200994Y149839D02*
X201606D01*
X200995Y159559D02*
X201605D01*
X200995Y123559D02*
X201605D01*
X200999Y157849D02*
X201601D01*
X200999Y121849D02*
X201601D01*
X201000Y151549D02*
X201600D01*
X201004Y129859D02*
X201596D01*
X185005Y143539D02*
X201595D01*
X185009Y137869D02*
X201591D01*
X185010Y135529D02*
X201590D01*
X185013Y145879D02*
X201587D01*
X185015Y127519D02*
X201585D01*
X185018Y153889D02*
X201582D01*
X201018Y117889D02*
X201582D01*
X185019Y155509D02*
X201581D01*
X201019Y119509D02*
X201581D01*
X185023Y125899D02*
X201577D01*
X185024Y147499D02*
X201576D01*
X185027Y133909D02*
X201573D01*
X200764Y139489D02*
X201571D01*
X200758Y141919D02*
X201568D01*
X201033Y131479D02*
X201567D01*
X201036Y149929D02*
X201564D01*
X201038Y159469D02*
X201562D01*
X201038Y123469D02*
X201562D01*
X201041Y157939D02*
X201559D01*
X201041Y121939D02*
X201559D01*
X201042Y151459D02*
X201558D01*
X201045Y129949D02*
X201555D01*
X185046Y143449D02*
X201554D01*
X185049Y137959D02*
X201551D01*
X185051Y135439D02*
X201549D01*
X185054Y145969D02*
X201546D01*
X185055Y127429D02*
X201545D01*
X185058Y153979D02*
X201542D01*
X201058Y117979D02*
X201542D01*
X185059Y155419D02*
X201541D01*
X201059Y119419D02*
X201541D01*
X185062Y125989D02*
X201538D01*
X185063Y147409D02*
X201537D01*
X185066Y133999D02*
X201534D01*
X200684Y139399D02*
X201533D01*
X200677Y142009D02*
X201530D01*
X201071Y131389D02*
X201529D01*
X201074Y150019D02*
X201526D01*
X201075Y159379D02*
X201525D01*
X201075Y123379D02*
X201525D01*
X201077Y158029D02*
X201523D01*
X201077Y122029D02*
X201523D01*
X201078Y151369D02*
X201522D01*
X201081Y130039D02*
X201519D01*
X185082Y143359D02*
X201518D01*
X185085Y138049D02*
X201515D01*
X185086Y135349D02*
X201514D01*
X185089Y146059D02*
X201511D01*
X185089Y127339D02*
X201511D01*
X185092Y154069D02*
X201508D01*
X201092Y118069D02*
X201508D01*
X185093Y155329D02*
X201507D01*
X201093Y119329D02*
X201507D01*
X185096Y126079D02*
X201504D01*
X185096Y147319D02*
X201504D01*
X185099Y134089D02*
X201501D01*
X200594Y139309D02*
X201500D01*
X200586Y142099D02*
X201498D01*
X201103Y131299D02*
X201497D01*
X201106Y150109D02*
X201494D01*
X201107Y159289D02*
X201493D01*
X201107Y123289D02*
X201493D01*
X201109Y158119D02*
X201491D01*
X201109Y122119D02*
X201491D01*
X201110Y151279D02*
X201490D01*
X201112Y130129D02*
X201488D01*
X185113Y143269D02*
X201487D01*
X185115Y138139D02*
X201485D01*
X185116Y135259D02*
X201484D01*
X185118Y146149D02*
X201482D01*
X185119Y127249D02*
X201481D01*
X185121Y154159D02*
X201479D01*
X201121Y118159D02*
X201479D01*
X185122Y155239D02*
X201478D01*
X201122Y119239D02*
X201478D01*
X185124Y126169D02*
X201476D01*
X185125Y147229D02*
X201475D01*
X185127Y134179D02*
X201473D01*
X200490Y139219D02*
X201472D01*
X200481Y142189D02*
X201470D01*
X201131Y131209D02*
X201469D01*
X201133Y150199D02*
X201467D01*
X201133Y159199D02*
X201467D01*
X201133Y123199D02*
X201467D01*
X201135Y158209D02*
X201465D01*
X201135Y122209D02*
X201465D01*
X201136Y151189D02*
X201464D01*
X201138Y130219D02*
X201462D01*
X185139Y143179D02*
X201461D01*
X185141Y138229D02*
X201459D01*
X185141Y135169D02*
X201459D01*
X185143Y146239D02*
X201457D01*
X185144Y127159D02*
X201456D01*
X185146Y154249D02*
X201454D01*
X201146Y118249D02*
X201454D01*
X185146Y155149D02*
X201454D01*
X201146Y119149D02*
X201454D01*
X185148Y126259D02*
X201452D01*
X185149Y147139D02*
X201451D01*
X185150Y134269D02*
X201450D01*
X200368Y139129D02*
X201449D01*
X200357Y142279D02*
X201447D01*
X201153Y131119D02*
X201447D01*
X201155Y150289D02*
X201445D01*
X201156Y159109D02*
X201444D01*
X201156Y123109D02*
X201444D01*
X201157Y158299D02*
X201443D01*
X201157Y122299D02*
X201443D01*
X201158Y151099D02*
X201442D01*
X201159Y130309D02*
X201441D01*
X185160Y143089D02*
X201440D01*
X185161Y138319D02*
X201439D01*
X185162Y135079D02*
X201438D01*
X185163Y146329D02*
X201437D01*
X185164Y127069D02*
X201436D01*
X185165Y154339D02*
X201435D01*
X201165Y118339D02*
X201435D01*
X185166Y155059D02*
X201434D01*
X201166Y119059D02*
X201434D01*
X185167Y126349D02*
X201433D01*
X185168Y147049D02*
X201432D01*
X185169Y134359D02*
X201431D01*
X200222Y139039D02*
X201430D01*
X200209Y142369D02*
X201429D01*
X201171Y131029D02*
X201429D01*
X201173Y150379D02*
X201427D01*
X201173Y159019D02*
X201427D01*
X201173Y123019D02*
X201427D01*
X201174Y158389D02*
X201426D01*
X201174Y122389D02*
X201426D01*
X201175Y151009D02*
X201425D01*
X201176Y130399D02*
X201424D01*
X185176Y142999D02*
X201424D01*
X185178Y138409D02*
X201422D01*
X185178Y134989D02*
X201422D01*
X185179Y146419D02*
X201421D01*
X185179Y126979D02*
X201421D01*
X185181Y154429D02*
X201419D01*
X201181Y118429D02*
X201419D01*
X185181Y154969D02*
X201419D01*
X201181Y118969D02*
X201419D01*
X185182Y126439D02*
X201418D01*
X185182Y146959D02*
X201418D01*
X185183Y134449D02*
X201417D01*
X200037Y138949D02*
X201416D01*
X200019Y142459D02*
X201415D01*
X201185Y130939D02*
X201415D01*
X201186Y150469D02*
X201414D01*
X201186Y158929D02*
X201414D01*
X201186Y122929D02*
X201414D01*
X201187Y158479D02*
X201413D01*
X201187Y122479D02*
X201413D01*
X201187Y150919D02*
X201413D01*
X201188Y130489D02*
X201412D01*
X185189Y142909D02*
X201411D01*
X185189Y138499D02*
X201411D01*
X185190Y134899D02*
X201410D01*
X185190Y146509D02*
X201410D01*
X185191Y126889D02*
X201409D01*
X185191Y154519D02*
X201409D01*
X201191Y118519D02*
X201409D01*
X185192Y154879D02*
X201408D01*
X201192Y118879D02*
X201408D01*
X185192Y126529D02*
X201408D01*
X185193Y146869D02*
X201407D01*
X185193Y134539D02*
X201407D01*
X199769Y138859D02*
X201407D01*
X199739Y142549D02*
X201406D01*
X201194Y130849D02*
X201406D01*
X201195Y150559D02*
X201405D01*
X201195Y158839D02*
X201405D01*
X201195Y122839D02*
X201405D01*
X201195Y158569D02*
X201405D01*
X201195Y122569D02*
X201405D01*
X201196Y150829D02*
X201404D01*
X201196Y130579D02*
X201404D01*
X185196Y142819D02*
X201404D01*
X185197Y138589D02*
X201403D01*
X185197Y134809D02*
X201403D01*
X185197Y146599D02*
X201403D01*
X185197Y126799D02*
X201403D01*
X185198Y154609D02*
X201402D01*
X201198Y118609D02*
X201402D01*
X185198Y154789D02*
X201402D01*
X201198Y118789D02*
X201402D01*
X185198Y126619D02*
X201402D01*
X185198Y146779D02*
X201402D01*
X185199Y134629D02*
X201401D01*
X185199Y138769D02*
X201401D01*
X185199Y142639D02*
X201401D01*
X201199Y130759D02*
X201401D01*
X201199Y150649D02*
X201401D01*
X201199Y158749D02*
X201401D01*
X201199Y122749D02*
X201401D01*
X201200Y158659D02*
X201400D01*
X201200Y122659D02*
X201400D01*
X201200Y150739D02*
X201400D01*
X201200Y130669D02*
X201400D01*
X185200Y142729D02*
X201400D01*
X185200Y138679D02*
X201400D01*
X185200Y134719D02*
X201400D01*
X185200Y146689D02*
X201400D01*
X185200Y126709D02*
X201400D01*
X185200Y154699D02*
X201400D01*
X201200Y118699D02*
X201400D01*
X195482Y116809D02*
X199118D01*
X195507Y120589D02*
X199093D01*
X195694Y132559D02*
X198906D01*
X195727Y148849D02*
X198873D01*
X195739Y160549D02*
X198861D01*
X195739Y142549D02*
X198861D01*
X195739Y124549D02*
X198861D01*
X195769Y156859D02*
X198831D01*
X195769Y138859D02*
X198831D01*
X195769Y120859D02*
X198831D01*
X195779Y152539D02*
X198821D01*
X195806Y128869D02*
X198794D01*
X195904Y116899D02*
X198696D01*
X195912Y120499D02*
X198688D01*
X195994Y132469D02*
X198606D01*
X196013Y148939D02*
X198587D01*
X196019Y160459D02*
X198581D01*
X196019Y142459D02*
X198581D01*
X196019Y124459D02*
X198581D01*
X196037Y156949D02*
X198563D01*
X196037Y138949D02*
X198563D01*
X196037Y120949D02*
X198563D01*
X196043Y152449D02*
X198557D01*
X196060Y128959D02*
X198540D01*
X196126Y116989D02*
X198474D01*
X196131Y120409D02*
X198469D01*
X196190Y132379D02*
X198410D01*
X196204Y149029D02*
X198396D01*
X196209Y160369D02*
X198391D01*
X196209Y142369D02*
X198391D01*
X196209Y124369D02*
X198391D01*
X196222Y157039D02*
X198378D01*
X196222Y139039D02*
X198378D01*
X196222Y121039D02*
X198378D01*
X196227Y152359D02*
X198373D01*
X196240Y129049D02*
X198360D01*
X196291Y117079D02*
X198309D01*
X196295Y120319D02*
X198305D01*
X196342Y132289D02*
X198258D01*
X196353Y149119D02*
X198247D01*
X196357Y160279D02*
X198243D01*
X196357Y142279D02*
X198243D01*
X196357Y124279D02*
X198243D01*
X196368Y157129D02*
X198232D01*
X196368Y139129D02*
X198232D01*
X196368Y121129D02*
X198232D01*
X196372Y152269D02*
X198228D01*
X196383Y129139D02*
X198217D01*
X196425Y117169D02*
X198175D01*
X196428Y120229D02*
X198172D01*
X196468Y132199D02*
X198132D01*
X196477Y149209D02*
X198123D01*
X196481Y160189D02*
X198119D01*
X196481Y142189D02*
X198119D01*
X196481Y124189D02*
X198119D01*
X196490Y157219D02*
X198110D01*
X196490Y139219D02*
X198110D01*
X196490Y121219D02*
X198110D01*
X196493Y152179D02*
X198107D01*
X196502Y129229D02*
X198098D01*
X196538Y117259D02*
X198062D01*
X196541Y120139D02*
X198059D01*
X196575Y132109D02*
X198025D01*
X196583Y149299D02*
X198017D01*
X196586Y160099D02*
X198014D01*
X196586Y142099D02*
X198014D01*
X196586Y124099D02*
X198014D01*
X196594Y157309D02*
X198006D01*
X196594Y139309D02*
X198006D01*
X196594Y121309D02*
X198006D01*
X196597Y152089D02*
X198003D01*
X196605Y129319D02*
X197995D01*
X196636Y117349D02*
X197964D01*
X196638Y120049D02*
X197962D01*
X196668Y132019D02*
X197932D01*
X196675Y149389D02*
X197925D01*
X196677Y160009D02*
X197923D01*
X196677Y142009D02*
X197923D01*
X196677Y124009D02*
X197923D01*
X196684Y157399D02*
X197916D01*
X196684Y139399D02*
X197916D01*
X196684Y121399D02*
X197916D01*
X196687Y151999D02*
X197913D01*
X196694Y129409D02*
X197906D01*
X196721Y117439D02*
X197879D01*
X196723Y119959D02*
X197877D01*
X196749Y131929D02*
X197851D01*
X196755Y149479D02*
X197845D01*
X196758Y159919D02*
X197842D01*
X196758Y141919D02*
X197842D01*
X196758Y123919D02*
X197842D01*
X196764Y157489D02*
X197836D01*
X196764Y139489D02*
X197836D01*
X196764Y121489D02*
X197836D01*
X196766Y151909D02*
X197834D01*
X196772Y129499D02*
X197828D01*
X196796Y117529D02*
X197804D01*
X196798Y119869D02*
X197802D01*
X196821Y131839D02*
X197779D01*
X196827Y149569D02*
X197773D01*
X196828Y159829D02*
X197772D01*
X196828Y141829D02*
X197772D01*
X196828Y123829D02*
X197772D01*
X196834Y157579D02*
X197766D01*
X196834Y139579D02*
X197766D01*
X196834Y121579D02*
X197766D01*
X196836Y151819D02*
X197764D01*
X196841Y129589D02*
X197759D01*
X196862Y117619D02*
X197738D01*
X196864Y119779D02*
X197736D01*
X196884Y131749D02*
X197716D01*
X196889Y149659D02*
X197711D01*
X196891Y159739D02*
X197709D01*
X196891Y141739D02*
X197709D01*
X196891Y123739D02*
X197709D01*
X196896Y157669D02*
X197704D01*
X196896Y139669D02*
X197704D01*
X196896Y121669D02*
X197704D01*
X196897Y151729D02*
X197703D01*
X196902Y129679D02*
X197698D01*
X196921Y117709D02*
X197679D01*
X196923Y119689D02*
X197677D01*
X196940Y131659D02*
X197660D01*
X196945Y149749D02*
X197655D01*
X196946Y159649D02*
X197654D01*
X196946Y141649D02*
X197654D01*
X196946Y123649D02*
X197654D01*
X196950Y157759D02*
X197650D01*
X196950Y139759D02*
X197650D01*
X196950Y121759D02*
X197650D01*
X196952Y151639D02*
X197648D01*
X196956Y129769D02*
X197644D01*
X196973Y117799D02*
X197627D01*
X196974Y119599D02*
X197626D01*
X196990Y131569D02*
X197610D01*
X196994Y149839D02*
X197606D01*
X196995Y159559D02*
X197605D01*
X196995Y141559D02*
X197605D01*
X196995Y123559D02*
X197605D01*
X196999Y157849D02*
X197601D01*
X196999Y139849D02*
X197601D01*
X196999Y121849D02*
X197601D01*
X197000Y151549D02*
X197600D01*
X197004Y129859D02*
X197596D01*
X197018Y117889D02*
X197582D01*
X197019Y119509D02*
X197581D01*
X197033Y131479D02*
X197567D01*
X197036Y149929D02*
X197564D01*
X197038Y159469D02*
X197562D01*
X197038Y141469D02*
X197562D01*
X197038Y123469D02*
X197562D01*
X197041Y157939D02*
X197559D01*
X197041Y139939D02*
X197559D01*
X197041Y121939D02*
X197559D01*
X197042Y151459D02*
X197558D01*
X197045Y129949D02*
X197555D01*
X197058Y117979D02*
X197542D01*
X197059Y119419D02*
X197541D01*
X197071Y131389D02*
X197529D01*
X197074Y150019D02*
X197526D01*
X197075Y159379D02*
X197525D01*
X197075Y141379D02*
X197525D01*
X197075Y123379D02*
X197525D01*
X197077Y158029D02*
X197523D01*
X197077Y140029D02*
X197523D01*
X197077Y122029D02*
X197523D01*
X197078Y151369D02*
X197522D01*
X197081Y130039D02*
X197519D01*
X197092Y118069D02*
X197508D01*
X197093Y119329D02*
X197507D01*
X197103Y131299D02*
X197497D01*
X197106Y150109D02*
X197494D01*
X197107Y159289D02*
X197493D01*
X197107Y141289D02*
X197493D01*
X197107Y123289D02*
X197493D01*
X197109Y158119D02*
X197491D01*
X197109Y140119D02*
X197491D01*
X197109Y122119D02*
X197491D01*
X197110Y151279D02*
X197490D01*
X197112Y130129D02*
X197488D01*
X197121Y118159D02*
X197479D01*
X197122Y119239D02*
X197478D01*
X197131Y131209D02*
X197469D01*
X197133Y150199D02*
X197467D01*
X197133Y159199D02*
X197467D01*
X197133Y141199D02*
X197467D01*
X197133Y123199D02*
X197467D01*
X197135Y158209D02*
X197465D01*
X197135Y140209D02*
X197465D01*
X197135Y122209D02*
X197465D01*
X197136Y151189D02*
X197464D01*
X197138Y130219D02*
X197462D01*
X197146Y118249D02*
X197454D01*
X197146Y119149D02*
X197454D01*
X197153Y131119D02*
X197447D01*
X197155Y150289D02*
X197445D01*
X197156Y159109D02*
X197444D01*
X197156Y141109D02*
X197444D01*
X197156Y123109D02*
X197444D01*
X197157Y158299D02*
X197443D01*
X197157Y140299D02*
X197443D01*
X197157Y122299D02*
X197443D01*
X197158Y151099D02*
X197442D01*
X197159Y130309D02*
X197441D01*
X197165Y118339D02*
X197435D01*
X197166Y119059D02*
X197434D01*
X197171Y131029D02*
X197429D01*
X197173Y150379D02*
X197427D01*
X197173Y159019D02*
X197427D01*
X197173Y141019D02*
X197427D01*
X197173Y123019D02*
X197427D01*
X197174Y158389D02*
X197426D01*
X197174Y140389D02*
X197426D01*
X197174Y122389D02*
X197426D01*
X197175Y151009D02*
X197425D01*
X197176Y130399D02*
X197424D01*
X197181Y118429D02*
X197419D01*
X197181Y118969D02*
X197419D01*
X197185Y130939D02*
X197415D01*
X197186Y150469D02*
X197414D01*
X197186Y158929D02*
X197414D01*
X197186Y140929D02*
X197414D01*
X197186Y122929D02*
X197414D01*
X197187Y158479D02*
X197413D01*
X197187Y140479D02*
X197413D01*
X197187Y122479D02*
X197413D01*
X197187Y150919D02*
X197413D01*
X197188Y130489D02*
X197412D01*
X197191Y118519D02*
X197409D01*
X197192Y118879D02*
X197408D01*
X197194Y130849D02*
X197406D01*
X197195Y150559D02*
X197405D01*
X197195Y158839D02*
X197405D01*
X197195Y140839D02*
X197405D01*
X197195Y122839D02*
X197405D01*
X197195Y158569D02*
X197405D01*
X197195Y140569D02*
X197405D01*
X197195Y122569D02*
X197405D01*
X197196Y150829D02*
X197404D01*
X197196Y130579D02*
X197404D01*
X197198Y118609D02*
X197402D01*
X197198Y118789D02*
X197402D01*
X197199Y130759D02*
X197401D01*
X197199Y150649D02*
X197401D01*
X197199Y158749D02*
X197401D01*
X197199Y140749D02*
X197401D01*
X197199Y122749D02*
X197401D01*
X197200Y158659D02*
X197400D01*
X197200Y140659D02*
X197400D01*
X197200Y122659D02*
X197400D01*
X197200Y150739D02*
X197400D01*
X197200Y130669D02*
X197400D01*
X197200Y118699D02*
X197400D01*
X191482Y116809D02*
X195118D01*
X191507Y120589D02*
X195093D01*
X191694Y132559D02*
X194906D01*
X191727Y148849D02*
X194873D01*
X191739Y160549D02*
X194861D01*
X191739Y142549D02*
X194861D01*
X191739Y124549D02*
X194861D01*
X191769Y156859D02*
X194831D01*
X191769Y138859D02*
X194831D01*
X191769Y120859D02*
X194831D01*
X191779Y152539D02*
X194821D01*
X191806Y128869D02*
X194794D01*
X191904Y116899D02*
X194696D01*
X191912Y120499D02*
X194688D01*
X191994Y132469D02*
X194606D01*
X192013Y148939D02*
X194587D01*
X192019Y160459D02*
X194581D01*
X192019Y142459D02*
X194581D01*
X192019Y124459D02*
X194581D01*
X192037Y156949D02*
X194563D01*
X192037Y138949D02*
X194563D01*
X192037Y120949D02*
X194563D01*
X192043Y152449D02*
X194557D01*
X192060Y128959D02*
X194540D01*
X192126Y116989D02*
X194474D01*
X192131Y120409D02*
X194469D01*
X192190Y132379D02*
X194410D01*
X192204Y149029D02*
X194396D01*
X192209Y160369D02*
X194391D01*
X192209Y142369D02*
X194391D01*
X192209Y124369D02*
X194391D01*
X192222Y157039D02*
X194378D01*
X192222Y139039D02*
X194378D01*
X192222Y121039D02*
X194378D01*
X192227Y152359D02*
X194373D01*
X192240Y129049D02*
X194360D01*
X192291Y117079D02*
X194309D01*
X192295Y120319D02*
X194305D01*
X192342Y132289D02*
X194258D01*
X192353Y149119D02*
X194247D01*
X192357Y160279D02*
X194243D01*
X192357Y142279D02*
X194243D01*
X192357Y124279D02*
X194243D01*
X192368Y157129D02*
X194232D01*
X192368Y139129D02*
X194232D01*
X192368Y121129D02*
X194232D01*
X192372Y152269D02*
X194228D01*
X192383Y129139D02*
X194217D01*
X192425Y117169D02*
X194175D01*
X192428Y120229D02*
X194172D01*
X192468Y132199D02*
X194132D01*
X192477Y149209D02*
X194123D01*
X192481Y160189D02*
X194119D01*
X192481Y142189D02*
X194119D01*
X192481Y124189D02*
X194119D01*
X192490Y157219D02*
X194110D01*
X192490Y139219D02*
X194110D01*
X192490Y121219D02*
X194110D01*
X192493Y152179D02*
X194107D01*
X192502Y129229D02*
X194098D01*
X192538Y117259D02*
X194062D01*
X192541Y120139D02*
X194059D01*
X192575Y132109D02*
X194025D01*
X192583Y149299D02*
X194017D01*
X192586Y160099D02*
X194014D01*
X192586Y142099D02*
X194014D01*
X192586Y124099D02*
X194014D01*
X192594Y157309D02*
X194006D01*
X192594Y139309D02*
X194006D01*
X192594Y121309D02*
X194006D01*
X192597Y152089D02*
X194003D01*
X192605Y129319D02*
X193995D01*
X192636Y117349D02*
X193964D01*
X192638Y120049D02*
X193962D01*
X192668Y132019D02*
X193932D01*
X192675Y149389D02*
X193925D01*
X192677Y160009D02*
X193923D01*
X192677Y142009D02*
X193923D01*
X192677Y124009D02*
X193923D01*
X192684Y157399D02*
X193916D01*
X192684Y139399D02*
X193916D01*
X192684Y121399D02*
X193916D01*
X192687Y151999D02*
X193913D01*
X192694Y129409D02*
X193906D01*
X192721Y117439D02*
X193879D01*
X192723Y119959D02*
X193877D01*
X192749Y131929D02*
X193851D01*
X192755Y149479D02*
X193845D01*
X192758Y159919D02*
X193842D01*
X192758Y141919D02*
X193842D01*
X192758Y123919D02*
X193842D01*
X192764Y157489D02*
X193836D01*
X192764Y139489D02*
X193836D01*
X192764Y121489D02*
X193836D01*
X192766Y151909D02*
X193834D01*
X192772Y129499D02*
X193828D01*
X192796Y117529D02*
X193804D01*
X192798Y119869D02*
X193802D01*
X192821Y131839D02*
X193779D01*
X192827Y149569D02*
X193773D01*
X192828Y159829D02*
X193772D01*
X192828Y141829D02*
X193772D01*
X192828Y123829D02*
X193772D01*
X192834Y157579D02*
X193766D01*
X192834Y139579D02*
X193766D01*
X192834Y121579D02*
X193766D01*
X192836Y151819D02*
X193764D01*
X192841Y129589D02*
X193759D01*
X192862Y117619D02*
X193738D01*
X192864Y119779D02*
X193736D01*
X192884Y131749D02*
X193716D01*
X192889Y149659D02*
X193711D01*
X192891Y159739D02*
X193709D01*
X192891Y141739D02*
X193709D01*
X192891Y123739D02*
X193709D01*
X192896Y157669D02*
X193704D01*
X192896Y139669D02*
X193704D01*
X192896Y121669D02*
X193704D01*
X192897Y151729D02*
X193703D01*
X192902Y129679D02*
X193698D01*
X192921Y117709D02*
X193679D01*
X192923Y119689D02*
X193677D01*
X192940Y131659D02*
X193660D01*
X192945Y149749D02*
X193655D01*
X192946Y159649D02*
X193654D01*
X192946Y141649D02*
X193654D01*
X192946Y123649D02*
X193654D01*
X192950Y157759D02*
X193650D01*
X192950Y139759D02*
X193650D01*
X192950Y121759D02*
X193650D01*
X192952Y151639D02*
X193648D01*
X192956Y129769D02*
X193644D01*
X192973Y117799D02*
X193627D01*
X192974Y119599D02*
X193626D01*
X192990Y131569D02*
X193610D01*
X192994Y149839D02*
X193606D01*
X192995Y159559D02*
X193605D01*
X192995Y141559D02*
X193605D01*
X192995Y123559D02*
X193605D01*
X192999Y157849D02*
X193601D01*
X192999Y139849D02*
X193601D01*
X192999Y121849D02*
X193601D01*
X193000Y151549D02*
X193600D01*
X193004Y129859D02*
X193596D01*
X193018Y117889D02*
X193582D01*
X193019Y119509D02*
X193581D01*
X193033Y131479D02*
X193567D01*
X193036Y149929D02*
X193564D01*
X193038Y159469D02*
X193562D01*
X193038Y141469D02*
X193562D01*
X193038Y123469D02*
X193562D01*
X193041Y157939D02*
X193559D01*
X193041Y139939D02*
X193559D01*
X193041Y121939D02*
X193559D01*
X193042Y151459D02*
X193558D01*
X193045Y129949D02*
X193555D01*
X193058Y117979D02*
X193542D01*
X193059Y119419D02*
X193541D01*
X193071Y131389D02*
X193529D01*
X193074Y150019D02*
X193526D01*
X193075Y159379D02*
X193525D01*
X193075Y141379D02*
X193525D01*
X193075Y123379D02*
X193525D01*
X193077Y158029D02*
X193523D01*
X193077Y140029D02*
X193523D01*
X193077Y122029D02*
X193523D01*
X193078Y151369D02*
X193522D01*
X193081Y130039D02*
X193519D01*
X193092Y118069D02*
X193508D01*
X193093Y119329D02*
X193507D01*
X193103Y131299D02*
X193497D01*
X193106Y150109D02*
X193494D01*
X193107Y159289D02*
X193493D01*
X193107Y141289D02*
X193493D01*
X193107Y123289D02*
X193493D01*
X193109Y158119D02*
X193491D01*
X193109Y140119D02*
X193491D01*
X193109Y122119D02*
X193491D01*
X193110Y151279D02*
X193490D01*
X193112Y130129D02*
X193488D01*
X193121Y118159D02*
X193479D01*
X193122Y119239D02*
X193478D01*
X193131Y131209D02*
X193469D01*
X193133Y150199D02*
X193467D01*
X193133Y159199D02*
X193467D01*
X193133Y141199D02*
X193467D01*
X193133Y123199D02*
X193467D01*
X193135Y158209D02*
X193465D01*
X193135Y140209D02*
X193465D01*
X193135Y122209D02*
X193465D01*
X193136Y151189D02*
X193464D01*
X193138Y130219D02*
X193462D01*
X193146Y118249D02*
X193454D01*
X193146Y119149D02*
X193454D01*
X193153Y131119D02*
X193447D01*
X193155Y150289D02*
X193445D01*
X193156Y159109D02*
X193444D01*
X193156Y141109D02*
X193444D01*
X193156Y123109D02*
X193444D01*
X193157Y158299D02*
X193443D01*
X193157Y140299D02*
X193443D01*
X193157Y122299D02*
X193443D01*
X193158Y151099D02*
X193442D01*
X193159Y130309D02*
X193441D01*
X193165Y118339D02*
X193435D01*
X193166Y119059D02*
X193434D01*
X193171Y131029D02*
X193429D01*
X193173Y150379D02*
X193427D01*
X193173Y159019D02*
X193427D01*
X193173Y141019D02*
X193427D01*
X193173Y123019D02*
X193427D01*
X193174Y158389D02*
X193426D01*
X193174Y140389D02*
X193426D01*
X193174Y122389D02*
X193426D01*
X193175Y151009D02*
X193425D01*
X193176Y130399D02*
X193424D01*
X193181Y118429D02*
X193419D01*
X193181Y118969D02*
X193419D01*
X193185Y130939D02*
X193415D01*
X193186Y150469D02*
X193414D01*
X193186Y158929D02*
X193414D01*
X193186Y140929D02*
X193414D01*
X193186Y122929D02*
X193414D01*
X193187Y158479D02*
X193413D01*
X193187Y140479D02*
X193413D01*
X193187Y122479D02*
X193413D01*
X193187Y150919D02*
X193413D01*
X193188Y130489D02*
X193412D01*
X193191Y118519D02*
X193409D01*
X193192Y118879D02*
X193408D01*
X193194Y130849D02*
X193406D01*
X193195Y150559D02*
X193405D01*
X193195Y158839D02*
X193405D01*
X193195Y140839D02*
X193405D01*
X193195Y122839D02*
X193405D01*
X193195Y158569D02*
X193405D01*
X193195Y140569D02*
X193405D01*
X193195Y122569D02*
X193405D01*
X193196Y150829D02*
X193404D01*
X193196Y130579D02*
X193404D01*
X193198Y118609D02*
X193402D01*
X193198Y118789D02*
X193402D01*
X193199Y130759D02*
X193401D01*
X193199Y150649D02*
X193401D01*
X193199Y158749D02*
X193401D01*
X193199Y140749D02*
X193401D01*
X193199Y122749D02*
X193401D01*
X193200Y158659D02*
X193400D01*
X193200Y140659D02*
X193400D01*
X193200Y122659D02*
X193400D01*
X193200Y150739D02*
X193400D01*
X193200Y130669D02*
X193400D01*
X193200Y118699D02*
X193400D01*
X189247Y103399D02*
X192753D01*
X189253Y110599D02*
X192747D01*
X189401Y103489D02*
X192599D01*
X189405Y110509D02*
X192595D01*
X189495Y103579D02*
X192505D01*
X189497Y110419D02*
X192503D01*
X189559Y103669D02*
X192441D01*
X189561Y110329D02*
X192439D01*
X189604Y103759D02*
X192396D01*
X189605Y110239D02*
X192395D01*
X189632Y103849D02*
X192368D01*
X189633Y110149D02*
X192367D01*
X189647Y103939D02*
X192353D01*
X189647Y110059D02*
X192353D01*
X189650Y109969D02*
X192350D01*
X189650Y109879D02*
X192350D01*
X189650Y109789D02*
X192350D01*
X189650Y109699D02*
X192350D01*
X189650Y109609D02*
X192350D01*
X189650Y109519D02*
X192350D01*
X189650Y109429D02*
X192350D01*
X189650Y109339D02*
X192350D01*
X189650Y109249D02*
X192350D01*
X189650Y109159D02*
X192350D01*
X189650Y109069D02*
X192350D01*
X189650Y108979D02*
X192350D01*
X189650Y108889D02*
X192350D01*
X189650Y108799D02*
X192350D01*
X189650Y108709D02*
X192350D01*
X189650Y108619D02*
X192350D01*
X189650Y108529D02*
X192350D01*
X189650Y108439D02*
X192350D01*
X189650Y108349D02*
X192350D01*
X189650Y108259D02*
X192350D01*
X189650Y108169D02*
X192350D01*
X189650Y108079D02*
X192350D01*
X189650Y107989D02*
X192350D01*
X189650Y107899D02*
X192350D01*
X189650Y107809D02*
X192350D01*
X189650Y107719D02*
X192350D01*
X189650Y107629D02*
X192350D01*
X189650Y107539D02*
X192350D01*
X189650Y107449D02*
X192350D01*
X189650Y107359D02*
X192350D01*
X189650Y107269D02*
X192350D01*
X189650Y107179D02*
X192350D01*
X189650Y107089D02*
X192350D01*
X189650Y106999D02*
X192350D01*
X189650Y106909D02*
X192350D01*
X189650Y106819D02*
X192350D01*
X189650Y106729D02*
X192350D01*
X189650Y106639D02*
X192350D01*
X189650Y106549D02*
X192350D01*
X189650Y106459D02*
X192350D01*
X189650Y106369D02*
X192350D01*
X189650Y106279D02*
X192350D01*
X189650Y106189D02*
X192350D01*
X189650Y106099D02*
X192350D01*
X189650Y106009D02*
X192350D01*
X189650Y105919D02*
X192350D01*
X189650Y105829D02*
X192350D01*
X189650Y105739D02*
X192350D01*
X189650Y105649D02*
X192350D01*
X189650Y105559D02*
X192350D01*
X189650Y105469D02*
X192350D01*
X189650Y105379D02*
X192350D01*
X189650Y105289D02*
X192350D01*
X189650Y105199D02*
X192350D01*
X189650Y105109D02*
X192350D01*
X189650Y105019D02*
X192350D01*
X189650Y104929D02*
X192350D01*
X189650Y104839D02*
X192350D01*
X189650Y104749D02*
X192350D01*
X189650Y104659D02*
X192350D01*
X189650Y104569D02*
X192350D01*
X189650Y104479D02*
X192350D01*
X189650Y104389D02*
X192350D01*
X189650Y104299D02*
X192350D01*
X189650Y104209D02*
X192350D01*
X189650Y104119D02*
X192350D01*
X189650Y104029D02*
X192350D01*
X187482Y116809D02*
X191118D01*
X187507Y120589D02*
X191093D01*
X187694Y132559D02*
X190906D01*
X187727Y148849D02*
X190873D01*
X187739Y160549D02*
X190861D01*
X187739Y142549D02*
X190861D01*
X187739Y124549D02*
X190861D01*
X187769Y156859D02*
X190831D01*
X187769Y138859D02*
X190831D01*
X187769Y120859D02*
X190831D01*
X187779Y152539D02*
X190821D01*
X187806Y128869D02*
X190794D01*
X187904Y116899D02*
X190696D01*
X187912Y120499D02*
X190688D01*
X187994Y132469D02*
X190606D01*
X188013Y148939D02*
X190587D01*
X188019Y160459D02*
X190581D01*
X188019Y142459D02*
X190581D01*
X188019Y124459D02*
X190581D01*
X188037Y156949D02*
X190563D01*
X188037Y138949D02*
X190563D01*
X188037Y120949D02*
X190563D01*
X188043Y152449D02*
X190557D01*
X188060Y128959D02*
X190540D01*
X188126Y116989D02*
X190474D01*
X188131Y120409D02*
X190469D01*
X188190Y132379D02*
X190410D01*
X188204Y149029D02*
X190396D01*
X188209Y160369D02*
X190391D01*
X188209Y142369D02*
X190391D01*
X188209Y124369D02*
X190391D01*
X188222Y157039D02*
X190378D01*
X188222Y139039D02*
X190378D01*
X188222Y121039D02*
X190378D01*
X188227Y152359D02*
X190373D01*
X188240Y129049D02*
X190360D01*
X188291Y117079D02*
X190309D01*
X188295Y120319D02*
X190305D01*
X188342Y132289D02*
X190258D01*
X188353Y149119D02*
X190247D01*
X188357Y160279D02*
X190243D01*
X188357Y142279D02*
X190243D01*
X188357Y124279D02*
X190243D01*
X188368Y157129D02*
X190232D01*
X188368Y139129D02*
X190232D01*
X188368Y121129D02*
X190232D01*
X188372Y152269D02*
X190228D01*
X188383Y129139D02*
X190217D01*
X188425Y117169D02*
X190175D01*
X188428Y120229D02*
X190172D01*
X188468Y132199D02*
X190132D01*
X188477Y149209D02*
X190123D01*
X188481Y160189D02*
X190119D01*
X188481Y142189D02*
X190119D01*
X188481Y124189D02*
X190119D01*
X188490Y157219D02*
X190110D01*
X188490Y139219D02*
X190110D01*
X188490Y121219D02*
X190110D01*
X188493Y152179D02*
X190107D01*
X188502Y129229D02*
X190098D01*
X188538Y117259D02*
X190062D01*
X188541Y120139D02*
X190059D01*
X188575Y132109D02*
X190025D01*
X188583Y149299D02*
X190017D01*
X188586Y160099D02*
X190014D01*
X188586Y142099D02*
X190014D01*
X188586Y124099D02*
X190014D01*
X188594Y157309D02*
X190006D01*
X188594Y139309D02*
X190006D01*
X188594Y121309D02*
X190006D01*
X188597Y152089D02*
X190003D01*
X188605Y129319D02*
X189995D01*
X188636Y117349D02*
X189964D01*
X188638Y120049D02*
X189962D01*
X188668Y132019D02*
X189932D01*
X188675Y149389D02*
X189925D01*
X188677Y160009D02*
X189923D01*
X188677Y142009D02*
X189923D01*
X188677Y124009D02*
X189923D01*
X188684Y157399D02*
X189916D01*
X188684Y139399D02*
X189916D01*
X188684Y121399D02*
X189916D01*
X188687Y151999D02*
X189913D01*
X188694Y129409D02*
X189906D01*
X188721Y117439D02*
X189879D01*
X188723Y119959D02*
X189877D01*
X188749Y131929D02*
X189851D01*
X188755Y149479D02*
X189845D01*
X188758Y159919D02*
X189842D01*
X188758Y141919D02*
X189842D01*
X188758Y123919D02*
X189842D01*
X188764Y157489D02*
X189836D01*
X188764Y139489D02*
X189836D01*
X188764Y121489D02*
X189836D01*
X188766Y151909D02*
X189834D01*
X188772Y129499D02*
X189828D01*
X188796Y117529D02*
X189804D01*
X188798Y119869D02*
X189802D01*
X188821Y131839D02*
X189779D01*
X188827Y149569D02*
X189773D01*
X188828Y159829D02*
X189772D01*
X188828Y141829D02*
X189772D01*
X188828Y123829D02*
X189772D01*
X188834Y157579D02*
X189766D01*
X188834Y139579D02*
X189766D01*
X188834Y121579D02*
X189766D01*
X188836Y151819D02*
X189764D01*
X188841Y129589D02*
X189759D01*
X188862Y117619D02*
X189738D01*
X188864Y119779D02*
X189736D01*
X188884Y131749D02*
X189716D01*
X188889Y149659D02*
X189711D01*
X188891Y159739D02*
X189709D01*
X188891Y141739D02*
X189709D01*
X188891Y123739D02*
X189709D01*
X188896Y157669D02*
X189704D01*
X188896Y139669D02*
X189704D01*
X188896Y121669D02*
X189704D01*
X188897Y151729D02*
X189703D01*
X188902Y129679D02*
X189698D01*
X188921Y117709D02*
X189679D01*
X188923Y119689D02*
X189677D01*
X188940Y131659D02*
X189660D01*
X188945Y149749D02*
X189655D01*
X188946Y159649D02*
X189654D01*
X188946Y141649D02*
X189654D01*
X188946Y123649D02*
X189654D01*
X188950Y157759D02*
X189650D01*
X188950Y139759D02*
X189650D01*
X188950Y121759D02*
X189650D01*
X188952Y151639D02*
X189648D01*
X188956Y129769D02*
X189644D01*
X188973Y117799D02*
X189627D01*
X188974Y119599D02*
X189626D01*
X188990Y131569D02*
X189610D01*
X188994Y149839D02*
X189606D01*
X188995Y159559D02*
X189605D01*
X188995Y141559D02*
X189605D01*
X188995Y123559D02*
X189605D01*
X188999Y157849D02*
X189601D01*
X188999Y139849D02*
X189601D01*
X188999Y121849D02*
X189601D01*
X189000Y151549D02*
X189600D01*
X189004Y129859D02*
X189596D01*
X189018Y117889D02*
X189582D01*
X189019Y119509D02*
X189581D01*
X189033Y131479D02*
X189567D01*
X189036Y149929D02*
X189564D01*
X189038Y159469D02*
X189562D01*
X189038Y141469D02*
X189562D01*
X189038Y123469D02*
X189562D01*
X189041Y157939D02*
X189559D01*
X189041Y139939D02*
X189559D01*
X189041Y121939D02*
X189559D01*
X189042Y151459D02*
X189558D01*
X189045Y129949D02*
X189555D01*
X189058Y117979D02*
X189542D01*
X189059Y119419D02*
X189541D01*
X189071Y131389D02*
X189529D01*
X189074Y150019D02*
X189526D01*
X189075Y159379D02*
X189525D01*
X189075Y141379D02*
X189525D01*
X189075Y123379D02*
X189525D01*
X189077Y158029D02*
X189523D01*
X189077Y140029D02*
X189523D01*
X189077Y122029D02*
X189523D01*
X189078Y151369D02*
X189522D01*
X189081Y130039D02*
X189519D01*
X189092Y118069D02*
X189508D01*
X189093Y119329D02*
X189507D01*
X189103Y131299D02*
X189497D01*
X189106Y150109D02*
X189494D01*
X189107Y159289D02*
X189493D01*
X189107Y141289D02*
X189493D01*
X189107Y123289D02*
X189493D01*
X189109Y158119D02*
X189491D01*
X189109Y140119D02*
X189491D01*
X189109Y122119D02*
X189491D01*
X189110Y151279D02*
X189490D01*
X189112Y130129D02*
X189488D01*
X189121Y118159D02*
X189479D01*
X189122Y119239D02*
X189478D01*
X189131Y131209D02*
X189469D01*
X189133Y150199D02*
X189467D01*
X189133Y159199D02*
X189467D01*
X189133Y141199D02*
X189467D01*
X189133Y123199D02*
X189467D01*
X189135Y158209D02*
X189465D01*
X189135Y140209D02*
X189465D01*
X189135Y122209D02*
X189465D01*
X189136Y151189D02*
X189464D01*
X189138Y130219D02*
X189462D01*
X189146Y118249D02*
X189454D01*
X189146Y119149D02*
X189454D01*
X189153Y131119D02*
X189447D01*
X189155Y150289D02*
X189445D01*
X189156Y159109D02*
X189444D01*
X189156Y141109D02*
X189444D01*
X189156Y123109D02*
X189444D01*
X189157Y158299D02*
X189443D01*
X189157Y140299D02*
X189443D01*
X189157Y122299D02*
X189443D01*
X189158Y151099D02*
X189442D01*
X189159Y130309D02*
X189441D01*
X189165Y118339D02*
X189435D01*
X189166Y119059D02*
X189434D01*
X189171Y131029D02*
X189429D01*
X189173Y150379D02*
X189427D01*
X189173Y159019D02*
X189427D01*
X189173Y141019D02*
X189427D01*
X189173Y123019D02*
X189427D01*
X189174Y158389D02*
X189426D01*
X189174Y140389D02*
X189426D01*
X189174Y122389D02*
X189426D01*
X189175Y151009D02*
X189425D01*
X189176Y130399D02*
X189424D01*
X189181Y118429D02*
X189419D01*
X189181Y118969D02*
X189419D01*
X189185Y130939D02*
X189415D01*
X189186Y150469D02*
X189414D01*
X189186Y158929D02*
X189414D01*
X189186Y140929D02*
X189414D01*
X189186Y122929D02*
X189414D01*
X189187Y158479D02*
X189413D01*
X189187Y140479D02*
X189413D01*
X189187Y122479D02*
X189413D01*
X189187Y150919D02*
X189413D01*
X189188Y130489D02*
X189412D01*
X189191Y118519D02*
X189409D01*
X189192Y118879D02*
X189408D01*
X189194Y130849D02*
X189406D01*
X189195Y150559D02*
X189405D01*
X189195Y158839D02*
X189405D01*
X189195Y140839D02*
X189405D01*
X189195Y122839D02*
X189405D01*
X189195Y158569D02*
X189405D01*
X189195Y140569D02*
X189405D01*
X189195Y122569D02*
X189405D01*
X189196Y150829D02*
X189404D01*
X189196Y130579D02*
X189404D01*
X189198Y118609D02*
X189402D01*
X189198Y118789D02*
X189402D01*
X189199Y130759D02*
X189401D01*
X189199Y150649D02*
X189401D01*
X189199Y158749D02*
X189401D01*
X189199Y140749D02*
X189401D01*
X189199Y122749D02*
X189401D01*
X189200Y158659D02*
X189400D01*
X189200Y140659D02*
X189400D01*
X189200Y122659D02*
X189400D01*
X189200Y150739D02*
X189400D01*
X189200Y130669D02*
X189400D01*
X189200Y118699D02*
X189400D01*
X183482Y116809D02*
X187118D01*
X183507Y120589D02*
X187093D01*
X183694Y132559D02*
X186906D01*
X183727Y148849D02*
X186873D01*
X183739Y160549D02*
X186861D01*
X185194Y142549D02*
X186861D01*
X183739Y124549D02*
X186861D01*
X183769Y156859D02*
X186831D01*
X185193Y138859D02*
X186831D01*
X183769Y120859D02*
X186831D01*
X183779Y152539D02*
X186821D01*
X183806Y128869D02*
X186794D01*
X183904Y116899D02*
X186696D01*
X183912Y120499D02*
X186688D01*
X183994Y132469D02*
X186606D01*
X184013Y148939D02*
X186587D01*
X184019Y160459D02*
X186581D01*
X185185Y142459D02*
X186581D01*
X184019Y124459D02*
X186581D01*
X184037Y156949D02*
X186563D01*
X185184Y138949D02*
X186563D01*
X184037Y120949D02*
X186563D01*
X184043Y152449D02*
X186557D01*
X184060Y128959D02*
X186540D01*
X184126Y116989D02*
X186474D01*
X184131Y120409D02*
X186469D01*
X184190Y132379D02*
X186410D01*
X184204Y149029D02*
X186396D01*
X184209Y160369D02*
X186391D01*
X185171Y142369D02*
X186391D01*
X184209Y124369D02*
X186391D01*
X184222Y157039D02*
X186378D01*
X185170Y139039D02*
X186378D01*
X184222Y121039D02*
X186378D01*
X184227Y152359D02*
X186373D01*
X184240Y129049D02*
X186360D01*
X184291Y117079D02*
X186309D01*
X184295Y120319D02*
X186305D01*
X184342Y132289D02*
X186258D01*
X184353Y149119D02*
X186247D01*
X184357Y160279D02*
X186243D01*
X185153Y142279D02*
X186243D01*
X184357Y124279D02*
X186243D01*
X184368Y157129D02*
X186232D01*
X185151Y139129D02*
X186232D01*
X184368Y121129D02*
X186232D01*
X184372Y152269D02*
X186228D01*
X184383Y129139D02*
X186217D01*
X184425Y117169D02*
X186175D01*
X184428Y120229D02*
X186172D01*
X184468Y132199D02*
X186132D01*
X184477Y149209D02*
X186123D01*
X184481Y160189D02*
X186119D01*
X185130Y142189D02*
X186119D01*
X184481Y124189D02*
X186119D01*
X184490Y157219D02*
X186110D01*
X185128Y139219D02*
X186110D01*
X184490Y121219D02*
X186110D01*
X184493Y152179D02*
X186107D01*
X184502Y129229D02*
X186098D01*
X184538Y117259D02*
X186062D01*
X184541Y120139D02*
X186059D01*
X184575Y132109D02*
X186025D01*
X184583Y149299D02*
X186017D01*
X184586Y160099D02*
X186014D01*
X185102Y142099D02*
X186014D01*
X184586Y124099D02*
X186014D01*
X184594Y157309D02*
X186006D01*
X185100Y139309D02*
X186006D01*
X184594Y121309D02*
X186006D01*
X184597Y152089D02*
X186003D01*
X184605Y129319D02*
X185995D01*
X184636Y117349D02*
X185964D01*
X184638Y120049D02*
X185962D01*
X184668Y132019D02*
X185932D01*
X184675Y149389D02*
X185925D01*
X184677Y160009D02*
X185923D01*
X185070Y142009D02*
X185923D01*
X184677Y124009D02*
X185923D01*
X184684Y157399D02*
X185916D01*
X185067Y139399D02*
X185916D01*
X184684Y121399D02*
X185916D01*
X184687Y151999D02*
X185913D01*
X184694Y129409D02*
X185906D01*
X184721Y117439D02*
X185879D01*
X184723Y119959D02*
X185877D01*
X184749Y131929D02*
X185851D01*
X184755Y149479D02*
X185845D01*
X184758Y159919D02*
X185842D01*
X185032Y141919D02*
X185842D01*
X184758Y123919D02*
X185842D01*
X184764Y157489D02*
X185836D01*
X185029Y139489D02*
X185836D01*
X184764Y121489D02*
X185836D01*
X184766Y151909D02*
X185834D01*
X184772Y129499D02*
X185828D01*
X184796Y117529D02*
X185804D01*
X184798Y119869D02*
X185802D01*
X184821Y131839D02*
X185779D01*
X184827Y149569D02*
X185773D01*
X184828Y159829D02*
X185772D01*
X184988Y141829D02*
X185772D01*
X184828Y123829D02*
X185772D01*
X184834Y157579D02*
X185766D01*
X184985Y139579D02*
X185766D01*
X184834Y121579D02*
X185766D01*
X184836Y151819D02*
X185764D01*
X184841Y129589D02*
X185759D01*
X184862Y117619D02*
X185738D01*
X184864Y119779D02*
X185736D01*
X184884Y131749D02*
X185716D01*
X184889Y149659D02*
X185711D01*
X184891Y159739D02*
X185709D01*
X184939Y141739D02*
X185709D01*
X184891Y123739D02*
X185709D01*
X184896Y157669D02*
X185704D01*
X184935Y139669D02*
X185704D01*
X184896Y121669D02*
X185704D01*
X184897Y151729D02*
X185703D01*
X184902Y129679D02*
X185698D01*
X184921Y117709D02*
X185679D01*
X184923Y119689D02*
X185677D01*
X184940Y131659D02*
X185660D01*
X184945Y149749D02*
X185655D01*
X184946Y159649D02*
X185654D01*
X184883Y141649D02*
X185654D01*
X184946Y123649D02*
X185654D01*
X184950Y157759D02*
X185650D01*
X184878Y139759D02*
X185650D01*
X184950Y121759D02*
X185650D01*
X184952Y151639D02*
X185648D01*
X184956Y129769D02*
X185644D01*
X184973Y117799D02*
X185627D01*
X184974Y119599D02*
X185626D01*
X184990Y131569D02*
X185610D01*
X184994Y149839D02*
X185606D01*
X184995Y159559D02*
X185605D01*
X184819Y141559D02*
X185605D01*
X184995Y123559D02*
X185605D01*
X184999Y157849D02*
X185601D01*
X184813Y139849D02*
X185601D01*
X184999Y121849D02*
X185601D01*
X185000Y151549D02*
X185600D01*
X185004Y129859D02*
X185596D01*
X185018Y117889D02*
X185582D01*
X185019Y119509D02*
X185581D01*
X185033Y131479D02*
X185567D01*
X185036Y149929D02*
X185564D01*
X185038Y159469D02*
X185562D01*
X184747Y141469D02*
X185562D01*
X185038Y123469D02*
X185562D01*
X185041Y157939D02*
X185559D01*
X184741Y139939D02*
X185559D01*
X185041Y121939D02*
X185559D01*
X185042Y151459D02*
X185558D01*
X185045Y129949D02*
X185555D01*
X185058Y117979D02*
X185542D01*
X185059Y119419D02*
X185541D01*
X185071Y131389D02*
X185529D01*
X185074Y150019D02*
X185526D01*
X185075Y159379D02*
X185525D01*
X184665Y141379D02*
X185525D01*
X185075Y123379D02*
X185525D01*
X185077Y158029D02*
X185523D01*
X184658Y140029D02*
X185523D01*
X185077Y122029D02*
X185523D01*
X185078Y151369D02*
X185522D01*
X185081Y130039D02*
X185519D01*
X185092Y118069D02*
X185508D01*
X185093Y119329D02*
X185507D01*
X185103Y131299D02*
X185497D01*
X185106Y150109D02*
X185494D01*
X185107Y159289D02*
X185493D01*
X184572Y141289D02*
X185493D01*
X185107Y123289D02*
X185493D01*
X185109Y158119D02*
X185491D01*
X184564Y140119D02*
X185491D01*
X185109Y122119D02*
X185491D01*
X185110Y151279D02*
X185490D01*
X185112Y130129D02*
X185488D01*
X185121Y118159D02*
X185479D01*
X185122Y119239D02*
X185478D01*
X185131Y131209D02*
X185469D01*
X185133Y150199D02*
X185467D01*
X185133Y159199D02*
X185467D01*
X184465Y141199D02*
X185467D01*
X185133Y123199D02*
X185467D01*
X185135Y158209D02*
X185465D01*
X184455Y140209D02*
X185465D01*
X185135Y122209D02*
X185465D01*
X185136Y151189D02*
X185464D01*
X185138Y130219D02*
X185462D01*
X185146Y118249D02*
X185454D01*
X185146Y119149D02*
X185454D01*
X185153Y131119D02*
X185447D01*
X185155Y150289D02*
X185445D01*
X185156Y159109D02*
X185444D01*
X184338Y141109D02*
X185444D01*
X185156Y123109D02*
X185444D01*
X185157Y158299D02*
X185443D01*
X184327Y140299D02*
X185443D01*
X185157Y122299D02*
X185443D01*
X185158Y151099D02*
X185442D01*
X185159Y130309D02*
X185441D01*
X185165Y118339D02*
X185435D01*
X185166Y119059D02*
X185434D01*
X185171Y131029D02*
X185429D01*
X185173Y150379D02*
X185427D01*
X185173Y159019D02*
X185427D01*
X184185Y141019D02*
X185427D01*
X185173Y123019D02*
X185427D01*
X185174Y158389D02*
X185426D01*
X184171Y140389D02*
X185426D01*
X185174Y122389D02*
X185426D01*
X185175Y151009D02*
X185425D01*
X185176Y130399D02*
X185424D01*
X185181Y118429D02*
X185419D01*
X185181Y118969D02*
X185419D01*
X185185Y130939D02*
X185415D01*
X185186Y150469D02*
X185414D01*
X185186Y158929D02*
X185414D01*
X183987Y140929D02*
X185414D01*
X185186Y122929D02*
X185414D01*
X185187Y158479D02*
X185413D01*
X183968Y140479D02*
X185413D01*
X185187Y122479D02*
X185413D01*
X185187Y150919D02*
X185413D01*
X185188Y130489D02*
X185412D01*
X185191Y118519D02*
X185409D01*
X185192Y118879D02*
X185408D01*
X185194Y130849D02*
X185406D01*
X185195Y150559D02*
X185405D01*
X185195Y158839D02*
X185405D01*
X183682Y140839D02*
X185405D01*
X185195Y122839D02*
X185405D01*
X185195Y158569D02*
X185405D01*
X183644Y140569D02*
X185405D01*
X185195Y122569D02*
X185405D01*
X185196Y150829D02*
X185404D01*
X185196Y130579D02*
X185404D01*
X185198Y118609D02*
X185402D01*
X185198Y118789D02*
X185402D01*
X185199Y130759D02*
X185401D01*
X185199Y150649D02*
X185401D01*
X185199Y158749D02*
X185401D01*
X159350Y140749D02*
X185401D01*
X185199Y122749D02*
X185401D01*
X185200Y158659D02*
X185400D01*
X159350Y140659D02*
X185400D01*
X185200Y122659D02*
X185400D01*
X185200Y150739D02*
X185400D01*
X185200Y130669D02*
X185400D01*
X185200Y118699D02*
X185400D01*
X162197Y128599D02*
X183229D01*
X170343Y152809D02*
X183118D01*
X179482Y116809D02*
X183118D01*
X170599Y156589D02*
X183093D01*
X179507Y120589D02*
X183093D01*
X161836Y124819D02*
X183034D01*
X161584Y148579D02*
X183016D01*
X161988Y132829D02*
X182971D01*
X160644Y140569D02*
X182956D01*
X161682Y140839D02*
X182918D01*
X161819Y132559D02*
X182906D01*
X161727Y148849D02*
X182873D01*
X161739Y160549D02*
X182861D01*
X162000Y124549D02*
X182861D01*
X170669Y156859D02*
X182831D01*
X159350Y120859D02*
X182831D01*
X170505Y152539D02*
X182821D01*
X162193Y128869D02*
X182794D01*
X161816Y144529D02*
X182784D01*
X160841Y136879D02*
X182759D01*
X179247Y103399D02*
X182753D01*
X159350Y136519D02*
X182750D01*
X179253Y110599D02*
X182747D01*
X161874Y144889D02*
X182726D01*
X162190Y128509D02*
X182718D01*
X170274Y152899D02*
X182696D01*
X179904Y116899D02*
X182696D01*
X170566Y156499D02*
X182688D01*
X179912Y120499D02*
X182688D01*
X161766Y124909D02*
X182667D01*
X161941Y148489D02*
X182659D01*
X162032Y132919D02*
X182639D01*
X160968Y140479D02*
X182632D01*
X161987Y140929D02*
X182613D01*
X161747Y132469D02*
X182606D01*
X179401Y103489D02*
X182599D01*
X179405Y110509D02*
X182595D01*
X162013Y148939D02*
X182587D01*
X162019Y160459D02*
X182581D01*
X162042Y124459D02*
X182581D01*
X170683Y156949D02*
X182563D01*
X159350Y120949D02*
X182563D01*
X170546Y152449D02*
X182557D01*
X162182Y128959D02*
X182540D01*
X162066Y144439D02*
X182534D01*
X161083Y136969D02*
X182517D01*
X159350Y136429D02*
X182512D01*
X179495Y103579D02*
X182505D01*
X179497Y110419D02*
X182503D01*
X162104Y144979D02*
X182496D01*
X162179Y128419D02*
X182490D01*
X170196Y152989D02*
X182474D01*
X180126Y116989D02*
X182474D01*
X170527Y156409D02*
X182469D01*
X180131Y120409D02*
X182469D01*
X161687Y124999D02*
X182454D01*
X162151Y148399D02*
X182449D01*
X179559Y103669D02*
X182441D01*
X179561Y110329D02*
X182439D01*
X162070Y133009D02*
X182434D01*
X161171Y140389D02*
X182429D01*
X162185Y141019D02*
X182415D01*
X161665Y132379D02*
X182410D01*
X179604Y103759D02*
X182396D01*
X162204Y149029D02*
X182396D01*
X179605Y110239D02*
X182395D01*
X162209Y160369D02*
X182391D01*
X162078Y124369D02*
X182391D01*
X170693Y157039D02*
X182378D01*
X159350Y121039D02*
X182378D01*
X170582Y152359D02*
X182373D01*
X179632Y103849D02*
X182368D01*
X179633Y110149D02*
X182367D01*
X162168Y129049D02*
X182360D01*
X162244Y144349D02*
X182356D01*
X179647Y103939D02*
X182353D01*
X179647Y110059D02*
X182353D01*
X179650Y109969D02*
X182350D01*
X179650Y109879D02*
X182350D01*
X179650Y109789D02*
X182350D01*
X179650Y109699D02*
X182350D01*
X179650Y109609D02*
X182350D01*
X179650Y109519D02*
X182350D01*
X179650Y109429D02*
X182350D01*
X179650Y109339D02*
X182350D01*
X179650Y109249D02*
X182350D01*
X179650Y109159D02*
X182350D01*
X179650Y109069D02*
X182350D01*
X179650Y108979D02*
X182350D01*
X179650Y108889D02*
X182350D01*
X179650Y108799D02*
X182350D01*
X179650Y108709D02*
X182350D01*
X179650Y108619D02*
X182350D01*
X179650Y108529D02*
X182350D01*
X179650Y108439D02*
X182350D01*
X179650Y108349D02*
X182350D01*
X179650Y108259D02*
X182350D01*
X179650Y108169D02*
X182350D01*
X179650Y108079D02*
X182350D01*
X179650Y107989D02*
X182350D01*
X179650Y107899D02*
X182350D01*
X179650Y107809D02*
X182350D01*
X179650Y107719D02*
X182350D01*
X179650Y107629D02*
X182350D01*
X179650Y107539D02*
X182350D01*
X179650Y107449D02*
X182350D01*
X179650Y107359D02*
X182350D01*
X179650Y107269D02*
X182350D01*
X179650Y107179D02*
X182350D01*
X179650Y107089D02*
X182350D01*
X179650Y106999D02*
X182350D01*
X179650Y106909D02*
X182350D01*
X179650Y106819D02*
X182350D01*
X179650Y106729D02*
X182350D01*
X179650Y106639D02*
X182350D01*
X179650Y106549D02*
X182350D01*
X179650Y106459D02*
X182350D01*
X179650Y106369D02*
X182350D01*
X179650Y106279D02*
X182350D01*
X179650Y106189D02*
X182350D01*
X179650Y106099D02*
X182350D01*
X179650Y106009D02*
X182350D01*
X179650Y105919D02*
X182350D01*
X179650Y105829D02*
X182350D01*
X179650Y105739D02*
X182350D01*
X179650Y105649D02*
X182350D01*
X179650Y105559D02*
X182350D01*
X179650Y105469D02*
X182350D01*
X179650Y105379D02*
X182350D01*
X179650Y105289D02*
X182350D01*
X179650Y105199D02*
X182350D01*
X179650Y105109D02*
X182350D01*
X179650Y105019D02*
X182350D01*
X179650Y104929D02*
X182350D01*
X179650Y104839D02*
X182350D01*
X179650Y104749D02*
X182350D01*
X179650Y104659D02*
X182350D01*
X179650Y104569D02*
X182350D01*
X179650Y104479D02*
X182350D01*
X179650Y104389D02*
X182350D01*
X179650Y104299D02*
X182350D01*
X179650Y104209D02*
X182350D01*
X179650Y104119D02*
X182350D01*
X179650Y104029D02*
X182350D01*
X161257Y137059D02*
X182343D01*
X159350Y136339D02*
X182338D01*
X162274Y145069D02*
X182326D01*
X162163Y128329D02*
X182322D01*
X170107Y153079D02*
X182309D01*
X180291Y117079D02*
X182309D01*
X170483Y156319D02*
X182305D01*
X180295Y120319D02*
X182305D01*
X161597Y125089D02*
X182293D01*
X162311Y148309D02*
X182289D01*
X162102Y133099D02*
X182277D01*
X161327Y140299D02*
X182273D01*
X162338Y141109D02*
X182262D01*
X161572Y132289D02*
X182258D01*
X162353Y149119D02*
X182247D01*
X162357Y160279D02*
X182243D01*
X162110Y124279D02*
X182243D01*
X170699Y157129D02*
X182232D01*
X159350Y121129D02*
X182232D01*
X170613Y152269D02*
X182228D01*
X162149Y129139D02*
X182217D01*
X162387Y144259D02*
X182213D01*
X161397Y137149D02*
X182203D01*
X159350Y136249D02*
X182199D01*
X162411Y145159D02*
X182189D01*
X162143Y128239D02*
X182185D01*
X170005Y153169D02*
X182175D01*
X180425Y117169D02*
X182175D01*
X170433Y156229D02*
X182172D01*
X180428Y120229D02*
X182172D01*
X161493Y125179D02*
X182162D01*
X162442Y148219D02*
X182158D01*
X162130Y133189D02*
X182148D01*
X161455Y140209D02*
X182145D01*
X162465Y141199D02*
X182135D01*
X161465Y132199D02*
X182132D01*
X162477Y149209D02*
X182123D01*
X162481Y160189D02*
X182119D01*
X162136Y124189D02*
X182119D01*
X170700Y157219D02*
X182110D01*
X159350Y121219D02*
X182110D01*
X170639Y152179D02*
X182107D01*
X162125Y129229D02*
X182098D01*
X162505Y144169D02*
X182095D01*
X161514Y137239D02*
X182086D01*
X159350Y136159D02*
X182082D01*
X162526Y145249D02*
X182074D01*
X162118Y128149D02*
X182071D01*
X169887Y153259D02*
X182062D01*
X180538Y117259D02*
X182062D01*
X170376Y156139D02*
X182059D01*
X180541Y120139D02*
X182059D01*
X161372Y125269D02*
X182050D01*
X162553Y148129D02*
X182047D01*
X162153Y133279D02*
X182039D01*
X161564Y140119D02*
X182036D01*
X162572Y141289D02*
X182028D01*
X161338Y132109D02*
X182025D01*
X162583Y149299D02*
X182017D01*
X162586Y160099D02*
X182014D01*
X162158Y124099D02*
X182014D01*
X170697Y157309D02*
X182006D01*
X159350Y121309D02*
X182006D01*
X170660Y152089D02*
X182003D01*
X162096Y129319D02*
X181995D01*
X162607Y144079D02*
X181993D01*
X161615Y137329D02*
X181985D01*
X159350Y136069D02*
X181982D01*
X162625Y145339D02*
X181975D01*
X162089Y128059D02*
X181972D01*
X169744Y153349D02*
X181964D01*
X180636Y117349D02*
X181964D01*
X170311Y156049D02*
X181962D01*
X180638Y120049D02*
X181962D01*
X161227Y125359D02*
X181954D01*
X162648Y148039D02*
X181952D01*
X162171Y133369D02*
X181944D01*
X161658Y140029D02*
X181942D01*
X162665Y141379D02*
X181935D01*
X161185Y132019D02*
X181932D01*
X162675Y149389D02*
X181925D01*
X162677Y160009D02*
X181923D01*
X162175Y124009D02*
X181923D01*
X170690Y157399D02*
X181916D01*
X159350Y121399D02*
X181916D01*
X170676Y151999D02*
X181913D01*
X162063Y129409D02*
X181906D01*
X162696Y143989D02*
X181904D01*
X161703Y137419D02*
X181897D01*
X159350Y135979D02*
X181895D01*
X162712Y145429D02*
X181888D01*
X162054Y127969D02*
X181886D01*
X169566Y153439D02*
X181879D01*
X180721Y117439D02*
X181879D01*
X170238Y155959D02*
X181877D01*
X180723Y119959D02*
X181877D01*
X161043Y125449D02*
X181870D01*
X162732Y147949D02*
X181868D01*
X162185Y133459D02*
X181862D01*
X161741Y139939D02*
X181859D01*
X162747Y141469D02*
X181853D01*
X160987Y131929D02*
X181851D01*
X162755Y149479D02*
X181845D01*
X162758Y159919D02*
X181842D01*
X162187Y123919D02*
X181842D01*
X170678Y157489D02*
X181836D01*
X159350Y121489D02*
X181836D01*
X170689Y151909D02*
X181834D01*
X162024Y129499D02*
X181828D01*
X162774Y143899D02*
X181826D01*
X161780Y137509D02*
X181820D01*
X159350Y135889D02*
X181818D01*
X162788Y145519D02*
X181812D01*
X162013Y127879D02*
X181810D01*
X169316Y153529D02*
X181804D01*
X180796Y117529D02*
X181804D01*
X170156Y155869D02*
X181802D01*
X180798Y119869D02*
X181802D01*
X160779Y125539D02*
X181796D01*
X162806Y147859D02*
X181794D01*
X162194Y133549D02*
X181789D01*
X161813Y139849D02*
X181787D01*
X162819Y141559D02*
X181781D01*
X160682Y131839D02*
X181779D01*
X162827Y149569D02*
X181773D01*
X162828Y159829D02*
X181772D01*
X162196Y123829D02*
X181772D01*
X170662Y157579D02*
X181766D01*
X159350Y121579D02*
X181766D01*
X170696Y151819D02*
X181764D01*
X161979Y129589D02*
X181759D01*
X162843Y143809D02*
X181757D01*
X161848Y137599D02*
X181752D01*
X159350Y135799D02*
X181750D01*
X162855Y145609D02*
X181745D01*
X161967Y127789D02*
X181743D01*
X159350Y153619D02*
X181738D01*
X180862Y117619D02*
X181738D01*
X170061Y155779D02*
X181736D01*
X180864Y119779D02*
X181736D01*
X159350Y125629D02*
X181731D01*
X162871Y147769D02*
X181729D01*
X162199Y133639D02*
X181724D01*
X161878Y139759D02*
X181722D01*
X162883Y141649D02*
X181717D01*
X159350Y131749D02*
X181716D01*
X162889Y149659D02*
X181711D01*
X162891Y159739D02*
X181709D01*
X162200Y123739D02*
X181709D01*
X170641Y157669D02*
X181704D01*
X159350Y121669D02*
X181704D01*
X170700Y151729D02*
X181703D01*
X161929Y129679D02*
X181698D01*
X162904Y143719D02*
X181696D01*
X161909Y137689D02*
X181691D01*
X159350Y135709D02*
X181690D01*
X162915Y145699D02*
X181685D01*
X161915Y127699D02*
X181684D01*
X159350Y153709D02*
X181679D01*
X180921Y117709D02*
X181679D01*
X169952Y155689D02*
X181677D01*
X180923Y119689D02*
X181677D01*
X159350Y125719D02*
X181673D01*
X162929Y147679D02*
X181671D01*
X162200Y133729D02*
X181667D01*
X161935Y139669D02*
X181665D01*
X162939Y141739D02*
X181661D01*
X159350Y131659D02*
X181660D01*
X162945Y149749D02*
X181655D01*
X162946Y159649D02*
X181654D01*
X162199Y123649D02*
X181654D01*
X170616Y157759D02*
X181650D01*
X159350Y121759D02*
X181650D01*
X170699Y151639D02*
X181648D01*
X161871Y129769D02*
X181644D01*
X162958Y143629D02*
X181642D01*
X161962Y137779D02*
X181638D01*
X159350Y135619D02*
X181637D01*
X162967Y145789D02*
X181633D01*
X161855Y127609D02*
X181631D01*
X159350Y153799D02*
X181627D01*
X180973Y117799D02*
X181627D01*
X169823Y155599D02*
X181626D01*
X180974Y119599D02*
X181626D01*
X159350Y125809D02*
X181622D01*
X162979Y147589D02*
X181621D01*
X162196Y133819D02*
X181617D01*
X161985Y139579D02*
X181615D01*
X162988Y141829D02*
X181612D01*
X159350Y131569D02*
X181610D01*
X169182Y149839D02*
X181606D01*
X162995Y159559D02*
X181605D01*
X162195Y123559D02*
X181605D01*
X170586Y157849D02*
X181601D01*
X160727Y121849D02*
X181601D01*
X170694Y151549D02*
X181600D01*
X161806Y129859D02*
X181596D01*
X163005Y143539D02*
X181595D01*
X162009Y137869D02*
X181591D01*
X160816Y135529D02*
X181590D01*
X163013Y145879D02*
X181587D01*
X161788Y127519D02*
X181585D01*
X159350Y153889D02*
X181582D01*
X181018Y117889D02*
X181582D01*
X169666Y155509D02*
X181581D01*
X181019Y119509D02*
X181581D01*
X159350Y125899D02*
X181577D01*
X163024Y147499D02*
X181576D01*
X162189Y133909D02*
X181573D01*
X162029Y139489D02*
X181571D01*
X163032Y141919D02*
X181568D01*
X159350Y131479D02*
X181567D01*
X169487Y149929D02*
X181564D01*
X163038Y159469D02*
X181562D01*
X162186Y123469D02*
X181562D01*
X170551Y157939D02*
X181559D01*
X161013Y121939D02*
X181559D01*
X170685Y151459D02*
X181558D01*
X161732Y129949D02*
X181555D01*
X163046Y143449D02*
X181554D01*
X162049Y137959D02*
X181551D01*
X161066Y135439D02*
X181549D01*
X163054Y145969D02*
X181546D01*
X161712Y127429D02*
X181545D01*
X159350Y153979D02*
X181542D01*
X181058Y117979D02*
X181542D01*
X169461Y155419D02*
X181541D01*
X181059Y119419D02*
X181541D01*
X159350Y125989D02*
X181538D01*
X163063Y147409D02*
X181537D01*
X162176Y133999D02*
X181534D01*
X162067Y139399D02*
X181533D01*
X163070Y142009D02*
X181530D01*
X159350Y131389D02*
X181529D01*
X169685Y150019D02*
X181526D01*
X163075Y159379D02*
X181525D01*
X162173Y123379D02*
X181525D01*
X170510Y158029D02*
X181523D01*
X161204Y122029D02*
X181523D01*
X170671Y151369D02*
X181522D01*
X161648Y130039D02*
X181519D01*
X163082Y143359D02*
X181518D01*
X162085Y138049D02*
X181515D01*
X161244Y135349D02*
X181514D01*
X163089Y146059D02*
X181511D01*
X161625Y127339D02*
X181511D01*
X159350Y154069D02*
X181508D01*
X181092Y118069D02*
X181508D01*
X169129Y155329D02*
X181507D01*
X181093Y119329D02*
X181507D01*
X159350Y126079D02*
X181504D01*
X163096Y147319D02*
X181504D01*
X162160Y134089D02*
X181501D01*
X162100Y139309D02*
X181500D01*
X163102Y142099D02*
X181498D01*
X159350Y131299D02*
X181497D01*
X169838Y150109D02*
X181494D01*
X163107Y159289D02*
X181493D01*
X162155Y123289D02*
X181493D01*
X170463Y158119D02*
X181491D01*
X161353Y122119D02*
X181491D01*
X170653Y151279D02*
X181490D01*
X161553Y130129D02*
X181488D01*
X163113Y143269D02*
X181487D01*
X162115Y138139D02*
X181485D01*
X161387Y135259D02*
X181484D01*
X163118Y146149D02*
X181482D01*
X161526Y127249D02*
X181481D01*
X159350Y154159D02*
X181479D01*
X181121Y118159D02*
X181479D01*
X159350Y155239D02*
X181478D01*
X181122Y119239D02*
X181478D01*
X159350Y126169D02*
X181476D01*
X163125Y147229D02*
X181475D01*
X162139Y134179D02*
X181473D01*
X162128Y139219D02*
X181472D01*
X163130Y142189D02*
X181470D01*
X159350Y131209D02*
X181469D01*
X169965Y150199D02*
X181467D01*
X163133Y159199D02*
X181467D01*
X162133Y123199D02*
X181467D01*
X170410Y158209D02*
X181465D01*
X161477Y122209D02*
X181465D01*
X170630Y151189D02*
X181464D01*
X161442Y130219D02*
X181462D01*
X163139Y143179D02*
X181461D01*
X162141Y138229D02*
X181459D01*
X161505Y135169D02*
X181459D01*
X163143Y146239D02*
X181457D01*
X161411Y127159D02*
X181456D01*
X159350Y154249D02*
X181454D01*
X181146Y118249D02*
X181454D01*
X159350Y155149D02*
X181454D01*
X181146Y119149D02*
X181454D01*
X159350Y126259D02*
X181452D01*
X163149Y147139D02*
X181451D01*
X162113Y134269D02*
X181450D01*
X162151Y139129D02*
X181449D01*
X163153Y142279D02*
X181447D01*
X159350Y131119D02*
X181447D01*
X170072Y150289D02*
X181445D01*
X163156Y159109D02*
X181444D01*
X162106Y123109D02*
X181444D01*
X170350Y158299D02*
X181443D01*
X161583Y122299D02*
X181443D01*
X170602Y151099D02*
X181442D01*
X161311Y130309D02*
X181441D01*
X163160Y143089D02*
X181440D01*
X162161Y138319D02*
X181439D01*
X161607Y135079D02*
X181438D01*
X163163Y146329D02*
X181437D01*
X161274Y127069D02*
X181436D01*
X159350Y154339D02*
X181435D01*
X181165Y118339D02*
X181435D01*
X159350Y155059D02*
X181434D01*
X181166Y119059D02*
X181434D01*
X159350Y126349D02*
X181433D01*
X163168Y147049D02*
X181432D01*
X162082Y134359D02*
X181431D01*
X162170Y139039D02*
X181430D01*
X163171Y142369D02*
X181429D01*
X159350Y131029D02*
X181429D01*
X170165Y150379D02*
X181427D01*
X169350Y159019D02*
X181427D01*
X162074Y123019D02*
X181427D01*
X170282Y158389D02*
X181426D01*
X161675Y122389D02*
X181426D01*
X170570Y151009D02*
X181425D01*
X161151Y130399D02*
X181424D01*
X163176Y142999D02*
X181424D01*
X162178Y138409D02*
X181422D01*
X161696Y134989D02*
X181422D01*
X163179Y146419D02*
X181421D01*
X161104Y126979D02*
X181421D01*
X159350Y154429D02*
X181419D01*
X181181Y118429D02*
X181419D01*
X159350Y154969D02*
X181419D01*
X181181Y118969D02*
X181419D01*
X159350Y126439D02*
X181418D01*
X163182Y146959D02*
X181418D01*
X162046Y134449D02*
X181417D01*
X162184Y138949D02*
X181416D01*
X163185Y142459D02*
X181415D01*
X159350Y130939D02*
X181415D01*
X170247Y150469D02*
X181414D01*
X169588Y158929D02*
X181414D01*
X162036Y122929D02*
X181414D01*
X170205Y158479D02*
X181413D01*
X161755Y122479D02*
X181413D01*
X170532Y150919D02*
X181413D01*
X160941Y130489D02*
X181412D01*
X163189Y142909D02*
X181411D01*
X162189Y138499D02*
X181411D01*
X161774Y134899D02*
X181410D01*
X163190Y146509D02*
X181410D01*
X160874Y126889D02*
X181409D01*
X159350Y154519D02*
X181409D01*
X181191Y118519D02*
X181409D01*
X159350Y154879D02*
X181408D01*
X181192Y118879D02*
X181408D01*
X159350Y126529D02*
X181408D01*
X163193Y146869D02*
X181407D01*
X162005Y134539D02*
X181407D01*
X162193Y138859D02*
X181407D01*
X163194Y142549D02*
X181406D01*
X159350Y130849D02*
X181406D01*
X170319Y150559D02*
X181405D01*
X169762Y158839D02*
X181405D01*
X161994Y122839D02*
X181405D01*
X170118Y158569D02*
X181405D01*
X161827Y122569D02*
X181405D01*
X170488Y150829D02*
X181404D01*
X160584Y130579D02*
X181404D01*
X163196Y142819D02*
X181404D01*
X162197Y138589D02*
X181403D01*
X161843Y134809D02*
X181403D01*
X163197Y146599D02*
X181403D01*
X159350Y126799D02*
X181403D01*
X159350Y154609D02*
X181402D01*
X181198Y118609D02*
X181402D01*
X159350Y154789D02*
X181402D01*
X181198Y118789D02*
X181402D01*
X159350Y126619D02*
X181402D01*
X163198Y146779D02*
X181402D01*
X161958Y134629D02*
X181401D01*
X162199Y138769D02*
X181401D01*
X163199Y142639D02*
X181401D01*
X159350Y130759D02*
X181401D01*
X170383Y150649D02*
X181401D01*
X169901Y158749D02*
X181401D01*
X161945Y122749D02*
X181401D01*
X170018Y158659D02*
X181400D01*
X161889Y122659D02*
X181400D01*
X170439Y150739D02*
X181400D01*
X159350Y130669D02*
X181400D01*
X163200Y142729D02*
X181400D01*
X162200Y138679D02*
X181400D01*
X161904Y134719D02*
X181400D01*
X163200Y146689D02*
X181400D01*
X159350Y126709D02*
X181400D01*
X159350Y154699D02*
X181400D01*
X181200Y118699D02*
X181400D01*
X175482Y116809D02*
X179118D01*
X175507Y120589D02*
X179093D01*
X175904Y116899D02*
X178696D01*
X175912Y120499D02*
X178688D01*
X176126Y116989D02*
X178474D01*
X176131Y120409D02*
X178469D01*
X176291Y117079D02*
X178309D01*
X176295Y120319D02*
X178305D01*
X176425Y117169D02*
X178175D01*
X176428Y120229D02*
X178172D01*
X176538Y117259D02*
X178062D01*
X176541Y120139D02*
X178059D01*
X176636Y117349D02*
X177964D01*
X176638Y120049D02*
X177962D01*
X176721Y117439D02*
X177879D01*
X176723Y119959D02*
X177877D01*
X176796Y117529D02*
X177804D01*
X176798Y119869D02*
X177802D01*
X176862Y117619D02*
X177738D01*
X176864Y119779D02*
X177736D01*
X176921Y117709D02*
X177679D01*
X176923Y119689D02*
X177677D01*
X176973Y117799D02*
X177627D01*
X176974Y119599D02*
X177626D01*
X177018Y117889D02*
X177582D01*
X177019Y119509D02*
X177581D01*
X177058Y117979D02*
X177542D01*
X177059Y119419D02*
X177541D01*
X177092Y118069D02*
X177508D01*
X177093Y119329D02*
X177507D01*
X177121Y118159D02*
X177479D01*
X177122Y119239D02*
X177478D01*
X177146Y118249D02*
X177454D01*
X177146Y119149D02*
X177454D01*
X177165Y118339D02*
X177435D01*
X177166Y119059D02*
X177434D01*
X177181Y118429D02*
X177419D01*
X177181Y118969D02*
X177419D01*
X177191Y118519D02*
X177409D01*
X177192Y118879D02*
X177408D01*
X177198Y118609D02*
X177402D01*
X177198Y118789D02*
X177402D01*
X177200Y118699D02*
X177400D01*
X160482Y116809D02*
X175118D01*
X160507Y120589D02*
X175093D01*
X160904Y116899D02*
X174696D01*
X160912Y120499D02*
X174688D01*
X161126Y116989D02*
X174474D01*
X161131Y120409D02*
X174469D01*
X161291Y117079D02*
X174309D01*
X161295Y120319D02*
X174305D01*
X161425Y117169D02*
X174175D01*
X161428Y120229D02*
X174172D01*
X161538Y117259D02*
X174062D01*
X161541Y120139D02*
X174059D01*
X161636Y117349D02*
X173964D01*
X161638Y120049D02*
X173962D01*
X161721Y117439D02*
X173879D01*
X161723Y119959D02*
X173877D01*
X161796Y117529D02*
X173804D01*
X161798Y119869D02*
X173802D01*
X161862Y117619D02*
X173738D01*
X161864Y119779D02*
X173736D01*
X161921Y117709D02*
X173679D01*
X161923Y119689D02*
X173677D01*
X161973Y117799D02*
X173627D01*
X161974Y119599D02*
X173626D01*
X162018Y117889D02*
X173582D01*
X162019Y119509D02*
X173581D01*
X162058Y117979D02*
X173542D01*
X162059Y119419D02*
X173541D01*
X162092Y118069D02*
X173508D01*
X162093Y119329D02*
X173507D01*
X162121Y118159D02*
X173479D01*
X162122Y119239D02*
X173478D01*
X162146Y118249D02*
X173454D01*
X162146Y119149D02*
X173454D01*
X162165Y118339D02*
X173435D01*
X162166Y119059D02*
X173434D01*
X162181Y118429D02*
X173419D01*
X162181Y118969D02*
X173419D01*
X162191Y118519D02*
X173409D01*
X162192Y118879D02*
X173408D01*
X162198Y118609D02*
X173402D01*
X162198Y118789D02*
X173402D01*
X162200Y118699D02*
X173400D01*
X169247Y103399D02*
X172753D01*
X169253Y110599D02*
X172747D01*
X169401Y103489D02*
X172599D01*
X169405Y110509D02*
X172595D01*
X169495Y103579D02*
X172505D01*
X169497Y110419D02*
X172503D01*
X169559Y103669D02*
X172441D01*
X169561Y110329D02*
X172439D01*
X169604Y103759D02*
X172396D01*
X169605Y110239D02*
X172395D01*
X169632Y103849D02*
X172368D01*
X169633Y110149D02*
X172367D01*
X169647Y103939D02*
X172353D01*
X169647Y110059D02*
X172353D01*
X169650Y109969D02*
X172350D01*
X169650Y109879D02*
X172350D01*
X169650Y109789D02*
X172350D01*
X169650Y109699D02*
X172350D01*
X169650Y109609D02*
X172350D01*
X169650Y109519D02*
X172350D01*
X169650Y109429D02*
X172350D01*
X169650Y109339D02*
X172350D01*
X169650Y109249D02*
X172350D01*
X169650Y109159D02*
X172350D01*
X169650Y109069D02*
X172350D01*
X169650Y108979D02*
X172350D01*
X169650Y108889D02*
X172350D01*
X169650Y108799D02*
X172350D01*
X169650Y108709D02*
X172350D01*
X169650Y108619D02*
X172350D01*
X169650Y108529D02*
X172350D01*
X169650Y108439D02*
X172350D01*
X169650Y108349D02*
X172350D01*
X169650Y108259D02*
X172350D01*
X169650Y108169D02*
X172350D01*
X169650Y108079D02*
X172350D01*
X169650Y107989D02*
X172350D01*
X169650Y107899D02*
X172350D01*
X169650Y107809D02*
X172350D01*
X169650Y107719D02*
X172350D01*
X169650Y107629D02*
X172350D01*
X169650Y107539D02*
X172350D01*
X169650Y107449D02*
X172350D01*
X169650Y107359D02*
X172350D01*
X169650Y107269D02*
X172350D01*
X169650Y107179D02*
X172350D01*
X169650Y107089D02*
X172350D01*
X169650Y106999D02*
X172350D01*
X169650Y106909D02*
X172350D01*
X169650Y106819D02*
X172350D01*
X169650Y106729D02*
X172350D01*
X169650Y106639D02*
X172350D01*
X169650Y106549D02*
X172350D01*
X169650Y106459D02*
X172350D01*
X169650Y106369D02*
X172350D01*
X169650Y106279D02*
X172350D01*
X169650Y106189D02*
X172350D01*
X169650Y106099D02*
X172350D01*
X169650Y106009D02*
X172350D01*
X169650Y105919D02*
X172350D01*
X169650Y105829D02*
X172350D01*
X169650Y105739D02*
X172350D01*
X169650Y105649D02*
X172350D01*
X169650Y105559D02*
X172350D01*
X169650Y105469D02*
X172350D01*
X169650Y105379D02*
X172350D01*
X169650Y105289D02*
X172350D01*
X169650Y105199D02*
X172350D01*
X169650Y105109D02*
X172350D01*
X169650Y105019D02*
X172350D01*
X169650Y104929D02*
X172350D01*
X169650Y104839D02*
X172350D01*
X169650Y104749D02*
X172350D01*
X169650Y104659D02*
X172350D01*
X169650Y104569D02*
X172350D01*
X169650Y104479D02*
X172350D01*
X169650Y104389D02*
X172350D01*
X169650Y104299D02*
X172350D01*
X169650Y104209D02*
X172350D01*
X169650Y104119D02*
X172350D01*
X169650Y104029D02*
X172350D01*
X165129Y155329D02*
X168471D01*
X165682Y149839D02*
X168418D01*
X165816Y153529D02*
X168284D01*
X165350Y159019D02*
X168250D01*
X165461Y155419D02*
X168139D01*
X165987Y149929D02*
X168113D01*
X166066Y153439D02*
X168034D01*
X165588Y158929D02*
X168012D01*
X165666Y155509D02*
X167934D01*
X166185Y150019D02*
X167915D01*
X166244Y153349D02*
X167856D01*
X165762Y158839D02*
X167838D01*
X165823Y155599D02*
X167777D01*
X166338Y150109D02*
X167762D01*
X166387Y153259D02*
X167713D01*
X165901Y158749D02*
X167699D01*
X165952Y155689D02*
X167648D01*
X166465Y150199D02*
X167635D01*
X166505Y153169D02*
X167595D01*
X166018Y158659D02*
X167582D01*
X166061Y155779D02*
X167539D01*
X166572Y150289D02*
X167528D01*
X166607Y153079D02*
X167493D01*
X166118Y158569D02*
X167482D01*
X166156Y155869D02*
X167444D01*
X166665Y150379D02*
X167435D01*
X166696Y152989D02*
X167404D01*
X166205Y158479D02*
X167395D01*
X166238Y155959D02*
X167362D01*
X166747Y150469D02*
X167353D01*
X166774Y152899D02*
X167326D01*
X166282Y158389D02*
X167318D01*
X166311Y156049D02*
X167289D01*
X166819Y150559D02*
X167281D01*
X166843Y152809D02*
X167257D01*
X166350Y158299D02*
X167250D01*
X166376Y156139D02*
X167224D01*
X166883Y150649D02*
X167217D01*
X166904Y152719D02*
X167196D01*
X166410Y158209D02*
X167190D01*
X166433Y156229D02*
X167167D01*
X166939Y150739D02*
X167161D01*
X166958Y152629D02*
X167142D01*
X166463Y158119D02*
X167137D01*
X166483Y156319D02*
X167117D01*
X166988Y150829D02*
X167112D01*
X167005Y152539D02*
X167095D01*
X166510Y158029D02*
X167090D01*
X166527Y156409D02*
X167073D01*
X166551Y157939D02*
X167049D01*
X166566Y156499D02*
X167034D01*
X166586Y157849D02*
X167014D01*
X166599Y156589D02*
X167001D01*
X166616Y157759D02*
X166984D01*
X166627Y156679D02*
X166973D01*
X166641Y157669D02*
X166959D01*
X166650Y156769D02*
X166950D01*
X166662Y157579D02*
X166938D01*
X166669Y156859D02*
X166931D01*
X166678Y157489D02*
X166922D01*
X166683Y156949D02*
X166917D01*
X166690Y157399D02*
X166910D01*
X166693Y157039D02*
X166907D01*
X166697Y157309D02*
X166903D01*
X166699Y157129D02*
X166901D01*
X166700Y157219D02*
X166900D01*
X162994Y149839D02*
X164918D01*
X159350Y153529D02*
X164784D01*
X163036Y149929D02*
X164613D01*
X159350Y153439D02*
X164534D01*
X159350Y155329D02*
X164471D01*
X163074Y150019D02*
X164415D01*
X159350Y153349D02*
X164356D01*
X163106Y150109D02*
X164262D01*
X163173Y159019D02*
X164250D01*
X159350Y153259D02*
X164213D01*
X159350Y155419D02*
X164139D01*
X163133Y150199D02*
X164135D01*
X159350Y153169D02*
X164095D01*
X163155Y150289D02*
X164028D01*
X163186Y158929D02*
X164012D01*
X159350Y153079D02*
X163993D01*
X163173Y150379D02*
X163935D01*
X159350Y155509D02*
X163934D01*
X159350Y152989D02*
X163904D01*
X163186Y150469D02*
X163853D01*
X163195Y158839D02*
X163838D01*
X159350Y152899D02*
X163826D01*
X163195Y150559D02*
X163781D01*
X159350Y155599D02*
X163777D01*
X159350Y152809D02*
X163757D01*
X163199Y150649D02*
X163717D01*
X163199Y158749D02*
X163699D01*
X159350Y152719D02*
X163696D01*
X163200Y150739D02*
X163661D01*
X159350Y155689D02*
X163648D01*
X159350Y152629D02*
X163642D01*
X163196Y150829D02*
X163612D01*
X161779Y152539D02*
X163595D01*
X163200Y158659D02*
X163582D01*
X163187Y150919D02*
X163568D01*
X162043Y152449D02*
X163554D01*
X159350Y155779D02*
X163539D01*
X163175Y151009D02*
X163530D01*
X162227Y152359D02*
X163518D01*
X163158Y151099D02*
X163498D01*
X162372Y152269D02*
X163487D01*
X163195Y158569D02*
X163482D01*
X163136Y151189D02*
X163470D01*
X162493Y152179D02*
X163461D01*
X163110Y151279D02*
X163447D01*
X159350Y155869D02*
X163444D01*
X162597Y152089D02*
X163440D01*
X163078Y151369D02*
X163429D01*
X162687Y151999D02*
X163424D01*
X163042Y151459D02*
X163415D01*
X162766Y151909D02*
X163411D01*
X163000Y151549D02*
X163406D01*
X162836Y151819D02*
X163404D01*
X162952Y151639D02*
X163401D01*
X162897Y151729D02*
X163400D01*
X163187Y158479D02*
X163395D01*
X159350Y155959D02*
X163362D01*
X163174Y158389D02*
X163318D01*
X159350Y156049D02*
X163289D01*
X163184Y158299D02*
X163248D01*
X159350Y156139D02*
X163224D01*
X159350Y156229D02*
X163167D01*
X159350Y156319D02*
X163117D01*
X159350Y156409D02*
X163073D01*
X159350Y156499D02*
X163034D01*
X159350Y156589D02*
X163001D01*
X159350Y156679D02*
X162973D01*
X159350Y156769D02*
X162950D01*
X162834Y157579D02*
X162931D01*
X161769Y156859D02*
X162931D01*
X162764Y157489D02*
X162922D01*
X162037Y156949D02*
X162917D01*
X162684Y157399D02*
X162910D01*
X162222Y157039D02*
X162907D01*
X162594Y157309D02*
X162903D01*
X162368Y157129D02*
X162901D01*
X162490Y157219D02*
X162900D01*
X159247Y103399D02*
X162753D01*
X159253Y110599D02*
X162747D01*
X159401Y103489D02*
X162599D01*
X159405Y110509D02*
X162595D01*
X159495Y103579D02*
X162505D01*
X159497Y110419D02*
X162503D01*
X159559Y103669D02*
X162441D01*
X159561Y110329D02*
X162439D01*
X159604Y103759D02*
X162396D01*
X159605Y110239D02*
X162395D01*
X159632Y103849D02*
X162368D01*
X159633Y110149D02*
X162367D01*
X159647Y103939D02*
X162353D01*
X159647Y110059D02*
X162353D01*
X159650Y109969D02*
X162350D01*
X159650Y109879D02*
X162350D01*
X159650Y109789D02*
X162350D01*
X159650Y109699D02*
X162350D01*
X159650Y109609D02*
X162350D01*
X159650Y109519D02*
X162350D01*
X159650Y109429D02*
X162350D01*
X159650Y109339D02*
X162350D01*
X159650Y109249D02*
X162350D01*
X159650Y109159D02*
X162350D01*
X159650Y109069D02*
X162350D01*
X159650Y108979D02*
X162350D01*
X159650Y108889D02*
X162350D01*
X159650Y108799D02*
X162350D01*
X159650Y108709D02*
X162350D01*
X159650Y108619D02*
X162350D01*
X159650Y108529D02*
X162350D01*
X159650Y108439D02*
X162350D01*
X159650Y108349D02*
X162350D01*
X159650Y108259D02*
X162350D01*
X159650Y108169D02*
X162350D01*
X159650Y108079D02*
X162350D01*
X159650Y107989D02*
X162350D01*
X159650Y107899D02*
X162350D01*
X159650Y107809D02*
X162350D01*
X159650Y107719D02*
X162350D01*
X159650Y107629D02*
X162350D01*
X159650Y107539D02*
X162350D01*
X159650Y107449D02*
X162350D01*
X159650Y107359D02*
X162350D01*
X159650Y107269D02*
X162350D01*
X159650Y107179D02*
X162350D01*
X159650Y107089D02*
X162350D01*
X159650Y106999D02*
X162350D01*
X159650Y106909D02*
X162350D01*
X159650Y106819D02*
X162350D01*
X159650Y106729D02*
X162350D01*
X159650Y106639D02*
X162350D01*
X159650Y106549D02*
X162350D01*
X159650Y106459D02*
X162350D01*
X159650Y106369D02*
X162350D01*
X159650Y106279D02*
X162350D01*
X159650Y106189D02*
X162350D01*
X159650Y106099D02*
X162350D01*
X159650Y106009D02*
X162350D01*
X159650Y105919D02*
X162350D01*
X159650Y105829D02*
X162350D01*
X159650Y105739D02*
X162350D01*
X159650Y105649D02*
X162350D01*
X159650Y105559D02*
X162350D01*
X159650Y105469D02*
X162350D01*
X159650Y105379D02*
X162350D01*
X159650Y105289D02*
X162350D01*
X159650Y105199D02*
X162350D01*
X159650Y105109D02*
X162350D01*
X159650Y105019D02*
X162350D01*
X159650Y104929D02*
X162350D01*
X159650Y104839D02*
X162350D01*
X159650Y104749D02*
X162350D01*
X159650Y104659D02*
X162350D01*
X159650Y104569D02*
X162350D01*
X159650Y104479D02*
X162350D01*
X159650Y104389D02*
X162350D01*
X159650Y104299D02*
X162350D01*
X159650Y104209D02*
X162350D01*
X159650Y104119D02*
X162350D01*
X159650Y104029D02*
X162350D01*
X159350Y148579D02*
X161016D01*
X159350Y140839D02*
X160918D01*
X159350Y148849D02*
X160873D01*
X159350Y160549D02*
X160861D01*
X159350Y156859D02*
X160831D01*
X159350Y152539D02*
X160821D01*
X159350Y144529D02*
X160784D01*
X159350Y144889D02*
X160726D01*
X159350Y148489D02*
X160659D01*
X159350Y140929D02*
X160613D01*
X159350Y148939D02*
X160587D01*
X159350Y160459D02*
X160581D01*
X159350Y156949D02*
X160563D01*
X159350Y152449D02*
X160557D01*
X159350Y144439D02*
X160534D01*
X159350Y144979D02*
X160496D01*
X159350Y148399D02*
X160449D01*
X159350Y141019D02*
X160415D01*
X159350Y149029D02*
X160396D01*
X159350Y160369D02*
X160391D01*
X159350Y157039D02*
X160378D01*
X159350Y152359D02*
X160373D01*
X159350Y144349D02*
X160356D01*
X159350Y145069D02*
X160326D01*
X159350Y148309D02*
X160289D01*
X159350Y141109D02*
X160262D01*
X159350Y149119D02*
X160247D01*
X159350Y160279D02*
X160243D01*
X159350Y157129D02*
X160232D01*
X159350Y152269D02*
X160228D01*
X159350Y144259D02*
X160213D01*
X159350Y145159D02*
X160189D01*
X159350Y148219D02*
X160158D01*
X159350Y141199D02*
X160135D01*
X159350Y149209D02*
X160123D01*
X159350Y160189D02*
X160119D01*
X159350Y116809D02*
X160118D01*
X159350Y157219D02*
X160110D01*
X159350Y152179D02*
X160107D01*
X159350Y144169D02*
X160095D01*
X159350Y120589D02*
X160093D01*
X159350Y145249D02*
X160074D01*
X159350Y148129D02*
X160047D01*
X159350Y141289D02*
X160028D01*
X159350Y149299D02*
X160017D01*
X159350Y130579D02*
X160016D01*
X159350Y160099D02*
X160014D01*
X159350Y157309D02*
X160006D01*
X159350Y152089D02*
X160003D01*
X159350Y144079D02*
X159993D01*
X159350Y145339D02*
X159975D01*
X159350Y140569D02*
X159956D01*
X159350Y148039D02*
X159952D01*
X159350Y141379D02*
X159935D01*
X159350Y149389D02*
X159925D01*
X159350Y160009D02*
X159923D01*
X159350Y131839D02*
X159918D01*
X159350Y157399D02*
X159916D01*
X159350Y151999D02*
X159913D01*
X159350Y143989D02*
X159904D01*
X159350Y145429D02*
X159888D01*
X159350Y121849D02*
X159873D01*
X159350Y147949D02*
X159868D01*
X159350Y141469D02*
X159853D01*
X159350Y149479D02*
X159845D01*
X159350Y159919D02*
X159842D01*
X159350Y157489D02*
X159836D01*
X159350Y151909D02*
X159834D01*
X159350Y143899D02*
X159826D01*
X159350Y125539D02*
X159821D01*
X159350Y145519D02*
X159812D01*
X159350Y147859D02*
X159794D01*
X159350Y135529D02*
X159784D01*
X159350Y141559D02*
X159781D01*
X159350Y149569D02*
X159773D01*
X159350Y159829D02*
X159772D01*
X159350Y157579D02*
X159766D01*
X159350Y151819D02*
X159764D01*
X159350Y136879D02*
X159759D01*
X159350Y143809D02*
X159757D01*
X159350Y145609D02*
X159745D01*
X159350Y147769D02*
X159729D01*
X159350Y126889D02*
X159726D01*
X159350Y141649D02*
X159717D01*
X159350Y149659D02*
X159711D01*
X159350Y159739D02*
X159709D01*
X159350Y157669D02*
X159704D01*
X159350Y151729D02*
X159703D01*
X159350Y143719D02*
X159696D01*
X159350Y116899D02*
X159696D01*
X159350Y120499D02*
X159688D01*
X159350Y145699D02*
X159685D01*
X159350Y147679D02*
X159671D01*
X159350Y141739D02*
X159661D01*
X159350Y130489D02*
X159659D01*
X159350Y149749D02*
X159655D01*
X159350Y159649D02*
X159654D01*
X159350Y157759D02*
X159650D01*
X159350Y151639D02*
X159648D01*
X159350Y143629D02*
X159642D01*
X159350Y145789D02*
X159633D01*
X159350Y140479D02*
X159632D01*
X159359Y115999D02*
X159629D01*
X159350Y147589D02*
X159621D01*
X159350Y131929D02*
X159613D01*
X159350Y141829D02*
X159612D01*
X159350Y149839D02*
X159606D01*
X159350Y159559D02*
X159605D01*
X159350Y157849D02*
X159601D01*
X159350Y151549D02*
X159600D01*
X159350Y143539D02*
X159595D01*
X159350Y121939D02*
X159587D01*
X159350Y145879D02*
X159587D01*
X159350Y147499D02*
X159576D01*
X159350Y141919D02*
X159568D01*
X159350Y149929D02*
X159564D01*
X159350Y159469D02*
X159562D01*
X159350Y157939D02*
X159559D01*
X159350Y151459D02*
X159558D01*
X159350Y125449D02*
X159557D01*
X159350Y143449D02*
X159554D01*
X159350Y145969D02*
X159546D01*
X159350Y147409D02*
X159537D01*
X159350Y135439D02*
X159534D01*
X159350Y142009D02*
X159530D01*
X159350Y150019D02*
X159526D01*
X159350Y159379D02*
X159525D01*
X159350Y158029D02*
X159523D01*
X159350Y151369D02*
X159522D01*
X159350Y143359D02*
X159518D01*
X159350Y136969D02*
X159517D01*
X159350Y146059D02*
X159511D01*
X159350Y147319D02*
X159504D01*
X159350Y142099D02*
X159498D01*
X159351Y126979D02*
X159496D01*
X159350Y150109D02*
X159494D01*
X159350Y159289D02*
X159493D01*
X159350Y158119D02*
X159491D01*
X159350Y151279D02*
X159490D01*
X159350Y143269D02*
X159487D01*
X159350Y146149D02*
X159482D01*
X159350Y147229D02*
X159475D01*
X159354Y116989D02*
X159474D01*
X159350Y142189D02*
X159470D01*
X159355Y120409D02*
X159469D01*
X159350Y150199D02*
X159467D01*
X159350Y159199D02*
X159467D01*
X159350Y158209D02*
X159465D01*
X159350Y151189D02*
X159464D01*
X159350Y143179D02*
X159461D01*
X159350Y146239D02*
X159457D01*
X159350Y147139D02*
X159451D01*
X159361Y130399D02*
X159449D01*
X159353Y142279D02*
X159447D01*
X159358Y150289D02*
X159442D01*
X159360Y159109D02*
X159440D01*
X157138Y112219D02*
X159434D01*
X159367Y158299D02*
X159433D01*
X159370Y151099D02*
X159430D01*
X159372Y140389D02*
X159429D01*
X159388Y132019D02*
X159412D01*
X157159Y112309D02*
X159067D01*
X157176Y112399D02*
X158854D01*
X157188Y112489D02*
X158693D01*
X157196Y112579D02*
X158562D01*
X157200Y112669D02*
X158450D01*
X157199Y112759D02*
X158354D01*
X157194Y112849D02*
X158270D01*
X157185Y112939D02*
X158196D01*
X157171Y113029D02*
X158131D01*
X102050Y115099D02*
X158076D01*
X157153Y113119D02*
X158073D01*
X102050Y115009D02*
X158031D01*
X157131Y113209D02*
X158022D01*
X102050Y114919D02*
X157985D01*
X157103Y113299D02*
X157977D01*
X102050Y114829D02*
X157945D01*
X157071Y113389D02*
X157938D01*
X102050Y114739D02*
X157911D01*
X157033Y113479D02*
X157904D01*
X102050Y114649D02*
X157881D01*
X156990Y113569D02*
X157876D01*
X155694Y114559D02*
X157856D01*
X156940Y113659D02*
X157852D01*
X155994Y114469D02*
X157836D01*
X156884Y113749D02*
X157833D01*
X156190Y114379D02*
X157821D01*
X156821Y113839D02*
X157818D01*
X156342Y114289D02*
X157809D01*
X156749Y113929D02*
X157808D01*
X156468Y114199D02*
X157803D01*
X156668Y114019D02*
X157802D01*
X156575Y114109D02*
X157800D01*
X151694Y114559D02*
X154906D01*
X151806Y110869D02*
X154794D01*
X151994Y114469D02*
X154606D01*
X152060Y110959D02*
X154540D01*
X152190Y114379D02*
X154410D01*
X152240Y111049D02*
X154360D01*
X152342Y114289D02*
X154258D01*
X152383Y111139D02*
X154217D01*
X152468Y114199D02*
X154132D01*
X152502Y111229D02*
X154098D01*
X152575Y114109D02*
X154025D01*
X152605Y111319D02*
X153995D01*
X152668Y114019D02*
X153932D01*
X152694Y111409D02*
X153906D01*
X152749Y113929D02*
X153851D01*
X152772Y111499D02*
X153828D01*
X152821Y113839D02*
X153779D01*
X152841Y111589D02*
X153759D01*
X152884Y113749D02*
X153716D01*
X152902Y111679D02*
X153698D01*
X152940Y113659D02*
X153660D01*
X152956Y111769D02*
X153644D01*
X152990Y113569D02*
X153610D01*
X153004Y111859D02*
X153596D01*
X153033Y113479D02*
X153567D01*
X153045Y111949D02*
X153555D01*
X153071Y113389D02*
X153529D01*
X153081Y112039D02*
X153519D01*
X153103Y113299D02*
X153497D01*
X153112Y112129D02*
X153488D01*
X153131Y113209D02*
X153469D01*
X153138Y112219D02*
X153462D01*
X153153Y113119D02*
X153447D01*
X153159Y112309D02*
X153441D01*
X153171Y113029D02*
X153429D01*
X153176Y112399D02*
X153424D01*
X153185Y112939D02*
X153415D01*
X153188Y112489D02*
X153412D01*
X153194Y112849D02*
X153406D01*
X153196Y112579D02*
X153404D01*
X153199Y112759D02*
X153401D01*
X153200Y112669D02*
X153400D01*
X119650Y103399D02*
X152753D01*
X121904Y110599D02*
X152747D01*
X119650Y103489D02*
X152599D01*
X121482Y110509D02*
X152595D01*
X119650Y103579D02*
X152505D01*
X102050Y110419D02*
X152503D01*
X119650Y103669D02*
X152441D01*
X102050Y110329D02*
X152439D01*
X119650Y103759D02*
X152396D01*
X102050Y110239D02*
X152395D01*
X119650Y103849D02*
X152368D01*
X102050Y110149D02*
X152367D01*
X119650Y103939D02*
X152353D01*
X102050Y110059D02*
X152353D01*
X102050Y109969D02*
X152350D01*
X102050Y109879D02*
X152350D01*
X102050Y109789D02*
X152350D01*
X102050Y109699D02*
X152350D01*
X119228Y109609D02*
X152350D01*
X119392Y109519D02*
X152350D01*
X119489Y109429D02*
X152350D01*
X119555Y109339D02*
X152350D01*
X119601Y109249D02*
X152350D01*
X119630Y109159D02*
X152350D01*
X119646Y109069D02*
X152350D01*
X119650Y108979D02*
X152350D01*
X119650Y108889D02*
X152350D01*
X119650Y108799D02*
X152350D01*
X119650Y108709D02*
X152350D01*
X119650Y108619D02*
X152350D01*
X119650Y108529D02*
X152350D01*
X119650Y108439D02*
X152350D01*
X119650Y108349D02*
X152350D01*
X119650Y108259D02*
X152350D01*
X119650Y108169D02*
X152350D01*
X119650Y108079D02*
X152350D01*
X119650Y107989D02*
X152350D01*
X141071Y107899D02*
X152350D01*
X141582Y107809D02*
X152350D01*
X141810Y107719D02*
X152350D01*
X141978Y107629D02*
X152350D01*
X142115Y107539D02*
X152350D01*
X142229Y107449D02*
X152350D01*
X142328Y107359D02*
X152350D01*
X142414Y107269D02*
X152350D01*
X142490Y107179D02*
X152350D01*
X142557Y107089D02*
X152350D01*
X142616Y106999D02*
X152350D01*
X142669Y106909D02*
X152350D01*
X142715Y106819D02*
X152350D01*
X142755Y106729D02*
X152350D01*
X142789Y106639D02*
X152350D01*
X142819Y106549D02*
X152350D01*
X142844Y106459D02*
X152350D01*
X142864Y106369D02*
X152350D01*
X142879Y106279D02*
X152350D01*
X142891Y106189D02*
X152350D01*
X142897Y106099D02*
X152350D01*
X142900Y106009D02*
X152350D01*
X142898Y105919D02*
X152350D01*
X142892Y105829D02*
X152350D01*
X142882Y105739D02*
X152350D01*
X142867Y105649D02*
X152350D01*
X142848Y105559D02*
X152350D01*
X142824Y105469D02*
X152350D01*
X142796Y105379D02*
X152350D01*
X142762Y105289D02*
X152350D01*
X142723Y105199D02*
X152350D01*
X142678Y105109D02*
X152350D01*
X142627Y105019D02*
X152350D01*
X142569Y104929D02*
X152350D01*
X142504Y104839D02*
X152350D01*
X142430Y104749D02*
X152350D01*
X142346Y104659D02*
X152350D01*
X142250Y104569D02*
X152350D01*
X142138Y104479D02*
X152350D01*
X142007Y104389D02*
X152350D01*
X141846Y104299D02*
X152350D01*
X141633Y104209D02*
X152350D01*
X141266Y104119D02*
X152350D01*
X119650Y104029D02*
X152350D01*
X147694Y114559D02*
X150906D01*
X147806Y110869D02*
X150794D01*
X147994Y114469D02*
X150606D01*
X148060Y110959D02*
X150540D01*
X148190Y114379D02*
X150410D01*
X148240Y111049D02*
X150360D01*
X148342Y114289D02*
X150258D01*
X148383Y111139D02*
X150217D01*
X148468Y114199D02*
X150132D01*
X148502Y111229D02*
X150098D01*
X148575Y114109D02*
X150025D01*
X148605Y111319D02*
X149995D01*
X148668Y114019D02*
X149932D01*
X148694Y111409D02*
X149906D01*
X148749Y113929D02*
X149851D01*
X148772Y111499D02*
X149828D01*
X148821Y113839D02*
X149779D01*
X148841Y111589D02*
X149759D01*
X148884Y113749D02*
X149716D01*
X148902Y111679D02*
X149698D01*
X148940Y113659D02*
X149660D01*
X148956Y111769D02*
X149644D01*
X148990Y113569D02*
X149610D01*
X149004Y111859D02*
X149596D01*
X149033Y113479D02*
X149567D01*
X149045Y111949D02*
X149555D01*
X149071Y113389D02*
X149529D01*
X149081Y112039D02*
X149519D01*
X149103Y113299D02*
X149497D01*
X149112Y112129D02*
X149488D01*
X149131Y113209D02*
X149469D01*
X149138Y112219D02*
X149462D01*
X149153Y113119D02*
X149447D01*
X149159Y112309D02*
X149441D01*
X149171Y113029D02*
X149429D01*
X149176Y112399D02*
X149424D01*
X149185Y112939D02*
X149415D01*
X149188Y112489D02*
X149412D01*
X149194Y112849D02*
X149406D01*
X149196Y112579D02*
X149404D01*
X149199Y112759D02*
X149401D01*
X149200Y112669D02*
X149400D01*
X143694Y114559D02*
X146906D01*
X143806Y110869D02*
X146794D01*
X143994Y114469D02*
X146606D01*
X144060Y110959D02*
X146540D01*
X144190Y114379D02*
X146410D01*
X144240Y111049D02*
X146360D01*
X144342Y114289D02*
X146258D01*
X144383Y111139D02*
X146217D01*
X144468Y114199D02*
X146132D01*
X144502Y111229D02*
X146098D01*
X144575Y114109D02*
X146025D01*
X144605Y111319D02*
X145995D01*
X144668Y114019D02*
X145932D01*
X144694Y111409D02*
X145906D01*
X144749Y113929D02*
X145851D01*
X144772Y111499D02*
X145828D01*
X144821Y113839D02*
X145779D01*
X144841Y111589D02*
X145759D01*
X144884Y113749D02*
X145716D01*
X144902Y111679D02*
X145698D01*
X144940Y113659D02*
X145660D01*
X144956Y111769D02*
X145644D01*
X144990Y113569D02*
X145610D01*
X145004Y111859D02*
X145596D01*
X145033Y113479D02*
X145567D01*
X145045Y111949D02*
X145555D01*
X145071Y113389D02*
X145529D01*
X145081Y112039D02*
X145519D01*
X145103Y113299D02*
X145497D01*
X145112Y112129D02*
X145488D01*
X145131Y113209D02*
X145469D01*
X145138Y112219D02*
X145462D01*
X145153Y113119D02*
X145447D01*
X145159Y112309D02*
X145441D01*
X145171Y113029D02*
X145429D01*
X145176Y112399D02*
X145424D01*
X145185Y112939D02*
X145415D01*
X145188Y112489D02*
X145412D01*
X145194Y112849D02*
X145406D01*
X145196Y112579D02*
X145404D01*
X145199Y112759D02*
X145401D01*
X145200Y112669D02*
X145400D01*
X139694Y114559D02*
X142906D01*
X139806Y110869D02*
X142794D01*
X139994Y114469D02*
X142606D01*
X140060Y110959D02*
X142540D01*
X140190Y114379D02*
X142410D01*
X140240Y111049D02*
X142360D01*
X140342Y114289D02*
X142258D01*
X140383Y111139D02*
X142217D01*
X140468Y114199D02*
X142132D01*
X140502Y111229D02*
X142098D01*
X140575Y114109D02*
X142025D01*
X140605Y111319D02*
X141995D01*
X140668Y114019D02*
X141932D01*
X140694Y111409D02*
X141906D01*
X140749Y113929D02*
X141851D01*
X140772Y111499D02*
X141828D01*
X140821Y113839D02*
X141779D01*
X140841Y111589D02*
X141759D01*
X140884Y113749D02*
X141716D01*
X140902Y111679D02*
X141698D01*
X140940Y113659D02*
X141660D01*
X140956Y111769D02*
X141644D01*
X140990Y113569D02*
X141610D01*
X141004Y111859D02*
X141596D01*
X141033Y113479D02*
X141567D01*
X141045Y111949D02*
X141555D01*
X141071Y113389D02*
X141529D01*
X141081Y112039D02*
X141519D01*
X141103Y113299D02*
X141497D01*
X141112Y112129D02*
X141488D01*
X141131Y113209D02*
X141469D01*
X141138Y112219D02*
X141462D01*
X141153Y113119D02*
X141447D01*
X141159Y112309D02*
X141441D01*
X141171Y113029D02*
X141429D01*
X141176Y112399D02*
X141424D01*
X141185Y112939D02*
X141415D01*
X141188Y112489D02*
X141412D01*
X141194Y112849D02*
X141406D01*
X141196Y112579D02*
X141404D01*
X141199Y112759D02*
X141401D01*
X141200Y112669D02*
X141400D01*
X119650Y107899D02*
X140929D01*
X119650Y104119D02*
X140734D01*
X119650Y107809D02*
X140418D01*
X119650Y104209D02*
X140367D01*
X119650Y107719D02*
X140190D01*
X119650Y104299D02*
X140154D01*
X119650Y107629D02*
X140022D01*
X119650Y104389D02*
X139993D01*
X119650Y107539D02*
X139885D01*
X119650Y104479D02*
X139862D01*
X119650Y107449D02*
X139771D01*
X119650Y104569D02*
X139750D01*
X119650Y107359D02*
X139672D01*
X119650Y104659D02*
X139654D01*
X119650Y107269D02*
X139586D01*
X119650Y104749D02*
X139570D01*
X119650Y107179D02*
X139510D01*
X119650Y104839D02*
X139496D01*
X119650Y107089D02*
X139443D01*
X119650Y104929D02*
X139431D01*
X119650Y106999D02*
X139384D01*
X119650Y105019D02*
X139373D01*
X119650Y106909D02*
X139331D01*
X119650Y105109D02*
X139322D01*
X119650Y106819D02*
X139285D01*
X119650Y105199D02*
X139277D01*
X119650Y106729D02*
X139245D01*
X119650Y105289D02*
X139238D01*
X119650Y106639D02*
X139211D01*
X119650Y105379D02*
X139204D01*
X119650Y106549D02*
X139181D01*
X119650Y105469D02*
X139176D01*
X119650Y106459D02*
X139156D01*
X119650Y105559D02*
X139152D01*
X119650Y106369D02*
X139136D01*
X119650Y105649D02*
X139133D01*
X119650Y106279D02*
X139121D01*
X119650Y105739D02*
X139118D01*
X119650Y106189D02*
X139109D01*
X119650Y105829D02*
X139108D01*
X119650Y106099D02*
X139103D01*
X119650Y105919D02*
X139102D01*
X119650Y106009D02*
X139100D01*
X102050Y114559D02*
X138906D01*
X135783Y110869D02*
X138794D01*
X135344Y114469D02*
X138606D01*
X135957Y110959D02*
X138540D01*
X135668Y114379D02*
X138410D01*
X136097Y111049D02*
X138360D01*
X135871Y114289D02*
X138258D01*
X136214Y111139D02*
X138217D01*
X136027Y114199D02*
X138132D01*
X136315Y111229D02*
X138098D01*
X136155Y114109D02*
X138025D01*
X136403Y111319D02*
X137995D01*
X136264Y114019D02*
X137932D01*
X136480Y111409D02*
X137906D01*
X136358Y113929D02*
X137851D01*
X136548Y111499D02*
X137828D01*
X136441Y113839D02*
X137779D01*
X136609Y111589D02*
X137759D01*
X136513Y113749D02*
X137716D01*
X136662Y111679D02*
X137698D01*
X136578Y113659D02*
X137660D01*
X136709Y111769D02*
X137644D01*
X136635Y113569D02*
X137610D01*
X136749Y111859D02*
X137596D01*
X136685Y113479D02*
X137567D01*
X136785Y111949D02*
X137555D01*
X136729Y113389D02*
X137529D01*
X136815Y112039D02*
X137519D01*
X136767Y113299D02*
X137497D01*
X136841Y112129D02*
X137488D01*
X136800Y113209D02*
X137469D01*
X136861Y112219D02*
X137462D01*
X136828Y113119D02*
X137447D01*
X136878Y112309D02*
X137441D01*
X136851Y113029D02*
X137429D01*
X136889Y112399D02*
X137424D01*
X136870Y112939D02*
X137415D01*
X136897Y112489D02*
X137412D01*
X136884Y112849D02*
X137406D01*
X136900Y112579D02*
X137404D01*
X136893Y112759D02*
X137401D01*
X136899Y112669D02*
X137400D01*
X115744Y114469D02*
X134656D01*
X131604Y110779D02*
X134459D01*
X131084Y114379D02*
X134332D01*
X131774Y110869D02*
X134217D01*
X131441Y114289D02*
X134129D01*
X131911Y110959D02*
X134043D01*
X131651Y114199D02*
X133973D01*
X132026Y111049D02*
X133903D01*
X131811Y114109D02*
X133845D01*
X132125Y111139D02*
X133786D01*
X131942Y114019D02*
X133736D01*
X132212Y111229D02*
X133685D01*
X132053Y113929D02*
X133642D01*
X132288Y111319D02*
X133597D01*
X132148Y113839D02*
X133559D01*
X132355Y111409D02*
X133520D01*
X132232Y113749D02*
X133487D01*
X132415Y111499D02*
X133452D01*
X132306Y113659D02*
X133422D01*
X132467Y111589D02*
X133391D01*
X132371Y113569D02*
X133365D01*
X132513Y111679D02*
X133338D01*
X132429Y113479D02*
X133315D01*
X132554Y111769D02*
X133291D01*
X132479Y113389D02*
X133271D01*
X132589Y111859D02*
X133251D01*
X132524Y113299D02*
X133233D01*
X132618Y111949D02*
X133215D01*
X132563Y113209D02*
X133200D01*
X132643Y112039D02*
X133185D01*
X132596Y113119D02*
X133172D01*
X132663Y112129D02*
X133159D01*
X132625Y113029D02*
X133149D01*
X132679Y112219D02*
X133139D01*
X132649Y112939D02*
X133130D01*
X132690Y112309D02*
X133122D01*
X132668Y112849D02*
X133116D01*
X132697Y112399D02*
X133111D01*
X132682Y112759D02*
X133107D01*
X132700Y112489D02*
X133103D01*
X132693Y112669D02*
X133101D01*
X132698Y112579D02*
X133100D01*
X126084Y114379D02*
X130516D01*
X126374Y110689D02*
X130226D01*
X126441Y114289D02*
X130159D01*
X126604Y110779D02*
X129996D01*
X126651Y114199D02*
X129949D01*
X126774Y110869D02*
X129826D01*
X126811Y114109D02*
X129789D01*
X126911Y110959D02*
X129689D01*
X126942Y114019D02*
X129658D01*
X127026Y111049D02*
X129574D01*
X127053Y113929D02*
X129547D01*
X127125Y111139D02*
X129475D01*
X127148Y113839D02*
X129452D01*
X127212Y111229D02*
X129388D01*
X127232Y113749D02*
X129368D01*
X127288Y111319D02*
X129312D01*
X127306Y113659D02*
X129294D01*
X127355Y111409D02*
X129245D01*
X127371Y113569D02*
X129229D01*
X127415Y111499D02*
X129185D01*
X127429Y113479D02*
X129171D01*
X127467Y111589D02*
X129133D01*
X127479Y113389D02*
X129121D01*
X127513Y111679D02*
X129087D01*
X127524Y113299D02*
X129076D01*
X127554Y111769D02*
X129046D01*
X127563Y113209D02*
X129037D01*
X127589Y111859D02*
X129011D01*
X127596Y113119D02*
X129004D01*
X127618Y111949D02*
X128982D01*
X127625Y113029D02*
X128975D01*
X127643Y112039D02*
X128957D01*
X127649Y112939D02*
X128951D01*
X127663Y112129D02*
X128937D01*
X127668Y112849D02*
X128932D01*
X127679Y112219D02*
X128921D01*
X127682Y112759D02*
X128918D01*
X127690Y112309D02*
X128910D01*
X127693Y112669D02*
X128907D01*
X127697Y112399D02*
X128903D01*
X127698Y112579D02*
X128902D01*
X127700Y112489D02*
X128900D01*
X116068Y114379D02*
X125516D01*
X122126Y110689D02*
X125226D01*
X121507Y114289D02*
X125159D01*
X122291Y110779D02*
X124996D01*
X121912Y114199D02*
X124949D01*
X122425Y110869D02*
X124826D01*
X122131Y114109D02*
X124789D01*
X122538Y110959D02*
X124689D01*
X122295Y114019D02*
X124658D01*
X122636Y111049D02*
X124574D01*
X122428Y113929D02*
X124547D01*
X122721Y111139D02*
X124475D01*
X122541Y113839D02*
X124452D01*
X122796Y111229D02*
X124388D01*
X122638Y113749D02*
X124368D01*
X122862Y111319D02*
X124312D01*
X122723Y113659D02*
X124294D01*
X122921Y111409D02*
X124245D01*
X122798Y113569D02*
X124229D01*
X122973Y111499D02*
X124185D01*
X122864Y113479D02*
X124171D01*
X123018Y111589D02*
X124133D01*
X122923Y113389D02*
X124121D01*
X123058Y111679D02*
X124087D01*
X122974Y113299D02*
X124076D01*
X123092Y111769D02*
X124046D01*
X123019Y113209D02*
X124037D01*
X123121Y111859D02*
X124011D01*
X123059Y113119D02*
X124004D01*
X123146Y111949D02*
X123982D01*
X123093Y113029D02*
X123975D01*
X123165Y112039D02*
X123957D01*
X123122Y112939D02*
X123951D01*
X123181Y112129D02*
X123937D01*
X123146Y112849D02*
X123932D01*
X123191Y112219D02*
X123921D01*
X123166Y112759D02*
X123918D01*
X123198Y112309D02*
X123910D01*
X123181Y112669D02*
X123907D01*
X123200Y112399D02*
X123903D01*
X123192Y112579D02*
X123902D01*
X123198Y112489D02*
X123900D01*
X102050Y110509D02*
X121118D01*
X116271Y114289D02*
X121093D01*
X102050Y110599D02*
X120696D01*
X116427Y114199D02*
X120688D01*
X102050Y110689D02*
X120474D01*
X116555Y114109D02*
X120469D01*
X115941Y110779D02*
X120309D01*
X116664Y114019D02*
X120305D01*
X116183Y110869D02*
X120175D01*
X116758Y113929D02*
X120172D01*
X116357Y110959D02*
X120062D01*
X116841Y113839D02*
X120059D01*
X116497Y111049D02*
X119964D01*
X116913Y113749D02*
X119962D01*
X116614Y111139D02*
X119879D01*
X116978Y113659D02*
X119877D01*
X116715Y111229D02*
X119804D01*
X117035Y113569D02*
X119802D01*
X116803Y111319D02*
X119738D01*
X117085Y113479D02*
X119736D01*
X116880Y111409D02*
X119679D01*
X117129Y113389D02*
X119677D01*
X116948Y111499D02*
X119627D01*
X117167Y113299D02*
X119626D01*
X117009Y111589D02*
X119582D01*
X117200Y113209D02*
X119581D01*
X117062Y111679D02*
X119542D01*
X117228Y113119D02*
X119541D01*
X117109Y111769D02*
X119508D01*
X117251Y113029D02*
X119507D01*
X117149Y111859D02*
X119479D01*
X117270Y112939D02*
X119478D01*
X117185Y111949D02*
X119454D01*
X117284Y112849D02*
X119454D01*
X117215Y112039D02*
X119435D01*
X117293Y112759D02*
X119434D01*
X117241Y112129D02*
X119419D01*
X117299Y112669D02*
X119419D01*
X117261Y112219D02*
X119409D01*
X117300Y112579D02*
X119408D01*
X117278Y112309D02*
X119402D01*
X117297Y112489D02*
X119402D01*
X117289Y112399D02*
X119400D01*
X110344Y114469D02*
X115056D01*
X110541Y110779D02*
X114859D01*
X110668Y114379D02*
X114732D01*
X110783Y110869D02*
X114617D01*
X110871Y114289D02*
X114529D01*
X110957Y110959D02*
X114443D01*
X111027Y114199D02*
X114373D01*
X111097Y111049D02*
X114303D01*
X111155Y114109D02*
X114245D01*
X111214Y111139D02*
X114186D01*
X111264Y114019D02*
X114136D01*
X111315Y111229D02*
X114085D01*
X111358Y113929D02*
X114042D01*
X111403Y111319D02*
X113997D01*
X111441Y113839D02*
X113959D01*
X111480Y111409D02*
X113920D01*
X111513Y113749D02*
X113887D01*
X111548Y111499D02*
X113852D01*
X111578Y113659D02*
X113822D01*
X111609Y111589D02*
X113791D01*
X111635Y113569D02*
X113765D01*
X111662Y111679D02*
X113738D01*
X111685Y113479D02*
X113715D01*
X111709Y111769D02*
X113691D01*
X111729Y113389D02*
X113671D01*
X111749Y111859D02*
X113651D01*
X111767Y113299D02*
X113633D01*
X111785Y111949D02*
X113615D01*
X111800Y113209D02*
X113600D01*
X111815Y112039D02*
X113585D01*
X111828Y113119D02*
X113572D01*
X111841Y112129D02*
X113559D01*
X111851Y113029D02*
X113549D01*
X111861Y112219D02*
X113539D01*
X111870Y112939D02*
X113530D01*
X111878Y112309D02*
X113522D01*
X111884Y112849D02*
X113516D01*
X111889Y112399D02*
X113511D01*
X111893Y112759D02*
X113507D01*
X111897Y112489D02*
X113503D01*
X111899Y112669D02*
X113501D01*
X111900Y112579D02*
X113500D01*
X109228Y109609D02*
X112772D01*
X109270Y102409D02*
X112730D01*
X109392Y109519D02*
X112608D01*
X109414Y102499D02*
X112586D01*
X109489Y109429D02*
X112511D01*
X109503Y102589D02*
X112497D01*
X109555Y109339D02*
X112445D01*
X109565Y102679D02*
X112435D01*
X109601Y109249D02*
X112399D01*
X109607Y102769D02*
X112393D01*
X109630Y109159D02*
X112370D01*
X109634Y102859D02*
X112366D01*
X109646Y109069D02*
X112354D01*
X109648Y102949D02*
X112352D01*
X109650Y108979D02*
X112350D01*
X109650Y108889D02*
X112350D01*
X109650Y108799D02*
X112350D01*
X109650Y108709D02*
X112350D01*
X109650Y108619D02*
X112350D01*
X109650Y108529D02*
X112350D01*
X109650Y108439D02*
X112350D01*
X109650Y108349D02*
X112350D01*
X109650Y108259D02*
X112350D01*
X109650Y108169D02*
X112350D01*
X109650Y108079D02*
X112350D01*
X109650Y107989D02*
X112350D01*
X109650Y107899D02*
X112350D01*
X109650Y107809D02*
X112350D01*
X109650Y107719D02*
X112350D01*
X109650Y107629D02*
X112350D01*
X109650Y107539D02*
X112350D01*
X109650Y107449D02*
X112350D01*
X109650Y107359D02*
X112350D01*
X109650Y107269D02*
X112350D01*
X109650Y107179D02*
X112350D01*
X109650Y107089D02*
X112350D01*
X109650Y106999D02*
X112350D01*
X109650Y106909D02*
X112350D01*
X109650Y106819D02*
X112350D01*
X109650Y106729D02*
X112350D01*
X109650Y106639D02*
X112350D01*
X109650Y106549D02*
X112350D01*
X109650Y106459D02*
X112350D01*
X109650Y106369D02*
X112350D01*
X109650Y106279D02*
X112350D01*
X109650Y106189D02*
X112350D01*
X109650Y106099D02*
X112350D01*
X109650Y106009D02*
X112350D01*
X109650Y105919D02*
X112350D01*
X109650Y105829D02*
X112350D01*
X109650Y105739D02*
X112350D01*
X109650Y105649D02*
X112350D01*
X109650Y105559D02*
X112350D01*
X109650Y105469D02*
X112350D01*
X109650Y105379D02*
X112350D01*
X109650Y105289D02*
X112350D01*
X109650Y105199D02*
X112350D01*
X109650Y105109D02*
X112350D01*
X109650Y105019D02*
X112350D01*
X109650Y104929D02*
X112350D01*
X109650Y104839D02*
X112350D01*
X109650Y104749D02*
X112350D01*
X109650Y104659D02*
X112350D01*
X109650Y104569D02*
X112350D01*
X109650Y104479D02*
X112350D01*
X109650Y104389D02*
X112350D01*
X109650Y104299D02*
X112350D01*
X109650Y104209D02*
X112350D01*
X109650Y104119D02*
X112350D01*
X109650Y104029D02*
X112350D01*
X109650Y103939D02*
X112350D01*
X109650Y103849D02*
X112350D01*
X109650Y103759D02*
X112350D01*
X109650Y103669D02*
X112350D01*
X109650Y103579D02*
X112350D01*
X109650Y103489D02*
X112350D01*
X109650Y103399D02*
X112350D01*
X109650Y103309D02*
X112350D01*
X109650Y103219D02*
X112350D01*
X109650Y103129D02*
X112350D01*
X109650Y103039D02*
X112350D01*
X105344Y114469D02*
X109656D01*
X105541Y110779D02*
X109459D01*
X105668Y114379D02*
X109332D01*
X105783Y110869D02*
X109217D01*
X105871Y114289D02*
X109129D01*
X105957Y110959D02*
X109043D01*
X106027Y114199D02*
X108973D01*
X106097Y111049D02*
X108903D01*
X106155Y114109D02*
X108845D01*
X106214Y111139D02*
X108786D01*
X106264Y114019D02*
X108736D01*
X106315Y111229D02*
X108685D01*
X106358Y113929D02*
X108642D01*
X106403Y111319D02*
X108597D01*
X106441Y113839D02*
X108559D01*
X106480Y111409D02*
X108520D01*
X106513Y113749D02*
X108487D01*
X106548Y111499D02*
X108452D01*
X106578Y113659D02*
X108422D01*
X106609Y111589D02*
X108391D01*
X106635Y113569D02*
X108365D01*
X106662Y111679D02*
X108338D01*
X106685Y113479D02*
X108315D01*
X106709Y111769D02*
X108291D01*
X106729Y113389D02*
X108271D01*
X106749Y111859D02*
X108251D01*
X106767Y113299D02*
X108233D01*
X106785Y111949D02*
X108215D01*
X106800Y113209D02*
X108200D01*
X106815Y112039D02*
X108185D01*
X106828Y113119D02*
X108172D01*
X106841Y112129D02*
X108159D01*
X106851Y113029D02*
X108149D01*
X106861Y112219D02*
X108139D01*
X106870Y112939D02*
X108130D01*
X106878Y112309D02*
X108122D01*
X106884Y112849D02*
X108116D01*
X106889Y112399D02*
X108111D01*
X106893Y112759D02*
X108107D01*
X106897Y112489D02*
X108103D01*
X106899Y112669D02*
X108101D01*
X106900Y112579D02*
X108100D01*
X102050Y114469D02*
X104656D01*
X102050Y110779D02*
X104459D01*
X102050Y114379D02*
X104332D01*
X102050Y110869D02*
X104217D01*
X102050Y114289D02*
X104129D01*
X102050Y110959D02*
X104043D01*
X102050Y114199D02*
X103973D01*
X102050Y111049D02*
X103903D01*
X102050Y114109D02*
X103845D01*
X102050Y111139D02*
X103786D01*
X102050Y114019D02*
X103736D01*
X102050Y111229D02*
X103685D01*
X102050Y113929D02*
X103642D01*
X102050Y111319D02*
X103597D01*
X102050Y113839D02*
X103559D01*
X102050Y111409D02*
X103520D01*
X102050Y113749D02*
X103487D01*
X102050Y111499D02*
X103452D01*
X102050Y113659D02*
X103422D01*
X102050Y111589D02*
X103391D01*
X102050Y113569D02*
X103365D01*
X102050Y111679D02*
X103338D01*
X102050Y113479D02*
X103315D01*
X102050Y111769D02*
X103291D01*
X102050Y113389D02*
X103271D01*
X102050Y111859D02*
X103251D01*
X102050Y113299D02*
X103233D01*
X102050Y111949D02*
X103215D01*
X102050Y113209D02*
X103200D01*
X102050Y112039D02*
X103185D01*
X102050Y113119D02*
X103172D01*
X102050Y112129D02*
X103159D01*
X102050Y113029D02*
X103149D01*
X102050Y112219D02*
X103139D01*
X102050Y112939D02*
X103130D01*
X102050Y112309D02*
X103122D01*
X102050Y112849D02*
X103116D01*
X102050Y112399D02*
X103111D01*
X102050Y112759D02*
X103107D01*
X102050Y112489D02*
X103103D01*
X102050Y112669D02*
X103101D01*
X102050Y112579D02*
X103100D01*
X102050Y109609D02*
X102772D01*
X102050Y102409D02*
X102730D01*
X102050Y109519D02*
X102608D01*
X102050Y102499D02*
X102586D01*
X102050Y109429D02*
X102511D01*
X102050Y102589D02*
X102497D01*
X102050Y109339D02*
X102445D01*
X102050Y102679D02*
X102435D01*
X102050Y109249D02*
X102399D01*
X102050Y102769D02*
X102393D01*
X102050Y109159D02*
X102370D01*
X102050Y102859D02*
X102366D01*
X102050Y109069D02*
X102354D01*
X102050Y102949D02*
X102352D01*
X102050Y108979D02*
X102350D01*
X102050Y108889D02*
X102350D01*
X102050Y108799D02*
X102350D01*
X102050Y108709D02*
X102350D01*
X102050Y108619D02*
X102350D01*
X102050Y108529D02*
X102350D01*
X102050Y108439D02*
X102350D01*
X102050Y108349D02*
X102350D01*
X102050Y108259D02*
X102350D01*
X102050Y108169D02*
X102350D01*
X102050Y108079D02*
X102350D01*
X102050Y107989D02*
X102350D01*
X102050Y107899D02*
X102350D01*
X102050Y107809D02*
X102350D01*
X102050Y107719D02*
X102350D01*
X102050Y107629D02*
X102350D01*
X102050Y107539D02*
X102350D01*
X102050Y107449D02*
X102350D01*
X102050Y107359D02*
X102350D01*
X102050Y107269D02*
X102350D01*
X102050Y107179D02*
X102350D01*
X102050Y107089D02*
X102350D01*
X102050Y106999D02*
X102350D01*
X102050Y106909D02*
X102350D01*
X102050Y106819D02*
X102350D01*
X102050Y106729D02*
X102350D01*
X102050Y106639D02*
X102350D01*
X102050Y106549D02*
X102350D01*
X102050Y106459D02*
X102350D01*
X102050Y106369D02*
X102350D01*
X102050Y106279D02*
X102350D01*
X102050Y106189D02*
X102350D01*
X102050Y106099D02*
X102350D01*
X102050Y106009D02*
X102350D01*
X102050Y105919D02*
X102350D01*
X102050Y105829D02*
X102350D01*
X102050Y105739D02*
X102350D01*
X102050Y105649D02*
X102350D01*
X102050Y105559D02*
X102350D01*
X102050Y105469D02*
X102350D01*
X102050Y105379D02*
X102350D01*
X102050Y105289D02*
X102350D01*
X102050Y105199D02*
X102350D01*
X102050Y105109D02*
X102350D01*
X102050Y105019D02*
X102350D01*
X102050Y104929D02*
X102350D01*
X102050Y104839D02*
X102350D01*
X102050Y104749D02*
X102350D01*
X102050Y104659D02*
X102350D01*
X102050Y104569D02*
X102350D01*
X102050Y104479D02*
X102350D01*
X102050Y104389D02*
X102350D01*
X102050Y104299D02*
X102350D01*
X102050Y104209D02*
X102350D01*
X102050Y104119D02*
X102350D01*
X102050Y104029D02*
X102350D01*
X102050Y103939D02*
X102350D01*
X102050Y103849D02*
X102350D01*
X102050Y103759D02*
X102350D01*
X102050Y103669D02*
X102350D01*
X102050Y103579D02*
X102350D01*
X102050Y103489D02*
X102350D01*
X102050Y103399D02*
X102350D01*
X102050Y103309D02*
X102350D01*
X102050Y103219D02*
X102350D01*
X102050Y103129D02*
X102350D01*
X102050Y103039D02*
X102350D01*
G54D13*
X192540Y110460D02*
X193879Y109121D01*
X199460Y110460D02*
X198121Y109121D01*
X199460Y103540D02*
X198121Y104879D01*
X192540Y103540D02*
X193879Y104879D01*
X109460Y102540D02*
X108121Y103879D01*
X102540Y102540D02*
X103879Y103879D01*
X102540Y109460D02*
X103879Y108121D01*
X109460Y109460D02*
X108121Y108121D01*
X161044Y115444D02*
X160584Y114984D01*
X158356Y112756D02*
X158816Y113216D01*
X161044Y112756D02*
X160584Y113216D01*
X136344Y113944D02*
X135884Y113484D01*
X133656Y113944D02*
X134116Y113484D01*
X133656Y111256D02*
X134116Y111716D01*
X136344Y111256D02*
X135884Y111716D01*
X132144Y113844D02*
X131684Y113384D01*
X129456Y113844D02*
X129916Y113384D01*
X129456Y111156D02*
X129916Y111616D01*
X132144Y111156D02*
X131684Y111616D01*
X127144Y113844D02*
X126684Y113384D01*
X124456Y113844D02*
X124916Y113384D01*
X124456Y111156D02*
X124916Y111616D01*
X127144Y111156D02*
X126684Y111616D01*
X122644Y113744D02*
X122184Y113284D01*
X119956Y113744D02*
X120416Y113284D01*
X119956Y111056D02*
X120416Y111516D01*
X122644Y111056D02*
X122184Y111516D01*
X116744Y113944D02*
X116284Y113484D01*
X114056Y113944D02*
X114516Y113484D01*
X114056Y111256D02*
X114516Y111716D01*
X116744Y111256D02*
X116284Y111716D01*
X106344Y113944D02*
X105884Y113484D01*
X103656Y113944D02*
X104116Y113484D01*
X103656Y111256D02*
X104116Y111716D01*
X106344Y111256D02*
X105884Y111716D01*
X204644Y120044D02*
X204184Y119584D01*
X201956Y120044D02*
X202416Y119584D01*
X201956Y117356D02*
X202416Y117816D01*
X204644Y117356D02*
X204184Y117816D01*
X200644Y120044D02*
X200184Y119584D01*
X197956Y120044D02*
X198416Y119584D01*
X197956Y117356D02*
X198416Y117816D01*
X200644Y117356D02*
X200184Y117816D01*
X188644Y142044D02*
X188184Y141584D01*
X185956Y142044D02*
X186416Y141584D01*
X185956Y139356D02*
X186416Y139816D01*
X188644Y139356D02*
X188184Y139816D01*
X140644Y114044D02*
X140184Y113584D01*
X137956Y114044D02*
X138416Y113584D01*
X137956Y111356D02*
X138416Y111816D01*
X140644Y111356D02*
X140184Y111816D01*
X188644Y152044D02*
X188184Y151584D01*
X185956Y152044D02*
X186416Y151584D01*
X185956Y149356D02*
X186416Y149816D01*
X188644Y149356D02*
X188184Y149816D01*
X188644Y160044D02*
X188184Y159584D01*
X185956Y160044D02*
X186416Y159584D01*
X185956Y157356D02*
X186416Y157816D01*
X188644Y157356D02*
X188184Y157816D01*
X192644Y160044D02*
X192184Y159584D01*
X189956Y160044D02*
X190416Y159584D01*
X189956Y157356D02*
X190416Y157816D01*
X192644Y157356D02*
X192184Y157816D01*
X196644Y160044D02*
X196184Y159584D01*
X193956Y160044D02*
X194416Y159584D01*
X193956Y157356D02*
X194416Y157816D01*
X196644Y157356D02*
X196184Y157816D01*
X200644Y160044D02*
X200184Y159584D01*
X197956Y160044D02*
X198416Y159584D01*
X197956Y157356D02*
X198416Y157816D01*
X200644Y157356D02*
X200184Y157816D01*
X204644Y160044D02*
X204184Y159584D01*
X201956Y160044D02*
X202416Y159584D01*
X201956Y157356D02*
X202416Y157816D01*
X204644Y157356D02*
X204184Y157816D01*
X196644Y120044D02*
X196184Y119584D01*
X193956Y120044D02*
X194416Y119584D01*
X193956Y117356D02*
X194416Y117816D01*
X196644Y117356D02*
X196184Y117816D01*
X192644Y120044D02*
X192184Y119584D01*
X189956Y120044D02*
X190416Y119584D01*
X189956Y117356D02*
X190416Y117816D01*
X192644Y117356D02*
X192184Y117816D01*
X188644Y120044D02*
X188184Y119584D01*
X185956Y120044D02*
X186416Y119584D01*
X185956Y117356D02*
X186416Y117816D01*
X188644Y117356D02*
X188184Y117816D01*
X176644Y120044D02*
X176184Y119584D01*
X173956Y120044D02*
X174416Y119584D01*
X173956Y117356D02*
X174416Y117816D01*
X176644Y117356D02*
X176184Y117816D01*
X180644Y120044D02*
X180184Y119584D01*
X177956Y120044D02*
X178416Y119584D01*
X177956Y117356D02*
X178416Y117816D01*
X180644Y117356D02*
X180184Y117816D01*
X184644Y120044D02*
X184184Y119584D01*
X181956Y120044D02*
X182416Y119584D01*
X181956Y117356D02*
X182416Y117816D01*
X184644Y117356D02*
X184184Y117816D01*
X200644Y132044D02*
X200184Y131584D01*
X197956Y132044D02*
X198416Y131584D01*
X197956Y129356D02*
X198416Y129816D01*
X200644Y129356D02*
X200184Y129816D01*
X196644Y132044D02*
X196184Y131584D01*
X193956Y132044D02*
X194416Y131584D01*
X193956Y129356D02*
X194416Y129816D01*
X196644Y129356D02*
X196184Y129816D01*
X204644Y156044D02*
X204184Y155584D01*
X201956Y156044D02*
X202416Y155584D01*
X201956Y153356D02*
X202416Y153816D01*
X204644Y153356D02*
X204184Y153816D01*
X204644Y152044D02*
X204184Y151584D01*
X201956Y152044D02*
X202416Y151584D01*
X201956Y149356D02*
X202416Y149816D01*
X204644Y149356D02*
X204184Y149816D01*
X204644Y148044D02*
X204184Y147584D01*
X201956Y148044D02*
X202416Y147584D01*
X201956Y145356D02*
X202416Y145816D01*
X204644Y145356D02*
X204184Y145816D01*
X204644Y144044D02*
X204184Y143584D01*
X201956Y144044D02*
X202416Y143584D01*
X201956Y141356D02*
X202416Y141816D01*
X204644Y141356D02*
X204184Y141816D01*
X188644Y132044D02*
X188184Y131584D01*
X185956Y132044D02*
X186416Y131584D01*
X185956Y129356D02*
X186416Y129816D01*
X188644Y129356D02*
X188184Y129816D01*
X204644Y140044D02*
X204184Y139584D01*
X201956Y140044D02*
X202416Y139584D01*
X201956Y137356D02*
X202416Y137816D01*
X204644Y137356D02*
X204184Y137816D01*
X204644Y136044D02*
X204184Y135584D01*
X201956Y136044D02*
X202416Y135584D01*
X201956Y133356D02*
X202416Y133816D01*
X204644Y133356D02*
X204184Y133816D01*
X204644Y132044D02*
X204184Y131584D01*
X201956Y132044D02*
X202416Y131584D01*
X201956Y129356D02*
X202416Y129816D01*
X204644Y129356D02*
X204184Y129816D01*
X204644Y128044D02*
X204184Y127584D01*
X201956Y128044D02*
X202416Y127584D01*
X201956Y125356D02*
X202416Y125816D01*
X204644Y125356D02*
X204184Y125816D01*
X204644Y124044D02*
X204184Y123584D01*
X201956Y124044D02*
X202416Y123584D01*
X201956Y121356D02*
X202416Y121816D01*
X204644Y121356D02*
X204184Y121816D01*
X200644Y124044D02*
X200184Y123584D01*
X197956Y124044D02*
X198416Y123584D01*
X197956Y121356D02*
X198416Y121816D01*
X200644Y121356D02*
X200184Y121816D01*
X196644Y124044D02*
X196184Y123584D01*
X193956Y124044D02*
X194416Y123584D01*
X193956Y121356D02*
X194416Y121816D01*
X196644Y121356D02*
X196184Y121816D01*
X192644Y124044D02*
X192184Y123584D01*
X189956Y124044D02*
X190416Y123584D01*
X189956Y121356D02*
X190416Y121816D01*
X192644Y121356D02*
X192184Y121816D01*
X188644Y124044D02*
X188184Y123584D01*
X185956Y124044D02*
X186416Y123584D01*
X185956Y121356D02*
X186416Y121816D01*
X188644Y121356D02*
X188184Y121816D01*
X170144Y158544D02*
X169684Y158084D01*
X167456Y158544D02*
X167916Y158084D01*
X167456Y155856D02*
X167916Y156316D01*
X170144Y155856D02*
X169684Y156316D01*
X166144Y158544D02*
X165684Y158084D01*
X163456Y158544D02*
X163916Y158084D01*
X163456Y155856D02*
X163916Y156316D01*
X166144Y155856D02*
X165684Y156316D01*
X170144Y153044D02*
X169684Y152584D01*
X167456Y153044D02*
X167916Y152584D01*
X167456Y150356D02*
X167916Y150816D01*
X170144Y150356D02*
X169684Y150816D01*
X184644Y144044D02*
X184184Y143584D01*
X181956Y144044D02*
X182416Y143584D01*
X181956Y141356D02*
X182416Y141816D01*
X184644Y141356D02*
X184184Y141816D01*
X184644Y148044D02*
X184184Y147584D01*
X181956Y148044D02*
X182416Y147584D01*
X181956Y145356D02*
X182416Y145816D01*
X184644Y145356D02*
X184184Y145816D01*
X184644Y160044D02*
X184184Y159584D01*
X181956Y160044D02*
X182416Y159584D01*
X181956Y157356D02*
X182416Y157816D01*
X184644Y157356D02*
X184184Y157816D01*
X184644Y156044D02*
X184184Y155584D01*
X181956Y156044D02*
X182416Y155584D01*
X181956Y153356D02*
X182416Y153816D01*
X184644Y153356D02*
X184184Y153816D01*
X184644Y124044D02*
X184184Y123584D01*
X181956Y124044D02*
X182416Y123584D01*
X181956Y121356D02*
X182416Y121816D01*
X184644Y121356D02*
X184184Y121816D01*
X184644Y128044D02*
X184184Y127584D01*
X181956Y128044D02*
X182416Y127584D01*
X181956Y125356D02*
X182416Y125816D01*
X184644Y125356D02*
X184184Y125816D01*
X184644Y132044D02*
X184184Y131584D01*
X181956Y132044D02*
X182416Y131584D01*
X181956Y129356D02*
X182416Y129816D01*
X184644Y129356D02*
X184184Y129816D01*
X184644Y136044D02*
X184184Y135584D01*
X181956Y136044D02*
X182416Y135584D01*
X181956Y133356D02*
X182416Y133816D01*
X184644Y133356D02*
X184184Y133816D01*
X184644Y152044D02*
X184184Y151584D01*
X181956Y152044D02*
X182416Y151584D01*
X181956Y149356D02*
X182416Y149816D01*
X184644Y149356D02*
X184184Y149816D01*
X161644Y120044D02*
X161184Y119584D01*
X161644Y117356D02*
X161184Y117816D01*
X161644Y125044D02*
X161184Y124584D01*
X161644Y122356D02*
X161184Y122816D01*
X161644Y130044D02*
X161184Y129584D01*
X161644Y127356D02*
X161184Y127816D01*
X161644Y135044D02*
X161184Y134584D01*
X161644Y132356D02*
X161184Y132816D01*
X161644Y140044D02*
X161184Y139584D01*
X161644Y137356D02*
X161184Y137816D01*
X156644Y114044D02*
X156184Y113584D01*
X153956Y114044D02*
X154416Y113584D01*
X153956Y111356D02*
X154416Y111816D01*
X156644Y111356D02*
X156184Y111816D01*
X152644Y114044D02*
X152184Y113584D01*
X149956Y114044D02*
X150416Y113584D01*
X149956Y111356D02*
X150416Y111816D01*
X152644Y111356D02*
X152184Y111816D01*
X148644Y114044D02*
X148184Y113584D01*
X145956Y114044D02*
X146416Y113584D01*
X145956Y111356D02*
X146416Y111816D01*
X148644Y111356D02*
X148184Y111816D01*
X144644Y114044D02*
X144184Y113584D01*
X141956Y114044D02*
X142416Y113584D01*
X141956Y111356D02*
X142416Y111816D01*
X144644Y111356D02*
X144184Y111816D01*
X184644Y140044D02*
X184184Y139584D01*
X181956Y140044D02*
X182416Y139584D01*
X181956Y137356D02*
X182416Y137816D01*
X184644Y137356D02*
X184184Y137816D01*
X200644Y142044D02*
X200184Y141584D01*
X197956Y142044D02*
X198416Y141584D01*
X197956Y139356D02*
X198416Y139816D01*
X200644Y139356D02*
X200184Y139816D01*
X196644Y142044D02*
X196184Y141584D01*
X193956Y142044D02*
X194416Y141584D01*
X193956Y139356D02*
X194416Y139816D01*
X196644Y139356D02*
X196184Y139816D01*
X192644Y142044D02*
X192184Y141584D01*
X189956Y142044D02*
X190416Y141584D01*
X189956Y139356D02*
X190416Y139816D01*
X192644Y139356D02*
X192184Y139816D01*
X166644Y153044D02*
X166184Y152584D01*
X163956Y153044D02*
X164416Y152584D01*
X163956Y150356D02*
X164416Y150816D01*
X166644Y150356D02*
X166184Y150816D01*
X162644Y144044D02*
X162184Y143584D01*
X159956Y144044D02*
X160416Y143584D01*
X159956Y141356D02*
X160416Y141816D01*
X162644Y141356D02*
X162184Y141816D01*
X162644Y148044D02*
X162184Y147584D01*
X159956Y148044D02*
X160416Y147584D01*
X159956Y145356D02*
X160416Y145816D01*
X162644Y145356D02*
X162184Y145816D01*
X162644Y152044D02*
X162184Y151584D01*
X159956Y152044D02*
X160416Y151584D01*
X159956Y149356D02*
X160416Y149816D01*
X162644Y149356D02*
X162184Y149816D01*
X162644Y160044D02*
X162184Y159584D01*
X159956Y160044D02*
X160416Y159584D01*
X159956Y157356D02*
X160416Y157816D01*
X162644Y157356D02*
X162184Y157816D01*
X200644Y152044D02*
X200184Y151584D01*
X197956Y152044D02*
X198416Y151584D01*
X197956Y149356D02*
X198416Y149816D01*
X200644Y149356D02*
X200184Y149816D01*
X196644Y152044D02*
X196184Y151584D01*
X193956Y152044D02*
X194416Y151584D01*
X193956Y149356D02*
X194416Y149816D01*
X196644Y149356D02*
X196184Y149816D01*
X192644Y152044D02*
X192184Y151584D01*
X189956Y152044D02*
X190416Y151584D01*
X189956Y149356D02*
X190416Y149816D01*
X192644Y149356D02*
X192184Y149816D01*
X220644Y108044D02*
X220184Y107584D01*
X217956Y108044D02*
X218416Y107584D01*
X217956Y105356D02*
X218416Y105816D01*
X220644Y105356D02*
X220184Y105816D01*
X220644Y112044D02*
X220184Y111584D01*
X217956Y112044D02*
X218416Y111584D01*
X217956Y109356D02*
X218416Y109816D01*
X220644Y109356D02*
X220184Y109816D01*
X216644Y116044D02*
X216184Y115584D01*
X213956Y116044D02*
X214416Y115584D01*
X213956Y113356D02*
X214416Y113816D01*
X216644Y113356D02*
X216184Y113816D01*
X216644Y120044D02*
X216184Y119584D01*
X213956Y120044D02*
X214416Y119584D01*
X213956Y117356D02*
X214416Y117816D01*
X216644Y117356D02*
X216184Y117816D01*
X212644Y120044D02*
X212184Y119584D01*
X209956Y120044D02*
X210416Y119584D01*
X209956Y117356D02*
X210416Y117816D01*
X212644Y117356D02*
X212184Y117816D01*
X208644Y120044D02*
X208184Y119584D01*
X205956Y120044D02*
X206416Y119584D01*
X205956Y117356D02*
X206416Y117816D01*
X208644Y117356D02*
X208184Y117816D01*
X192644Y132044D02*
X192184Y131584D01*
X189956Y132044D02*
X190416Y131584D01*
X189956Y129356D02*
X190416Y129816D01*
X192644Y129356D02*
X192184Y129816D01*
X111344Y113944D02*
X110884Y113484D01*
X108656Y113944D02*
X109116Y113484D01*
X108656Y111256D02*
X109116Y111716D01*
X111344Y111256D02*
X110884Y111716D01*
G54D130*
X110000Y112600D03*
X135000D03*
X130800Y112500D03*
X125800D03*
X121300Y112400D03*
X115400Y112600D03*
X105000D03*
X139300Y112700D03*
X159700Y114100D03*
X203300Y118700D03*
X199300D03*
X195300D03*
X191300D03*
X187300D03*
X175300D03*
X179300D03*
X183300D03*
X199300Y130700D03*
X195300D03*
X187300D03*
X203300Y138700D03*
Y134700D03*
Y130700D03*
Y126700D03*
Y122700D03*
X199300D03*
X195300D03*
X191300D03*
X187300D03*
X183300D03*
Y126700D03*
Y130700D03*
Y134700D03*
X160300Y118700D03*
Y123700D03*
Y128700D03*
Y133700D03*
Y138700D03*
X155300Y112700D03*
X151300D03*
X147300D03*
X143300D03*
X183300Y138700D03*
X219300Y106700D03*
Y110700D03*
X215300Y114700D03*
Y118700D03*
X211300D03*
X207300D03*
X191300Y130700D03*
X141000Y106000D03*
X187300Y140700D03*
Y150700D03*
Y158700D03*
X191300D03*
X195300D03*
X199300D03*
X203300D03*
Y154700D03*
Y150700D03*
Y146700D03*
Y142700D03*
X168800Y157200D03*
X164800D03*
X168800Y151700D03*
X183300Y142700D03*
Y146700D03*
Y158700D03*
Y154700D03*
Y150700D03*
X199300Y140700D03*
X195300D03*
X191300D03*
X165300Y151700D03*
X161300Y142700D03*
Y146700D03*
Y150700D03*
Y158700D03*
X199300Y150700D03*
X195300D03*
X191300D03*
X219500Y153900D03*
G54D201*
X116000Y106000D03*
X106000D03*
X230000Y146000D03*
Y136000D03*
Y126000D03*
Y116000D03*
Y106000D03*
X156000Y107000D03*
X166000D03*
X176000D03*
X186000D03*
X196000D03*
G54D202*
X118000Y123200D03*
X105200Y136000D03*
X118000Y148800D03*
G74*
X0Y0D02*
M02*
