*
*
G04 PADS 9.5 Build Number: 522968 generated Gerber (RS-274-X) file*
G04 PC Version=2.1*
*
%IN "Data_TRX_v1_working.pcb"*%
*
%MOIN*%
*
%FSLAX35Y35*%
*
*
*
*
G04 PC Standard Apertures*
*
*
G04 Thermal Relief Aperture macro.*
%AMTER*
1,1,$1,0,0*
1,0,$1-$2,0,0*
21,0,$3,$4,0,0,45*
21,0,$3,$4,0,0,135*
%
*
*
G04 Annular Aperture macro.*
%AMANN*
1,1,$1,0,0*
1,0,$2,0,0*
%
*
*
G04 Odd Aperture macro.*
%AMODD*
1,1,$1,0,0*
1,0,$1-0.005,0,0*
%
*
*
G04 PC Custom Aperture Macros*
*
*
*
*
*
*
G04 PC Aperture Table*
*
%ADD010C,0.001*%
%ADD013C,0.01*%
%ADD014C,0.012*%
%ADD113C,0.08*%
%ADD115C,0.03*%
%ADD151C,0.008*%
%ADD171R,0.01181X0.07087*%
*
*
*
*
G04 PC Circuitry*
G04 Layer Name Data_TRX_v1_working.pcb - circuitry*
%LPD*%
*
*
G04 PC Custom Flashes*
G04 Layer Name Data_TRX_v1_working.pcb - flashes*
%LPD*%
*
*
G04 PC Circuitry*
G04 Layer Name Data_TRX_v1_working.pcb - circuitry*
%LPD*%
*
G54D10*
G54D13*
G01X148600Y216700D02*
X151200D01*
Y211000*
X148600*
Y216700*
X151200*
X148600Y215700D02*
X151200D01*
X148600Y214700D02*
X151200D01*
X148600Y213700D02*
X151200D01*
X148600Y212700D02*
X151200D01*
X148600Y211700D02*
X151200D01*
X148600Y211000D02*
Y216700D01*
X149600Y211000D02*
Y216700D01*
X150600Y211000D02*
Y216700D01*
X100000Y100000D02*
X238000D01*
Y220000*
X100000*
Y100000*
G54D14*
X142400Y213800D02*
X148920D01*
Y213829*
X150889D02*
Y206600D01*
X151000*
G54D113*
X201000Y178606D03*
Y168606D03*
Y158606D03*
Y148606D03*
X211000Y178606D03*
Y168606D03*
Y158606D03*
Y148606D03*
X120500Y169106D03*
X221800Y194606D03*
X107000Y117606D03*
G54D115*
X110800Y135800D03*
X115000Y136000D03*
X124700Y131800D03*
X119700Y136200D03*
X103500Y131900D03*
Y127900D03*
X109200Y104300D03*
X125300Y115900D03*
X154200Y114700D03*
X175400Y127800D03*
X175700Y133200D03*
X183000Y137100D03*
X182700Y132900D03*
X182900Y128200D03*
X149900Y113700D03*
X145900Y113900D03*
X142300Y109900D03*
X196200Y112600D03*
X192200Y115800D03*
X184400D03*
X172500Y115600D03*
X160700Y115800D03*
X157000Y112400D03*
X152000Y137000D03*
X144000D03*
X130000Y152900D03*
X121800Y147000D03*
X124900Y199700D03*
X119100D03*
X116900Y149900D03*
X120400Y143200D03*
X116100Y140100D03*
X137500Y195400D03*
X105900Y195300D03*
X139200Y160200D03*
X129900Y180100D03*
X114000Y180200D03*
X121900Y192100D03*
X170600Y204700D03*
X178400Y204400D03*
X172500Y192200D03*
X168600Y187200D03*
X176500Y186800D03*
X174500Y204600D03*
X166600Y204700D03*
X164700Y191900D03*
X175400Y142300D03*
X145400Y164300D03*
X159000Y155800D03*
X183000Y144700D03*
Y141000D03*
X149400Y166000D03*
X173000Y159900D03*
X177800Y154500D03*
X168300Y165300D03*
X192200Y190400D03*
X162000Y207000D03*
X148000Y141000D03*
X152000Y145000D03*
X144000D03*
X159800Y160100D03*
X142400Y213800D03*
X151000Y206600D03*
G54D151*
X192200Y115800D02*
X192228D01*
Y122097*
X172500Y115600D02*
X172543D01*
Y122097*
X160700Y115800D02*
X160731D01*
Y122097*
X196165Y106349D02*
Y112600D01*
X196200*
X184354Y122097D02*
Y115800D01*
X184400*
X156794Y106349D02*
X156985D01*
Y109492*
X157000Y112400*
X124900Y199700D02*
X134600Y190000D01*
Y130869*
X148069Y117400*
X155550*
X160850Y112100*
X163461*
X164669Y110892*
Y106349*
X119100Y199700D02*
X124900D01*
X178400Y204400D02*
X178448D01*
Y198081*
X172500Y192200D02*
Y187264D01*
X191158Y168606*
X201000*
X172500Y192200D02*
X172543D01*
Y198081*
X168600Y187200D02*
Y191616D01*
X168606Y191622*
Y198081*
X168600Y187200D02*
X197194Y158606D01*
X201000*
X176500Y186800D02*
X184694Y178606D01*
X201000*
X174500Y204600D02*
X174511D01*
Y198081*
X166600Y204700D02*
X166637D01*
Y198081*
X164700Y191900D02*
Y184906D01*
X201000Y148606*
X192200Y190400D02*
X192228D01*
Y198081*
X162000Y207000D02*
X164669Y209669D01*
Y213829*
X188291D02*
Y207909D01*
X192228Y203972*
Y198081*
X176480D02*
X176500Y196700D01*
Y186800*
X170574Y198081D02*
Y204700D01*
X170600*
X164669Y198081D02*
Y191900D01*
X164700*
G54D171*
X148920Y122097D03*
Y106349D03*
X150889Y122097D03*
Y106349D03*
X152857Y122097D03*
Y106349D03*
X154826Y122097D03*
Y106349D03*
X156794Y122097D03*
Y106349D03*
X158763Y122097D03*
Y106349D03*
X160731Y122097D03*
Y106349D03*
X162700Y122097D03*
Y106349D03*
X164669Y122097D03*
Y106349D03*
X166637Y122097D03*
Y106349D03*
X168606Y122097D03*
Y106349D03*
X170574Y122097D03*
Y106349D03*
X172543Y122097D03*
Y106349D03*
X174511Y122097D03*
Y106349D03*
X176480Y122097D03*
Y106349D03*
X178448Y122097D03*
Y106349D03*
X180417Y122097D03*
Y106349D03*
X182385Y122097D03*
Y106349D03*
X184354Y122097D03*
Y106349D03*
X186322Y122097D03*
Y106349D03*
X188291Y122097D03*
Y106349D03*
X190259Y122097D03*
Y106349D03*
X192228Y122097D03*
Y106349D03*
X194196Y122097D03*
Y106349D03*
X196165Y122097D03*
Y106349D03*
X148920Y213829D03*
Y198081D03*
X150889Y213829D03*
Y198081D03*
X152857Y213829D03*
Y198081D03*
X154826Y213829D03*
Y198081D03*
X156794Y213829D03*
Y198081D03*
X158763Y213829D03*
Y198081D03*
X160731Y213829D03*
Y198081D03*
X162700Y213829D03*
Y198081D03*
X164669Y213829D03*
Y198081D03*
X166637Y213829D03*
Y198081D03*
X168606Y213829D03*
Y198081D03*
X170574Y213829D03*
Y198081D03*
X172543Y213829D03*
Y198081D03*
X174511Y213829D03*
Y198081D03*
X176480Y213829D03*
Y198081D03*
X178448Y213829D03*
Y198081D03*
X180417Y213829D03*
Y198081D03*
X182385Y213829D03*
Y198081D03*
X184354Y213829D03*
Y198081D03*
X186322Y213829D03*
Y198081D03*
X188291Y213829D03*
Y198081D03*
X190259Y213829D03*
Y198081D03*
X192228Y213829D03*
Y198081D03*
X194196Y213829D03*
Y198081D03*
X196165Y213829D03*
Y198081D03*
X0Y0D02*
M02*
