*
*
G04 PADS 9.5 Build Number: 522968 generated Gerber (RS-274-X) file*
G04 PC Version=2.1*
*
%IN "Data_TRX_v1_working.pcb"*%
*
%MOIN*%
*
%FSLAX35Y35*%
*
*
*
*
G04 PC Standard Apertures*
*
*
G04 Thermal Relief Aperture macro.*
%AMTER*
1,1,$1,0,0*
1,0,$1-$2,0,0*
21,0,$3,$4,0,0,45*
21,0,$3,$4,0,0,135*
%
*
*
G04 Annular Aperture macro.*
%AMANN*
1,1,$1,0,0*
1,0,$2,0,0*
%
*
*
G04 Odd Aperture macro.*
%AMODD*
1,1,$1,0,0*
1,0,$1-0.005,0,0*
%
*
*
G04 PC Custom Aperture Macros*
*
*
*
*
*
*
G04 PC Aperture Table*
*
%ADD010C,0.001*%
%ADD013C,0.01*%
%ADD020C,0.009*%
%ADD115C,0.03*%
*
*
*
*
G04 PC Circuitry*
G04 Layer Name Data_TRX_v1_working.pcb - circuitry*
%LPD*%
*
*
G04 PC Custom Flashes*
G04 Layer Name Data_TRX_v1_working.pcb - flashes*
%LPD*%
*
*
G04 PC Circuitry*
G04 Layer Name Data_TRX_v1_working.pcb - circuitry*
%LPD*%
*
G54D10*
G54D13*
G01X226900Y194606D02*
G75*
G03X226900I-5100J0D01*
G01X194800Y190400D02*
G03X194800I-2600J0D01*
G01X187000Y115800D02*
G03X187000I-2600J0D01*
G01X175100Y115600D02*
G03X175100I-2600J0D01*
G01X178000Y142300D02*
G03X178000I-2600J0D01*
G01X180400Y154500D02*
G03X180400I-2600J0D01*
G01X175600Y159900D02*
G03X175600I-2600J0D01*
G01X179100Y186800D02*
G03X179100I-2600J0D01*
G01X170900Y165300D02*
G03X170900I-2600J0D01*
G01X175100Y192200D02*
G03X175100I-2600J0D01*
G01X153600Y206600D02*
G03X153600I-2600J0D01*
G01X141800Y160200D02*
G03X141800I-2600J0D01*
G01X140100Y195400D02*
G03X140100I-2600J0D01*
G01X145000Y213800D02*
G03X145000I-2600J0D01*
G01X127900Y115900D02*
G03X127900I-2600J0D01*
G01X132600Y152900D02*
G03X132600I-2600J0D01*
G01X127300Y131800D02*
G03X127300I-2600J0D01*
G01X132500Y180100D02*
G03X132500I-2600J0D01*
G01X125600Y169106D02*
G03X125600I-5100J0D01*
G01X124500Y192100D02*
G03X124500I-2600J0D01*
G01X116600Y180200D02*
G03X116600I-2600J0D01*
G01X235000Y103000D02*
Y217000D01*
G03X234500Y217500I-500J-0*
G01X103000*
G03X102500Y217000I0J-500*
G01Y196396*
G03X103468Y196219I500J-0*
G01Y194381D02*
G03Y196219I2432J919D01*
G01Y194381D02*
G03X102500Y194204I-468J-177D01*
G01Y134959*
G03X103081Y134466I500J0*
G01X105487Y130223D02*
G03X103081Y134466I-1987J1677D01*
G01X105487Y130223D02*
G03Y129577I382J-323D01*
G01X103081Y125334D02*
G03X105487Y129577I419J2566D01*
G01X103081Y125334D02*
G03X102500Y124841I-81J-493D01*
G01Y121526*
G03X103357Y121176I500J-0*
G01Y114037D02*
G03Y121176I3643J3569D01*
G01Y114037D02*
G03X102500Y113687I-357J-350D01*
G01Y103000*
G03X103000Y102500I500J0*
G01X106386*
G03X106840Y103210I-0J500*
G01X111560D02*
G03X106840I-2360J1090D01*
G01X111560D02*
G03X112014Y102500I454J-210D01*
G01X234500*
G03X235000Y103000I0J500*
G01X226900Y194606D02*
G03X226900I-5100J0D01*
G01X193608Y112798D02*
G03X195438Y115086I2592J-198D01*
G01X193608Y112798D02*
G03X192962Y113314I-499J38D01*
G01X194792Y115602D02*
G03X192962Y113314I-2592J198D01*
G01X194792Y115602D02*
G03X195438Y115086I499J-38D01*
G01X213297Y174053D02*
G03X206446Y180903I-2297J4553D01*
G01X213297Y174053D02*
G03Y173160I225J-447D01*
G01Y164053D02*
G03Y173160I-2297J4553D01*
G01Y164053D02*
G03Y163160I225J-447D01*
G01Y154053D02*
G03Y163160I-2297J4553D01*
G01Y154053D02*
G03Y153160I225J-447D01*
G01X206446Y146310D02*
G03X213297Y153160I4554J2296D01*
G01X206446Y146310D02*
G03X205554I-446J-226D01*
G01X198703Y153160D02*
G03X205554Y146310I2297J-4554D01*
G01X198703Y153160D02*
G03Y154053I-225J446D01*
G01Y163160D02*
G03Y154053I2297J-4554D01*
G01Y163160D02*
G03Y164053I-225J446D01*
G01Y173160D02*
G03Y164053I2297J-4554D01*
G01Y173160D02*
G03Y174053I-225J446D01*
G01X205554Y180903D02*
G03X198703Y174053I-4554J-2297D01*
G01X205554Y180903D02*
G03X206446I446J225D01*
G01X194800Y190400D02*
G03X194800I-2600J0D01*
G01X187000Y115800D02*
G03X187000I-2600J0D01*
G01X185086Y143148D02*
G03X180914I-2086J1552D01*
G01X185086D02*
G03Y142552I401J-298D01*
G01X185021Y139365D02*
G03X185086Y142552I-2021J1635D01*
G01X185021Y139365D02*
G03Y138735I389J-315D01*
G01X184778Y135203D02*
G03X185021Y138735I-1778J1897D01*
G01X184778Y135203D02*
G03X184729Y134525I342J-365D01*
G01X184476Y131001D02*
G03X184729Y134525I-1776J1899D01*
G01X184476Y131001D02*
G03X184508Y130243I341J-365D01*
G01X181124Y130099D02*
G03X184508Y130243I1776J-1899D01*
G01X181124Y130099D02*
G03X181092Y130857I-341J365D01*
G01X180922Y134797D02*
G03X181092Y130857I1778J-1897D01*
G01X180922Y134797D02*
G03X180971Y135475I-342J365D01*
G01X180979Y138735D02*
G03X180971Y135475I2021J-1635D01*
G01X180979Y138735D02*
G03Y139365I-389J315D01*
G01X180914Y142552D02*
G03X180979Y139365I2086J-1552D01*
G01X180914Y142552D02*
G03Y143148I-401J298D01*
G01X175100Y115600D02*
G03X175100I-2600J0D01*
G01X176844Y130865D02*
G03X174305Y131006I-1144J2335D01*
G01X176844Y130865D02*
G03X176795Y129994I219J-449D01*
G01X174256Y130135D02*
G03X176795Y129994I1144J-2335D01*
G01X174256Y130135D02*
G03X174305Y131006I-219J449D01*
G01X178000Y142300D02*
G03X178000I-2600J0D01*
G01X180400Y154500D02*
G03X180400I-2600J0D01*
G01X175600Y159900D02*
G03X175600I-2600J0D01*
G01X179100Y186800D02*
G03X179100I-2600J0D01*
G01X170900Y165300D02*
G03X170900I-2600J0D01*
G01X166620Y188885D02*
G03X167309Y189457I1980J-1685D01*
G01X166620Y188885D02*
G03X165991Y189643I-381J324D01*
G01X166680Y190215D02*
G03X165991Y189643I-1980J1685D01*
G01X166680Y190215D02*
G03X167309Y189457I381J-324D01*
G01X175100Y192200D02*
G03X175100I-2600J0D01*
G01X176661Y202467D02*
G03X176868Y206501I1739J1933D01*
G01X176661Y202467D02*
G03X176032Y202499I-334J-372D01*
G01X172813Y202622D02*
G03X176032Y202499I1687J1978D01*
G01X172813Y202622D02*
G03X172184Y202638I-325J-381D01*
G01X168923Y202713D02*
G03X172184Y202638I1677J1987D01*
G01X168923Y202713D02*
G03X168277I-323J-382D01*
G01X164022Y204366D02*
G03X168277Y202713I2578J334D01*
G01X164022Y204366D02*
G03X163280Y204737I-496J-65D01*
G01X164578Y207334D02*
G03X163280Y204737I-2578J-334D01*
G01X164578Y207334D02*
G03X165320Y206963I496J65D01*
G01X168277Y206687D02*
G03X165320Y206963I-1677J-1987D01*
G01X168277Y206687D02*
G03X168923I323J382D01*
G01X172287Y206678D02*
G03X168923Y206687I-1687J-1978D01*
G01X172287Y206678D02*
G03X172916Y206662I325J381D01*
G01X176239Y206533D02*
G03X172916Y206662I-1739J-1933D01*
G01X176239Y206533D02*
G03X176868Y206501I334J372D01*
G01X151075Y142570D02*
G03X149570Y144075I925J2430D01*
G01X151075Y142570D02*
G03X150430Y141925I-178J-467D01*
G01Y140075D02*
G03Y141925I-2430J925D01*
G01Y140075D02*
G03X151075Y139430I467J-178D01*
G01X149570Y137925D02*
G03X151075Y139430I2430J-925D01*
G01X149570Y137925D02*
G03X148925Y138570I-467J178D01*
G01X147075D02*
G03X148925I925J2430D01*
G01X147075D02*
G03X146430Y137925I-178J-467D01*
G01X144925Y139430D02*
G03X146430Y137925I-925J-2430D01*
G01X144925Y139430D02*
G03X145570Y140075I178J467D01*
G01Y141925D02*
G03Y140075I2430J-925D01*
G01Y141925D02*
G03X144925Y142570I-467J178D01*
G01X146430Y144075D02*
G03X144925Y142570I-2430J925D01*
G01X146430Y144075D02*
G03X147075Y143430I467J-178D01*
G01X148925D02*
G03X147075I-925J-2430D01*
G01X148925D02*
G03X149570Y144075I178J467D01*
G01X148448Y163581D02*
G03X146997Y166994I952J2419D01*
G01X148448Y163581D02*
G03X147803Y163306I-183J-466D01*
G01X146352Y166719D02*
G03X147803Y163306I-952J-2419D01*
G01X146352Y166719D02*
G03X146997Y166994I183J466D01*
G01X153600Y206600D02*
G03X153600I-2600J0D01*
G01X141800Y160200D02*
G03X141800I-2600J0D01*
G01X140100Y195400D02*
G03X140100I-2600J0D01*
G01X145000Y213800D02*
G03X145000I-2600J0D01*
G01X127900Y115900D02*
G03X127900I-2600J0D01*
G01X132600Y152900D02*
G03X132600I-2600J0D01*
G01X127300Y131800D02*
G03X127300I-2600J0D01*
G01X132500Y180100D02*
G03X132500I-2600J0D01*
G01X123060Y144726D02*
G03X120269Y149102I-1260J2274D01*
G01X123060Y144726D02*
G03X122834Y144113I243J-437D01*
G01X119385Y140806D02*
G03X122834Y144113I1015J2394D01*
G01X119385Y140806D02*
G03X118692Y140306I-195J-460D01*
G01X118597Y139376D02*
G03X118692Y140306I-2497J724D01*
G01X118597Y139376D02*
G03X119178Y138747I480J-139D01*
G01X117801Y134424D02*
G03X119178Y138747I1899J1776D01*
G01X117801Y134424D02*
G03X117043Y134392I-365J-341D01*
G01X113330Y134008D02*
G03X117043Y134392I1670J1992D01*
G01X113330Y134008D02*
G03X112652Y133975I-322J-384D01*
G01X112470Y137792D02*
G03X112652Y133975I-1670J-1992D01*
G01X112470Y137792D02*
G03X113148Y137825I322J384D01*
G01X113631Y138210D02*
G03X113148Y137825I1369J-2210D01*
G01X113631Y138210D02*
G03X113808Y138872I-263J425D01*
G01X117115Y142494D02*
G03X113808Y138872I-1015J-2394D01*
G01X117115Y142494D02*
G03X117808Y142994I195J460D01*
G01X119140Y145474D02*
G03X117808Y142994I1260J-2274D01*
G01X119140Y145474D02*
G03X119366Y146087I-243J437D01*
G01X119221Y147331D02*
G03X119366Y146087I2579J-331D01*
G01X119221Y147331D02*
G03X118431Y147798I-496J63D01*
G01X119479Y149569D02*
G03X118431Y147798I-2579J331D01*
G01X119479Y149569D02*
G03X120269Y149102I496J-63D01*
G01X125600Y169106D02*
G03X125600I-5100J0D01*
G01X124500Y192100D02*
G03X124500I-2600J0D01*
G01X116600Y180200D02*
G03X116600I-2600J0D01*
G01X122468Y198781D02*
G03Y200619I2432J919D01*
G01Y198781D02*
G03X121532I-468J-177D01*
G01Y200619D02*
G03Y198781I-2432J-919D01*
G01Y200619D02*
G03X122468I468J177D01*
G01X160179Y113253D02*
G03X158118Y115496I521J2547D01*
G01X160179Y113253D02*
G03X159582Y112704I-100J-490D01*
G01X154487Y111734D02*
G03X159582Y112704I2513J666D01*
G01X154487Y111734D02*
G03X154035Y112105I-484J-128D01*
G01X152810Y112503D02*
G03X154035Y112105I1390J2197D01*
G01X152810Y112503D02*
G03X152117Y112341I-267J-423D01*
G01X148123Y111802D02*
G03X152117Y112341I1777J1898D01*
G01X148123Y111802D02*
G03X147478Y111834I-341J-366D01*
G01X145350Y111359D02*
G03X147478Y111834I550J2541D01*
G01X145350Y111359D02*
G03X144769Y110714I-106J-489D01*
G01X142850Y112441D02*
G03X144769Y110714I-550J-2541D01*
G01X142850Y112441D02*
G03X143431Y113086I106J489D01*
G01X147677Y115798D02*
G03X143431Y113086I-1777J-1898D01*
G01X147677Y115798D02*
G03X148322Y115766I341J366D01*
G01X151290Y115897D02*
G03X148322Y115766I-1390J-2197D01*
G01X151290Y115897D02*
G03X151983Y116059I267J423D01*
G01X156713Y115366D02*
G03X151983Y116059I-2513J-666D01*
G01X156713Y115366D02*
G03X157165Y114995I484J128D01*
G01X157521Y114947D02*
G03X157165Y114995I-521J-2547D01*
G01X157521Y114947D02*
G03X158118Y115496I100J490D01*
G01X161276Y157960D02*
G03X157653Y158634I-1476J2140D01*
G01X161276Y157960D02*
G03X161147Y157266I284J-412D01*
G01X157524Y157940D02*
G03X161147Y157266I1476J-2140D01*
G01X157524Y157940D02*
G03X157653Y158634I-284J412D01*
G01X143119Y216299D02*
X235000D01*
X144450Y215399D02*
X235000D01*
X144904Y214499D02*
X235000D01*
X144992Y213599D02*
X235000D01*
X144755Y212699D02*
X235000D01*
X144060Y211799D02*
X235000D01*
X102500Y210899D02*
X235000D01*
X102500Y209999D02*
X235000D01*
X163535Y209099D02*
X235000D01*
X164307Y208199D02*
X235000D01*
X170683Y207299D02*
X235000D01*
X180063Y206399D02*
X235000D01*
X180756Y205499D02*
X235000D01*
X180992Y204599D02*
X235000D01*
X180904Y203699D02*
X235000D01*
X180448Y202799D02*
X235000D01*
X179110Y201899D02*
X235000D01*
X127152Y200999D02*
X235000D01*
X127469Y200099D02*
X235000D01*
X224018Y199199D02*
X235000D01*
X225318Y198299D02*
X235000D01*
X226068Y197399D02*
X235000D01*
X226536Y196499D02*
X235000D01*
X226803Y195599D02*
X235000D01*
X226899Y194699D02*
X235000D01*
X226836Y193799D02*
X235000D01*
X226606Y192899D02*
X235000D01*
X226183Y191999D02*
X235000D01*
X225502Y191099D02*
X235000D01*
X224366Y190199D02*
X235000D01*
X194555Y189299D02*
X235000D01*
X193860Y188399D02*
X235000D01*
X179004Y187499D02*
X235000D01*
X179092Y186599D02*
X235000D01*
X178855Y185699D02*
X235000D01*
X178160Y184799D02*
X235000D01*
X102500Y183899D02*
X235000D01*
X213592Y182999D02*
X235000D01*
X214717Y182099D02*
X235000D01*
X215392Y181199D02*
X235000D01*
X215811Y180299D02*
X235000D01*
X216038Y179399D02*
X235000D01*
X216099Y178499D02*
X235000D01*
X215999Y177599D02*
X235000D01*
X215730Y176699D02*
X235000D01*
X215258Y175799D02*
X235000D01*
X214502Y174899D02*
X235000D01*
X213212Y173999D02*
X235000D01*
X213414Y173099D02*
X235000D01*
X214620Y172199D02*
X235000D01*
X215331Y171299D02*
X235000D01*
X215775Y170399D02*
X235000D01*
X216021Y169499D02*
X235000D01*
X216100Y168599D02*
X235000D01*
X216019Y167699D02*
X235000D01*
X215769Y166799D02*
X235000D01*
X215322Y165899D02*
X235000D01*
X214605Y164999D02*
X235000D01*
X213386Y164099D02*
X235000D01*
X213232Y163199D02*
X235000D01*
X214518Y162299D02*
X235000D01*
X215268Y161399D02*
X235000D01*
X215736Y160499D02*
X235000D01*
X216003Y159599D02*
X235000D01*
X216099Y158699D02*
X235000D01*
X216036Y157799D02*
X235000D01*
X215806Y156899D02*
X235000D01*
X215383Y155999D02*
X235000D01*
X214702Y155099D02*
X235000D01*
X213566Y154199D02*
X235000D01*
X213128Y153299D02*
X235000D01*
X214410Y152399D02*
X235000D01*
X215201Y151499D02*
X235000D01*
X215695Y150599D02*
X235000D01*
X215982Y149699D02*
X235000D01*
X216096Y148799D02*
X235000D01*
X216051Y147899D02*
X235000D01*
X215840Y146999D02*
X235000D01*
X215441Y146099D02*
X235000D01*
X214795Y145199D02*
X235000D01*
X213730Y144299D02*
X235000D01*
X185251Y143399D02*
X235000D01*
X185125Y142499D02*
X235000D01*
X185530Y141599D02*
X235000D01*
X185583Y140699D02*
X235000D01*
X185306Y139799D02*
X235000D01*
X184933Y138899D02*
X235000D01*
X185440Y137999D02*
X235000D01*
X185600Y137099D02*
X235000D01*
X185439Y136199D02*
X235000D01*
X184875Y135299D02*
X235000D01*
X184825Y134399D02*
X235000D01*
X185230Y133499D02*
X235000D01*
X185283Y132599D02*
X235000D01*
X185006Y131699D02*
X235000D01*
X184345Y130799D02*
X235000D01*
X184868Y129899D02*
X235000D01*
X185374Y128999D02*
X235000D01*
X185498Y128099D02*
X235000D01*
X185299Y127199D02*
X235000D01*
X184673Y126299D02*
X235000D01*
X176397Y125399D02*
X235000D01*
X102500Y124499D02*
X235000D01*
X102500Y123599D02*
X235000D01*
X107279Y122699D02*
X235000D01*
X109904Y121799D02*
X235000D01*
X110895Y120899D02*
X235000D01*
X111504Y119999D02*
X235000D01*
X111877Y119099D02*
X235000D01*
X193203Y118199D02*
X235000D01*
X194325Y117299D02*
X235000D01*
X194730Y116399D02*
X235000D01*
X194795Y115499D02*
X235000D01*
X197863Y114599D02*
X235000D01*
X198556Y113699D02*
X235000D01*
X198792Y112799D02*
X235000D01*
X198704Y111899D02*
X235000D01*
X198248Y110999D02*
X235000D01*
X196910Y110099D02*
X235000D01*
X144804Y109199D02*
X235000D01*
X144348Y108299D02*
X235000D01*
X143010Y107399D02*
X235000D01*
X110588Y106499D02*
X235000D01*
X111452Y105599D02*
X235000D01*
X111769Y104699D02*
X235000D01*
X111751Y103799D02*
X235000D01*
X111525Y102899D02*
X234990D01*
X102541Y217199D02*
X234959D01*
X127451Y199199D02*
X219582D01*
X194792Y190199D02*
X219234D01*
X127090Y198299D02*
X218282D01*
X194704Y191099D02*
X218098D01*
X139163Y197399D02*
X217532D01*
X194250Y191999D02*
X217417D01*
X139856Y196499D02*
X217064D01*
X192919Y192899D02*
X216994D01*
X140092Y195599D02*
X216797D01*
X174550Y193799D02*
X216764D01*
X173219Y194699D02*
X216701D01*
X203592Y182999D02*
X208408D01*
X203730Y144299D02*
X208270D01*
X204717Y182099D02*
X207283D01*
X204795Y145199D02*
X207205D01*
X205392Y181199D02*
X206608D01*
X205441Y146099D02*
X206559D01*
X180106Y153299D02*
X198872D01*
X121940Y173999D02*
X198788D01*
X169831Y163199D02*
X198768D01*
X170606Y164099D02*
X198614D01*
X123673Y173099D02*
X198586D01*
X180383Y154199D02*
X198434D01*
X102500Y182999D02*
X198408D01*
X185569Y144299D02*
X198270D01*
X179331Y152399D02*
X197590D01*
X102500Y174899D02*
X197498D01*
X174003Y162299D02*
X197482D01*
X170883Y164999D02*
X197395D01*
X124556Y172199D02*
X197380D01*
X180330Y155099D02*
X197298D01*
X131563Y182099D02*
X197283D01*
X185552Y145199D02*
X197205D01*
X132190Y151499D02*
X196799D01*
X102500Y175799D02*
X196742D01*
X175125Y161399D02*
X196732D01*
X170830Y165899D02*
X196678D01*
X125105Y171299D02*
X196669D01*
X179925Y155999D02*
X196617D01*
X132256Y181199D02*
X196608D01*
X185192Y146099D02*
X196559D01*
X131210Y150599D02*
X196305D01*
X102500Y176699D02*
X196270D01*
X175530Y160499D02*
X196264D01*
X170425Y166799D02*
X196231D01*
X125434Y170399D02*
X196225D01*
X178803Y156899D02*
X196194D01*
X132492Y180299D02*
X196189D01*
X184215Y146999D02*
X196160D01*
X119492Y149699D02*
X196018D01*
X130610Y177599D02*
X196001D01*
X175583Y159599D02*
X195997D01*
X169303Y167699D02*
X195981D01*
X125585Y169499D02*
X195979D01*
X174531Y157799D02*
X195964D01*
X132404Y179399D02*
X195962D01*
X124240Y147899D02*
X195949D01*
X123677Y148799D02*
X195904D01*
X131948Y178499D02*
X195901D01*
X175306Y158699D02*
X195901D01*
X149483Y168599D02*
X195900D01*
X158210Y110099D02*
X195490D01*
X159190Y110999D02*
X194152D01*
X159551Y111899D02*
X193696D01*
X159580Y112799D02*
X193608D01*
X175004Y192899D02*
X191481D01*
X185403Y118199D02*
X191197D01*
X185931Y113699D02*
X190669D01*
X178550Y188399D02*
X190540D01*
X175092Y191999D02*
X190150D01*
X186525Y117299D02*
X190075D01*
X186706Y114599D02*
X189894D01*
X177219Y189299D02*
X189845D01*
X174855Y191099D02*
X189696D01*
X186930Y116399D02*
X189670D01*
X186983Y115499D02*
X189617D01*
X174160Y190199D02*
X189608D01*
X172583Y118199D02*
X183397D01*
X174273Y113699D02*
X182869D01*
X174468Y117299D02*
X182275D01*
X174899Y114599D02*
X182094D01*
X174974Y116399D02*
X181870D01*
X175098Y115499D02*
X181817D01*
X153663Y146999D02*
X181785D01*
X176742Y130799D02*
X181154D01*
X177523Y126299D02*
X181127D01*
X153776Y138899D02*
X181067D01*
X177235Y135299D02*
X181061D01*
X176935Y129899D02*
X180932D01*
X177992Y142499D02*
X180875D01*
X154356Y146099D02*
X180808D01*
X177756Y143399D02*
X180749D01*
X176110Y139799D02*
X180694D01*
X178007Y134399D02*
X180575D01*
X154473Y136199D02*
X180561D01*
X154401Y137999D02*
X180560D01*
X177930Y127199D02*
X180501D01*
X177904Y141599D02*
X180470D01*
X154592Y145199D02*
X180448D01*
X177063Y144299D02*
X180431D01*
X177707Y128999D02*
X180426D01*
X177448Y140699D02*
X180417D01*
X154598Y137099D02*
X180400D01*
X177823Y131699D02*
X180394D01*
X177983Y128099D02*
X180302D01*
X178283Y133499D02*
X180170D01*
X178230Y132599D02*
X180117D01*
X126288Y201899D02*
X177690D01*
X161356Y156899D02*
X176797D01*
X132551Y152399D02*
X176269D01*
X170135Y189299D02*
X175781D01*
X161592Y155999D02*
X175675D01*
X159710Y153299D02*
X175494D01*
X161504Y155099D02*
X175270D01*
X161048Y154199D02*
X175217D01*
X169597Y184799D02*
X174840D01*
X150407Y139799D02*
X174690D01*
X127099Y130799D02*
X174488D01*
X170907Y188399D02*
X174450D01*
X104210Y125399D02*
X174403D01*
X153966Y135299D02*
X174165D01*
X170723Y185699D02*
X174145D01*
X171183Y187499D02*
X173996D01*
X171130Y186599D02*
X173908D01*
X126473Y129899D02*
X173865D01*
X154504Y144299D02*
X173737D01*
X127298Y131699D02*
X173577D01*
X124783Y134399D02*
X173393D01*
X150583Y140699D02*
X173352D01*
X105548Y126299D02*
X173277D01*
X127174Y132599D02*
X173170D01*
X126668Y133499D02*
X173117D01*
X105856Y128999D02*
X173093D01*
X154048Y143399D02*
X173044D01*
X150530Y141599D02*
X172896D01*
X106004Y127199D02*
X172870D01*
X106092Y128099D02*
X172817D01*
X152710Y142499D02*
X172808D01*
X161703Y118199D02*
X172417D01*
X161188Y162299D02*
X171997D01*
X140004Y194699D02*
X171781D01*
X161127Y157799D02*
X171469D01*
X162052Y161399D02*
X170875D01*
X166667Y190199D02*
X170840D01*
X162231Y113699D02*
X170727D01*
X161990Y158699D02*
X170694D01*
X162825Y117299D02*
X170532D01*
X166683Y207299D02*
X170517D01*
X162369Y160499D02*
X170470D01*
X166476Y193799D02*
X170450D01*
X162351Y159599D02*
X170417D01*
X167173Y191099D02*
X170145D01*
X163006Y114599D02*
X170101D01*
X163230Y116399D02*
X170026D01*
X167101Y192899D02*
X169996D01*
X167298Y191999D02*
X169908D01*
X163283Y115499D02*
X169902D01*
X168422Y202799D02*
X168778D01*
X102500Y184799D02*
X167603D01*
X151368Y167699D02*
X167297D01*
X147755Y163199D02*
X166769D01*
X102500Y189299D02*
X166731D01*
X164584Y207299D02*
X166517D01*
X102500Y185699D02*
X166477D01*
X102500Y188399D02*
X166293D01*
X151874Y166799D02*
X166175D01*
X102500Y186599D02*
X166070D01*
X102500Y187499D02*
X166017D01*
X151173Y164099D02*
X165994D01*
X151998Y165899D02*
X165770D01*
X151799Y164999D02*
X165717D01*
X102500Y202799D02*
X164827D01*
X102500Y203699D02*
X164201D01*
X162997Y204599D02*
X163928D01*
X139548Y193799D02*
X162924D01*
X123673Y190199D02*
X162734D01*
X138210Y192899D02*
X162299D01*
X124299Y191099D02*
X162227D01*
X124498Y191999D02*
X162102D01*
X152660Y204599D02*
X161003D01*
X151719Y209099D02*
X160465D01*
X153355Y205499D02*
X159877D01*
X126515Y118199D02*
X159697D01*
X153050Y208199D02*
X159693D01*
X153592Y206399D02*
X159470D01*
X153504Y207299D02*
X159417D01*
X154283Y117299D02*
X158575D01*
X147060Y162299D02*
X158412D01*
X132569Y153299D02*
X158290D01*
X156168Y116399D02*
X158170D01*
X156674Y115499D02*
X158117D01*
X141323Y158699D02*
X157610D01*
X141507Y161399D02*
X157548D01*
X140197Y157799D02*
X157337D01*
X141730Y159599D02*
X157249D01*
X141783Y160499D02*
X157231D01*
X132252Y154199D02*
X156952D01*
X102500Y156899D02*
X156644D01*
X131388Y155099D02*
X156496D01*
X102500Y155999D02*
X156408D01*
X144892Y110099D02*
X155790D01*
X144761Y110999D02*
X154810D01*
X151775Y111899D02*
X154409D01*
X127492Y117299D02*
X154117D01*
X146619Y116399D02*
X152232D01*
X150592Y142499D02*
X151290D01*
X145663Y146999D02*
X150337D01*
X102500Y209099D02*
X150281D01*
X145966Y135299D02*
X150034D01*
X146356Y146099D02*
X149644D01*
X146408Y137999D02*
X149592D01*
X146473Y136199D02*
X149527D01*
X146504Y144299D02*
X149496D01*
X146592Y145199D02*
X149408D01*
X146598Y137099D02*
X149402D01*
X102500Y204599D02*
X149340D01*
X125575Y168599D02*
X149317D01*
X149065Y143399D02*
X149141D01*
X102500Y208199D02*
X148950D01*
X102500Y205499D02*
X148645D01*
X102500Y207299D02*
X148496D01*
X102500Y206399D02*
X148408D01*
X147591Y111899D02*
X147973D01*
X125402Y167699D02*
X147432D01*
X146859Y143399D02*
X146935D01*
X146119Y166799D02*
X146853D01*
X118683Y139799D02*
X145593D01*
X122448Y141599D02*
X145470D01*
X121110Y140699D02*
X145417D01*
X144710Y142499D02*
X145408D01*
X127852Y116399D02*
X145181D01*
X125048Y166799D02*
X144681D01*
X127869Y115499D02*
X143850D01*
X140735Y162299D02*
X143740D01*
X108702Y112799D02*
X143438D01*
X127551Y114599D02*
X143396D01*
X124465Y165899D02*
X143350D01*
X126684Y113699D02*
X143308D01*
X122904Y142499D02*
X143290D01*
X102500Y163199D02*
X143045D01*
X123523Y164999D02*
X142896D01*
X121466Y164099D02*
X142808D01*
X124400Y146999D02*
X142337D01*
X118709Y138899D02*
X142224D01*
X122139Y135299D02*
X142034D01*
X122992Y143399D02*
X141952D01*
X102500Y216299D02*
X141681D01*
X124239Y146099D02*
X141644D01*
X121577Y137999D02*
X141599D01*
X102500Y107399D02*
X141590D01*
X122300Y136199D02*
X141527D01*
X122803Y144299D02*
X141496D01*
X123675Y145199D02*
X141408D01*
X122140Y137099D02*
X141402D01*
X102500Y211799D02*
X140740D01*
X102500Y111899D02*
X140637D01*
X102500Y215399D02*
X140350D01*
X102500Y108299D02*
X140252D01*
X102500Y212699D02*
X140045D01*
X102500Y110999D02*
X139944D01*
X102500Y214499D02*
X139896D01*
X102500Y213599D02*
X139808D01*
X102500Y109199D02*
X139796D01*
X102500Y110099D02*
X139708D01*
X102500Y157799D02*
X138203D01*
X102500Y162299D02*
X137665D01*
X102500Y158699D02*
X137077D01*
X102500Y161399D02*
X136893D01*
X124374Y192899D02*
X136790D01*
X102500Y159599D02*
X136670D01*
X102500Y160499D02*
X136617D01*
X126110Y197399D02*
X135837D01*
X123868Y193799D02*
X135452D01*
X108207Y196499D02*
X135144D01*
X121983Y194699D02*
X134996D01*
X108483Y195599D02*
X134908D01*
X102500Y177599D02*
X129190D01*
X119404Y150599D02*
X128790D01*
X102500Y155099D02*
X128612D01*
X115776Y182099D02*
X128237D01*
X115966Y178499D02*
X127852D01*
X118950Y151499D02*
X127810D01*
X102500Y154199D02*
X127748D01*
X116401Y181199D02*
X127544D01*
X117619Y152399D02*
X127449D01*
X102500Y153299D02*
X127431D01*
X116473Y179399D02*
X127396D01*
X116598Y180299D02*
X127308D01*
X121575Y134399D02*
X124617D01*
X112065Y118199D02*
X124085D01*
X110277Y113699D02*
X123916D01*
X120310Y197399D02*
X123690D01*
X120488Y201899D02*
X123512D01*
X112091Y117299D02*
X123108D01*
X111119Y114599D02*
X123049D01*
X105369Y129899D02*
X122927D01*
X111955Y116399D02*
X122748D01*
X115710Y133499D02*
X122732D01*
X111644Y115499D02*
X122731D01*
X121290Y198299D02*
X122710D01*
X121352Y200999D02*
X122648D01*
X105855Y130799D02*
X122301D01*
X106004Y132599D02*
X122226D01*
X106092Y131699D02*
X122102D01*
X108430Y194699D02*
X121817D01*
X102500Y190199D02*
X120127D01*
X108023Y193799D02*
X119932D01*
X118836Y140699D02*
X119690D01*
X102500Y164099D02*
X119534D01*
X102500Y191099D02*
X119501D01*
X106897Y192899D02*
X119426D01*
X102500Y146099D02*
X119361D01*
X102500Y191999D02*
X119302D01*
X102500Y146999D02*
X119200D01*
X102500Y173999D02*
X119060D01*
X102500Y145199D02*
X118737D01*
X102500Y144299D02*
X118044D01*
X107435Y197399D02*
X117890D01*
X117049Y134399D02*
X117825D01*
X102500Y143399D02*
X117808D01*
X102500Y201899D02*
X117712D01*
X117103Y142499D02*
X117516D01*
X102500Y164999D02*
X117477D01*
X102500Y173099D02*
X117327D01*
X102500Y198299D02*
X116910D01*
X102500Y200999D02*
X116848D01*
X102500Y199199D02*
X116549D01*
X102500Y165899D02*
X116535D01*
X102500Y200099D02*
X116531D01*
X102500Y172199D02*
X116444D01*
X102500Y152399D02*
X116181D01*
X102500Y166799D02*
X115952D01*
X102500Y171299D02*
X115895D01*
X102500Y167699D02*
X115598D01*
X102500Y170399D02*
X115566D01*
X102500Y168599D02*
X115425D01*
X102500Y169499D02*
X115415D01*
X102500Y147899D02*
X115240D01*
X102500Y142499D02*
X115097D01*
X102500Y151499D02*
X114850D01*
X102500Y148799D02*
X114545D01*
X102500Y150599D02*
X114396D01*
X102500Y149699D02*
X114308D01*
X112010Y133499D02*
X114290D01*
X102500Y141599D02*
X113975D01*
X102500Y138899D02*
X113794D01*
X102500Y140699D02*
X113570D01*
X102500Y139799D02*
X113517D01*
X112188Y137999D02*
X113337D01*
X102500Y182099D02*
X112224D01*
X102500Y178499D02*
X112034D01*
X102500Y181199D02*
X111599D01*
X102500Y179399D02*
X111527D01*
X102500Y180299D02*
X111402D01*
X105550Y133499D02*
X109590D01*
X102500Y137999D02*
X109412D01*
X104219Y134399D02*
X108610D01*
X102500Y137099D02*
X108548D01*
X102500Y135299D02*
X108249D01*
X102500Y136199D02*
X108231D01*
X102500Y106499D02*
X107812D01*
X102500Y105599D02*
X106948D01*
X102510Y102899D02*
X106875D01*
X102500Y122699D02*
X106721D01*
X102500Y103799D02*
X106649D01*
X102500Y104699D02*
X106631D01*
X102500Y112799D02*
X105298D01*
X102500Y192899D02*
X104903D01*
X102500Y197399D02*
X104365D01*
X102500Y121799D02*
X104096D01*
X102500Y193799D02*
X103777D01*
X102500Y113699D02*
X103723D01*
X102500Y196499D02*
X103593D01*
X102924Y194699D02*
X103076D01*
X100000Y100000D02*
X238000D01*
Y220000*
X100000*
Y100000*
G54D20*
X225406Y198213D02*
X224628Y197435D01*
X218194Y198213D02*
X218972Y197435D01*
X218194Y191000D02*
X218972Y191778D01*
X225406Y191000D02*
X224628Y191778D01*
X163838Y208838D02*
X163061Y208061D01*
X160162Y208838D02*
X160939Y208061D01*
X160162Y205162D02*
X160939Y205939D01*
X163838Y205162D02*
X163061Y205939D01*
X139338Y197238D02*
X138561Y196461D01*
X135662Y197238D02*
X136439Y196461D01*
X135662Y193562D02*
X136439Y194339D01*
X139338Y193562D02*
X138561Y194339D01*
X131738Y181938D02*
X130961Y181161D01*
X128062Y181938D02*
X128839Y181161D01*
X128062Y178262D02*
X128839Y179039D01*
X131738Y178262D02*
X130961Y179039D01*
X141038Y162038D02*
X140261Y161261D01*
X137362Y162038D02*
X138139Y161261D01*
X137362Y158362D02*
X138139Y159139D01*
X141038Y158362D02*
X140261Y159139D01*
X127138Y117738D02*
X126361Y116961D01*
X123462Y117738D02*
X124239Y116961D01*
X123462Y114062D02*
X124239Y114839D01*
X127138Y114062D02*
X126361Y114839D01*
X105338Y129738D02*
X104561Y128961D01*
X105338Y126062D02*
X104561Y126839D01*
X105338Y133738D02*
X104561Y132961D01*
X105338Y130062D02*
X104561Y130839D01*
X121538Y138038D02*
X120761Y137261D01*
X117862Y134362D02*
X118639Y135139D01*
X121538Y134362D02*
X120761Y135139D01*
X145838Y146838D02*
X145061Y146061D01*
X142162Y146838D02*
X142939Y146061D01*
X142162Y143162D02*
X142939Y143939D01*
X161638Y161938D02*
X160861Y161161D01*
X157962Y161938D02*
X158739Y161161D01*
X157962Y158262D02*
X158739Y159039D01*
X161638Y158262D02*
X160861Y159039D01*
X198038Y114438D02*
X197261Y113661D01*
X194362Y110762D02*
X195139Y111539D01*
X198038Y110762D02*
X197261Y111539D01*
X194038Y117638D02*
X193261Y116861D01*
X190362Y117638D02*
X191139Y116861D01*
X190362Y113962D02*
X191139Y114739D01*
X184738Y130038D02*
X183961Y129261D01*
X181062Y130038D02*
X181839Y129261D01*
X181062Y126362D02*
X181839Y127139D01*
X184738Y126362D02*
X183961Y127139D01*
X162538Y117638D02*
X161761Y116861D01*
X158862Y117638D02*
X159639Y116861D01*
X162538Y113962D02*
X161761Y114739D01*
X155162Y110562D02*
X155939Y111339D01*
X158838Y110562D02*
X158061Y111339D01*
X151738Y115538D02*
X150961Y114761D01*
X148062Y115538D02*
X148839Y114761D01*
X148062Y111862D02*
X148839Y112639D01*
X151738Y111862D02*
X150961Y112639D01*
X147738Y115738D02*
X146961Y114961D01*
X144062Y115738D02*
X144839Y114961D01*
X147738Y112062D02*
X146961Y112839D01*
X142162Y138838D02*
X142939Y138061D01*
X142162Y135162D02*
X142939Y135939D01*
X145838Y135162D02*
X145061Y135939D01*
X153838Y138838D02*
X153061Y138061D01*
X150162Y135162D02*
X150939Y135939D01*
X153838Y135162D02*
X153061Y135939D01*
X153838Y146838D02*
X153061Y146061D01*
X150162Y146838D02*
X150939Y146061D01*
X153838Y143162D02*
X153061Y143939D01*
X115838Y182038D02*
X115061Y181261D01*
X112162Y182038D02*
X112939Y181261D01*
X112162Y178362D02*
X112939Y179139D01*
X115838Y178362D02*
X115061Y179139D01*
X140462Y111738D02*
X141239Y110961D01*
X140462Y108062D02*
X141239Y108839D01*
X144138Y108062D02*
X143361Y108839D01*
X118738Y151738D02*
X117961Y150961D01*
X115062Y151738D02*
X115839Y150961D01*
X115062Y148062D02*
X115839Y148839D01*
X118738Y148062D02*
X117961Y148839D01*
X118562Y145038D02*
X119339Y144261D01*
X122238Y141362D02*
X121461Y142139D01*
X184538Y134738D02*
X183761Y133961D01*
X180862Y134738D02*
X181639Y133961D01*
X180862Y131062D02*
X181639Y131839D01*
X184538Y131062D02*
X183761Y131839D01*
X184838Y138938D02*
X184061Y138161D01*
X181162Y138938D02*
X181939Y138161D01*
X181162Y135262D02*
X181939Y136039D01*
X184838Y135262D02*
X184061Y136039D01*
X184838Y142838D02*
X184061Y142061D01*
X181162Y142838D02*
X181939Y142061D01*
X181162Y139162D02*
X181939Y139939D01*
X184838Y139162D02*
X184061Y139939D01*
X151238Y167838D02*
X150461Y167061D01*
X147562Y167838D02*
X148339Y167061D01*
X151238Y164162D02*
X150461Y164939D01*
X179638Y156338D02*
X178861Y155561D01*
X175962Y156338D02*
X176739Y155561D01*
X175962Y152662D02*
X176739Y153439D01*
X179638Y152662D02*
X178861Y153439D01*
X174838Y161738D02*
X174061Y160961D01*
X171162Y161738D02*
X171939Y160961D01*
X171162Y158062D02*
X171939Y158839D01*
X174838Y158062D02*
X174061Y158839D01*
X184838Y146538D02*
X184061Y145761D01*
X181162Y146538D02*
X181939Y145761D01*
X181162Y142862D02*
X181939Y143639D01*
X184838Y142862D02*
X184061Y143639D01*
X111038Y106138D02*
X110261Y105361D01*
X107362Y106138D02*
X108139Y105361D01*
X170138Y167138D02*
X169361Y166361D01*
X166462Y167138D02*
X167239Y166361D01*
X166462Y163462D02*
X167239Y164239D01*
X170138Y163462D02*
X169361Y164239D01*
X194038Y192238D02*
X193261Y191461D01*
X190362Y192238D02*
X191139Y191461D01*
X190362Y188562D02*
X191139Y189339D01*
X194038Y188562D02*
X193261Y189339D01*
X186238Y117638D02*
X185461Y116861D01*
X182562Y117638D02*
X183339Y116861D01*
X182562Y113962D02*
X183339Y114739D01*
X186238Y113962D02*
X185461Y114739D01*
X174338Y117438D02*
X173561Y116661D01*
X170662Y117438D02*
X171439Y116661D01*
X170662Y113762D02*
X171439Y114539D01*
X174338Y113762D02*
X173561Y114539D01*
X107738Y197138D02*
X106961Y196361D01*
X104062Y197138D02*
X104839Y196361D01*
X104062Y193462D02*
X104839Y194239D01*
X107738Y193462D02*
X106961Y194239D01*
X123738Y193938D02*
X122961Y193161D01*
X120062Y193938D02*
X120839Y193161D01*
X120062Y190262D02*
X120839Y191039D01*
X123738Y190262D02*
X122961Y191039D01*
X114262Y141938D02*
X115039Y141161D01*
G54D115*
X110800Y135800D03*
X115000Y136000D03*
X124700Y131800D03*
X119700Y136200D03*
X103500Y131900D03*
Y127900D03*
X109200Y104300D03*
X125300Y115900D03*
X154200Y114700D03*
X175400Y127800D03*
X175700Y133200D03*
X183000Y137100D03*
X182700Y132900D03*
X182900Y128200D03*
X149900Y113700D03*
X145900Y113900D03*
X142300Y109900D03*
X196200Y112600D03*
X192200Y115800D03*
X184400D03*
X172500Y115600D03*
X160700Y115800D03*
X157000Y112400D03*
X152000Y137000D03*
X144000D03*
X130000Y152900D03*
X121800Y147000D03*
X124900Y199700D03*
X119100D03*
X116900Y149900D03*
X120400Y143200D03*
X116100Y140100D03*
X137500Y195400D03*
X105900Y195300D03*
X139200Y160200D03*
X129900Y180100D03*
X114000Y180200D03*
X121900Y192100D03*
X170600Y204700D03*
X178400Y204400D03*
X172500Y192200D03*
X168600Y187200D03*
X176500Y186800D03*
X174500Y204600D03*
X166600Y204700D03*
X164700Y191900D03*
X175400Y142300D03*
X145400Y164300D03*
X159000Y155800D03*
X183000Y144700D03*
Y141000D03*
X149400Y166000D03*
X173000Y159900D03*
X177800Y154500D03*
X168300Y165300D03*
X192200Y190400D03*
X162000Y207000D03*
X148000Y141000D03*
X152000Y145000D03*
X144000D03*
X159800Y160100D03*
X142400Y213800D03*
X151000Y206600D03*
G74*
X0Y0D02*
M02*
