*
*
G04 PADS 9.5 Build Number: 522968 generated Gerber (RS-274-X) file*
G04 PC Version=2.1*
*
%IN "Data_TRX_v1_working.pcb"*%
*
%MOIN*%
*
%FSLAX35Y35*%
*
*
*
*
G04 PC Standard Apertures*
*
*
G04 Thermal Relief Aperture macro.*
%AMTER*
1,1,$1,0,0*
1,0,$1-$2,0,0*
21,0,$3,$4,0,0,45*
21,0,$3,$4,0,0,135*
%
*
*
G04 Annular Aperture macro.*
%AMANN*
1,1,$1,0,0*
1,0,$2,0,0*
%
*
*
G04 Odd Aperture macro.*
%AMODD*
1,1,$1,0,0*
1,0,$1-0.005,0,0*
%
*
*
G04 PC Custom Aperture Macros*
*
*
*
*
*
*
G04 PC Aperture Table*
*
%ADD010C,0.001*%
%ADD013C,0.01*%
%ADD020C,0.009*%
%ADD115C,0.03*%
*
*
*
*
G04 PC Circuitry*
G04 Layer Name Data_TRX_v1_working.pcb - circuitry*
%LPD*%
*
*
G04 PC Custom Flashes*
G04 Layer Name Data_TRX_v1_working.pcb - flashes*
%LPD*%
*
*
G04 PC Circuitry*
G04 Layer Name Data_TRX_v1_working.pcb - circuitry*
%LPD*%
*
G54D10*
G54D13*
G01X175100Y115600D02*
G75*
G03X175100I-2600J0D01*
G01X178000Y142300D02*
G03X178000I-2600J0D01*
G01X175600Y159900D02*
G03X175600I-2600J0D01*
G01X170900Y165300D02*
G03X170900I-2600J0D01*
G01X141800Y160200D02*
G03X141800I-2600J0D01*
G01X127900Y115900D02*
G03X127900I-2600J0D01*
G01X132600Y152900D02*
G03X132600I-2600J0D01*
G01X127300Y131800D02*
G03X127300I-2600J0D01*
G01X132500Y180100D02*
G03X132500I-2600J0D01*
G01X125600Y169106D02*
G03X125600I-5100J0D01*
G01X116600Y180200D02*
G03X116600I-2600J0D01*
G01X226900Y194606D02*
G03X226900I-5100J0D01*
G01X194800Y190400D02*
G03X194800I-2600J0D01*
G01X153600Y206600D02*
G03X153600I-2600J0D01*
G01X145000Y213800D02*
G03X145000I-2600J0D01*
G01X180000Y187581D02*
Y190000D01*
G03X179500Y190500I-500J0*
G01X174684*
G03X174332Y190355I0J-500*
G01X170668D02*
G03X174332I1832J1845D01*
G01X170668D02*
G03X170316Y190500I-352J-355D01*
G01X169930*
G03X169716Y189548I0J-500*
G01X166620Y188885D02*
G03X169716Y189548I1980J-1685D01*
G01X166620Y188885D02*
G03X165991Y189643I-381J324D01*
G01X162646Y190306D02*
G03X165991Y189643I2054J1594D01*
G01X162646Y190306D02*
G03X162250Y190500I-396J-306D01*
G01X124180*
G03X123813Y190339I0J-500*
G01X119987D02*
G03X123813I1913J1761D01*
G01X119987D02*
G03X119620Y190500I-367J-339D01*
G01X108500*
G03X108000Y190000I0J-500*
G01Y137878*
G03X108871Y137543I500J0*
G01X112470Y137792D02*
G03X108871Y137543I-1670J-1992D01*
G01X112470Y137792D02*
G03X113148Y137825I322J384D01*
G01X113631Y138210D02*
G03X113148Y137825I1369J-2210D01*
G01X113631Y138210D02*
G03X113808Y138872I-263J425D01*
G01X117115Y142494D02*
G03X113808Y138872I-1015J-2394D01*
G01X117115Y142494D02*
G03X117808Y142994I195J460D01*
G01X119140Y145474D02*
G03X117808Y142994I1260J-2274D01*
G01X119140Y145474D02*
G03X119366Y146087I-243J437D01*
G01X119221Y147331D02*
G03X119366Y146087I2579J-331D01*
G01X119221Y147331D02*
G03X118431Y147798I-496J63D01*
G01X119479Y149569D02*
G03X118431Y147798I-2579J331D01*
G01X119479Y149569D02*
G03X120269Y149102I496J-63D01*
G01X123060Y144726D02*
G03X120269Y149102I-1260J2274D01*
G01X123060Y144726D02*
G03X122834Y144113I243J-437D01*
G01X119385Y140806D02*
G03X122834Y144113I1015J2394D01*
G01X119385Y140806D02*
G03X118692Y140306I-195J-460D01*
G01X118597Y139376D02*
G03X118692Y140306I-2497J724D01*
G01X118597Y139376D02*
G03X119178Y138747I480J-139D01*
G01X117801Y134424D02*
G03X119178Y138747I1899J1776D01*
G01X117801Y134424D02*
G03X117043Y134392I-365J-341D01*
G01X113330Y134008D02*
G03X117043Y134392I1670J1992D01*
G01X113330Y134008D02*
G03X112652Y133975I-322J-384D01*
G01X108871Y134057D02*
G03X112652Y133975I1929J1743D01*
G01X108871Y134057D02*
G03X108000Y133722I-371J-335D01*
G01Y123002*
G03X108366Y122520I500J-0*
G01Y112693D02*
G03Y122520I-1366J4913D01*
G01Y112693D02*
G03X108000Y112211I134J-482D01*
G01Y107320*
G03X108613Y106833I500J-0*
G01X111795Y104468D02*
G03X108613Y106833I-2595J-168D01*
G01X111795Y104468D02*
G03X112294Y104000I499J32D01*
G01X179500*
G03X180000Y104500I0J500*
G01Y151908*
G03X179226Y152326I-500J-0*
G01Y156674D02*
G03Y152326I-1426J-2174D01*
G01Y156674D02*
G03X180000Y157092I274J418D01*
G01Y186019*
G03X179016Y186145I-500J-0*
G01Y187455D02*
G03Y186145I-2516J-655D01*
G01Y187455D02*
G03X180000Y187581I484J126D01*
G01X167484Y189548D02*
G03X167270Y190500I-214J452D01*
G01X167150*
G03X166754Y190306I-0J-500*
G01X166680Y190215D02*
G03X166754Y190306I-1980J1685D01*
G01X166680Y190215D02*
G03X167309Y189457I381J-324D01*
G01X167484Y189548D02*
G03X167309Y189457I1116J-2348D01*
G01X235500Y103000D02*
Y217000D01*
G03X235000Y217500I-500J-0*
G01X103000*
G03X102500Y217000I0J-500*
G01Y196396*
G03X103468Y196219I500J-0*
G01Y194381D02*
G03Y196219I2432J919D01*
G01Y194381D02*
G03X102500Y194204I-468J-177D01*
G01Y134959*
G03X103081Y134466I500J0*
G01X105513Y133546D02*
G03X103081Y134466I-2013J-1646D01*
G01X105513Y133546D02*
G03X106400Y133862I387J316D01*
G01Y190500*
X108000Y192100D02*
G03X106400Y190500I0J-1600D01*
G01X108000Y192100D02*
X118841D01*
G03X119334Y192519I-0J500*
G01X124466D02*
G03X119334I-2566J-419D01*
G01X124466D02*
G03X124959Y192100I493J81D01*
G01X136169*
G03X136384Y193052I0J500*
G01X138616D02*
G03X136384I-1116J2348D01*
G01X138616D02*
G03X138831Y192100I215J-452D01*
G01X161680*
G03X162167Y192487I0J500*
G01X167233D02*
G03X162167I-2533J-587D01*
G01X167233D02*
G03X167720Y192100I487J113D01*
G01X169426*
G03X169922Y192536I-0J500*
G01X175078Y192535D02*
G03X169922I-2578J-335D01*
G01X175078Y192536D02*
G03X175574Y192100I496J64D01*
G01X180000*
X181600Y190500D02*
G03X180000Y192100I-1600J0D01*
G01X181600Y190500D02*
Y147667D01*
G03X182245Y147188I500J-0*
G01X185086Y143148D02*
G03X182245Y147188I-2086J1552D01*
G01X185086Y143148D02*
G03Y142552I401J-298D01*
G01X185021Y139365D02*
G03X185086Y142552I-2021J1635D01*
G01X185021Y139365D02*
G03Y138735I389J-315D01*
G01X184778Y135203D02*
G03X185021Y138735I-1778J1897D01*
G01X184778Y135203D02*
G03X184729Y134525I342J-365D01*
G01X184476Y131001D02*
G03X184729Y134525I-1776J1899D01*
G01X184476Y131001D02*
G03X184508Y130243I341J-365D01*
G01X182229Y125688D02*
G03X184508Y130243I671J2512D01*
G01X182229Y125688D02*
G03X181600Y125205I-129J-483D01*
G01Y117879*
G03X182471Y117543I500J-0*
G01Y114057D02*
G03Y117543I1929J1743D01*
G01Y114057D02*
G03X181600Y113721I-371J-336D01*
G01Y104000*
X181407Y103238D02*
G03X181600Y104000I-1407J762D01*
G01X181407Y103238D02*
G03X181847Y102500I440J-238D01*
G01X235000*
G03X235500Y103000I-0J500*
G01X106400Y123097D02*
Y125938D01*
G03X105513Y126254I-500J-0*
G01X103081Y125334D02*
G03X105513Y126254I419J2566D01*
G01X103081Y125334D02*
G03X102500Y124841I-81J-493D01*
G01Y121526*
G03X103357Y121176I500J-0*
G01X105998Y122607D02*
G03X103357Y121176I1002J-5001D01*
G01X105998Y122607D02*
G03X106400Y123097I-98J490D01*
G01Y129862D02*
Y129938D01*
G03X105513Y130254I-500J-0*
G01X105487Y130223D02*
G03X105513Y130254I-1987J1677D01*
G01X105487Y130223D02*
G03Y129577I382J-323D01*
G01X105513Y129546D02*
G03X105487Y129577I-2013J-1646D01*
G01X105513Y129546D02*
G03X106400Y129862I387J316D01*
G01X175100Y115600D02*
G03X175100I-2600J0D01*
G01X176844Y130865D02*
G03X174305Y131006I-1144J2335D01*
G01X176844Y130865D02*
G03X176795Y129994I219J-449D01*
G01X174256Y130135D02*
G03X176795Y129994I1144J-2335D01*
G01X174256Y130135D02*
G03X174305Y131006I-219J449D01*
G01X178000Y142300D02*
G03X178000I-2600J0D01*
G01X175600Y159900D02*
G03X175600I-2600J0D01*
G01X170900Y165300D02*
G03X170900I-2600J0D01*
G01X160179Y113253D02*
G03X158118Y115496I521J2547D01*
G01X160179Y113253D02*
G03X159582Y112704I-100J-490D01*
G01X154487Y111734D02*
G03X159582Y112704I2513J666D01*
G01X154487Y111734D02*
G03X154035Y112105I-484J-128D01*
G01X152810Y112503D02*
G03X154035Y112105I1390J2197D01*
G01X152810Y112503D02*
G03X152117Y112341I-267J-423D01*
G01X148123Y111802D02*
G03X152117Y112341I1777J1898D01*
G01X148123Y111802D02*
G03X147478Y111834I-341J-366D01*
G01X145350Y111359D02*
G03X147478Y111834I550J2541D01*
G01X145350Y111359D02*
G03X144769Y110714I-106J-489D01*
G01X142850Y112441D02*
G03X144769Y110714I-550J-2541D01*
G01X142850Y112441D02*
G03X143431Y113086I106J489D01*
G01X147677Y115798D02*
G03X143431Y113086I-1777J-1898D01*
G01X147677Y115798D02*
G03X148322Y115766I341J366D01*
G01X151290Y115897D02*
G03X148322Y115766I-1390J-2197D01*
G01X151290Y115897D02*
G03X151983Y116059I267J423D01*
G01X156713Y115366D02*
G03X151983Y116059I-2513J-666D01*
G01X156713Y115366D02*
G03X157165Y114995I484J128D01*
G01X157521Y114947D02*
G03X157165Y114995I-521J-2547D01*
G01X157521Y114947D02*
G03X158118Y115496I100J490D01*
G01X161276Y157960D02*
G03X157653Y158634I-1476J2140D01*
G01X161276Y157960D02*
G03X161147Y157266I284J-412D01*
G01X157524Y157940D02*
G03X161147Y157266I1476J-2140D01*
G01X157524Y157940D02*
G03X157653Y158634I-284J412D01*
G01X151075Y142570D02*
G03X149570Y144075I925J2430D01*
G01X151075Y142570D02*
G03X150430Y141925I-178J-467D01*
G01Y140075D02*
G03Y141925I-2430J925D01*
G01Y140075D02*
G03X151075Y139430I467J-178D01*
G01X149570Y137925D02*
G03X151075Y139430I2430J-925D01*
G01X149570Y137925D02*
G03X148925Y138570I-467J178D01*
G01X147075D02*
G03X148925I925J2430D01*
G01X147075D02*
G03X146430Y137925I-178J-467D01*
G01X144925Y139430D02*
G03X146430Y137925I-925J-2430D01*
G01X144925Y139430D02*
G03X145570Y140075I178J467D01*
G01Y141925D02*
G03Y140075I2430J-925D01*
G01Y141925D02*
G03X144925Y142570I-467J178D01*
G01X146430Y144075D02*
G03X144925Y142570I-2430J925D01*
G01X146430Y144075D02*
G03X147075Y143430I467J-178D01*
G01X148925D02*
G03X147075I-925J-2430D01*
G01X148925D02*
G03X149570Y144075I178J467D01*
G01X148448Y163581D02*
G03X146997Y166994I952J2419D01*
G01X148448Y163581D02*
G03X147803Y163306I-183J-466D01*
G01X146352Y166719D02*
G03X147803Y163306I-952J-2419D01*
G01X146352Y166719D02*
G03X146997Y166994I183J466D01*
G01X141800Y160200D02*
G03X141800I-2600J0D01*
G01X127900Y115900D02*
G03X127900I-2600J0D01*
G01X132600Y152900D02*
G03X132600I-2600J0D01*
G01X127300Y131800D02*
G03X127300I-2600J0D01*
G01X132500Y180100D02*
G03X132500I-2600J0D01*
G01X125600Y169106D02*
G03X125600I-5100J0D01*
G01X116600Y180200D02*
G03X116600I-2600J0D01*
G01X226900Y194606D02*
G03X226900I-5100J0D01*
G01X193608Y112798D02*
G03X195438Y115086I2592J-198D01*
G01X193608Y112798D02*
G03X192962Y113314I-499J38D01*
G01X194792Y115602D02*
G03X192962Y113314I-2592J198D01*
G01X194792Y115602D02*
G03X195438Y115086I499J-38D01*
G01X213297Y174053D02*
G03X206446Y180903I-2297J4553D01*
G01X213297Y174053D02*
G03Y173160I225J-447D01*
G01Y164053D02*
G03Y173160I-2297J4553D01*
G01Y164053D02*
G03Y163160I225J-447D01*
G01Y154053D02*
G03Y163160I-2297J4553D01*
G01Y154053D02*
G03Y153160I225J-447D01*
G01X206446Y146310D02*
G03X213297Y153160I4554J2296D01*
G01X206446Y146310D02*
G03X205554I-446J-226D01*
G01X198703Y153160D02*
G03X205554Y146310I2297J-4554D01*
G01X198703Y153160D02*
G03Y154053I-225J446D01*
G01Y163160D02*
G03Y154053I2297J-4554D01*
G01Y163160D02*
G03Y164053I-225J446D01*
G01Y173160D02*
G03Y164053I2297J-4554D01*
G01Y173160D02*
G03Y174053I-225J446D01*
G01X205554Y180903D02*
G03X198703Y174053I-4554J-2297D01*
G01X205554Y180903D02*
G03X206446I446J225D01*
G01X194800Y190400D02*
G03X194800I-2600J0D01*
G01X176661Y202467D02*
G03X176868Y206501I1739J1933D01*
G01X176661Y202467D02*
G03X176032Y202499I-334J-372D01*
G01X172813Y202622D02*
G03X176032Y202499I1687J1978D01*
G01X172813Y202622D02*
G03X172184Y202638I-325J-381D01*
G01X168923Y202713D02*
G03X172184Y202638I1677J1987D01*
G01X168923Y202713D02*
G03X168277I-323J-382D01*
G01X164022Y204366D02*
G03X168277Y202713I2578J334D01*
G01X164022Y204366D02*
G03X163280Y204737I-496J-65D01*
G01X164578Y207334D02*
G03X163280Y204737I-2578J-334D01*
G01X164578Y207334D02*
G03X165320Y206963I496J65D01*
G01X168277Y206687D02*
G03X165320Y206963I-1677J-1987D01*
G01X168277Y206687D02*
G03X168923I323J382D01*
G01X172287Y206678D02*
G03X168923Y206687I-1687J-1978D01*
G01X172287Y206678D02*
G03X172916Y206662I325J381D01*
G01X176239Y206533D02*
G03X172916Y206662I-1739J-1933D01*
G01X176239Y206533D02*
G03X176868Y206501I334J372D01*
G01X153600Y206600D02*
G03X153600I-2600J0D01*
G01X145000Y213800D02*
G03X145000I-2600J0D01*
G01X122468Y198781D02*
G03Y200619I2432J919D01*
G01Y198781D02*
G03X121532I-468J-177D01*
G01Y200619D02*
G03Y198781I-2432J-919D01*
G01Y200619D02*
G03X122468I468J177D01*
G01X166848Y190399D02*
X167571D01*
X166751Y189499D02*
X167385D01*
X169815D02*
X180000D01*
X178377Y188599D02*
X180000D01*
X178940Y187699D02*
X180000D01*
X178939Y185899D02*
X180000D01*
X178375Y184999D02*
X180000D01*
X108000Y184099D02*
X180000D01*
X108000Y183199D02*
X180000D01*
X131288Y182299D02*
X180000D01*
X132152Y181399D02*
X180000D01*
X132469Y180499D02*
X180000D01*
X132451Y179599D02*
X180000D01*
X132090Y178699D02*
X180000D01*
X131110Y177799D02*
X180000D01*
X108000Y176899D02*
X180000D01*
X108000Y175999D02*
X180000D01*
X108000Y175099D02*
X180000D01*
X120779Y174199D02*
X180000D01*
X123404Y173299D02*
X180000D01*
X124395Y172399D02*
X180000D01*
X125004Y171499D02*
X180000D01*
X125377Y170599D02*
X180000D01*
X125565Y169699D02*
X180000D01*
X125591Y168799D02*
X180000D01*
X168383Y167899D02*
X180000D01*
X170268Y166999D02*
X180000D01*
X170774Y166099D02*
X180000D01*
X170898Y165199D02*
X180000D01*
X170699Y164299D02*
X180000D01*
X170073Y163399D02*
X180000D01*
X173083Y162499D02*
X180000D01*
X174968Y161599D02*
X180000D01*
X175474Y160699D02*
X180000D01*
X175598Y159799D02*
X180000D01*
X175399Y158899D02*
X180000D01*
X174773Y157999D02*
X180000D01*
X177883Y157099D02*
X180000D01*
X132306Y151699D02*
X180000D01*
X131531Y150799D02*
X180000D01*
X119500Y149899D02*
X180000D01*
X123463Y148999D02*
X180000D01*
X124156Y148099D02*
X180000D01*
X153388Y147199D02*
X180000D01*
X154252Y146299D02*
X180000D01*
X154569Y145399D02*
X180000D01*
X176788Y144499D02*
X180000D01*
X177652Y143599D02*
X180000D01*
X177969Y142699D02*
X180000D01*
X177951Y141799D02*
X180000D01*
X177590Y140899D02*
X180000D01*
X176610Y139999D02*
X180000D01*
X153535Y139099D02*
X180000D01*
X154307Y138199D02*
X180000D01*
X154583Y137299D02*
X180000D01*
X154530Y136399D02*
X180000D01*
X176915Y135499D02*
X180000D01*
X177892Y134599D02*
X180000D01*
X178252Y133699D02*
X180000D01*
X178269Y132799D02*
X180000D01*
X177951Y131899D02*
X180000D01*
X177084Y130999D02*
X180000D01*
X176677Y130099D02*
X180000D01*
X177592Y129199D02*
X180000D01*
X177952Y128299D02*
X180000D01*
X177969Y127399D02*
X180000D01*
X177651Y126499D02*
X180000D01*
X176784Y125599D02*
X180000D01*
X108000Y124699D02*
X180000D01*
X108000Y123799D02*
X180000D01*
X108011Y122899D02*
X180000D01*
X109592Y121999D02*
X180000D01*
X110717Y121099D02*
X180000D01*
X111392Y120199D02*
X180000D01*
X111811Y119299D02*
X180000D01*
X160783Y118399D02*
X180000D01*
X174276Y117499D02*
X180000D01*
X174901Y116599D02*
X180000D01*
X175098Y115699D02*
X180000D01*
X174973Y114799D02*
X180000D01*
X174466Y113899D02*
X180000D01*
X159638Y112999D02*
X180000D01*
X159583Y112099D02*
X180000D01*
X159306Y111199D02*
X180000D01*
X158531Y110299D02*
X180000D01*
X144851Y109399D02*
X180000D01*
X144490Y108499D02*
X180000D01*
X143510Y107599D02*
X180000D01*
X110203Y106699D02*
X180000D01*
X111325Y105799D02*
X180000D01*
X111730Y104899D02*
X180000D01*
X174382Y190399D02*
X179802D01*
X161252Y157099D02*
X177717D01*
X132583Y152599D02*
X176027D01*
X161569Y156199D02*
X175832D01*
X160210Y153499D02*
X175401D01*
X161551Y155299D02*
X175326D01*
X161190Y154399D02*
X175202D01*
X169984Y184999D02*
X174625D01*
X170792Y188599D02*
X174623D01*
X154123Y135499D02*
X174485D01*
X127173Y130999D02*
X174316D01*
X150408Y139999D02*
X174190D01*
X126666Y130099D02*
X174185D01*
X170851Y185899D02*
X174061D01*
X171152Y187699D02*
X174060D01*
X108000Y125599D02*
X174016D01*
X154551Y144499D02*
X174012D01*
X171169Y186799D02*
X173900D01*
X152997Y134599D02*
X173508D01*
X127298Y131899D02*
X173449D01*
X150598Y140899D02*
X173210D01*
X108000Y129199D02*
X173208D01*
X108000Y126499D02*
X173149D01*
X126476Y133699D02*
X173148D01*
X154190Y143599D02*
X173148D01*
X127101Y132799D02*
X173131D01*
X160803Y162499D02*
X172917D01*
X150474Y141799D02*
X172849D01*
X108000Y128299D02*
X172848D01*
X108000Y127399D02*
X172831D01*
X153210Y142699D02*
X172831D01*
X161331Y157999D02*
X171227D01*
X161925Y161599D02*
X171032D01*
X162668Y117499D02*
X170724D01*
X169629Y190399D02*
X170618D01*
X162106Y158899D02*
X170601D01*
X162473Y113899D02*
X170534D01*
X162330Y160699D02*
X170526D01*
X162383Y159799D02*
X170402D01*
X163174Y116599D02*
X170099D01*
X163099Y114799D02*
X170027D01*
X163298Y115699D02*
X169902D01*
X151176Y167899D02*
X168217D01*
X108000Y184999D02*
X167216D01*
X165697Y189499D02*
X166647D01*
X147853Y163399D02*
X166527D01*
X108000Y188599D02*
X166408D01*
X108000Y185899D02*
X166349D01*
X151801Y166999D02*
X166332D01*
X108000Y187699D02*
X166048D01*
X108000Y186799D02*
X166031D01*
X151366Y164299D02*
X165901D01*
X151998Y166099D02*
X165826D01*
X151873Y165199D02*
X165702D01*
X108000Y189499D02*
X163703D01*
X123879Y190399D02*
X162552D01*
X126019Y118399D02*
X160617D01*
X147275Y162499D02*
X158797D01*
X127350Y117499D02*
X158732D01*
X155976Y116599D02*
X158226D01*
X156601Y115699D02*
X158102D01*
X132530Y153499D02*
X157790D01*
X141392Y161599D02*
X157675D01*
X140584Y157999D02*
X157594D01*
X141451Y158899D02*
X157494D01*
X141752Y160699D02*
X157270D01*
X141769Y159799D02*
X157217D01*
X132125Y154399D02*
X156810D01*
X108000Y157099D02*
X156748D01*
X131003Y155299D02*
X156449D01*
X108000Y156199D02*
X156431D01*
X144869Y110299D02*
X155469D01*
X150610Y111199D02*
X154694D01*
X151948Y112099D02*
X154090D01*
X127804Y116599D02*
X152424D01*
X144997Y134599D02*
X151003D01*
X145388Y147199D02*
X150612D01*
X146123Y135499D02*
X149877D01*
X146252Y146299D02*
X149748D01*
X146407Y138199D02*
X149593D01*
X148083Y143599D02*
X149504D01*
X146530Y136399D02*
X149470D01*
X146551Y144499D02*
X149449D01*
X146569Y145399D02*
X149431D01*
X146583Y137299D02*
X149417D01*
X144867Y111199D02*
X149190D01*
X147834Y115699D02*
X148202D01*
X146496Y143599D02*
X147917D01*
X125455Y167899D02*
X147624D01*
X125144Y166999D02*
X146999D01*
X118698Y139999D02*
X145592D01*
X122590Y141799D02*
X145526D01*
X121610Y140899D02*
X145402D01*
X127892Y115699D02*
X144023D01*
X140415Y162499D02*
X143525D01*
X124619Y166099D02*
X143523D01*
X127655Y114799D02*
X143460D01*
X109186Y112999D02*
X143451D01*
X126960Y113899D02*
X143300D01*
X121748Y134599D02*
X143003D01*
X108000Y163399D02*
X142961D01*
X123777Y165199D02*
X142960D01*
X122202Y164299D02*
X142800D01*
X122951Y142699D02*
X142790D01*
X124392Y147199D02*
X142612D01*
X118597Y139099D02*
X142465D01*
X122204Y135499D02*
X141877D01*
X122969Y143599D02*
X141810D01*
X124304Y146299D02*
X141748D01*
X121363Y138199D02*
X141693D01*
X122292Y136399D02*
X141470D01*
X122849Y144499D02*
X141449D01*
X123848Y145399D02*
X141431D01*
X122056Y137299D02*
X141417D01*
X108000Y107599D02*
X141090D01*
X108000Y112099D02*
X140912D01*
X108000Y108499D02*
X140110D01*
X108000Y111199D02*
X140048D01*
X108000Y109399D02*
X139749D01*
X108000Y110299D02*
X139731D01*
X108000Y162499D02*
X137985D01*
X108000Y157999D02*
X137816D01*
X108000Y161599D02*
X137008D01*
X108000Y158899D02*
X136949D01*
X108000Y160699D02*
X136648D01*
X108000Y159799D02*
X136631D01*
X108000Y155299D02*
X128997D01*
X114997Y177799D02*
X128690D01*
X115535Y182299D02*
X128512D01*
X119340Y150799D02*
X128469D01*
X108000Y154399D02*
X127875D01*
X116123Y178699D02*
X127710D01*
X118777Y151699D02*
X127694D01*
X116307Y181399D02*
X127648D01*
X108000Y153499D02*
X127470D01*
X108000Y152599D02*
X127417D01*
X116530Y179599D02*
X127349D01*
X116583Y180499D02*
X127331D01*
X112038Y118399D02*
X124581D01*
X110502Y113899D02*
X123640D01*
X112099Y117499D02*
X123250D01*
X111258Y114799D02*
X122945D01*
X120410Y133699D02*
X122924D01*
X111999Y116599D02*
X122796D01*
X108000Y130099D02*
X122734D01*
X111730Y115699D02*
X122708D01*
X108000Y132799D02*
X122299D01*
X108000Y130999D02*
X122227D01*
X108000Y131899D02*
X122102D01*
X108000Y174199D02*
X120221D01*
X108198Y190399D02*
X119921D01*
X108000Y146299D02*
X119296D01*
X108000Y147199D02*
X119208D01*
X108000Y145399D02*
X119012D01*
X116210Y133699D02*
X118990D01*
X108000Y164299D02*
X118798D01*
X108000Y144499D02*
X118148D01*
X108000Y143599D02*
X117831D01*
X116183Y142699D02*
X117739D01*
X108000Y173299D02*
X117596D01*
X108000Y165199D02*
X117223D01*
X108000Y172399D02*
X116605D01*
X108000Y166099D02*
X116381D01*
X108000Y142699D02*
X116017D01*
X108000Y171499D02*
X115996D01*
X108000Y166999D02*
X115856D01*
X108000Y170599D02*
X115623D01*
X108000Y167899D02*
X115545D01*
X108000Y169699D02*
X115435D01*
X108000Y168799D02*
X115409D01*
X108000Y148099D02*
X115025D01*
X108000Y151699D02*
X115023D01*
X108000Y148999D02*
X114461D01*
X108000Y150799D02*
X114460D01*
X108000Y149899D02*
X114300D01*
X108000Y141799D02*
X114132D01*
X112331Y133699D02*
X113790D01*
X108000Y139099D02*
X113701D01*
X108000Y140899D02*
X113626D01*
X111803Y138199D02*
X113612D01*
X108000Y139999D02*
X113502D01*
X108000Y177799D02*
X113003D01*
X108000Y182299D02*
X112465D01*
X108000Y178699D02*
X111877D01*
X108000Y181399D02*
X111693D01*
X108000Y179599D02*
X111470D01*
X108000Y180499D02*
X111417D01*
X108000Y138199D02*
X109797D01*
X108000Y133699D02*
X109269D01*
X105554Y130299D02*
X106246D01*
X105712Y129399D02*
X106087D01*
X105031Y125799D02*
X106400D01*
X102503Y124899D02*
X106400D01*
X102500Y123999D02*
X106400D01*
X102500Y123099D02*
X106400D01*
X102500Y122199D02*
X104782D01*
X102554Y121299D02*
X103482D01*
X102500Y216699D02*
X235500D01*
X144063Y215799D02*
X235500D01*
X144756Y214899D02*
X235500D01*
X144992Y213999D02*
X235500D01*
X144904Y213099D02*
X235500D01*
X144448Y212199D02*
X235500D01*
X143110Y211299D02*
X235500D01*
X102500Y210399D02*
X235500D01*
X162719Y209499D02*
X235500D01*
X164050Y208599D02*
X235500D01*
X164504Y207699D02*
X235500D01*
X179403Y206799D02*
X235500D01*
X180525Y205899D02*
X235500D01*
X180930Y204999D02*
X235500D01*
X180983Y204099D02*
X235500D01*
X180706Y203199D02*
X235500D01*
X179931Y202299D02*
X235500D01*
X126868Y201399D02*
X235500D01*
X127374Y200499D02*
X235500D01*
X222842Y199599D02*
X235500D01*
X224843Y198699D02*
X235500D01*
X225777Y197799D02*
X235500D01*
X226356Y196899D02*
X235500D01*
X226706Y195999D02*
X235500D01*
X226876Y195099D02*
X235500D01*
X226884Y194199D02*
X235500D01*
X226730Y193299D02*
X235500D01*
X226397Y192399D02*
X235500D01*
X225844Y191499D02*
X235500D01*
X224954Y190599D02*
X235500D01*
X223188Y189699D02*
X235500D01*
X194248Y188799D02*
X235500D01*
X192910Y187899D02*
X235500D01*
X181600Y186999D02*
X235500D01*
X181600Y186099D02*
X235500D01*
X181600Y185199D02*
X235500D01*
X181600Y184299D02*
X235500D01*
X212744Y183399D02*
X235500D01*
X214295Y182499D02*
X235500D01*
X215130Y181599D02*
X235500D01*
X215651Y180699D02*
X235500D01*
X215959Y179799D02*
X235500D01*
X216092Y178899D02*
X235500D01*
X216064Y177999D02*
X235500D01*
X215872Y177099D02*
X235500D01*
X215496Y176199D02*
X235500D01*
X214882Y175299D02*
X235500D01*
X213882Y174399D02*
X235500D01*
X213034Y173499D02*
X235500D01*
X214173Y172599D02*
X235500D01*
X215056Y171699D02*
X235500D01*
X215605Y170799D02*
X235500D01*
X215934Y169899D02*
X235500D01*
X216085Y168999D02*
X235500D01*
X216075Y168099D02*
X235500D01*
X215902Y167199D02*
X235500D01*
X215548Y166299D02*
X235500D01*
X214965Y165399D02*
X235500D01*
X214023Y164499D02*
X235500D01*
X213022Y163599D02*
X235500D01*
X214043Y162699D02*
X235500D01*
X214977Y161799D02*
X235500D01*
X215556Y160899D02*
X235500D01*
X215906Y159999D02*
X235500D01*
X216076Y159099D02*
X235500D01*
X216084Y158199D02*
X235500D01*
X215930Y157299D02*
X235500D01*
X215597Y156399D02*
X235500D01*
X215044Y155499D02*
X235500D01*
X214154Y154599D02*
X235500D01*
X213031Y153699D02*
X235500D01*
X213904Y152799D02*
X235500D01*
X214895Y151899D02*
X235500D01*
X215504Y150999D02*
X235500D01*
X215877Y150099D02*
X235500D01*
X216065Y149199D02*
X235500D01*
X216091Y148299D02*
X235500D01*
X215955Y147399D02*
X235500D01*
X215644Y146499D02*
X235500D01*
X215119Y145599D02*
X235500D01*
X214277Y144699D02*
X235500D01*
X212702Y143799D02*
X235500D01*
X184990Y142899D02*
X235500D01*
X185401Y141999D02*
X235500D01*
X185598Y141099D02*
X235500D01*
X185473Y140199D02*
X235500D01*
X184976Y139299D02*
X235500D01*
X185252Y138399D02*
X235500D01*
X185569Y137499D02*
X235500D01*
X185551Y136599D02*
X235500D01*
X185190Y135699D02*
X235500D01*
X184621Y134799D02*
X235500D01*
X185101Y133899D02*
X235500D01*
X185298Y132999D02*
X235500D01*
X185173Y132099D02*
X235500D01*
X184666Y131199D02*
X235500D01*
X184448Y130299D02*
X235500D01*
X185207Y129399D02*
X235500D01*
X185483Y128499D02*
X235500D01*
X185430Y127599D02*
X235500D01*
X185023Y126699D02*
X235500D01*
X183897Y125799D02*
X235500D01*
X181600Y124899D02*
X235500D01*
X181600Y123999D02*
X235500D01*
X181600Y123099D02*
X235500D01*
X181600Y122199D02*
X235500D01*
X181600Y121299D02*
X235500D01*
X181600Y120399D02*
X235500D01*
X181600Y119499D02*
X235500D01*
X181600Y118599D02*
X235500D01*
X193976Y117699D02*
X235500D01*
X194601Y116799D02*
X235500D01*
X194798Y115899D02*
X235500D01*
X197203Y114999D02*
X235500D01*
X198325Y114099D02*
X235500D01*
X198730Y113199D02*
X235500D01*
X198783Y112299D02*
X235500D01*
X198506Y111399D02*
X235500D01*
X197731Y110499D02*
X235500D01*
X181600Y109599D02*
X235500D01*
X181600Y108699D02*
X235500D01*
X181600Y107799D02*
X235500D01*
X181600Y106899D02*
X235500D01*
X181600Y105999D02*
X235500D01*
X181600Y105099D02*
X235500D01*
X181600Y104199D02*
X235500D01*
X181438Y103299D02*
X235500D01*
X127498Y199599D02*
X220758D01*
X194704Y189699D02*
X220412D01*
X127299Y198699D02*
X218757D01*
X194792Y190599D02*
X218646D01*
X138503Y197799D02*
X217823D01*
X194556Y191499D02*
X217756D01*
X139625Y196899D02*
X217244D01*
X193863Y192399D02*
X217203D01*
X140030Y195999D02*
X216894D01*
X174856Y193299D02*
X216870D01*
X140083Y195099D02*
X216724D01*
X174163Y194199D02*
X216716D01*
X202702Y143799D02*
X209298D01*
X202744Y183399D02*
X209256D01*
X204277Y144699D02*
X207723D01*
X204295Y182499D02*
X207705D01*
X205119Y145599D02*
X206881D01*
X205130Y181599D02*
X206870D01*
X205720Y146499D02*
X206280D01*
X205744Y180699D02*
X206256D01*
X185439Y143799D02*
X199298D01*
X181600Y183399D02*
X199256D01*
X181600Y163599D02*
X198978D01*
X181600Y153699D02*
X198969D01*
X181600Y173499D02*
X198966D01*
X181600Y174399D02*
X198118D01*
X181600Y152799D02*
X198096D01*
X181600Y164499D02*
X197977D01*
X181600Y162699D02*
X197957D01*
X181600Y154599D02*
X197846D01*
X181600Y172599D02*
X197827D01*
X185600Y144699D02*
X197723D01*
X181600Y182499D02*
X197705D01*
X181600Y175299D02*
X197118D01*
X181600Y151899D02*
X197105D01*
X181600Y165399D02*
X197035D01*
X181600Y161799D02*
X197023D01*
X181600Y155499D02*
X196956D01*
X181600Y171699D02*
X196944D01*
X185440Y145599D02*
X196881D01*
X181600Y181599D02*
X196870D01*
X181600Y176199D02*
X196504D01*
X181600Y150999D02*
X196496D01*
X181600Y166299D02*
X196452D01*
X181600Y160899D02*
X196444D01*
X181600Y156399D02*
X196403D01*
X181600Y170799D02*
X196395D01*
X184877Y146499D02*
X196356D01*
X181600Y180699D02*
X196349D01*
X181600Y177099D02*
X196128D01*
X181600Y150099D02*
X196123D01*
X181600Y167199D02*
X196098D01*
X181600Y159999D02*
X196094D01*
X181600Y157299D02*
X196070D01*
X181600Y169899D02*
X196066D01*
X181678Y147399D02*
X196045D01*
X181600Y179799D02*
X196041D01*
X181600Y177999D02*
X195936D01*
X181600Y149199D02*
X195935D01*
X181600Y168099D02*
X195925D01*
X181600Y159099D02*
X195924D01*
X181600Y158199D02*
X195916D01*
X181600Y168999D02*
X195915D01*
X181600Y148299D02*
X195909D01*
X181600Y178899D02*
X195908D01*
X181600Y110499D02*
X194669D01*
X181600Y111399D02*
X193894D01*
X181600Y112299D02*
X193617D01*
X181600Y113199D02*
X193453D01*
X181600Y187899D02*
X191490D01*
X175116Y192399D02*
X190537D01*
X186176Y117699D02*
X190424D01*
X186366Y114099D02*
X190234D01*
X181600Y188799D02*
X190152D01*
X181250Y191499D02*
X189844D01*
X186801Y116799D02*
X189799D01*
X186873Y114999D02*
X189727D01*
X181600Y189699D02*
X189696D01*
X181597Y190599D02*
X189608D01*
X186998Y115899D02*
X189602D01*
X181633Y117699D02*
X182624D01*
X181772Y114099D02*
X182428D01*
X175888Y206799D02*
X177397D01*
X175710Y202299D02*
X176869D01*
X171597D02*
X173290D01*
X172135Y206799D02*
X173112D01*
X165915Y194199D02*
X170837D01*
X166892Y193299D02*
X170144D01*
X167262Y192399D02*
X169884D01*
X167597Y202299D02*
X169603D01*
X168135Y206799D02*
X169065D01*
X124983Y202299D02*
X165603D01*
X102500Y203199D02*
X164477D01*
X151710Y204099D02*
X164070D01*
X139806Y194199D02*
X163485D01*
X139031Y193299D02*
X162508D01*
X138373Y192399D02*
X162138D01*
X102500Y209499D02*
X161281D01*
X153048Y204999D02*
X160340D01*
X152663Y208599D02*
X159950D01*
X153504Y205899D02*
X159645D01*
X153356Y207699D02*
X159496D01*
X153592Y206799D02*
X159408D01*
X102500Y204099D02*
X150290D01*
X102500Y208599D02*
X149337D01*
X102500Y204999D02*
X148952D01*
X102500Y207699D02*
X148644D01*
X102500Y205899D02*
X148496D01*
X102500Y206799D02*
X148408D01*
X102500Y211299D02*
X141690D01*
X102500Y215799D02*
X140737D01*
X102500Y212199D02*
X140352D01*
X102500Y214899D02*
X140044D01*
X102500Y213099D02*
X139896D01*
X102500Y213999D02*
X139808D01*
X124502Y192399D02*
X136627D01*
X126673Y197799D02*
X136497D01*
X124207Y193299D02*
X135969D01*
X107950Y196899D02*
X135375D01*
X123435Y194199D02*
X135194D01*
X108404Y195999D02*
X134970D01*
X108492Y195099D02*
X134917D01*
X119183Y202299D02*
X124817D01*
X120873Y197799D02*
X123127D01*
X121068Y201399D02*
X122932D01*
X121499Y198699D02*
X122501D01*
X121598Y200499D02*
X122402D01*
X108255Y194199D02*
X120365D01*
X107560Y193299D02*
X119593D01*
X102500Y192399D02*
X119298D01*
X102500Y202299D02*
X119017D01*
X106619Y197799D02*
X117327D01*
X102500Y201399D02*
X117132D01*
X102500Y198699D02*
X116701D01*
X102500Y200499D02*
X116626D01*
X102500Y199599D02*
X116502D01*
X102500Y191499D02*
X106750D01*
X102500Y190599D02*
X106403D01*
X102500Y189699D02*
X106400D01*
X102500Y188799D02*
X106400D01*
X102500Y187899D02*
X106400D01*
X102500Y186999D02*
X106400D01*
X102500Y186099D02*
X106400D01*
X102500Y185199D02*
X106400D01*
X102500Y184299D02*
X106400D01*
X102500Y183399D02*
X106400D01*
X102500Y182499D02*
X106400D01*
X102500Y181599D02*
X106400D01*
X102500Y180699D02*
X106400D01*
X102500Y179799D02*
X106400D01*
X102500Y178899D02*
X106400D01*
X102500Y177999D02*
X106400D01*
X102500Y177099D02*
X106400D01*
X102500Y176199D02*
X106400D01*
X102500Y175299D02*
X106400D01*
X102500Y174399D02*
X106400D01*
X102500Y173499D02*
X106400D01*
X102500Y172599D02*
X106400D01*
X102500Y171699D02*
X106400D01*
X102500Y170799D02*
X106400D01*
X102500Y169899D02*
X106400D01*
X102500Y168999D02*
X106400D01*
X102500Y168099D02*
X106400D01*
X102500Y167199D02*
X106400D01*
X102500Y166299D02*
X106400D01*
X102500Y165399D02*
X106400D01*
X102500Y164499D02*
X106400D01*
X102500Y163599D02*
X106400D01*
X102500Y162699D02*
X106400D01*
X102500Y161799D02*
X106400D01*
X102500Y160899D02*
X106400D01*
X102500Y159999D02*
X106400D01*
X102500Y159099D02*
X106400D01*
X102500Y158199D02*
X106400D01*
X102500Y157299D02*
X106400D01*
X102500Y156399D02*
X106400D01*
X102500Y155499D02*
X106400D01*
X102500Y154599D02*
X106400D01*
X102500Y153699D02*
X106400D01*
X102500Y152799D02*
X106400D01*
X102500Y151899D02*
X106400D01*
X102500Y150999D02*
X106400D01*
X102500Y150099D02*
X106400D01*
X102500Y149199D02*
X106400D01*
X102500Y148299D02*
X106400D01*
X102500Y147399D02*
X106400D01*
X102500Y146499D02*
X106400D01*
X102500Y145599D02*
X106400D01*
X102500Y144699D02*
X106400D01*
X102500Y143799D02*
X106400D01*
X102500Y142899D02*
X106400D01*
X102500Y141999D02*
X106400D01*
X102500Y141099D02*
X106400D01*
X102500Y140199D02*
X106400D01*
X102500Y139299D02*
X106400D01*
X102500Y138399D02*
X106400D01*
X102500Y137499D02*
X106400D01*
X102500Y136599D02*
X106400D01*
X102500Y135699D02*
X106400D01*
X102527Y134799D02*
X106400D01*
X105163Y133899D02*
X106400D01*
X102500Y197799D02*
X105181D01*
X102500Y193299D02*
X104240D01*
X102500Y196899D02*
X103850D01*
X102500Y194199D02*
X103545D01*
X102696Y195999D02*
X103304D01*
X100000Y100000D02*
X238000D01*
Y220000*
X100000*
Y100000*
G54D20*
X124106Y172713D02*
X123328Y171935D01*
X116894Y172713D02*
X117672Y171935D01*
X116894Y165500D02*
X117672Y166278D01*
X124106Y165500D02*
X123328Y166278D01*
X225406Y198213D02*
X224628Y197435D01*
X218194Y198213D02*
X218972Y197435D01*
X218194Y191000D02*
X218972Y191778D01*
X225406Y191000D02*
X224628Y191778D01*
X112638Y137638D02*
X111861Y136861D01*
X108962Y137638D02*
X109739Y136861D01*
X108962Y133962D02*
X109739Y134739D01*
X112638Y133962D02*
X111861Y134739D01*
X131838Y154738D02*
X131061Y153961D01*
X128162Y154738D02*
X128939Y153961D01*
X128162Y151062D02*
X128939Y151839D01*
X131838Y151062D02*
X131061Y151839D01*
X123638Y148838D02*
X122861Y148061D01*
X119962Y148838D02*
X120739Y148061D01*
X123638Y145162D02*
X122861Y145939D01*
X126538Y133638D02*
X125761Y132861D01*
X122862Y133638D02*
X123639Y132861D01*
X122862Y129962D02*
X123639Y130739D01*
X126538Y129962D02*
X125761Y130739D01*
X177238Y129638D02*
X176461Y128861D01*
X173562Y129638D02*
X174339Y128861D01*
X173562Y125962D02*
X174339Y126739D01*
X177238Y125962D02*
X176461Y126739D01*
X177538Y135038D02*
X176761Y134261D01*
X173862Y135038D02*
X174639Y134261D01*
X173862Y131362D02*
X174639Y132139D01*
X177538Y131362D02*
X176761Y132139D01*
X177238Y144138D02*
X176461Y143361D01*
X173562Y144138D02*
X174339Y143361D01*
X173562Y140462D02*
X174339Y141239D01*
X177238Y140462D02*
X176461Y141239D01*
X143562Y166138D02*
X144339Y165361D01*
X143562Y162462D02*
X144339Y163239D01*
X147238Y162462D02*
X146461Y163239D01*
X160838Y157638D02*
X160061Y156861D01*
X157162Y157638D02*
X157939Y156861D01*
X157162Y153962D02*
X157939Y154739D01*
X160838Y153962D02*
X160061Y154739D01*
X156038Y116538D02*
X155261Y115761D01*
X152362Y116538D02*
X153139Y115761D01*
X152362Y112862D02*
X153139Y113639D01*
X113162Y137838D02*
X113939Y137061D01*
X113162Y134162D02*
X113939Y134939D01*
X116838Y134162D02*
X116061Y134939D01*
X163838Y208838D02*
X163061Y208061D01*
X160162Y208838D02*
X160939Y208061D01*
X160162Y205162D02*
X160939Y205939D01*
X163838Y205162D02*
X163061Y205939D01*
X139338Y197238D02*
X138561Y196461D01*
X135662Y197238D02*
X136439Y196461D01*
X135662Y193562D02*
X136439Y194339D01*
X139338Y193562D02*
X138561Y194339D01*
X105338Y129738D02*
X104561Y128961D01*
X105338Y126062D02*
X104561Y126839D01*
X105338Y133738D02*
X104561Y132961D01*
X105338Y130062D02*
X104561Y130839D01*
X198038Y114438D02*
X197261Y113661D01*
X194362Y110762D02*
X195139Y111539D01*
X198038Y110762D02*
X197261Y111539D01*
X194038Y117638D02*
X193261Y116861D01*
X190362Y117638D02*
X191139Y116861D01*
X190362Y113962D02*
X191139Y114739D01*
X184738Y130038D02*
X183961Y129261D01*
X184738Y126362D02*
X183961Y127139D01*
X184538Y134738D02*
X183761Y133961D01*
X184538Y131062D02*
X183761Y131839D01*
X184838Y138938D02*
X184061Y138161D01*
X184838Y135262D02*
X184061Y136039D01*
X184838Y142838D02*
X184061Y142061D01*
X184838Y139162D02*
X184061Y139939D01*
X184838Y146538D02*
X184061Y145761D01*
X184838Y142862D02*
X184061Y143639D01*
X194038Y192238D02*
X193261Y191461D01*
X190362Y192238D02*
X191139Y191461D01*
X190362Y188562D02*
X191139Y189339D01*
X194038Y188562D02*
X193261Y189339D01*
X186238Y117638D02*
X185461Y116861D01*
X182562Y117638D02*
X183339Y116861D01*
X182562Y113962D02*
X183339Y114739D01*
X186238Y113962D02*
X185461Y114739D01*
X107738Y197138D02*
X106961Y196361D01*
X104062Y197138D02*
X104839Y196361D01*
X104062Y193462D02*
X104839Y194239D01*
X107738Y193462D02*
X106961Y194239D01*
X123738Y193938D02*
X122961Y193161D01*
X120062Y193938D02*
X120839Y193161D01*
G54D115*
X110800Y135800D03*
X115000Y136000D03*
X124700Y131800D03*
X119700Y136200D03*
X103500Y131900D03*
Y127900D03*
X109200Y104300D03*
X125300Y115900D03*
X154200Y114700D03*
X175400Y127800D03*
X175700Y133200D03*
X183000Y137100D03*
X182700Y132900D03*
X182900Y128200D03*
X149900Y113700D03*
X145900Y113900D03*
X142300Y109900D03*
X196200Y112600D03*
X192200Y115800D03*
X184400D03*
X172500Y115600D03*
X160700Y115800D03*
X157000Y112400D03*
X152000Y137000D03*
X144000D03*
X130000Y152900D03*
X121800Y147000D03*
X124900Y199700D03*
X119100D03*
X116900Y149900D03*
X120400Y143200D03*
X116100Y140100D03*
X137500Y195400D03*
X105900Y195300D03*
X139200Y160200D03*
X129900Y180100D03*
X114000Y180200D03*
X121900Y192100D03*
X170600Y204700D03*
X178400Y204400D03*
X172500Y192200D03*
X168600Y187200D03*
X176500Y186800D03*
X174500Y204600D03*
X166600Y204700D03*
X164700Y191900D03*
X175400Y142300D03*
X145400Y164300D03*
X159000Y155800D03*
X183000Y144700D03*
Y141000D03*
X149400Y166000D03*
X173000Y159900D03*
X177800Y154500D03*
X168300Y165300D03*
X192200Y190400D03*
X162000Y207000D03*
X148000Y141000D03*
X152000Y145000D03*
X144000D03*
X159800Y160100D03*
X142400Y213800D03*
X151000Y206600D03*
G74*
X0Y0D02*
M02*
