%
T1C.015F095S3
X01035Y01279
X01092Y01043
X01253Y01159
X01423Y01099
X01459Y01139
X01499Y01137
X01542Y01147
X0157Y01124
X01607Y01158
X01725Y01156
X01754Y01278
X01829Y01282
X01844Y01158
X01922Y01158
X01962Y01126
X0183Y01371
X0183Y01447
X0183Y0141
X01827Y01329
X01757Y01332
X01754Y01423
X0152Y0137
X0152Y0145
X0148Y0141
X0144Y0137
X0144Y0145
X013Y01529
X01247Y01318
X01218Y0147
X01204Y01432
X01197Y01362
X01169Y01499
X01161Y01401
X0115Y0136
X01108Y01358
X01035Y01319
X01392Y01602
X01454Y01643
X01494Y0166
X0159Y01558
X01598Y01601
X01683Y01653
X0173Y01599
X01778Y01545
X01922Y01904
X01765Y01868
X01725Y01922
X01686Y01872
X01647Y01919
X01375Y01954
X01299Y01801
X01249Y01997
X01219Y01921
X01191Y01997
X0114Y01802
X01059Y01953
X01424Y02138
X0151Y02066
X0162Y0207
X01666Y02047
X01706Y02047
X01745Y02046
X01784Y02044
T2C.048F139S55
X0107Y011761
X0201Y014861
X0211Y014861
X0211Y017861
X0211Y016861
X0211Y015861
X0201Y016861
X0201Y015861
X0201Y017861
X01205Y016911
X02218Y019461
M30
