*
*
G04 PADS 9.5 Build Number: 522968 generated Gerber (RS-274-X) file*
G04 PC Version=2.1*
*
%IN "Data_TRX_v1_working.pcb"*%
*
%MOIN*%
*
%FSLAX35Y35*%
*
*
*
*
G04 PC Standard Apertures*
*
*
G04 Thermal Relief Aperture macro.*
%AMTER*
1,1,$1,0,0*
1,0,$1-$2,0,0*
21,0,$3,$4,0,0,45*
21,0,$3,$4,0,0,135*
%
*
*
G04 Annular Aperture macro.*
%AMANN*
1,1,$1,0,0*
1,0,$2,0,0*
%
*
*
G04 Odd Aperture macro.*
%AMODD*
1,1,$1,0,0*
1,0,$1-0.005,0,0*
%
*
*
G04 PC Custom Aperture Macros*
*
*
*
*
*
*
G04 PC Aperture Table*
*
%ADD010C,0.001*%
%ADD013C,0.01*%
%ADD014C,0.012*%
%ADD016C,0.006*%
%ADD078R,0.01102X0.01575*%
%ADD079R,0.05906X0.03346*%
%ADD113C,0.08*%
%ADD115C,0.03*%
%ADD151C,0.008*%
%ADD164R,0.13583X0.13583*%
%ADD165R,0.03346X0.0374*%
%ADD166R,0.02362X0.02*%
%ADD167R,0.02X0.02362*%
%ADD168R,0.01102X0.03346*%
%ADD169R,0.03346X0.01102*%
%ADD170C,0.018*%
*
*
*
*
G04 PC Circuitry*
G04 Layer Name Data_TRX_v1_working.pcb - circuitry*
%LPD*%
*
*
G04 PC Custom Flashes*
G04 Layer Name Data_TRX_v1_working.pcb - flashes*
%LPD*%
*
*
G04 PC Circuitry*
G04 Layer Name Data_TRX_v1_working.pcb - circuitry*
%LPD*%
*
G54D10*
G54D13*
G01X126216Y115300D02*
X127673Y113842D01*
X128445*
X128765Y114162*
Y114343*
X126216Y115300D02*
X125300Y115900D01*
X125616*
X126216Y115300*
X120500Y169106D02*
X124674Y173280D01*
Y188854*
X155390Y150244D02*
Y156120D01*
X155735*
X188600Y126100D02*
Y146200D01*
G75*
G03X188100Y146700I-500J0D01*
G01X174317*
G03X173862Y145992I-0J-500*
G01X173961Y145535D02*
G03X173862Y145992I-1100J0D01*
G01X173961Y145535D02*
Y145255D01*
G03X174613Y144778I500J-0*
G01Y139822D02*
G03Y144778I787J2478D01*
G01Y139822D02*
G03X173961Y139345I-152J-477D01*
G01Y138935*
X173548Y138076D02*
G03X173961Y138935I-687J859D01*
G01X173548Y138076D02*
G03Y137295I312J-391D01*
G01X173961Y136435D02*
G03X173548Y137295I-1100J0D01*
G01X173961Y136435D02*
Y136042D01*
G03X174661Y135583I500J-0*
G01X176844Y130865D02*
G03X174661Y135583I-1144J2335D01*
G01X176844Y130865D02*
G03X176795Y129994I219J-449D01*
G01X177574Y126374D02*
G03X176795Y129994I-2174J1426D01*
G01X177574Y126374D02*
G03X177992Y125600I418J-274D01*
G01X188100*
G03X188600Y126100I0J500*
G01X124392Y141954D02*
G03X124399Y142758I-294J405D01*
G01X123962Y143635D02*
G03X124399Y142758I1100J0D01*
G01X123962Y143635D02*
Y144383D01*
G03X123194Y144805I-500J0*
G01Y149195D02*
G03Y144805I-1394J-2195D01*
G01Y149195D02*
G03X123962Y149617I268J422D01*
G01Y150235*
X124185Y150899D02*
G03X123962Y150235I877J-664D01*
G01X124185Y150899D02*
G03X123786Y151700I-399J301D01*
G01X113700*
G03X113200Y151200I0J-500*
G01Y138814*
G03X113910Y138360I500J0*
G01X117533Y135413D02*
G03X113910Y138360I-2533J587D01*
G01X117533Y135413D02*
G03X118020Y134800I487J-113D01*
G01X123462*
G03X123962Y135300I0J500*
G01Y136535*
X124380Y137399D02*
G03X123962Y136535I682J-864D01*
G01X124380Y137399D02*
G03X124373Y138189I-310J392D01*
G01X123939Y139065D02*
G03X124373Y138189I1100J-0D01*
G01X123939Y139065D02*
Y141065D01*
X124392Y141954D02*
G03X123939Y141065I647J-889D01*
G01X173961Y145399D02*
X188600D01*
X176788Y144499D02*
X188600D01*
X177652Y143599D02*
X188600D01*
X177969Y142699D02*
X188600D01*
X177951Y141799D02*
X188600D01*
X177590Y140899D02*
X188600D01*
X176610Y139999D02*
X188600D01*
X173961Y139099D02*
X188600D01*
X173678Y138199D02*
X188600D01*
X173543Y137299D02*
X188600D01*
X173961Y136399D02*
X188600D01*
X176915Y135499D02*
X188600D01*
X177892Y134599D02*
X188600D01*
X178252Y133699D02*
X188600D01*
X178269Y132799D02*
X188600D01*
X177951Y131899D02*
X188600D01*
X177084Y130999D02*
X188600D01*
X176677Y130099D02*
X188600D01*
X177592Y129199D02*
X188600D01*
X177952Y128299D02*
X188600D01*
X177969Y127399D02*
X188600D01*
X177651Y126499D02*
X188600D01*
X173827Y146299D02*
X188590D01*
X117125Y137499D02*
X124476D01*
X113200Y141999D02*
X124445D01*
X113200Y142899D02*
X124245D01*
X113200Y150999D02*
X124243D01*
X116003Y138399D02*
X124163D01*
X117530Y136599D02*
X123964D01*
X113200Y150099D02*
X123962D01*
X113200Y143799D02*
X123962D01*
X117583Y135699D02*
X123962D01*
X113200Y141099D02*
X123939D01*
X113200Y140199D02*
X123939D01*
X113200Y139299D02*
X123939D01*
X123010Y144699D02*
X123850D01*
X123188Y149199D02*
X123736D01*
X113200Y144699D02*
X120590D01*
X113200Y149199D02*
X120412D01*
X113200Y145599D02*
X119610D01*
X113200Y148299D02*
X119548D01*
X113200Y146499D02*
X119249D01*
X113200Y147399D02*
X119231D01*
X113422Y138399D02*
X113997D01*
X124284Y142858D02*
X125355Y143928D01*
X124284Y151013D02*
X125355Y149943D01*
X124261Y138287D02*
X125331Y139357D01*
X124261Y141842D02*
X125331Y140772D01*
X124284Y137313D02*
X125355Y136243D01*
X173639Y146313D02*
X172569Y145243D01*
X173639Y137213D02*
X172569Y136143D01*
X173639Y138158D02*
X172569Y139228D01*
X100000Y100000D02*
X238000D01*
Y220000*
X100000*
Y100000*
G54D14*
X103500Y131935D02*
X106843D01*
X103500Y127935D02*
X106843D01*
X122600Y117018D02*
X126282Y120700D01*
X130466*
X137266Y127500*
X142276*
X143579Y128803*
Y130756*
X122600Y117018D02*
Y114782D01*
X126082Y111300*
X129116*
X129780Y110635*
Y108435*
X110780Y127935D02*
X110199D01*
Y131935*
X110780*
X115000Y136000D02*
X115020D01*
Y131965*
X124700Y131800D02*
X126100Y133200D01*
X130045*
X130180Y133335*
Y135535*
X119700Y136200D02*
Y135935D01*
X126243*
Y135535*
X137765Y118280D02*
Y118861D01*
X142265*
Y118280*
X138143Y123035D02*
Y125235D01*
X138208Y125300*
X142965*
X145547Y127883*
Y130756*
X133265Y118280D02*
Y118474D01*
X137975Y123035*
X138143*
X128765Y118280D02*
Y117699D01*
X133265*
Y118280*
X110780Y131935D02*
Y135800D01*
X110800*
X110780Y131935D02*
Y131965D01*
X115020*
X133357Y130965D02*
X141402D01*
X141610Y130756*
X130180Y135535D02*
X130224Y135579D01*
X138756*
X118957Y131965D02*
Y127935D01*
X118980*
X115020Y131965D02*
Y127935D01*
X115043*
X149900Y113700D02*
X151565Y118262D01*
Y118843*
X151965*
X145900Y113900D02*
X147465Y115500D01*
Y118843*
X142265Y114343D02*
Y109900D01*
X142300*
X142080Y123035D02*
X143335D01*
X147516Y127216*
Y130756*
X142080Y123035D02*
X142265D01*
Y118280*
X147465Y122780D02*
Y122961D01*
X149484Y124981*
Y130756*
X167843Y126435D02*
Y128635D01*
X167908Y128700*
X174500*
X175400Y127800*
X171780Y126435D02*
Y126035D01*
X173619Y125100*
X179800*
X182900Y128200*
X171680Y130935D02*
X172116Y130500D01*
X180300*
X182700Y132900*
X167743Y135435D02*
X168324D01*
Y133235*
X168360Y133200*
X175700*
X171680Y135435D02*
X173345Y137100D01*
X183000*
X167743Y139935D02*
Y142135D01*
X167908Y142300*
X175400*
X171680Y139935D02*
Y139535D01*
X181535*
X183000Y141000*
X158244Y139516D02*
X167324D01*
X167743Y139935*
X158244Y137547D02*
X165631D01*
X167743Y135435*
X158244Y135579D02*
X162919D01*
X167562Y130935*
X167743*
X158244Y133610D02*
X160669D01*
X167843Y126435*
X155390Y130756D02*
Y129634D01*
X157824Y127200*
X160916*
X161980Y126135*
Y123935*
X153421Y130756D02*
Y127883D01*
X157615Y123689*
X158043*
Y123935*
X151453Y130756D02*
Y123292D01*
X151965Y122780*
X154165*
X154200Y122745*
Y114700*
X130000Y152900D02*
X130180D01*
Y149235*
X121800Y147000D02*
X130016D01*
X130180Y146835*
Y144635*
X116900Y149900D02*
X125579D01*
X126243Y149235*
X120400Y143200D02*
Y143473D01*
X125481*
X126243Y144235*
Y144635*
X116100Y140100D02*
X126184D01*
X126220Y140065*
X105900Y195300D02*
Y195335D01*
X109743*
X139200Y160200D02*
Y160157D01*
X143035*
X113965Y184043D02*
Y180200D01*
X114000*
X113965Y187980D02*
X114838Y188854D01*
X118769*
X130180Y149235D02*
Y147035D01*
X135731Y141484*
X138756*
X130180Y144635D02*
X130361D01*
X135481Y139516*
X138756*
X130157Y140065D02*
X130338D01*
X132855Y137547*
X138756*
X129865Y184243D02*
Y180100D01*
X129900*
X133257Y195365D02*
X137500D01*
Y195400*
X129320Y195365D02*
Y197565D01*
X138355Y206600*
X151000*
X113680Y195335D02*
Y198099D01*
X129382Y213800*
X142400*
X113680Y195335D02*
Y195350D01*
X118769*
X121820Y192106D02*
X121894D01*
X121900Y192100*
X121820Y192106D02*
X122706D01*
Y188854*
X124674D02*
X129191D01*
X129865Y188180*
X120737Y188854D02*
Y192106D01*
X121820*
X118769Y188854D02*
Y170838D01*
X120500Y169106*
X124674Y195350D02*
X129320D01*
Y195365*
X145400Y164300D02*
Y156255D01*
X145435Y156220*
X147635*
Y160157D02*
Y162635D01*
X149400Y164400*
Y166000*
X143035Y156220D02*
Y156039D01*
X145547Y153527*
Y150244*
X173765Y154480D02*
X177800D01*
Y154500*
X168744Y155656D02*
Y155923D01*
X173000Y159900*
X168744Y149947D02*
Y150543D01*
X173765*
X164217Y155656D02*
X164343D01*
Y160935*
X171680Y144535D02*
Y144935D01*
X171745Y145000*
X182700*
X183000Y144700*
X158244Y141484D02*
X164511D01*
X167562Y144535*
X167743*
X147516Y150244D02*
Y156220D01*
X147635*
X168280Y160935D02*
Y165300D01*
X168300*
X155735Y160057D02*
X159800D01*
Y160100*
G54D16*
X121820Y192106D02*
X121894D01*
X121900Y192100*
G54D78*
X124674Y195350D03*
X122706D03*
X120737D03*
X118769D03*
Y188854D03*
X120737D03*
X122706D03*
X124674D03*
G54D79*
X121820Y192106D03*
G54D113*
X201000Y178606D03*
Y168606D03*
Y158606D03*
Y148606D03*
X211000Y178606D03*
Y168606D03*
Y158606D03*
Y148606D03*
X120500Y169106D03*
X221800Y194606D03*
X107000Y117606D03*
G54D115*
X110800Y135800D03*
X115000Y136000D03*
X124700Y131800D03*
X119700Y136200D03*
X103500Y131900D03*
Y127900D03*
X109200Y104300D03*
X125300Y115900D03*
X154200Y114700D03*
X175400Y127800D03*
X175700Y133200D03*
X183000Y137100D03*
X182700Y132900D03*
X182900Y128200D03*
X149900Y113700D03*
X145900Y113900D03*
X142300Y109900D03*
X196200Y112600D03*
X192200Y115800D03*
X184400D03*
X172500Y115600D03*
X160700Y115800D03*
X157000Y112400D03*
X152000Y137000D03*
X144000D03*
X130000Y152900D03*
X121800Y147000D03*
X124900Y199700D03*
X119100D03*
X116900Y149900D03*
X120400Y143200D03*
X116100Y140100D03*
X137500Y195400D03*
X105900Y195300D03*
X139200Y160200D03*
X129900Y180100D03*
X114000Y180200D03*
X121900Y192100D03*
X170600Y204700D03*
X178400Y204400D03*
X172500Y192200D03*
X168600Y187200D03*
X176500Y186800D03*
X174500Y204600D03*
X166600Y204700D03*
X164700Y191900D03*
X175400Y142300D03*
X145400Y164300D03*
X159000Y155800D03*
X183000Y144700D03*
Y141000D03*
X149400Y166000D03*
X173000Y159900D03*
X177800Y154500D03*
X168300Y165300D03*
X192200Y190400D03*
X162000Y207000D03*
X148000Y141000D03*
X152000Y145000D03*
X144000D03*
X159800Y160100D03*
X142400Y213800D03*
X151000Y206600D03*
G54D151*
X103500Y131900D02*
Y131935D01*
Y127900D02*
Y127935D01*
X136700Y161236D02*
X158764Y183300D01*
X170215*
X172500Y185585*
Y192200*
X136700Y161236D02*
Y158960D01*
X142160Y153500*
X142996*
X143579Y152917*
Y150244*
X135300Y161815D02*
X158185Y184700D01*
X169636*
X171100Y186164*
Y188236*
X135300Y161815D02*
Y157676D01*
X141610Y151366*
Y150244*
X133900Y162395D02*
X158705Y187200D01*
X168600*
X133900Y162395D02*
Y156924D01*
X138756Y152069*
Y147390*
X132500Y162975D02*
X158125Y188600D01*
X164936*
X167700Y191364*
Y203600*
X132500Y162975D02*
Y156173D01*
X135000Y153673*
Y147507*
X137086Y145421*
X138756*
X131100Y163555D02*
X159445Y191900D01*
X164700*
X131100Y163555D02*
Y155442D01*
X132500Y154042*
Y147175*
X136000Y143675*
X137483Y143604*
X138756*
Y143453*
X119100Y199700D02*
X120868Y197932D01*
X120737Y195350D02*
X120868D01*
Y197932*
X122706Y195350D02*
Y197506D01*
X124900Y199700*
X170600Y204700D02*
X169500Y203600D01*
Y189836*
X171100Y188236*
X164020Y150341D02*
X168941Y155262D01*
Y155656*
X164020Y150341D02*
Y149947D01*
X164217*
X170600Y204700D02*
X174200Y208300D01*
X190357*
X217400Y181257*
Y165006*
X178400Y204400D02*
X185206D01*
X211000Y178606*
X178400Y204400D02*
X179000Y203800D01*
X174500Y204600D02*
X176800Y206900D01*
X189777*
X216000Y180677*
Y173606*
X174500Y204600D02*
X175800Y203300D01*
X166600Y204700D02*
X171600Y209700D01*
X190937*
X218800Y181837*
Y156406*
X166600Y204700D02*
X167700Y203600D01*
X211000Y148606D02*
X218800Y156406D01*
X211000Y158606D02*
X217400Y165006D01*
X211000Y168606D02*
X216000Y173606D01*
X168744Y155656D02*
X168941D01*
X168744Y149947D02*
X168880D01*
X158244Y145421D02*
X159914D01*
X161200Y146707*
Y152443*
X164217Y155459*
Y155656*
X158244Y143453D02*
X162719D01*
X168880Y149614*
Y149947*
X149484Y150244D02*
Y153695D01*
X149900Y154111*
Y161776*
X155024Y166900*
X155795*
X174000Y185105*
Y187836*
X175800Y189636*
Y203300*
X151453Y150244D02*
Y161349D01*
X155504Y165400*
X156275*
X176500Y185625*
Y186800*
X153421Y150244D02*
Y161338D01*
X155183Y163100*
X156336*
X179000Y185764*
Y203800*
X155735Y156120D02*
Y156020D01*
X159000*
Y155800*
G54D164*
X148500Y140500D03*
G54D165*
X164217Y155656D03*
Y149947D03*
X168744D03*
Y155656D03*
G54D166*
X113680Y195335D03*
X109743D03*
X129320Y195365D03*
X133257D03*
X115020Y131965D03*
X118957D03*
X161980Y123935D03*
X158043D03*
X168280Y160935D03*
X164343D03*
X122020Y122965D03*
X125957D03*
X121580Y108435D03*
X117643D03*
X108880D03*
X104943D03*
X135880Y104535D03*
X131943D03*
X129780Y108435D03*
X125843D03*
X171680Y144535D03*
X167743D03*
X171680Y139935D03*
X167743D03*
X171680Y135435D03*
X167743D03*
X171680Y130935D03*
X167743D03*
X171780Y126435D03*
X167843D03*
X130180Y135535D03*
X126243D03*
X126220Y140065D03*
X130157D03*
X130180Y144635D03*
X126243D03*
X130180Y149235D03*
X126243D03*
X129420Y130965D03*
X133357D03*
X110780Y127935D03*
X106843D03*
X110780Y131935D03*
X106843D03*
X118980Y127935D03*
X115043D03*
X142080Y123035D03*
X138143D03*
G54D167*
X151965Y122780D03*
Y118843D03*
X155735Y156120D03*
Y160057D03*
X129865Y188180D03*
Y184243D03*
X113265Y108280D03*
Y104343D03*
X119765Y118280D03*
Y114343D03*
X115765Y118280D03*
Y114343D03*
X173765Y154480D03*
Y150543D03*
X143035Y156220D03*
Y160157D03*
X147635Y156220D03*
Y160157D03*
X147465Y122780D03*
Y118843D03*
X128765Y118280D03*
Y114343D03*
X133265Y118280D03*
Y114343D03*
X142265Y118280D03*
Y114343D03*
X137765Y118280D03*
Y114343D03*
X113965Y187980D03*
Y184043D03*
G54D168*
X155390Y150244D03*
X153421D03*
X151453D03*
X149484D03*
X147516D03*
X145547D03*
X143579D03*
X141610D03*
Y130756D03*
X143579D03*
X145547D03*
X147516D03*
X149484D03*
X151453D03*
X153421D03*
X155390D03*
G54D169*
X138756Y147390D03*
Y145421D03*
Y143453D03*
Y141484D03*
Y139516D03*
Y137547D03*
Y135579D03*
Y133610D03*
X158244D03*
Y135579D03*
Y137547D03*
Y139516D03*
Y141484D03*
Y143453D03*
Y145421D03*
Y147390D03*
G54D170*
X136080Y111346D02*
Y111725D01*
X137765Y114210*
Y114343*
X109200Y104300D02*
Y104343D01*
X113265*
X133265Y114343D02*
Y114162D01*
X136080Y111346*
X118980Y127935D02*
X126209D01*
X129239Y130965*
X129420*
X115765Y114343D02*
Y114062D01*
X119765*
Y114343*
X115765Y118280D02*
Y117999D01*
X119765*
Y118280*
Y114343D02*
Y114162D01*
X121825Y112102*
X119765Y118280D02*
Y120709D01*
X122020Y122965*
X129780Y108435D02*
X131943Y106272D01*
Y104535*
X135880D02*
Y111146D01*
X136080Y111346*
X104943Y108435D02*
Y115550D01*
X107000Y117606*
X108880Y108435D02*
X113265D01*
Y108280*
Y108435*
X117643*
X121580D02*
X121825D01*
Y112102*
X121580Y108435D02*
Y108535D01*
X125843*
Y108435*
X125957Y122965D02*
Y123200D01*
X129400*
X133357Y127157*
Y130965*
G74*
X0Y0D02*
M02*
